<?xml version="1.0" encoding="utf-8"?>
<!-- Generator: Adobe Illustrator 19.1.0, SVG Export Plug-In . SVG Version: 6.00 Build 0)  -->
<svg version="1.1" id="Layer_1" xmlns="http://www.w3.org/2000/svg" xmlns:xlink="http://www.w3.org/1999/xlink" x="0px" y="0px"
	 viewBox="0 0 2448 3264" style="enable-background:new 0 0 2448 3264;" xml:space="preserve">
<style type="text/css">
	.st0{fill:#FFFFFF;}
</style>
<g>
	<g>
		<path d="M-2,2c816,0,1632,0,2448,0c0,1088,0,2176,0,3264c-816,0-1632,0-2448,0C-2,2178-2,1090-2,2z M1405.9,1397.9
			c2-0.3,4-0.7,6-1c-0.2-0.6-0.4-1.1-0.6-1.7c-1.8,0.9-3.6,1.9-5.3,2.8c-4.7,1-7.6,3.8-8.8,8.5c-1.8,6.7,0.1,9.2,6.9,9.5
			c8.2,0.4,16.4,2.2,24.4-1.4c0.3-0.1,1,0.7,1.2,0.9c-2.2,6.4-4.3,12.7-6.5,18.9c-0.2,0.6-0.6,1.2-1,1.7c-3.9,6.2-6.3,6.7-13,3.1
			c-2.6-1.4-5.5-3.1-8.2-3.1c-5.2,0-9.7-0.8-14.2-3.5c-3.7-2.2-7.6-2.1-10,2.9c1.3,1.7,2.6,3.1,3.7,4.8c3.1,4.9,2.3,7.7-3,10.2
			c-2.4,1.1-5.2,1.5-7.4,2.8c-1.7,1-2.7,3-5.1,5.9c8.3,0.4,14.7,1,21.2,1c3.9,0,6.8,0.8,6.9,5.2c0.1,4.3-3.2,4.2-6.3,4.5
			c-6.7,0.6-13.5,1.6-20.6,2.5c5.7,10.2,10.1,12.2,18.8,8.9c3.4-1.3,6.4-3.5,9.7-5c3.4-1.6,6.9-2.6,9.8,2.3c-2,1.3-3.9,2.4-5.6,3.7
			c-1.5,1.2-3.5,2.3-4.1,3.9c-2.5,7.1,1.2,15.1,8.1,19.1c3.1,1.8,7.3,3.5,8.6,6.4c2.5,5.5,4.3,11,9.6,14.5c0.8,0.5,0.8,3.1,0.4,4.5
			c-0.3,0.8-2.5,1.9-3.2,1.5c-7.3-3.5-14-2.2-20.7,1.7c-0.9,0.5-2.7,0-3.9-0.5c-7.9-3.1-15-0.2-22.2,2.6c-2.7,1.1-5.6,2.5-8.4,2.5
			c-15.5,0-15.9,0.3-14.6,15.4c0,0.3,0.1,0.7,0.1,1c0.4,7-0.9,8.8-7.5,10.8c-2.9,0.9-5.8,1.9-8.7,2.9c-0.4,1.1-0.9,2.2-1.3,3.2
			c1.6,0.6,3.1,1.2,4.6,1.9c6.3,2.8,11.4,1.3,16.4-3.2c4-3.6,7.4-3.1,10.3,0.4c2.9,3.5,2.6,6.9-1.4,10.3c-2.5,2.2-5.3,4-8,6
			c-8.4,6.3-8.4,6.3-4.2,16.3c2.7,6.4,1.8,8.7-4.8,11.6c-1.2,0.5-2.6,0.8-3.8,1.3c-7.4,3.2-8.9,7-5.5,14.1c0.8,1.7,1.7,3.4,3,6
			c-3.3,1.7-6.2,3-9,4.7c-4.5,2.8-6.3,8.6-3.8,11.9c2.2,2.9,8,3.4,11.9,0.7c2.4-1.7,4.4-3.8,6.5-5.7c6,6.4,6.3,8.5,2.7,15.9
			c-2.7,5.5-1.9,15.4,2.8,17c6.3,2.2,13.4,2.3,20.1,2.8c1.9,0.1,4.1-1.7,5.9-3c1.9-1.3,3.4-3.2,5.2-4.6c7.8-6.1,7.8-6,2.5-14.8
			c-0.3-0.5,0-1.3,0-2c4.3-9.8,16.6-3.6,22.8-10c-5.8-4.4-10.9-8-15.4-12.2c-1.3-1.2-1-4.1-1.5-6.2c2.4-0.2,5-1.2,7.2-0.5
			c3.1,0.9,5.8,3.9,8.8,4.3c2.8,0.3,6.4-1.1,8.7-2.9c0.9-0.7-0.5-4.6-1.1-7c-0.4-1.5-1.1-3-1.5-4.2c3.6-4.9,8.1-4.8,12-2.7
			c10.3,5.3,19.3,2.7,28.2-3.1c1.9-1.3,4.1-2.3,6.3-2.9c5.5-1.5,11.5,1,11.4,6.4c0,9.1,6.8,17.4,1.8,27.1c-2.5,4.9,0.1,7.8,5.4,9.6
			c5,1.7,9.9,3.8,15.3,5.9c0.1-1.1,0.3-3,0.3-4.9c0.1-3.8,0.3-7.8,5.2-8.3c4.3-0.4,6.9,2.5,8.1,6.2c1.1,3.1,1.2,6.5,1.8,9.8
			c1.2,5.7,3.2,6.9,8.2,4.4c3-1.5,5.9-3.1,8.6-5.1c4-3,6.5-6.9,6.2-13.7c-5.2,3.6-9.2,7.7-14.5,4c-3.1-2.2-5.1-5-3.8-8.6
			c6.9,0,13.2-0.6,19.4,0.2c5.1,0.6,9.3,0.1,12.7-3.7c3.5-3.8,7.1-3.7,11.7-1.9c2.8,1.1,7,1.3,9.4-0.1c7.7-4.6,15.9-6.7,24.5-7.7
			c10.2-1.2,17-6.8,20.9-16.3c1.5-3.6,3.8-7,6.4-10c9.1-10.7,18.4-21.1,27.6-31.6c7.9-8.9,16.7-9.8,26.3-2.7c2.4,1.8,4.5,3.9,6.7,6
			c4.9,4.7,10.2,7.1,17.2,5.1c2.4-0.7,5.5-0.8,7.8,0c7.6,2.8,13-0.7,18-5.5c5.5-5.2,8.6-11.9,9.2-19.5c0.4-4.4,2.5-7,5.6-10
			c4-3.8,7.2-8.5,10.3-13.2c2.4-3.6,3.9-7.7,6-11.5c19.1-33.6,48.6-56,80.9-75.4c1.1-0.7,2.3-1.3,3.6-1.8c6.2-2.3,10.3-1,13.1,5.1
			c4,8.8,8.4,17.6,2.5,27.4c-0.8,1.4-0.9,3.2-1.3,4.8c-1.9,9.2-4.5,18-10.1,25.9c-1.8,2.6-3.1,6.2-3.2,9.3
			c-0.1,9.4-5.1,16.1-10.2,23.3c-4.9,7-8.9,14.8-12.4,22.7c-2.2,5,1.6,8.8,6,6.2c11.8-6.8,25.6-11.7,30.4-26.5
			c16.9,1.7,39.2-8.2,48.7-20.5c9.6-1,18-1.9,26.6-2.8c0-4,0-7,0-8.6c6,0.8,11.3,2.1,16.7,2.1c5.5,0,10.5,6.8,18,0.5
			c-10.9-6.5-21.3-12-31.9-16.7c-10.7-4.7-22.3-7-34.4-4.9c2.6-10.4,3.9-12.1,9.6-9.7c10,4.2,19.8,1.4,29.5-0.1
			c8.4-1.3,10.7-5.8,9.8-14.4c-0.3-2.7-0.3-5.5-0.5-8.1c5.3-1.1,6.8,1.8,7.8,4.5c3.7,9.9,12.3,13.2,21.1,16.9c1.9-2,3.2-4.1,5.1-5.2
			c1.8-1.1,4.3-2,6.2-1.7c12.2,2.2,23.1,1.6,28.9-11.8c0.3-0.6,1-1,1.2-1.6c0.6-1.8,2-4.5,1.3-5.3c-1.3-1.4-3.8-2.1-5.8-2.4
			c-8.5-1-17-1.3-25.5-2.5c-6.2-0.9-12.1-3.1-18.3-4.3c-3.4-0.7-5.3-2.2-5.9-5.7c-1.5-8.6,3.2-16.4,11.7-17.9
			c10.9-1.9,21.6-2.9,31.1,5.6c4.9,4.4,11.3,6.7,18,2.4c0.1-5.3-2.8-9-6.8-9c-10.9,0-12.3-10-17.7-15.7c-0.7-0.7,0.1-4.2,1.2-4.8
			c1.2-0.7,3.9-0.1,5.1,1c2.9,2.7,5,6.2,7.8,9.1c4.2,4.3,9,5.5,14.4,1.6c-0.9-4-1.8-8.1-2.5-11.4c-4.9-1.5-9.2-2.2-13-4.2
			c-2.7-1.4-5.4-4.1-6.5-6.9c-4.1-10-3.9-10.1-15.3-8.9c-3.6,0.4-7.2,1-9.7-4.3c3.6-1.1,6.8-1.8,9.8-2.9c7.8-2.8,10.1-7.9,7.3-15.6
			c-2.6-7.2-5.1-14.4-7.5-21.6c-1.7-5.2,0.1-7.5,5.7-7.4c1.3,0,2.7,0.8,3.9,0.5c2.1-0.5,4.1-1.6,6.1-2.4c-1.1-2.1-1.7-5-3.4-6.3
			c-4.8-3.5-10.2-6.3-15.3-9.4c-6-3.6-12.1-7.1-17.8-11c-1.6-1.1-3.3-4-2.9-5.6c0.8-3.4,4-2.6,6.6-1.9c2.9,0.7,6,2.3,8.7,1.8
			c6.9-1.3,13.1-0.2,19.5,4.4c3.3-3.7,6.9-6.7,9.3-10.5c3-4.8,5.1-10,10.8-12.6c1.4-0.7,2-3.8,2.3-5.9c0.4-2.1,0.1-4.4,0.1-6.6
			c4.5-1.2,8.1-2.1,12.8-3.3c-2.7-3.7-5.4-6.1-6.3-9c-0.9-2.9,0.1-6.4,0.3-10.7c-5-1-9.8-2.5-14.6-2.8c-2.2-0.1-5.6,1.4-6.6,3.1
			c-0.9,1.5,0.7,4.7,1.6,6.9c0.8,2,2,3.7,3.3,5.9c-7.8,1.1-7.9,1-17.5-15.7c3.1-4.3,7.7-5.9,12.8-6.2c2.3-0.2,4.7,0.2,7-0.2
			c6-0.9,9.2-4.4,9.2-9.9c0-5.6-3-9.4-8.8-10.3c-3.6-0.5-7.3-0.1-11,0c-2.9,0-6.2,0.9-7.7-3.6c0.6-0.8,1.2-2.4,2.1-2.7
			c6-1.5,10.1-4.7,12.1-10.7c0.4-1.3,2.6-3.1,3.6-2.9c7.8,1.8,16.6-0.7,23.2,6.8c3.7,4.2,9.4,6.7,14.5,10.3c1.3-2.2,1.9-3.3,2.6-4.5
			c4.3-7.9,5-8.2,14.2-6.9c1.6,0.2,3.5,0.9,4.9,0.3c1.6-0.6,3.8-2.1,4-3.5c0.2-1.3-1.6-3.6-3-4.2c-2.4-1-5.2-1-7.8-1.3
			c-13-1.5-26.4-0.6-37.7-9.6c-3.1-2.5-8-3.8-12.2-0.8c-2.7,1.9-5.8,5-8.7,1.8c-1.5-1.6-0.5-5.4-0.7-8.2c-0.1-1-0.3-1.9-0.5-3
			c-4.6-3.7-11.7-5.2-12.9-12.5c4.7-4.4,12.8-3.9,14.6-11.7c-0.9-1-1.7-2.2-2.6-2.9c-1.3-1-3-1.6-4.1-2.8c-0.8-0.8-1.6-2.7-1.2-3.4
			c0.7-1.3,2.4-2.9,3.5-2.8c2.2,0.1,4.5,1,6.4,2.2c2.5,1.6,4.4,4.1,6.8,5.9c5.1,3.9,13.7,4.7,17.6,0.7c5.7-5.8,13.5-10.1,14.8-19.5
			c0.2-1.4,2.6-2.6,4-3.8c1.3,3,1.1,4.9,0.7,6.7c-1.1,5,0.7,9.2,3.7,13c4.8,6.1,9,6.7,13.8,0.8c5.9-7.3,13.4-10.2,22.3-12
			c5.4-1.1,10.7-3.5,15.5-6.2c4.9-2.7,6.3-7,4.4-12.8c-2.4-7.5-1.1-9.5,6.9-10.4c8.3-1,15.9-2.4,18.3-13c3.7,1.9,6.5,3.5,9.4,4.8
			c3.1,1.4,5.9,0.8,8-2c3.9-5.2,1.5-10.8-5-11.6c-3.7-0.4-7.4-0.5-11.7-0.8c2.1-8,7.2-10,12.9-11.3c3.2-0.7,6.7-1.1,9.6-2.4
			c4.7-2.1,5.1-6.1,1.1-9.3c-2.8-2.3-6.3-3.8-9.2-6c-1.7-1.3-3.8-3.2-4-5.1c-1-6.3,6.5-14,12.9-13.1c5.8,0.8,10.5-0.3,14.8-4.1
			c2.8-2.6,5.7-3.1,9-0.7c2.3,1.7,5.2,3.1,6.8-0.1c0.9-1.9,0.7-5.8-0.7-7.2c-4.9-4.8-4.8-10.5-3.5-16.6c-2.6-1.2-5.2-1.7-6.6-3.3
			c-2.1-2.3-4.3-5.2-4.6-8c-0.7-6,2.8-9.2,9-9.2c6.3,0.1,12.7,0.8,18.9,0.5c2.6-0.1,7.1-2.1,7.3-3.6c0.4-2.7-1.3-6.3-3.3-8.5
			c-2.4-2.6-5.9-4.1-9-6.1c-2.5-1.6-5.6-2.6-4.4-7.1c1.1-0.2,2.6-0.8,3.6-0.4c9.5,3.6,15.4-0.2,18.9-9c0.1-0.3,0.4-0.6,0.5-0.8
			c6.6-10.6,6.4-10.9-4.9-15.3c-4.5-1.7-9.4-3.1-11.6-8.3c6.2-2.7,11.7-5.7,17.6-7.6c6-2,12.3-3,19-4.5c-2.7-8-14.8-4.8-16.8-14.1
			c2.4-0.9,4.4-2,6.6-2.4c7.2-1.2,13.2-3.5,16.8-10.8c2.3-4.7,5.7-4.7,11.1-2.1c2.7,1.3,4.5,5.3,8.9,3.1c1-5.3-3-6.8-6.4-8.6
			c-2.9-1.6-6.6-3-5.4-7.2c1.2-4.1,5.1-5.5,8.8-5.1c3,0.4,6,2.2,8.7,3.9c1.6,1,2.3,3.3,3.9,4.4c1.2,0.8,3.4,1.2,4.5,0.6
			c1-0.6,1.8-2.8,1.7-4.1c-0.3-2.3-1.5-4.4-2.1-6.6c-2.3-8.4,1.2-12.1,9.8-10.3c2.7,0.6,5.5,2.7,8.4-1.4c-2-1.2-3.5-2.4-5.2-3.1
			c-2.2-0.8-4.9-0.6-6.7-1.8c-2-1.3-4.1-3.5-4.6-5.7c-0.9-3.4,3.7-10.1,7.4-10.8c2.2-0.4,5.2,0.4,7.1,1.7c2.2,1.5,3.7,4.1,5.9,6.8
			c4.1-11.3-0.3-18.2-10.2-18.7c-4.6-0.2-10,1.5-14.6-5c3.8-0.9,6.4-2.1,9-2.1c14.8-0.1,14.8,0,8.5-13.8c-2.6-5.6-0.6-8.7,5.8-9.2
			c1.8-0.1,3.7-0.3,6.2-0.4c-2.5-9.8-14.8-7.3-17.5-16.4c2.3-2.6,4.8-5.5,6.8-7.8c-6.6-6.6-13-13-19.8-19.8
			c6.1-4.7,11.3-7.9,18.3-2.8c1.5,1.1,4.8,1.5,6.5,0.7c5.4-2.5,10.4-2,15.4,0.4c6.6,3.1,11.8-3.8,10.4-9.9c-0.9-4.3-3.4-7.1-7.9-8
			c-3.1-0.7-6.2-1.5-9.1-2.2c0.6-5.1,1.3-9,1.4-12.9c0.1-4.3,1.8-7.2,6-8c5.7-1,9.6-4.2,12.5-9.1c0.9-1.5,2.8-2.4,5.4-4.4
			c0.8,5.9,1.5,10.5,2.2,15.5c11.5-7.3,12.3-10.7,7.5-21.8c-1.3-3-1.8-7.5-0.5-10.3c2.3-5.2,0.7-9.4-0.4-14.4
			c-1.2-5.4-6.5-5.8-10.4-10.3c5-1.4,8.7-2.4,12.3-3.5c3.1-1,6.9-1.5,8.9-3.7c3.4-3.6,7.1-4.6,11.6-4.6c2,0,4-0.3,5.9-0.9
			c5.1-1.6,7.6-5.1,7-9.6c-0.6-4.6-3.3-7.1-7.9-7.6c-2.6-0.3-5.1-0.8-6.1-1c-3-4.8-5.2-8.2-7.3-11.7c-1.3-2.1-3.7-4.8-3.1-6.4
			c0.7-1.9,3.8-3.6,6.1-4.1c5.1-1,9.4-3,12.7-7.2c1.4-1.7,3.5-3.4,5.6-3.9c6.1-1.5,10.2-5.5,14.9-9.4c9.1-7.5,11.6-16.6,9.5-27.4
			c-6.5-33.3-13-66.7-19.9-99.9c-8.7-42.1-17.7-84.1-26.8-126.1c-1.2-5.7-3.5-11.6-6.7-16.4c-3.7-5.7-9.2-10.3-13.6-15.6
			c-5.1-6.1-8.4-6.4-13.3-0.3c-2.2,2.8-3.1,6.6-5.3,9.5c-1.2,1.6-3.6,2.7-5.6,3.1c-1,0.2-3.5-1.9-3.4-2.7c0.8-7.8-4.1-16.6,4.2-23.3
			c2.6-2.1,6.1-5.4,3.9-10.7c-8.3,0.6-13.6,10.9-23.2,6.3c-7-3.3-17.1,1-22-11.5c-1.1,5.9-1.7,8.9-2.6,13.2c-8.3-3-16-5.8-22-11.5
			c-4.5-4.3-8.9-6-15.2-5.7c-5.1,0.3-10.8-0.6-15.4-2.6c-7.2-3.2-12.7-3.3-16.6,4.9c-7.6-6.4-15.3-5.9-23.2-3.2
			c-5.4,1.8-10.6,2.1-14.7-2.6c-7.4-8.5-16.7-9.1-26.5-6.4c-4.3,1.2-7.8,0.5-11.4-1.5c-7-3.8-14.1-7.5-21.1-11.2
			c-3.8-2-5.2-4.9-3.4-9.1c1.3-3,1.3-5.8-1.9-7.9c-5.3-3.5-15.3-2.5-21,2.3c1.8,6.3,12.6,3.2,12.8,12.5c-6.1-1.5-11.6-2.8-17.5-4.2
			c-0.6,3.9-1,6.4-1.7,10.5c-3-2.5-4.8-4.3-6.8-5.6c-1.9-1.2-4.2-2.9-6-2.6c-9.8,1.9-19.8,3.4-29,7c-8.2,3.3-15,4.4-22.3-1.4
			c-4.2-3.4-9.4-4.3-13.7-0.2c-4.9,4.7-10.4,4.9-16.6,4.8c-4.4,0-10.3,0.5-13.1,3.2c-6.5,6.5-13.8,7-22,6.5c-4-0.3-8,0.1-12,0.5
			c-8.5,0.7-16.6,0.2-23.9-5c-1.8-1.3-4.3-2.3-6.5-2.2c-9.9,0.6-20,1-29.8,2.7c-6.4,1.1-12.3,1.7-18.6-0.3c-8.5-2.7-17.2-2.3-25.7,0
			c-6,1.6-6.8,3.1-5,9.3c1.4,4.8,1.2,8.4-4.2,11.1c-6.4-7.8-14.7-11.4-24.4-11.7c-8.3-0.2-10.7,3.6-7.7,11.3
			c0.6,1.4,1.1,2.9,1.7,4.6c-9.6,2.8-10.2-9.3-16.8-9.5c-4.2,3.6-7.4,7.8-11.6,9.8c-7.7,3.7-15.9,6.6-24.1,9
			c-5.6,1.7-11.6,2.7-17.5,3c-4.6,0.3-8.7,0.9-11.3,4.9c-4.8,7.5-12.2,9.2-20.1,8.1c-9.2-1.3-18.3-3.2-27.2-5.5
			c-4.8-1.2-7.8-0.4-9.5,4.2c-0.5,1.2-0.7,2.6-1.3,3.8c-2.6,5.6-4.3,6.7-10,3.8c-5-2.5-8.8-2-12.7,1.6c-1.4,1.3-3.3,1.9-5.4,3.1
			c-7.5-8.6-16.8-4.7-25.5-3.9c-4.4,0.4-5.9,3.7-5.1,8.1c1.1,5.5,3.1,11.2,2.7,16.7c-0.4,5.7-3.1,11.2-5.2,18.1
			c3.6,0.7,7.1,2.3,10.3,1.8c15.1-2.7,28.2,3.4,41.5,8.8c8.6,3.5,9.7,10.4,2.4,16c-9.3,7-18.5,14.7-29.1,19.3
			c-20.4,8.8-40.2,19.5-62.5,23.4c-15.7,2.8-31.5,5.3-47.1,8.5c-6.8,1.4-13.5,3.5-19.9,6.1c-2.6,1-4.4,4.2-6.8,6.7
			c2.1,1.8,3,2.7,4,3.4c9,5.9,9.6,8.4,2.2,16.1c-5,5.2-10.6,10.2-16.5,14.4c-16.6,11.7-32.8,24.2-50.4,34.1
			c-20.3,11.3-38.6,24.8-54.7,41.4c-9.2,9.5-18.3,19.2-27.8,28.4c-7.3,7.1-7.4,7.2-1.6,15.5c1.4,2,3.2,5.8,2.4,6.8
			c-1.8,2.3-5,3.9-8,4.7c-2.4,0.7-5.3-0.5-7.9-0.4c-3.6,0.1-7.4,0.1-10.8,1.2c-2.1,0.7-5,3.4-4.9,5.1c0.1,1.8,2.9,4,5,5.2
			c1.6,0.9,3.9,0.6,5.8,0.9c2,0.3,4.6-0.1,5.7,1c2.2,2.2,4.5,5.1,4.8,7.9c0.5,3.7-3.2,4.4-6.3,4.7c-3,0.3-6,0.7-8.9,1.1
			c-5.3,0.6-8.8,3.1-8.7,8.9c0,5.6,0.2,11.2,0.2,16.8c0,2.3,0.7,5.3-0.5,6.7c-4.9,6-4,11,0.5,16.8c3.1,4,1.8,6.5-2.8,8.5
			c-1.5,0.6-3.3,0.7-4.8,1.4c-4.2,2-4.8,5.1-1.7,8.8c0.8,1,2.1,1.7,3,2.6c5.7,5.5,6.6,10.6,1.3,16.4c-3.7,4.1-8.4,7.5-13.3,10.1
			c-3.1,1.7-5.5,3.1-7,6.4c-1.2,2.7-3.4,4.9-4.8,7.5c-1,1.9-2.3,4.8-1.5,6c0.9,1.5,3.9,2.4,6,2.3c3.9-0.3,7.8-2,11.7-2.2
			c8.4-0.5,11.7,4.7,8.4,12.6c-0.5,1.2-0.6,2.5-0.7,2.9c1.9,6.1,10.5,4.8,10.7,13c-2.8,0.4-5.6,0.6-8.3,1.3c-4.4,1.2-9,2.3-13.1,4.1
			c-3,1.3-5.9,3.7-4.6,7.8c1,3.5,5.2,4.8,10.2,3.4c1-0.3,1.8-0.8,2.8-1.1c6.7-2.2,14.6,1.1,18.5,7.7c3,5.1,1,9.9-6.6,15.5
			c-1.6-3.3-2.9-7-8.2-4.8c1.7,5,5.3,4.3,8.3,4.7c1,0.9,2,1.8,3.1,2.5c9.5,6.5,10.3,9.1,5.6,19.8c-3.2,7.3-7,14.4-9.9,21.8
			c-1.3,3.2-1.9,7.1-1.3,10.4c1.5,8.7,1.3,9.7-6.5,14.3c-2.3,1.4-4.5,3-6.9,4.6c3.9,5.1,8,4.2,11.9,3.7c5.6-0.7,11.2-2,16.8-2.6
			c6-0.6,9.3,3,7,8.5c-1.5,3.7-4.9,6.8-7.9,9.6c-1.6,1.5-4.5,1.3-6.4,2.6c-2.1,1.4-4.9,3.4-5,5.3c-0.1,1.7,2.7,4.1,4.7,5.4
			c2.2,1.4,5,1.8,7.4,3c4.8,2.6,5,6.1,0.4,9c-4.2,2.7-8.8,4.8-12.9,7.6c-3.3,2.3-6.1,5.2-3.4,10.7c8.1-2.7,15.6-2,22.2,3.7
			c0.9,0.8,2.5,1,3.8,0.9c8.2-0.3,13,4,15.9,11.2c1,2.4,2.5,4.8,4,6.9c3,4,4.2,7.7,1.7,12.8c-2.4,4.9,0.7,8.4,6.3,7.8
			c2.5-0.3,5.2-1.4,7.3-2.9c4.4-3,6.2-7.5,7-12.7c1.5-9.7,5.1-18,12.9-25.1c8-7.3,15.4-15.7,19.5-26.3c0.7-1.8,1.9-3.5,3.2-5
			c3.5-4.1,8.3-5.7,11.4-3.6c4.7,3.3,1.9,7.2,0.2,10.6c-5.3,10.6-5,22.2-7.7,33.8c5.7-0.3,6.4-4.3,8.2-7.3c5-8.2,9.7-16.7,15.4-24.4
			c7-9.3,16.1-17.2,22.2-26.9c11.5-18.3,27.9-28.8,47.7-35.4c5.9-2,9.4,0.7,8,7c-1,4.8-3.5,9.3-5.4,13.8c-1.4,3.2-4,6.2-1.1,11.2
			c3-2.1,5.8-3.7,8.2-5.7c6.6-5.5,14.2-5.3,21.8-3.9c1.9,0.4,4.9,3.4,4.8,5c-0.6,6.2,2.7,9.1,7.6,11.4c2,0.9,3.9,2.7,5,4.6
			c2.9,5,7.1,5.6,12,4.6c11.7-2.5,23.4-5.2,35.1-7.6c5.2-1.1,10.4-2.5,15.6-2.6c6-0.2,8.3,2.9,6.1,8.2c-4,9.5-7.6,19.5-13.5,27.7
			c-14.4,20.3-32.7,36.8-53.7,50.2c-4.5,2.8-9.7,5.6-12.5,9.8c-8.6,12.8-24,19.4-30.4,34c-0.4,0.8-1.3,1.5-2.2,2
			c-12.7,7.9-25.2,16.2-38.3,23.4c-7.2,3.9-13.7,8-18,15.2c-1.9,3.1-4.2,6-6.8,8.6c-10.4,10.8-21,21.4-31.4,32.1
			c-5,5.1-3.9,8.2,2.9,10.7c9,3.3,17.8,7,26.6,10.6c0.4,0.2,0.5,1.2,0.9,2.2c-5.7,8.9-18.2,1.7-23.8,8.7c0.9,6.2,0.7,11.7,2.6,16.3
			c2.1,4.8,6.3,8.7,10.6,14.3c-4.5,0.7-7,1.3-9.5,1.5c-4,0.4-8,0.2-11.9,0.9c-8.7,1.6-11.6,5.2-11.1,14.4c0.3,5.1-1.9,7.4-6.5,8.2
			c-5.1,0.9-7.5,4.1-7.4,9.1c0.2,5.7,4.7,5.7,8.7,6c5.2,0.3,9.4,2.2,13.2,6.1c4.4,4.4,9.4,8.3,14.5,11.9c6.7,4.6,6.8,8.6-0.3,12.3
			c-1.5,0.8-3,1.5-4.6,1.8c-10.4,2-20.8,4-31.2,5.9c-2.7,0.5-6.2-0.2-7.2,3.7c3.8,2.9,7.6,5.6,11.1,8.5c6.3,5.4,12.8,7.5,21.1,4.3
			c8.4-3.3,11.4-1.6,17.3,5.2c3.4,3.9,7.5,7.4,11.8,10.4c5.8,3.9,12.1,7,18,10.7c2,1.3,3.6,3.2,5.3,4.7c-2.7,4.2-5.2,3.2-7.5,1.6
			c-2.8-1.9-5.4-4.5-8.9-1.8c-3.4,2.7-2.8,6.5-2,10.1c1.7,7.5,3.2,15,5.4,22.3c1.1,3.7,3.6,7,5.6,10.4c1.1,1.9,2.5,3.6,4.7,6.6
			c-7.5-0.3-12.6,1.5-16.3,7.1c-1.1,1.7-5.6,2.3-8.1,1.6c-12.4-3.4-23.6,1.7-35.2,4.5c-0.7,0.2-1.1,1.4-1.4,1.8
			c2.6,1.9,4.9,3.7,7.6,5.7c-3,3.6-4.8,5.5-6.3,7.6c-2.8,3.8-2.2,6.6,2,7.5c5.8,1.2,11.9,2.3,17.5-1.3c4.8-3.1,8.2-7.1,6.7-14
			c5.3,4,9.7,7,13.7,10.4c4.4,3.8,3.6,7.6-2,9.6c-2.2,0.8-4.6,0.9-6.8,1.7c-6.6,2.6-7.3,6-2.7,11.9c1,1.2,1.5,2.7,2.3,4.1
			C1416.3,1410.5,1410.3,1408.3,1405.9,1397.9z M1095,2326.6c-5-1.6-9-3.6-13.2-4.1c-6.5-0.8-13.1-0.9-19.7-0.7
			c-1.3,0-3.1,2.3-3.6,3.9c-0.3,0.9,1.3,3,2.6,3.7c5.1,3,10.7,3.6,16.3,1.5c4.5-1.7,8-1.1,11.5,2.8c5.4,6.2,5.8,5.9,12.8,0.3
			c6.7-5.3,13.1-3.7,16.8,4.1c1.1,2.4,2.1,5,3.9,6.8c3.2,3,2.7,5.7,1.9,9.7c-1.7,9.4-12.7,14.9-9.4,25.7c-8.7,0-10.1-1.3-8-7.2
			c1.2-3.4,3.8-6.2,5.3-9.5c0.8-1.9,1.6-4.8,0.7-6.2c-1-1.6-4.1-2.8-5.9-2.5c-2.3,0.4-4.6,2.3-6.2,4.2c-1.6,2-2.1,4.9-3.5,7.1
			c-6,9.7-11.1,11.5-21.6,7.1c-4.7-2-8.9-2.1-13.4,0.1c-2.1,1-4.3,2-6.5,2.4c-6.2,1.1-10.2-2.7-10-9c0.1-2.3,0.9-4.8,0.4-6.9
			c-0.4-1.6-2.6-2.6-5.3-5.2c-0.4,5.4-0.7,8.6-1,12.8c-7.5,0.4-11.6,5.3-14.9,11.5c-2,3.7-5.7,4.1-9.6,3.9c-3.1-0.2-6.3,0-9.4,0
			c-0.1,0.7-0.3,1.4-0.4,2.1c8.4,4.3,16.5,9.4,27.7,8.4c0-3.1-0.5-5.5,0.2-7.5c0.6-1.9,2.7-4.8,3.9-4.7c7.5,0.9,15.8,0.6,21,7
			c3,3.7,5.9,4.8,10.2,4.5c3.3-0.2,6.7-0.4,10-0.1c6.9,0.5,13.1,2.8,19.7,9.1c-4.3-0.4-6.6-1-8.8-0.7c-7.5,1-15.2,1.7-22.5,3.6
			c-5.1,1.3-6.5,5.5-4.8,9.3c2.6,5.4,10.9,7.6,14.9,3.2c4.3-4.8,8.3-3.6,12.3-0.8c2.8,2,4.9,5,7.3,7.6c-2.6,2.3-5.2,4.6-7.9,6.7
			c-1,0.8-2.5,0.9-3.8,1.2c-5.1,1.2-8.3,4.2-8.9,9.5c-0.6,5.7-3.3,9.9-8,13.2c-1.7,1.2-2.7,3.4-4,5.1c5.8,8.7,15.2-2.2,21.4,4.7
			c-2.2,1.8-3.9,3.1-5.4,4.4c4.8,19.4,4.7,26.4-0.2,32.2c-0.6-0.3-1.6-0.4-1.7-0.8c-0.8-2.8-1.6-5.7-2-8.6c-0.6-4.1-2.5-6.8-6.7-7.5
			c-3.7-0.6-5.5,1.7-6.7,4.7c-0.3,0.6-0.5,1.3-0.9,1.8c-3.2,4.6-6.5,4.9-10.6,0.9c-0.9-0.9-1.6-2.2-2.4-3.2
			c-4.2-5.1-7.1-5.6-12.9-2.7c-4.4,2.2-8.9,4.1-13.3,6.2c-1.2,0.6-2.6,1.2-3.2,2.2c-3,4.7-5.8,9.5-8.9,14.4
			c5.6,4.9,11.8,3.4,17.6,3.9c7.6,0.6,10.1-6.6,14.7-10.1c15.8,5.1,18.9,7.1,22.1,14.5c-4.5,1.2-8.9,2.4-13.3,3.5
			c-2.9,0.8-6.2,0.8-8.6,2.3c-4.2,2.7-7.9,2.6-12.1,0.3c-2-1.1-4.4-1.3-6.7-1.6c-7.6-0.8-15.2-1.4-22.8-2.2
			c-3.9-0.4-8.1-0.4-8.8,4.2c-0.8,5.5,3.9,5.2,7.5,5.2c9.2,0.1,16.6,3.9,23.3,10c3.7,3.4,7.7,6.3,11.7,9.3c8.2,6.1,8.7,10.2,1.7,18
			c-1.6,1.7-3.2,3.3-4.9,5c-8.9,8.9-18.4,17.4-26.6,26.9c-6.4,7.4-13.3,13.8-20.9,19.8c-3.3,2.6-5.2,7.5-6.8,11.7
			c-1.2,3.3-0.6,7.3-1.5,10.8c-0.5,2-2.2,4.5-3.9,5c-1.6,0.4-4.1-1.2-5.7-2.5c-1.5-1.2-2-3.5-3.4-4.9c-2.9-2.8-6.1-2.4-8.9,0.1
			c-2.5,2.3-1.9,4.8,0.2,7c4.1,4.1,6,8.8,4.6,14.5c-0.7,3.1-2.2,5.7-6.1,4.4c-1.6-4-2.2-9.2-5-11.5c-6.5-5.1-15-7.3-22.5-3.4
			c-7.1,3.8-14.3,4.6-21.9,5.6c-5.1,0.6-10.4,2.5-14.7,5.2c-5.4,3.4-5.3,8.7-1,13.6c1.4,1.6,2.7,3.3,4.5,5.4
			c-2.5,1.5-4.3,2.3-5.7,3.6c-1.6,1.4-4.4,3.5-4.1,4.7c0.6,2.2,2.8,4.1,4.7,5.7c1.5,1.2,3.8,1.4,5.2,2.7c1,0.9,1.8,3.1,1.4,4.3
			c-0.4,1.2-2.3,2.8-3.5,2.8c-3.3-0.1-6.5-0.9-9.8-1.4c-10.7-1.6-17,2.1-21.2,12.1c-1.6,3.9-3.4,8.1-6.3,11.1
			c-5,5.1-6.9,11.1-7.9,17.9c-0.5,3.4-1.8,7.4-4.1,9.5c-3.7,3.4-5.2,6.2-3.7,11.2c0.6,2-0.8,5.3-2.4,7c-2.7,2.8-6.2,5-9.6,7
			c-9.6,5.9-9.9,9.7-1,17.1c0.4,0.3,0.4,1.1,0.7,2.1c-1.4,0.7-2.9,1.3-4.4,2c-3,1.4-6.6,2.2-8.9,4.4c-2.2,2-4.2,5.5-4.1,8.3
			c0.1,4.2,4.2,4.3,7.7,4.4c2.5,0,5,0.6,7.4,0.9c0.5,10.3,2.5,12.2,11.9,12.1c2.6-0.1,5.3-0.8,7.9-1c5.3-0.4,10.5-0.8,15.8-1.1
			c3.3-0.2,6.9,0.7,9.9-0.2c8.4-2.4,15.8-3.1,19.9,6.7c0.1,0.3,0.5,0.6,0.7,0.7c1.8,0.2,4.2,1.2,5.4,0.4c1.3-0.8,2.5-3.5,2.1-4.9
			c-0.7-2.4-2.3-4.8-4.2-6.5c-3.7-3.4-8.6-5.6-11.4-9.5c-4.5-6.1-8.4-6.9-14.9-3c-6,3.6-8.5,1.5-9.4-5.8c-1.1-9-5.1-13.1-14.4-15
			c-2-0.4-3.9-1.5-7.3-3c2.7-1.3,4-2.5,4.9-2.3c9.7,1.9,20.3,2.2,28.9,6.5c7.1,3.6,13.6,6.2,21.4,6.6c7.7,0.5,8,1.5,9.7,9.5
			c0.5,2.2,2.4,5.4,4.1,5.7c3.6,0.6,4-2.9,3.8-5.6c-0.5-7.5,2.3-11.7,9.9-13.6c5.9-1.5,8.3-6.5,7.9-12.3c-0.7-10.1-5.6-16.3-14.8-19
			c1.3-6.6,1.5-7.2,5.4-9.7c2.8-1.8,5.8-3.2,8.7-4.9c2.4-1.4,5.3-3.1,7-0.1c1,1.9,0.5,5-0.2,7.3c-0.7,2.3-2.4,4.4-3.6,6.4
			c9.4,7.9,12.7,7.5,17.6-1.6c1.7-3.2,3.3-6.6,4.3-10.1c1.2-3.9,2.8-6.7,7.2-7.1c4.9-0.5,7.6-3.6,9-8.1c0.7-2.2,1.7-4.3,2.9-6.3
			c5.8-10.5,11.7-20.8,17.4-31.3c1.2-2.3,2.5-5.2,2.1-7.5c-1-5.5,0.7-9.6,4-13.8c1.1-1.5,1.5-5.2,0.5-6.2c-1.6-1.5-4.6-2-6.9-1.9
			c-2.2,0-4.4,1.9-6.6,1.9c-2.3,0-4.6-1.3-7-2.1c1-2.3,1.4-5.2,3.1-6.7c4.5-3.8,9.8-5.5,15.8-3.3c2.4,0.9,4.9,1.5,6.1,1.9
			c5.3-6.1,9.9-11.1,14.3-16.4c2.3-2.8,4.3-5.9,6.3-8.9c3.7-5.4,7.3-11,11.2-16.3c3.5-4.8,7.4-9.4,10.9-14.2c3.1-4.3,5.8-9,9.1-13.1
			c3.5-4.3,5.6-8.7,5.4-14.5c-0.3-6.2,2.1-9.6,8.2-10.8c10.2-1.9,13.5-8.2,14.4-17.6c0.2-2.5,2.2-6.3,4.3-7
			c5.9-2.2,9.6-5.4,10.9-11.7c0.3-1.6,2.8-2.6,4.1-4.2c3-3.8,6.7-7.5,8.7-11.8c2.5-5.6,5.2-10.7,10.8-13.8c3.8-2.1,6-5.4,5.6-9.8
			c-0.5-5.7,1.5-10.4,5.2-14.6c1.3-1.5,2.8-3.2,3.1-5c0.4-2.1,0.3-5-0.9-6.4c-1.2-1.4-4.1-1.9-6.1-1.7c-4.9,0.5-9.7,1.5-14.5,2.5
			c-4.7,1-9.3,2.2-15.1,3.6c2.7-3.3,4.5-5.6,6.4-7.9c2.6-3.3,4.1-6.8,2.9-11.1c-2-7.2,1.1-12.9,5.7-18.6c6.6,3.5,11.9,2,17.1-3.1
			c2-1.9,6.1-2.2,9.3-2.2c12.4,0,13.2-0.7,11-13.1c-0.3-1.8-1.2-3.6-1.9-5.6c-3.1,0.3-5.8,0.9-8.4,0.8c-3-0.1-6-0.3-8.8-1.2
			c-3.6-1.2-6.9-3.5-6.4-7.8c0.5-4.4,4.4-5.9,8-6.3c3.2-0.3,6.6,0.4,9.7,1.3c8.6,2.3,11.8,0.4,10.5-8.3c-1.2-8.1-4.4-15.9-6.7-23.8
			c-0.8-2.8-3-5.9-2.4-8.2c1.3-4.6-0.3-7.4-2.8-10.9c-3.5-4.7-2.6-9.8,2.6-12.7c3.9-2.2,8.7-3,13.1-4.2c2-0.6,4.2-0.6,6.6-1
			c-8-12.2-20.8-4.9-30.3-9.2c-0.5-0.2-1.9,0.7-2.5,1.4c-4.6,5.4-9.7,4.1-15.4,2c-6.3-2.3-9-1-12.4,4.7
			C1096.8,2322.4,1096.3,2324,1095,2326.6z M1039.2,2835.4c2.1-5.5-4-11.1-0.3-17.4c1,1.4,1.8,2.1,2,2.9c1.6,5.9,6,7.8,11.4,7.7
			c5-0.1,7.9-3.1,8.8-7.9c0.9-4.9,4.5-6.2,8.6-6.9c5.4-0.9,9.9-3.2,14-7c2.6-2.4,6.3-3.6,9.4-5.3c14.1-7.8,31.2-10,42.6-22.9
			c1.7-1.9,4.6-2.6,6.9-3.9c7.5-4.2,15-8.4,22.6-12.6c5.8-3.2,11.7-6.2,17.3-9.6c7.1-4.3,14-8.9,20.9-13.6c1.1-0.7,1.3-2.7,1.9-3.9
			c-1.2-0.8-1.7-1.3-2.3-1.4c-1-0.2-2-0.4-2.9-0.2c-18.6,2.9-37.1,7.5-56.2,3.3c-0.3-0.1-0.7,0.1-1,0c-4.4-1.1-9.4-1.2-13.1-3.5
			c-10-6.2-21.4-6.7-29.1,0c-10,8.8-22.8,13.4-31.5,23.6c-4.7,5.6-9.3,11.3-14.2,16.7c-4.6,5.1-6.4,10.3-3.9,17.3
			c1.1,3.2,0.1,7.9-1.4,11.2c-2.3,5.1-5.6,4.9-8.8,0.3c-1.6-2.2-1.7-6-5.8-5.6c-2.5,6.4-2.5,6.5-9.6,9.8c-5.3,2.5-7.3,6.9-6.8,12.2
			c0.4,3.9,1.7,7.8,3.5,11.3C1025.7,2836.8,1030.7,2838.2,1039.2,2835.4z M1203,2211c-5.1,0-9.4-0.2-13.6,0c-5,0.2-9.9,0.8-14.8,1.2
			c-4.9,0.3-11.8-1.2-13,4.5c-1.3,6.6,5.7,7.6,10.7,9.3c6.1,2,6.2,2.7,5.2,9.6c-0.8,5.3-1.6,10.6-1.4,15.9c0.2,5.8,4,10.8,7.5,10.5
			c5.1-0.4,5.5-5,7.1-8.6c2-4.5,3.3-10.2,6.8-13c5.2-4.3,8.7-7.9,6.4-15c-0.5-1.4,0.8-4.5,2-5c1.8-0.8,4.6-0.5,6.4,0.4
			c2.3,1.1,3.9,3.6,6.1,5c4.6,3,11.7,2.6,13.5-1.4c4-9.1,12.3-16.9,8.8-28.6c-1.1-3.8-1.1-8.6,3.2-11.6c1.9,1,3.6,1.9,5.6,3
			c6.3-9.3,10.8-18.7,10.6-29.9c-0.1-3.4,1.2-7.2,2.8-10.3c1.6-3.3,4.3-6.2,1.3-10c-3-3.8-6.9-5-11.6-3.8c-2.5,0.6-4.9,1.3-7.7,2
			c-3.3-7.3-6.1-14-13.5-17.3c-1.4-0.6-2.8-4.3-2.2-5.7c0.6-1.4,3.9-2.9,5.6-2.5c9.1,1.7,18.5,3,24.1,11.9c1,1.6,3,2.5,6.1,5
			c-0.8-7-1.3-11.9-1.9-16.7c-0.7-6.1-1.9-7-8.3-7.3c-4.6-0.2-9.2-0.8-13.8-1.2c-8.2-0.8-16.3-0.5-22.4,5.7
			c-4.7,4.8-9.3,5.5-15.2,2.7c-4.1-2-8.6-3.5-13.5-0.6c2,2.7,4,4.9,5.3,7.5c1.5,2.8,2.3,6,3.5,9.3c2.5-0.5,4.1-0.7,5.7-1
			c5.4-1,8.4,0.5,9.1,4.7c0.8,4.8-2.5,6.4-6.2,7.5c-1.9,0.6-4,0.7-5.8,1.3c-6.1,2-7.7,5.7-5,11.6c1.3,2.7,3.2,5.1,4.5,7.8
			c5.7,11.9,11.7,14.9,25.5,12.3c0.2-1.1,0.8-2.4,0.7-3.7c-0.2-2.6-1.2-5.2-1.2-7.9c-0.1-3.9,3.8-8.5,8.1-9c1.9-0.2,4.8,0.7,6,2.1
			c4,5.1,2.7,12-2.6,16.4c-1,0.8-2.4,1.5-3,2.6c-4.6,7.9-9.7,13.9-20.5,11.8c-3.8-0.7-7.2,3.4-8.1,7.6c-1,4.6,2.2,6.4,5.9,7.9
			c1.3,0.5,2.3,1.8,3.9,3C1210.5,2204.9,1202.6,2203.4,1203,2211z M1469,1727.8c1.7-0.5,5.7-0.6,7.8-2.6
			c6.6-6.2,12.2-13.3,19.3-19.3c4.4-3.8,6.2-10.7,8.9-16.3c3.2-6.6,1.4-11.5-5.4-13c-5.5-1.3-9.6-3.7-13.6-7.5
			c-3-2.9-7.2-4.8-11.1-6.5c-6.1-2.7-9.7-0.8-10.1,6.1c-0.3,5.8-3.1,8.7-7.3,12c-4.3,3.4-7.7,8.1-10.6,12.9
			c-3.4,5.6-5.5,12-8.7,17.7c-4.3,7.7-2.9,12.3,5.5,13.8C1451.4,1726.3,1459.4,1726.8,1469,1727.8z M792.2,2888
			c0.6-1.3,0.8-2.5,1.4-3c3.8-2.7,4.8-6,2.9-10.4c-1.8-4.2-4.9-6.2-9.3-6.3c-4.6-0.2-9.4-0.5-13.9,0.1c-2.6,0.3-6.3,2-7,4
			c-1.3,3.6,2.6,4.6,5.3,5.8c3.2,1.4,6.3,2.9,11.5,5.3c-4.1,3.1-6.3,5.4-9,6.7c-4.8,2.3-9.7,4.4-14.7,5.9
			c-7.8,2.4-10.5,8.9-12.7,15.5c-2,5.8,3,11.3,8.4,10.2c6.4-1.3,12.4-7.3,13-14.2c0.4-4.9,3.3-6.8,7.1-6.5
			c5.5,0.5,11.1,1.7,16.3,3.5c2,0.7,4.2,3.7,4.5,5.9c0.9,5.8,3.6,9.2,9.6,9.4c6.1,0.2,12.5,0.6,15.6-6.1c2.4-5.2,6.4-8.2,11.3-10.7
			c4-2.1,8.2-4.4,8.6-11.3c-10.9,0.7-21.2-2.1-31.8,0.3C803.2,2893.4,797,2893.6,792.2,2888z M1121.6,2291.4
			c3.6-1.5,6.1-2.8,8.8-3.7c5.2-1.8,7.2-5.6,7.2-10.7c0-5.6-1.6-10.6-6.5-13.8c-1.2-0.8-3.4-0.9-4.7-0.3
			c-12.9,4.9-25.7,10-38.4,15.2c-0.7,0.3-0.9,1.6-1.6,2.8c5.9,7.6,14.8,10.7,22.8,15c-0.1,2.8-0.2,5.2-0.3,6.8
			c6.4,0.5,11.9,1,17.5,1.4c6.6,0.5,13.1,0.5,17.7-5.8c-2.8-4.7-6.5-3-9.9-2.2C1129.8,2297.3,1125.7,2297.6,1121.6,2291.4z
			 M759.6,2740.5c6.5,7.6,6.5,7.6,7.6,19.6c0.7,7.4,5.5,10.4,12.5,7.6c11.1-4.3,20.2-17.4,19.9-29.4c0-2-1.4-4.3-2.8-5.9
			c-3.3-3.5-6.8-7-10.7-9.9c-2.7-2-6.2-4.1-9.4-4.1c-4.4,0-5.4,4.2-5.5,8.1c0,4.9-2.3,8-6.7,10
			C762.9,2737.3,761.6,2738.8,759.6,2740.5z M1252.9,2240c-2,0.2-3.9-0.2-5.1,0.6c-6.8,4.1-13.2,3.8-20.7,1
			c-13.1-4.8-18.8-1.3-24,12.3c-2.3,6-1.9,9.1,4,11.2c8,2.9,16.6,4.7,25,5.9c2.5,0.4,6.1-2.2,8-4.5c3.8-4.5,6.7-9.7,9.9-14.7
			C1252.2,2248.6,1255.3,2245.7,1252.9,2240z M1038.2,2414.7c-1,2.2-1.7,3.1-1.7,4c0.4,11.9,7.8,20.8,13.9,29.9
			c1.2,1.8,6.7,1.5,10.1,0.9c3.8-0.6,3.2-4.2,3.1-7.3c-0.1-2.6,0.5-5.2,1.2-7.7c1.7-6.6,0.9-7.8-5.5-10.2c-4.6-1.7-9-4-13.4-6.1
			C1043.5,2417.2,1041.2,2416.1,1038.2,2414.7z M1205.5,2072.5c-1.7,1.1-5,2-6.2,4.2c-0.8,1.4,1.3,4.6,2.6,6.7
			c1.4,2.2,3.3,4.2,5.2,6c9.6,8.5,26.4,4.7,31-7.2c0.8-2.1,0.1-5.2-0.9-7.4c-0.4-1-4-1.8-5-1.1c-6.6,5.1-13.1,2.9-19.8,0.4
			C1210.7,2073.3,1208.7,2073.1,1205.5,2072.5z M1278.1,2059.5c1.3-2.4,2.5-3.7,2.8-5.3c0.5-2.3,1.3-6.1,0.3-6.8
			c-3.1-2.3-5.3,0.6-7.2,3c-0.4,0.5-0.7,1.1-1,1.7c-3.7,5.8-7.6,11.6-11.1,17.5c-1,1.6-1.9,3.7-1.6,5.4c0.9,5.7,13.4,12.5,18.5,10
			c1.5-0.7,2.9-2.7,3.5-4.4C1284.9,2073.2,1286.5,2065.7,1278.1,2059.5z M881.6,2859.1c1.4-0.9,4.4-2,5.7-4.1c0.6-0.9-1.8-4.5-3.6-6
			c-7.4-6.3-16.7-8.1-25.8-9.2c-3.5-0.4-8.2,2.3-11.2,4.9c-4.6,4-3.2,8.9,2.9,10C859.8,2856.5,870,2857.6,881.6,2859.1z
			 M1724.5,1666.6c-5.4,5.1-10,11.2-12.5,18.2c-3.4,9.4,6.3,19.8,16.3,18.1c4.5-0.7,6.8-3.8,4.4-7.8c-3.6-5.9-3.4-11.9-3-18.2
			C1729.9,1673,1730,1668.8,1724.5,1666.6z M831.5,2854.1c-5.1-0.4-5,3-5.6,5.9c-0.9,4.1-4.4,4.6-7.7,5.1c-3.4,0.5-6.7,0.2-8.4-3.6
			c-0.8-1.6-1.6-3.2-2.7-5.4c-3.7,7.9-3.6,12.8,1,15.7c5.9,3.7,12.1,6.9,19.6,3.9c2.8-1.1,6.4-1.1,9.5-0.8c2.6,0.2,5.8,2.2,6.5-1.5
			c0.3-1.7-2.1-4.6-4-5.8c-3.7-2.3-5.9-5.1-6.4-9.4C833.1,2856.6,832,2855.2,831.5,2854.1z M1099.2,2233.3c9.8-4.4,17.2-4.1,24,1.8
			c1.4,1.2,4.6,1.3,6.5,0.6c4.7-1.8,9.1-4.3,13.5-6.5c-5.6-3-10.9-5.7-16-8.5c-7.2-4-21.6-1.1-26.4,5.6
			C1100,2227.5,1100,2229.3,1099.2,2233.3z M754.9,2943.2c8-1.6,14.3-2.9,20.6-4.1c2.3-0.5,4.6-0.8,6.8-1.4c3.4-0.9,7.1-2.6,6-6.5
			c-0.7-2.6-3.8-5.5-6.5-6.3c-11.6-3.8-18.7-0.3-23.6,10.8C757.4,2937.5,756.6,2939.3,754.9,2943.2z M1159.9,2267.7
			c1.3-3.3,2.4-6.2,3.7-9.4c-7.2-3.4-13.5-2.9-19.4,1.1c-4.7,3.2-5.1,7.4-0.5,10.5c6,4,12.7,6.9,19.3,9.9c1.3,0.6,3.4-0.7,7.2-1.7
			C1166.2,2274,1163.4,2271.2,1159.9,2267.7z M1411.1,2113.8c6,4.7,10,8.6,14.7,11.4c6.3,3.7,10.8,1.2,11.9-6
			c0.2-1.6,0.3-3.3,0.1-4.9c-0.6-8.2-5.1-11.3-12.6-8.2C1421,2107.7,1417.2,2110.4,1411.1,2113.8z M1084.7,2603.8
			c1.1,2.2,1.9,5.6,3,5.6c2.2,0.1,4.9-1,6.6-2.6c2.8-2.7,4.6-6.4,7.5-9.1c3.8-3.6,4.2-7.5,2.2-11.7c-1-2.2-3.1-5-5-5.4
			c-1.9-0.3-5.3,1.7-6.2,3.5C1089.6,2590.4,1087.4,2597,1084.7,2603.8z M2036.7,1293.3c-0.1-1.3-0.1-2-0.3-2.7
			c-1.2-3.7-1.3-8.4-6-9.5c-1.9-0.4-5.8,0.9-5.9,1.8c-0.4,3.4-0.6,7.3,0.8,10.2c2.2,4.8,3.5,8.9,1,14.1c-1.9,4,0.8,7.1,4.5,8.7
			c1.6,0.7,4.3,0.7,5.5-0.3c1.2-0.9,2-4,1.4-5.1C2034.1,1304.6,2033.7,1298.8,2036.7,1293.3z M821.5,2709.8c-5.4-4.3-13-7.3-17.2-7
			c-5.1,0.4-6.8,3-5.4,8c1.1,3.9,2,7.9,3.1,12C812.1,2723.7,817.7,2718.2,821.5,2709.8z M1163.7,2191.8c-4-3.5-8-7-12.8-11.3
			c-2.9,11.2-14.4,6.5-21.2,12.6c6.2,2,11.2,3.1,15.8,5.1C1153.8,2201.8,1157.7,2200.8,1163.7,2191.8z M1712,1597.1
			c-5.5-4.5-11.4-3.6-17-1.6c-4,1.4-5.1,5.9-3.1,10c1.7,3.6,4.6,6.6,8.6,4.4C1705.5,1607.2,1710.6,1603.8,1712,1597.1z
			 M2079.7,1208.2c-5.7,0.7-10.3,1-14.8,2c-3.2,0.7-4.2,4.6-1.6,6c5.1,2.6,10.7,5,16.4,5.9c3.8,0.6,5-3.6,4.7-7.3
			C2084,1211.3,2083.1,1208.2,2079.7,1208.2z M1054.4,2300.3c3.7-0.1,6.4-3.3,6.4-7.5c0-5-3.8-9.1-8.5-9.2c-4.7-0.1-9.8,3.3-9.9,6.6
			C1042.1,2294.1,1049.7,2300.5,1054.4,2300.3z M1438.1,1342.2c-3.7-1.5-6.7-3.4-9.9-3.8c-4.8-0.6-9.9-0.7-14.7,0.2
			c-3.4,0.6-3.6,4.7-0.8,7C1418.8,1350.5,1430.2,1349.4,1438.1,1342.2z M1456.5,1740.3c0.1-1.2,0.2-2.3,0.3-3.5
			c-7.8-1.8-15.6-3.8-23.5-5.2c-1.5-0.2-4.9,2.5-4.8,3.7c0.1,2.1,1.8,5.4,3.6,6C1440.3,1744.4,1448.5,1742.6,1456.5,1740.3z
			 M1688.7,1766.5c2.5-5.1,4.6-7.9,5-11c0.3-2-1.3-5.1-3-6.3c-3.4-2.3-7.8-3.2-10.8,0.5c-1.3,1.6-1.6,5.4-0.5,7.1
			C1681.3,1760,1684.5,1762.3,1688.7,1766.5z M1186.1,2146.5c-0.9,0.4-1.7,0.8-2.6,1.1c-2.3,7.2-0.2,14.3,1.2,21.3
			c0.3,1.4,3.5,2.1,5.3,3.2c0.8-1.6,2.4-3.3,2.3-4.9c-0.1-4.3-0.5-8.7-1.6-12.8C1189.9,2151.5,1187.7,2149.1,1186.1,2146.5z
			 M1335.2,2083.7c-6.7-4.3-16.9-4.3-21.3-0.1c-1,1-1.9,3-1.6,4.2c0.3,1.2,2.2,2.9,3.4,2.9
			C1322.8,2090.5,1329.9,2089.7,1335.2,2083.7z M2040.9,1172.5c0.9-0.9,3.9-2.4,4.2-4.5c0.8-4.3-4.8-8.2-11.2-8.5
			c-3.1-0.2-6.2-0.1-6.2,4.2C2027.7,1168.4,2032.8,1172.3,2040.9,1172.5z M1248.9,2005.9c0.3,2,0.3,5.1,1.5,7.7
			c0.8,1.6,3.3,3,5.2,3.2c0.9,0.1,3-2.7,3.1-4.2c0.2-4.2,0-8.6-1-12.7c-0.4-1.6-3.3-3.8-4.8-3.6c-1.4,0.1-2.9,2.9-3.8,4.7
			C1248.5,2002.1,1248.9,2003.6,1248.9,2005.9z M1326.3,1597.4c-3.1,3-6.1,5.2-8,8.1c-1.2,1.7-1.8,5.5-0.7,6.7
			c1.2,1.4,4.8,2.1,6.8,1.4C1331.9,1611.2,1332.7,1604.4,1326.3,1597.4z M1300.3,2046.1c0.3-0.6,0.6-1.2,0.9-1.7
			c-3.1-4.7-6.2-9.4-9.4-14c-1.7-2.5-4.1-5.3-7.3-2.8c-3,2.4-1.1,5.6,0.7,8C1289.1,2040.8,1294.9,2043,1300.3,2046.1z
			 M1319.5,2102.8c-2,4.4-4.2,8.5-5.7,12.7c-0.4,1.1,0.5,3.5,1.5,4.2c1.1,0.7,3.3,0.6,4.6-0.1
			C1326,2116.3,1326.2,2109.1,1319.5,2102.8z M1357.7,2168.8c0.5,4.7,2.4,6.4,5.6,5.1c2.1-0.8,4-2.4,5.6-4c2-2.1,4.9-5.1,1.5-7.5
			c-1.7-1.3-5.9-0.8-8,0.5C1360,2164.2,1358.8,2167.3,1357.7,2168.8z M831.8,2673.1c2.1,5.5,2.7,8.9,4.5,11.5c1,1.5,4,2.4,6,2.3
			c1.4-0.1,3.8-2.2,3.9-3.6c0.1-2-0.9-5-2.4-5.9C840.8,2675.6,837.2,2675,831.8,2673.1z M1219.9,2294.1c4.9-0.2,9.1-4,8.3-7
			c-0.5-1.7-2.8-3.7-4.5-4c-3.8-0.7-7.3,2.9-6.6,6.7C1217.3,2291.5,1219.2,2293.1,1219.9,2294.1z M1351.2,1702.8
			c2.4,2.5,3.8,5,5.4,5.2c4.1,0.6,5.9-2.4,6.4-6c0.4-2.9-0.7-6.2-3.9-5.5C1356.5,1697.2,1354.4,1700.2,1351.2,1702.8z
			 M2137.7,1116.7c-5.4-5.7-10.5-7-13.5-3.6c-0.8,0.9-1,3.2-0.4,4.3C2126.1,1121.4,2131.2,1121.2,2137.7,1116.7z M1677.9,1779.6
			c-4.8,4.9-6.2,9.2-4.2,13.8c0.6,1.5,3.5,2.6,5.5,2.6c0.9,0,2.7-3.1,2.5-4.5C1681.1,1788,1679.6,1784.7,1677.9,1779.6z
			 M1305.3,2073.7c-3.2-4.4-5.4-9.1-11.1-7c-1.3,0.5-2.3,4.6-1.7,6.6C1293.6,2077,1297.5,2077,1305.3,2073.7z M2031.2,1468
			c-8.8,1.9-10.1,3-14,11.1C2024.3,1481,2026.8,1479.2,2031.2,1468z M1029.6,2358c-3.5-5-6.6-9.2-10.2-14.3
			C1015.5,2354,1018.7,2358.4,1029.6,2358z M1146.6,2222.2c2.7-2.4,5.2-3.6,6.1-5.6c1.1-2.4-3-5.9-6.7-5.2c-2,0.4-3.7,2.7-5.5,4.2
			C1142.4,2217.6,1144.1,2219.5,1146.6,2222.2z M1418,1329.5c3.8-3.4,6.7-6.6,3.4-10.4c-1.1-1.2-6.5-0.9-7.5,0.6
			C1410.8,1323.8,1414.1,1326.6,1418,1329.5z M1222.6,2060.8c-4.5-5.2-8-9-14.4-8.4C1209.9,2060.8,1211.6,2061.9,1222.6,2060.8z
			 M1387.7,2120.8c5.1,2.5,8.1,4.3,11.4,5.4c1.1,0.4,2.8-0.9,4.2-1.4c-0.6-1.7-0.8-4.1-2-4.9
			C1397.9,2117.6,1394.1,2117.6,1387.7,2120.8z M1404.3,1153.7c-0.8-0.5-1.5-1.1-2.3-1.6c-1.7,2-4,3.7-5.1,6c-1.4,2.8,0,5.6,3.1,5.7
			c1.5,0.1,4-1.9,4.6-3.5C1405.3,1158.4,1404.5,1155.9,1404.3,1153.7z M811.1,2697.6c1.8-2.4,3.2-4.2,4.6-6c-1.5-1-2.9-2.6-4.4-2.7
			c-2.7-0.2-5.5,1-4.9,4.3C806.6,2694.6,808.8,2695.6,811.1,2697.6z M2054,1245.5c0.4-0.9,0.8-1.8,1.3-2.7c-1.7-1.8-3.2-4.1-5.2-5.3
			c-1.1-0.7-3.3,0.4-5,0.7c0.4,1.7,0.3,4.4,1.4,5C2048.6,1244.5,2051.4,1244.7,2054,1245.5z M813.4,3027.7c1.8-2.1,3.5-3.5,4.2-5.3
			c0.2-0.6-2.8-3.5-3.4-3.2c-2,0.9-3.6,2.8-5.3,4.2C810.2,3024.6,811.4,3025.8,813.4,3027.7z M1311.5,589.8c1.9-2.2,3.5-3.6,4.5-5.4
			c0.2-0.4-2.4-3.1-2.9-2.9c-1.8,0.8-3.5,2.3-4.8,3.9C1308,585.7,1309.9,587.6,1311.5,589.8z M1310.4,972.1
			c6.1,0.8,9.9,0.2,11.4-6.6C1316.6,965.6,1312.7,965.8,1310.4,972.1z M1390.4,988.8c-1,0.1-1.9,0.1-2.9,0.2c0.2,3.5,0.4,7,0.7,12.2
			C1394.9,995.9,1393.7,992.4,1390.4,988.8z M804.2,2827.4c-4.1,7-3.9,7.5,3,10.1C808.9,2833.3,807.3,2830.3,804.2,2827.4z
			 M1306.9,1647.6c4,4.1,7,5.4,10.7,1.2C1314.5,1645.2,1311.6,1644.8,1306.9,1647.6z M979.8,2423.4c5.7,1.1,9,1.5,11.2-3.7
			C986.7,2417.9,983.6,2418,979.8,2423.4z M1975.7,1508c0.8-0.3,1.6-0.7,2.5-1c1.1-1.7,2.2-3.3,3-5.1c0.1-0.2-2.3-2.1-2.6-1.9
			c-1.6,1.2-3.2,2.7-4.1,4.4C1974.1,1505.1,1975.3,1506.7,1975.7,1508z M1003.5,2368c0.8-0.5,1.6-0.9,2.4-1.4c0.8-1.5,1.9-3,2.3-4.6
			c0.1-0.4-2.5-2.1-2.6-1.9c-1.3,1.2-2.6,2.5-3.2,4.1C1002.1,2365.2,1003.1,2366.7,1003.5,2368z M1284.4,666.3
			c-1.9-1.1-3.3-2.4-3.9-2.1c-1.6,0.7-2.8,2.2-4.2,3.3c1.1,0.9,2.5,2.8,3.3,2.6C1281.1,669.7,1282.3,668.1,1284.4,666.3z
			 M1433.3,1756.2c-1.9-1.3-3.2-2.9-4.2-2.7c-1.1,0.1-2.1,1.8-3.1,2.8c1,1,2,2.7,3.1,2.9C1430.1,1759.1,1431.3,1757.6,1433.3,1756.2
			z M1192.5,2069c3.1-3.4,4.9-4.5,4.9-5.5c0-1.1-2.2-3.2-2.8-3c-1.5,0.5-3.3,1.8-3.8,3.2C1190.4,2065,1191.7,2066.7,1192.5,2069z
			 M1170.5,2099.1c-4.7-3.1-7.1-3.2-9.6,0.5c1.6,0.7,2.8,1.6,3.8,1.6C1166.1,2101.1,1167.5,2100.2,1170.5,2099.1z M1326.4,2056.5
			c-0.8,0.3-1.5,0.7-2.3,1c1.2,2.7,2.3,5.3,4.2,9.6C1331.2,2061,1329,2058.7,1326.4,2056.5z M1255,2226.3c0-0.8,0-1.6,0.1-2.4
			c-1.9,0-3.7,0-5.6,0c0,0.7,0,1.3,0,2C1251.4,2226,1253.2,2226.2,1255,2226.3z M1248.2,2051.4c-0.5-4.5-2.6-5.8-7-5.8
			C1242,2049.7,1243.9,2051.4,1248.2,2051.4z M1026.2,2289.6c0.4,0.7,0.9,1.5,1.3,2.2c2.9,0.4,5.1-0.2,5.3-5.6
			C1029.9,2287.7,1028.1,2288.6,1026.2,2289.6z M1011.1,2415.5c-0.1,1-0.2,2-0.2,3c1.8,0.1,3.7,0.2,5.5,0.3c0.1-0.7,0.2-1.4,0.3-2.1
			C1014.8,2416.2,1013,2415.8,1011.1,2415.5z M2113.7,211.1c-1.2,1.5-2.2,2.5-2.9,3.8c-0.1,0.2,1.6,1.8,1.8,1.6
			c1.2-0.8,2.3-1.8,3.2-2.9C2115.9,213.5,2114.8,212.3,2113.7,211.1z M2181.1,228.8c-0.2,0.9-0.5,1.7-0.7,2.6
			c2.7,1.6,5.4,3.5,11.1-0.1C2186.7,230.1,2183.9,229.4,2181.1,228.8z M2207.2,1001.4c0.8-1.7,1.8-2.9,1.5-3.5
			c-0.4-0.9-1.8-1.8-2.7-1.9c-0.6,0-2,1.7-1.8,2.4C2204.4,999.3,2205.7,1000,2207.2,1001.4z M1384.1,1324.6c2,1.2,2.9,2.2,3.8,2.2
			c1-0.1,2-1.1,2.9-1.7c-0.8-0.7-1.5-2-2.4-2.1C1387.5,1322.8,1386.4,1323.7,1384.1,1324.6z M1330.4,1486.8c-1,1.8-1.9,2.8-1.9,3.8
			c0,0.6,1.4,1.8,1.9,1.7c1-0.2,1.8-1.2,2.7-1.9C1332.4,1489.5,1331.7,1488.6,1330.4,1486.8z M1373.5,1506.5c1-0.8,2.3-1.6,2.2-1.9
			c-0.3-0.9-1.2-1.7-1.8-2.5c-0.6,0.6-1.6,1.2-1.7,1.9C1372,1504.6,1372.9,1505.4,1373.5,1506.5z M1132.4,2445.2
			c-0.9,0.7-2,1.1-2.2,1.7c-0.2,0.6,0.5,1.5,0.9,2.3c0.9-0.5,1.8-1.1,2.7-1.6C1133.4,2446.9,1133,2446.2,1132.4,2445.2z
			 M1990.1,1515.6c-0.2,1-0.5,1.9-0.7,2.9c1.8,0.4,3.7,0.8,5.5,1.3c0.2-0.7,0.4-1.4,0.7-2.1
			C1993.7,1517,1991.9,1516.3,1990.1,1515.6z M751.4,2964.3c1.1,0.7,1.9,1.7,2.5,1.6c0.7-0.1,1.7-1.2,1.7-1.9c0-0.6-1.2-1.6-1.8-1.6
			C753.1,2962.4,752.4,2963.4,751.4,2964.3z M992,2398.6c0.7-1.2,1.3-2,1.5-2.8c0.1-0.4-1-1.3-1.2-1.2c-0.8,0.3-1.4,0.9-2.2,1.4
			C990.6,2396.7,991.2,2397.4,992,2398.6z M1389.3,1501.6c-1.3-0.9-1.9-1.6-2.7-1.8c-0.4-0.1-1.1,0.5-1.7,0.8
			c0.4,0.7,0.7,1.9,1.3,2.1C1386.9,1502.9,1387.8,1502.2,1389.3,1501.6z M1335.5,971.8c0.4-0.4,0.7-0.9,1.1-1.3
			c-0.6-0.4-1.2-0.8-1.8-1.2c-0.2,0.5-0.7,1.1-0.6,1.6C1334.3,971.2,1335,971.5,1335.5,971.8z M1351.7,1980.1
			c0.9-1.1,1.5-1.7,1.8-2.4c0.1-0.4-0.6-1.5-0.8-1.4c-0.8,0.2-1.9,0.5-2.1,1C1350.4,1977.9,1351.1,1978.8,1351.7,1980.1z
			 M1352,1722.5c-0.3-0.5-0.6-1-0.9-1.5c-0.5,0.3-1.3,0.6-1.4,1c-0.1,0.4,0.5,1,0.8,1.5C1351,1723.1,1351.5,1722.8,1352,1722.5z
			 M1096.4,2260.5c-0.8,0.4-1.4,0.7-1.9,1c0.4,0.8,0.8,1.6,1.3,2.3c0.1,0.1,1.5-0.6,1.5-0.8
			C1097.1,2262.1,1096.7,2261.3,1096.4,2260.5z M2084.2,1314c0.3-0.5,0.5-1,0.8-1.5c-0.5-0.3-1.1-0.8-1.6-0.7
			c-0.4,0.1-0.6,0.9-0.8,1.4C2083.1,1313.4,2083.6,1313.7,2084.2,1314z M2298,257.6c0.3,0.5,0.7,1,1,1.4c0.5-0.4,1.2-0.7,1.3-1.1
			c0.1-0.4-0.6-0.9-0.9-1.4C2298.9,256.9,2298.5,257.2,2298,257.6z M2323.8,800.8c-0.4-0.9-0.6-1.5-0.8-2c-0.8,0.4-1.6,0.7-2.3,1.3
			c-0.2,0.1,0.5,1.6,0.6,1.6C2322.1,801.4,2322.9,801.1,2323.8,800.8z M2098.9,1232.2c-0.1-0.3-0.2-0.8-0.2-0.8
			c-0.5,0-1,0.2-1.5,0.3c0.1,0.3,0.2,0.8,0.2,0.8C2097.9,1232.5,2098.4,1232.3,2098.9,1232.2z M2342.8,279.1c-0.5-0.3-1-0.8-1.5-0.7
			c-0.4,0.1-0.6,0.8-0.9,1.3c0.5,0.3,1,0.8,1.5,0.7C2342.3,280.4,2342.5,279.6,2342.8,279.1z M2032.3,1363.2
			c-0.4,0.3-0.7,0.6-1.1,0.9c0.2,0.2,0.5,0.6,0.6,0.5c0.4-0.3,0.7-0.6,1.1-0.9C2032.7,1363.6,2032.5,1363.4,2032.3,1363.2z
			 M1316.3,989.1c1.6-1.4,2-1.7,2.5-2.1c-0.6-0.5-1.2-1.1-2-1.3c-0.3-0.1-1.2,0.7-1.2,1.1C1315.6,987.5,1316.1,988.4,1316.3,989.1z
			 M1283.2,652.2c0.3,0.5,0.4,1.2,0.8,1.4c0.3,0.2,1-0.3,1.5-0.5c-0.3-0.5-0.4-1.2-0.8-1.4C1284.4,651.6,1283.7,652,1283.2,652.2z
			 M1606.7,1809.7c0.3,0,0.7,0,0.8-0.2c0.2-0.2,0.1-0.6,0.1-0.9c-0.5,0.1-0.9,0.2-1.4,0.3
			C1606.4,1809.2,1606.6,1809.4,1606.7,1809.7z M1715.1,265.4c0.2-0.2,0.6-0.4,0.6-0.6c0.1-0.2-0.2-0.6-0.3-0.8
			c-0.4,0.3-0.7,0.7-1.1,1C1714.5,265,1714.8,265.2,1715.1,265.4z M786.9,2704.3c-0.3,0.1-0.7,0-0.9,0.2c-0.2,0.2-0.1,0.6-0.2,0.9
			c0.5-0.1,1-0.2,1.5-0.3C787.2,2704.8,787.1,2704.5,786.9,2704.3z M2269,909.5c-0.3-0.1-0.6-0.2-0.9-0.4c0,0.5-0.1,0.9-0.1,1.4
			c0.3,0,0.7,0,0.9-0.2C2269,910.2,2268.9,909.8,2269,909.5z M1421.2,1769.7c0.2-0.2,0.4-0.5,0.6-0.7c-0.4-0.1-0.9-0.3-1.3-0.4
			c0,0.3-0.2,0.7,0,0.9C1420.5,1769.6,1420.9,1769.6,1421.2,1769.7z M1368.8,1280.2c0.3-0.1,0.7-0.1,0.8-0.4c0.1-0.2,0-0.6,0-0.9
			c-0.5,0.2-0.9,0.4-1.4,0.6C1368.4,1279.7,1368.6,1279.9,1368.8,1280.2z M1368.8,1420.3l0.6-0.3l-0.6-0.4L1368.8,1420.3z
			 M816.7,2881.9l0.4,0.5l0.3-0.6L816.7,2881.9z M1254.8,2038c0.2-0.2,0.4-0.4,0.6-0.6c-0.4-0.2-0.8-0.5-1.1-0.7
			c-0.1,0.3-0.3,0.6-0.2,0.8C1254.2,2037.7,1254.6,2037.8,1254.8,2038z M798.8,3021.7l0,0.7l0.6-0.4L798.8,3021.7z M1252.8,2208
			c0.3,0.5,0.5,0.9,0.8,1.4c0.3-0.4,0.7-0.8,0.9-1.2c0.1-0.2-0.3-0.7-0.3-0.7C1253.7,2207.5,1253.2,2207.8,1252.8,2208z
			 M2034.3,1411c0.3-0.1,0.5-0.2,0.8-0.3c-0.3-0.3-0.6-0.6-0.9-0.9c-0.1,0.2-0.4,0.5-0.4,0.7
			C2033.8,1410.7,2034.1,1410.9,2034.3,1411z M2077.2,1163.7l-0.6,0.3l0.6,0.4L2077.2,1163.7z M762.3,2784.8l-0.7,0l0.4,0.6
			L762.3,2784.8z"/>
		<path class="st0" d="M1298,806.1c7.5-5.7,9.5-10.4,6.6-15.5c-3.9-6.6-11.8-9.9-18.5-7.7c-0.9,0.3-1.8,0.9-2.8,1.1
			c-5,1.4-9.2,0.1-10.2-3.4c-1.2-4.1,1.7-6.5,4.6-7.8c4.2-1.9,8.7-3,13.1-4.1c2.7-0.7,5.5-0.9,8.3-1.3c-0.2-8.2-8.8-6.9-10.7-13
			c0.1-0.4,0.2-1.7,0.7-2.9c3.3-7.9,0.1-13.1-8.4-12.6c-3.9,0.2-7.8,1.9-11.7,2.2c-2,0.1-5-0.8-6-2.3c-0.8-1.2,0.6-4.1,1.5-6
			c1.4-2.6,3.6-4.8,4.8-7.5c1.5-3.3,3.9-4.8,7-6.4c4.9-2.6,9.6-6,13.3-10.1c5.3-5.8,4.5-11-1.3-16.4c-1-0.9-2.2-1.6-3-2.6
			c-3.1-3.7-2.5-6.8,1.7-8.8c1.5-0.7,3.3-0.8,4.8-1.4c4.6-1.9,5.9-4.4,2.8-8.5c-4.5-5.9-5.4-10.9-0.5-16.8c1.2-1.4,0.5-4.4,0.5-6.7
			c0-5.6-0.2-11.2-0.2-16.8c0-5.8,3.4-8.3,8.7-8.9c3-0.3,6-0.8,8.9-1.1c3.1-0.3,6.8-1,6.3-4.7c-0.4-2.8-2.7-5.8-4.8-7.9
			c-1.1-1.1-3.8-0.8-5.7-1c-2-0.3-4.3,0.1-5.8-0.9c-2.1-1.2-5-3.4-5-5.2c-0.1-1.7,2.8-4.4,4.9-5.1c3.4-1.1,7.2-1.1,10.8-1.2
			c2.6-0.1,5.5,1.1,7.9,0.4c3-0.8,6.1-2.5,8-4.7c0.8-1-1-4.8-2.4-6.8c-5.8-8.3-5.7-8.4,1.6-15.5c9.5-9.3,18.6-18.9,27.8-28.4
			c16.1-16.6,34.3-30.1,54.7-41.4c17.6-9.8,33.8-22.3,50.4-34.1c5.9-4.2,11.5-9.1,16.5-14.4c7.4-7.7,6.8-10.2-2.2-16.1
			c-1.1-0.7-2-1.7-4-3.4c2.5-2.5,4.2-5.6,6.8-6.7c6.4-2.6,13.1-4.7,19.9-6.1c15.6-3.1,31.4-5.7,47.1-8.5
			c22.3-3.9,42.1-14.6,62.5-23.4c10.5-4.5,19.8-12.2,29.1-19.3c7.4-5.6,6.2-12.6-2.4-16c-13.2-5.3-26.4-11.5-41.5-8.8
			c-3.1,0.6-6.7-1.1-10.3-1.8c2.1-6.9,4.8-12.4,5.2-18.1c0.4-5.5-1.6-11.1-2.7-16.7c-0.9-4.4,0.7-7.7,5.1-8.1
			c8.7-0.8,18-4.7,25.5,3.9c2.1-1.2,4-1.9,5.4-3.1c3.9-3.7,7.7-4.1,12.7-1.6c5.7,2.9,7.4,1.8,10-3.8c0.5-1.2,0.8-2.5,1.3-3.8
			c1.7-4.6,4.7-5.4,9.5-4.2c9,2.3,18.1,4.2,27.2,5.5c8,1.1,15.3-0.6,20.1-8.1c2.6-4.1,6.7-4.7,11.3-4.9c5.9-0.3,11.8-1.3,17.5-3
			c8.2-2.5,16.4-5.3,24.1-9c4.2-2,7.4-6.2,11.6-9.8c6.6,0.2,7.2,12.3,16.8,9.5c-0.7-1.7-1.2-3.2-1.7-4.6c-3-7.7-0.6-11.5,7.7-11.3
			c9.7,0.2,18,3.9,24.4,11.7c5.3-2.7,5.6-6.3,4.2-11.1c-1.8-6.2-1-7.7,5-9.3c8.5-2.3,17.2-2.7,25.7,0c6.3,2,12.2,1.4,18.6,0.3
			c9.8-1.7,19.8-2.1,29.8-2.7c2.1-0.1,4.7,0.9,6.5,2.2c7.3,5.2,15.4,5.7,23.9,5c4-0.3,8-0.7,12-0.5c8.2,0.5,15.5,0,22-6.5
			c2.8-2.7,8.6-3.2,13.1-3.2c6.2,0,11.7-0.1,16.6-4.8c4.3-4.1,9.5-3.2,13.7,0.2c7.3,5.8,14.1,4.7,22.3,1.4c9.2-3.6,19.2-5.1,29-7
			c1.8-0.4,4.2,1.4,6,2.6c2.1,1.3,3.8,3.1,6.8,5.6c0.7-4.1,1.1-6.5,1.7-10.5c5.9,1.4,11.4,2.7,17.5,4.2c-0.2-9.3-11-6.2-12.8-12.5
			c5.7-4.7,15.8-5.7,21-2.3c3.2,2.1,3.2,4.8,1.9,7.9c-1.8,4.2-0.4,7.1,3.4,9.1c7,3.7,14.1,7.4,21.1,11.2c3.7,2,7.1,2.7,11.4,1.5
			c9.8-2.7,19.1-2.1,26.5,6.4c4.1,4.7,9.3,4.5,14.7,2.6c7.9-2.7,15.7-3.1,23.2,3.2c3.9-8.2,9.4-8.1,16.6-4.9
			c4.7,2.1,10.3,2.9,15.4,2.6c6.2-0.3,10.7,1.4,15.2,5.7c6,5.7,13.8,8.5,22,11.5c0.8-4.3,1.4-7.3,2.6-13.2c4.9,12.6,15,8.2,22,11.5
			c9.7,4.6,14.9-5.7,23.2-6.3c2.2,5.3-1.3,8.5-3.9,10.7c-8.3,6.8-3.4,15.5-4.2,23.3c-0.1,0.8,2.4,2.9,3.4,2.7c2-0.4,4.4-1.5,5.6-3.1
			c2.1-2.9,3.1-6.7,5.3-9.5c4.9-6.2,8.2-5.8,13.3,0.3c4.4,5.3,9.8,9.9,13.6,15.6c3.2,4.9,5.5,10.7,6.7,16.4
			c9.2,42,18.1,84,26.8,126.1c6.9,33.3,13.4,66.6,19.9,99.9c2.1,10.8-0.4,19.9-9.5,27.4c-4.7,3.9-8.8,7.9-14.9,9.4
			c-2.1,0.5-4.3,2.2-5.6,3.9c-3.3,4.2-7.5,6.2-12.7,7.2c-2.3,0.5-5.4,2.2-6.1,4.1c-0.6,1.5,1.9,4.3,3.1,6.4
			c2.1,3.5,4.3,6.9,7.3,11.7c1,0.2,3.6,0.7,6.1,1c4.6,0.6,7.3,3.1,7.9,7.6c0.6,4.5-1.9,8-7,9.6c-1.9,0.6-3.9,0.9-5.9,0.9
			c-4.5,0-8.2,1-11.6,4.6c-2,2.1-5.8,2.6-8.9,3.7c-3.6,1.2-7.3,2.1-12.3,3.5c3.9,4.5,9.2,4.9,10.4,10.3c1.1,5,2.6,9.1,0.4,14.4
			c-1.3,2.9-0.8,7.3,0.5,10.3c4.9,11.1,4,14.5-7.5,21.8c-0.7-5-1.4-9.6-2.2-15.5c-2.6,2.1-4.5,2.9-5.4,4.4c-2.9,4.9-6.7,8-12.5,9.1
			c-4.2,0.8-5.9,3.7-6,8c-0.1,3.9-0.8,7.9-1.4,12.9c2.9,0.7,6,1.6,9.1,2.2c4.5,0.9,6.9,3.7,7.9,8c1.3,6.2-3.9,13.1-10.4,9.9
			c-5-2.4-10-2.9-15.4-0.4c-1.7,0.8-4.9,0.5-6.5-0.7c-7-5.2-12.3-1.9-18.3,2.8c6.8,6.8,13.2,13.2,19.8,19.8c-2,2.3-4.5,5.2-6.8,7.8
			c2.7,9.1,15,6.6,17.5,16.4c-2.5,0.2-4.3,0.3-6.2,0.4c-6.4,0.5-8.3,3.6-5.8,9.2c6.4,13.8,6.4,13.7-8.5,13.8c-2.6,0-5.2,1.2-9,2.1
			c4.6,6.5,10,4.8,14.6,5c9.9,0.5,14.3,7.4,10.2,18.7c-2.2-2.7-3.7-5.3-5.9-6.8c-1.9-1.3-4.9-2.1-7.1-1.7c-3.7,0.8-8.3,7.4-7.4,10.8
			c0.5,2.2,2.6,4.4,4.6,5.7c1.8,1.2,4.5,1,6.7,1.8c1.7,0.6,3.2,1.9,5.2,3.1c-2.9,4-5.7,1.9-8.4,1.4c-8.6-1.8-12.1,1.9-9.8,10.3
			c0.6,2.2,1.8,4.4,2.1,6.6c0.2,1.4-0.6,3.5-1.7,4.1c-1.1,0.6-3.3,0.2-4.5-0.6c-1.6-1.1-2.3-3.4-3.9-4.4c-2.7-1.7-5.7-3.5-8.7-3.9
			c-3.7-0.4-7.6,1-8.8,5.1c-1.2,4.2,2.5,5.7,5.4,7.2c3.5,1.9,7.4,3.3,6.4,8.6c-4.3,2.2-6.1-1.8-8.9-3.1c-5.4-2.6-8.8-2.6-11.1,2.1
			c-3.6,7.3-9.6,9.6-16.8,10.8c-2.2,0.4-4.2,1.5-6.6,2.4c2.1,9.3,14.1,6.1,16.8,14.1c-6.7,1.5-13,2.5-19,4.5
			c-5.8,1.9-11.4,4.9-17.6,7.6c2.2,5.2,7.1,6.5,11.6,8.3c11.3,4.4,11.5,4.7,4.9,15.3c-0.2,0.3-0.4,0.5-0.5,0.8
			c-3.5,8.8-9.4,12.6-18.9,9c-1-0.4-2.5,0.3-3.6,0.4c-1.3,4.5,1.9,5.6,4.4,7.1c3.1,1.9,6.7,3.5,9,6.1c2,2.2,3.7,5.8,3.3,8.5
			c-0.2,1.6-4.7,3.5-7.3,3.6c-6.3,0.3-12.6-0.4-18.9-0.5c-6.2-0.1-9.6,3.1-9,9.2c0.3,2.8,2.6,5.8,4.6,8c1.4,1.6,4,2.1,6.6,3.3
			c-1.3,6.1-1.4,11.7,3.5,16.6c1.4,1.3,1.6,5.2,0.7,7.2c-1.5,3.2-4.5,1.8-6.8,0.1c-3.3-2.4-6.2-1.8-9,0.7c-4.2,3.9-9,5-14.8,4.1
			c-6.4-0.9-13.9,6.8-12.9,13.1c0.3,1.9,2.3,3.8,4,5.1c2.9,2.2,6.4,3.7,9.2,6c4,3.3,3.6,7.2-1.1,9.3c-3,1.3-6.4,1.7-9.6,2.4
			c-5.7,1.3-10.8,3.3-12.9,11.3c4.3,0.3,8,0.3,11.7,0.8c6.5,0.8,8.8,6.4,5,11.6c-2.1,2.8-4.9,3.4-8,2c-2.9-1.3-5.7-2.9-9.4-4.8
			c-2.3,10.7-10,12.1-18.3,13c-8.1,0.9-9.4,2.9-6.9,10.4c1.9,5.8,0.5,10.1-4.4,12.8c-4.9,2.7-10.1,5.1-15.5,6.2
			c-8.8,1.7-16.4,4.7-22.3,12c-4.8,6-9,5.4-13.8-0.8c-3-3.8-4.8-8-3.7-13c0.4-1.8,0.6-3.7-0.7-6.7c-1.4,1.3-3.8,2.4-4,3.8
			c-1.3,9.4-9.1,13.7-14.8,19.5c-4,4-12.6,3.2-17.6-0.7c-2.4-1.8-4.3-4.3-6.8-5.9c-1.8-1.2-4.2-2.1-6.4-2.2
			c-1.2-0.1-2.8,1.5-3.5,2.8c-0.4,0.8,0.4,2.6,1.2,3.4c1.1,1.2,2.8,1.7,4.1,2.8c1,0.8,1.7,1.9,2.6,2.9c-1.8,7.8-9.9,7.3-14.6,11.7
			c1.2,7.3,8.3,8.8,12.9,12.5c0.2,1.1,0.5,2.1,0.5,3c0.2,2.8-0.8,6.6,0.7,8.2c2.9,3.2,5.9,0.1,8.7-1.8c4.3-3,9.1-1.7,12.2,0.8
			c11.3,9,24.7,8.1,37.7,9.6c2.6,0.3,5.4,0.3,7.8,1.3c1.4,0.6,3.2,3,3,4.2c-0.2,1.4-2.4,2.9-4,3.5c-1.4,0.5-3.2-0.1-4.9-0.3
			c-9.2-1.3-9.9-1-14.2,6.9c-0.6,1.1-1.3,2.3-2.6,4.5c-5.1-3.5-10.8-6-14.5-10.3c-6.6-7.5-15.4-4.9-23.2-6.8c-1-0.2-3.1,1.6-3.6,2.9
			c-2,6-6.2,9.2-12.1,10.7c-0.9,0.2-1.5,1.9-2.1,2.7c1.6,4.4,4.8,3.6,7.7,3.6c3.7,0,7.4-0.5,11,0c5.9,0.8,8.9,4.7,8.8,10.3
			c0,5.5-3.2,9-9.2,9.9c-2.3,0.3-4.7,0-7,0.2c-5.1,0.3-9.7,1.9-12.8,6.2c9.7,16.8,9.7,16.8,17.5,15.7c-1.2-2.2-2.5-3.9-3.3-5.9
			c-0.9-2.3-2.5-5.4-1.6-6.9c1-1.8,4.4-3.3,6.6-3.1c4.8,0.3,9.6,1.8,14.6,2.8c-0.2,4.3-1.1,7.7-0.3,10.7c0.9,2.9,3.6,5.3,6.3,9
			c-4.7,1.2-8.3,2.2-12.8,3.3c0,2.2,0.3,4.5-0.1,6.6c-0.4,2.1-0.9,5.2-2.3,5.9c-5.7,2.7-7.8,7.8-10.8,12.6c-2.4,3.8-6,6.8-9.3,10.5
			c-6.4-4.6-12.6-5.7-19.5-4.4c-2.7,0.5-5.8-1.1-8.7-1.8c-2.7-0.7-5.8-1.5-6.6,1.9c-0.4,1.6,1.3,4.5,2.9,5.6
			c5.7,3.9,11.8,7.4,17.8,11c5.1,3.1,10.5,5.9,15.3,9.4c1.7,1.3,2.3,4.1,3.4,6.3c-2,0.8-4,1.9-6.1,2.4c-1.2,0.3-2.6-0.5-3.9-0.5
			c-5.6-0.1-7.4,2.2-5.7,7.4c2.4,7.2,4.9,14.4,7.5,21.6c2.8,7.8,0.5,12.9-7.3,15.6c-3,1.1-6.1,1.8-9.8,2.9c2.5,5.3,6.1,4.6,9.7,4.3
			c11.4-1.2,11.2-1.1,15.3,8.9c1.1,2.8,3.8,5.5,6.5,6.9c3.7,2,8.1,2.7,13,4.2c0.8,3.4,1.6,7.4,2.5,11.4c-5.4,3.9-10.2,2.7-14.4-1.6
			c-2.8-2.9-4.9-6.3-7.8-9.1c-1.1-1.1-3.9-1.7-5.1-1c-1.1,0.6-1.9,4.1-1.2,4.8c5.3,5.7,6.7,15.7,17.7,15.7c4.1,0,6.9,3.7,6.8,9
			c-6.6,4.3-13.1,1.9-18-2.4c-9.5-8.5-20.2-7.5-31.1-5.6c-8.6,1.5-13.2,9.3-11.7,17.9c0.6,3.4,2.5,5,5.9,5.7
			c6.1,1.2,12.1,3.4,18.3,4.3c8.4,1.2,17,1.6,25.5,2.5c2.1,0.2,4.6,1,5.8,2.4c0.7,0.8-0.7,3.5-1.3,5.3c-0.2,0.6-1,1-1.2,1.6
			c-5.8,13.3-16.7,14-28.9,11.8c-1.9-0.3-4.4,0.6-6.2,1.7c-1.9,1.2-3.2,3.2-5.1,5.2c-8.8-3.7-17.4-7-21.1-16.9
			c-1-2.7-2.6-5.6-7.8-4.5c0.1,2.6,0.2,5.3,0.5,8.1c0.9,8.7-1.5,13.1-9.8,14.4c-9.7,1.6-19.5,4.3-29.5,0.1c-5.7-2.4-7-0.7-9.6,9.7
			c12.2-2.1,23.7,0.2,34.4,4.9c10.6,4.7,21,10.2,31.9,16.7c-7.5,6.3-12.5-0.5-18-0.5c-5.4,0-10.7-1.3-16.7-2.1c0,1.7,0,4.6,0,8.6
			c-8.6,0.9-17,1.8-26.6,2.8c-9.5,12.3-31.9,22.2-48.7,20.5c-4.8,14.8-18.5,19.7-30.4,26.5c-4.5,2.6-8.2-1.2-6-6.2
			c3.4-7.9,7.4-15.7,12.4-22.7c5.1-7.2,10.1-13.9,10.2-23.3c0-3.1,1.3-6.7,3.2-9.3c5.6-7.8,8.2-16.7,10.1-25.9
			c0.3-1.6,0.4-3.5,1.3-4.8c5.9-9.8,1.5-18.7-2.5-27.4c-2.8-6.1-6.9-7.5-13.1-5.1c-1.2,0.5-2.4,1.1-3.6,1.8
			c-32.3,19.4-61.8,41.8-80.9,75.4c-2.1,3.8-3.7,7.9-6,11.5c-3.1,4.6-6.3,9.4-10.3,13.2c-3.1,2.9-5.2,5.6-5.6,10
			c-0.6,7.5-3.6,14.2-9.2,19.5c-5,4.7-10.4,8.3-18,5.5c-2.3-0.9-5.4-0.7-7.8,0c-7,2.1-12.4-0.4-17.2-5.1c-2.2-2.1-4.3-4.2-6.7-6
			c-9.6-7.1-18.4-6.2-26.3,2.7c-9.3,10.5-18.6,20.9-27.6,31.6c-2.6,3-4.9,6.4-6.4,10c-3.9,9.5-10.6,15.1-20.9,16.3
			c-8.7,1.1-16.9,3.1-24.5,7.7c-2.4,1.4-6.6,1.2-9.4,0.1c-4.6-1.8-8.2-2-11.7,1.9c-3.5,3.8-7.7,4.3-12.7,3.7
			c-6.2-0.7-12.5-0.2-19.4-0.2c-1.4,3.6,0.7,6.4,3.8,8.6c5.3,3.7,9.3-0.4,14.5-4c0.2,6.8-2.2,10.7-6.2,13.7c-2.7,2-5.6,3.6-8.6,5.1
			c-5,2.5-7,1.3-8.2-4.4c-0.7-3.2-0.8-6.7-1.8-9.8c-1.2-3.6-3.8-6.6-8.1-6.2c-4.9,0.5-5.1,4.5-5.2,8.3c0,1.9-0.3,3.8-0.3,4.9
			c-5.3-2.1-10.2-4.2-15.3-5.9c-5.3-1.8-7.9-4.7-5.4-9.6c5-9.6-1.8-18-1.8-27.1c0-5.4-5.9-7.9-11.4-6.4c-2.2,0.6-4.4,1.7-6.3,2.9
			c-8.9,5.8-17.9,8.5-28.2,3.1c-3.9-2-8.4-2.2-12,2.7c0.5,1.2,1.2,2.7,1.5,4.2c0.6,2.4,2,6.3,1.1,7c-2.4,1.8-5.9,3.2-8.7,2.9
			c-3.1-0.4-5.7-3.3-8.8-4.3c-2.2-0.6-4.8,0.3-7.2,0.5c0.5,2.1,0.2,5,1.5,6.2c4.6,4.2,9.7,7.7,15.4,12.2c-6.2,6.4-18.5,0.3-22.8,10
			c0,0.7-0.3,1.5,0,2c5.4,8.7,5.3,8.7-2.5,14.8c-1.8,1.4-3.3,3.3-5.2,4.6c-1.8,1.3-4,3.1-5.9,3c-6.8-0.4-13.8-0.6-20.1-2.8
			c-4.7-1.6-5.5-11.4-2.8-17c3.6-7.5,3.3-9.6-2.7-15.9c-2.2,1.9-4.2,4.1-6.5,5.7c-3.9,2.7-9.7,2.3-11.9-0.7
			c-2.5-3.3-0.7-9.1,3.8-11.9c2.7-1.7,5.7-3,9-4.7c-1.3-2.6-2.2-4.3-3-6c-3.4-7.1-1.9-10.9,5.5-14.1c1.2-0.5,2.6-0.8,3.8-1.3
			c6.6-2.8,7.5-5.2,4.8-11.6c-4.2-10-4.2-10,4.2-16.3c2.7-2,5.5-3.8,8-6c4-3.5,4.4-6.8,1.4-10.3c-2.9-3.5-6.3-4-10.3-0.4
			c-5,4.6-10.1,6.1-16.4,3.2c-1.5-0.7-3.1-1.3-4.6-1.9c0.4-1.1,0.9-2.2,1.3-3.2c2.9-1,5.8-2,8.7-2.9c6.6-2,7.9-3.8,7.5-10.8
			c0-0.3-0.1-0.7-0.1-1c-1.3-15.1-0.9-15.4,14.6-15.4c2.8,0,5.7-1.4,8.4-2.5c7.2-2.8,14.3-5.7,22.2-2.6c1.2,0.5,3,1,3.9,0.5
			c6.7-3.9,13.4-5.3,20.7-1.7c0.7,0.4,3-0.7,3.2-1.5c0.5-1.3,0.5-3.9-0.4-4.5c-5.3-3.6-7.2-9-9.6-14.5c-1.3-2.9-5.5-4.6-8.6-6.4
			c-6.9-4-10.7-12-8.1-19.1c0.6-1.6,2.6-2.8,4.1-3.9c1.7-1.3,3.6-2.4,5.6-3.7c-3-5-6.5-3.9-9.8-2.3c-3.3,1.5-6.3,3.7-9.7,5
			c-8.7,3.3-13.1,1.3-18.8-8.9c7.1-0.9,13.8-1.8,20.6-2.5c3.1-0.3,6.4-0.2,6.3-4.5c-0.1-4.4-2.9-5.2-6.9-5.2c-6.5,0-13-0.6-21.2-1
			c2.4-2.8,3.4-4.9,5.1-5.9c2.2-1.3,5-1.7,7.4-2.8c5.4-2.5,6.2-5.3,3-10.2c-1-1.6-2.4-3.1-3.7-4.8c2.4-5.1,6.3-5.2,10-2.9
			c4.5,2.7,9.1,3.6,14.2,3.5c2.7,0,5.6,1.7,8.2,3.1c6.7,3.6,9,3.1,13-3.1c0.4-0.6,0.8-1.1,1-1.7c2.2-6.3,4.3-12.5,6.5-18.9
			c-0.2-0.2-0.9-1-1.2-0.9c-8,3.6-16.2,1.7-24.4,1.4c-6.8-0.3-8.7-2.8-6.9-9.5c1.2-4.6,4.1-7.5,8.8-8.5l-0.1-0.1
			c4.5,10.4,10.4,12.6,20.4,7.1c-0.7-1.4-1.3-2.9-2.3-4.1c-4.6-5.9-3.9-9.3,2.7-11.9c2.2-0.8,4.6-1,6.8-1.7c5.5-2,6.4-5.8,2-9.6
			c-4-3.5-8.4-6.4-13.7-10.4c1.5,6.9-1.9,10.9-6.7,14c-5.5,3.6-11.6,2.5-17.5,1.3c-4.2-0.9-4.8-3.7-2-7.5c1.5-2.1,3.3-4,6.3-7.6
			c-2.7-2-5-3.8-7.6-5.7c0.3-0.4,0.7-1.6,1.4-1.8c11.5-2.8,22.7-7.9,35.2-4.5c2.5,0.7,7,0.1,8.1-1.6c3.7-5.5,8.8-7.3,16.3-7.1
			c-2.2-3-3.6-4.7-4.7-6.6c-2-3.4-4.4-6.7-5.6-10.4c-2.2-7.3-3.6-14.9-5.4-22.3c-0.9-3.7-1.4-7.4,2-10.1c3.5-2.7,6.1-0.2,8.9,1.8
			c2.3,1.6,4.8,2.6,7.5-1.6c-1.7-1.5-3.3-3.5-5.3-4.7c-5.9-3.7-12.3-6.8-18-10.7c-4.3-2.9-8.4-6.5-11.8-10.4
			c-5.9-6.7-9-8.4-17.3-5.2c-8.3,3.2-14.8,1.1-21.1-4.3c-3.5-3-7.3-5.6-11.1-8.5c1-3.9,4.5-3.1,7.2-3.7c10.4-2,20.8-3.9,31.2-5.9
			c1.6-0.3,3.2-1,4.6-1.8c7.1-3.8,7-7.7,0.3-12.3c-5.1-3.5-10.1-7.4-14.5-11.9c-3.8-3.8-7.9-5.8-13.2-6.1c-4-0.2-8.5-0.3-8.7-6
			c-0.2-5,2.2-8.2,7.4-9.1c4.6-0.8,6.8-3.1,6.5-8.2c-0.5-9.1,2.4-12.7,11.1-14.4c3.9-0.7,8-0.6,11.9-0.9c2.5-0.2,5-0.8,9.5-1.5
			c-4.3-5.6-8.5-9.5-10.6-14.3c-2-4.6-1.8-10.1-2.6-16.3c5.6-7.1,18.2,0.2,23.8-8.7c-0.4-1.1-0.5-2.1-0.9-2.2
			c-8.8-3.6-17.7-7.3-26.6-10.6c-6.8-2.5-7.9-5.6-2.9-10.7c10.4-10.7,21-21.3,31.4-32.1c2.5-2.6,4.9-5.5,6.8-8.6
			c4.3-7.2,10.8-11.2,18-15.2c13.1-7.2,25.6-15.5,38.3-23.4c0.8-0.5,1.8-1.2,2.2-2c6.4-14.6,21.8-21.1,30.4-34
			c2.8-4.2,8-6.9,12.5-9.8c21-13.4,39.3-29.9,53.7-50.2c5.9-8.3,9.5-18.3,13.5-27.7c2.3-5.4,0-8.4-6.1-8.2
			c-5.2,0.2-10.5,1.5-15.6,2.6c-11.7,2.5-23.4,5.1-35.1,7.6c-4.9,1-9.2,0.4-12-4.6c-1.1-1.9-3-3.7-5-4.6c-5-2.3-8.2-5.2-7.6-11.4
			c0.1-1.6-2.8-4.7-4.8-5c-7.6-1.4-15.3-1.6-21.8,3.9c-2.4,2-5.2,3.6-8.2,5.7c-2.9-5-0.3-8,1.1-11.2c2-4.6,4.4-9.1,5.4-13.8
			c1.4-6.2-2.1-8.9-8-7c-19.8,6.6-36.2,17.1-47.7,35.4c-6.1,9.8-15.2,17.6-22.2,26.9c-5.8,7.7-10.4,16.2-15.4,24.4
			c-1.8,3-2.5,7-8.2,7.3c2.7-11.6,2.4-23.2,7.7-33.8c1.7-3.4,4.5-7.3-0.2-10.6c-3.1-2.1-7.9-0.5-11.4,3.6c-1.3,1.5-2.5,3.2-3.2,5
			c-4.1,10.5-11.5,19-19.5,26.3c-7.8,7.1-11.4,15.3-12.9,25.1c-0.8,5.2-2.6,9.7-7,12.7c-2.1,1.4-4.8,2.6-7.3,2.9
			c-5.5,0.7-8.6-2.9-6.3-7.8c2.5-5.1,1.3-8.8-1.7-12.8c-1.6-2.1-3.1-4.4-4-6.9c-2.9-7.2-7.8-11.5-15.9-11.2c-1.3,0-2.9-0.2-3.8-0.9
			c-6.6-5.6-14.2-6.4-22.2-3.7c-2.6-5.4,0.1-8.4,3.4-10.7c4.1-2.8,8.7-4.9,12.9-7.6c4.6-2.9,4.4-6.4-0.4-9c-2.3-1.3-5.2-1.6-7.4-3
			c-2-1.3-4.8-3.7-4.7-5.4c0.1-1.9,3-3.9,5-5.3c1.9-1.2,4.8-1.1,6.4-2.6c3-2.8,6.4-5.9,7.9-9.6c2.3-5.5-1-9.1-7-8.5
			c-5.6,0.6-11.2,1.9-16.8,2.6c-3.9,0.5-8,1.5-11.9-3.7c2.4-1.6,4.5-3.2,6.9-4.6c7.9-4.6,8-5.6,6.5-14.3c-0.6-3.3,0.1-7.2,1.3-10.4
			c2.9-7.4,6.7-14.5,9.9-21.8c4.7-10.6,3.9-13.3-5.6-19.8c-1.1-0.7-2.1-1.7-3.1-2.5C1298.1,805.9,1298,806.1,1298,806.1z
			 M1945.5,1400.8c0.4,6.3,0.3,12.2,1.1,18c0.7,5,3.1,6.3,7.6,4.8c6.9-2.2,13.8-4.3,20.6-6.7c1.1-0.4,1.9-1.5,4.3-3.6
			c-5.3-1.7-9.3-3-15.1-5c3.4-2.8,5.5-4.6,7.7-6.3c2.3-1.9,4.9-3.7,3.3-7.5c-0.8-0.4-1.8-1.4-2.4-1.3
			C1964,1395.6,1955.5,1398,1945.5,1400.8z M1439.8,1449.3c3.9-0.6,8.5-1.3,13.1-2c1-0.2,2.2-0.4,2.7-1.1c1.6-2.3,3.9-4.7,4-7.2
			c0.1-1.4-3.4-3.7-5.6-4.3c-5.1-1.4-10.4-2.4-15.7-2.7c-2.6-0.1-6.5,0.8-7.8,2.7c-1.8,2.6-3.1,6.9-2.3,9.9
			C1429.6,1449.4,1434.6,1449.5,1439.8,1449.3z M2181.6,935.1c5.2,0.1,8.9-4,8.9-9.8c0-4.9-5.2-11.2-9.4-11.5
			c-4.3-0.3-12.9,6.5-13.3,10.5C2167.4,928.7,2175.4,934.9,2181.6,935.1z M1458.8,1381.9c7.9,5.6,13.5,10,19.5,13.8
			c3.5,2.2,7.4,1.3,9.8-1.8c1.8-2.4,3.9-6.2,3.2-8.5c-0.7-2.3-4.7-4.2-7.6-4.9c-4.8-1.1-9.9-1.3-14.8-1.2
			C1466.3,1379.3,1463.6,1380.6,1458.8,1381.9z M1417.6,1557c-3.6-2.2-5-3.9-6.2-3.7c-8.9,1.4-17.4,0.9-25.4-4.1
			c-1.2-0.8-4.5,1.6-6.8,2.4c1.1,2.1,1.8,4.7,3.5,6.2c1.6,1.4,4.2,2,6.4,2.1c6.6,0.2,13.2,0.1,19.8-0.2
			C1411.1,1559.6,1413.1,1558.5,1417.6,1557z M1403.4,1190.2c5.5,4.5,9.8,8.3,14.4,11.7c1.4,1,3.9,1.7,5.3,1.1
			c1.3-0.6,2.6-3,2.6-4.7c0-4.2-0.8-8.4-1.2-12.9C1416.6,1184.5,1410.1,1187,1403.4,1190.2z M1449,1268.7c0.5,5,3.8,6.3,7.5,6.8
			c3.9,0.5,7.9,0.9,11.8,0.5c2.2-0.2,4.2-2.1,6.3-3.2c-1.7-2.2-2.9-5.4-5-6.2C1462.6,1264,1455.6,1264.6,1449,1268.7z
			 M1440.9,1476.4c-4.8-1.4-8.1-2.9-11.5-3.3c-6.5-0.6-9.7,4-7.5,10.3c0.5,1.5,1.3,3,2.3,4.4c1.9,2.8,4.1,5.9,8,4.1
			c3.9-1.8,1.2-5.2,1-7.9c-0.1-0.6,0.3-1.3,0.4-1.9C1435.5,1480.6,1437.4,1479.1,1440.9,1476.4z M1946.4,1369.5
			c1.2,5.3,1.9,9.9,3.3,14.3c1.3,4,5.4,5.3,8.9,3.3c3.5-2,4.8-5.9,2.5-9.3c-2.4-3.6-5.1-6.9-8-10.1c-0.9-1-3.1-1.7-4.2-1.3
			C1947.6,1366.9,1946.9,1368.8,1946.4,1369.5z M2144.5,1008.6c-0.9,0.9-3.9,2.5-4.2,4.7c-0.9,4.8,5.2,9,12,9.1
			c3.2,0,6.1-0.6,6.4-4.5C2158.9,1013.1,2152.8,1008.5,2144.5,1008.6z M2319.1,620.2c-0.1,0.8-0.3,1.6-0.4,2.3
			c7.2,6.2,20.4,7.6,32.9,3.5c-3.4-6.7-3.7-7.2-10-4.9c-5,1.8-9.5,1.8-14.5,0.2C2324.6,620.6,2321.8,620.6,2319.1,620.2z
			 M1425,1508.6c-0.2,0.8-0.3,1.6-0.5,2.4c6,2.1,11.9,4.3,18,6.1c1.5,0.4,3.4-0.8,5.1-1.2c-0.7-1.7-0.9-4.3-2.1-4.9
			C1439,1507.6,1432.1,1506.1,1425,1508.6z M2244.8,850.9c4.6,0.3,9.4-5.7,8.7-9.5c-0.3-1.6-2.7-3.7-4.4-4.1
			c-4.5-0.8-9.6,2.6-8.8,5.8C2241.1,846.2,2243.6,848.8,2244.8,850.9z M2211.2,846.2c-2.6,0.5-4.1,0.4-5.1,1.1
			c-1.5,1.1-3,2.6-3.5,4.2c-0.2,0.9,1.6,2.6,2.8,3.5c1,0.7,2.6,1.3,3.8,1.1c3.1-0.5,6.2-1.2,9.2-2.3c0.5-0.2,0.8-3.1,0.3-3.5
			C2216.1,848.6,2213.2,847.2,2211.2,846.2z M1907.5,1444.1c6.7-4,12.3-7.3,19.1-11.4c-6-1-11.2-5.1-16.4-0.9
			C1906.5,1434.9,1906.1,1439.7,1907.5,1444.1z M2213.2,796.7c-3.1-2.6-5.3-4.6-7.6-6.5c-0.5-0.4-1-1.2-1.5-1.2
			c-2.4-0.2-4.8-0.1-7.1-0.1c0.4,2.4,0.2,5.3,1.5,7.1C2201.5,800.1,2205.9,800.2,2213.2,796.7z M1347,904.9c6.6-7,6.5-12.4,0.3-14.2
			c-1.8-0.5-4.6,0.3-6,1.5c-0.9,0.7-0.7,3.8,0,5.2C1342.6,899.9,1344.7,902,1347,904.9z M1389.2,1588c3.2,2.8,4.7,5,6.8,5.7
			c3.1,1.1,7.1-2.3,6.3-5.4c-0.5-1.9-3.1-4.7-4.7-4.7C1395.3,1583.6,1393.1,1585.9,1389.2,1588z M2211.2,879.7
			c-6.5-6.3-9.5-5.9-16.3,2C2200.7,884.5,2205.5,883.7,2211.2,879.7z M2324.8,679.6c2.3-4.3,4.6-8.6,7.4-13.9
			C2322.5,667.9,2320.9,670.4,2324.8,679.6z M1510.7,1574.8c5.4,4.5,8.8,5.6,11.1,3.2c0.9-0.9,0.9-4.1,0.1-4.9
			C1518.2,1569.9,1514.3,1569.8,1510.7,1574.8z M1410.2,1606.3c-4.2-4.9-8.8-5.6-14.1-5.5C1399.6,1609,1401.7,1609.9,1410.2,1606.3z
			 M2182.7,949.4c-6.6-5.7-7.5-5.8-12.3-0.2C2174.4,952.5,2178.3,952.5,2182.7,949.4z M1484.8,1506.6c2-2.5,3.2-4,4.5-5.6
			c-1.7-1.2-3.4-3.4-5-3.4c-1.5,0-3,2.5-4.5,3.8C1481.2,1502.9,1482.6,1504.3,1484.8,1506.6z M1546.1,1443.2c5.1,5.7,6.5,5.7,12,0.4
			C1554,1441.8,1550.3,1440,1546.1,1443.2z M2047.6,1108.5c-9-2.3-9.6-1.9-10.6,6.6C2041.1,1112.4,2044.3,1110.5,2047.6,1108.5z
			 M1367.8,1641.2c1.4-2.9,3.3-4.9,2.8-6.2c-0.6-1.6-2.8-3.3-4.5-3.6c-1.1-0.2-2.7,2-4,3.1C1363.4,1636,1364.6,1637.5,1367.8,1641.2
			z M1529.5,1568.4c1.8,2.7,3.6,5.3,5.8,8.6C1539.4,1569.4,1539.4,1569.3,1529.5,1568.4z M1452.1,1235.5c-4.8-2.9-8-4.2-11.4,0.1
			C1444.1,1239.8,1447.3,1239.4,1452.1,1235.5z M1896.5,1413.2c-0.4,0.6-0.8,1.2-1.3,1.8c3.1,5.8,3.1,5.8,9.3,3
			C1901.4,1416.1,1898.9,1414.6,1896.5,1413.2z M1569.6,1492.2c4.9-0.4,7.5-1.5,7.7-6.1C1573,1485.3,1570.8,1486.8,1569.6,1492.2z
			 M1440.2,1258.3c-4.2-3.7-6.7-3.2-9.3,0.4C1435.2,1260.8,1435.2,1260.8,1440.2,1258.3z M1975.9,1192.7c0.7-1.9,1.7-3.3,1.4-4.3
			c-0.4-1.2-1.7-2.8-2.8-3c-1-0.1-2.2,1.5-3.3,2.3C1972.1,1188.7,1973.1,1189.8,1975.9,1192.7z M1535.6,1418.9c2,1.5,3.1,2.7,4.3,3
			c0.7,0.2,2.6-1.6,2.4-2.1c-0.3-1.3-1.3-3-2.4-3.3C1539.1,1416.2,1537.6,1417.7,1535.6,1418.9z M1527.1,1267.1
			c-6.6-2.5-6.6-2.5-9.9,3C1520.8,1269,1523.1,1268.3,1527.1,1267.1z M1505.1,1393.3c1.3-1.5,2.8-2.3,2.7-3.1c0-0.9-1.3-2.4-2.2-2.5
			c-0.8-0.1-2.4,1.1-2.6,2C1502.9,1390.5,1504.1,1391.6,1505.1,1393.3z M1306.4,629.9c0.4,0.7,0.8,1.3,1.2,2
			c2.7,0.2,5.1-0.1,5.4-5.5C1310.1,627.9,1308.2,628.9,1306.4,629.9z M2152.4,992c-1-0.7-1.7-1.5-2.4-1.5c-0.7,0.1-1.3,1-1.9,1.6
			c0.8,0.7,1.6,1.4,2.4,2.1C2151,993.6,2151.6,992.9,2152.4,992z M1442.2,1605.8c0.1-0.6,0.2-1.2,0.3-1.9c-1.5-0.2-2.9-0.4-4.4-0.5
			c-0.1,0-0.3,1.6-0.3,1.6C1439.3,1605.3,1440.8,1605.6,1442.2,1605.8z M2167.8,1000.7c0.1-0.7,0.2-1.4,0.3-2.1c-2-0.3-4-0.6-6-0.8
			c-0.1,0.5-0.2,1-0.3,1.5C2163.8,999.8,2165.8,1000.3,2167.8,1000.7z M1868.3,252.2c0.4-0.3,1.2-0.6,1.3-1c0.1-0.4-0.5-0.9-0.7-1.4
			c-0.6,0.4-1.2,0.9-1.8,1.3C1867.5,251.5,1867.9,251.8,1868.3,252.2z M2011,1112.8c-0.4-0.4-0.7-1.2-1.1-1.2c-0.5,0-1,0.6-1.5,0.9
			c0.4,0.4,0.7,1.2,1.1,1.2C2010,1113.7,2010.5,1113.1,2011,1112.8z M2099.5,1001.6c0.5,0.5,0.9,1,1.3,1.4c0.4-0.4,1.1-0.8,1.1-1.2
			c0-0.5-0.6-1.1-1.1-1.2C2100.4,1000.5,2100,1001.2,2099.5,1001.6z M1954.4,1351.8c-0.5-0.7-0.9-1.6-1-1.6c-0.8,0.2-1.6,0.6-2.4,1
			c0.3,0.5,0.6,1.4,0.9,1.3C1952.7,1352.4,1953.5,1352,1954.4,1351.8z M2166.1,977.4c0.5-0.3,0.9-0.5,1.4-0.8
			c-0.3-0.4-0.5-1.1-0.9-1.3c-0.4-0.1-0.9,0.4-1.4,0.7C2165.5,976.5,2165.8,976.9,2166.1,977.4z M1941.7,1310.9
			c0.2-0.5,0.3-1,0.5-1.4c-1-0.2-2.1-0.4-3.1-0.6c-0.1,0-0.2,0.5-0.4,0.8C1939.7,1310,1940.7,1310.5,1941.7,1310.9z M1972.1,1334.7
			c0.5-0.3,1.1-0.6,1.6-0.9c-0.3-0.5-0.6-0.9-0.9-1.3c0,0-0.7,0.3-0.8,0.5C1971.9,1333.5,1972,1334.1,1972.1,1334.7z M1883.8,269.4
			c-0.2-0.2-0.4-0.6-0.6-0.6c-0.2-0.1-0.5,0.2-0.8,0.3c0.3,0.3,0.6,0.7,0.9,1C1883.5,269.9,1883.6,269.6,1883.8,269.4z
			 M2304.1,628.6c-0.2-0.1-0.5-0.3-0.8-0.2c-0.2,0.1-0.4,0.4-0.6,0.6c0.4,0.2,0.9,0.3,1.3,0.5
			C2304.1,629.2,2304.1,628.9,2304.1,628.6z M1582,1445.8c0-0.3,0-0.7-0.1-0.8c-0.2-0.2-0.5-0.1-0.8-0.1c0.1,0.4,0.1,0.9,0.2,1.3
			C1581.5,1446.1,1581.8,1445.9,1582,1445.8z M1433.6,1181.9c0,0.3,0,0.7,0.2,0.8c0.2,0.2,0.5,0.1,0.8,0.1c-0.1-0.4-0.1-0.8-0.2-1.3
			C1434.2,1181.6,1433.9,1181.7,1433.6,1181.9z M1318.9,767.5c0.3,0,0.6,0.2,0.8,0.1c0.2-0.1,0.3-0.5,0.4-0.7
			c-0.5-0.1-0.9-0.1-1.4-0.2C1318.8,766.9,1318.9,767.2,1318.9,767.5z M1326.5,787.5c0.3,0,0.6,0.2,0.8,0c0.2-0.1,0.3-0.5,0.4-0.7
			c-0.4,0-0.9-0.1-1.3-0.1C1326.4,787,1326.4,787.3,1326.5,787.5z M1449.8,1594.5c-0.2-0.2-0.3-0.6-0.6-0.6
			c-0.2-0.1-0.5,0.2-0.8,0.3c0.3,0.4,0.6,0.7,0.9,1.1C1449.5,1595,1449.6,1594.8,1449.8,1594.5z M1356.8,1665.5
			c0.2-0.2,0.5-0.3,0.5-0.5c0-0.2-0.2-0.5-0.3-0.7c-0.3,0.3-0.6,0.5-0.9,0.8C1356.4,1665.2,1356.6,1665.3,1356.8,1665.5z
			 M1974.6,1243.9c0.2-0.1,0.5-0.2,0.7-0.3c-0.3-0.3-0.5-0.6-0.8-0.9c-0.1,0.2-0.4,0.5-0.4,0.7
			C1974.1,1243.5,1974.4,1243.7,1974.6,1243.9z"/>
		<path class="st0" d="M1095,2326.6c1.2-2.6,1.8-4.2,2.7-5.6c3.5-5.7,6.1-7,12.4-4.7c5.7,2.1,10.8,3.4,15.4-2c0.6-0.7,2-1.7,2.5-1.4
			c9.5,4.3,22.4-3,30.3,9.2c-2.5,0.3-4.6,0.4-6.6,1c-4.4,1.2-9.2,2-13.1,4.2c-5.2,2.9-6.1,8-2.6,12.7c2.5,3.4,4,6.3,2.8,10.9
			c-0.6,2.3,1.6,5.4,2.4,8.2c2.3,7.9,5.5,15.7,6.7,23.8c1.3,8.7-1.8,10.6-10.5,8.3c-3.1-0.8-6.5-1.6-9.7-1.3c-3.6,0.4-7.5,1.9-8,6.3
			c-0.5,4.4,2.8,6.7,6.4,7.8c2.8,0.9,5.8,1.1,8.8,1.2c2.6,0.1,5.2-0.5,8.4-0.8c0.7,2,1.6,3.8,1.9,5.6c2.2,12.4,1.4,13.1-11,13.1
			c-3.2,0-7.3,0.3-9.3,2.2c-5.2,5.1-10.5,6.5-17.1,3.1c-4.7,5.8-7.7,11.4-5.7,18.6c1.2,4.3-0.3,7.8-2.9,11.1
			c-1.8,2.3-3.7,4.6-6.4,7.9c5.8-1.4,10.4-2.6,15.1-3.6c4.8-1,9.6-2,14.5-2.5c2-0.2,5,0.3,6.1,1.7c1.2,1.4,1.3,4.3,0.9,6.4
			c-0.3,1.8-1.8,3.5-3.1,5c-3.7,4.2-5.7,8.9-5.2,14.6c0.4,4.4-1.8,7.8-5.6,9.8c-5.7,3-8.3,8.1-10.8,13.8c-2,4.4-5.6,8-8.7,11.8
			c-1.2,1.5-3.7,2.6-4.1,4.2c-1.3,6.3-5.1,9.5-10.9,11.7c-2.1,0.8-4,4.5-4.3,7c-0.9,9.3-4.2,15.7-14.4,17.6
			c-6.1,1.1-8.4,4.5-8.2,10.8c0.3,5.8-1.9,10.2-5.4,14.5c-3.3,4.1-6,8.8-9.1,13.1c-3.5,4.8-7.4,9.4-10.9,14.2
			c-3.9,5.3-7.4,10.9-11.2,16.3c-2.1,3-4,6.1-6.3,8.9c-4.4,5.3-9,10.3-14.3,16.4c-1.2-0.3-3.7-1-6.1-1.9c-6-2.2-11.3-0.5-15.8,3.3
			c-1.7,1.4-2.1,4.4-3.1,6.7c2.3,0.7,4.6,2.1,7,2.1c2.2,0,4.4-1.9,6.6-1.9c2.4,0,5.4,0.5,6.9,1.9c1,0.9,0.6,4.7-0.5,6.2
			c-3.3,4.2-4.9,8.3-4,13.8c0.4,2.3-0.9,5.2-2.1,7.5c-5.7,10.5-11.6,20.9-17.4,31.3c-1.1,2-2.2,4.1-2.9,6.3c-1.5,4.5-4.1,7.6-9,8.1
			c-4.4,0.4-6.1,3.2-7.2,7.1c-1,3.5-2.6,6.9-4.3,10.1c-4.9,9.1-8.2,9.4-17.6,1.6c1.2-2,2.9-4.1,3.6-6.4c0.7-2.3,1.2-5.4,0.2-7.3
			c-1.7-3-4.6-1.3-7,0.1c-2.9,1.7-5.9,3.1-8.7,4.9c-3.8,2.4-4.1,3.1-5.4,9.7c9.2,2.6,14.1,8.8,14.8,19c0.4,5.9-2,10.8-7.9,12.3
			c-7.6,2-10.5,6.2-9.9,13.6c0.2,2.6-0.2,6.2-3.8,5.6c-1.7-0.3-3.7-3.5-4.1-5.7c-1.7-8-2-9-9.7-9.5c-7.8-0.5-14.3-3-21.4-6.6
			c-8.5-4.3-19.1-4.7-28.9-6.5c-1-0.2-2.2,1-4.9,2.3c3.4,1.4,5.3,2.6,7.3,3c9.3,1.9,13.3,5.9,14.4,15c0.9,7.2,3.4,9.3,9.4,5.8
			c6.6-3.9,10.5-3.1,14.9,3c2.8,3.9,7.8,6.2,11.4,9.5c1.9,1.7,3.5,4.1,4.2,6.5c0.4,1.4-0.8,4.1-2.1,4.9c-1.3,0.8-3.6-0.1-5.4-0.4
			c-0.3,0-0.6-0.4-0.7-0.7c-4.1-9.8-11.5-9.2-19.9-6.7c-3.1,0.9-6.6,0-9.9,0.2c-5.3,0.2-10.6,0.6-15.8,1.1c-2.6,0.2-5.3,0.9-7.9,1
			c-9.4,0.2-11.4-1.8-11.9-12.1c-2.3-0.3-4.8-0.8-7.4-0.9c-3.5-0.1-7.6-0.1-7.7-4.4c-0.1-2.8,1.9-6.3,4.1-8.3c2.3-2.2,5.9-3,8.9-4.4
			c1.5-0.7,3-1.3,4.4-2c-0.3-1-0.3-1.7-0.7-2.1c-8.8-7.4-8.6-11.2,1-17.1c3.4-2.1,6.9-4.2,9.6-7c1.6-1.7,3-5,2.4-7
			c-1.5-5,0-7.9,3.7-11.2c2.4-2.1,3.6-6.1,4.1-9.5c1-6.8,3-12.7,7.9-17.9c2.9-3,4.7-7.2,6.3-11.1c4.2-10,10.5-13.7,21.2-12.1
			c3.3,0.5,6.5,1.3,9.8,1.4c1.2,0,3.1-1.6,3.5-2.8c0.4-1.3-0.4-3.4-1.4-4.3c-1.4-1.3-3.8-1.4-5.2-2.7c-1.9-1.6-4.1-3.5-4.7-5.7
			c-0.3-1.1,2.5-3.3,4.1-4.7c1.5-1.2,3.3-2.1,5.7-3.6c-1.8-2.1-3.1-3.8-4.5-5.4c-4.3-4.9-4.4-10.1,1-13.6c4.3-2.7,9.7-4.6,14.7-5.2
			c7.6-0.9,14.8-1.7,21.9-5.6c7.5-4,16-1.7,22.5,3.4c2.9,2.3,3.4,7.5,5,11.5c4,1.3,5.4-1.3,6.1-4.4c1.4-5.7-0.5-10.4-4.6-14.5
			c-2.2-2.1-2.8-4.7-0.2-7c2.8-2.5,6-3,8.9-0.1c1.4,1.4,1.9,3.7,3.4,4.9c1.6,1.3,4.1,2.9,5.7,2.5c1.7-0.5,3.4-3,3.9-5
			c0.9-3.5,0.3-7.5,1.5-10.8c1.6-4.2,3.4-9.1,6.8-11.7c7.6-6,14.6-12.4,20.9-19.8c8.2-9.6,17.7-18,26.6-26.9c1.7-1.6,3.3-3.3,4.9-5
			c7-7.7,6.5-11.9-1.7-18c-4-3-8.1-5.9-11.7-9.3c-6.6-6.1-14.1-9.9-23.3-10c-3.6,0-8.4,0.3-7.5-5.2c0.7-4.6,4.9-4.6,8.8-4.2
			c7.6,0.8,15.2,1.4,22.8,2.2c2.3,0.2,4.8,0.5,6.7,1.6c4.2,2.3,7.9,2.4,12.1-0.3c2.4-1.5,5.7-1.6,8.6-2.3c4.4-1.2,8.8-2.3,13.3-3.5
			c-3.2-7.5-6.4-9.5-22.1-14.5c-4.6,3.5-7.1,10.7-14.7,10.1c-5.8-0.5-12,1-17.6-3.9c3-5,5.8-9.8,8.9-14.4c0.7-1,2.1-1.6,3.2-2.2
			c4.4-2.1,8.9-4,13.3-6.2c5.7-2.9,8.6-2.4,12.9,2.7c0.8,1,1.5,2.3,2.4,3.2c4.1,4,7.4,3.7,10.6-0.9c0.4-0.5,0.6-1.2,0.9-1.8
			c1.2-3,3-5.3,6.7-4.7c4.2,0.7,6.2,3.4,6.7,7.5c0.4,2.9,1.2,5.7,2,8.6c0.1,0.4,1.1,0.5,1.7,0.8c4.9-5.9,5-12.8,0.2-32.2
			c1.6-1.3,3.3-2.6,5.4-4.4c-6.3-6.9-15.6,4-21.4-4.7c1.3-1.7,2.3-3.8,4-5.1c4.6-3.3,7.4-7.5,8-13.2c0.6-5.3,3.8-8.3,8.9-9.5
			c1.3-0.3,2.8-0.5,3.8-1.2c2.8-2.1,5.3-4.4,7.9-6.7c-2.4-2.6-4.5-5.6-7.3-7.6c-4-2.8-7.9-4-12.3,0.8c-4,4.4-12.4,2.2-14.9-3.2
			c-1.8-3.7-0.3-7.9,4.8-9.3c7.3-1.9,15-2.6,22.5-3.6c2.2-0.3,4.5,0.3,8.8,0.7c-6.6-6.4-12.8-8.6-19.7-9.1c-3.3-0.3-6.7-0.1-10,0.1
			c-4.3,0.3-7.2-0.8-10.2-4.5c-5.2-6.4-13.5-6.2-21-7c-1.2-0.1-3.2,2.8-3.9,4.7c-0.7,2-0.2,4.4-0.2,7.5c-11.1,1-19.3-4.1-27.7-8.4
			c0.1-0.7,0.3-1.4,0.4-2.1c3.1,0,6.3-0.1,9.4,0c3.9,0.2,7.6-0.2,9.6-3.9c3.3-6.1,7.4-11.1,14.9-11.5c0.3-4.2,0.6-7.4,1-12.8
			c2.7,2.5,4.9,3.6,5.3,5.2c0.6,2.1-0.3,4.6-0.4,6.9c-0.2,6.4,3.7,10.1,10,9c2.3-0.4,4.5-1.4,6.5-2.4c4.5-2.3,8.7-2.1,13.4-0.1
			c10.5,4.4,15.6,2.6,21.6-7.1c1.4-2.2,1.9-5.1,3.5-7.1c1.5-1.9,3.9-3.8,6.2-4.2c1.8-0.3,4.9,1,5.9,2.5c0.9,1.4,0.1,4.3-0.7,6.2
			c-1.5,3.3-4.1,6.1-5.3,9.5c-2.1,5.9-0.7,7.1,8,7.2c-3.3-10.8,7.7-16.3,9.4-25.7c0.7-4,1.2-6.7-1.9-9.7c-1.8-1.7-2.8-4.4-3.9-6.8
			c-3.7-7.8-10.1-9.4-16.8-4.1c-7,5.6-7.4,5.9-12.8-0.3c-3.5-4-7-4.5-11.5-2.8c-5.7,2.1-11.2,1.5-16.3-1.5c-1.2-0.7-2.9-2.8-2.6-3.7
			c0.5-1.6,2.3-3.9,3.6-3.9c6.6-0.2,13.2-0.1,19.7,0.7C1086,2323,1090,2325,1095,2326.6z M851.1,2766.8c4.1,8.5,11,12,17.3,8.2
			c2-1.2,3.4-4.7,3.6-7.3c0.2-1.4-2.6-4.4-4-4.4C862.3,2763.2,856.2,2762.8,851.1,2766.8z M901,2723.5c1.6-1.9,3.4-3.2,3.3-4.1
			c-0.3-1.6-1.9-3-2.9-4.5c-1.3,1.1-3.6,2.2-3.6,3.4C897.6,2719.7,899.5,2721.2,901,2723.5z M920.3,2713.5c-0.8-0.3-1.6-0.6-2.4-1
			c-5.1,3.3-5.8,8-2.4,14C917.1,2722.2,918.7,2717.8,920.3,2713.5z M879.4,2719.8c-6.7-5-6.7-5-10.9,1
			C872.8,2720.4,876.1,2720.1,879.4,2719.8z M928.7,2734.3c3.9-3.1,4.9-5.8-1.2-9.8C928,2729.1,928.3,2731.7,928.7,2734.3z
			 M890.2,2771.1c-1-1.2-1.6-2.5-2.1-2.5c-1.1,0.1-2.3,0.8-3.4,1.2c0.6,0.9,1,2.5,1.7,2.6C887.4,2772.6,888.6,2771.7,890.2,2771.1z
			 M1103.8,2477.9c1,0.9,1.6,1.9,2.3,2c0.6,0,1.3-1,1.9-1.5c-0.6-0.7-1.1-1.7-1.8-1.9C1105.7,2476.3,1104.9,2477.2,1103.8,2477.9z
			 M923.8,2680.3c0.8-0.9,1.8-1.6,1.8-2.2c0-0.6-1-1.3-1.5-1.9c-0.6,0.5-1.7,1-1.8,1.6C922.3,2678.5,923.2,2679.2,923.8,2680.3z
			 M856.2,2754.2c0.4-0.4,1.1-0.8,1.1-1.1c0-0.5-0.6-0.9-1-1.3c-0.5,0.5-1,1-1.5,1.5C855.2,2753.6,855.7,2753.9,856.2,2754.2z
			 M901.3,2671.9l-0.6-0.2l0.2,0.6L901.3,2671.9z"/>
		<path class="st0" d="M1039.2,2835.4c-8.5,2.8-13.5,1.4-16.8-5.3c-1.8-3.5-3.1-7.5-3.5-11.3c-0.5-5.2,1.5-9.7,6.8-12.2
			c7.1-3.3,7-3.4,9.6-9.8c4.1-0.4,4.2,3.4,5.8,5.6c3.2,4.6,6.5,4.7,8.8-0.3c1.5-3.3,2.5-8,1.4-11.2c-2.5-7-0.7-12.2,3.9-17.3
			c4.9-5.4,9.5-11.2,14.2-16.7c8.7-10.2,21.5-14.8,31.5-23.6c7.7-6.8,19.1-6.2,29.1,0c3.7,2.3,8.7,2.4,13.1,3.5c0.3,0.1,0.7-0.1,1,0
			c19,4.2,37.5-0.4,56.2-3.3c1-0.1,2,0,2.9,0.2c0.6,0.1,1.1,0.7,2.3,1.4c-0.6,1.3-0.8,3.2-1.9,3.9c-6.8,4.7-13.8,9.3-20.9,13.6
			c-5.6,3.4-11.6,6.4-17.3,9.6c-7.5,4.2-15,8.4-22.6,12.6c-2.3,1.3-5.3,2-6.9,3.9c-11.4,12.9-28.5,15.1-42.6,22.9
			c-3.2,1.8-6.9,2.9-9.4,5.3c-4.1,3.8-8.6,6.1-14,7c-4.2,0.7-7.7,2-8.6,6.9c-0.9,4.8-3.9,7.9-8.8,7.9c-5.4,0.1-9.8-1.7-11.4-7.7
			c-0.2-0.8-1-1.5-2-2.9C1035.2,2824.3,1041.4,2830,1039.2,2835.4z"/>
		<path class="st0" d="M1203,2211c-0.5-7.6,7.5-6.1,12.3-9.9c-1.6-1.3-2.6-2.5-3.9-3c-3.6-1.5-6.9-3.3-5.9-7.9
			c0.9-4.3,4.3-8.4,8.1-7.6c10.8,2.1,15.9-3.9,20.5-11.8c0.6-1.1,2-1.7,3-2.6c5.3-4.3,6.6-11.2,2.6-16.4c-1.1-1.4-4-2.3-6-2.1
			c-4.2,0.5-8.1,5-8.1,9c0,2.6,1,5.2,1.2,7.9c0.1,1.2-0.5,2.5-0.7,3.7c-13.8,2.6-19.8-0.5-25.5-12.3c-1.3-2.7-3.2-5.1-4.5-7.8
			c-2.7-5.8-1.1-9.6,5-11.6c1.9-0.6,3.9-0.8,5.8-1.3c3.7-1.1,7-2.7,6.2-7.5c-0.7-4.1-3.8-5.6-9.1-4.7c-1.6,0.3-3.2,0.6-5.7,1
			c-1.2-3.3-2-6.4-3.5-9.3c-1.3-2.6-3.3-4.7-5.3-7.5c4.9-2.9,9.4-1.4,13.5,0.6c5.9,2.8,10.5,2.2,15.2-2.7c6.1-6.2,14.2-6.6,22.4-5.7
			c4.6,0.5,9.2,1,13.8,1.2c6.4,0.3,7.7,1.2,8.3,7.3c0.5,4.8,1.1,9.7,1.9,16.7c-3.1-2.5-5.1-3.4-6.1-5c-5.6-9-15.1-10.2-24.1-11.9
			c-1.8-0.3-5,1.1-5.6,2.5c-0.6,1.4,0.8,5.1,2.2,5.7c7.5,3.2,10.2,10,13.5,17.3c2.7-0.7,5.2-1.4,7.7-2c4.7-1.1,8.6,0.1,11.6,3.8
			c3,3.7,0.3,6.6-1.3,10c-1.5,3.2-2.8,6.9-2.8,10.3c0.2,11.3-4.3,20.6-10.6,29.9c-2-1.1-3.6-2-5.6-3c-4.4,2.9-4.4,7.8-3.2,11.6
			c3.5,11.7-4.8,19.5-8.8,28.6c-1.8,4-8.9,4.4-13.5,1.4c-2.2-1.4-3.8-3.9-6.1-5c-1.8-0.9-4.6-1.2-6.4-0.4c-1.2,0.5-2.4,3.6-2,5
			c2.3,7.1-1.1,10.7-6.4,15c-3.5,2.9-4.8,8.5-6.8,13c-1.6,3.6-1.9,8.2-7.1,8.6c-3.5,0.3-7.3-4.6-7.5-10.5
			c-0.1-5.3,0.7-10.6,1.4-15.9c1-7,0.9-7.6-5.2-9.6c-5-1.7-12-2.7-10.7-9.3c1.2-5.8,8.1-4.2,13-4.5c5-0.4,9.9-1,14.8-1.2
			C1193.7,2210.8,1198,2211,1203,2211z"/>
		<path class="st0" d="M1469,1727.8c-9.5-1-17.5-1.5-25.3-2.9c-8.4-1.5-9.8-6-5.5-13.8c3.2-5.7,5.3-12.1,8.7-17.7
			c2.9-4.7,6.3-9.5,10.6-12.9c4.2-3.3,6.9-6.2,7.3-12c0.4-6.9,4-8.8,10.1-6.1c3.9,1.7,8.1,3.6,11.1,6.5c4,3.9,8.2,6.3,13.6,7.5
			c6.8,1.6,8.6,6.4,5.4,13c-2.7,5.6-4.5,12.6-8.9,16.3c-7,6-12.6,13.1-19.3,19.3C1474.6,1727.2,1470.7,1727.3,1469,1727.8z
			 M1476.9,1686.4c2.4-2.5,4.3-3.8,5-5.6c0.3-0.7-2.3-3.6-3.5-3.5c-1.9,0.1-3.7,1.8-5.6,2.9
			C1474,1681.9,1475.1,1683.6,1476.9,1686.4z M1460.7,1703.8c-0.2-0.8-0.3-1.6-0.5-2.3c-1.6,0.6-3.2,1.2-4.8,1.8
			c0.2,0.5,0.3,1.1,0.5,1.6C1457.5,1704.5,1459.1,1704.1,1460.7,1703.8z M1469.1,1720c1.1-0.7,2.3-1,2.4-1.6
			c0.1-0.7-0.5-1.9-1.1-2.2c-0.5-0.2-1.9,0.4-2.2,1C1467.9,1717.8,1468.6,1718.8,1469.1,1720z"/>
		<path class="st0" d="M792.2,2888c4.8,5.6,11,5.5,17.3,4c10.5-2.4,20.9,0.4,31.8-0.3c-0.4,6.9-4.6,9.2-8.6,11.3
			c-4.9,2.5-8.8,5.5-11.3,10.7c-3.1,6.7-9.5,6.3-15.6,6.1c-6-0.2-8.7-3.5-9.6-9.4c-0.4-2.2-2.5-5.2-4.5-5.9
			c-5.2-1.8-10.8-3-16.3-3.5c-3.8-0.3-6.7,1.6-7.1,6.5c-0.6,6.9-6.6,12.9-13,14.2c-5.4,1.1-10.3-4.4-8.4-10.2
			c2.2-6.6,4.9-13.1,12.7-15.5c5-1.6,10-3.6,14.7-5.9c2.7-1.3,4.9-3.6,9-6.7c-5.2-2.4-8.4-3.9-11.5-5.3c-2.7-1.2-6.6-2.2-5.3-5.8
			c0.7-2,4.4-3.6,7-4c4.6-0.6,9.3-0.3,13.9-0.1c4.3,0.2,7.5,2.2,9.3,6.3c1.9,4.4,0.8,7.7-2.9,10.4
			C793,2885.5,792.8,2886.7,792.2,2888z"/>
		<path class="st0" d="M1121.6,2291.4c4.1,6.2,8.2,5.9,12.6,4.8c3.4-0.8,7-2.5,9.9,2.2c-4.6,6.3-11.1,6.3-17.7,5.8
			c-5.5-0.4-11.1-0.9-17.5-1.4c0.1-1.6,0.2-4,0.3-6.8c-8-4.3-16.9-7.3-22.8-15c0.6-1.2,0.9-2.5,1.6-2.8
			c12.8-5.2,25.6-10.3,38.4-15.2c1.4-0.5,3.5-0.4,4.7,0.3c4.9,3.2,6.5,8.2,6.5,13.8c0,5.1-2,9-7.2,10.7
			C1127.7,2288.6,1125.2,2289.9,1121.6,2291.4z"/>
		<path class="st0" d="M759.6,2740.5c2-1.6,3.3-3.2,5-3.9c4.4-2,6.7-5.1,6.7-10c0-3.8,1-8.1,5.5-8.1c3.2,0,6.6,2.1,9.4,4.1
			c3.9,2.9,7.4,6.4,10.7,9.9c1.4,1.5,2.8,3.9,2.8,5.9c0.3,11.9-8.8,25-19.9,29.4c-7,2.7-11.8-0.2-12.5-7.6
			C766.1,2748.1,766.1,2748.1,759.6,2740.5z"/>
		<path class="st0" d="M1252.9,2240c2.5,5.7-0.7,8.7-2.8,11.9c-3.3,4.9-6.2,10.2-9.9,14.7c-1.9,2.3-5.6,4.8-8,4.5
			c-8.5-1.2-17-3-25-5.9c-5.9-2.1-6.3-5.2-4-11.2c5.2-13.6,10.9-17.2,24-12.3c7.6,2.8,13.9,3.1,20.7-1
			C1249,2239.8,1250.9,2240.1,1252.9,2240z"/>
		<path class="st0" d="M1038.2,2414.7c3.1,1.4,5.4,2.5,7.7,3.6c4.5,2.1,8.8,4.4,13.4,6.1c6.4,2.4,7.2,3.6,5.5,10.2
			c-0.6,2.5-1.2,5.1-1.2,7.7c0.1,3.1,0.7,6.6-3.1,7.3c-3.3,0.6-8.9,0.9-10.1-0.9c-6.2-9.2-13.6-18-13.9-29.9
			C1036.4,2417.7,1037.2,2416.8,1038.2,2414.7z"/>
		<path class="st0" d="M1205.5,2072.5c3.1,0.7,5.2,0.8,7,1.5c6.7,2.5,13.2,4.6,19.8-0.4c0.9-0.7,4.5,0.1,5,1.1
			c1,2.2,1.7,5.3,0.9,7.4c-4.6,11.9-21.4,15.7-31,7.2c-2-1.7-3.8-3.8-5.2-6c-1.3-2.1-3.3-5.3-2.6-6.7
			C1200.5,2074.5,1203.8,2073.5,1205.5,2072.5z"/>
		<path class="st0" d="M1278.1,2059.5c8.4,6.2,6.8,13.6,4.1,21.1c-0.6,1.7-2,3.7-3.5,4.4c-5.1,2.5-17.6-4.3-18.5-10
			c-0.3-1.7,0.7-3.8,1.6-5.4c3.6-5.9,7.4-11.7,11.1-17.5c0.4-0.6,0.6-1.2,1-1.7c1.9-2.4,4.1-5.2,7.2-3c1,0.8,0.2,4.5-0.3,6.8
			C1280.6,2055.8,1279.4,2057.1,1278.1,2059.5z"/>
		<path class="st0" d="M881.6,2859.1c-11.6-1.6-21.8-2.6-31.9-4.4c-6.1-1.1-7.5-6-2.9-10c3-2.6,7.6-5.3,11.2-4.9
			c9.1,1.1,18.4,2.9,25.8,9.2c1.8,1.5,4.2,5.1,3.6,6C886,2857.2,883,2858.3,881.6,2859.1z"/>
		<path class="st0" d="M1724.5,1666.6c5.5,2.1,5.4,6.4,5.2,10.3c-0.3,6.4-0.5,12.3,3,18.2c2.4,4,0.1,7.1-4.4,7.8
			c-10,1.6-19.8-8.7-16.3-18.1C1714.5,1677.8,1719.1,1671.7,1724.5,1666.6z"/>
		<path class="st0" d="M831.5,2854.1c0.6,1.2,1.7,2.5,1.9,4c0.6,4.3,2.7,7.1,6.4,9.4c1.9,1.2,4.3,4.1,4,5.8
			c-0.7,3.7-3.9,1.8-6.5,1.5c-3.1-0.3-6.7-0.3-9.5,0.8c-7.6,3-13.8-0.2-19.6-3.9c-4.6-2.9-4.7-7.7-1-15.7c1.1,2.2,1.9,3.8,2.7,5.4
			c1.7,3.8,5,4.1,8.4,3.6c3.3-0.5,6.8-1,7.7-5.1C826.5,2857,826.3,2853.6,831.5,2854.1z"/>
		<path class="st0" d="M1099.2,2233.3c0.9-4,0.8-5.8,1.6-7c4.8-6.6,19.1-9.5,26.4-5.6c5.1,2.8,10.4,5.5,16,8.5
			c-4.4,2.2-8.8,4.7-13.5,6.5c-1.9,0.7-5.1,0.6-6.5-0.6C1116.4,2229.2,1109,2228.9,1099.2,2233.3z"/>
		<path class="st0" d="M754.9,2943.2c1.7-3.9,2.5-5.7,3.3-7.5c4.9-11.1,12-14.6,23.6-10.8c2.7,0.9,5.8,3.8,6.5,6.3
			c1.1,3.9-2.5,5.6-6,6.5c-2.2,0.6-4.6,0.9-6.8,1.4C769.2,2940.4,762.9,2941.6,754.9,2943.2z"/>
		<path class="st0" d="M1159.9,2267.7c3.4,3.5,6.3,6.4,10.3,10.5c-3.8,1-5.9,2.3-7.2,1.7c-6.6-3-13.3-5.9-19.3-9.9
			c-4.6-3.1-4.1-7.3,0.5-10.5c5.8-4,12.2-4.5,19.4-1.1C1162.4,2261.4,1161.2,2264.3,1159.9,2267.7z"/>
		<path class="st0" d="M1411.1,2113.8c6.1-3.4,9.9-6.1,14.1-7.8c7.5-3.1,12,0,12.6,8.2c0.1,1.6,0.1,3.3-0.1,4.9
			c-1,7.2-5.6,9.8-11.9,6C1421.1,2122.4,1417.1,2118.6,1411.1,2113.8z"/>
		<path class="st0" d="M1084.7,2603.8c2.7-6.8,4.9-13.4,8-19.5c0.9-1.9,4.4-3.9,6.2-3.5c2,0.3,4,3.2,5,5.4c2,4.2,1.6,8.1-2.2,11.7
			c-2.8,2.7-4.7,6.4-7.5,9.1c-1.6,1.6-4.4,2.7-6.6,2.6C1086.6,2609.4,1085.8,2606,1084.7,2603.8z"/>
		<path class="st0" d="M2036.7,1293.3c-3,5.5-2.6,11.3,0.9,17.3c0.7,1.2-0.2,4.2-1.4,5.1c-1.2,0.9-3.9,1-5.5,0.3
			c-3.7-1.6-6.4-4.6-4.5-8.7c2.5-5.2,1.2-9.3-1-14.1c-1.4-3-1.3-6.9-0.8-10.2c0.1-0.9,4.1-2.2,5.9-1.8c4.7,1.1,4.8,5.8,6,9.5
			C2036.6,1291.3,2036.6,1292,2036.7,1293.3z"/>
		<path class="st0" d="M821.5,2709.8c-3.8,8.4-9.4,13.9-19.5,13c-1.1-4.2-2-8.1-3.1-12c-1.4-5,0.4-7.6,5.4-8
			C808.5,2702.5,816.1,2705.5,821.5,2709.8z"/>
		<path class="st0" d="M1163.7,2191.8c-6,9-9.9,10.1-18.2,6.5c-4.6-2-9.6-3.2-15.8-5.1c6.7-6.2,18.3-1.4,21.2-12.6
			C1155.7,2184.7,1159.7,2188.3,1163.7,2191.8z"/>
		<path class="st0" d="M1712,1597.1c-1.4,6.7-6.5,10.1-11.5,12.8c-3.9,2.2-6.8-0.9-8.6-4.4c-2-4.2-0.9-8.6,3.1-10
			C1700.6,1593.5,1706.5,1592.6,1712,1597.1z"/>
		<path class="st0" d="M2079.7,1208.2c3.4-0.1,4.3,3.1,4.7,6.6c0.3,3.6-0.9,7.8-4.7,7.3c-5.7-0.9-11.2-3.2-16.4-5.9
			c-2.6-1.4-1.6-5.3,1.6-6C2069.4,1209.2,2074,1209,2079.7,1208.2z"/>
		<path class="st0" d="M1054.4,2300.3c-4.7,0.1-12.3-6.2-12.1-10.1c0.2-3.3,5.2-6.6,9.9-6.6c4.7,0.1,8.5,4.2,8.5,9.2
			C1060.7,2297.1,1058,2300.2,1054.4,2300.3z"/>
		<path class="st0" d="M1438.1,1342.2c-7.9,7.3-19.3,8.3-25.4,3.4c-2.8-2.3-2.6-6.4,0.8-7c4.8-0.9,9.8-0.8,14.7-0.2
			C1431.3,1338.8,1434.4,1340.7,1438.1,1342.2z"/>
		<path class="st0" d="M1456.5,1740.3c-8,2.3-16.2,4.1-24.5,1c-1.8-0.7-3.5-3.9-3.6-6c-0.1-1.2,3.4-3.9,4.8-3.7
			c7.9,1.3,15.7,3.4,23.5,5.2C1456.7,1738,1456.6,1739.1,1456.5,1740.3z"/>
		<path class="st0" d="M1688.7,1766.5c-4.2-4.2-7.4-6.5-9.3-9.7c-1-1.7-0.7-5.5,0.5-7.1c3-3.7,7.4-2.8,10.8-0.5
			c1.7,1.2,3.3,4.3,3,6.3C1693.2,1758.6,1691.1,1761.4,1688.7,1766.5z"/>
		<path class="st0" d="M1186.1,2146.5c1.6,2.6,3.9,5,4.6,7.8c1.1,4.1,1.5,8.5,1.6,12.8c0,1.6-1.5,3.3-2.3,4.9c-1.8-1-5-1.8-5.3-3.2
			c-1.4-7-3.5-14.1-1.2-21.3C1184.3,2147.3,1185.2,2146.9,1186.1,2146.5z"/>
		<path class="st0" d="M1335.2,2083.7c-5.3,6.1-12.3,6.8-19.4,7c-1.2,0-3.1-1.7-3.4-2.9c-0.3-1.2,0.5-3.3,1.6-4.2
			C1318.2,2079.3,1328.4,2079.3,1335.2,2083.7z"/>
		<path class="st0" d="M2040.9,1172.5c-8.1-0.3-13.2-4.1-13.2-8.8c0-4.3,3-4.4,6.2-4.2c6.4,0.4,12,4.3,11.2,8.5
			C2044.7,1170.1,2041.8,1171.7,2040.9,1172.5z"/>
		<path class="st0" d="M1248.9,2005.9c0-2.3-0.4-3.8,0.1-4.9c0.9-1.8,2.4-4.6,3.8-4.7c1.5-0.1,4.4,2,4.8,3.6c1,4.1,1.2,8.5,1,12.7
			c-0.1,1.5-2.2,4.3-3.1,4.2c-1.9-0.3-4.4-1.6-5.2-3.2C1249.2,2011,1249.2,2007.9,1248.9,2005.9z"/>
		<path class="st0" d="M1326.3,1597.4c6.4,7,5.6,13.8-1.9,16.2c-2,0.7-5.6,0-6.8-1.4c-1-1.2-0.4-5,0.7-6.7
			C1320.2,1602.6,1323.2,1600.4,1326.3,1597.4z"/>
		<path class="st0" d="M1300.3,2046.1c-5.3-3-11.2-5.3-15.1-10.5c-1.8-2.4-3.7-5.6-0.7-8c3.2-2.5,5.5,0.3,7.3,2.8
			c3.2,4.6,6.3,9.3,9.4,14C1300.9,2044.9,1300.6,2045.5,1300.3,2046.1z"/>
		<path class="st0" d="M1319.5,2102.8c6.8,6.3,6.6,13.5,0.4,16.8c-1.3,0.7-3.5,0.8-4.6,0.1c-1-0.7-1.9-3.1-1.5-4.2
			C1315.3,2111.2,1317.4,2107.2,1319.5,2102.8z"/>
		<path class="st0" d="M1357.7,2168.8c1.1-1.5,2.4-4.6,4.7-5.9c2.2-1.2,6.3-1.7,8-0.5c3.3,2.4,0.5,5.4-1.5,7.5
			c-1.6,1.6-3.5,3.2-5.6,4C1360,2175.2,1358.2,2173.5,1357.7,2168.8z"/>
		<path class="st0" d="M831.8,2673.1c5.4,1.8,9,2.5,12,4.3c1.5,0.9,2.5,3.9,2.4,5.9c-0.1,1.3-2.4,3.5-3.9,3.6c-2,0.1-5-0.8-6-2.3
			C834.5,2682,833.9,2678.6,831.8,2673.1z"/>
		<path class="st0" d="M1219.9,2294.1c-0.7-1.1-2.6-2.6-2.9-4.4c-0.6-3.8,2.8-7.4,6.6-6.7c1.8,0.3,4.1,2.3,4.5,4
			C1229,2290.1,1224.8,2294,1219.9,2294.1z"/>
		<path class="st0" d="M1351.2,1702.8c3.2-2.7,5.3-5.7,7.9-6.2c3.2-0.7,4.3,2.5,3.9,5.5c-0.5,3.6-2.4,6.6-6.4,6
			C1354.9,1707.8,1353.6,1705.3,1351.2,1702.8z"/>
		<path class="st0" d="M2137.7,1116.7c-6.5,4.5-11.6,4.7-13.9,0.7c-0.6-1.1-0.4-3.4,0.4-4.3
			C2127.2,1109.6,2132.3,1111,2137.7,1116.7z"/>
		<path class="st0" d="M1677.9,1779.6c1.7,5.1,3.2,8.4,3.7,11.9c0.2,1.4-1.7,4.5-2.5,4.5c-1.9-0.1-4.8-1.2-5.5-2.6
			C1671.7,1788.8,1673.1,1784.5,1677.9,1779.6z"/>
		<path class="st0" d="M1305.3,2073.7c-7.8,3.4-11.8,3.3-12.8-0.3c-0.6-2,0.4-6.1,1.7-6.6
			C1299.9,2064.6,1302.1,2069.3,1305.3,2073.7z"/>
		<path class="st0" d="M2031.2,1468c-4.4,11.2-6.9,13-14,11.1C2021.1,1471,2022.4,1469.9,2031.2,1468z"/>
		<path class="st0" d="M1029.6,2358c-11,0.4-14.2-4-10.2-14.3C1023.1,2348.8,1026.1,2353,1029.6,2358z"/>
		<path class="st0" d="M1146.6,2222.2c-2.5-2.7-4.3-4.7-6.1-6.6c1.8-1.5,3.5-3.8,5.5-4.2c3.7-0.7,7.8,2.7,6.7,5.2
			C1151.8,2218.6,1149.3,2219.8,1146.6,2222.2z"/>
		<path class="st0" d="M1418,1329.5c-3.9-2.9-7.2-5.7-4.2-9.8c1-1.4,6.5-1.8,7.5-0.6C1424.7,1322.9,1421.9,1326.1,1418,1329.5z"/>
		<path class="st0" d="M1222.6,2060.8c-11,1-12.8-0.1-14.4-8.4C1214.6,2051.8,1218.1,2055.6,1222.6,2060.8z"/>
		<path class="st0" d="M1387.7,2120.8c6.3-3.2,10.2-3.2,13.7-0.9c1.2,0.8,1.3,3.2,2,4.9c-1.4,0.5-3.1,1.8-4.2,1.4
			C1395.9,2125.1,1392.8,2123.3,1387.7,2120.8z"/>
		<path class="st0" d="M1404.3,1153.7c0.2,2.2,1.1,4.7,0.4,6.6c-0.6,1.6-3.1,3.6-4.6,3.5c-3.1-0.2-4.5-3-3.1-5.7
			c1.1-2.3,3.4-4,5.1-6C1402.8,1152.6,1403.5,1153.1,1404.3,1153.7z"/>
		<path class="st0" d="M811.1,2697.6c-2.3-2-4.5-3-4.7-4.4c-0.6-3.4,2.2-4.5,4.9-4.3c1.5,0.1,3,1.8,4.4,2.7
			C814.3,2693.4,812.9,2695.2,811.1,2697.6z"/>
		<path class="st0" d="M2054,1245.5c-2.6-0.7-5.4-1-7.6-2.3c-1.1-0.7-1-3.3-1.4-5c1.7-0.3,3.9-1.4,5-0.7c2.1,1.2,3.5,3.5,5.2,5.3
			C2054.9,1243.6,2054.4,1244.6,2054,1245.5z"/>
		<path class="st0" d="M813.4,3027.7c-2-1.9-3.2-3.1-4.5-4.3c1.7-1.5,3.3-3.3,5.3-4.2c0.6-0.3,3.6,2.6,3.4,3.2
			C816.9,3024.2,815.2,3025.6,813.4,3027.7z"/>
		<path class="st0" d="M1311.5,589.8c-1.6-2.1-3.5-4.1-3.3-4.4c1.3-1.6,2.9-3,4.8-3.9c0.5-0.2,3.1,2.5,2.9,2.9
			C1315,586.2,1313.4,587.6,1311.5,589.8z"/>
		<path class="st0" d="M1310.4,972.1c2.4-6.3,6.2-6.5,11.4-6.6C1320.3,972.2,1316.5,972.9,1310.4,972.1z"/>
		<path class="st0" d="M1390.4,988.8c3.3,3.6,4.5,7.1-2.2,12.4c-0.3-5.3-0.5-8.7-0.7-12.2C1388.5,989,1389.5,988.9,1390.4,988.8z"/>
		<path class="st0" d="M804.2,2827.4c3.1,2.9,4.8,5.8,3,10.1C800.2,2834.9,800.1,2834.5,804.2,2827.4z"/>
		<path class="st0" d="M1306.9,1647.6c4.7-2.8,7.6-2.3,10.7,1.2C1313.8,1652.9,1310.9,1651.7,1306.9,1647.6z"/>
		<path class="st0" d="M979.8,2423.4c3.8-5.3,6.9-5.4,11.2-3.7C988.9,2424.8,985.5,2424.5,979.8,2423.4z"/>
		<path class="st0" d="M1975.7,1508c-0.4-1.2-1.6-2.8-1.2-3.6c0.9-1.7,2.5-3.2,4.1-4.4c0.2-0.2,2.7,1.7,2.6,1.9
			c-0.8,1.8-2,3.4-3,5.1C1977.4,1507.3,1976.6,1507.6,1975.7,1508z"/>
		<path class="st0" d="M1003.5,2368c-0.4-1.3-1.4-2.8-1-3.8c0.5-1.6,1.9-2.9,3.2-4.1c0.2-0.2,2.8,1.5,2.6,1.9
			c-0.4,1.6-1.5,3.1-2.3,4.6C1005.1,2367.1,1004.3,2367.5,1003.5,2368z"/>
		<path class="st0" d="M1284.4,666.3c-2.1,1.8-3.3,3.4-4.9,3.8c-0.7,0.2-2.1-1.6-3.3-2.6c1.4-1.2,2.6-2.6,4.2-3.3
			C1281.1,664,1282.5,665.3,1284.4,666.3z"/>
		<path class="st0" d="M1433.3,1756.2c-2,1.4-3.2,3-4.2,2.9c-1.1-0.1-2.1-1.8-3.1-2.9c1-1,2-2.6,3.1-2.8
			C1430.1,1753.3,1431.3,1754.8,1433.3,1756.2z"/>
		<path class="st0" d="M1192.5,2069c-0.8-2.3-2.2-4.1-1.8-5.2c0.5-1.4,2.3-2.8,3.8-3.2c0.6-0.2,2.8,1.9,2.8,3
			C1197.4,2064.6,1195.6,2065.7,1192.5,2069z"/>
		<path class="st0" d="M1170.5,2099.1c-3,1.1-4.4,2-5.8,2c-1.1,0.1-2.2-0.9-3.8-1.6C1163.4,2095.9,1165.8,2096,1170.5,2099.1z"/>
		<path class="st0" d="M1326.4,2056.5c2.6,2.2,4.8,4.5,1.9,10.7c-1.9-4.3-3.1-7-4.2-9.6C1324.9,2057.2,1325.6,2056.9,1326.4,2056.5z
			"/>
		<path class="st0" d="M1298.1,805.9c-3-0.4-6.6,0.3-8.3-4.7c5.3-2.2,6.6,1.5,8.2,4.8C1298,806.1,1298.1,805.9,1298.1,805.9z"/>
		<path class="st0" d="M1255,2226.3c-1.8-0.2-3.7-0.3-5.5-0.5c0-0.7,0-1.3,0-2c1.9,0,3.7,0,5.6,0
			C1255.1,2224.7,1255.1,2225.5,1255,2226.3z"/>
		<path class="st0" d="M1248.2,2051.4c-4.3,0.1-6.1-1.7-7-5.8C1245.5,2045.5,1247.7,2046.9,1248.2,2051.4z"/>
		<path class="st0" d="M1026.2,2289.6c1.9-1,3.7-1.9,6.6-3.4c-0.2,5.4-2.4,6-5.3,5.6C1027.1,2291.1,1026.7,2290.3,1026.2,2289.6z"/>
		<path class="st0" d="M1011.1,2415.5c1.9,0.4,3.7,0.7,5.6,1.1c-0.1,0.7-0.2,1.4-0.3,2.1c-1.8-0.1-3.7-0.2-5.5-0.3
			C1010.9,2417.4,1011,2416.5,1011.1,2415.5z"/>
		<path class="st0" d="M2113.7,211.1c1.1,1.2,2.2,2.4,2.1,2.5c-0.9,1.1-2,2.1-3.2,2.9c-0.2,0.1-1.9-1.5-1.8-1.6
			C2111.6,213.6,2112.5,212.6,2113.7,211.1z"/>
		<path class="st0" d="M2181.1,228.8c2.8,0.7,5.5,1.3,10.4,2.5c-5.7,3.6-8.4,1.6-11.1,0.1C2180.7,230.5,2180.9,229.6,2181.1,228.8z"
			/>
		<path class="st0" d="M2207.2,1001.4c-1.5-1.4-2.8-2.1-3-3c-0.1-0.7,1.2-2.4,1.8-2.4c1,0.1,2.3,1,2.7,1.9
			C2209.1,998.5,2208,999.7,2207.2,1001.4z"/>
		<path class="st0" d="M1384.1,1324.6c2.2-0.9,3.3-1.8,4.3-1.7c0.9,0.1,1.6,1.4,2.4,2.1c-1,0.6-1.9,1.7-2.9,1.7
			C1387.1,1326.9,1386.1,1325.8,1384.1,1324.6z"/>
		<path class="st0" d="M1330.4,1486.8c1.3,1.8,2,2.7,2.7,3.6c-0.9,0.7-1.7,1.6-2.7,1.9c-0.5,0.1-1.9-1.1-1.9-1.7
			C1328.5,1489.6,1329.4,1488.7,1330.4,1486.8z"/>
		<path class="st0" d="M1373.5,1506.5c-0.6-1-1.4-1.8-1.3-2.5c0.1-0.7,1.1-1.3,1.7-1.9c0.6,0.8,1.5,1.6,1.8,2.5
			C1375.8,1504.9,1374.4,1505.6,1373.5,1506.5z"/>
		<path class="st0" d="M1132.4,2445.2c0.6,1,1,1.7,1.4,2.4c-0.9,0.5-1.8,1.1-2.7,1.6c-0.3-0.8-1-1.6-0.9-2.3
			C1130.4,2446.3,1131.5,2445.9,1132.4,2445.2z"/>
		<path class="st0" d="M1990.1,1515.6c1.8,0.7,3.6,1.4,5.4,2c-0.2,0.7-0.4,1.4-0.7,2.1c-1.8-0.4-3.7-0.8-5.5-1.3
			C1989.6,1517.5,1989.8,1516.6,1990.1,1515.6z"/>
		<path class="st0" d="M751.4,2964.3c1-0.9,1.7-1.9,2.4-1.9c0.6,0,1.8,1.1,1.8,1.6c0,0.7-1,1.8-1.7,1.9
			C753.3,2966,752.5,2965.1,751.4,2964.3z"/>
		<path class="st0" d="M992,2398.6c-0.9-1.2-1.4-1.9-1.9-2.6c0.7-0.5,1.4-1.2,2.2-1.4c0.3-0.1,1.3,0.9,1.2,1.2
			C993.4,2396.7,992.8,2397.4,992,2398.6z"/>
		<path class="st0" d="M1389.3,1501.6c-1.5,0.6-2.4,1.3-3.1,1.1c-0.6-0.2-0.9-1.4-1.3-2.1c0.6-0.3,1.2-0.9,1.7-0.8
			C1387.4,1500,1388,1500.7,1389.3,1501.6z"/>
		<path class="st0" d="M1335.5,971.8c-0.5-0.3-1.2-0.5-1.3-0.9c-0.1-0.5,0.3-1.1,0.6-1.6c0.6,0.4,1.2,0.8,1.8,1.2
			C1336.2,970.9,1335.9,971.3,1335.5,971.8z"/>
		<path class="st0" d="M1351.7,1980.1c-0.6-1.3-1.3-2.2-1.1-2.8c0.2-0.5,1.3-0.9,2.1-1c0.2,0,0.9,1.1,0.8,1.4
			C1353.2,1978.4,1352.6,1979,1351.7,1980.1z"/>
		<path class="st0" d="M1352,1722.5c-0.5,0.3-1,0.6-1.5,1c-0.3-0.5-0.9-1.1-0.8-1.5c0.1-0.4,0.9-0.7,1.4-1
			C1351.4,1721.5,1351.7,1722,1352,1722.5z"/>
		<path class="st0" d="M1096.4,2260.5c0.3,0.9,0.8,1.7,0.9,2.5c0,0.2-1.4,0.8-1.5,0.8c-0.5-0.7-0.9-1.5-1.3-2.3
			C1095,2261.2,1095.5,2260.9,1096.4,2260.5z"/>
		<path class="st0" d="M2084.2,1314c-0.5-0.3-1.1-0.5-1.6-0.8c0.3-0.5,0.5-1.4,0.8-1.4c0.5-0.1,1.1,0.4,1.6,0.7
			C2084.7,1313,2084.4,1313.5,2084.2,1314z"/>
		<path class="st0" d="M2298,257.6c0.5-0.4,0.9-0.7,1.4-1.1c0.3,0.5,1,1,0.9,1.4c-0.1,0.4-0.8,0.8-1.3,1.1
			C2298.7,258.6,2298.3,258.1,2298,257.6z"/>
		<path class="st0" d="M2323.8,800.8c-0.8,0.3-1.6,0.7-2.5,0.8c-0.1,0-0.8-1.4-0.6-1.6c0.6-0.6,1.5-0.9,2.3-1.3
			C2323.2,799.3,2323.4,799.9,2323.8,800.8z"/>
		<path class="st0" d="M2098.9,1232.2c-0.5,0.1-1,0.2-1.5,0.3c0,0-0.1-0.5-0.2-0.8c0.5-0.1,1-0.2,1.5-0.3
			C2098.7,1231.5,2098.8,1232,2098.9,1232.2z"/>
		<path class="st0" d="M2342.8,279.2c-0.3,0.5-0.6,1.2-0.9,1.3c-0.4,0.1-1-0.5-1.5-0.7c0.3-0.5,0.6-1.2,0.9-1.3
			C2341.8,278.3,2342.3,278.9,2342.8,279.2z"/>
		<path class="st0" d="M1406,1398c1.8-0.9,3.6-1.9,5.3-2.8c0.2,0.6,0.4,1.1,0.6,1.7c-2,0.3-4,0.7-6,1
			C1405.9,1397.9,1406,1398,1406,1398z"/>
		<path class="st0" d="M2032.3,1363.2c0.2,0.2,0.4,0.4,0.6,0.6c-0.4,0.3-0.7,0.7-1.1,0.9c-0.1,0-0.4-0.3-0.6-0.5
			C2031.5,1363.9,2031.9,1363.5,2032.3,1363.2z"/>
		<path class="st0" d="M1316.3,989.1c-0.2-0.7-0.7-1.5-0.7-2.4c0-0.4,0.9-1.1,1.2-1.1c0.7,0.2,1.3,0.8,2,1.3
			C1318.3,987.3,1317.9,987.7,1316.3,989.1z"/>
		<path class="st0" d="M1283.2,652.2c0.5-0.2,1.1-0.6,1.5-0.4c0.4,0.2,0.6,0.9,0.8,1.4c-0.5,0.2-1.1,0.6-1.5,0.5
			C1283.7,653.4,1283.5,652.7,1283.2,652.2z"/>
		<path class="st0" d="M1606.7,1809.7c-0.1-0.3-0.3-0.5-0.4-0.8c0.5-0.1,0.9-0.2,1.4-0.3c0,0.3,0,0.7-0.1,0.9
			C1607.4,1809.7,1607,1809.6,1606.7,1809.7z"/>
		<path class="st0" d="M1715.1,265.4c-0.3-0.2-0.5-0.3-0.8-0.5c0.4-0.3,0.7-0.7,1.1-1c0.1,0.3,0.4,0.6,0.3,0.8
			C1715.6,265,1715.3,265.2,1715.1,265.4z"/>
		<path class="st0" d="M786.9,2704.3c0.1,0.3,0.3,0.5,0.4,0.8c-0.5,0.1-1,0.2-1.5,0.3c0-0.3,0-0.7,0.2-0.9
			C786.2,2704.3,786.6,2704.3,786.9,2704.3z"/>
		<path class="st0" d="M2269,909.5c0,0.3,0.1,0.7-0.1,0.8c-0.2,0.2-0.6,0.1-0.9,0.2c0-0.5,0.1-0.9,0.1-1.4
			C2268.4,909.3,2268.7,909.4,2269,909.5z"/>
		<path class="st0" d="M1421.2,1769.7c-0.3-0.1-0.7-0.1-0.8-0.3c-0.1-0.2,0-0.6,0-0.9c0.4,0.1,0.9,0.3,1.3,0.4
			C1421.6,1769.3,1421.4,1769.5,1421.2,1769.7z"/>
		<path class="st0" d="M1368.8,1280.2c-0.2-0.2-0.4-0.5-0.6-0.7c0.5-0.2,0.9-0.4,1.4-0.6c0,0.3,0.2,0.7,0,0.9
			C1369.5,1280,1369.1,1280.1,1368.8,1280.2z"/>
		<polygon class="st0" points="1368.8,1420.3 1368.9,1419.6 1369.4,1420 		"/>
		<polygon class="st0" points="816.7,2881.9 817.4,2881.8 817.1,2882.4 		"/>
		<path class="st0" d="M1254.8,2038c-0.2-0.1-0.6-0.2-0.7-0.4c-0.1-0.2,0.1-0.5,0.2-0.8c0.4,0.2,0.8,0.5,1.1,0.7
			C1255.2,2037.6,1255,2037.8,1254.8,2038z"/>
		<polygon class="st0" points="798.8,3021.7 799.4,3022 798.8,3022.4 		"/>
		<path class="st0" d="M1252.8,2208c0.4-0.2,0.9-0.4,1.3-0.6c0,0,0.4,0.6,0.3,0.7c-0.2,0.5-0.6,0.8-0.9,1.2
			C1253.3,2208.9,1253.1,2208.4,1252.8,2208z"/>
		<path class="st0" d="M2034.3,1411c-0.2-0.2-0.5-0.3-0.6-0.5c0-0.2,0.3-0.4,0.4-0.7c0.3,0.3,0.6,0.6,0.9,0.9
			C2034.8,1410.8,2034.5,1410.9,2034.3,1411z"/>
		<polygon class="st0" points="2077.2,1163.7 2077.1,1164.4 2076.6,1164 		"/>
		<polygon class="st0" points="762.3,2784.8 762,2785.4 761.6,2784.8 		"/>
		<path d="M1945.5,1400.8c10.1-2.8,18.5-5.2,27.1-7.4c0.7-0.2,1.7,0.8,2.4,1.3c1.6,3.8-1,5.6-3.3,7.5c-2.1,1.7-4.3,3.5-7.7,6.3
			c5.8,1.9,9.8,3.2,15.1,5c-2.4,2-3.2,3.2-4.3,3.6c-6.8,2.3-13.7,4.5-20.6,6.7c-4.5,1.4-6.9,0.2-7.6-4.8
			C1945.8,1413,1945.8,1407.1,1945.5,1400.8z"/>
		<path d="M1439.8,1449.3c-5.2,0.2-10.3,0.2-11.6-4.8c-0.8-2.9,0.5-7.2,2.3-9.9c1.3-1.9,5.2-2.8,7.8-2.7c5.3,0.3,10.6,1.3,15.7,2.7
			c2.2,0.6,5.7,2.9,5.6,4.3c-0.1,2.5-2.4,4.9-4,7.2c-0.5,0.7-1.8,0.9-2.7,1.1C1448.3,1448,1443.7,1448.7,1439.8,1449.3z"/>
		<path d="M2181.6,935.1c-6.2-0.2-14.2-6.4-13.8-10.8c0.4-4.1,8.9-10.9,13.3-10.5c4.3,0.3,9.4,6.6,9.4,11.5
			C2190.6,931.1,2186.9,935.2,2181.6,935.1z"/>
		<path d="M1458.8,1381.9c4.8-1.3,7.4-2.6,10.1-2.6c4.9,0,10,0.2,14.8,1.2c2.9,0.6,6.9,2.6,7.6,4.9c0.8,2.3-1.3,6.1-3.2,8.5
			c-2.4,3.1-6.4,4.1-9.8,1.8C1472.3,1391.9,1466.7,1387.5,1458.8,1381.9z"/>
		<path d="M1417.6,1557c-4.5,1.4-6.6,2.6-8.7,2.7c-6.6,0.3-13.2,0.4-19.8,0.2c-2.2-0.1-4.8-0.7-6.4-2.1c-1.7-1.4-2.4-4.1-3.5-6.2
			c2.3-0.9,5.5-3.2,6.8-2.4c8,5.1,16.4,5.5,25.4,4.1C1412.6,1553.2,1414.1,1554.8,1417.6,1557z"/>
		<path d="M1403.4,1190.2c6.7-3.1,13.2-5.7,21.1-4.7c0.5,4.5,1.2,8.7,1.2,12.9c0,1.6-1.3,4.1-2.6,4.7c-1.4,0.6-3.9-0.1-5.3-1.1
			C1413.3,1198.5,1408.9,1194.7,1403.4,1190.2z"/>
		<path d="M1449,1268.7c6.6-4.2,13.6-4.7,20.5-2.1c2.2,0.8,3.4,4.1,5,6.2c-2.1,1.1-4.2,3-6.3,3.2c-3.9,0.4-7.9,0-11.8-0.5
			C1452.8,1275,1449.5,1273.7,1449,1268.7z"/>
		<path d="M1440.9,1476.4c-3.4,2.7-5.4,4.2-7.4,5.7c-0.2,0.6-0.5,1.3-0.4,1.9c0.2,2.7,2.9,6.1-1,7.9c-3.9,1.8-6.1-1.3-8-4.1
			c-0.9-1.3-1.7-2.8-2.3-4.4c-2.2-6.3,1-10.9,7.5-10.3C1432.7,1473.5,1436,1475,1440.9,1476.4z"/>
		<path d="M1946.4,1369.5c0.6-0.7,1.3-2.7,2.4-3c1.2-0.4,3.3,0.3,4.2,1.3c2.9,3.2,5.6,6.5,8,10.1c2.3,3.4,1,7.3-2.5,9.3
			c-3.5,1.9-7.6,0.7-8.9-3.3C1948.3,1379.5,1947.6,1374.8,1946.4,1369.5z"/>
		<path d="M2144.5,1008.6c8.3,0,14.4,4.5,14.1,9.2c-0.2,4-3.1,4.6-6.4,4.5c-6.7,0-12.9-4.3-12-9.1
			C2140.6,1011.1,2143.6,1009.5,2144.5,1008.6z"/>
		<path d="M2319.1,620.2c2.7,0.4,5.5,0.3,8,1.2c4.9,1.6,9.5,1.6,14.5-0.2c6.4-2.3,6.7-1.9,10,4.9c-12.5,4.2-25.7,2.8-32.9-3.5
			C2318.9,621.8,2319,621,2319.1,620.2z"/>
		<path d="M1425,1508.6c7.1-2.5,13.9-1,20.5,2.3c1.2,0.6,1.4,3.2,2.1,4.9c-1.7,0.4-3.6,1.6-5.1,1.2c-6.1-1.8-12-4-18-6.1
			C1424.7,1510.2,1424.8,1509.4,1425,1508.6z"/>
		<path d="M2244.8,850.9c-1.2-2-3.7-4.7-4.5-7.8c-0.8-3.2,4.4-6.6,8.8-5.8c1.7,0.3,4.1,2.4,4.4,4.1
			C2254.2,845.1,2249.3,851.1,2244.8,850.9z"/>
		<path d="M2211.2,846.2c2,1.1,4.9,2.4,7.5,4.2c0.5,0.3,0.2,3.3-0.3,3.5c-3,1-6.1,1.8-9.2,2.3c-1.2,0.2-2.8-0.3-3.8-1.1
			c-1.2-0.9-3.1-2.6-2.8-3.5c0.4-1.6,2-3.1,3.5-4.2C2207.1,846.6,2208.6,846.7,2211.2,846.2z"/>
		<path d="M1907.5,1444.1c-1.5-4.4-1-9.3,2.7-12.3c5.2-4.2,10.4-0.1,16.4,0.9C1919.9,1436.8,1914.2,1440.2,1907.5,1444.1z"/>
		<path d="M2213.2,796.7c-7.3,3.5-11.7,3.4-14.8-0.8c-1.3-1.8-1-4.7-1.5-7.1c2.4,0,4.8,0,7.1,0.1c0.5,0,1,0.8,1.5,1.2
			C2207.8,792.1,2210.1,794,2213.2,796.7z"/>
		<path d="M1347,904.9c-2.3-2.9-4.4-5-5.7-7.5c-0.8-1.4-0.9-4.5,0-5.2c1.5-1.2,4.2-2,6-1.5C1353.5,892.4,1353.7,897.9,1347,904.9z"
			/>
		<path d="M1389.2,1588c3.8-2.2,6.1-4.4,8.4-4.4c1.7,0,4.3,2.8,4.7,4.7c0.8,3.1-3.2,6.5-6.3,5.4
			C1394,1593,1392.4,1590.8,1389.2,1588z"/>
		<path d="M2211.2,879.7c-5.6,4-10.5,4.8-16.3,2C2201.6,873.8,2204.7,873.4,2211.2,879.7z"/>
		<path d="M2324.8,679.6c-3.9-9.2-2.4-11.7,7.4-13.9C2329.4,671,2327.1,675.3,2324.8,679.6z"/>
		<path d="M1510.7,1574.8c3.6-5,7.5-4.9,11.2-1.7c0.8,0.7,0.8,3.9-0.1,4.9C1519.5,1580.4,1516.1,1579.3,1510.7,1574.8z"/>
		<path d="M1410.2,1606.3c-8.5,3.6-10.6,2.7-14.1-5.5C1401.4,1600.7,1405.9,1601.3,1410.2,1606.3z"/>
		<path d="M2182.7,949.4c-4.4,3.1-8.2,3.1-12.3-0.2C2175.2,943.6,2176.1,943.7,2182.7,949.4z"/>
		<path d="M1484.8,1506.6c-2.2-2.3-3.6-3.7-5-5.1c1.5-1.4,2.9-3.8,4.5-3.8c1.6,0,3.3,2.2,5,3.4
			C1488,1502.5,1486.8,1504.1,1484.8,1506.6z"/>
		<path d="M1546.1,1443.2c4.2-3.2,7.9-1.4,12,0.4C1552.6,1449,1551.2,1448.9,1546.1,1443.2z"/>
		<path d="M2047.6,1108.5c-3.2,2-6.4,4-10.6,6.6C2038,1106.6,2038.6,1106.2,2047.6,1108.5z"/>
		<path d="M1367.8,1641.2c-3.2-3.7-4.5-5.2-5.7-6.7c1.4-1.1,2.9-3.3,4-3.1c1.7,0.3,4,2,4.5,3.6
			C1371.1,1636.3,1369.3,1638.3,1367.8,1641.2z"/>
		<path d="M1529.5,1568.4c9.9,0.8,10,1,5.8,8.6C1533.1,1573.8,1531.3,1571.1,1529.5,1568.4z"/>
		<path d="M1452.1,1235.5c-4.9,3.9-8,4.3-11.4,0.1C1444.2,1231.3,1447.3,1232.6,1452.1,1235.5z"/>
		<path d="M1896.5,1413.2c2.4,1.5,4.9,2.9,8.1,4.8c-6.3,2.8-6.3,2.8-9.3-3C1895.6,1414.4,1896,1413.8,1896.5,1413.2z"/>
		<path d="M1569.6,1492.2c1.1-5.5,3.3-6.9,7.7-6.1C1577.1,1490.8,1574.6,1491.8,1569.6,1492.2z"/>
		<path d="M1440.2,1258.3c-5,2.4-5,2.4-9.3,0.4C1433.5,1255.1,1436,1254.6,1440.2,1258.3z"/>
		<path d="M1975.9,1192.7c-2.7-2.9-3.7-4-4.7-5c1.1-0.8,2.3-2.4,3.3-2.3c1.1,0.2,2.4,1.8,2.8,3
			C1977.6,1189.4,1976.5,1190.8,1975.9,1192.7z"/>
		<path d="M1535.6,1418.9c2.1-1.2,3.5-2.7,4.4-2.4c1.1,0.3,2,2,2.4,3.3c0.1,0.5-1.8,2.2-2.4,2.1
			C1538.6,1421.6,1537.6,1420.4,1535.6,1418.9z"/>
		<path d="M1527.1,1267.1c-4.1,1.2-6.3,1.9-9.9,3C1520.5,1264.6,1520.5,1264.6,1527.1,1267.1z"/>
		<path d="M1505.1,1393.3c-1-1.7-2.2-2.8-2-3.7c0.2-0.9,1.8-2.1,2.6-2c0.9,0.1,2.1,1.6,2.2,2.5
			C1507.9,1391,1506.5,1391.9,1505.1,1393.3z"/>
		<path d="M1306.4,629.9c1.8-1,3.7-1.9,6.6-3.5c-0.2,5.4-2.7,5.6-5.4,5.5C1307.2,631.2,1306.8,630.5,1306.4,629.9z"/>
		<path d="M2152.4,992c-0.8,0.9-1.3,1.5-1.9,2.2c-0.8-0.7-1.6-1.4-2.4-2.1c0.6-0.6,1.2-1.5,1.9-1.6
			C2150.7,990.5,2151.4,991.4,2152.4,992z"/>
		<path d="M1442.2,1605.8c-1.5-0.2-3-0.5-4.4-0.8c0,0,0.2-1.6,0.3-1.6c1.5,0.1,3,0.3,4.4,0.5
			C1442.4,1604.6,1442.3,1605.2,1442.2,1605.8z"/>
		<path d="M2167.8,1000.7c-2-0.5-4-0.9-6-1.4c0.1-0.5,0.2-1,0.3-1.5c2,0.3,4,0.6,6,0.8C2168,999.4,2167.9,1000,2167.8,1000.7z"/>
		<path d="M1868.3,252.2c-0.4-0.3-0.8-0.7-1.2-1c0.6-0.4,1.2-0.9,1.8-1.3c0.3,0.5,0.8,1,0.7,1.4
			C1869.5,251.6,1868.8,251.9,1868.3,252.2z"/>
		<path d="M2011,1112.8c-0.5,0.3-1,0.9-1.5,0.9c-0.4,0-0.7-0.8-1.1-1.2c0.5-0.3,1-0.9,1.5-0.9
			C2010.2,1111.6,2010.6,1112.4,2011,1112.8z"/>
		<path d="M2099.5,1001.6c0.4-0.4,0.9-1.1,1.3-1c0.4,0.1,1.1,0.8,1.1,1.2c0,0.4-0.7,0.8-1.1,1.2
			C2100.4,1002.6,2100,1002.1,2099.5,1001.6z"/>
		<path d="M1954.4,1351.8c-0.9,0.3-1.7,0.7-2.5,0.7c-0.3,0-0.6-0.9-0.9-1.3c0.8-0.4,1.6-0.8,2.4-1
			C1953.6,1350.1,1954,1351,1954.4,1351.8z"/>
		<path d="M2166.1,977.4c-0.3-0.4-0.6-0.9-0.9-1.3c0.5-0.2,1-0.8,1.4-0.7c0.4,0.1,0.6,0.8,0.9,1.3
			C2167.1,976.9,2166.6,977.1,2166.1,977.4z"/>
		<path d="M1941.7,1310.9c-1-0.4-2-0.8-3-1.3c0.1-0.3,0.3-0.8,0.4-0.8c1,0.2,2.1,0.4,3.1,0.6
			C1942,1309.9,1941.9,1310.4,1941.7,1310.9z"/>
		<path d="M1972.1,1334.7c-0.1-0.6-0.2-1.2-0.1-1.7c0-0.2,0.7-0.5,0.8-0.5c0.4,0.4,0.6,0.9,0.9,1.3
			C1973.1,1334.1,1972.6,1334.4,1972.1,1334.7z"/>
		<path d="M1883.8,269.4c-0.2,0.2-0.3,0.5-0.5,0.7c-0.3-0.3-0.6-0.7-0.9-1c0.3-0.1,0.6-0.3,0.8-0.3
			C1883.4,268.8,1883.6,269.2,1883.8,269.4z"/>
		<path d="M2304.1,628.6c0,0.3,0,0.6,0,0.9c-0.4-0.2-0.9-0.3-1.3-0.5c0.2-0.2,0.3-0.6,0.6-0.6
			C2303.5,628.3,2303.8,628.5,2304.1,628.6z"/>
		<path d="M1582,1445.8c-0.3,0.1-0.5,0.3-0.8,0.4c-0.1-0.4-0.1-0.9-0.2-1.3c0.3,0,0.7,0,0.8,0.1
			C1582,1445.1,1582,1445.5,1582,1445.8z"/>
		<path d="M1433.6,1181.9c0.3-0.1,0.5-0.2,0.8-0.4c0.1,0.4,0.1,0.8,0.2,1.3c-0.3,0-0.7,0.1-0.8-0.1
			C1433.6,1182.5,1433.7,1182.1,1433.6,1181.9z"/>
		<path d="M1318.9,767.5c-0.1-0.3-0.1-0.6-0.2-0.8c0.5,0.1,0.9,0.1,1.4,0.2c-0.1,0.3-0.2,0.6-0.4,0.7
			C1319.6,767.7,1319.2,767.5,1318.9,767.5z"/>
		<path d="M1326.5,787.5c0-0.3-0.1-0.5-0.1-0.8c0.4,0,0.9,0.1,1.3,0.1c-0.1,0.3-0.2,0.6-0.4,0.7
			C1327.1,787.7,1326.8,787.6,1326.5,787.5z"/>
		<path d="M1449.8,1594.5c-0.2,0.2-0.3,0.5-0.5,0.7c-0.3-0.4-0.6-0.7-0.9-1.1c0.3-0.1,0.6-0.3,0.8-0.3
			C1449.4,1593.9,1449.6,1594.3,1449.8,1594.5z"/>
		<path d="M1356.8,1665.5c-0.2-0.1-0.4-0.3-0.7-0.4c0.3-0.3,0.6-0.5,0.9-0.8c0.1,0.2,0.3,0.5,0.3,0.7
			C1357.3,1665.1,1357,1665.3,1356.8,1665.5z"/>
		<path d="M1974.6,1243.9c-0.2-0.2-0.5-0.4-0.5-0.6c0-0.2,0.2-0.4,0.4-0.7c0.3,0.3,0.5,0.6,0.8,0.9
			C1975.1,1243.7,1974.8,1243.8,1974.6,1243.9z"/>
		<path d="M851.1,2766.8c5-3.9,11.2-3.5,17-3.6c1.4,0,4.2,3,4,4.4c-0.3,2.6-1.6,6-3.6,7.3C862.1,2778.7,855.2,2775.3,851.1,2766.8z"
			/>
		<path d="M901,2723.5c-1.5-2.3-3.4-3.8-3.3-5.2c0.1-1.2,2.3-2.3,3.6-3.4c1,1.5,2.6,2.9,2.9,4.5
			C904.5,2720.3,902.6,2721.6,901,2723.5z"/>
		<path d="M920.3,2713.5c-1.6,4.3-3.2,8.7-4.8,13c-3.4-6-2.7-10.7,2.4-14C918.7,2712.8,919.5,2713.2,920.3,2713.5z"/>
		<path d="M879.4,2719.8c-3.3,0.3-6.5,0.6-10.9,1C872.7,2714.8,872.7,2714.8,879.4,2719.8z"/>
		<path d="M928.7,2734.3c-0.3-2.6-0.6-5.2-1.2-9.8C933.5,2728.5,932.6,2731.2,928.7,2734.3z"/>
		<path d="M890.2,2771.1c-1.6,0.6-2.8,1.5-3.8,1.3c-0.7-0.1-1.1-1.7-1.7-2.6c1.1-0.4,2.2-1.1,3.4-1.2
			C888.6,2768.6,889.2,2769.8,890.2,2771.1z"/>
		<path d="M1103.8,2477.9c1.1-0.7,1.9-1.6,2.5-1.5c0.7,0.2,1.2,1.2,1.8,1.9c-0.6,0.6-1.3,1.6-1.9,1.5
			C1105.4,2479.8,1104.8,2478.8,1103.8,2477.9z"/>
		<path d="M923.8,2680.3c-0.7-1-1.6-1.8-1.5-2.4c0.1-0.6,1.1-1.1,1.8-1.6c0.5,0.6,1.5,1.2,1.5,1.9
			C925.7,2678.7,924.7,2679.4,923.8,2680.3z"/>
		<path d="M856.2,2754.2c-0.5-0.3-0.9-0.6-1.4-0.9c0.5-0.5,1-1,1.5-1.5c0.4,0.4,1,0.8,1,1.3C857.3,2753.5,856.6,2753.9,856.2,2754.2
			z"/>
		<polygon points="901.3,2671.9 900.9,2672.4 900.7,2671.8 		"/>
		<path d="M1476.9,1686.4c-1.9-2.8-3-4.5-4.1-6.2c1.9-1,3.7-2.8,5.6-2.9c1.2-0.1,3.8,2.8,3.5,3.5
			C1481.3,1682.6,1479.3,1683.9,1476.9,1686.4z"/>
		<path d="M1460.7,1703.8c-1.6,0.3-3.2,0.7-4.8,1c-0.2-0.5-0.3-1.1-0.5-1.6c1.6-0.6,3.2-1.2,4.8-1.8
			C1460.4,1702.2,1460.5,1703,1460.7,1703.8z"/>
		<path d="M1469.1,1720c-0.4-1.2-1.2-2.2-0.9-2.8c0.2-0.6,1.6-1.2,2.2-1c0.6,0.3,1.3,1.5,1.1,2.2
			C1471.3,1719,1470.1,1719.4,1469.1,1720z"/>
	</g>
</g>
</svg>
