<?xml version="1.0" encoding="utf-8"?>
<!-- Generator: Adobe Illustrator 19.1.0, SVG Export Plug-In . SVG Version: 6.00 Build 0)  -->
<svg version="1.1" id="Layer_1" xmlns="http://www.w3.org/2000/svg" xmlns:xlink="http://www.w3.org/1999/xlink" x="0px" y="0px"
	 viewBox="0 0 2448 3264" style="enable-background:new 0 0 2448 3264;" xml:space="preserve">
<style type="text/css">
	.st0{fill:#FFFFFF;}
</style>
<g>
	<g>
		<path class="st0" d="M-2,746c0-60.7,0-121.3,0-182c12.1,9.8,24.1,19.7,36.3,29.4c6.2,5,12.7,9.6,18.9,14.6c2,1.6,3.8,3.7,5.2,5.9
			c6.9,11,25,18.4,39.2,15.5c-0.9-2.9-1.7-5.8-2.6-8.8c13.1-3.3,15.3-6.2,15.1-19.4c0-2.3-0.2-4.7-0.9-6.9
			c-4.4-12.8-9.1-25.6-13.7-38.4c-0.5-1.5-1.7-3.8-2.8-3.9c-6.5-0.5-6.5-6.4-9.3-10.1c-5.4-6.9-8.1-13.5-1.3-22
			c-7.2-0.1-14.8,6.1-18.1-3.9l-0.1,0.1c4.2-0.9,8.5-1.6,12.7-2.6c4-0.9,7.4-3.7,6.3-7.6c-2.3-8.1,0.7-15.8,0.6-23.7
			c-0.3-16.9-0.5-33.8-1.1-50.7c-0.3-10.3-0.1-20.5,2.3-30.6c3.4-14.1,11.9-20.9,24.8-19.7c0.5,0,1-0.8,1.6-1.2c1-4-2.7-4.6-4.6-6.7
			c-2.7-3.1-6.4-6.5-7-10.3c-2.9-17.7-7.4-34.4-18.8-48.8c-3.5-4.4-3-10.4-0.2-13c2.7-2.6,8.5-2.2,12.2,3c7,9.6,17.1,14.7,26.5,20.7
			c7.1,4.5,14.7,8.3,25.1,10.2c-3.4-12.9-10.3-22-15.5-31.6c-6.3-11.6-14.5-22.1-21.9-33.1c-7.8-11.5-15.6-23.1-23.2-34.7
			c-0.9-1.3-0.8-3.2-1.2-4.6c4.9-1.9,7.7,5.8,12.6,1.1c-2.4-5.3-7.6-5.1-11.7-6.6c-8.5-3.2-9.6-7-3.8-13.6
			c6.2-7.1,4.7-14.3-3.8-18.3c-2.7-1.3-5.2-3.1-8.1-4.8c1.4-2,1.7-3,2.5-3.5c7.4-4.5,8.7-11.2,7.1-19.1c-0.5-2.2-0.1-4.5-0.1-6.8
			c0-4.5,0.1-9.1,0.1-13.6c0-2.3-0.8-4.6-0.5-6.9c1.2-11.2,4.1-22.3,3.7-33.4c-0.4-10.4-2-20.6-0.1-31.2c1-5.8-0.2-11.9,0.6-17.8
			c1-7.2,3.3-14.3,4.5-21.5c0.6-3.5,0.2-7.2-0.5-10.7C83.6,16.9,81.7,9.4,80,2c43.3,0,86.7,0,130,0c-0.6,7.6-1.4,15.1-1.8,22.7
			c-0.2,2.9,0.4,5.9,0.6,8.8c0.5,10.1,1.9,20.4-1.7,30.1c-1.9,5.1-1.4,8.6,2.2,12.6c5.4,6.1,4.6,11-2.3,15.6
			c-3.3,2.2-7.2,3.4-10.8,5.1c-8.2,3.9-10.2,8-8.5,16.7c0.7,3.6,2.4,7.6,1.4,10.7c-3.5,10.6,2.1,17.7,7.6,25
			c3.5-3.6,6.8-7,10.2-10.5c-0.5-0.8-1.3-1.9-1.7-3.1c-1.5-4.1,0.5-6.6,4.1-7.5c3.8-1,5.8,1.8,6,5c0.7,10.5,2.5,21-3.3,31.1
			c-2.3,4-3,9.5-2.8,14.3c0.1,4.7-0.5,8.9-1.7,13.5c-2.1,7.6-0.1,15.1,3.6,21.3c4.8-1,8.2-2.3,11.6-2.2c11,0.2,31.4-11.2,34.6-21.6
			c1.9-5.9,5.4-8.8,10-11.4c5.6-3.3,8.5-8.4,9.7-14.4c1.7-8.7-3.4-13.7-12.2-12.2c-1.6,0.3-3.3,0.6-4.9,0.3
			c-5.5-0.8-8.1,2.2-9.4,6.8c-1.3,4.8-2.1,9.8-3.5,14.5c-1.1,3.7-2.2,7.8-8,7.1c0-8.9-0.3-17.5,0.2-26.1c0.2-3,1.8-6.5,3.9-8.8
			c12.4-13.1,10.1-27.9,5.6-43c-0.5-1.5-1.5-3-2.6-4.2c-6.8-7.7-14.7-6.1-18,3.5c-2.1,6.2-3.8,12.4-5.7,18.7
			c-6.9-2.1-6.8-2.2-4.3-9.5c5.5-15.5,8.2-31.3,6.8-47.9c-0.8-9.5,0.9-19.1,1.4-28.7c0.5-10.8,3.9-21.7-2.2-32c36,0,72,0,108,0
			c-2,3.7-4.1,7.3-6.2,11.1c7.2,6.2,13.9,11.9,13.9,22.4c-7.3-0.9-11.9-3-14-9.3c-1-3-2.8-6-8.1-5.4c2.6,7.7,5,14.9,7.7,22.6
			c-3,1.4-5.9,2.7-9.5,4.4c4.9,9,10.1,16.5,20.7,18.1c4-7.3,7.6-14.3,11.5-21.1c3.1-5.4,6.6-10.5,9.7-15.9c1.2-2.1,2.7-5.2,1.9-6.9
			c-2-4.2,0.1-7,2-10.1c2.1-3.4,4.3-6.7,6.4-10c28.7,0,57.3,0,86,0c0,4.3-0.3,8.5,0,12.7c0.3,3.8,1.9,7.4,6.4,7.1
			c3.9-0.3,5.1-3.8,5.4-7.2c0.3-4.2,0.2-8.5,0.2-12.7c18,0,36,0,54,0c1.9,7.4,3.6,14.8,5.6,22.1c1.9,7,9.6,12.6,16.7,11
			c5.6-1.2,8.8,0.7,12,4.6c2.4,2.9,5.3,5.3,9,8.8c1-5.4,1.6-8.9,2.2-12.3c1.1-6,0.2-7.6-6.2-8.4c-5.1-0.6-8.5-2.7-10.6-7.4
			C557,16.4,560.2,8.9,564,2c5.3,0,10.7,0,16,0c1.8,5.1,3.7,10.2,5.5,15.2c-3.1-0.5-4.7-1.9-6-3.5c-2.2-2.6-4.5-6-8.1-3.3
			c-4.1,3-1.4,6.6,0.9,9.4c1.8,2.3,3.9,4.5,6.2,6.3c3,2.4,6.4,4.4,9.7,6.6c-0.6,0.5-1.1,1-1.7,1.5c4.1-1.9,8.2-3.8,12.9-6
			c-2.1-2.3-3.8-4-5.5-5.8c12.9-8.9,13.6-10.4,10-20.5c43.3,0,86.7,0,130,0c0.2,10.9,2.2,21.7-0.3,32.6c-0.4,1.8,0.5,3.9,0.7,5.8
			c0.6,4.6,1.4,9.1,1.6,13.7c0.8,14.9,1,29.8,2.5,44.6c0.5,5.7,0.1,10.2-2.7,12.8c1.8,7.1,3.2,12.7,4.6,18.4
			c-0.3,2.9-1.8,6.3,4.1,7.2c-1.2-2.9-2.1-5.1-3.1-7.3c11.5,5.9,5.7,11.6-0.8,17c1.7,2.6,3.1,4.8,4.3,6.7c-5,8.9-4.9,11.3,0.7,18.4
			c1.4,1.8,2.9,3.6,4.1,5.5c0.4,0.7-0.1,1.9-0.2,3.4c-2.6,0-5,0-8.5,0c0,3.4-1.2,7.9,0.2,8.9c5.6,4.1,4.6,13.5,12.7,15.4
			c0.8,0.2,1.1,2.1,2,3.8c-2.5,1-4.9,1.5-6.6,2.8c-2.3,1.7-4.7,3.7-6.1,6.1c-3,5.2-0.3,9.3,3,13.5c5.1,6.4,4.8,7.9-1.1,14.2
			c-0.7,0.7-1.1,1.6-1.3,2.1c1.6,5.1,4.8,10,4.1,14.3c-0.9,6.5,0.7,10.9,5.7,14.5c-1.3,2.4-2.3,4.4-2.9,5.5
			c3.8,2.9,7.2,5.3,10.5,7.9c6,4.7,12.8,7.3,20.3,6.6c6.8-0.7,6-7.9,9-12c0.3-0.4-0.1-1.2-0.3-2.5c-5.5-2.2-11.3-4.5-13-11.7
			c-0.4-1.8-3.5-2.9-5.1-4.5c-1.5-1.5-2.8-3.1-4.9-5.6c3.5-1.5,5.8-2.6,8.1-3.5c2.2-0.8,4.6-1,6.7-1.9c5.5-2.5,6.1-5.7,2.4-10.8
			c-0.8-1-1.5-2.1-2.1-2.9c4-11.9,4-11.9,11.4-11.3c0.9,6.6,3.5,10.1,9.4,9.9c5.9-0.1,11.4-1.1,16.9,2.4c2.8,1.7,5.7-0.7,6.5-4.2
			c0.6-3.1-0.6-5.6-4-5.3c-5,0.3-7.7-2.5-10.6-5.9c-2.3-2.6-5.7-4.3-8.5-6.4c-3.4-2-6.8-3.9-10.2-6c-9.7-6.1-13-4.6-14.8,6.8
			c-0.1,0.5-0.9,0.8-1.9,1.7c-1.6-1.3-3.6-2.5-5-4.1c-2.6-3.1-4.9-6.5-2.7-10.9c2.1-4.3,5.9-4.9,10.1-4.6
			c12.2,0.7,21.5-7.7,32.7-10.5c1.9-0.5,4.1-5.6,3.6-8.1c-0.8-4.1-5.1-3.4-8.3-2.7c-3.4,0.8-6.7,2-11.8,3.6c1.7-3.7,2.6-5.7,3.6-7.6
			c1.5-2.9,3.8-5.6,4.6-8.7c2.1-7.5,6.3-11.4,14.4-10.7c2.6,0.2,5.5,0.1,5.6-4.2c-1.1-0.5-2.3-1.1-3.5-1.4c-2.6-0.5-5.6-0.1-7.7-1.3
			c-2-1.1-3-3.8-4.5-5.8c1.7-1.2,3.4-2.6,5.2-3.5c1.4-0.7,3.8-0.1,4.7-1.1c1.3-1.5,2.3-3.9,2.2-5.9c-0.1-1-2.9-2.5-4.5-2.5
			c-8.4,0-8.4,0.1-11.4-7.6c-0.5-1.2-1.4-2.3-2.1-3.4c0,0,0.1,0.1,0.1,0.1c3.7-1.6,7.5-3.2,10.4-4.4c-2.2-6-4.2-11.4-6.3-17.2
			c-1.9-0.7-4.5-1.6-7.1-2.5c2.6-11.6,2.6-11.5-6.9-17.9c-1.6-1.1-2.6-3.1-3.5-4.2c3.6-1.4,7.5-1.8,8.9-3.8c2.5-3.7-0.8-7.3-3.5-9.4
			c-5.5-4.3-11.7-7.8-17.7-11.8c-0.1,0.2,0-0.6,0.5-0.9c5.7-4.2,5.7-11.1,7.9-16.8c1.9-4.8-4.2-6.3-5.3-9.8
			c-1.3-3.9-0.5-8.7-2.2-12.3C775.4,7.3,768,8.3,768,2c12.7,0,25.3,0,38,0c1,3.7,1.7,7.8,8,7.9c0-2.9,0-5.4,0-7.9c3.3,0,6.7,0,10,0
			c0,4,0,8,0,12c-3.4,8.4-2.8,9.6,4.9,10.6c1.5-5.1-3.2-7.3-5-10.7c4.9-2.6,8.7-1.7,12.2,2.8c3.4,4.4,8.4,7.2,9.8,13.5
			c0.6,2.6,4.2,4.8,6.8,6.7c1.8,1.3,4.8,1.4,6.2,2.9c2.4,2.6,4.7,5.8,5.4,9.1c0.4,1.7-2.8,4.2-5.6,8c-2.1-7.2-5.2-11-11-10.5
			c-3.8,0.3-5.9,2.8-5.3,6.8c12.7,7.7,24.8,15.5,27.2,32.4c3.1-1.6,5.6-2.9,8-4.2c-4.2-8.9-4.4-11.2,1.3-14.1
			c5.6-2.8,7.7-7.1,8.3-15.1c5,7.2,8.6,12.4,12.1,17.4c8.1,2.2,14.1-4,22-6.1c-0.8,3-1.4,4.8-1.8,6.8c-1.6,8.7-1.6,8.6-9.9,10.4
			c-2,0.4-3.8,1.6-6.4,2.8c5.1,5.5,13-0.1,16.6,6.6c2.8,5.2,6.5,9.8,10.3,15.4c-8.7,3.8-15,8.9-20,17.3c2.7,0,4.6,0.6,5.7-0.1
			c5.6-3.5,11.3-7,16.4-11.2c1.9-1.6,3.1-5,3.1-7.6c0-5.1,0.2-9.8,5.1-14.9c1.6,3.4,2.9,5.9,4,8.4c1.3,3.2,3.3,4.8,6.8,4.7
			c5.9-0.1,9.1-3.3,10.6-11.2c-2.7,0.7-5.1,1.2-7.8,1.9c-2.7-6-6.7-11.8-4.2-18.1c2.7-6.9,1.5-12.9-0.7-19.4
			c-0.9-2.7-1.2-5.8-1.2-8.8c-0.1-6.7-1-8.1-7.3-9.7c-2.6-0.6-5.3-1.1-10.1-2.1c6.2-3.8,10.3-6.3,14.2-8.6c-0.9-5-5.6-9.8,0-12.4
			c3.5-1.7,8.5-0.3,13.1-0.3c1.7-6.9-5-7.9-7.7-11.5c8,0,16,0,24,0c2.7,2.6,5.3,2.6,8,0c8.7,0,17.3,0,26,0c2.7,3.1,5.3,3.1,8,0
			c7.3,0,14.7,0,22,0c2.7,2.5,5.3,3.3,8,0c2.7,0,5.3,0,8,0c4,6.5,4.4,6.5,8,0c461.3,0,922.7,0,1384,0c0,1088,0,2176,0,3264
			c-816,0-1632,0-2448,0c0-608,0-1216,0-1824c2.3-6.9,6.5-13.8,6.6-20.7c0.1-9.1,3.5-16.7,6.3-24.8c4.8-14,8.4-28.5,13.3-42.5
			c7-19.8,11.6-40.1,15.1-60.8c2.5-14.7,6.7-29.2,10.3-43.8c2.8-11.3,2.8-22.1-0.8-33.4c-5.5-17.1-9.8-34.6-14.4-51.9
			c-5.1-19-8.8-38.4-19.1-55.5c-1.2-2.1-1.4-4.8-2.1-7.3c16.9-3.7,29.7,1.1,37.6,14.3c6.5,10.8,11.9,22.2,18,33.3
			c2.1,3.8,2.8,9,8.2,10.4c0.9-1,2-1.6,2.2-2.4c5.4-20.2,10.7-40.3,16-60.5c1.3-5.1,3.2-10.1,3.9-15.3c0.7-5.1,2.3-11.6,0-15.2
			c-3.6-5.5-10.1-9.2-15.6-13.2c-0.9-0.7-3.2,0.1-4.8,0.7c-1.9,0.7-3.6,1.8-5.3,2.7c-9.3,4.7-12.3,2.8-13.3-7.8
			c-0.6-6.6-1.1-13.3-2.6-19.8c-4.4-19.4-0.5-35.9,15.2-49.5c8.5,3.5,13.8-1.3,18.5-7.4c2.6-3.4,4.5-7.5,7.5-10.5
			c4.1-4.1,4.5-8.2,3.4-13.6c-2.8-12.7-5.3-25.5-7.3-38.3c-3.2-20.7-0.5-41.1,4.6-61.2c0.1-0.5,1-0.7,1.5-1
			c3.4,1.1,6.8,2.8,10.2,3.3c6,0.9,2.7-5.6,5-7.7c8.1,4.2,8.1,4.2,5.2,11.9c-3.5,9.4-1.8,14.1,7,18.9c2.3,1.2,4.7,2.2,7.1,3.3
			c-4.5,9.7-1.1,21.1,8.8,29.1c5.9-7.5,1.4-17,5.8-24.1c-1.5-1.2-2.2-1.9-3-2.5c-7.6-6.3-6.9-10.3,2.2-13.8c3-1.2,6.2-2.6,8.5-4.8
			c1.2-1.1,1.7-5,0.8-6.1c-3.7-4.5-7.5-9.7-12.5-12.2c-8.3-4.2-9-10.4-8.3-18.6c5,0,9.5,0,14,0c1.1-5.5-0.3-9.4-4.7-11.6
			c-7.8-3.8-13,1.3-17.6,6.8c-7.9-7.3-10.2-14.9-7.2-24.8c4.4-14.7,7.6-29.7,11.5-44.5c1.7-6.2,2.6-12.4,0.6-18.7
			c-1.1-3.5-0.6-6.7,2.9-8.6c4.8-2.6,5.6-6.8,5.6-11.8c0-3.9,1.4-7.7,2.5-11.5c1-3.5,2.6-6.9,3.4-10.4c3.3-14.6,5.7-29.4,11.4-43.3
			c1.4-3.4,2.7-7.1,2.5-10.6c-0.9-14,8.5-26.6,5-40.9c-0.5-1.9,1.3-4.4,1.8-6.7c0.8-3.2,1.6-6.5,1.9-9.7c0.8-7.6,1.3-15.2,2-22.8
			c0.8-7.9,3.1-10.3,11-11.7c2.6-0.5,5.3-0.5,7.9-0.9c4.7-0.7,7-3.7,6.9-8.3c-0.1-3,0.1-6.6-1.5-8.7c-3.8-4.8-3-9.6-1-14.8
			c-1.7-0.4-2.6-0.7-3.5-0.8c-7.4-1.2-9.3-3.3-8.3-10.3c0.3-2.3,1.2-4.5,1.7-6.8c1.7-8.5,3.6-16.9,4.9-25.5
			c1.2-7.8,1.8-15.8,2.7-23.7c1.7-15.8-0.4-31.9,4.5-47.4c-2.8-8.5,0.7-16.4,2-24.5c3.2-21,4.7-42.5,10.1-62.9
			c5.2-19.6,1.3-39.7,6.6-59c0.4-1.5,0.3-3.8-0.5-4.7c-1.9-2-4.3-4.4-6.8-4.8c-3.5-0.6-4.9,2.6-5.4,5.8c-2,11.4-4.1,22.7-6.1,34.1
			c-0.8,4.5-1.6,9.1-2.3,13.5c-16.7,7.9-20.9,17.4-14.3,31.9c2.1,0.2,4.3,0.3,7.4,0.6c0,8-0.4,15.7,0.1,23.3
			c0.4,6.2-0.1,11.7-4.2,16.8c-1.9,2.4-2.7,6.1-3.1,9.3c-1,8.9-3.1,18.1-1.9,26.7c2.4,17.2-7.7,33-4.3,50c0.3,1.7-1.1,3.8-1.7,5.6
			c-0.7,2.2-1.8,4.3-2.2,6.6c-2.8,15.6-5.4,31.3-8.1,46.9c-0.3,1.6-0.8,3.6-1.9,4.5c-7.2,5.4-3.8,15.4-11,21.3
			c3.2,0.8,4.8,1,6.3,1.6c9.4,3.8,10.7,8.4,5,16.8c-2,3-4.2,6.2-5.2,9.6c-1.5,5-2,10.4-3.1,15.6c-2,9.1-5.2,18.1-5.8,27.2
			c-0.7,11-4.3,20.7-8.5,30.6c-1.7,3.9-2.9,8.1-3.8,12.3c-1.4,6.5-2.5,13.1-3.6,19.6c-1.4,8.2-2.6,16.4-3.8,24.5
			c-1.5,10.2-2.2,20.5-4.3,30.6c-2.8,13.7-6.4,27.2-10.1,40.7c-4.3,16.1-8.8,32.1-13.5,48.1c-2.3,8-6,11.5-10,10.6
			c-4.1-0.9-7.1-7.5-6.6-14.4c0-0.3,0.1-0.7,0.1-1c3.5-14.8-1.1-27.6-10.5-38.9c-3.1-3.8-3.3-7.4-2.5-12c1.1-6.5,2.5-13.4,1.5-19.7
			c-2.3-16.3,11.7-25.5,22.4-26.5c5.2-0.5,10.4-0.8,16.2-1.2c1.9-7.1,4.7-14,5.4-21.2c1.6-15.8-0.7-27.3-18.7-34.1
			c-8.5-3.2-16.9-0.4-21.5,7.5c-1.7,2.9-2.5,6.2-4.2,9c-5.5,8.7-11,17.4-17,25.6c-3.3,4.5-7.7,8.3-11.6,12.3
			c-4.2,4.4-5.2,9-1.9,14.5c1.6,2.7,4.1,5.6-0.4,9.7c-3.4-3.1-6.9-6.2-10-9C19.7,732.1,8.9,739-2,746z M117.3,213.5
			c-0.7,11.1,2.3,13.9,11.5,11.3c13.7-4,24.9-12.7,35.2-22c7.6-6.8,13.3-15.7,19.7-23.7c3.9-4.9,3.4-9.1-1.6-11.7
			c-9-4.7-16.3-11.3-23.2-18.6c-4.3-4.6-7.8-4.4-11.3,0.9c-3.6,5.5-8.1,11.3-9.4,17.5c-1.6,8-6.1,13.8-10.1,20.2
			C122.6,195.8,118.9,205,117.3,213.5z M516.3,54.4c-0.9-4.4-1.7-8.1-3-14.2c-4,4.3-6.5,6.7-8.6,9.3c-2.2,2.8-3.9,6-6.3,8.8
			c-5.3,6.3-11.5,12-9.6,21.5c0.2,1.1-0.5,2.6-1.3,3.7c-4,5.4-1.7,9,4.1,11.7c-9.7,11.1,0.3,18.8,2.7,29c2.8-5.9,5-10.3,6.8-14.8
			c0.8-2.1,1.6-4.6,1.1-6.7c-2-8,0.1-15.2,3.6-22.1c3.7-7,5.9-14,2.1-21.8C510.7,57.5,513,56.2,516.3,54.4z M349.7,304.3
			c-9.7-6.6-13.8-8.2-16.5-4.8c-5.9,7.3-13.4,6-20,5.6c-4.3-4.3-7.8-8.1-11.7-11.5c-5.6-4.9-20.4-2.1-23.8,4.5
			c-1.6,3-2.2,6.2,3,10.8c1.4-2.8,2.6-5.2,4.6-9.3c0.5,5.6,0.7,8.7,1,12.3c6-0.8,11.2-1.5,16.4-2.2c6.8-0.9,8.9,6,12.2,8
			c7.7-1.7,13.9-3.1,20.4-4.5c0.8-2.6,1.6-5.3,2.4-8.2C341.3,304.8,344.5,304.6,349.7,304.3z M549.1,158.2
			c-20.8,10.8-39.2,48.2-30.5,70.5c-0.3-14.2,9.6-6.9,15.6-9.9c-7.6-6.9-4.8-12.6,0.9-17.5c-4.3-9.9-3.4-9.1,3.3-16.9
			c5.1-5.9,7.7-14.1,11.2-21.4C549.9,162,549.3,160.5,549.1,158.2z M423.3,373.5c2.3-2,4.1-2.8,4.4-4c2.2-8,4-16,5.9-24
			c0.2-0.9-0.2-2.1-0.7-2.8c-3.8-4.8-2.1-9,0.5-13.7c2.5-4.7,0.9-11.8-2.9-14.5c-1.5-1.1-5.5-1.6-6-0.9c-2.8,4-6.6,8.5-6.6,12.9
			c0,6.5,5.1,13-0.5,19.5c-0.1,0.1,0.1,0.6,0.2,1c2.2,1.7,4.4,3.5,7.1,5.6C418.5,359.1,422.8,365.6,423.3,373.5z M266.4,143.2
			c5.1,1.8,9.6,1.2,11.7-2.2c3.4-5.7,8.1-6.6,13.9-5.4c1.2-5.8,3.6-10.9-1.7-15.8c-3.7,1.9-7.3,3.7-11.9,6.1
			c-0.5-4.4-0.9-7.8-1.3-11.6c-3.6,1.1-6.6,1.9-11.1,3.3C275,126.5,267,134.4,266.4,143.2z M755,326.8c0.5,0.3,0.9,0.7,1.4,1
			c2.6-1.7,5.1-3.4,7.6-5c11.6,11.7,17,9.1,23,0.5c-0.1-0.3-0.1-0.7-0.3-0.9c-5.9-7.2-15.2-5.6-22.8-8.3c-1.1-0.4-3.9,1.4-4.7,2.9
			C757.4,320,756.4,323.5,755,326.8z M759.8,391.2c5.3-9.1,12.7-17.6,5.2-29.1c-3.3-5.2-4.2-5.7-10.3-0.4
			C765.1,370.1,754.9,381.5,759.8,391.2z M897,101.1c0.5-9-5.7-23.3-11.7-26.9C882.1,88,887.2,99.8,897,101.1z M801.1,351.4
			c3.4-9.3,2.7-18-0.2-27.3c-10.1,3.5-5.2,12.1-6.9,17.9C792.7,346.3,795.7,349.9,801.1,351.4z M795.2,316.6
			c0.8-0.1,1.6-0.1,2.4-0.2c1.2-1.7,3.7-4.3,3.3-5.1c-1.8-2.9-4.1-6.5-7-7.4c-5-1.5-10.5-1.2-15.9-1.7
			C783.9,307.2,793.2,306.6,795.2,316.6z M934.9,180.8c12.4-7.2,18.5-14.7,6-24.2C946.8,166.4,937.8,172.2,934.9,180.8z M823,215.6
			c-7.5-8-12-9.3-18.5-5.3C809.6,215.6,815.3,217.6,823,215.6z M132.2,94.5c-0.8-6.1-1.4-10.8-2-16.1c-3.4,1.2-6,2.2-9,3.3
			C123.2,87.3,124.3,92.7,132.2,94.5z M429.6,308.9c2.8-3.3,4.7-5.4,6.6-7.6c-1.6-1.3-3-3.4-4.8-3.7c-3.2-0.5-7.1,0.1-7,4.5
			C424.5,303.9,427.1,305.7,429.6,308.9z M773.9,349.8c-6.9-5.4-14.2-8.6-17.6-7.9c-1.3,0.3-2.3,1.8-4,3.3
			C758.6,349.9,765,349.6,773.9,349.8z M764,300.1c-5.4-2.1-10.2-3.9-16.5-6.3C753.3,304.8,757.3,306.2,764,300.1z M321.7,418.6
			c-3.7-2.1-6.1-3.9-8.8-4.9c-0.7-0.2-3.1,2.3-3.3,3.8c-0.4,3.1,3.5,6.2,6.7,5.5C317.8,422.7,319,420.9,321.7,418.6z M239.2,82.9
			c5.5,2.1,9.7,3.8,15,5.8C250.4,77.7,247.6,76.6,239.2,82.9z M328.9,371c-2.6-1.5-3.8-2.7-4.8-2.6c-2,0.2-4.1,1-6,1.8
			c-0.3,0.1-0.3,2.4,0.1,2.5c1.9,0.8,4,1.7,6,1.7C325.3,374.5,326.5,372.9,328.9,371z M955.7,119.7c-0.8-3.8-1.3-7.5-6.3-6.7
			c-1.2,0.2-3.1,3.2-2.7,4.3C948,121.7,951.3,121.8,955.7,119.7z M801.8,274.1c3.1-3,6.1-5.2,3.2-9.4c-0.5-0.8-2.8-1.3-3.4-0.8
			C798,266.5,798,269.7,801.8,274.1z M801.7,285.1c-3,7.6-3,9.7-0.3,11.5c1.1,0.7,3.4,0.9,4.3,0.3c0.8-0.6,1.2-3,0.7-4.2
			C805.4,290.4,803.7,288.3,801.7,285.1z M324.5,73.9c-4.8,3-4.5,6.1-1.6,10.3C327.9,81.1,328.3,78.1,324.5,73.9z M915.5,94.9
			c-2,2.8-3.3,5.2,0.2,7.4c0.6,0.4,2.2,0.1,2.6-0.5C920.3,98.7,919,96.6,915.5,94.9z M565.1,152.8c-4.4,4.7-4.7,7.3-0.9,9.6
			c0.5,0.3,1.7-0.3,3.2-0.6C566.7,159.2,566.1,156.9,565.1,152.8z M808,247c-4.2-0.1-6.4,1.2-7,5.5C805.6,253.1,807.5,251.5,808,247
			z M548.7,97.9c-1.7-0.9-3.1-2.1-3.6-1.8c-1.2,0.6-2,2-3,3.1c1.1,0.8,2.3,2.5,3.1,2.3C546.4,101.2,547.2,99.5,548.7,97.9z
			 M177.3,27.8c0.7-0.6,1.3-1.1,2-1.7c0.1-3.3-1.2-5.3-7-5.5C174.6,23.9,175.9,25.8,177.3,27.8z M820.5,311.7
			c-0.9-0.2-1.8-0.3-2.7-0.5c0,1.8,0,3.7,0,5.5c0.6,0.1,1.2,0.1,1.8,0.2C819.9,315.2,820.2,313.5,820.5,311.7z M133.4,525.7
			c1.2,1,2,2,2.5,1.9c1.1-0.3,2.1-1.2,3.1-1.9c-0.7-0.8-1.5-2.2-2.2-2.2C135.8,523.6,134.9,524.7,133.4,525.7z M280.2,148
			c0.7,0.7,1.5,1.4,2.2,2.1c1.3-1.6,2.5-3.1,3.8-4.7c-0.6-0.5-1.2-1.1-1.7-1.6C283.1,145.2,281.7,146.6,280.2,148z M816.5,174.5
			c4.3,0.7,5.7-1.1,6.2-4.9C818.7,169.4,816.5,170.2,816.5,174.5z M786.8,375.6c-0.9,0.7-2,1.2-2.1,1.8c-0.2,0.7,0.6,1.5,0.9,2.3
			c0.9-0.5,1.9-1,2.6-1.7C788.3,377.8,787.4,376.7,786.8,375.6z M157.6,88.2c0.3,0.7,0.6,1.5,0.9,2.2c2.3-0.2,5.2,0.5,4.2-5
			C160.7,86.5,159.1,87.4,157.6,88.2z M838.2,30c-4.1,3.1-5.3,5-1.7,8.3c1-1.3,1.9-2.2,2.2-3.2C838.9,33.9,838.4,32.7,838.2,30z
			 M268,99.4c-0.3,0.7-0.7,1.5-1,2.2c2.3,1,4.5,2,6.8,3c0.3-0.7,0.6-1.4,1-2.1C272.5,101.5,270.3,100.4,268,99.4z M108.1,68.2
			c1.1-1.3,2.2-2.2,2.1-2.6c-0.3-1.1-1.3-1.9-2-2.8c-0.6,0.6-1.8,1.2-1.8,1.7C106.5,65.5,107.3,66.5,108.1,68.2z M874.1,98.1
			c0.8-0.9,1.8-1.6,1.7-2.1c-0.2-0.7-1-1.7-1.7-1.9c-0.4-0.1-1.7,1-1.7,1.5C872.4,96.4,873.3,97.1,874.1,98.1z M842.2,338.2
			c0.7-1.5,1.5-2.4,1.6-3.4c0-0.5-1.2-1.1-1.8-1.7c-0.7,0.9-1.6,1.7-1.9,2.7C840,336.2,841.1,337,842.2,338.2z M822.6,294
			c0.8-0.9,1.8-1.5,1.7-2.1c-0.1-0.7-0.9-1.6-1.6-1.8c-0.4-0.1-1.7,0.9-1.7,1.5C821,292.2,821.8,292.9,822.6,294z M180.7,54.3
			c1.2-1,2.4-1.9,2.3-2.1c-0.5-1-1.2-1.9-2.1-2.5c-0.3-0.2-2,1-1.9,1.4C179.2,52.1,179.9,53,180.7,54.3z M346.8,375.6
			c1.3-1.5,2.3-2.3,2.8-3.3c0.1-0.3-1.1-1.8-1.5-1.7c-0.8,0.2-1.7,0.9-2,1.7C345.8,372.9,346.3,373.9,346.8,375.6z M813,344.2
			c1-1.3,2.2-2.3,2-2.5c-0.6-0.9-1.4-1.7-2.4-2.1c-0.3-0.1-1.8,1.2-1.7,1.7C811.2,342.2,812.1,343,813,344.2z M147.9,112.2
			c-1.2,2.5-2,3.4-1.8,3.9c0.2,0.7,1.2,1.1,1.9,1.6c0.5-0.7,1.2-1.4,1.3-2.1C149.3,114.8,148.6,114,147.9,112.2z M126.4,66.2
			c0.9,1,1.3,2,2,2.1c0.7,0.1,1.5-0.6,2.3-0.9c-0.5-0.7-0.8-1.7-1.4-1.9C128.6,65.2,127.7,65.8,126.4,66.2z M588,49.3
			c0.9-1.5,1.8-2.4,1.9-3.4c0.1-0.6-0.9-1.4-1.4-2c-0.7,0.8-1.7,1.6-2.1,2.5C586.2,46.9,587.2,47.8,588,49.3z M746.1,312
			c-0.7,1.3-1.2,1.9-1.4,2.7c-0.1,0.4,0.9,1.4,1.1,1.3c0.7-0.3,1.8-0.8,1.9-1.4C747.7,314,746.9,313.2,746.1,312z M834.5,252.8
			c0.3,0.5,0.4,1.3,0.8,1.4c0.4,0.2,1.1-0.2,1.6-0.3c-0.3-0.7-0.7-1.4-1-2.1C835.5,252.2,835,252.5,834.5,252.8z M821.5,198
			c1.3,1.3,2.2,2,3,2.8c0.5-0.7,1.4-1.4,1.3-2c-0.1-0.8-0.9-1.7-1.6-2.1C823.8,196.5,822.9,197.3,821.5,198z M956.4,25.7
			c-0.5-0.3-1-0.9-1.4-0.8c-0.4,0.1-0.7,0.8-1.1,1.3c0.6,0.4,1.3,0.7,1.9,1.1C956,26.8,956.2,26.3,956.4,25.7z M783.3,363.5
			c0.3-0.5,0.8-1,0.7-1.5c-0.1-0.5-0.8-0.8-1.2-1.2c-0.4,0.7-0.7,1.3-1.1,2C782.3,363.1,782.8,363.3,783.3,363.5z M365.8,529.5
			c-0.4-0.4-0.9-0.7-1.3-1.1c-0.4,0.5-1,1-1,1.5c0,0.4,0.8,0.7,1.2,1.1C365.1,530.5,365.5,530,365.8,529.5z M843.6,198.1
			c-0.4,0.7-0.8,1.4-1.2,2.2c0.7,0.3,1.4,0.7,2.1,1c0.3-0.8,0.7-1.5,0.9-2.3C845.3,198.8,844.4,198.5,843.6,198.1z M119.7,73.3
			c0.3-0.9,0.7-1.8,0.8-2.6c0-0.2-0.9-0.6-1.4-0.9c-0.4,0.8-0.8,1.6-1,2.5C118,72.4,118.9,72.8,119.7,73.3z M882.6,109.4
			c0.7-2.9,1.1-3.7,1-4.4c0-0.4-1.1-1.2-1.2-1c-0.6,0.4-1.5,1-1.5,1.6C880.9,106.3,881.6,107.1,882.6,109.4z M103.9,257.1
			c1.2-1.9,1.8-2.7,1.7-2.8c-0.6-0.6-1.3-1.1-2-1.6c-0.3,0.5-0.9,1-0.8,1.4C102.9,255,103.4,255.8,103.9,257.1z M463.2,34.6
			c-0.3,0.5-0.8,1-0.8,1.4c0.1,0.4,0.9,0.6,1.3,0.9c0.3-0.5,0.9-1,0.8-1.4C464.4,35.1,463.7,34.9,463.2,34.6z M372.9,391.8
			c0.3-0.4,1-0.9,1-1.3c0-0.4-0.7-0.8-1.1-1.2c-0.3,0.4-1,0.9-0.9,1.3C371.8,391.1,372.4,391.4,372.9,391.8z M563.5,88
			c0.6-0.8,1.3-1.3,1.6-2.1c0.1-0.3-0.4-1-0.6-1.5c-0.6,0.6-1.3,1.1-1.8,1.8C562.5,86.5,563.1,87.2,563.5,88z M347.6,317.8
			c-0.4-0.4-0.7-0.8-1.1-1.2c-0.4,0.4-1,0.8-1,1.2c0,0.4,0.6,0.8,1,1.2C346.8,318.7,347.2,318.3,347.6,317.8z M523.4,53.5
			c0.2-0.2,0.5-0.5,0.5-0.7c0-0.2-0.3-0.5-0.5-0.7c-0.3,0.4-0.6,0.8-0.9,1.2C522.9,53.3,523.1,53.4,523.4,53.5z M142.1,98.8
			c0.2-0.5,0.7-1.1,0.5-1.4c-0.2-0.4-0.9-0.6-1.3-0.8c-0.2,0.5-0.7,1.1-0.5,1.4C140.9,98.3,141.6,98.5,142.1,98.8z M848.6,235.6
			c0.4-0.4,1-0.7,1-1.1c0-0.4-0.6-0.8-0.9-1.2c-0.4,0.4-1,0.7-1,1.1C847.6,234.8,848.2,235.2,848.6,235.6z M963.8,61.7
			c0.4,0.3,0.8,0.9,1.2,0.9c0.4,0,0.8-0.6,1.2-0.9c-0.4-0.3-0.8-0.9-1.2-0.9C964.6,60.8,964.2,61.4,963.8,61.7z M19.7,1760.2
			c-0.5-0.3-1-0.6-1.6-0.9c-0.1,0.6-0.2,1.1-0.2,1.7c0,0.2,0.7,0.5,0.8,0.5C19.1,1761.1,19.4,1760.7,19.7,1760.2z M266.9,299.9
			c0.1-0.6,0.2-1.1,0.2-1.7c0-0.2-0.7-0.5-0.8-0.5c-0.4,0.4-0.7,0.8-1,1.3C265.9,299.3,266.4,299.6,266.9,299.9z M787.2,263.2
			c0.1-0.5,0.3-1.1,0.4-1.6c-0.5,0-1.1-0.1-1.6-0.1c-0.1,0-0.3,0.7-0.2,0.8C786.2,262.7,786.7,262.9,787.2,263.2z M825.9,258.3
			c-0.3-0.4-0.6-0.9-0.9-1.3c0-0.1-0.7,0.3-0.7,0.4c0,0.5,0.1,1.1,0.2,1.6C824.9,258.9,825.4,258.6,825.9,258.3z M197.2,41.2
			c0.3,0.4,0.7,0.9,1,1.3c0.3-0.4,1-1,0.9-1.2c-0.3-0.6-0.9-1.1-1.4-1.7C197.6,40.1,197.4,40.6,197.2,41.2z M961.5,204.7
			c-0.2-0.2-0.3-0.5-0.5-0.5c-0.2,0-0.5,0.2-0.7,0.3c0.2,0.3,0.5,0.6,0.7,0.9C961.2,205.1,961.4,204.9,961.5,204.7z M959.6,159.3
			c0.1-0.2,0.2-0.5,0.3-0.7c-0.4,0-0.9,0-1.3,0c0.1,0.3,0.1,0.6,0.2,0.7C959,159.4,959.3,159.3,959.6,159.3z M551.7,48.8l0.2,0.6
			l0.4-0.5L551.7,48.8z M547.8,216.6c0.3-0.1,0.6-0.1,0.7-0.3c0.1-0.2,0-0.5-0.1-0.7c-0.4,0.2-0.8,0.3-1.2,0.5
			C547.5,216.2,547.6,216.4,547.8,216.6z M949.7,186.8l0.2,0.6l0.4-0.5L949.7,186.8z M893.8,129.1c0-0.3,0-0.6-0.2-0.7
			c-0.2-0.1-0.5-0.1-0.8-0.1c0.1,0.4,0.1,0.8,0.2,1.2C893.4,129.3,893.6,129.2,893.8,129.1z M865.9,266.9c0.1-0.2,0.3-0.5,0.3-0.7
			c-0.1-0.2-0.4-0.3-0.6-0.4c-0.1,0.3-0.3,0.7-0.4,1C865.4,266.8,865.6,266.9,865.9,266.9z M817.2,267.7l-0.6,0.2l0.5,0.4
			L817.2,267.7z M821.8,359.9c0.4-0.3,0.8-0.6,1.2-0.9c0,0-0.3-0.6-0.4-0.6c-0.5,0-1,0.2-1.5,0.2C821.3,359,821.5,359.4,821.8,359.9
			z M307.5,385.2c-0.2-0.2-0.3-0.5-0.5-0.5c-0.2,0-0.5,0.2-0.7,0.3c0.3,0.3,0.5,0.6,0.8,0.9C307.2,385.6,307.3,385.4,307.5,385.2z
			 M277.1,47.4c0.2-0.1,0.5-0.2,0.7-0.3c-0.3-0.3-0.6-0.6-0.8-0.9c-0.1,0.2-0.4,0.5-0.4,0.7C276.6,47,276.9,47.2,277.1,47.4z
			 M259.3,71.9c0.2-0.2,0.5-0.3,0.6-0.5c0-0.2-0.2-0.5-0.3-0.7c-0.3,0.3-0.6,0.5-0.9,0.8C258.8,71.6,259.1,71.8,259.3,71.9z
			 M838,175c-0.3,0.1-0.5,0.1-0.8,0.2c0.2,0.4,0.4,0.7,0.5,1.1c0.2-0.2,0.5-0.4,0.5-0.6C838.3,175.5,838.1,175.2,838,175z"/>
		<path d="M-2,746c10.9-7,21.7-13.9,33.1-21.2c3.1,2.8,6.6,5.9,10,9c4.5-4.1,2-7,0.4-9.7c-3.3-5.4-2.3-10.1,1.9-14.5
			c3.9-4.1,8.3-7.8,11.6-12.3c6-8.3,11.5-17,17-25.6c1.8-2.8,2.6-6.2,4.2-9c4.6-7.9,13-10.7,21.5-7.5c18,6.8,20.3,18.3,18.7,34.1
			c-0.7,7.2-3.5,14.1-5.4,21.2c-5.7,0.4-11,0.7-16.2,1.2c-10.7,1-24.8,10.2-22.4,26.5c0.9,6.4-0.4,13.2-1.5,19.7
			c-0.8,4.6-0.6,8.3,2.5,12c9.4,11.3,14,24.1,10.5,38.9c-0.1,0.3-0.1,0.7-0.1,1c-0.5,6.9,2.5,13.5,6.6,14.4c4,0.9,7.7-2.7,10-10.6
			c4.7-16,9.2-32,13.5-48.1c3.6-13.5,7.2-27,10.1-40.7c2.1-10.1,2.9-20.4,4.3-30.6c1.2-8.2,2.5-16.4,3.8-24.5
			c1.1-6.6,2.2-13.1,3.6-19.6c0.9-4.2,2.2-8.4,3.8-12.3c4.2-9.8,7.8-19.6,8.5-30.6c0.6-9.2,3.9-18.2,5.8-27.2
			c1.1-5.2,1.6-10.5,3.1-15.6c1-3.4,3.2-6.6,5.2-9.6c5.6-8.4,4.3-13-5-16.8c-1.5-0.6-3.1-0.8-6.3-1.6c7.2-5.9,3.8-15.9,11-21.3
			c1.1-0.9,1.6-2.9,1.9-4.5c2.8-15.6,5.4-31.3,8.1-46.9c0.4-2.3,1.5-4.4,2.2-6.6c0.6-1.9,2.1-3.9,1.7-5.6c-3.4-17.1,6.8-32.8,4.3-50
			c-1.2-8.7,0.9-17.8,1.9-26.7c0.4-3.2,1.2-6.9,3.1-9.3c4.1-5.2,4.6-10.6,4.2-16.8c-0.5-7.6-0.1-15.2-0.1-23.3
			c-3.1-0.2-5.3-0.4-7.4-0.6c-6.6-14.6-2.4-24,14.3-31.9c0.7-4.4,1.5-8.9,2.3-13.5c2-11.4,4.1-22.7,6.1-34.1
			c0.6-3.2,1.9-6.4,5.4-5.8c2.5,0.4,4.9,2.8,6.8,4.8c0.9,0.9,1,3.3,0.5,4.7c-5.3,19.3-1.5,39.4-6.6,59c-5.4,20.4-6.8,41.9-10.1,62.9
			c-1.3,8.1-4.8,16.1-2,24.5c-4.9,15.5-2.7,31.6-4.5,47.4c-0.9,7.9-1.4,15.8-2.7,23.7c-1.3,8.5-3.2,17-4.9,25.5
			c-0.5,2.3-1.4,4.5-1.7,6.8c-1,7,0.9,9.2,8.3,10.3c1,0.1,1.9,0.4,3.5,0.8c-2,5.1-2.8,9.9,1,14.8c1.6,2.1,1.4,5.7,1.5,8.7
			c0.2,4.6-2.1,7.6-6.9,8.3c-2.6,0.4-5.3,0.5-7.9,0.9c-7.9,1.4-10.2,3.8-11,11.7c-0.8,7.6-1.2,15.2-2,22.8c-0.4,3.3-1.2,6.5-1.9,9.7
			c-0.5,2.3-2.3,4.7-1.8,6.7c3.5,14.3-5.9,27-5,40.9c0.2,3.5-1.2,7.3-2.5,10.6c-5.7,14-8.1,28.8-11.4,43.3
			c-0.8,3.5-2.5,6.9-3.4,10.4c-1.1,3.8-2.4,7.7-2.5,11.5c-0.1,5-0.8,9.2-5.6,11.8c-3.6,1.9-4,5.1-2.9,8.6c2,6.3,1,12.4-0.6,18.7
			c-3.9,14.8-7.1,29.8-11.5,44.5c-3,9.9-0.7,17.5,7.2,24.8c4.7-5.5,9.8-10.6,17.6-6.8c4.4,2.1,5.8,6.1,4.7,11.6c-4.6,0-9,0-14,0
			c-0.7,8.3,0,14.5,8.3,18.6c5,2.5,8.8,7.7,12.5,12.2c0.9,1.1,0.4,5-0.8,6.1c-2.3,2.2-5.5,3.6-8.5,4.8c-9.1,3.6-9.8,7.5-2.2,13.8
			c0.8,0.6,1.5,1.3,3,2.5c-4.5,7.1,0,16.6-5.8,24.1c-9.9-8-13.3-19.5-8.8-29.1c-2.4-1.1-4.8-2.1-7.1-3.3c-8.7-4.7-10.5-9.5-7-18.9
			c2.9-7.8,2.9-7.8-5.2-11.9c-2.3,2.1,1,8.6-5,7.7c-3.5-0.5-6.8-2.1-10.2-3.3c-0.5,0.3-1.4,0.6-1.5,1c-5.1,20.1-7.8,40.5-4.6,61.2
			c2,12.8,4.5,25.6,7.3,38.3c1.2,5.4,0.7,9.5-3.4,13.6c-3,3-4.9,7.1-7.5,10.5c-4.7,6.1-10.1,10.9-18.5,7.4
			c-15.7,13.6-19.6,30.1-15.2,49.5c1.5,6.5,2,13.2,2.6,19.8c1,10.6,4.1,12.5,13.3,7.8c1.8-0.9,3.5-2,5.3-2.7
			c1.5-0.5,3.8-1.3,4.8-0.7c5.5,4.1,12.1,7.7,15.6,13.2c2.3,3.6,0.7,10.1,0,15.2c-0.7,5.2-2.6,10.2-3.9,15.3
			c-5.3,20.2-10.6,40.3-16,60.5c-0.2,0.8-1.3,1.4-2.2,2.4c-5.4-1.4-6.1-6.5-8.2-10.4c-6.1-11.1-11.5-22.5-18-33.3
			c-7.9-13.3-20.8-18-37.6-14.3c0.7,2.5,0.9,5.2,2.1,7.3c10.3,17.2,14,36.6,19.1,55.5c4.6,17.4,8.9,34.8,14.4,51.9
			c3.6,11.3,3.6,22.1,0.8,33.4c-3.6,14.5-7.8,29-10.3,43.8c-3.5,20.7-8.1,41-15.1,60.8c-4.9,14-8.5,28.5-13.3,42.5
			c-2.8,8.1-6.1,15.7-6.3,24.8c-0.1,6.9-4.3,13.8-6.6,20.7c0-90,0-180,0-270c3.9-4.7,4.8-9.3,0-14c0-38,0-76,0-114
			c8.4,0,9.5-0.8,9.9-8.3c0.5-8.5-0.9-16-9.9-19.7c0-16.7,0-33.3,0-50c3.5,3.1,6.8,6.4,10.5,9.1c2.3,1.7,5.3,2.9,8.1,3.5
			c8.1,1.5,12.1-1.9,11.7-10c-0.3-7.3-1.6-14.5-1.8-21.8c-0.1-3.8,0.1-8.1,1.8-11.3c2.4-4.7,3-9.3,2.5-14.4
			c-1.2-12.3-1.9-24.3,4.3-35.9c2.9-5.5,0-9.7-5.9-11c-11.6-2.6-15.9-7.4-17.3-19.4c-0.3-2.6-0.7-5.3-1.4-7.8
			c-2.3-8.6-4.6-17.3-7.4-25.7c-0.7-2-3.3-3.4-5-5.1C-2,792.7-2,769.3-2,746z M84.3,859.8c-8.5,4.3-8.8,4.7-12.3,11.4
			c-2.1,4.1-3.7,9.1-7,11.8c-8.5,7-8.6,15.9-7.8,25.3c0.3,3.5,1.1,7,5.1,7.6c4.2,0.7,5.7-2.7,6.8-5.9c4.7-12.8,9.4-25.5,13.8-38.4
			C83.9,868.6,83.7,865,84.3,859.8z M59.5,766c-1.4,0-1.9-0.1-2.1,0c-8.4,10.9-5.7,29.3,5.3,36.6c4.1,2.7,8.1,1,8.4-4
			c0.1-2.2-0.5-4.6-1.2-6.7c-2.1-6.3-4.3-12.5-6.7-18.7C62.3,770.5,60.6,768.1,59.5,766z M52.5,755.7c0.8-0.5,1.6-1,2.3-1.4
			c-0.7-3-1-6.1-2.2-8.8c-1.3-2.8-3.9-4.7-7.2-2.3c-2.5,1.8-2.9,6.9-0.6,8.7C47.1,753.6,49.9,754.5,52.5,755.7z M91,923.2
			c0.1-0.5,0.2-1.1,0.2-1.6c0-0.2-0.7-0.5-0.7-0.4c-0.4,0.4-0.7,0.8-1,1.3C90,922.7,90.5,923,91,923.2z M117.7,833.2l0.6,0l-0.3-0.5
			L117.7,833.2z"/>
		<path d="M80,2c1.7,7.4,3.6,14.9,5,22.4c0.7,3.5,1,7.3,0.5,10.7c-1.2,7.2-3.5,14.2-4.5,21.5c-0.8,5.8,0.4,12-0.6,17.8
			C78.4,84.8,80,95,80.4,105.5c0.4,11.1-2.5,22.3-3.7,33.4c-0.3,2.2,0.5,4.6,0.5,6.9c0.1,4.5,0,9.1-0.1,13.6c0,2.3-0.4,4.6,0.1,6.8
			c1.7,7.9,0.3,14.5-7.1,19.1c-0.8,0.5-1.1,1.5-2.5,3.5c2.8,1.7,5.3,3.5,8.1,4.8c8.4,4,10,11.2,3.8,18.3c-5.8,6.6-4.7,10.4,3.8,13.6
			c4.1,1.6,9.3,1.3,11.7,6.6c-4.9,4.7-7.7-3.1-12.6-1.1c0.3,1.5,0.3,3.3,1.2,4.6c7.7,11.6,15.5,23.1,23.2,34.7
			c7.4,11,15.6,21.5,21.9,33.1c5.3,9.6,12.2,18.7,15.5,31.6c-10.4-1.9-18-5.7-25.1-10.2c-9.4-6.1-19.6-11.1-26.5-20.7
			c-3.7-5.2-9.6-5.5-12.2-3c-2.7,2.6-3.3,8.5,0.2,13c11.4,14.4,15.9,31.1,18.8,48.8c0.6,3.7,4.3,7.1,7,10.3c1.8,2.1,5.6,2.8,4.6,6.7
			c-0.6,0.5-1.1,1.3-1.6,1.2c-13-1.3-21.4,5.5-24.8,19.7c-2.5,10.1-2.7,20.3-2.3,30.6c0.6,16.9,0.8,33.8,1.1,50.7
			c0.1,7.9-2.9,15.6-0.6,23.7c1.1,4-2.3,6.7-6.3,7.6c-4.2,1-8.5,1.7-12.7,2.6c-0.1-6,0-11.9-0.2-17.9c-0.2-6-1.2-12-0.9-17.9
			c0.3-7.2,2.4-14.4-1.8-21.4c-0.7-1.2-0.3-3.3,0.2-4.8c6.3-19.6,3.2-39.5,2.3-59.3c-0.1-2.1-1.5-4.4-2.8-6.2
			c-7.3-10.6-15.4-20.6-21.9-31.6c-13.6-22.8-19-47.9-18.7-74.3c0.1-7.5-1.4-10.1-8.6-12.6c-4.4-1.5-8.9-2.7-13.4-4
			c0-8.7,0-17.3,0-26c3.2,1.2,8.8,1.8,9.3,3.8c2.6,9.2,10,12.3,17.2,16.4c8.9,5,17.3,11,25.9,16.5c1.6,1,3.3,1.9,5.2,3.1
			c6.8-7.1,6-14.7,3.4-22.5c-1.4-4.1-3.6-8-4.4-12.2c-3-17-5.6-34-8.1-51.1c-0.6-3.8-0.1-7.8-0.1-11.8c5.5-1.5,10.2-2.7,15.8-4.2
			c-1.4-4-2.7-7-3.4-10.2c-2-9-3.5-18,0.4-27.1c1.2-2.8,0.9-6.4,0.7-9.7c-0.3-4-1.8-7.9-1.7-11.8c0.1-8.5-3.2-15.3-7.9-22.1
			C37,78,30.3,56.4,30.4,32.7C30.5,22,30.2,11.4,24,2C42.7,2,61.3,2,80,2z"/>
		<path d="M802,122c0.7,1.1,1.6,2.2,2.1,3.4c3,7.7,2.9,7.6,11.4,7.6c1.6,0,4.4,1.5,4.5,2.5c0.1,1.9-0.9,4.3-2.2,5.9
			c-0.8,1-3.2,0.4-4.7,1.1c-1.9,0.9-3.5,2.3-5.2,3.5c1.5,2,2.5,4.7,4.5,5.8c2.1,1.2,5.1,0.8,7.7,1.3c1.2,0.2,2.3,0.9,3.5,1.4
			c-0.1,4.3-3,4.5-5.6,4.2c-8.1-0.7-12.3,3.1-14.4,10.7c-0.8,3.1-3.1,5.8-4.6,8.7c-1,1.9-1.8,3.9-3.6,7.6c5.1-1.6,8.4-2.8,11.8-3.6
			c3.3-0.8,7.6-1.4,8.3,2.7c0.5,2.5-1.7,7.7-3.6,8.1c-11.2,2.8-20.5,11.2-32.7,10.5c-4.2-0.3-8,0.4-10.1,4.6
			c-2.1,4.3,0.1,7.8,2.7,10.9c1.4,1.6,3.4,2.8,5,4.1c1-0.9,1.8-1.2,1.9-1.7c1.8-11.4,5.1-12.9,14.8-6.8c3.3,2.1,6.8,4,10.2,6
			c-0.6,1-1.1,2.1-1.7,3.1c-2.7,2.2-5.4,4.4-8.1,6.6l0.1-0.1c-7.4-0.6-7.4-0.6-11.4,11.3c0.6,0.8,1.4,1.8,2.1,2.9
			c3.7,5.1,3.1,8.3-2.4,10.8c-2.1,1-4.5,1.2-6.7,1.9c-2.4,0.9-4.7,2-8.1,3.5c2.2,2.5,3.4,4.2,4.9,5.6c1.7,1.6,4.7,2.7,5.1,4.5
			c1.7,7.2,7.5,9.5,13,11.7c0.2,1.2,0.6,2.1,0.3,2.5c-3,4-2.2,11.3-9,12c-7.5,0.7-14.3-2-20.3-6.6c-3.3-2.5-6.6-5-10.5-7.9
			c0.6-1.2,1.6-3.1,2.9-5.5c-5-3.6-6.6-8-5.7-14.5c0.6-4.4-2.5-9.3-4.1-14.3c0.3-0.4,0.7-1.4,1.3-2.1c5.9-6.3,6.2-7.8,1.1-14.2
			c-3.3-4.2-6-8.3-3-13.5c1.4-2.4,3.8-4.4,6.1-6.1c1.7-1.3,4-1.8,6.6-2.8c-0.8-1.7-1.2-3.7-2-3.8c-8.1-1.9-7.1-11.3-12.7-15.4
			c-1.4-1-0.2-5.5-0.2-8.9c3.4,0,5.9,0,8.5,0c0.1-1.5,0.6-2.7,0.2-3.4c-1.2-2-2.7-3.7-4.1-5.5c-5.6-7.1-5.7-9.5-0.7-18.4
			c-1.2-1.9-2.6-4-4.3-6.7c6.4-5.3,12.3-11,0.8-17c-0.3,0-0.7,0.1-1.1,0.1c-1.4-5.7-2.8-11.3-4.6-18.4c2.8-2.6,3.2-7.2,2.7-12.8
			c-1.4-14.8-1.6-29.8-2.5-44.6c-0.3-4.6-1.1-9.1-1.6-13.7c-0.2-2-1.1-4-0.7-5.8c2.4-10.9,0.5-21.7,0.3-32.6c11.3,0,22.7,0,34,0
			c0,6.3,7.4,5.3,9.2,9.1c1.7,3.6,0.9,8.4,2.2,12.3c1.1,3.5,7.2,5,5.3,9.8c-2.2,5.7-2.3,12.6-7.9,16.8c-0.5,0.3-0.6,1.1-0.5,0.9
			c6,3.9,12.2,7.4,17.7,11.8c2.7,2.1,6,5.7,3.5,9.4c-1.4,2.1-5.3,2.4-8.9,3.8c0.9,1.1,1.9,3.1,3.5,4.2c9.5,6.4,9.5,6.3,6.9,17.9
			c2.6,0.9,5.3,1.9,7.1,2.5c2.1,5.8,4.1,11.1,6.3,17.2c-2.9,1.2-6.7,2.8-10.4,4.4c-2.4-0.4-4.7-3.9-7.5-0.2c1,0.4,1.9,1.1,2.7,1.1
			C798.9,122.9,800.4,122.3,802,122z M760.3,236.5c6.3-1.4,8.4-4.4,8.5-8.8c0.1-3.3-1.8-5.9-5.3-6c-3.5-0.1-4.5,2.5-4.4,5.4
			C759.2,229.9,759.8,232.8,760.3,236.5z M777.1,189.6c4.3,0.9,7.7,4.8,12.6,3.2C788.1,183.5,784.6,182.3,777.1,189.6z M780.9,176.4
			c5.2,1,7.3-0.8,7.7-4.2c0.3-2.7-0.4-5.3-4.6-5.4C783,169.8,782.1,172.8,780.9,176.4z M778.9,123.1c-4.8,1.1-7.7,2.3-8.5,7.5
			C775.9,131.1,778.9,130,778.9,123.1z M762.4,200.7c0.2,0.5,0.4,1.4,0.8,1.6c0.4,0.2,1.1-0.3,1.6-0.5c-0.2-0.5-0.4-1.4-0.8-1.6
			C763.6,200,763,200.5,762.4,200.7z M759.7,267.5c0.1-0.3,0.3-0.6,0.2-0.8c-0.1-0.2-0.4-0.4-0.7-0.6c-0.2,0.5-0.3,0.9-0.5,1.4
			C759.1,267.4,759.4,267.4,759.7,267.5z M764.7,79.7c0.2-0.2,0.5-0.4,0.5-0.7c0-0.2-0.3-0.5-0.4-0.7c-0.3,0.4-0.6,0.7-0.8,1.1
			C764.2,79.5,764.4,79.6,764.7,79.7z M806.3,187.2c0.2,0.2,0.4,0.5,0.7,0.5c0.2,0,0.5-0.3,0.7-0.5c-0.3-0.3-0.7-0.5-1-0.8
			C806.5,186.7,806.4,186.9,806.3,187.2z M774.6,243.3c-0.3-0.1-0.5-0.2-0.8-0.3c0,0.4-0.1,0.8-0.1,1.2c0.3-0.1,0.6,0,0.8-0.2
			C774.7,243.9,774.6,243.6,774.6,243.3z M779.6,149.8c0.1-0.2,0.3-0.5,0.2-0.7c-0.1-0.2-0.4-0.3-0.6-0.5c-0.1,0.4-0.3,0.8-0.4,1.2
			C779.1,149.8,779.4,149.8,779.6,149.8z"/>
		<path class="st0" d="M24,2c6.2,9.4,6.5,20,6.4,30.7C30.3,56.4,37,78,50.4,97.4c4.7,6.8,8,13.6,7.9,22.1c-0.1,3.9,1.4,7.8,1.7,11.8
			c0.2,3.2,0.5,6.8-0.7,9.7C55.4,150,57,159,58.9,168c0.7,3.1,2,6.1,3.4,10.2c-5.6,1.5-10.3,2.7-15.8,4.2c0,4-0.5,7.9,0.1,11.8
			c2.5,17.1,5.1,34.1,8.1,51.1c0.7,4.2,3,8.1,4.4,12.2c2.6,7.8,3.4,15.4-3.4,22.5c-1.9-1.1-3.6-2-5.2-3.1
			c-8.6-5.5-17-11.5-25.9-16.5c-7.2-4.1-14.6-7.2-17.2-16.4c-0.6-2-6.1-2.6-9.3-3.8c0-17.3,0-34.7,0-52c7.5-3.8,15.2-0.1,23.4,0.5
			c-1.3-4.4-3.5-7.9-2.8-10.5c2.2-7.5,4.7-15.2,8.7-21.8c6-9.8,5.3-15-5.3-19.3C14.2,133.6,6,130.9-2,128C-2,86-2,44-2,2
			C6.8,2,15.4,2,24,2z"/>
		<path class="st0" d="M-2,266c4.5,1.3,9,2.5,13.4,4c7.2,2.5,8.7,5.1,8.6,12.6c-0.3,26.4,5.1,51.5,18.7,74.3
			c6.5,11,14.6,21.1,21.9,31.6c1.3,1.9,2.7,4.1,2.8,6.2c0.9,19.8,4.1,39.7-2.3,59.3c-0.5,1.5-0.9,3.7-0.2,4.8
			c4.2,6.9,2.1,14.1,1.8,21.4c-0.3,5.9,0.7,11.9,0.9,17.9c0.2,6,0.2,11.9,0.2,17.9c0,0,0.1-0.1,0.1-0.1c-1.9-1.4-4-2.5-5.5-4.1
			c-4.3-4.7-9-6.4-15.1-3.6c-1,0.5-2.3,0.3-4,0.4c0-3.9,0-7.1,0-10.1c-7.8-3.5-7.8-3.5-15.6-13.2c-5.9-7.3-10.5-7.5-17.1-0.7
			c-3,3.1-5.9,6.2-8.9,9.3C-2,418-2,342-2,266z M17.8,473c9.2-6.1,9.2-6.1,4.7-12C21.1,464.6,19.8,467.8,17.8,473z"/>
		<path d="M-2,494c3-3.1,5.9-6.2,8.9-9.3c6.6-6.8,11.1-6.6,17.1,0.7c7.8,9.7,7.8,9.7,15.6,13.2c0,3,0,6.2,0,10.1
			c1.6-0.1,2.9,0.1,4-0.4c6-2.8,10.8-1.2,15.1,3.6c1.5,1.7,3.6,2.8,5.5,4.1c3.3,10,10.9,3.8,18.1,3.9c-6.8,8.5-4.1,15.2,1.3,22
			c2.9,3.6,2.8,9.6,9.3,10.1c1,0.1,2.2,2.4,2.8,3.9c4.7,12.8,9.3,25.6,13.7,38.4c0.7,2.1,0.9,4.6,0.9,6.9c0.2,13.2-2,16.1-15.1,19.4
			c0.9,2.9,1.7,5.8,2.6,8.8c-14.3,2.9-32.3-4.5-39.2-15.5c-1.4-2.2-3.2-4.2-5.2-5.9c-6.2-5-12.7-9.6-18.9-14.6
			C22.1,583.7,10.1,573.8-2,564C-2,540.7-2,517.3-2,494z"/>
		<path d="M824,14c0-4,0-8,0-12c16,0,32,0,48,0c6.8,8.1,7.7,8.1,12,0c18,0,36,0,54,0c4,4.9,4,4.9,8,0c1.3,0,2.7,0,4,0
			c2.7,3.6,9.4,4.7,7.7,11.5c-4.6,0-9.6-1.4-13.1,0.3c-5.6,2.6-0.8,7.5,0,12.4c-3.9,2.4-7.9,4.8-14.2,8.6c4.8,1,7.5,1.5,10.1,2.1
			c6.3,1.6,7.2,2.9,7.3,9.7c0,2.9,0.3,6,1.2,8.8c2.2,6.4,3.4,12.4,0.7,19.4c-2.5,6.3,1.5,12.1,4.2,18.1c2.8-0.7,5.1-1.3,7.8-1.9
			c-1.5,8-4.7,11.1-10.6,11.2c-3.5,0.1-5.6-1.6-6.8-4.7c-1-2.6-2.3-5-4-8.4c-4.9,5.1-5.1,9.8-5.1,14.9c0,2.6-1.2,6.1-3.1,7.6
			c-5.1,4.2-10.8,7.7-16.4,11.2c-1.1,0.7-2.9,0.1-5.7,0.1c5-8.4,11.4-13.5,20-17.3c-3.8-5.6-7.5-10.2-10.3-15.4
			c-3.6-6.7-11.5-1.1-16.6-6.6c2.6-1.2,4.5-2.4,6.4-2.8c8.2-1.8,8.2-1.7,9.9-10.4c0.4-1.9,1-3.8,1.8-6.8c-7.9,2.1-13.9,8.3-22,6.1
			c-3.5-5.1-7.1-10.2-12.1-17.4c-0.6,8-2.7,12.3-8.3,15.1c-5.7,2.9-5.5,5.2-1.3,14.1c-2.4,1.3-4.9,2.6-8,4.2
			c-2.4-16.9-14.5-24.7-27.2-32.4c-0.6-4,1.5-6.5,5.3-6.8c5.8-0.5,9,3.3,11,10.5c2.8-3.8,6-6.3,5.6-8c-0.7-3.3-3.1-6.5-5.4-9.1
			c-1.4-1.6-4.4-1.6-6.2-2.9c-2.6-1.9-6.3-4.1-6.8-6.7c-1.3-6.3-6.4-9.1-9.8-13.5c-3.4-4.5-7.3-5.4-12.2-2.8L824,14z M943.2,68.6
			c-3.8-7.6-5.1-8.2-12.6-5.2C933.7,68.1,937.1,71.2,943.2,68.6z M894.4,48.1c-0.7,0.6-1.5,1.1-2.2,1.7c1.5,1.7,3,3.4,4.6,5.2
			c0.6-0.5,1.1-1,1.7-1.5C897.1,51.7,895.8,49.9,894.4,48.1z M891.6,10c-0.8,1.9-1.3,3-1.5,4.1c0,0.3,1.7,1.2,2.1,1
			c0.7-0.4,1.4-1.5,1.4-2.3C893.7,12.2,892.7,11.5,891.6,10z M916.6,51.1c0.6-0.1,1.1-0.2,1.7-0.4c-0.3-1.4-0.6-2.8-0.9-4.2
			c-0.6,0.1-1.1,0.2-1.7,0.4C916.1,48.3,916.4,49.7,916.6,51.1z M913.6,41.3c0.3-1.4,0.6-2.2,0.5-3c-0.1-0.4-0.8-0.8-1.3-1.2
			c-0.5,0.6-1.4,1.3-1.3,1.8C911.7,39.6,912.6,40.2,913.6,41.3z M941.4,80.1c0.1-0.2,0.3-0.5,0.2-0.8c-0.1-0.2-0.4-0.4-0.6-0.5
			c-0.2,0.4-0.3,0.9-0.5,1.3C940.8,80.1,941.1,80.1,941.4,80.1z M871.9,46.7l-0.2,0.6l0.6-0.2L871.9,46.7z M859.4,9.7
			c0,0.3,0,0.6,0.1,0.7c0.2,0.1,0.5,0.1,0.8,0.1c-0.1-0.4-0.1-0.8-0.2-1.2C859.9,9.5,859.7,9.6,859.4,9.7z"/>
		<path d="M224,2c6.1,10.3,2.7,21.3,2.2,32c-0.5,9.6-2.2,19.3-1.4,28.7c1.4,16.7-1.3,32.4-6.8,47.9c-2.6,7.3-2.6,7.4,4.3,9.5
			c1.9-6.2,3.6-12.5,5.7-18.7c3.2-9.6,11.2-11.1,18-3.5c1.1,1.2,2.2,2.7,2.6,4.2c4.6,15.1,6.8,29.9-5.6,43c-2.1,2.2-3.7,5.7-3.9,8.8
			c-0.5,8.5-0.2,17.1-0.2,26.1c5.7,0.7,6.9-3.4,8-7.1c1.4-4.8,2.2-9.7,3.5-14.5c1.3-4.6,3.9-7.7,9.4-6.8c1.6,0.2,3.3-0.1,4.9-0.3
			c8.7-1.4,13.8,3.6,12.2,12.2c-1.2,6.1-4.1,11.2-9.7,14.4c-4.6,2.7-8.1,5.5-10,11.4c-3.2,10.4-23.6,21.8-34.6,21.6
			c-3.4-0.1-6.8,1.2-11.6,2.2c-3.6-6.2-5.7-13.7-3.6-21.3c1.3-4.6,1.9-8.7,1.7-13.5c-0.1-4.8,0.5-10.3,2.8-14.3
			c5.8-10.1,4.1-20.6,3.3-31.1c-0.2-3.1-2.2-6-6-5c-3.7,0.9-5.7,3.5-4.1,7.5c0.5,1.2,1.3,2.3,1.7,3.1c-3.4,3.5-6.7,6.9-10.2,10.5
			c-5.5-7.3-11.2-14.4-7.6-25c1-3.1-0.7-7.1-1.4-10.7c-1.7-8.8,0.4-12.9,8.5-16.7c3.6-1.7,7.5-3,10.8-5.1c6.9-4.5,7.7-9.5,2.3-15.6
			c-3.6-4-4.1-7.5-2.2-12.6c3.6-9.7,2.2-20,1.7-30.1c-0.1-2.9-0.7-5.9-0.6-8.8c0.4-7.6,1.2-15.1,1.8-22.7C214.7,2,219.3,2,224,2z
			 M234.1,191.9c0.6-1.1,1.4-1.9,1.3-2.5c-0.2-0.6-1.3-1.4-1.9-1.3c-0.6,0.1-1.4,1.3-1.4,1.9C232.1,190.5,233.2,191,234.1,191.9z
			 M230.3,138.3c-1.1-0.4-1.9-0.8-2.6-0.9c-0.2,0-0.9,1.2-0.7,1.5c0.3,0.7,1,1.2,1.6,1.8C229.1,140.1,229.6,139.4,230.3,138.3z
			 M239.4,104.2c-0.5-0.3-1-0.8-1.4-0.7c-0.4,0.1-0.6,0.9-0.9,1.3c0.5,0.3,1,0.8,1.5,0.7C238.9,105.5,239.1,104.7,239.4,104.2z
			 M239.1,117.3c0.3,0,0.7,0,0.8-0.1c0.2-0.2,0.1-0.5,0.2-0.8c-0.5,0.1-0.9,0.1-1.4,0.2C238.9,116.8,239,117,239.1,117.3z"/>
		<path class="st0" d="M-2,816c1.7,1.7,4.4,3.1,5,5.1c2.8,8.5,5.1,17.1,7.4,25.7c0.7,2.5,1.1,5.2,1.4,7.8
			c1.4,11.9,5.7,16.8,17.3,19.4c5.9,1.3,8.8,5.5,5.9,11c-6.2,11.6-5.5,23.7-4.3,35.9c0.5,5.1-0.1,9.7-2.5,14.4
			c-1.6,3.3-1.9,7.5-1.8,11.3c0.3,7.3,1.5,14.5,1.8,21.8c0.4,8.2-3.6,11.6-11.7,10c-2.8-0.5-5.8-1.8-8.1-3.5c-3.7-2.7-7-6-10.5-9.1
			c0-28.7,0-57.3,0-86c2-0.5,5.5-0.6,5.8-1.5c0.9-3.5-1.9-4.3-4.8-4.5c-0.3,0-0.7,0-1,0C-2,854.7-2,835.3-2,816z"/>
		<path d="M368,2c-2.1,3.3-4.3,6.7-6.4,10c-1.9,3.1-4,5.8-2,10.1c0.8,1.7-0.8,4.8-1.9,6.9c-3,5.4-6.6,10.5-9.7,15.9
			c-3.9,6.8-7.5,13.8-11.5,21.1c-10.7-1.6-15.8-9.1-20.7-18.1c3.6-1.7,6.5-3,9.5-4.4c-2.6-7.7-5-14.9-7.7-22.6
			c5.3-0.6,7.1,2.4,8.1,5.4c2.2,6.3,6.7,8.4,14,9.3c0-10.6-6.7-16.3-13.9-22.4C327.9,9.3,330,5.7,332,2C344,2,356,2,368,2z"/>
		<path d="M-2,128c8,2.9,16.2,5.6,24.1,8.9c10.5,4.3,11.2,9.5,5.3,19.3c-4,6.6-6.5,14.3-8.7,21.8c-0.8,2.6,1.5,6.1,2.8,10.5
			c-8.3-0.7-16-4.3-23.4-0.5C-2,168-2,148-2,128z"/>
		<path d="M564,2c-3.8,6.9-7,14.4-15.3,18.5c2.1,4.7,5.5,6.7,10.6,7.4c6.5,0.8,7.3,2.4,6.2,8.4c-0.6,3.5-1.2,7-2.2,12.3
			c-3.6-3.5-6.6-6-9-8.8c-3.2-3.9-6.4-5.8-12-4.6c-7.1,1.5-14.8-4.1-16.7-11c-2-7.3-3.8-14.8-5.6-22.1C534.7,2,549.3,2,564,2z
			 M537.3,12.8c-0.7-0.3-1.5-0.7-2.2-1c-0.5,1.3-1.1,2.6-1.5,4c0,0.1,1.4,0.6,2.2,0.9C536.3,15.4,536.8,14.1,537.3,12.8z"/>
		<path d="M604,2c3.6,10.1,2.9,11.6-10,20.5c1.7,1.8,3.3,3.5,5.5,5.8c-4.7,2.2-8.8,4.1-12.9,6c0.6-0.5,1.1-1,1.7-1.5
			c-3.2-2.2-6.6-4.2-9.7-6.6c-2.3-1.8-4.4-4-6.2-6.3c-2.3-2.9-5-6.4-0.9-9.4c3.6-2.7,5.9,0.7,8.1,3.3c1.3,1.6,2.9,3,6,3.5
			c-1.8-5.1-3.7-10.2-5.5-15.2C588,2,596,2,604,2z"/>
		<path class="st0" d="M-2,1016c9.1,3.7,10.5,11.2,9.9,19.7c-0.5,7.5-1.5,8.3-9.9,8.3C-2,1034.7-2,1025.3-2,1016z"/>
		<path d="M466,2c0,4.2,0.1,8.5-0.2,12.7c-0.3,3.4-1.5,6.9-5.4,7.2c-4.5,0.3-6.1-3.3-6.4-7.1c-0.3-4.2,0-8.5,0-12.7
			C458,2,462,2,466,2z"/>
		<path d="M814,2c0,2.5,0,5,0,7.9c-6.3-0.2-7-4.2-8-7.9C808.7,2,811.3,2,814,2z"/>
		<path class="st0" d="M884,2c-4.3,8.1-5.2,8.1-12,0C876,2,880,2,884,2z"/>
		<path d="M-2,874c0.3,0,0.7,0,1,0c2.9,0.2,5.7,1,4.8,4.5c-0.3,0.9-3.8,1-5.8,1.5C-2,878-2,876-2,874z"/>
		<path class="st0" d="M-2,1158c4.8,4.7,3.9,9.3,0,14C-2,1167.3-2,1162.7-2,1158z"/>
		<path d="M1062,2c-3.6,6.5-4,6.5-8,0C1056.7,2,1059.3,2,1062,2z"/>
		<path class="st0" d="M946,2c-4,4.9-4,4.9-8,0C940.7,2,943.3,2,946,2z"/>
		<path d="M1016,2c-2.7,3.1-5.3,3.1-8,0C1010.7,2,1013.3,2,1016,2z"/>
		<path d="M1046,2c-2.7,3.3-5.3,2.5-8,0C1040.7,2,1043.3,2,1046,2z"/>
		<path d="M982,2c-2.7,2.6-5.3,2.6-8,0C976.7,2,979.3,2,982,2z"/>
		<path d="M117.3,213.5c1.7-8.4,5.3-17.6,10.7-26.2c4-6.4,8.5-12.2,10.1-20.2c1.3-6.2,5.7-11.9,9.4-17.5c3.5-5.3,7-5.5,11.3-0.9
			c6.9,7.3,14.2,13.9,23.2,18.6c5.1,2.6,5.5,6.8,1.6,11.7c-6.4,8.1-12.1,16.9-19.7,23.7c-10.3,9.3-21.5,18-35.2,22
			C119.5,227.4,116.6,224.5,117.3,213.5z"/>
		<path d="M516.3,54.4c-3.3,1.8-5.6,3-8.4,4.5c3.8,7.8,1.6,14.7-2.1,21.8c-3.6,6.9-5.6,14.1-3.6,22.1c0.5,2-0.2,4.6-1.1,6.7
			c-1.8,4.5-4,8.8-6.8,14.8c-2.4-10.2-12.4-17.9-2.7-29c-5.8-2.7-8.2-6.3-4.1-11.7c0.7-1,1.5-2.5,1.3-3.7
			c-1.9-9.5,4.3-15.2,9.6-21.5c2.3-2.7,4-6,6.3-8.8c2.1-2.6,4.6-5,8.6-9.3C514.6,46.4,515.4,50,516.3,54.4z"/>
		<path d="M349.7,304.3c-5.1,0.3-8.4,0.5-12.1,0.7c-0.9,2.9-1.7,5.7-2.4,8.2c-6.4,1.4-12.7,2.8-20.4,4.5c-3.2-2-5.3-8.9-12.2-8
			c-5.2,0.7-10.4,1.4-16.4,2.2c-0.3-3.6-0.5-6.7-1-12.3c-2,4-3.3,6.5-4.6,9.3c-5.2-4.7-4.5-7.8-3-10.8c3.4-6.6,18.2-9.4,23.8-4.5
			c3.9,3.4,7.4,7.2,11.7,11.5c6.6,0.4,14,1.7,20-5.6C335.9,296,340,297.6,349.7,304.3z"/>
		<path d="M549.1,158.2c0.2,2.3,0.8,3.8,0.4,4.7c-3.5,7.3-6.1,15.5-11.2,21.4c-6.7,7.8-7.6,7-3.3,16.9c-5.7,4.9-8.5,10.6-0.9,17.5
			c-5.9,3-15.8-4.3-15.6,9.9C509.9,206.4,528.3,169,549.1,158.2z"/>
		<path d="M423.3,373.5c-0.5-8-4.8-14.4,1.4-21.1c-2.7-2.1-4.9-3.8-7.1-5.6c-0.1-0.4-0.3-0.8-0.2-1c5.6-6.5,0.5-13,0.5-19.5
			c0-4.3,3.8-8.9,6.6-12.9c0.5-0.8,4.4-0.2,6,0.9c3.8,2.7,5.4,9.8,2.9,14.5c-2.6,4.7-4.3,8.9-0.5,13.7c0.6,0.7,0.9,2,0.7,2.8
			c-1.8,8-3.7,16.1-5.9,24C427.4,370.7,425.6,371.5,423.3,373.5z"/>
		<path d="M266.4,143.2c0.6-8.8,8.5-16.7-0.5-25.7c4.6-1.3,7.5-2.2,11.1-3.3c0.4,3.8,0.8,7.2,1.3,11.6c4.6-2.3,8.2-4.2,11.9-6.1
			c5.3,4.9,3,9.9,1.7,15.8c-5.8-1.2-10.5-0.2-13.9,5.4C276.1,144.4,271.6,145,266.4,143.2z"/>
		<path d="M802.1,223.5c0.6-1,1.1-2.1,1.7-3.1c2.9,2.1,6.3,3.8,8.5,6.4c2.9,3.4,5.6,6.3,10.6,5.9c3.4-0.2,4.6,2.2,4,5.3
			c-0.7,3.5-3.7,5.9-6.5,4.2c-5.6-3.4-11-2.5-16.9-2.4c-5.9,0.1-8.5-3.3-9.4-9.9c0,0-0.1,0.1-0.1,0.1c3.4,0,6.9,0,11.3,0
			C803.9,227.4,803,225.4,802.1,223.5z"/>
		<path d="M755,326.8c1.3-3.3,2.4-6.8,4.2-9.9c0.9-1.5,3.6-3.3,4.7-2.9c7.6,2.8,16.9,1.1,22.8,8.3c0.2,0.2,0.2,0.6,0.3,0.9
			c-6,8.6-11.4,11.2-23-0.5c-2.4,1.6-5,3.3-7.6,5C756,327.5,755.5,327.1,755,326.8z"/>
		<path d="M759.8,391.2c-4.9-9.7,5.3-21.1-5.1-29.5c6.1-5.4,7-4.8,10.3,0.4C772.5,373.6,765.2,382.1,759.8,391.2z"/>
		<path d="M897,101.1c-9.8-1.3-15-13.1-11.7-26.9C891.3,77.9,897.6,92.2,897,101.1z"/>
		<path d="M801.1,351.4c-5.4-1.4-8.4-5-7.1-9.4c1.7-5.8-3.2-14.4,6.9-17.9C803.8,333.4,804.5,342.1,801.1,351.4z"/>
		<path d="M795.2,316.6c-1.9-9.9-11.2-9.3-17.2-14.3c5.3,0.5,10.9,0.1,15.9,1.7c2.9,0.9,5.2,4.5,7,7.4c0.4,0.7-2.1,3.3-3.3,5.1
			C796.8,316.4,796,316.5,795.2,316.6z"/>
		<path d="M934.9,180.8c2.8-8.6,11.9-14.4,6-24.2C953.4,166.2,947.4,173.7,934.9,180.8z"/>
		<path d="M823,215.6c-7.6,2-13.3,0-18.5-5.3C810.9,206.3,815.4,207.6,823,215.6z"/>
		<path d="M132.2,94.5c-7.9-1.8-9-7.2-11.1-12.8c3-1.1,5.6-2.1,9-3.3C130.8,83.7,131.4,88.3,132.2,94.5z"/>
		<path d="M429.6,308.9c-2.5-3.1-5.1-4.9-5.2-6.8c-0.1-4.4,3.8-5,7-4.5c1.7,0.3,3.2,2.4,4.8,3.7
			C434.3,303.4,432.5,305.6,429.6,308.9z"/>
		<path d="M773.9,349.8c-8.8-0.2-15.2,0.1-21.7-4.6c1.7-1.5,2.7-3,4-3.3C759.6,341.3,767,344.5,773.9,349.8z"/>
		<path d="M764,300.1c-6.7,6.1-10.7,4.6-16.5-6.3C753.9,296.2,758.6,298.1,764,300.1z"/>
		<path d="M321.7,418.6c-2.7,2.3-3.9,4.1-5.4,4.4c-3.3,0.7-7.2-2.5-6.7-5.5c0.2-1.5,2.7-4,3.3-3.8
			C315.6,414.7,318.1,416.5,321.7,418.6z"/>
		<path d="M239.2,82.9c8.4-6.3,11.2-5.3,15,5.8C248.9,86.7,244.7,85.1,239.2,82.9z"/>
		<path d="M328.9,371c-2.4,1.8-3.6,3.5-4.8,3.5c-2,0-4.1-0.9-6-1.7c-0.4-0.2-0.4-2.4-0.1-2.5c1.9-0.8,4-1.6,6-1.8
			C325.1,368.4,326.3,369.6,328.9,371z"/>
		<path d="M955.7,119.7c-4.4,2.1-7.7,2-9-2.4c-0.3-1.1,1.6-4.1,2.7-4.3C954.4,112.2,954.9,115.9,955.7,119.7z"/>
		<path d="M801.8,274.1c-3.7-4.4-3.8-7.6-0.2-10.2c0.7-0.5,2.9,0.1,3.4,0.8C807.9,268.9,804.8,271.1,801.8,274.1z"/>
		<path d="M801.7,285.1c2,3.2,3.7,5.2,4.7,7.6c0.5,1.2,0.2,3.6-0.7,4.2c-0.9,0.7-3.2,0.4-4.3-0.3
			C798.7,294.9,798.7,292.7,801.7,285.1z"/>
		<path d="M324.5,73.9c3.8,4.3,3.4,7.3-1.6,10.3C320,80,319.8,76.9,324.5,73.9z"/>
		<path d="M823.9,13.9c1.9,3.4,6.5,5.6,5,10.7c-7.7-1-8.3-2.3-4.9-10.6C824,14,823.9,13.9,823.9,13.9z"/>
		<path d="M915.5,94.9c3.5,1.7,4.8,3.8,2.7,6.9c-0.3,0.5-2,0.8-2.6,0.5C912.2,100,913.5,97.7,915.5,94.9z"/>
		<path d="M565.1,152.8c1,4,1.6,6.3,2.3,9c-1.5,0.3-2.7,1-3.2,0.6C560.4,160.2,560.7,157.5,565.1,152.8z"/>
		<path d="M808,247c-0.4,4.6-2.3,6.2-7,5.5C801.6,248.2,803.8,246.9,808,247z"/>
		<path d="M548.7,97.9c-1.5,1.6-2.3,3.3-3.5,3.5c-0.8,0.2-2.1-1.5-3.1-2.3c1-1.1,1.8-2.5,3-3.1C545.6,95.8,547,97,548.7,97.9z"/>
		<path d="M177.3,27.8c-1.4-1.9-2.7-3.9-5.1-7.2c5.9,0.2,7.1,2.2,7,5.5C178.6,26.6,178,27.2,177.3,27.8z"/>
		<path d="M820.5,311.7c-0.3,1.7-0.6,3.5-0.9,5.2c-0.6-0.1-1.2-0.1-1.8-0.2c0-1.8,0-3.7,0-5.5C818.7,311.4,819.6,311.6,820.5,311.7z
			"/>
		<path d="M133.4,525.7c1.4-1,2.4-2.1,3.4-2.1c0.7,0,1.5,1.4,2.2,2.2c-1,0.7-2,1.6-3.1,1.9C135.5,527.7,134.6,526.7,133.4,525.7z"/>
		<path d="M280.2,148c1.4-1.4,2.9-2.8,4.3-4.2c0.6,0.5,1.2,1.1,1.7,1.6c-1.3,1.6-2.5,3.1-3.8,4.7C281.7,149.4,281,148.7,280.2,148z"
			/>
		<path d="M816.5,174.5c0-4.3,2.2-5.2,6.2-4.9C822.2,173.5,820.8,175.3,816.5,174.5z"/>
		<path d="M786.8,375.6c0.6,1,1.5,2.2,1.4,2.4c-0.7,0.7-1.7,1.2-2.6,1.7c-0.3-0.8-1.1-1.6-0.9-2.3
			C784.8,376.8,785.9,376.4,786.8,375.6z"/>
		<path d="M157.6,88.2c1.6-0.9,3.1-1.7,5.1-2.8c1,5.5-1.9,4.9-4.2,5C158.1,89.7,157.9,89,157.6,88.2z"/>
		<path d="M838.2,30c0.3,2.7,0.7,3.9,0.5,5c-0.3,1-1.2,1.9-2.2,3.2C832.9,35,834.1,33,838.2,30z"/>
		<path d="M268,99.4c2.2,1.1,4.5,2.1,6.7,3.2c-0.3,0.7-0.6,1.4-1,2.1c-2.3-1-4.5-2-6.8-3C267.3,100.9,267.7,100.1,268,99.4z"/>
		<path d="M108.1,68.2c-0.8-1.6-1.6-2.7-1.7-3.7c-0.1-0.5,1.1-1.2,1.8-1.7c0.7,0.9,1.6,1.8,2,2.8C110.3,66,109.2,66.8,108.1,68.2z"
			/>
		<path d="M874.1,98.1c-0.8-1.1-1.7-1.8-1.7-2.5c0-0.5,1.3-1.6,1.7-1.5c0.7,0.2,1.6,1.1,1.7,1.9C875.9,96.5,874.9,97.2,874.1,98.1z"
			/>
		<path d="M842.2,338.2c-1.1-1.2-2.3-2-2.1-2.4c0.4-1,1.2-1.8,1.9-2.7c0.6,0.6,1.8,1.2,1.8,1.7C843.7,335.8,843,336.7,842.2,338.2z"
			/>
		<path d="M822.6,294c-0.7-1.1-1.6-1.8-1.5-2.4c0-0.5,1.2-1.6,1.7-1.5c0.7,0.2,1.5,1.1,1.6,1.8C824.3,292.4,823.3,293.1,822.6,294z"
			/>
		<path d="M180.7,54.3c-0.8-1.3-1.5-2.2-1.7-3.2c-0.1-0.4,1.6-1.6,1.9-1.4c0.9,0.6,1.6,1.5,2.1,2.5
			C183.1,52.4,181.8,53.3,180.7,54.3z"/>
		<path d="M346.8,375.6c-0.4-1.8-1-2.7-0.7-3.3c0.3-0.7,1.2-1.5,2-1.7c0.4-0.1,1.6,1.4,1.5,1.7C349,373.3,348.1,374.1,346.8,375.6z"
			/>
		<path d="M813,344.2c-0.9-1.2-1.8-2-2-2.9c-0.1-0.4,1.4-1.8,1.7-1.7c0.9,0.4,1.8,1.2,2.4,2.1C815.2,341.9,814,342.9,813,344.2z"/>
		<path d="M147.9,112.2c0.8,1.8,1.4,2.6,1.4,3.5c0,0.7-0.8,1.4-1.3,2.1c-0.7-0.5-1.7-0.9-1.9-1.6
			C145.9,115.6,146.7,114.7,147.9,112.2z"/>
		<path d="M126.4,66.2c1.3-0.4,2.2-1,2.8-0.8c0.6,0.2,0.9,1.3,1.4,1.9c-0.8,0.3-1.6,1.1-2.3,0.9C127.8,68.2,127.3,67.2,126.4,66.2z"
			/>
		<path d="M588,49.3c-0.9-1.5-1.8-2.4-1.6-2.9c0.4-1,1.4-1.7,2.1-2.5c0.5,0.7,1.5,1.4,1.4,2C589.8,46.9,589,47.8,588,49.3z"/>
		<path d="M746.1,312c0.8,1.2,1.7,2,1.6,2.6c-0.1,0.5-1.1,1.1-1.9,1.4c-0.2,0.1-1.1-0.9-1.1-1.3C744.8,314,745.4,313.3,746.1,312z"
			/>
		<path d="M834.5,252.8c0.5-0.3,1-0.6,1.4-0.9c0.3,0.7,0.7,1.4,1,2.1c-0.6,0.1-1.2,0.5-1.6,0.3C834.9,254,834.8,253.3,834.5,252.8z"
			/>
		<path d="M821.5,198c1.4-0.7,2.3-1.5,2.7-1.3c0.7,0.4,1.5,1.3,1.6,2.1c0.1,0.6-0.8,1.3-1.3,2C823.7,200.1,822.9,199.3,821.5,198z"
			/>
		<path d="M740.4,130c0.4,0,0.7-0.1,1.1-0.1c0.9,2.2,1.9,4.4,3.1,7.3C738.6,136.3,740.1,132.9,740.4,130z"/>
		<path d="M956.4,25.7c-0.2,0.5-0.4,1.1-0.6,1.6c-0.6-0.4-1.3-0.7-1.9-1.1c0.4-0.5,0.6-1.2,1.1-1.3
			C955.3,24.9,955.9,25.5,956.4,25.7z"/>
		<path d="M783.3,363.5c-0.5-0.2-1-0.4-1.6-0.7c0.4-0.7,0.7-1.3,1.1-2c0.4,0.4,1.1,0.7,1.2,1.2C784.1,362.5,783.6,363,783.3,363.5z"
			/>
		<path d="M365.8,529.5c-0.4,0.5-0.7,1-1.1,1.5c-0.4-0.4-1.2-0.8-1.2-1.1c0-0.5,0.6-1,1-1.5C365,528.7,365.4,529.1,365.8,529.5z"/>
		<path d="M843.6,198.1c0.7,0.4,1.7,0.7,1.7,0.8c-0.2,0.8-0.5,1.6-0.9,2.3c-0.7-0.3-1.4-0.7-2.1-1
			C842.8,199.5,843.2,198.8,843.6,198.1z"/>
		<path d="M119.7,73.3c-0.8-0.4-1.7-0.8-1.7-1c0.2-0.9,0.7-1.7,1-2.5c0.5,0.3,1.5,0.6,1.4,0.9C120.4,71.5,120,72.3,119.7,73.3z"/>
		<path d="M882.6,109.4c-1.1-2.2-1.7-3-1.7-3.8c0-0.6,0.9-1.2,1.5-1.6c0.2-0.1,1.2,0.6,1.2,1C883.7,105.7,883.3,106.4,882.6,109.4z"
			/>
		<path d="M103.9,257.1c-0.5-1.2-1-2.1-1.1-3c-0.1-0.4,0.5-0.9,0.8-1.4c0.7,0.5,1.4,1,2,1.6C105.7,254.4,105,255.2,103.9,257.1z"/>
		<path d="M463.2,34.6c0.5,0.3,1.2,0.5,1.3,0.9c0.1,0.4-0.5,0.9-0.8,1.4c-0.5-0.3-1.2-0.5-1.3-0.9C462.3,35.6,462.9,35.1,463.2,34.6
			z"/>
		<path d="M372.9,391.8c-0.4-0.4-1.1-0.7-1.1-1.2c0-0.4,0.6-0.9,0.9-1.3c0.4,0.4,1.1,0.7,1.1,1.2
			C373.8,390.9,373.2,391.4,372.9,391.8z"/>
		<path d="M563.5,88c-0.4-0.8-0.9-1.5-0.8-1.7c0.4-0.7,1.1-1.2,1.8-1.8c0.2,0.5,0.8,1.1,0.6,1.5C564.8,86.6,564.1,87.2,563.5,88z"/>
		<path d="M347.6,317.8c-0.4,0.4-0.7,0.8-1.1,1.2c-0.4-0.4-1-0.8-1-1.2c0-0.4,0.7-0.8,1-1.2C346.8,317,347.2,317.4,347.6,317.8z"/>
		<path d="M523.4,53.5c-0.3-0.1-0.6-0.2-0.9-0.3c0.3-0.4,0.6-0.8,0.9-1.2c0.2,0.2,0.5,0.5,0.5,0.7C524,53,523.6,53.3,523.4,53.5z"/>
		<path d="M142.1,98.8c-0.5-0.3-1.2-0.4-1.3-0.8c-0.1-0.4,0.3-0.9,0.5-1.4c0.5,0.3,1.2,0.4,1.3,0.8
			C142.7,97.7,142.3,98.3,142.1,98.8z"/>
		<path d="M848.6,235.6c-0.3-0.4-0.9-0.9-0.9-1.2c0-0.4,0.7-0.7,1-1.1c0.3,0.4,0.9,0.8,0.9,1.2C849.6,234.9,848.9,235.2,848.6,235.6
			z"/>
		<path d="M963.8,61.7c0.4-0.3,0.8-0.9,1.3-0.9c0.4,0,0.8,0.6,1.2,0.9c-0.4,0.3-0.8,0.9-1.2,0.9C964.6,62.7,964.2,62.1,963.8,61.7z"
			/>
		<path d="M19.7,1760.2c-0.3,0.4-0.6,0.9-1,1.3c-0.1,0.1-0.7-0.3-0.8-0.5c0-0.6,0.1-1.1,0.2-1.7
			C18.7,1759.6,19.2,1759.9,19.7,1760.2z"/>
		<path d="M266.9,299.9c-0.5-0.3-1-0.6-1.6-0.9c0.3-0.4,0.6-0.9,1-1.3c0.1-0.1,0.7,0.3,0.8,0.5C267.1,298.8,267,299.4,266.9,299.9z"
			/>
		<path d="M787.2,263.2c-0.5-0.3-1-0.5-1.4-0.9c-0.1-0.1,0.1-0.8,0.2-0.8c0.5,0,1.1,0,1.6,0.1C787.5,262.1,787.3,262.7,787.2,263.2z
			"/>
		<path d="M825.9,258.3c-0.5,0.3-1,0.5-1.5,0.8c-0.1-0.5-0.2-1.1-0.2-1.6c0-0.2,0.7-0.5,0.7-0.4
			C825.3,257.5,825.6,257.9,825.9,258.3z"/>
		<path d="M197.2,41.2c0.2-0.5,0.3-1.1,0.5-1.6c0.5,0.6,1.1,1,1.4,1.7c0.1,0.2-0.6,0.8-0.9,1.2C197.9,42,197.6,41.6,197.2,41.2z"/>
		<path d="M961.5,204.7c-0.1,0.2-0.3,0.4-0.4,0.6c-0.2-0.3-0.5-0.6-0.7-0.9c0.2-0.1,0.5-0.3,0.7-0.3
			C961.2,204.2,961.4,204.5,961.5,204.7z"/>
		<path d="M959.6,159.3c-0.3,0-0.6,0.1-0.8,0c-0.2-0.1-0.2-0.5-0.2-0.7c0.4,0,0.9,0,1.3,0C959.8,158.8,959.7,159.1,959.6,159.3z"/>
		<polygon points="551.7,48.8 552.4,48.9 552,49.4 		"/>
		<path d="M547.8,216.6c-0.2-0.2-0.4-0.4-0.5-0.6c0.4-0.2,0.8-0.3,1.2-0.5c0,0.3,0.2,0.6,0.1,0.7
			C548.4,216.5,548.1,216.5,547.8,216.6z"/>
		<polygon points="949.7,186.8 950.3,186.9 950,187.4 		"/>
		<path d="M893.8,129.1c-0.2,0.1-0.5,0.3-0.7,0.4c-0.1-0.4-0.2-0.8-0.2-1.2c0.3,0,0.6,0,0.8,0.1
			C893.8,128.5,893.8,128.8,893.8,129.1z"/>
		<path d="M865.9,266.9c-0.3,0-0.5,0-0.8-0.1c0.1-0.3,0.3-0.7,0.4-1c0.2,0.1,0.5,0.3,0.6,0.4C866.2,266.4,866,266.7,865.9,266.9z"/>
		<polygon points="817.2,267.7 817.1,268.4 816.6,268 		"/>
		<path d="M821.8,359.9c-0.3-0.4-0.5-0.9-0.8-1.3c0.5-0.1,1-0.3,1.5-0.2c0.2,0,0.5,0.6,0.4,0.6C822.6,359.3,822.2,359.6,821.8,359.9
			z"/>
		<path d="M307.5,385.2c-0.1,0.2-0.3,0.4-0.4,0.7c-0.3-0.3-0.5-0.6-0.8-0.9c0.2-0.1,0.5-0.3,0.7-0.3
			C307.1,384.7,307.3,385,307.5,385.2z"/>
		<path d="M277.1,47.4c-0.2-0.2-0.5-0.4-0.5-0.6c0-0.2,0.2-0.4,0.4-0.7c0.3,0.3,0.6,0.6,0.8,0.9C277.5,47.2,277.3,47.3,277.1,47.4z"
			/>
		<path d="M259.3,71.9c-0.2-0.1-0.4-0.3-0.7-0.4c0.3-0.3,0.6-0.5,0.9-0.8c0.1,0.2,0.3,0.5,0.3,0.7C259.8,71.6,259.5,71.8,259.3,71.9
			z"/>
		<path d="M838,175c0.1,0.2,0.3,0.5,0.3,0.7c0,0.2-0.3,0.4-0.5,0.6c-0.2-0.4-0.4-0.7-0.5-1.1C837.5,175.1,837.7,175,838,175z"/>
		<path class="st0" d="M84.3,859.8c-0.6,5.2-0.4,8.7-1.5,11.9c-4.4,12.9-9.1,25.6-13.8,38.4c-1.2,3.2-2.6,6.6-6.8,5.9
			c-4-0.7-4.8-4.2-5.1-7.6c-0.8-9.5-0.7-18.4,7.8-25.3c3.3-2.7,4.9-7.7,7-11.8C75.5,864.5,75.8,864.1,84.3,859.8z"/>
		<path class="st0" d="M59.5,766c1.1,2.1,2.7,4.5,3.7,7.1c2.4,6.2,4.6,12.4,6.7,18.7c0.7,2.2,1.3,4.5,1.2,6.7c-0.3,5-4.3,6.8-8.4,4
			c-11-7.3-13.6-25.7-5.3-36.6C57.6,765.9,58.1,766,59.5,766z"/>
		<path class="st0" d="M52.5,755.7c-2.6-1.2-5.4-2.1-7.6-3.8c-2.4-1.8-1.9-6.9,0.6-8.7c3.2-2.4,5.8-0.6,7.2,2.3
			c1.3,2.7,1.5,5.9,2.2,8.8C54.1,754.8,53.3,755.2,52.5,755.7z"/>
		<path class="st0" d="M91,923.2c-0.5-0.3-1-0.6-1.5-0.8c0.3-0.4,0.6-0.9,1-1.3c0.1-0.1,0.7,0.3,0.7,0.4
			C91.3,922.1,91.1,922.7,91,923.2z"/>
		<polygon class="st0" points="117.7,833.2 118,832.6 118.3,833.1 		"/>
		<path class="st0" d="M760.3,236.5c-0.5-3.7-1.1-6.6-1.2-9.4c-0.1-2.9,0.9-5.5,4.4-5.4c3.6,0.1,5.4,2.6,5.3,6
			C768.7,232,766.6,235.1,760.3,236.5z"/>
		<path class="st0" d="M777.1,189.6c7.5-7.3,11-6.2,12.6,3.2C784.7,194.4,781.4,190.6,777.1,189.6z"/>
		<path class="st0" d="M780.9,176.4c1.2-3.7,2.1-6.7,3.1-9.7c4.2,0.2,4.9,2.7,4.6,5.4C788.2,175.6,786.1,177.4,780.9,176.4z"/>
		<path class="st0" d="M778.9,123.1c-0.1,6.9-3.1,8-8.5,7.5C771.2,125.4,774.1,124.2,778.9,123.1z"/>
		<path class="st0" d="M802.1,223.5c0.9,1.9,1.9,3.9,3.1,6.6c-4.4,0-7.8,0-11.3,0C796.6,227.9,799.3,225.7,802.1,223.5z"/>
		<path class="st0" d="M802,122c-1.6,0.3-3.1,0.9-4.7,1c-0.8,0.1-1.7-0.6-2.7-1.1c2.9-3.7,5.1-0.2,7.5,0.2
			C802.1,122.1,802,122,802,122z"/>
		<path class="st0" d="M762.4,200.7c0.6-0.2,1.2-0.7,1.6-0.5c0.4,0.2,0.5,1,0.8,1.6c-0.6,0.2-1.2,0.7-1.6,0.5
			C762.8,202.1,762.6,201.3,762.4,200.7z"/>
		<path class="st0" d="M759.7,267.5c-0.3,0-0.6,0-0.9-0.1c0.2-0.5,0.3-0.9,0.5-1.4c0.2,0.2,0.6,0.3,0.7,0.6
			C760,266.8,759.8,267.2,759.7,267.5z"/>
		<path class="st0" d="M764.7,79.7c-0.3-0.1-0.5-0.2-0.8-0.3c0.3-0.4,0.6-0.7,0.8-1.1c0.2,0.2,0.5,0.5,0.4,0.7
			C765.2,79.3,764.9,79.5,764.7,79.7z"/>
		<path class="st0" d="M806.3,187.2c0.1-0.3,0.2-0.5,0.3-0.8c0.3,0.3,0.7,0.5,1,0.8c-0.2,0.2-0.4,0.5-0.7,0.5
			C806.8,187.7,806.5,187.4,806.3,187.2z"/>
		<path class="st0" d="M774.6,243.3c0,0.3,0,0.6-0.1,0.7c-0.2,0.2-0.5,0.1-0.8,0.2c0-0.4,0.1-0.8,0.1-1.2
			C774.1,243.2,774.4,243.2,774.6,243.3z"/>
		<path class="st0" d="M779.6,149.8c-0.3,0-0.5,0-0.8-0.1c0.1-0.4,0.3-0.8,0.4-1.2c0.2,0.2,0.5,0.3,0.6,0.5
			C779.9,149.3,779.7,149.6,779.6,149.8z"/>
		<path d="M17.8,473c2-5.2,3.3-8.4,4.7-12C27,466.9,27,466.9,17.8,473z"/>
		<path class="st0" d="M943.2,68.6c-6.1,2.6-9.5-0.5-12.6-5.2C938.1,60.4,939.4,60.9,943.2,68.6z"/>
		<path class="st0" d="M894.4,48.1c1.4,1.8,2.7,3.6,4.1,5.4c-0.6,0.5-1.1,1-1.7,1.5c-1.5-1.7-3-3.4-4.6-5.2
			C892.9,49.2,893.7,48.7,894.4,48.1z"/>
		<path class="st0" d="M891.6,10c1.1,1.5,2.1,2.2,2.1,2.8c0,0.8-0.7,1.9-1.4,2.3c-0.4,0.2-2.1-0.7-2.1-1
			C890.3,13,890.9,11.9,891.6,10z"/>
		<path class="st0" d="M916.6,51.1c-0.3-1.4-0.6-2.8-0.9-4.2c0.6-0.1,1.1-0.2,1.7-0.4c0.3,1.4,0.6,2.8,0.9,4.2
			C917.8,50.8,917.2,51,916.6,51.1z"/>
		<path class="st0" d="M913.6,41.3c-1-1.1-1.9-1.6-2-2.3c-0.1-0.5,0.8-1.2,1.3-1.8c0.4,0.4,1.2,0.7,1.3,1.2
			C914.3,39,913.9,39.8,913.6,41.3z"/>
		<path class="st0" d="M941.4,80.1c-0.3,0-0.6,0-0.9,0c0.2-0.4,0.3-0.9,0.5-1.3c0.2,0.2,0.6,0.3,0.6,0.5
			C941.7,79.5,941.5,79.8,941.4,80.1z"/>
		<polygon class="st0" points="871.9,46.7 872.4,47.1 871.8,47.3 		"/>
		<path class="st0" d="M859.4,9.7c0.2-0.1,0.5-0.2,0.7-0.4c0.1,0.4,0.1,0.8,0.2,1.2c-0.3,0-0.6,0.1-0.8-0.1
			C859.4,10.3,859.5,10,859.4,9.7z"/>
		<path class="st0" d="M234.1,191.9c-0.9-0.8-2-1.3-2-1.9c-0.1-0.6,0.8-1.8,1.4-1.9c0.6-0.1,1.8,0.7,1.9,1.3
			C235.5,190,234.6,190.8,234.1,191.9z"/>
		<path class="st0" d="M230.3,138.3c-0.8,1.1-1.2,1.8-1.7,2.5c-0.6-0.6-1.3-1.1-1.6-1.8c-0.2-0.4,0.5-1.5,0.7-1.5
			C228.5,137.5,229.2,137.9,230.3,138.3z"/>
		<path class="st0" d="M239.4,104.2c-0.3,0.5-0.5,1.3-0.8,1.3c-0.4,0.1-1-0.5-1.5-0.7c0.3-0.5,0.5-1.2,0.9-1.3
			C238.4,103.4,238.9,104,239.4,104.2z"/>
		<path class="st0" d="M239.1,117.3c-0.1-0.3-0.3-0.5-0.4-0.8c0.5-0.1,0.9-0.1,1.4-0.2c0,0.3,0,0.7-0.2,0.8
			C239.8,117.3,239.4,117.3,239.1,117.3z"/>
		<path class="st0" d="M537.3,12.8c-0.5,1.3-1,2.6-1.6,3.9c-0.8-0.3-2.2-0.8-2.2-0.9c0.4-1.4,1-2.7,1.5-4
			C535.9,12.1,536.6,12.5,537.3,12.8z"/>
	</g>
</g>
</svg>
