<?xml version="1.0" encoding="utf-8"?>
<!-- Generator: Adobe Illustrator 19.1.0, SVG Export Plug-In . SVG Version: 6.00 Build 0)  -->
<svg version="1.1" id="Layer_1" xmlns="http://www.w3.org/2000/svg" xmlns:xlink="http://www.w3.org/1999/xlink" x="0px" y="0px"
	 viewBox="0 0 2448 3264" style="enable-background:new 0 0 2448 3264;" xml:space="preserve">
<style type="text/css">
	.st0{fill:#FFFFFF;}
</style>
<g>
	<g>
		<path class="st0" d="M2364,2c18.7,0,37.3,0,56,0c0.4,3.2,0.8,6.4,1.3,10.1c-2.1,0-4.1,0.6-5.1-0.1c-7.8-5.1-13.4-0.3-18.5,4.4
			c-1.8,1.7-3.1,5.3-2.6,7.6c0.3,1.5,4.1,2.8,6.5,3.3c3.3,0.6,6.8,0.4,10.5,0.5c-1.7,13.4-11.4,8.6-18.3,9.7c0,2.9,0,5.3,0,7.5
			c-3.5,1.2-6.5,2.2-11,3.8c4,4.9,7.2,8.6,10.2,12.4c3,3.9,3,8.2,0.5,12.1c-2.6,4-6.6,2.5-10,1.3c-7.5-2.8-15-5.6-22.2-9.1
			c-8-3.8-11.4-4-17.7,2c-3.8,3.6-6.9,8.1-10.2,12.2c-3.5,4.4-6.6,9.1-10.2,13.5c-3.6,4.5-3.6,7.1,1.1,10.7c2.8,2.1,5.9,3.9,9,5.8
			c-7.3,7.7-7.6,8.6-4.8,18.2c0.9,3.2,2.3,6.4,2.6,9.6c1.2,12.3,8.6,19.6,18.8,25.2c13.6,7.5,22.8,4.4,27.7-10.2
			c2-5.9,5.3-9.8,11.6-11c5.7-1.1,10.7-3.2,14-8.6c1-1.6,3.8-2.7,5.9-2.9c11-0.8,20.6,1.2,23.4,12.7c5.2,1.2,9.3,2.1,13.5,3.1
			c0,4,0,8,0,12c-3.5,1.8-7,3.9-10.6,5.4c-7.2,3-9.8,1.2-9.7-6.4c0-1.9,0-3.8,0-5.4c-8.4-2.6-15.6-2.3-22.3,2.8
			c-1.8,1.4-4.3,1.7-6.4,2.8c-5.5,2.7-6,8-0.9,11.4c2.1,1.4,4.6,2.1,7.2,3.2c-0.6,4.1-1.1,7.5-1.7,11.3c2.8,1.5,5.4,2.9,7.8,4.2
			c8.2-8.9,9.5-9.7,21.7-10.9c4.9-0.5,9.9-0.3,14.9-0.5c0,6,0,12,0,18c-2.2,1.2-5.9,2-6.2,3.6c-1.2,5.6-4.8,9.3-8,13.4
			c-2.7,3.5-2.3,7.1,1.6,9.3c4,2.3,8.4,3.8,12.6,5.7c0,8,0,16,0,24c-9.5,5.2-20.4,8.3-26.2,18.7c-0.7,1.3-2.6,2.1-4.1,2.7
			c-9.2,3.8-18.4,7.4-27.6,11.1c-4.6,1.9-9,4-11.4,9.3c4.8,4.1,10,5.8,15.8,4.6c14.9-3,27.9-10.1,39.2-20.1c4.4-3.9,8.6-6,14.3-4.4
			c0,9.3,0,18.7,0,28c-5.3-3.5-9.3,1.3-13.9,2c-17,2.4-30.9,12.1-46,18.7c-5.1,2.3-9.1,6.2-9.3,13.1c3.3-0.2,6-0.8,8.4-0.3
			c2.9,0.6,5.4,2.7,8.3,3.2c2.7,0.5,6.4,0.9,8.4-0.5c7.7-5.4,14.3-2.1,21.7,1.2c-2.6,6-7.7,7.6-12.4,10c-3.5,1.8-7.1,3.6-10.1,6
			c-3.1,2.5-4.1,6.7-1.9,9.9c1.4,2,5,2.7,7.8,3.1c1.8,0.3,3.8-0.9,5.7-1.5c8.5-2.6,16.9-2.9,25.5-0.3c2.5,0.8,5.2,0.9,7.8,1.3
			c0,11.3,0,22.7,0,34c-12.8,0-25.6,0-39.1,0c0.9,6.3,2.4,12.5,2.5,18.6c0.1,5.7,1.5,10,6,13.9c7.3,6.4,7.7,11.2,1.8,19.1
			c-3.2,4.4-7.6,8-11.9,12.4c2.6,2,4.9,3.8,7.3,5.5c3.3,2.3,4.8,5.5,4.5,9.4c-0.8,8.9-1.2,17.9-2.7,26.7c-0.7,4.5-0.5,8.3,1.5,12.5
			c2,4.1,4.5,8.7,4.3,13c-0.4,7.5,0.4,14.4,5.7,21.2c-4.5,0.1-7.7,1.1-6.7,5.5c3.2,13.7,6.5,27.4,9.9,41.1c0.4,1.5,1.9,2.7,2.7,4.2
			c1.4,2.6,3.2,5.2,3.7,8.1c1.2,6.1,5,9.1,10.4,10.8c0,881.2,0,1762.4,0,2643.8c-816,0-1632,0-2448,0c0-431.9,0-863.9,0-1295.8
			c15-7.9,30.4-15.1,43.7-26c6-4.9,12.4-9.5,16.3-18.1c-8,1.7-14.7,3.2-21.4,4.7c-0.2-0.7-0.3-1.4-0.5-2.1c2.7-1.2,5.2-3,8-3.4
			c10.2-1.6,18.7-6.8,27.2-12.1c8.8-5.4,17.6-10.9,25.9-17c5.3-3.9,10.2-8.6,14.5-13.6c8-9.3,14-19.5,8.7-32.5
			c-0.2-0.6-0.6-1.2-1-1.9c-8-4.8-16.8-1.6-25.3-1.9c-11.9-0.5-20.5,4-24.9,15.7c-1.9,4.9-4.8,9.5-7.4,14.1c-2.4,4-4.7,8.1-7.8,11.6
			c-3.2,3.6-7.1,6.6-13.3,4.6c13.8-10.8,17.2-21.8,12.7-38.5c5.3-6.2,10.5-12.1,15.4-18.3c2.1-2.7,6.1-6.1,2.4-9.5
			c-3.8-3.5-7.5,0.4-10.4,2.9c-5.2,4.6-9.9,9.9-15,14.6c-13.6,12.5-28.9,21.3-47.8,22.6c0-9.3,0-18.7,0-28c3.3-4.9,6.8-9.7,9.8-14.8
			c4-6.8,7.6-13.7,11.3-20.3c3.6,1.8,6.5,3.4,9.5,4.8c3.2,1.5,6.5,3,9.9,4c1.3,0.4,3.9-0.5,4.2-1.4c0.6-1.5,0.3-3.9-0.5-5.2
			c-1.3-2-3.5-3.5-5.3-5.2c9.5,1.9,15.7-2.6,21.5-8.7c11-11.5,22.4-22.8,33.5-34.2c1.3-1.3,2-3.2,3.4-5.4c-4.6-2.1-8.5-4-12.4-5.8
			c2.3-1.4,4.2-1.4,6-1c6.5,1.4,12.9,2.9,19.5-0.7c2-1.1,5.7,0.3,8.3,1.4c7.9,3.5,15.3,3.4,22.7-1.6c3.2-2.1,7.4-2.7,11-4.2
			c8-3.2,16.2-5.9,23.8-9.9c6.1-3.1,6.3-5.5,3.8-11.4c-2.6-6.1-5.4-12.2-8.3-18.2c-1-2-2.6-4.9-4.3-5.1c-9.4-1.5-18.4-6.6-28.2-4
			c-16.5,4.3-32.9,9.2-45.9,20.9c-7.9,7.1-15.2,14.9-22.6,22.5c-5.4,5.6-8.1,5.5-14.2,0.5c-8.2-6.7-16.3-13.6-22.8-22.1
			c-2-2.6-4.7-4.8-7.5-6.5c-6.5-4.1-10.6-9.9-13.2-17c-1.1-2.9-2.8-5.5-4.2-8.3c-3.7,2.2-6.2,3.7-8.7,5.2c0-6.7,0-13.3,0-20
			c5.3,3.9,10.4,8.3,16.1,11.5c5.7,3.2,11.9,1,14.6-4.1c2.1-3.9-0.1-8-6.3-11.8c-0.5-0.3-1.3-0.1-2.6-0.2c-1,1.9-2.2,4-3.9,6.9
			c-6.3-7.1-12.1-13.8-18-20.4c0-2.7,0-5.3,0-8c4.8-2,2.9-4,0-6c0-7.3,0-14.7,0-22c2.9,6.7,5.8,13.4,8.7,20.1
			c12.1,5.1,14,4.6,20.4-6.5c1.5-2.6,2.5-5.4,3.6-8.2c2.4-6,0.4-11-3.8-15.5c-4.2-4.5-9.4-5-14.7-2.9c-4.9,1.9-9.5,4.7-14.2,7.1
			c0-7.3,0-14.7,0-22c0-4.7,0-9.3,0-14c0-38,0-76,0-114c3.6-11.4,7.4-22.8,10.6-34.3c5.9-21.2,11.1-42.5,17.1-63.7
			c5.4-19.2,11.8-38.1,13.5-58.3c1-11.2,4.3-22.2,6.7-33.3c2.1-9.4,4.9-18.7,6.3-28.3c0.8-5.4,0.4-11.3-1-16.6
			c-6.8-25.7-14.5-51.3-21.2-77c-3.1-12.1-7.1-23.6-13.1-34.4c-1.5-2.8-2.7-5.7-4.7-10c7,1,12.2,1.7,17.4,2.4
			c10,1.3,17.3,6.2,21.8,15.4c6.4,12.8,13.1,25.5,19.7,38.2c1.6,3.1,3.5,6.1,6.5,11.4c7.1-13.7,8.4-26.6,12-38.8
			c3.8-12.8,7-25.7,10.2-38.6c3.1-12.3,8.4-24.1,8.6-37.9c-2.5,0.4-4,0.2-5,0.9c-6.6,4.1-11.3,2.9-16.1-3.5
			c-4.4-5.8-8.8-5.3-15.1-0.3c-1.4,1.1-3.9,2.2-5,1.7c-1.3-0.7-2.1-3.1-2.5-4.9c-1.1-4.8-1.6-9.7-2.8-14.5
			C59,1020,60.7,1008.8,64,998c2.6-8.3,10.3-12,17.7-15.2c9-3.9,15-10.8,20.1-18.7c3-4.6,3-9,1.9-14.3c-3.4-16.3-6.6-32.6-9.2-49
			c-2.9-18.4,1.8-36.1,5.6-54.8c1.8,1.3,3,2,3.9,2.8c13.1,12.7,23.1,27.5,30.1,44.3c2.9,6.9,5.4,14.1,11,19.9
			c1.1-1.2,2.1-1.8,2.3-2.6c4.6-17,9.2-34.1,13.4-51.2c0.8-3.1,0.4-6.7-0.2-9.8c-3-14-6.3-27.9-9.5-41.9c-2-8.7-4.4-10-12.5-7
			c-1.2,0.5-2.4,1.4-3.7,1.6c-2.8,0.3-6.7,1.4-8.1,0c-1.6-1.5-1.1-5.4-1.1-8.2c0-1.6,0.8-3.2,1.2-4.8c3.8-14.5,8.1-28.9,11.2-43.6
			c1.8-8.3,4.1-14.6,13.9-15.2c2.1-0.1,4.1-2.5,7.2-4.4c1.5,9.8,4.7,18.2,0.8,27.3c-2.3,5.4-4.6,11.3-5.1,17.1
			c-1.9,21.4,0.7,42.5,6,63.3c1.7,6.6,4.7,12,9.5,17.1c8.7,9.2,17.3,18.7,23.9,29.3c8.7,14.1,15.5,29.4,23.1,44.2
			c1.2,2.3,2.2,5,4.1,6.7c1.2,1.1,3.7,0.8,6.7,1.3c-0.8-3.1-1-4.7-1.6-6.2c-5-11.6-10.4-23.1-14.9-34.9c-3.2-8.5-8.1-16.8-6.3-26.8
			c0.3-1.8-1.2-4.7-2.8-5.8c-4.2-3.1-5.1-6.5-2.9-11.2c0.8-1.7,1.1-4,0.7-5.8c-1.6-7.4-2.6-15.2-5.5-22.1c-9-21.5-11.1-44.5-15-67.1
			c-1-6-1.8-13,5.2-20.7c2,3.9,3.6,7.1,5.7,11.3c7.4-11.4,8.3-21.3,6.4-31.8c-5.1-29.2-10.3-58.4-15.4-87.6c-0.4-2,0-4.2,0-6.2
			c4.5,2.4,7.5,5.3,9.9,8.7c2.7,3.8,4.2,8.5,7.2,12c4.5,5.2,9.5,10.2,15,14.3c4.5,3.4,7,2.3,9.7-2.5c4.5-8.3,5.7-16.7,1-25.7
			c-8.8-17-14.3-35.2-18.7-53.7c-7.8-32.1-8.9-64.5-4.2-97.1c0.3-2.4,0.1-6-1.4-7.3c-3.5-3.3-5.9-6.6-4.3-11.3
			c1.4-4.3,2.9-9,5.7-12.3c7.8-9.2,8-11.4,0.2-18.5c1.9-16.9,3.8-33,5.9-51.4c6.3,5.6,11.1,9.8,16.7,14.8c0.6-9.1-3.3-15.1-8.8-20.1
			c-5.3-4.9-8.1-10.7-7-17.8c2.5-16.1,5.2-32.2,7.7-48.3c0.8-5,3.5-7.6,8.2-8.9c6.2-1.7,11.8-1.3,16.8,3.2c3.2,2.9,6.7,5.5,10.3,7.8
			c25.1,16.6,53.9,21.1,82.8,23.5c25.9,2.2,50.9-4,74-16.5c1.3-0.7,3-0.8,6.2-1.6c-1,5.3-1.7,9.3-2.4,13.4
			c-1.5,7.8-4.3,15.6-4.3,23.4c0,8.8,3,17.5,3.9,26.4c1.2,11.4,8.4,20.1,12.5,30.3c1.2,2.9,4,5.2,7.3,3.5c5-2.5,10.4-5.3,11.4-11.5
			c1-6.5,2.6-13.5,1.3-19.8c-3.7-18.1,0.9-35.9,0.1-53.8c-0.2-5.5,1.1-11,1.9-18.2c2.3,2.9,4,4.3,4.9,6.2
			c4.4,9.3,8.9,18.5,12.6,28.1c2.6,6.7,5.5,14,5.4,21c-0.1,9.2-1.3,18.1,0.2,27.5c1.6,10,0.3,20.6,0.1,30.9
			c-0.2,5.7-0.9,11.8-6.3,15c-5.7,3.3-5.4,7-3.6,12.5c6.7,20.1,9.6,40.8,9.5,61.9c0,4.8-2.5,10.4,4.3,12.8c4.8,1.7,7.6-0.3,11.1-8.6
			c8.7-20.9,16.9-42,25.7-62.9c2.6-6.1,6.3-11.7,9.8-17.3c1-1.6,3.4-2.2,5.2-3.3c0.5,5.1-0.3,9.3-1.7,13.2
			c-7.7,21-15.5,41.9-23.3,62.8c-1.1,2.9-3,5.9-0.3,10.5c7.5-4.4,15.2-7.6,21.5-12.8c8.6-7.2,16.1-15.7,24.1-23.7
			c4.6-4.6,6.9-4.6,11.5,0.6c3.5,4,7,8,10.2,12.3c6.7,8.9,15,11,25.6,7.4c31.5-10.8,63-21.4,94.6-31.9c6.6-2.2,9.5-7,11-13.1
			c1.8-7.3-1.3-11-8.9-10.1c-10,1.1-19.5,4-27.6,10.6c-2,1.7-4.2,3.4-6.6,4.5c-5.2,2.6-7.7,1.5-10.2-3.8c-1.5-3.3-3.2-6.6-4.2-10.1
			c-1.4-5-3.9-7-9.4-6.4c-5.8,0.6-7.6-1.8-6.7-7.8c1.3-8.1,4-15.6,11.1-20.5c6.9-4.7,11.2-11.1,14.7-18.5
			c4.8-10.2,10.4-20.1,15.7-30.1c-1.5-13.4,11.3-18.7,16.2-28.5c0.6-1.2,1.4-2.3,2-3.5c5.2-10.8,10.5-21.5,15.5-32.4
			c1.3-2.9,2-6.4,1.9-9.6c-0.3-8.9-4.1-11.1-12.3-7.9c-9.2,3.6-17,9.3-23.4,16.6c-5.9,6.7-10.9,14.2-16.7,21c-2,2.3-5.2,4.6-7.9,4.7
			c-1.8,0-4.1-3.6-5.5-6.1c-2.3-4-3.1-9.1-6-12.5c-8.1-9.5-12.5-21.2-18.8-31.7c-1-1.7-1.9-3.6-3.2-5c-2.6-2.7-5.5-2.6-7.4,0.7
			c-1.3,2.3-1.6,5-2.5,7.5c-1.2,3.4-1.7,7.4-3.9,10.1c-4.3,5.2-6.5,10.7-6,17.4c0.4,4.9-2,8.7-6.1,10.6c-7.2,3.2-10.4,8.2-11.3,16.1
			c-0.8,7-12.7,14-18.7,10.9c-4.7-2.4-8.9-7.1-11.3-11.8c-2.1-4.1,3.3-6.5,6.1-9.2c8.5-8.4,18-16.1,25.3-25.5
			c17.2-22.4,26.5-48.3,30.7-76.1c0.3-2.1,0-4.2,0-6.3c-3.3,2.5-5.7,5.5-6.3,8.7c-1.8,9.8-7.1,17.7-12.5,25.8
			c-5.4,8.3-10.7,16.8-15.3,25.5c-4.3,8.2-6.9,17.5-11.9,25.2c-5,7.7-11.6,14.5-18.4,20.7c-6.5,6-7,5.4-2.6,13.7
			c6.3,11.8,5.4,17.4-4.4,26.5c-1.2,1.1-2.5,2.2-3.8,3.3c-9.8,8.7-18.5,18.1-23.3,30.7c-0.9,2.4-3.1,4.4-4.8,6.5
			c-0.6-0.3-1.3-0.6-1.9-1c1.5-14,2.5-28.2,4.7-42.1c2.6-16.4,3.1-16.3,14.4-24.5c-0.2-0.6-0.3-1.6-0.7-1.8c-8.3-3.7-8.2-9.7-6-17.4
			c4-13.7,7.2-27.7,10.5-41.6c1-4.4,3.2-7.8,7.4-8.5c15.2-2.8,25.1-12.8,34.7-23.7c7-8.1,14.4-15.9,17.7-26.4
			c5.7-17.8,9.9-36.1,10.9-54.8c0.6-11.9,3.6-23,7.8-33.9c2.5-6.4,4.5-21.6,3.3-28.4c-2.5,2.8-4.8,4.6-6,7
			c-3.5,6.8-7.4,13.6-9.4,20.9c-2.7,9.5-8.7,14-17.5,17.3c-13.9,5.2-26.2,13-35.6,24.9c-2.6,3.2-4.9,8.6-10,6.2
			c-5.2-2.4-2.3-7.5-1.8-11.6c1.5-13.2,8.1-24.6,12.7-36.6c2.5-6.4,5.8-9.9,12.2-11.4c11-2.6,20.7-7.8,28-16.4
			c6.4-7.6,12.6-15.5,18.1-23.8C605.3,49.9,617,32,620.7,10.3c0.5-2.9,2.2-5.6,3.3-8.3c24.7,0,49.3,0,74,0c0.6,4.2,0.2,9,2.1,12.4
			c3,5.2,3.7,10.2,3.8,16c0.1,4,3.2,6.3,7.6,5c1-8.1,1.9-15.7,2.9-23.7c6.8,2.8,6.6,2.8,6.8,8.5c0.6,17.6,1,35.2,2,52.7
			c0.9,14.8,2.6,29.5,3.6,44.3c1,15.1,2.7,30.4,1.9,45.5c-0.9,16.6,4,33.1-0.2,49.7c3.4,14.3,2.5,28.9,2.8,43.5
			c0.3,12.5,2.3,25,2.9,37.6c0.6,14.9,0.3,29.9,0.7,44.9c0.3,9.6,1.1,19.3,1.7,28.9c1.3,20.9-1.7,41.8,1.7,62.7
			c2,11.9,6.9,15.5,18.5,11.5c15.7-5.4,31.5-10.8,47.3-16.2c12-4.1,24-8.1,35.9-12.3c29.9-10.3,59.7-20.8,89.7-31.1
			c5.3-1.8,11-2.8,16.3-4.6c34.5-11.2,69.3-21.4,103.4-34.2c27.3-10.3,56.1-16.7,84.3-24.8c7-2,14.1-3.9,21.1-6.2
			c16.2-5.2,32-11.7,48.5-15.7c23.3-5.6,45.2-15.5,68.5-20.5c2.2-0.5,4.3-1.9,6.1-3.3c1.1-0.9,2.5-3,2.2-4c-0.6-1.6-2.2-3.4-3.8-3.9
			c-2.8-0.8-5.9-0.6-8.9-1c-4.3-0.6-8.6-1-12.7-2.3c-4.5-1.4-7.2-4.8-6.5-9.9c1-7,7.4-13.4,14.8-13.7c7.3-0.3,14.7,1.2,21.9,0.4
			c8.1-1,14.2,1.4,20,6.7c1.9,1.8,5.4,3,7.9,2.7c4.4-0.6,7,1.3,9.6,3.9c2,2,4,4,7.3,7.3c1.2-2.2,2-3.3,2.5-4.6
			c4.8-12.7,10.2-25.3,14.3-38.2c2.3-7.2,2.7-15,3.6-22.6c0.3-2.6-0.8-5.3-0.7-7.9c0-4.5,0.1-9.1,0.7-13.6
			c1.3-9.5,3.3-18.9,4.4-28.4c1.6-13.5,2.4-27,3.8-40.5c1.1-10.8,3.6-21.6,3.6-32.4c0-5.9,1.3-10.9,2.4-16.4
			c2.2-11.4,3.7-22.9,4.7-34.5c0.5-5.9-0.6-11.9-0.9-17.9c270,0,540,0,810,0c-0.6,1.2-1.2,2.4-1.7,3.6c-4.2,9.9-10.8,16.5-22.4,16.7
			c-1.9,0-3.7,1.7-7.9,3.8c5.2,1.9,8,3.3,11,4c7,1.8,14.3,2.5,21,5c9.1,3.3,17.9,4.3,27.2,1.2c3.7-1.2,7.8-2.5,11.6-2.1
			c5.9,0.6,10.4-1.1,14.6-4.8c3.7-3.2,8-5.5,12.8-4.1c7.5,2.2,14.2-0.3,21.3-1.6c8.7-1.7,18.3-3.6,25.4,5.5c3.6,4.6,11,2.8,13.9-2.9
			c1.2-2.3,1-5.3,2.1-7.6c1.3-2.9,2.9-7.3,5.2-7.8c6.6-1.6,13.6-2.2,20.4-2.1c4.5,0.1,8.9,2.2,13.5,3
			C2358.4,13.8,2359.2,13.3,2364,2z M311.9,576c1.9-3.7,7.9-5.1,6.8-11.3c-3,1.5-5.3,2.7-7.6,3.8c-2.1,1-4.3,2.1-7.7,3.7
			c3.8,1.6,6.2,2.7,8.6,3.7c0.8,9.1,0.8,9.1,8.4,5C317.1,579,314.5,577.5,311.9,576z M270,648.1c2.3,9.3,4.5,18.7,7,28
			c1,4,3.3,6.8,9.1,6.6c-4.3-12.6-7.5-24.8-16.2-34.5c-0.4-3.1-0.8-6.1-1.2-9.2c-0.6,0.1-1.3,0.3-1.9,0.4
			C267.8,642.3,268.9,645.2,270,648.1z M316.1,1116c3.7-3.2,7.5-6.2,11.1-9.5c20.6-18.3,40.5-37.7,62.1-54.7
			c11-8.6,12.7-20.9,18.9-31.4c0.1-0.2-0.8-0.9-0.9-1c-4.9,1.4-9.5,2.9-14.2,4.2c-4.1,1.1-5.2,3.5-4.3,7.5c0.7,2.8,1.1,5.8,1.3,8.7
			c0.1,0.7-1,1.5-1.8,2.5c-1.9-2.1-3.6-3.9-6.1-6.7c-4.8,9.3-13.7,11-22.2,14.7c-4.3-3.2-8.8-6.6-13.3-10c-3-2.4-6-2.8-9.1-0.3
			c-7.5,6-15.2,11.8-22.2,18.3c-3.3,3.1-5.6,7.4-7.9,11.4c-0.9,1.5-1,3.9-0.6,5.7c4,14.8,3.3,29.5-0.4,44.2c-1,4.1-2.8,6.2-6.9,7.3
			c-4.7,1.2-9.2,3.3-14.5,5.3c3.1,4.7,6.3,6.3,10.6,6.7c4.6,0.4,9.3,0.9,13.6,2.3c7.1,2.3,13.5,0.8,18.8-3.6c4.8-4,8.8-9,12.8-13.9
			c6.6-8.2,13.1-16.6,19.3-25.1c4.2-5.7,8.9-7.4,15.5-4.6c3.2,1.3,6.9,2.6,9.7-1c-2.6-4.5-5-8.7-7.7-13.5
			c-6.4-0.6-12.9,0.2-18.6,5.5c-6.5,6.1-13.7,11.6-20.4,17.5c-6.8,6-13.3,12.1-22.8,13.5L316.1,1116z M372.1,1175.8
			c-7.8-1.8-15.6-3.2-23-5.6c-6-1.9-10.9-0.9-16,2.4c-13.7,8.8-28,16.7-41.1,26.3c-13.9,10.2-28.1,20.3-37.5,35.4
			c-5.3,8.5-11.4,16.4-16.8,24.8c-1.9,2.9-3.1,6.2-4.6,9.5c2.3,1.6,3.9,2.3,5,3.4c11.1,11.7,24.6,13.2,39.5,9.8
			c17.2-3.9,32.5-12,46.7-22c7-4.9,13.7-9.2,22.5-9.5c2.8-0.1,5.6-1.9,8.4-3.1c14.4-5.9,28.6-12.6,43.3-17.5
			c13.8-4.6,27.9-9,42.9-8.5c7.3,0.2,8.5-1.2,9.5-8.6c1.1-8.5,0-17.3,4.3-25.3c0.7-1.3,0.2-3.3,0.3-4.9c0.5-6,1.1-11.9,1.4-17.9
			c0.1-2.1-0.5-4.3-0.9-7.6c-5.9,1.8-10.1,0-14.1-3.5c-1.9-1.7-5.6-2.3-8.4-2.1c-13.6,0.8-27.2,1.8-40.8,3.2
			C377.7,1156.1,373.1,1161.1,372.1,1175.8z M321.6,736.8c-0.5-1.7-1.3-3-1-4.1c1.9-10.4,3.4-21,6.2-31.2c3.6-13.2,9-25.7,18.6-36
			c4.2-4.5,3.7-7.7-0.3-12.4c-1.7-2-4.2-3.2-6-5.2c-2.9-3.1-6.7-6.2-7.8-9.9c-2.4-7.9-5-15-14-17.3c-1.2-0.3-2.5-1.4-3-2.5
			c-3.8-8-9.6-13.9-17.6-17.8c-0.8-0.4-1.2-1.6-2-2.2c-8.9-6.5-11.8-18.7-22.7-23.3c-1-0.4-1.7-2-2.2-3.2c-7.1-17.6-14-35.2-21-52.7
			c-2.2-5.5-4.3-11.1-6.8-16.5c-1.3-2.9-3.8-5-7.3-3.6c-3.4,1.3-3.7,4.4-3,7.6c2.6,13.3,4.6,26.8,7.9,40c3.4,13.5,8,26.5,14.6,39
			c6.6,12.4,9.3,26.8,14.4,40.1c5.3,14,11,27.8,17.1,41.5c1.9,4.2,4.6,8.6,11.3,10.5c0-11.1,0-21.2,0-31.3
			c7.6,9.8,14.7,18.9,22.6,29c-3.5,0.6-5.1,0.9-6.7,1c-13.7,1.3-15.3,3.7-9.3,15.5c4.1,8.1,4.5,15.9,0.9,24.9
			c-6.7-6.6-8.4-16.1-17.4-20.6c-1.9,9.9,1.8,17.9,5.6,25.3c3.9,7.6,9.5,14.4,15,22.4c-4.4-1-7.1-1.6-10.3-2.4
			c4.5,15,4.5,15,1.4,34.2c-0.2,1-0.2,2-0.4,3c-1.1,5.5-1.6,11.1-7,14.9c-1.4,1-1,4.6-1.4,7c2.4,0.1,5,0.7,7.3,0.3
			c2.9-0.5,6.3-3.4,8.3-2.6c6.9,2.9,9.6-2,13.4-5.5c5.4-4.9,10.9-9.5,15.5-13.5c4.7,1.2,8.1,3.1,11,2.5c7.9-1.5,15.2-4.6,20.2-11.6
			c5.3-7.3,10.8-14.3,16.4-21.3c6-7.4,11.4-23,11-32.2c-1,0.2-2.1,0.1-2.8,0.6c-7.3,5.1-7.3,5.2-14.9,0.3c-3.8-2.5-7-2.2-9.4,1.5
			c-2,3-3.3,6.5-5.2,9.6c-1,1.7-2.5,3-3.7,4.5c-0.6-0.3-1.1-0.7-1.7-1c1.3-5.5,2.6-11,3.9-16.6c-4.8-1.4-8.2,6.2-12.2,0.6
			c0.2-0.9,0-1.8,0.4-2.1c2-1.7,4.1-3.3,6.2-4.9c5.7-4.2,5.9-6.1,0.6-12.8c-7.5,2.4-10.9,9.5-15.7,14.7c-4.9,5.3-9.7,11-9.4,19.2
			C329,734.1,326.8,736.6,321.6,736.8z M174.7,1391.2c-0.7-0.2-1.4-0.4-2.1-0.5c1.1-5.8,2.1-11.6,3.3-17.4
			c1.5-7.5,3.4-14.9,4.8-22.5c3.2-17.6-12.4-31.4-29.9-27.3c-6.3,1.5-13.1,1.8-19.6,1.7c-5.4-0.1-9.6,1.5-11.1,6.5
			c-2.7,8.9-4.9,18-6.6,27.1c-0.5,2.5,1.7,5.5,2.8,8.3c1.7,4.2,3.4,8.4,5.3,12.5c1.5,3.3,3.2,6.5,5.1,9.6c1.9,3.1,5.1,5.9,5.8,9.2
			c1.1,5.2,5,5.2,7.7,5.6c1.2,5.5,2,10.1,3.3,14.5c0.4,1.3,2.6,3,3.6,2.8c1.6-0.3,4-2,4.2-3.3c0.8-5.5,1.4-11.2,1-16.7
			c-0.4-5.4,0.5-9.4,4.2-13.6c3.2-3.6,5.8-8.2,7.1-12.8c2.7-9.9,4.4-20.1,6.6-30.1c0.2-0.8,1.1-1.4,2.5-3c2.8,5.9,1.4,11,0.4,16
			c-3.8,18.5-7.6,37.1-11.3,55.6c-0.3,1.6-0.8,3.3-0.6,4.9c1.2,10.5-1.4,19.5-9.1,27.2c-1.8,1.8-3.2,5.7-2.6,8
			c2.6,9.8-0.6,18.6-3.8,27.3c-5.2,14-9.9,28-10.5,43.6c3.8,3.5,7.3,8.2,15.1,8c5.4-11.3,11-23,16.4-34.7c0.8-1.7,0.5-3.9,0.9-5.8
			c1.2-6.8,2-13.7,3.7-20.4c2.7-10.3,6.3-20.3,9.1-30.6c0.7-2.7-0.3-5.8-0.4-8.7c0-0.9,0.1-1.8,0.2-2.5c2.8-0.7,5.3-1.4,8.3-2.2
			c-1.6-12,1.7-22.7,5.9-33.3c1.9-4.9,2.5-10.3,3.7-15.5c1.8-8.1,3.4-16.2,5.3-24.2c1.2-5.1,3.5-10,0.4-15.9c-2.3,1.7-4,3.4-6,4.2
			c-10.4,3.9-13.8,12-15.4,22.3C180.9,1373.8,177.3,1382.4,174.7,1391.2z M204.8,1255.1c-3.1-3.2-5.1-5.3-7.2-7.2
			c-7-6.6-13.7-6.4-19.7,0.8c-8.5,10.3-16.9,20.6-25.1,31.1c-6.6,8.5-6.6,9.4,1,16.5c10,9.3,20.4,18.1,30.7,27
			c1,0.8,2.4,1.9,3.5,1.8c6.8-0.9,11.7,3.5,17.7,7.3c5.9-8.6,10.7-17.2,13.5-26.7c1.2-4,1.4-8.4,1.3-12.6c-0.2-6.1,0.4-7.2,6.4-6.7
			c4.5,0.3,9.1,1.7,13.1-1.6c-0.5-5.3-3.3-8.5-7.4-10.3c-5.3-2.3-6.2-6.2-5.6-11.4c0.5-4.3,0.6-8.6,0.8-12.9
			c0.4-6.2,0.3-12.5,1.2-18.7c0.8-5.6,3-10.9,4-16.5c2.8-15,2.7-15.1-11.7-19.3c-0.5-0.1-1.2,0.4-2.3,0.7c-2.3,9.4-4.7,19-7.2,28.7
			C209.2,1234.5,210,1244.8,204.8,1255.1z M1509.8,184.9c-4.4-0.5-7.6-1.1-10.8-1.1c-36.3,0-72.6,0.2-108.9,0.2
			c-6.3,0-12.7-0.1-19,0c-4.5,0.1-8.3,1.9-11.1,5.8c-6.7,9.4-5.5,25.9,3.4,36c3.1-2.1,6.2-4.3,9.4-6.5c8.2-5.5,15.7-5.3,24.1,0.1
			c3,1.9,6.5,3,9.9,4.3c3.7,1.4,7.8,2.1,11.1,4.2c4.3,2.6,7.8,2.4,12.1,0.2c2.8-1.4,6.3-1.4,9.5-2c14.3-2.6,29.7-3.2,35-21
			c2.2-7.3,9.6-8.9,15-12.4c2.4-1.6,6.9-0.5,10.3,0.2C1505.4,194.2,1507.8,191.6,1509.8,184.9z M376.3,562.3
			c0.6-6,1.2-11.5,1.6-17.1c0.1-1.9-0.1-4.3-1.1-5.7c-4.2-6-2.3-12-0.7-18.2c4.4-16.8,13.9-30.8,24.1-44.5c1.9-2.5,3.6-5.2,6.1-8.9
			c-2.9-0.3-4.1-0.3-5.2-0.6c-1.4-0.4-2.8-1.1-4.1-1.7c5.4-18.3,5.4-18.4-5.6-23.1c-1.5,4-3.7,7.8-4.5,11.9
			c-3.1,14.6-5.8,29.4-8.7,44.1c-0.5,2.3-1.1,4.6-1.7,6.9c-3.2-6.9-2.5-14.9-10.7-18.3c-1.3-0.6-2-3.4-2.4-5.3
			c-0.9-3.9-1.9-7.8-2.1-11.8c-0.5-12.8-3-25.1-7.5-37.1c-1.3-3.6-2.8-7.2-4.2-11c-10,6.5-10.5,7.1-21.6,24.9c0-3.2,0-5.4,0-7.6
			c0-2.3,0-4.6,0-8.8c-5.7,10.1-6.7,11.6-6.7,25.9c-0.1,15.9,2,31.1,15.7,42.4c5.8,4.8,10.7,11.2,14.4,17.8
			c6.4,11.6,11.5,23.9,17.2,36C370.3,556.1,370.8,560.8,376.3,562.3z M199.4,1202.6c-2.4-14.9-3.2-30.1-15.3-41.5
			c-16.5-15.6-27-35-35-56.1c-7.8-20.5-8.5-41.7-6.8-62.9c1.1-13.1-7-20.2-14.5-28.7c-1.9,4.3-2.9,8.3-3.3,12.4c-0.4,4,0,8-0.4,11.9
			c-2.7,26.1-0.5,51.7,8,76.7c3.7,11,8.5,21.7,11.2,32.9c2.9,12,10.2,20.7,18.1,29.3C171.8,1187.9,186.1,1194,199.4,1202.6z
			 M454.7,655.2c15.1-5.2,19.8-9.1,29-23.1c1.8-2.8,3.6-5.8,6-7.9c5.9-5.1,8.6-11,9.2-19c0.5-7.5,0.9-16.4,11.5-18.1
			c0.3-0.1,0.5-1.1,0.8-1.7c-4.8-5.8-10.2-7.3-16.1-3.8c-2.8,1.7-5.4,4-7.7,6.3c-25.4,25.4-50.7,50.9-75.9,76.4
			c-1.7,1.8-2.8,4.2-4.1,6.2c1.1,1.4,1.6,2.4,2.3,2.9c7.4,5.8,7.4,5.9,0.9,12.4c-8.2,8.1-6.3,18.5-7.9,29.6
			c11.1-3.2,13.1-13,19.4-18.4c6.8-5.8,13.2-11.7,19.1-18.6c5.3-6.2,14.6-9,17.9-18C457.7,658.6,456.3,657,454.7,655.2z M432.3,596
			c-0.7-0.7-1.4-1.4-2.1-2c3.1-4.2,6.3-8.4,9.4-12.6c1.8-2.4,4.8-4.7,5.1-7.2c1.3-11.1,7.2-20.3,11-30.3c4.9-13.2,6.2-27.8,8.9-41.8
			c0.4-2.2,0.1-4.7-0.5-6.9c-1.3-4.4-4.4-5.6-8.5-3.7c-5.3,2.5-7.4,7.1-8.8,12.6c-2.6,10.3-4.8,20.8-8.6,30.7
			c-7.1,18.5-16.9,35.4-33.7,47.1c-7.1,4.9-14,10.1-21.6,15.5c0.9,10.8-4.5,21.9-1.9,34.4c5.4-2.7,9.5-4.7,13.4-6.6
			c9.8,6,13.3,5.7,19.8-1.7c0.2-0.2,0.4-0.5,0.6-0.8c8-8.8,16.1-17.5,24-26.3c4.3-4.8,8.3-9.8,8.3-17
			C442.1,584.9,437.2,590.4,432.3,596z M349.7,377c10.5,14.8,20.7,29.2,31.4,44.4c1.9-4.5,3.1-7.6,4.6-10.5c1.5-2.9,3.4-5.7,5.3-8.5
			c5.7-8.6,5.7-12.2-3.1-17c-14.6-7.9-28-17.9-44.1-22.9c-19.5-6.1-37.9-5.5-55.2,6.2c-5.4,3.6-6.2,5-2.6,10.4
			c9.8,14.8,18,30.3,25,46.6c0.8,1.8,2.6,3.2,5.1,6.1C324.9,410.9,333.6,391.5,349.7,377z M213.5,1543.6c6.2,0.8,11.1,0,14.1,2
			c4.4,3.2,8.9,3.8,13.8,4.6c7.8,1.3,15.6,2.8,23.4,4.7c3.7,0.9,7.2,2.3,10.1-1.3c2.6-3.3,0.6-6.3-1.2-9.2c-8.8-14-19.3-26.3-35-33
			c-7-3-14.3-5.4-21.1-8.9c-8.4-4.3-16.6-8-26.6-3.6c-6.1,15.6-21.6,26.7-26,43.7c8.9,5.8,14.7,2.9,19.9-4.5c1.4-2,5.4-3.9,7.7-3.4
			C200.5,1536.3,210.6,1534,213.5,1543.6z M54.3,1606.9c0.9,0,1.9,0.1,2.8,0.1c0.3,3.9,0.6,7.8,0.7,11.6c0.2,4.3,0.1,8.7,0.6,13
			c0.4,3.6,1.9,6.7,6.3,5.9c4-0.7,5.9-3.4,4.8-7.3c-2-6.5-0.2-12.5,1.4-18.6c4.1-16.1,7.6-32.3,6.8-49.2c-0.5-11-4.4-20.8-8.9-30.4
			c-2-4.4-5-4.7-9-1.8c-1.8,1.4-3.4,3.2-4.8,5c-16.4,21.4-19,46.3-17.8,71.9c0.3,6.6,4.3,13.1,7,19.4c0.8,1.8,2.9,3.1,5.5,5.8
			C51.5,1622.8,52.9,1614.9,54.3,1606.9z M54.2,1658.9c-0.5-0.2-0.9-0.3-1.4-0.5c-2.8-5.9-5.6-11.8-8.5-17.6c-2.9-5.8-6-11.5-10-19
			c-3,5.4-5.6,9.1-7.3,13.3c-4.5,10.8,2.6,25,14.2,27c6,1,9.3,4.5,12.9,8.4c1.8,1.9,3.3,4.2,5,6.1c3.1,3.4,6.3,6.7,9.6,10.2
			c9.1-4.2,9.1-4.2,17.6,0.7c8.2,4.7,13.5,1.5,14.5-9.2c-3.1,0-6.2,0-10,0c2.4-4.9,4.5-8.9,6.4-12.8c-2.5-3.2-4.5-5.7-6.2-8
			c1.8-5,3.5-9.4,4.8-13.9c1.4-4.7,2.4-9.5,3.7-15c10.7-0.9,11.8-11,15.9-18.3c3.9-7,10.7-13.6,6.8-23.6
			c-7.3,1.6-11.5,5.2-14.1,11.1c-5.6,12.6-13.8,23.8-18.6,36.8c-0.5,1.5-3,2.5-4.7,3.1c-2.1,0.7-4.5,0.7-6.4,1
			c-2.6,5.2-4.2,10.5-10.5,12.4c-3.5-4-5.9-10.1-13.6-7.7C54.2,1649,54.2,1654,54.2,1658.9z M264.4,363.5c-1.9,2.9-3.5,4.6-4.2,6.6
			c-3.7,11.4-7.2,22.8-10.5,34.3c-0.8,2.8-0.9,5.9-0.9,8.9c0.1,21.7,2.4,43.1,9.5,63.8c1.1,3.4,2.4,7.1-1.8,10.2
			c-2.6-0.9-5.3-1.7-8-2.6c-0.7,0.8-1.4,1.5-2.1,2.3c12.4,5.6,20.6,14.8,25.5,27c0.8-2,1-3.5,0.8-5.1c-1.8-14.8-4.4-29.6-5.2-44.5
			c-1.2-24.3,0.9-48,18.2-67.5c3.2-3.6,2.3-7.3,0.1-11.1C280.8,377.1,273.6,370.4,264.4,363.5z M255.8,1005.9c-2-0.2-3-0.3-4-0.4
			c-1.1-0.2-2.3-0.4-4.9-0.8c3.2,8.5,10,10.8,16.2,15.3c4.4-7.5,8.4-14.5,12.5-21.5c-3.6-8.2,4.3-15.2,2.5-23.1
			c-1.9-7.9-4.5-15.6-6.7-23.3c5.2-0.3,9.8-0.1,14.3-1c10.8-2.1,15-13.3,8.3-21.6c-4.8-5.9-10-11.5-15.1-17.2
			c-4.9-5.4-9.6-10.9-15-15.8c-1.9-1.7-6-2.7-8.2-1.7c-1.8,0.8-3.5,5.1-3,7.3c2.2,10,3.8,20.5,8.5,29.4c4.3,8.2,4.3,15.6,2.8,23.8
			c-0.4,2.3-1.2,4.5-1.9,6.7c-3.9,12.5-6.7,25.1-5.4,38.3C256.7,1001.8,256.2,1003.4,255.8,1005.9z M252.3,804.1
			c4.9,4.2,8.6,7.6,12.6,10.5c1.7,1.3,4.2,2.7,6.1,2.5c6.7-0.7,13.5-12,10.7-18.2c-5.3-11.8-11.2-23.4-16.9-35
			c-3.3-6.6-9-9-15.8-7.3c-4.3,1.1-8.3,3.8-12.3,6c-3,1.6-5.8,3.6-9.4,5.9c-3.3-6.2-5.8-11.2-8.6-16.1c-2.8-4.8-4.4-10.4-9.4-13.7
			c7.1,27.7,17.9,53.4,39,75.1C250,809.9,250.9,807.5,252.3,804.1z M44.1,1324.2c10.4-1.2,15.2,5,19.1,12.3c3.1,5.9,6,11.9,8.7,18
			c5.1,11.6,9.9,23.3,15.1,34.7c1,2.1,3.6,4.7,5.4,4.7c1.9,0,4.5-2.5,5.7-4.5c2.6-4.4,1.7-7-4-10.4c-8.8-5.3-12.6-11.9-9.7-22.5
			c2.1-7.8,0.7-15.8-2.4-23.4c-3-7.4-5.3-15-8-22.5c-1.1-3.1-2.2-6.3-3.9-9.1c-6.1-10.1-10.7-20.5-11.9-32.4
			c-0.3-2.7-1.6-5.2-2.5-7.8c-0.9,0.1-1.7,0.1-2.6,0.2C46.3,1281.6,39,1301.5,44.1,1324.2z M233,1345.1c-2.8,1-4.8,1.3-6.4,2.3
			c-9.9,5.8-16.5,14.3-19.4,25.5c-3.3,13.2-6.1,26.5-9.4,39.7c-2.1,8.2,2.3,13.3,8.1,17.7c3.6,2.8,7.1,2.1,9.4-1.6
			c2.1-3.3,3.8-7.1,4.8-10.8c4.3-16,8.8-32,12.4-48.2C234.2,1362.2,236.3,1354.3,233,1345.1z M209.6,468c-8.3,26-5.2,52.1-2.6,78.1
			c2.4,25,16.1,66.7,23.9,73.6c0-1.2,0.2-2.2,0-3.1c-8.4-35.1-12-70.7-11.9-106.9c0-13.3-4.7-26.7-7.3-40
			C211.5,469.2,210.6,468.9,209.6,468z M132.8,1476c1.1-2,1.9-4.2,3.3-5.8c4.5-5.4,4.7-10.5,0.5-16.3c-1.2-1.6-1-4.2-1.4-6.3
			c2.2-0.5,3.6-0.8,5.3-1.1c-9.2-11.7-26.1-18.2-38-14.7c1,12.7,1.9,25.5,3.1,38.3c0.6,7,6.9,12.5,14.4,13.3
			c4.7-7.9-8.7-11.4-4.9-19.9C123.7,1463.7,125.2,1473.7,132.8,1476z M285.7,1469.2c-0.4-5.9-4.8-7.2-8.6-9
			c-4.8-2.3-10.1-3.8-14.3-6.9c-9.8-7.3-20.1-5.3-30.6-3.1c-1,0.2-1.7,1.7-2.5,2.6C242.5,1468,268,1475.6,285.7,1469.2z
			 M275.7,759.4c-5.4-44.5-32.5-92.2-56.6-97.1C245.4,691.5,261.3,725,275.7,759.4z M426.2,537.6c-0.7-0.3-1.4-0.6-2.1-1
			c-3,3.4-6,7-9.1,10.3c-1.8,1.9-3.5,4.5-5.7,5.3c-4.2,1.5-5.4,4.9-7.7,8.1c-4.8,6.6-6.8,17.4-19,15.4c-3-0.5-5.4,2-4.5,5
			c0.6,2,3.2,4.7,5,4.8c6,0.4,12.1-0.7,16.7-5.1c6.1-5.7,12.4-11.2,17.5-17.7C422.7,555.6,426.8,547.2,426.2,537.6z M157.7,1651.5
			c0.1,0.7,0.3,2,0.5,3.3c1.7,9.6,4.5,11.1,13.6,7.5c9.9-3.9,17.1-11.3,24-18.9c1.1-1.2,1.7-4.1,1-5.2c-0.8-1.2-3.5-2.1-5.1-1.7
			c-9.4,1.9-18.8,4-28.1,6.3C159.6,1643.7,157.5,1646.6,157.7,1651.5z M2409.5,254.5c-10.8-0.9-20.7-2.8-30.4-2.3
			c-5.5,0.3-11.3,3.8-15.9,7.2c-5.8,4.3-7.3,10.4-4.5,12.7c4.8,3.8,8.7,0.4,12.5-2.3c5.7-4.1,11.3-5.9,18.6-3.8
			C2398.8,268.5,2405.2,264.6,2409.5,254.5z M2329.6,65.2c-6.5-10.7-5.8-15.7,2.6-21.8c3.9-2.8,8.8-4.2,13.2-6.2
			c1.8-0.8,3.6-1.7,5.4-2.5c0-0.8,0.1-1.7,0.1-2.5c-5.4,0.2-10.5,0.5-14.3-4.3c-4.4-5.5-10.2-3.9-10.9,2.9c-0.7,7.1-4.4,11.5-9,15.9
			c-1.9,1.8-3.7,3.9-4.8,6.2c-3.8,8.1-1.7,11.6,7.3,12.2C2322.2,65.4,2325.1,65.2,2329.6,65.2z M356.6,783.8c-2.7,0.7-5.1,1.6-7.6,2
			c-9.4,1.3-13.5,6.5-14.1,16.1c-0.3,5-3.4,9.8-5.4,14.7c-0.8,2-2,3.9-3.3,6.3C345.2,820,356,806,356.6,783.8z M393.5,428.6
			c10.3,1.1,15.9-5.4,19.5-12.1c3.7-6.9,1.5-15-2.8-21.6c-1.3-2-4.1-4.3-5.9-4.1c-1.7,0.2-3.9,3.3-4.5,5.5c-2.6,9.5-4.8,19.2-7,28.9
			C392.6,426.1,393.2,427.1,393.5,428.6z M261.3,675.4c-2.6,22.7,10.9,37.5,24.5,52.3C285,706.8,273.6,690.9,261.3,675.4z
			 M99,1649.3c1.2,3.4,1.8,6.7,3.4,9.4c2.8,4.8,6.6,4.9,10.4,0.6c1.3-1.5,2.1-3.4,3.3-4.9c6.3-8.1,12.4-16.4,19-24.2
			c6.4-7.5,6.6-7.3,16-7.9c-2-5.5-5.9-4.6-9.6-3.1c-7.9,3.4-15.6,7.4-19.8,15.6c-3.1,6-8.2,9.3-14.4,11.5
			C104.9,1647.1,102.4,1648,99,1649.3z M242.3,1312.4c6.7-2.2,12.5-3.5,17.7-5.9c5.1-2.3,5.3-6.7,0.3-8.6c-7-2.6-14.5-4.1-21.9-4.7
			c-4.5-0.4-6.9,3.5-6.5,8.2c0.3,2.9,1,5.9,2,8.7c1.1,3-0.2,7.6,5.3,8.9C240.5,1316.1,241.7,1313.5,242.3,1312.4z M129.4,1303.5
			c-0.4,4.7,1.8,8,7.7,8.5c2.9,0.3,5.6,2,8.4,2.9c3.8,1.3,7.6,2.1,11.5-1.2c-4.4-8.6-10.5-15.2-19.6-17.3c-4.7-1.1-9.7-0.5-14.1-3.5
			c-1.1-0.7-4.4,0-5,1c-0.7,1.3-0.3,4.6,0.7,5.2C122,1301,125.5,1302,129.4,1303.5z M237.1,906.5c1.3,10.5,3.6,19.1,6.9,27.3
			c1.6,4,3.3,8.1,5.8,11.4c1.2,1.6,4.4,1.7,6.7,2.4c0.2-2.4,1.3-5.1,0.5-7.1c-2.5-6.8-5.4-13.4-8.6-19.9
			C246.1,915.7,243.8,910.5,237.1,906.5z M140.4,1642.7c0.2,3.9-0.8,8,4.2,9.1c3.5,0.7,7.6-2.3,8.2-6.9c0.5-3.7,0-7.8-1.1-11.4
			c-0.5-1.5-3.6-3.3-5.4-3.1c-1.7,0.1-3.9,2.3-4.6,4.1C140.7,1637.1,140.8,1640.2,140.4,1642.7z M254.6,1333
			c10.7,2.5,19.1,4.3,27.9,0C277.9,1319.7,270.9,1319.5,254.6,1333z M202.9,1452.4c0.1-3.6-1.9-5.6-6-5.9
			c-5.7-0.3-10.8,3.8-11.3,9.1c-0.4,4,2.3,7,6.5,7C197.6,1462.7,202.6,1458.1,202.9,1452.4z M246,1100.1c-0.2,2.2-0.1,4.5-0.7,6.6
			c-0.6,2.2-2.2,4.1-3,6.2c-2.5,6.9-0.6,12.9,5.1,16.2c1.7-7.7,3.7-15.4,5.1-23.2C253.5,1101.4,251.7,1098.9,246,1100.1z
			 M83.9,1587.2c-2.8,8.2-10.5,15-4.7,25.6c3.9-4.9,7-8.8,10-12.5C87.2,1595.4,85.6,1591.3,83.9,1587.2z M239.6,991.2
			c1.4-3.6,3-5.6,2.6-6.9c-2.6-8.2-3.9-17.1-10.6-23.6C232.9,970.6,232.5,980.8,239.6,991.2z M314.5,485.1
			c-2.5,9,1.3,13.8,12.3,15.5C327.5,493,324,488.6,314.5,485.1z M234.4,951.9c3.5,9.3,6.4,18.9,18.5,23.6
			C249.6,964,242.7,957.4,234.4,951.9z M320.6,510.3c-0.4,0.7-0.7,1.3-1.1,2c5.7,6.9,16.8,10.4,14.4,22.7c6.4-5,7.3-6.4,4.7-9.6
			c-4-4.9-8.3-9.5-12.8-13.9C324.7,510.4,322.3,510.6,320.6,510.3z M128.8,1427c-2.9-3.4-4.9-6-7.1-8.3c-2.1-2.2-4.6-3.1-6.9-0.5
			c-2.5,2.8-1.7,5.7,1.2,7.7C119.3,1428.1,122.9,1429.9,128.8,1427z M188.5,1484.7c-1.6-3.4-2.4-6.2-4.1-8.4
			c-0.9-1.2-3.3-2.1-4.9-1.9c-1.1,0.1-2.5,2-3,3.4C174.2,1484.4,177.8,1486.9,188.5,1484.7z M241,402.1c-7.6,8.4-7.2,13.8,0,22.6
			C241,417.9,241,411.1,241,402.1z M202.9,1634.1c10.3,4.5,12.3,3.9,17.5-4.3C214.1,1628.1,208.9,1629.7,202.9,1634.1z M309.8,808.8
			c-1,0.3-2,0.6-3,0.9c-0.2,2.8-1.1,5.7-0.5,8.3c0.3,1.5,3,2.5,4.6,3.7c1.2-1.7,3.6-3.7,3.3-5C313.5,813.8,311.4,811.4,309.8,808.8z
			 M132.6,1555c-9.6,4.8-10.3,6.8-5.9,14.9C129.5,1565.4,133.5,1561.9,132.6,1555z M75,1713c5.1-1.1,7.6-3.7,6.7-7.7
			c-0.8-3.7-4.1-4.7-8.8-3.1C73.6,1705.7,74.3,1709.1,75,1713z M323.3,545.3c1.1,2.8,2.3,5.7,3.5,8.6c4.8-1.6,6.4-4,5-7.2
			C330.3,543.7,327.6,542.6,323.3,545.3z M265.5,1142.3c-4.8-1.4-8.2-2.3-13.3-3.8c0.4,3.1-0.1,6.7,1.1,7.3
			C257.5,1148.3,261.3,1146.4,265.5,1142.3z M169.4,1681.7c1.7-2.9,3.3-4.8,3.9-6.9c0.2-0.6-2.5-2.8-4-2.9c-2.9-0.1-5.1,1.6-4.4,4.8
			C165.3,1678.2,167.2,1679.3,169.4,1681.7z M249.1,1090.5c7.9-5.1,8.2-6.1,3.5-12.5C248.2,1081.4,246.7,1085.2,249.1,1090.5z
			 M704.3,69.8c2.4-3,4.4-4.7,5-6.8c0.3-1.1-1.8-3-2.8-4.5c-1.8,1.6-4.1,3-5.3,5C700.8,64.4,702.6,66.6,704.3,69.8z M425,465.6
			c4.1-8.1,4.5-10.4,2.3-15.1c-0.5-1-2.2-1.5-4.5-2.8C423.6,454.1,424.2,459.1,425,465.6z M128.7,1757.2c7.4,1.5,11-1.8,14.4-5.5
			C138.2,1751.7,133.2,1751,128.7,1757.2z M397.4,1015.2c1.5-2.2,3.3-3.6,3.3-5c0-1.4-1.8-2.8-2.8-4.2c-1.2,1.6-2.9,3.1-3.5,5
			C394.1,1011.7,395.9,1013.2,397.4,1015.2z M292.1,863.3c-3.5-3.4-6.1-3.7-9.2-0.7C285.4,866.8,288,867.2,292.1,863.3z
			 M2422.1,232.2c-4.4-6.5-4.4-6.5-10.5-0.8C2415.6,231.7,2418.3,231.9,2422.1,232.2z M310.1,835.3c3.2-1.9,4.4-4,2.5-6.8
			c-0.3-0.5-2.1-0.7-2.6-0.3C307.4,830.2,307.2,832.5,310.1,835.3z M324.6,532.7c1.1-1.9,2.2-3,2-3.9c-0.1-1-1.5-1.7-2.3-2.6
			c-0.7,0.9-2,1.7-2.1,2.7C322.2,529.8,323.4,530.8,324.6,532.7z M2393.9,227.5c4.4,3.7,4.4,3.7,9.1,1.1c-2-0.6-3.5-1.3-5-1.5
			C2396.9,226.9,2395.7,227.3,2393.9,227.5z M1291.6,267.5c-1.1-0.9-1.7-1.8-2.4-1.8c-0.7,0-1.5,0.8-2.2,1.3
			c0.6,0.6,1.1,1.6,1.7,1.7C1289.5,268.9,1290.3,268.2,1291.6,267.5z M355.2,411.8c-0.4,0.1-0.8,0.3-1.1,0.4
			c0.3,2.1,0.6,4.1,1.1,6.2c0.1,0.4,0.9,0.6,2,1.2c-0.1-1.9-0.1-3.4-0.4-4.8C356.5,413.7,355.8,412.7,355.2,411.8z M184.4,1552.4
			c0.5,0.5,1,1.1,1.6,1.6c1.1-1.4,2.2-2.9,3.3-4.3c-0.5-0.4-1-0.8-1.4-1.2C186.7,1549.8,185.6,1551.1,184.4,1552.4z M254,1287.7
			c-0.2-0.8-0.3-1.6-0.5-2.4c-1.4,0.3-2.7,0.6-4,1.1c0,0,0.2,1.6,0.4,1.6C251.2,1288,252.6,1287.8,254,1287.7z M269.1,1316.8
			c1-0.8,2.1-1.2,2.2-1.9c0.1-0.6-0.7-1.4-1.1-2.2c-0.7,0.4-1.9,0.8-2.1,1.4C267.9,1314.7,268.6,1315.6,269.1,1316.8z M173.1,967.7
			c1-0.1,1.5-0.1,2.1-0.1c-0.2-0.8-0.3-1.7-0.7-2.5c-0.1-0.2-1.1,0-1.7,0.1C172.9,966.1,173,966.9,173.1,967.7z M154.1,1069.5
			c0.5-0.7,1.1-1.4,1.5-2.1c0.1-0.1-1-1.1-1.1-1c-0.7,0.5-1.2,1.2-1.8,1.8C153.1,1068.6,153.5,1069,154.1,1069.5z M206.8,851.2
			c0.4-0.2,0.9-0.4,1.3-0.7c-0.5-1-1-2.1-1.5-3.1c-0.5,0.2-0.9,0.4-1.4,0.7C205.7,849.1,206.2,850.2,206.8,851.2z M270,868
			c0.5-1,1-1.8,1.2-2.7c0.1-0.3-0.6-0.9-0.9-1.3c-0.7,0.5-1.4,1-2,1.6C268.3,865.8,268.9,866.5,270,868z M165.8,1102.6
			c-0.5-0.3-1-0.8-1.5-0.8c-0.3,0-0.6,0.8-0.9,1.3c0.5,0.3,1,0.9,1.5,0.8C165.2,1103.8,165.5,1103,165.8,1102.6z M369.8,462.2
			c0.4-0.4,0.8-0.8,1.1-1.2c0.1-0.2-0.2-0.8-0.3-0.8c-0.5,0.1-1,0.2-1.5,0.4C369.3,461.1,369.6,461.6,369.8,462.2z M182.4,1150.4
			c-0.3-0.5-0.4-1.2-0.8-1.4c-0.3-0.1-1,0.4-1.4,0.6c0.3,0.5,0.4,1.2,0.8,1.4C181.3,1151.2,181.9,1150.6,182.4,1150.4z M328.1,804.2
			c0.2-0.6,0.5-1.1,0.7-1.7c-0.5-0.1-1-0.3-1.5-0.4c-0.1,0-0.4,0.7-0.3,0.8C327.3,803.4,327.7,803.8,328.1,804.2z M244.3,1333.2
			c0.2,0.2,0.4,0.5,0.7,0.5c0.2,0,0.5-0.3,0.7-0.5c-0.3-0.3-0.7-0.5-1-0.8C244.5,1332.7,244.4,1333,244.3,1333.2z M2387,354.8
			c-0.4-0.3-0.8-0.7-1.3-1c-0.1-0.1-0.7,0.4-0.7,0.5c0.1,0.5,0.4,1,0.6,1.5C2386,355.4,2386.5,355.1,2387,354.8z M403.2,999.7
			c0.2-0.2,0.5-0.4,0.5-0.7c0-0.2-0.3-0.5-0.5-0.7c-0.3,0.3-0.5,0.7-0.8,1C402.7,999.5,402.9,999.6,403.2,999.7z M136.7,1673.7
			c0.2-0.2,0.5-0.5,0.5-0.7c0-0.2-0.3-0.5-0.5-0.7c-0.3,0.4-0.6,0.7-0.9,1.1C136.2,1673.5,136.4,1673.6,136.7,1673.7z M302.9,589.5
			c0.3,0,0.6,0.2,0.8,0.1c0.2-0.1,0.3-0.5,0.4-0.7c-0.5-0.1-0.9-0.1-1.4-0.2C302.8,588.9,302.9,589.2,302.9,589.5z M363.7,684.8
			l0.3,0.6l0.4-0.5L363.7,684.8z M143.7,1582.5c-0.3-0.4-0.6-0.8-1-1.2c0,0-0.7,0.3-0.7,0.4c0,0.5,0.2,1,0.3,1.5
			C142.8,1583,143.3,1582.8,143.7,1582.5z M136.8,1425.9c0.2-0.2,0.4-0.4,0.6-0.6c-0.4-0.2-0.8-0.5-1.1-0.7
			c-0.1,0.3-0.3,0.6-0.2,0.8C136.2,1425.7,136.6,1425.8,136.8,1425.9z"/>
		<path d="M624,2c-1.1,2.8-2.8,5.5-3.3,8.3C617,32,605.3,49.9,593.3,67.6c-5.6,8.3-11.7,16.2-18.1,23.8c-7.3,8.7-17,13.8-28,16.4
			c-6.4,1.5-9.8,5-12.2,11.4c-4.7,12.1-11.2,23.5-12.7,36.6c-0.5,4.1-3.3,9.2,1.8,11.6c5.2,2.4,7.5-2.9,10-6.2
			c9.4-11.9,21.8-19.7,35.6-24.9c8.8-3.3,14.8-7.7,17.5-17.3c2-7.3,6-14.1,9.4-20.9c1.2-2.4,3.5-4.2,6-7c1.3,6.8-0.8,22-3.3,28.4
			c-4.3,10.9-7.2,22-7.8,33.9c-1,18.7-5.2,36.9-10.9,54.8c-3.3,10.4-10.7,18.3-17.7,26.4c-9.5,10.9-19.5,21-34.7,23.7
			c-4.2,0.8-6.4,4.2-7.4,8.5c-3.3,13.9-6.5,27.9-10.5,41.6c-2.2,7.7-2.3,13.7,6,17.4c0.4,0.2,0.5,1.2,0.7,1.8
			c-11.4,8.2-11.8,8.1-14.4,24.5c-2.2,13.9-3.2,28.1-4.7,42.1c0.6,0.3,1.3,0.6,1.9,1c1.6-2.2,3.8-4.1,4.8-6.5
			c4.7-12.6,13.5-22,23.3-30.7c1.2-1.1,2.6-2.1,3.8-3.3c9.7-9,10.6-14.6,4.4-26.5c-4.4-8.3-3.9-7.8,2.6-13.7
			c6.8-6.2,13.4-13.1,18.4-20.7c5-7.7,7.5-17,11.9-25.2c4.6-8.8,9.9-17.3,15.3-25.5c5.3-8.1,10.6-16,12.5-25.8
			c0.6-3.3,3-6.2,6.3-8.7c0,2.1,0.3,4.3,0,6.3c-4.2,27.8-13.5,53.8-30.7,76.1c-7.2,9.4-16.8,17-25.3,25.5c-2.8,2.7-8.2,5.1-6.1,9.2
			c2.4,4.7,6.7,9.4,11.3,11.8c6.1,3.1,17.9-3.9,18.7-10.9c0.9-7.9,4.1-12.8,11.3-16.1c4.1-1.9,6.5-5.7,6.1-10.6
			c-0.5-6.7,1.8-12.2,6-17.4c2.2-2.7,2.7-6.7,3.9-10.1c0.9-2.5,1.2-5.3,2.5-7.5c1.9-3.3,4.8-3.5,7.4-0.7c1.3,1.4,2.2,3.3,3.2,5
			c6.3,10.5,10.7,22.1,18.8,31.7c2.9,3.4,3.7,8.5,6,12.5c1.4,2.4,3.7,6.1,5.5,6.1c2.7-0.1,5.9-2.4,7.9-4.7
			c5.8-6.8,10.8-14.3,16.7-21c6.4-7.3,14.2-13,23.4-16.6c8.2-3.2,12-1,12.3,7.9c0.1,3.2-0.6,6.7-1.9,9.6
			c-4.9,10.9-10.3,21.6-15.5,32.4c-0.6,1.2-1.4,2.3-2,3.5c-4.9,9.8-17.7,15.1-16.2,28.5c-5.3,10-10.9,19.9-15.7,30.1
			c-3.5,7.4-7.8,13.8-14.7,18.5c-7.1,4.9-9.8,12.4-11.1,20.5c-0.9,6.1,0.9,8.4,6.7,7.8c5.5-0.6,8,1.4,9.4,6.4
			c1,3.5,2.7,6.8,4.2,10.1c2.5,5.3,5,6.4,10.2,3.8c2.4-1.2,4.5-2.8,6.6-4.5c8-6.6,17.5-9.5,27.6-10.6c7.7-0.9,10.7,2.8,8.9,10.1
			c-1.5,6.1-4.4,10.9-11,13.1c-31.6,10.5-63.2,21-94.6,31.9c-10.6,3.6-18.8,1.5-25.6-7.4c-3.2-4.3-6.7-8.3-10.2-12.3
			c-4.6-5.1-6.9-5.2-11.5-0.6c-8,7.9-15.5,16.5-24.1,23.7c-6.2,5.2-14,8.5-21.5,12.8c-2.8-4.6-0.8-7.6,0.3-10.5
			c7.7-20.9,15.6-41.8,23.3-62.8c1.4-3.9,2.3-8,1.7-13.2c-1.8,1.1-4.2,1.7-5.2,3.3c-3.6,5.6-7.3,11.2-9.8,17.3
			c-8.8,20.9-17,42-25.7,62.9c-3.5,8.3-6.3,10.3-11.1,8.6c-6.7-2.4-4.3-8-4.3-12.8c0.1-21.2-2.8-41.9-9.5-61.9
			c-1.8-5.5-2.1-9.2,3.6-12.5c5.4-3.2,6.2-9.3,6.3-15c0.3-10.3,1.6-20.9-0.1-30.9c-1.5-9.4-0.3-18.3-0.2-27.5c0.1-7-2.8-14.2-5.4-21
			c-3.7-9.6-8.3-18.8-12.6-28.1c-0.9-1.8-2.6-3.3-4.9-6.2c-0.8,7.2-2.1,12.8-1.9,18.2c0.8,17.9-3.8,35.7-0.1,53.8
			c1.3,6.2-0.3,13.2-1.3,19.8c-1,6.2-6.4,9-11.4,11.5c-3.3,1.7-6.1-0.5-7.3-3.5c-4.1-10.1-11.3-18.8-12.5-30.3
			c-0.9-8.8-3.9-17.6-3.9-26.4c0-7.8,2.8-15.6,4.3-23.4c0.8-4.1,1.5-8.2,2.4-13.4c-3.2,0.8-4.9,0.8-6.2,1.6
			c-23.1,12.5-48,18.7-74,16.5c-28.9-2.4-57.7-6.9-82.8-23.5c-3.6-2.4-7.1-5-10.3-7.8c-5.1-4.5-10.7-4.9-16.8-3.2
			c-4.7,1.3-7.4,3.9-8.2,8.9c-2.5,16.1-5.3,32.2-7.7,48.3c-1.1,7.1,1.7,12.9,7,17.8c5.5,5.1,9.3,11,8.8,20.1
			c-5.6-4.9-10.4-9.2-16.7-14.8c-2.1,18.4-4,34.5-5.9,51.4c7.8,7.1,7.6,9.3-0.2,18.5c-2.8,3.3-4.3,8-5.7,12.3
			c-1.6,4.7,0.8,8,4.3,11.3c1.5,1.4,1.7,4.9,1.4,7.3c-4.7,32.7-3.6,65,4.2,97.1c4.5,18.5,10,36.7,18.7,53.7c4.7,9,3.5,17.4-1,25.7
			c-2.6,4.8-5.2,5.9-9.7,2.5c-5.5-4.1-10.4-9.1-15-14.3c-3-3.5-4.5-8.1-7.2-12c-2.4-3.4-5.4-6.3-9.9-8.7c0,2.1-0.3,4.2,0,6.2
			c5.1,29.2,10.3,58.4,15.4,87.6c1.8,10.4,0.9,20.4-6.4,31.8c-2.1-4.2-3.7-7.4-5.7-11.3c-7,7.6-6.3,14.7-5.2,20.7
			c3.9,22.6,6,45.6,15,67.1c2.9,6.9,3.9,14.7,5.5,22.1c0.4,1.8,0.1,4.1-0.7,5.8c-2.2,4.7-1.3,8.1,2.9,11.2c1.6,1.2,3.1,4.1,2.8,5.8
			c-1.8,9.9,3.1,18.2,6.3,26.8c4.5,11.8,9.9,23.3,14.9,34.9c0.6,1.4,0.8,3.1,1.6,6.2c-3-0.5-5.5-0.2-6.7-1.3
			c-1.8-1.7-2.8-4.4-4.1-6.7c-7.6-14.8-14.4-30.1-23.1-44.2c-6.6-10.6-15.3-20.1-23.9-29.3c-4.8-5.1-7.9-10.5-9.5-17.1
			c-5.3-20.8-7.8-41.9-6-63.3c0.5-5.8,2.7-11.7,5.1-17.1c3.9-9.1,0.7-17.4-0.8-27.3c-3.1,2-5.1,4.3-7.2,4.4
			c-9.8,0.6-12.1,6.8-13.9,15.2c-3.1,14.7-7.4,29.1-11.2,43.6c-0.4,1.6-1.2,3.2-1.2,4.8c0,2.8-0.5,6.7,1.1,8.2
			c1.4,1.4,5.4,0.3,8.1,0c1.3-0.1,2.4-1.1,3.7-1.6c8.2-3.1,10.6-1.7,12.5,7c3.2,13.9,6.5,27.9,9.5,41.9c0.7,3.2,1,6.7,0.2,9.8
			c-4.2,17.1-8.8,34.1-13.4,51.2c-0.2,0.8-1.2,1.4-2.3,2.6c-5.6-5.8-8.1-13-11-19.9c-7.1-16.8-17-31.6-30.1-44.3
			c-0.9-0.9-2-1.5-3.9-2.8c-3.8,18.6-8.5,36.4-5.6,54.8c2.6,16.4,5.8,32.8,9.2,49c1.1,5.2,1,9.7-1.9,14.3
			c-5.2,8-11.1,14.8-20.1,18.7C74.3,986,66.6,989.7,64,998c-3.4,10.8-5.1,22-2.1,33.5c1.2,4.8,1.7,9.7,2.8,14.5
			c0.4,1.8,1.2,4.2,2.5,4.9c1.1,0.6,3.7-0.6,5-1.7c6.3-5,10.7-5.5,15.1,0.3c4.8,6.4,9.5,7.6,16.1,3.5c1-0.6,2.5-0.5,5-0.9
			c-0.2,13.7-5.5,25.6-8.6,37.9c-3.2,12.9-6.4,25.9-10.2,38.6c-3.6,12.2-5,25.2-12,38.8c-3-5.2-4.8-8.2-6.5-11.4
			c-6.6-12.7-13.3-25.4-19.7-38.2c-4.6-9.2-11.8-14.1-21.8-15.4c-5.2-0.7-10.4-1.4-17.4-2.4c2,4.3,3.2,7.3,4.7,10
			c6,10.9,10,22.4,13.1,34.4c6.6,25.8,14.4,51.3,21.2,77c1.4,5.3,1.8,11.2,1,16.6c-1.4,9.5-4.2,18.8-6.3,28.3
			c-2.4,11.1-5.8,22.1-6.7,33.3c-1.7,20.2-8.1,39.1-13.5,58.3c-6,21.1-11.2,42.5-17.1,63.7c-3.2,11.5-7.1,22.9-10.6,34.3
			c0-140,0-280,0-420c6.9-5.5,6.9-6.5,0-14c0-19.3,0-38.7,0-58c4.7,3.1,9.3,6.4,14.2,9.1c5.4,3,8.9,2.1,10.7-2.5
			c3.6-9.2,3.6-19.8-1.9-26.8C15,936.1,8.4,927.3-2,924c0-20.7,0-41.3,0-62c1.5-1.2,3-2.6,4.6-3.7c4.1-2.8,5-6.5,3.4-11.1
			c-2.8-8.3-5.4-16.8-8-25.2c0-66,0-132,0-198c10.5-1,20.9-2.4,31.4-3c4.9-0.3,9.9,1.3,14.8,1.3c2.7,0,7.3-0.9,7.6-2.3
			c0.7-2.6-0.3-6.4-2-8.7c-2.3-3.1-5.8-5.4-8.9-7.8c-7.8-6.1-15.6-12.2-23.4-18.2C11,580.2,4.5,575.1-2,570c0-55.3,0-110.7,0-166
			c7.2,0.7,14.6,0.9,21.7,2.4c5.7,1.2,10.5,4.8,10.9,11.4c0.3,4.6,2.9,7.2,6.8,8.9c4.8,2.1,6.1,5.7,4.4,10.6c-0.5,1.6-1,3.2-1.1,4.8
			c-0.6,5.9,1.4,8.4,6.6,9c7.5,0.7,11.2-1.5,11.3-7.7c0.4-13.6,0.7-27.2,0.3-40.8c-0.1-3.7-2.4-7.5-4.4-10.8
			c-4.8-7.6-9.9-15-15.1-22.3c-16.5-23.1-19.9-50.4-25-77.2c-0.9-4.8,0.9-11.5-1.8-14.2c-3.1-3.2-9.7-3-14.8-4.2c0-18.7,0-37.3,0-56
			c2.6,2,5.7,3.5,7.7,6c4.7,5.6,9.3,8.8,17.1,5.1c5.1-2.4,7.1-0.7,10.2,6c-2.7,0.3-5.3,0.4-7.8,1c-5.4,1.2-7.7,5.5-5.5,10.5
			c1,2.3,2.7,4.8,4.7,6.2c9.5,6.5,19.3,12.5,29.8,19.3c1.2-3.2,3-5.5,2.6-7.2c-2.3-9.2-4.2-18.7-12.3-25c-5.9-4.5-5.9-4.4-2.5-11.1
			c1-2,2.1-4.4,1.9-6.4c-0.8-7.9-1.9-15.8-3.5-23.6c-1.3-6.3-2.7-6.7-9.1-5.5c-6.5,1.2-13,2.4-19.6,3c-4.5,0.4-9.2-0.1-13.8-0.2
			c0-24.7,0-49.3,0-74c11.2,4.1,22.4,8.3,33.6,12.4c8.6,3.1,10.4,7.2,6.2,15.1c-1.7,3.1-3.8,6.1-5.8,9.3c3.4,1,6.1,1.7,8.9,2.5
			c6.5,2,9.5,0.8,11.2-5.6c1-3.8,1.1-7.9,1.1-11.8c0-6,0-12-0.9-17.9c-1.2-7.5-3-14.9-5-22.1c-1.7-6.1-6-8.8-12.5-9.4
			C22.4,93.3,10.2,91.5-2,90c0-8,0-16,0-24c7.5-0.2,15.1-1.2,22.3,2.9c1.6,0.9,4.3-0.2,6.4-0.3c-0.2-2.1,0-4.2-0.6-6.2
			c-0.6-2.2-2.9-4.3-2.5-6.2c1.4-7.6-4.5-10.3-9.2-12.2C9.5,41.9,3.5,42.5-2,42c0-7.3,0-14.7,0-22c2.4-1.4,5.3-4.4,7.1-3.8
			c6.6,2.2,12.8,0.1,19.2-0.4c-0.2,1.4-0.5,2.7-0.7,4.1c0.4,0,0.9,0,1.3,0c-0.3-1.3-0.5-2.7-0.8-4C20.7,11.3,17.4,6.6,14,2
			c79.3,0,158.7,0,238,0c-2.6,6.7-9.2,12.7-2.7,20c-3.8,0-7.1-0.3-10.2,0.1c-4.5,0.6-7.2,3.5-7.1,8.1c0.1,4.3,0.9,8.6,0.9,12.9
			c0.1,4.1-0.4,8.3-0.8,15c5-3.9,8.5-6.2,11.4-9c4.2-4.2,8-8.8,12-13.3c5.1-5.7,9.9-11.6,15.3-17c2.2-2.2,5.2-4.1,8.2-4.8
			c6.8-1.7,11.3-5.3,13.2-12c28.7,0,57.3,0,86,0c1.5,5.6,2.1,11.1-2.3,15.8l0.1,0.1c-2.8-3.6-5.5-4.1-7.1,0.7c-1.3,4-0.9,8.9-3,12.4
			c-7.7,12.7-16.2,24.9-24,37.6c-1.5,2.5-1.9,6.4-1.2,9.3c2.2,9.8,0.2,13.9-9.4,17.1c-4.1,1.4-8.3,2.5-12.1,4.5c-6,3-8.2,8.7-7.8,15
			c0.4,6.4,3.3,13.1,9.3,14.1c7.8,1.3,15.5,2.2,23,5c4.2,1.5,9.1,1.3,13.7,1.5c5.3,0.3,10.6,0.3,15.8,0.5c2,0,4-0.3,5.9,0.1
			c4.7,1.1,8.1,7.1,6.7,11.7c-1.1,3.9-4,5.2-9.9,2.5c-8.3-3.8-18.7,0.6-25.9-7c-0.5-0.5-1.9-0.1-2.9-0.2
			c-10.8-1.2-21.7-2.8-32.5-3.5c-7.1-0.5-13.6,0.8-17.3,8.6c-4.1,8.4-8.5,16.8-14.2,24c-7.9,10.2-17,19.6-26,28.9
			c-2.9,3-7,4.9-10.5,7.3c-3.3,2.2-7.7,3.7-9.6,6.8c-4.5,7.3-9,15-11.3,23.1c-3,10.8-4.4,22.2-5.6,33.4c-1.2,10.8,1.6,12.8,11.8,9.8
			c2.8-0.8,5.4-2.5,7.9-4c3.4-2.1,6.4-4.7,9.9-6.7c9.1-5.2,18.6-9.6,28.3-13.8c17.4-7.5,35.4-11.7,53.7-14.8
			c9-1.6,18.5-0.6,27.8-0.4c7.9,0.1,15.9,1,23.8,0.7c3.9-0.1,6.8,0.7,10.1,2.7c11.6,7,23.6,13.3,35.5,19.9c0.6,0.3,1.2,0.6,1.8,0.8
			c4.3,1.6,7.3,0.1,8.6-4.1c0.8-2.5,1.2-5.2,1.4-7.8c0.7-11.2-0.4-22.6,4.8-33.2c1.2-2.6,1.1-5.9,1.3-8.8c0.6-12.9,0.3-26,1.9-38.8
			c1.4-10.8-1.3-20.7-4.6-30.2c-2.7-8-4.5-15.9-4.9-24.2c-0.4-7.6-2.1-15.3-1.9-22.9c0.3-10.9,1.8-21.8,2.9-32.7
			c0.1-0.6,1.4-1,2.4-1.8c5.6,6.9,10.8,13.7,11.6,22.8c1.1,12.6,1.8,25.2,3.5,37.7c1.1,8.5,3.1,17,5.6,25.2
			c4.1,13.2,9.1,26.2,13.6,39.3c1.2,3.6,1.9,7.5,2.9,11.9c-5.9-0.5-10.2-8.1-15-2.8c4.3,9,8.8,17.1,12.1,25.6
			c3.4,8.6,5.6,17.7,8.4,26.6c1.5,4.9,3,9.9,7.1,13.9c3.8-4.8,4.6-9.3,4-14.6c-0.6-4.5-0.9-9.5,0.4-13.8c2.9-9.5,3.3-18.2-3.7-26.2
			c-0.3-0.4,0-1.3,0-2.6c7.8-4.2,8.7-11.9,9.1-20.1c0.3-6.6,1.7-13.2,2.2-19.8c0.7-9.2,0.3-18.9-5.9-25.7
			c-13-14.2-18.1-31.2-18.7-49.3c-0.5-13.2-7.1-21.1-16.7-27.6c-7.8-5.3-11.2-13.1-13.2-21.5c-3-12.6-5.1-25.4-7.6-38.1
			c14,0,28,0,42,0c4.6,8.1,8.8,16.3,13.8,24.1c2.4,3.7,5.9,7.3,9.8,9.4c6.8,3.8,13.1-0.5,12.3-8.1c-0.9-8.5-2.6-16.9-3.9-25.4
			C552,2,588,2,624,2z M87.8,499.5c0.4,0,0.7,0,1.1,0c0,4-0.2,8,0,12c0.4,8.1,3.7,11.5,11.5,12.3c11.9,1.3,32.7-12.5,36.1-23.9
			c0.3-0.9,0.5-2,0.5-2.9c0-10.6-0.1-21.2-0.1-31.8c0-9-0.1-18.5,5.3-26c4.1-5.7,4.4-9.8,0.3-15.1c-1.8-2.3-3.1-5.2-4.1-8
			c-1.6-4.3-4.1-7.4-8.3-9.5c-2.9-1.4-5.5-3.7-8.1-5.7c-5.9-4.4-11.7-8.8-17.6-13.2c-2.7-2-6.1-2.9-7.5,0.8
			c-3.4,9.2-10.1,17.5-7.9,28.3c0.5,2.2,0.3,4.6,0.3,7C88.9,449.1,88.4,474.3,87.8,499.5z M108.1,215.1c2.6-4.3,4.4-6.7,5.7-9.3
			c5.4-10.6,10.9-21.3,16-32.1c4-8.4,7.4-17.1,11.3-25.5c2.6-5.7,1.6-10.8-0.9-16.2c-4-8.7-12.3-12.8-18.6-19
			c-5.2-5-11.7-6.3-18.4-6.2c-6.1,0.1-12.2,1.4-18.8,2.3c0.3,4.2,1.3,8.6,0.8,12.7c-1.5,11.5-1.7,23-1.6,34.5
			c0.1,7.2,0,14.5,0.3,21.7c0.1,3.2,0.3,6.8,1.8,9.5c3.8,6.6,8.3,12.9,12.9,18.9C101,209.4,104.3,211.7,108.1,215.1z M142.7,551.3
			c-2.7-5.3-4-10.1-7.1-13.2c-8.5-8.7-28.2-10.8-39.4-5.2c-3.6,1.8-5,4.3-3.9,8c0.9,2.9,1.9,5.7,3.3,8.3c2.5,4.7,6.1,8.9,8,13.8
			c6.4,16.5,11.5,33.3,10.7,51.4c-0.2,4.6,0,9.4,0.7,13.9c0.9,6.3,6,8.3,9.6,3.5c9.8-12.9,21.4-24.9,24.1-41.8
			c1.7-10.8,2.8-21.7,3.9-32.6c0.4-4.2-0.9-7.4-6.2-6.4C145.1,551.3,143.8,551.2,142.7,551.3z M120.3,714.1c-5.4,2.3-9.5,5-13.8,5.6
			c-4.8,0.6-9.8-1.1-14.7-1.5c-6.3-0.5-12.2,4.4-13.1,11.1c-1.1,8.2-2.2,16.5-2.8,24.8c-0.3,3.9-0.1,8.3,1.5,11.6
			c6.2,13.1,9.7,26.8,11.8,41.1c0.4,3,2,5.8,3.2,9.3c8.2-8,11.5-19.2,27.8-91.9C120.9,721.2,120.3,718.1,120.3,714.1z M195.6,257.8
			c0.5-8.4,0.8-14.9,1.3-21.4c0.3-4.9,0.8-9.9,1.2-14.8c0.8-8.9,2-17.7,2.5-26.6c0.2-2.8-0.8-6-2-8.6c-2.9-6-7.2-6.5-11.6-1.3
			c-9.2,10.7-17.8,21.9-30.2,29.5c-4,2.5-6.9,6.9-10.5,10.6c2.9,4.8,6.1,3.2,9.9,1.1c3.3-1.9,7.3-4.7,10.6-4.3
			c6.9,0.9,13.6,3.7,20.9,5.9C178.7,240,180.2,246,195.6,257.8z M57.4,499.1c2.2-5.7,2.5-13.4,1.1-25.3c-1.3-11-3-13.1-14-14.5
			c-2.6-0.3-6.7,0.3-7.8,2c-1.2,1.8-0.4,5.9,0.9,8.1c2.7,4.7,4.7,9.1,4.5,14.9C41.6,494.5,45.9,498.2,57.4,499.1z M572.1,415
			c-3.2,1.8-6.4,2.5-7.3,4.4c-0.8,1.7,0.2,5,1.4,7c4.9,7.5,10.1,14.7,15.3,22c0.9,1.3,1.9,3.2,3.2,3.6c2.6,0.8,5.9,1.5,8.2,0.5
			c1.3-0.6,1.3-4.6,1.5-7c0.1-1.2-0.9-2.5-1.6-3.6c-3.8-6.6-7.4-13.3-11.7-19.5C579,419.4,575.3,417.6,572.1,415z M88.9,308
			c-0.7,0.5-1.5,1-2.2,1.4c-0.1,1.2-0.8,2.7-0.3,3.7c3.7,8.4,7.3,16.9,11.8,25c1.3,2.3,5.3,4.3,8,4.2c5.6-0.1,10.8-2.3,14.5-8.5
			C111.3,323.4,97.9,318.5,88.9,308z M122.5,239.4c0.7,9,6.2,18.7,13.3,23.6c3.5-6.2,7.3-12.2,10.3-18.6c0.9-1.9,0.5-6.1-1-7.2
			c-2.4-1.8-6.1-2.8-9-2.4C131.7,235.6,127.5,237.7,122.5,239.4z M501,44.6c-6.3-5.5-11.7-10.2-17.1-14.9c-2.7-2.3-5.2-5.1-10.1-2.7
			c1.7,5.2,3.2,10.1,4.9,15.1c1.7,5,2.7,11.6,8.5,12.4c6.2,0.8,10.4-4.5,13.8-9.5C501.1,44.7,501,44.3,501,44.6z M182.5,85.5
			c-0.1,5,2.1,7.3,7.1,7.5c5.6,0.3,12.4-3.7,12.7-7.4c0.4-4.4-5.2-11-9.5-11.3C187.7,73.9,182.6,79.5,182.5,85.5z M160.6,481.5
			c8.5-6,8.7-15.5,0.3-22C155.8,468.9,155.7,475.5,160.6,481.5z M180.8,562.1c4.1-3.4,10.1-4.6,10.7-11.8c-4.7-3.1-9.2-3.3-12.8,0.6
			C175.5,554.4,176.8,558.2,180.8,562.1z M539.8,60.9c6.5-3.5,8.3-7.8,6.8-16.7C537.4,45.2,535.2,50.6,539.8,60.9z M568,348.9
			c1.9,1.2,3.5,2.7,4.3,2.4c1.2-0.5,2.4-2.3,2.4-3.5c0-1.1-1.6-2.2-2.5-3.3C571,345.7,569.8,347,568,348.9z M198.1,168.6
			c5.5-1.8,5.7-4,3.4-9.1C200.1,163.2,199.4,165.2,198.1,168.6z M70.7,887.1c4.8-2.9,4.8-2.9,4.2-8.4
			C73.2,882.1,72,884.6,70.7,887.1z M62.7,907.9c0.9-0.9,1.9-1.4,2-2c0.1-0.8-0.5-1.7-0.8-2.5c-0.9,0.6-2,1.1-2.5,1.9
			C61.2,905.6,62.1,906.7,62.7,907.9z M162.4,15.5c0.5-0.7,0.9-1.3,1.4-2c-1.5-1.1-3.1-2.1-4.6-3.2c-0.3,0.4-0.7,0.9-1,1.3
			C159.6,12.9,161,14.2,162.4,15.5z M105.3,84.8c-0.2-0.1-0.5-0.3-0.7-0.2c-0.2,0.1-0.3,0.4-0.5,0.6c0.4,0.1,0.8,0.3,1.2,0.4
			C105.3,85.4,105.3,85.1,105.3,84.8z"/>
		<path d="M1368,2c0.4,6,1.5,12,0.9,17.9c-1,11.6-2.5,23.1-4.7,34.5c-1.1,5.5-2.4,10.6-2.4,16.4c0,10.8-2.5,21.6-3.6,32.4
			c-1.4,13.5-2.3,27-3.8,40.5c-1.1,9.5-3.1,18.9-4.4,28.4c-0.6,4.5-0.7,9-0.7,13.6c0,2.6,1.1,5.3,0.7,7.9
			c-0.9,7.6-1.3,15.4-3.6,22.6c-4.1,12.9-9.4,25.5-14.3,38.2c-0.5,1.2-1.3,2.4-2.5,4.6c-3.3-3.3-5.3-5.3-7.3-7.3
			c-2.6-2.7-5.2-4.6-9.6-3.9c-2.5,0.4-6-0.9-7.9-2.7c-5.8-5.2-11.9-7.6-20-6.7c-7.2,0.9-14.6-0.7-21.9-0.4
			c-7.4,0.3-13.8,6.7-14.8,13.7c-0.7,5.1,2,8.5,6.5,9.9c4.1,1.3,8.4,1.7,12.7,2.3c3,0.4,6.1,0.2,8.9,1c1.6,0.5,3.3,2.3,3.8,3.9
			c0.3,1-1,3.1-2.2,4c-1.8,1.4-3.9,2.8-6.1,3.3c-23.4,5-45.3,14.9-68.5,20.5c-16.5,3.9-32.3,10.5-48.5,15.7c-7,2.3-14,4.2-21.1,6.2
			c-28.2,8.1-57,14.5-84.3,24.8c-34,12.8-68.8,23-103.4,34.2c-5.4,1.7-11,2.7-16.3,4.6c-29.9,10.3-59.8,20.7-89.7,31.1
			c-12,4.1-24,8.2-35.9,12.3c-15.8,5.4-31.5,10.7-47.3,16.2c-11.6,4-16.6,0.4-18.5-11.5c-3.5-20.9-0.4-41.8-1.7-62.7
			c-0.6-9.6-1.4-19.3-1.7-28.9c-0.4-14.9-0.1-29.9-0.7-44.9c-0.5-12.6-2.6-25-2.9-37.6c-0.4-14.6,0.6-29.1-2.8-43.5
			c4.1-16.5-0.7-33.1,0.2-49.7c0.8-15.1-0.9-30.3-1.9-45.5c-1-14.8-2.8-29.5-3.6-44.3c-1-17.6-1.5-35.1-2-52.7
			c-0.2-5.8,0-5.8-6.8-8.5c-1,7.9-1.9,15.6-2.9,23.7c-4.4,1.3-7.6-1-7.6-5c-0.1-5.7-0.9-10.8-3.8-16C698.2,11,698.6,6.2,698,2
			C921.3,2,1144.7,2,1368,2z M1252.5,171.7c-11.2,2.8-15.1,7.3-16.2,19.7c-0.4,4.6,0.4,9.3,0.2,13.9c-0.3,6.1,2.4,11.1,6.1,15.3
			c7.7,9,17,8.1,22.2-2.6c3.4-7.1,8.6-10.9,15.9-11.9c4.5-0.7,7.2-3.1,9.1-6.8c3-5.9,6.7-11.6,3.9-18.8c-0.6-1.4-0.3-3.3,0.1-4.8
			c4.1-13.7-0.3-27-1.9-40.3c-0.8-6.8-2.4-13.4-3.8-21c-1.4-2-3.4-5.1-6.2-9.3c-5.5,1.1-11.7,2.2-17.7,3.8c-2.1,0.6-4.2,2.2-5.6,3.9
			c-4.9,6.2-9.8,12.4-14.2,18.9c-4.5,6.6-3.2,10.7,4,14.3c1.8,0.9,4.2,1.3,5.2,2.7c1.4,1.9,2.7,4.6,2.5,6.8
			C1255.4,160.7,1253.9,165.6,1252.5,171.7z"/>
		<path class="st0" d="M442,2c2.5,12.7,4.6,25.5,7.6,38.1c2,8.4,5.3,16.1,13.2,21.5c9.6,6.5,16.2,14.4,16.7,27.6
			c0.7,18.1,5.8,35.1,18.7,49.3c6.2,6.8,6.7,16.5,5.9,25.7c-0.5,6.6-1.9,13.2-2.2,19.8c-0.4,8.2-1.3,16-9.1,20.1
			c0,1.4-0.3,2.3,0,2.6c7,7.9,6.6,16.7,3.7,26.2c-1.3,4.3-1,9.2-0.4,13.8c0.7,5.3-0.2,9.8-4,14.6c-4.1-4-5.5-9-7.1-13.9
			c-2.8-8.9-5.1-18-8.4-26.6c-3.3-8.5-7.8-16.6-12.1-25.6c4.8-5.4,9.1,2.3,15,2.8c-1.1-4.4-1.7-8.3-2.9-11.9
			c-4.5-13.1-9.5-26.1-13.6-39.3c-2.5-8.2-4.5-16.7-5.6-25.2c-1.7-12.5-2.4-25.1-3.5-37.7c-0.8-9.1-6-15.9-11.6-22.8
			c-1,0.7-2.4,1.2-2.4,1.8c-1.1,10.9-2.6,21.8-2.9,32.7c-0.2,7.6,1.5,15.2,1.9,22.9c0.5,8.4,2.2,16.2,4.9,24.2
			c3.2,9.5,5.9,19.4,4.6,30.2c-1.6,12.8-1.3,25.9-1.9,38.8c-0.1,3,0,6.3-1.3,8.8c-5.2,10.6-4,22-4.8,33.2c-0.2,2.6-0.6,5.3-1.4,7.8
			c-1.3,4.2-4.3,5.7-8.6,4.1c-0.6-0.2-1.3-0.5-1.8-0.8c-11.9-6.6-23.8-12.9-35.5-19.9c-3.4-2-6.2-2.8-10.1-2.7
			c-7.9,0.2-15.9-0.6-23.8-0.7c-9.3-0.1-18.8-1.1-27.8,0.4c-18.3,3.2-36.3,7.3-53.7,14.8c-9.7,4.2-19.2,8.5-28.3,13.8
			c-3.4,2-6.5,4.6-9.9,6.7c-2.5,1.6-5.1,3.2-7.9,4c-10.2,3-13,1-11.8-9.8c1.2-11.2,2.6-22.6,5.6-33.4c2.3-8.2,6.8-15.8,11.3-23.1
			c1.9-3.1,6.3-4.6,9.6-6.8c3.5-2.4,7.6-4.3,10.5-7.3c9-9.3,18-18.7,26-28.9c5.7-7.3,10.1-15.7,14.2-24c3.8-7.8,10.3-9,17.3-8.6
			c10.9,0.7,21.7,2.3,32.5,3.5c1,0.1,2.4-0.3,2.9,0.2c7.2,7.6,17.6,3.2,25.9,7c5.8,2.7,8.7,1.3,9.9-2.5c1.4-4.6-2-10.7-6.7-11.7
			c-1.9-0.4-4-0.1-5.9-0.1c-5.3-0.1-10.6-0.1-15.8-0.5c-4.6-0.3-9.5,0-13.7-1.5c-7.5-2.8-15.2-3.6-23-5c-6-1-8.9-7.8-9.3-14.1
			c-0.4-6.4,1.8-12,7.8-15c3.8-1.9,8.1-3.1,12.1-4.5c9.6-3.2,11.7-7.3,9.4-17.1c-0.7-2.9-0.3-6.9,1.2-9.3
			c7.8-12.7,16.3-24.9,24-37.6c2.1-3.5,1.7-8.4,3-12.4c1.6-4.9,4.4-4.3,7.1-0.7c-0.4,7-4.2,14.9,4.4,20.1c0.8-4.8,1.5-9.1,2.3-14.1
			c-1.9-1.7-4.4-3.8-6.8-6c4.4-4.8,3.8-10.2,2.3-15.8C399.3,2,420.7,2,442,2z M363.3,89.8c-4.9-3-10.9-5-16.4,1.4
			c11,10.4,23.4,12.9,36,6.8c-0.9-5-1.2-11.2-6.5-13.1C373.4,83.9,368.9,87.5,363.3,89.8z M286.2,225.4c-0.2-1-0.5-1.9-0.7-2.9
			c-2.5,0-5,0.2-7.5,0c-4.8-0.5-9.9-0.4-14.3-2.2c-4.5-1.8-8-2.6-11.6,1.3c-1.1,1.1-2.9,1.6-4.4,2.2c-2.8,1.1-6.4,2-4.3,6.1
			c1.7,3.2,4.6,2.2,6.8,0.3c3.7-3.1,7.2-2.3,11.1-0.6c2.1,0.9,4.5,1.8,6.7,1.7C274.6,231,281.5,231,286.2,225.4z M378.3,219.8
			c1.8,1.3,3.9,3.5,6.4,4.2c3.4,0.9,7.5-3.7,6.3-7c-0.6-1.6-3.2-3.2-5-3.4C382.6,213.3,379.2,214.2,378.3,219.8z M382.1,56.6
			c-3.4-1.1-5.3-1.6-8.6-2.7C375.5,59.3,377.4,59.8,382.1,56.6z M355.1,223.5c1.2-0.7,2-1.1,2.7-1.5c-0.6-1-1-2.1-1.7-2.9
			c-0.2-0.2-2.1,0.6-2.1,0.8C354.1,221,354.6,222,355.1,223.5z M298.4,228.1c0.4-0.4,1.1-0.8,1.1-1.2c0-0.5-0.6-0.9-1-1.4
			c-0.5,0.5-1.1,1.1-1.6,1.6C297.4,227.5,297.9,227.8,298.4,228.1z M377.7,70.9c-0.2-0.2-0.3-0.5-0.5-0.6c-0.2,0-0.5,0.2-0.8,0.3
			c0.3,0.3,0.6,0.7,0.8,1C377.4,71.4,377.6,71.2,377.7,70.9z"/>
		<path d="M2446,146c-4.1-0.9-8.3-1.9-13.5-3.1c-2.8-11.5-12.5-13.5-23.4-12.7c-2.1,0.1-4.9,1.3-5.9,2.9c-3.3,5.4-8.4,7.5-14,8.6
			c-6.3,1.2-9.6,5.1-11.6,11c-5,14.6-14.1,17.7-27.7,10.2c-10.2-5.6-17.6-13-18.8-25.2c-0.3-3.3-1.7-6.4-2.6-9.6
			c-2.7-9.6-2.5-10.5,4.8-18.2c-3.1-2-6.2-3.7-9-5.8c-4.7-3.6-4.7-6.2-1.1-10.7c3.5-4.4,6.7-9.1,10.2-13.5
			c3.3-4.2,6.4-8.6,10.2-12.2c6.3-6,9.7-5.8,17.7-2c7.2,3.4,14.7,6.2,22.2,9.1c3.4,1.3,7.4,2.7,10-1.3c2.6-3.9,2.5-8.3-0.5-12.1
			c-3-3.8-6.1-7.5-10.2-12.4c4.5-1.6,7.5-2.6,11-3.8c0-2.2,0-4.7,0-7.5c6.9-1.2,16.6,3.7,18.3-9.7c-3.7-0.1-7.2,0.2-10.5-0.5
			c-2.4-0.5-6.2-1.8-6.5-3.3c-0.4-2.4,0.8-5.9,2.6-7.6c5.2-4.7,10.7-9.5,18.5-4.4c1.1,0.7,3,0.1,5.1,0.1c-0.5-3.7-0.9-6.9-1.3-10.1
			c5.3,0,10.7,0,16,0c0.8,5.8,4.8,8.5,10,10C2446,56.7,2446,101.3,2446,146z M2340.4,112.7c-1.1,1.9-1.9,3.4-2.9,4.8
			c-4.8,6.7-3.3,10.9,4.8,12.6c1.9,0.4,4.2,0.7,5.8-0.1c4.5-2.1,8.5-5.1,12.9-7.3c4.2-2.1,8.7-3.7,13.8-5.8
			c-4.8-5.7-9.8-4.1-14.3-2.8C2354.3,115.9,2348.3,117.2,2340.4,112.7z M2411.8,102.2c3.6,3.3,6,5.6,10.1,9.5
			c-1.1-6.5-1.7-10.5-2.7-16.3C2416,98.3,2414.3,100,2411.8,102.2z M2361.2,86.8c-0.5-0.3-1-0.8-1.4-0.8c-0.4,0.1-0.6,0.8-0.9,1.2
			c0.5,0.3,1,0.8,1.4,0.8C2360.6,88,2360.9,87.2,2361.2,86.8z M2386.7,123.6c0.3,0,0.6,0,0.8-0.2c0.2-0.2,0.1-0.5,0.1-0.8
			c-0.4,0.1-0.9,0.2-1.3,0.2C2386.4,123.1,2386.6,123.4,2386.7,123.6z M2378.1,78.8c0.3-0.1,0.5-0.2,0.8-0.4c-0.3-0.3-0.7-0.6-1-0.9
			c-0.1,0.2-0.4,0.5-0.4,0.7C2377.5,78.5,2377.9,78.7,2378.1,78.8z"/>
		<path d="M-2,1686c2.5-1.5,5-3,8.7-5.2c1.5,2.8,3.1,5.5,4.2,8.3c2.7,7.1,6.7,12.9,13.2,17c2.8,1.7,5.5,3.9,7.5,6.5
			c6.5,8.5,14.5,15.4,22.8,22.1c6.1,5,8.8,5.1,14.2-0.5c7.4-7.6,14.7-15.4,22.6-22.5c13-11.7,29.4-16.6,45.9-20.9
			c9.8-2.6,18.8,2.5,28.2,4c1.7,0.3,3.3,3.1,4.3,5.1c2.9,6,5.7,12.1,8.3,18.2c2.6,6,2.3,8.3-3.8,11.4c-7.6,3.9-15.8,6.7-23.8,9.9
			c-3.7,1.5-7.8,2.1-11,4.2c-7.5,5-14.8,5-22.7,1.6c-2.5-1.1-6.3-2.4-8.3-1.4c-6.6,3.5-12.9,2.1-19.5,0.7c-1.8-0.4-3.7-0.3-6,1
			c3.9,1.8,7.9,3.7,12.4,5.8c-1.4,2.2-2.1,4.1-3.4,5.4c-11.1,11.4-22.5,22.7-33.5,34.2c-5.8,6.1-11.9,10.5-21.5,8.7
			c1.8,1.7,4,3.2,5.3,5.2c0.9,1.4,1.1,3.7,0.5,5.2c-0.4,0.9-3,1.8-4.2,1.4c-3.4-1-6.7-2.5-9.9-4c-3-1.4-6-3-9.5-4.8
			c-3.6,6.6-7.3,13.6-11.3,20.3c-3,5.1-6.5,9.9-9.8,14.8c0-32,0-64,0-96c3.7-5.7,6.7-12,12.7-15.8c2.7,1.4,5,2.6,7.3,3.8
			c5.2,3.6,6.8,0.6,8.4-5.1c-3.6,2.2-6,3.7-8.5,5.2c0.7-7.1,0.5-14-3.5-20.2c-4.5-7.1-8.9-8.1-16.4-4C-2,1699.3-2,1692.7-2,1686z
			 M29.4,1784.3c0.8,0.3,1.7,0.6,2.5,0.9c4.9-7.9,9.9-15.9,14.8-23.8c0.2-0.3,0.2-0.7,0.1-1c-1.2-6.6,2.7-11,8.4-14.9
			c-5.1-2.1-8.4-2.2-10.5,1.9c-5,10.1-10,20.2-14.7,30.4C29.2,1779.8,29.6,1782.2,29.4,1784.3z M149.4,1707
			c-14.8-11.1-26.3-7.8-30.2,7.8C129,1712.2,138.4,1709.8,149.4,1707z"/>
		<path d="M-2,1866c18.9-1.3,34.2-10.1,47.8-22.6c5.1-4.7,9.8-10,15-14.6c2.8-2.5,6.6-6.4,10.4-2.9c3.7,3.3-0.3,6.8-2.4,9.5
			c-4.9,6.2-10.2,12.1-15.4,18.3c4.5,16.7,1.1,27.8-12.7,38.5c6.2,2,10.2-0.9,13.3-4.6c3-3.5,5.4-7.6,7.8-11.6
			c2.7-4.6,5.6-9.2,7.4-14.1c4.5-11.6,13-16.1,24.9-15.7c8.5,0.3,17.3-3,25.3,1.9c0.4,0.8,0.7,1.3,1,1.9c5.4,13-0.7,23.2-8.7,32.5
			c-4.3,5-9.2,9.7-14.5,13.6c-8.3,6.1-17.1,11.6-25.9,17c-8.5,5.2-17,10.4-27.2,12.1c-2.8,0.4-5.3,2.2-8,3.4
			c0.2,0.7,0.3,1.4,0.5,2.1c6.7-1.5,13.5-3,21.4-4.7c-3.9,8.6-10.3,13.2-16.3,18.1c-13.2,10.9-28.6,18.1-43.7,26c0-20.7,0-41.3,0-62
			c0.9-4.1,2-8.2,2.8-12.4c1.3-7.2,2.4-14.3,3.8-22.4c-1.7-0.3-4.1-0.7-6.5-1.2C-2,1870-2,1868-2,1866z"/>
		<path d="M2446,622c-5.5-1.7-9.3-4.7-10.4-10.8c-0.5-2.8-2.3-5.4-3.7-8.1c-0.8-1.5-2.3-2.6-2.7-4.2c-3.4-13.7-6.7-27.4-9.9-41.1
			c-1-4.3,2.2-5.4,6.7-5.5c-5.3-6.8-6.1-13.6-5.7-21.2c0.2-4.3-2.3-8.9-4.3-13c-2-4.1-2.3-7.9-1.5-12.5c1.4-8.8,1.9-17.8,2.7-26.7
			c0.4-4-1.2-7.1-4.5-9.4c-2.4-1.7-4.7-3.5-7.3-5.5c4.3-4.5,8.6-8,11.9-12.4c5.8-7.9,5.5-12.7-1.8-19.1c-4.5-4-5.8-8.2-6-13.9
			c-0.1-6.2-1.6-12.3-2.5-18.6c13.5,0,26.3,0,39.1,0C2446,474,2446,548,2446,622z"/>
		<path class="st0" d="M-2,274c5.1,1.3,11.7,1,14.8,4.2c2.6,2.7,0.9,9.4,1.8,14.2c5,26.8,8.5,54.1,25,77.2
			c5.2,7.3,10.3,14.7,15.1,22.3c2.1,3.3,4.3,7.2,4.4,10.8c0.4,13.6,0,27.2-0.3,40.8c-0.2,6.2-3.8,8.5-11.3,7.7
			c-5.3-0.5-7.2-3.1-6.6-9c0.2-1.6,0.6-3.3,1.1-4.8c1.7-4.9,0.4-8.5-4.4-10.6c-4-1.7-6.5-4.3-6.8-8.9c-0.5-6.7-5.3-10.2-10.9-11.4
			c-7.1-1.5-14.5-1.7-21.7-2.4C-2,360.7-2,317.3-2,274z"/>
		<path d="M2364,2c-4.8,11.3-5.6,11.8-18,9.6c-4.5-0.8-9-2.9-13.5-3c-6.8-0.1-13.8,0.5-20.4,2.1c-2.3,0.6-3.8,4.9-5.2,7.8
			c-1.1,2.4-0.9,5.3-2.1,7.6c-2.9,5.8-10.3,7.5-13.9,2.9c-7.1-9.1-16.7-7.2-25.4-5.5c-7.2,1.4-13.8,3.9-21.3,1.6
			c-4.7-1.4-9.1,0.9-12.8,4.1c-4.2,3.7-8.7,5.4-14.6,4.8c-3.8-0.4-7.9,0.9-11.6,2.1c-9.3,3-18.1,2.1-27.2-1.2c-6.7-2.4-14-3.2-21-5
			c-3-0.7-5.8-2.1-11-4c4.2-2.1,6.1-3.7,7.9-3.8c11.6-0.2,18.2-6.8,22.4-16.7c0.5-1.2,1.1-2.4,1.7-3.6C2240,2,2302,2,2364,2z"/>
		<path d="M2446,366c-2.6-0.4-5.3-0.5-7.8-1.3c-8.6-2.6-17-2.3-25.5,0.3c-1.9,0.6-3.9,1.8-5.7,1.5c-2.8-0.4-6.4-1.2-7.8-3.1
			c-2.3-3.2-1.2-7.4,1.9-9.9c3-2.4,6.6-4.2,10.1-6c4.6-2.4,9.7-4,12.4-10c-7.4-3.3-14-6.6-21.7-1.2c-2,1.4-5.6,1-8.4,0.5
			c-2.9-0.5-5.4-2.6-8.3-3.2c-2.5-0.5-5.2,0.1-8.4,0.3c0.2-6.9,4.2-10.8,9.3-13.1c15.1-6.7,29-16.3,46-18.7c4.6-0.7,8.6-5.5,13.9-2
			c0,3.3,0,6.7,0,10c-6.3,1.7-6.6,2.2-3.5,6.5c1,1.3,2.3,2.4,3.5,3.5C2446,335.3,2446,350.7,2446,366z"/>
		<path class="st0" d="M-2,90c12.2,1.5,24.4,3.3,36.6,4.4c6.5,0.6,10.8,3.3,12.5,9.4c2,7.3,3.9,14.7,5,22.1
			c0.9,5.9,0.9,11.9,0.9,17.9c0,3.9-0.1,8-1.1,11.8c-1.7,6.4-4.6,7.7-11.2,5.6c-2.7-0.8-5.5-1.6-8.9-2.5c2-3.2,4.1-6.2,5.8-9.3
			c4.2-8,2.4-12-6.2-15.1c-11.2-4-22.4-8.2-33.6-12.4C-2,111.3-2,100.7-2,90z"/>
		<path class="st0" d="M-2,196c4.6,0.1,9.2,0.6,13.8,0.2c6.6-0.6,13.1-1.8,19.6-3c6.4-1.2,7.8-0.9,9.1,5.5
			c1.6,7.8,2.6,15.7,3.5,23.6c0.2,2.1-0.9,4.4-1.9,6.4c-3.4,6.7-3.4,6.6,2.5,11.1c8.2,6.3,10.1,15.8,12.3,25c0.4,1.7-1.4,4-2.6,7.2
			c-10.5-6.8-20.3-12.8-29.8-19.3c-2.1-1.4-3.7-3.9-4.7-6.2c-2.2-5,0.1-9.3,5.5-10.5c2.5-0.6,5.1-0.6,7.8-1c-3.1-6.7-5.1-8.4-10.2-6
			c-7.8,3.7-12.4,0.5-17.1-5.1c-2-2.4-5.1-4-7.7-6C-2,210.7-2,203.3-2,196z"/>
		<path class="st0" d="M-2,570c6.5,5.1,13,10.2,19.6,15.2c7.8,6.1,15.6,12.1,23.4,18.2c3.1,2.5,6.6,4.7,8.9,7.8
			c1.7,2.3,2.7,6.1,2,8.7c-0.3,1.4-4.9,2.3-7.6,2.3c-4.9,0-9.9-1.6-14.8-1.3c-10.5,0.6-21,1.9-31.4,3C-2,606-2,588-2,570z"/>
		<path class="st0" d="M292,2c-1.9,6.7-6.5,10.3-13.2,12c-3,0.7-6,2.6-8.2,4.8c-5.3,5.4-10.2,11.3-15.3,17c-4,4.4-7.7,9.1-12,13.3
			c-2.9,2.9-6.4,5.1-11.4,9c0.4-6.7,0.9-10.9,0.8-15c-0.1-4.3-0.9-8.6-0.9-12.9c-0.1-4.7,2.6-7.5,7.1-8.1c3.1-0.4,6.4-0.1,10.2-0.1
			c-6.4-7.3,0.2-13.4,2.7-20c2.7,0,5.3,0,8,0c-2.6,4.4-3.7,8.7,1.9,14.4c1.7-5.8,2.9-10.1,4.1-14.4C274.7,2,283.3,2,292,2z
			 M256.8,22.3c-0.2,0.2-0.5,0.4-0.5,0.7c0,0.2,0.3,0.5,0.5,0.7c0.3-0.3,0.5-0.7,0.8-1C257.3,22.5,257.1,22.4,256.8,22.3z"/>
		<path d="M2446,272c-5.7-1.6-9.8,0.4-14.3,4.4c-11.2,10-24.3,17-39.2,20.1c-5.8,1.2-11-0.5-15.8-4.6c2.4-5.4,6.8-7.5,11.4-9.3
			c9.2-3.7,18.4-7.3,27.6-11.1c1.5-0.6,3.4-1.4,4.1-2.7c5.8-10.5,16.7-13.6,26.2-18.7C2446,257.3,2446,264.7,2446,272z"/>
		<path d="M2446,176c-5,0.1-10,0-14.9,0.5c-12.2,1.2-13.5,2-21.7,10.9c-2.4-1.3-4.9-2.7-7.8-4.2c0.6-3.8,1.1-7.3,1.7-11.3
			c-2.6-1.1-5.1-1.8-7.2-3.2c-5.1-3.4-4.6-8.8,0.9-11.4c2.1-1,4.6-1.4,6.4-2.8c6.7-5.1,14-5.4,22.3-2.8c0,1.6,0,3.5,0,5.4
			c-0.2,7.6,2.5,9.4,9.7,6.4c3.7-1.5,7.1-3.6,10.6-5.4C2446,164,2446,170,2446,176z"/>
		<path class="st0" d="M-2,924c10.4,3.3,17,12.1,23.1,19.8c5.5,7,5.5,17.6,1.9,26.8c-1.8,4.6-5.4,5.5-10.7,2.5
			c-4.9-2.7-9.5-6.1-14.2-9.1C-2,950.7-2,937.3-2,924z"/>
		<path d="M-2,1606c4.7-2.4,9.3-5.2,14.2-7.1c5.3-2,10.5-1.6,14.7,2.9c4.2,4.5,6.2,9.5,3.8,15.5c-1.1,2.8-2.1,5.6-3.6,8.2
			c-6.4,11.1-8.3,11.6-20.4,6.5c-2.9-6.7-5.8-13.4-8.7-20.1C-2,1610-2,1608-2,1606z"/>
		<path class="st0" d="M516,2c1.3,8.5,3.1,16.9,3.9,25.4c0.8,7.6-5.6,11.9-12.3,8.1c-3.8-2.2-7.4-5.7-9.8-9.4
			c-5-7.7-9.3-16-13.8-24.1C494.7,2,505.3,2,516,2z"/>
		<path class="st0" d="M-2,42c5.5,0.5,11.5-0.1,16.4,1.9c4.6,1.9,10.5,4.6,9.2,12.2c-0.3,1.8,1.9,4,2.5,6.2c0.5,2,0.4,4.1,0.6,6.2
			c-2.2,0.2-4.9,1.2-6.4,0.3C13.1,64.8,5.5,65.8-2,66C-2,58-2,50-2,42z M7.5,52.7c1.1-1.7,1.8-2.5,1.7-2.6c-0.6-0.7-1.3-1.2-2-1.7
			c-0.3,0.5-1,1.1-0.9,1.5C6.4,50.8,7,51.6,7.5,52.7z"/>
		<path class="st0" d="M17.9,1730.1c-2.3-1.2-4.6-2.4-7.3-3.8c-6,3.8-8.9,10.1-12.7,15.8c0-12,0-24,0-36c7.4-4.2,11.9-3.1,16.4,4
			c3.9,6.2,4.2,13.2,3.5,20.2L17.9,1730.1z"/>
		<path d="M-2,1648c5.8,6.6,11.7,13.3,18,20.4c1.7-3,2.8-5.1,3.9-6.9c1.3,0.1,2.1-0.1,2.6,0.2c6.1,3.8,8.3,7.9,6.3,11.8
			c-2.7,5-8.9,7.3-14.6,4.1c-5.7-3.2-10.8-7.6-16.1-11.5C-2,1660-2,1654-2,1648z"/>
		<path d="M2446,226c-4.2-1.9-8.6-3.4-12.6-5.7c-3.9-2.2-4.3-5.8-1.6-9.3c3.2-4.2,6.9-7.8,8-13.4c0.3-1.6,4-2.4,6.2-3.6
			C2446,204.7,2446,215.3,2446,226z"/>
		<path class="st0" d="M24.2,15.8c-6.4,0.4-12.6,2.6-19.2,0.4C3.3,15.6,0.4,18.6-2,20c0-6,0-12,0-18C3.3,2,8.7,2,14,2
			c3.4,4.6,6.7,9.3,10.1,13.9C24.1,15.9,24.2,15.8,24.2,15.8z"/>
		<path class="st0" d="M-2,822c2.7,8.4,5.2,16.8,8,25.2c1.6,4.7,0.7,8.3-3.4,11.1C1,859.4-0.5,860.8-2,862C-2,848.7-2,835.3-2,822z"
			/>
		<path class="st0" d="M-2,1872c2.4,0.4,4.8,0.9,6.5,1.2c-1.3,8.1-2.5,15.3-3.8,22.4c-0.8,4.2-1.8,8.3-2.8,12.4
			C-2,1896-2,1884-2,1872z"/>
		<path d="M266,2c-1.2,4.3-2.5,8.6-4.1,14.4c-5.6-5.7-4.4-10-1.9-14.4C262,2,264,2,266,2z"/>
		<path class="st0" d="M2446,12c-5.2-1.5-9.2-4.2-10-10c3.2,0,6.3,0,10,0C2446,5.3,2446,8.7,2446,12z"/>
		<path class="st0" d="M-2,1022c6.9,7.5,6.9,8.5,0,14C-2,1031.3-2,1026.7-2,1022z"/>
		<path class="st0" d="M2446,320c-1.2-1.2-2.5-2.2-3.5-3.5c-3.1-4.2-2.8-4.7,3.5-6.5C2446,313.3,2446,316.7,2446,320z"/>
		<path d="M-2,1634c2.9,2,4.8,4,0,6C-2,1638-2,1636-2,1634z"/>
		<path d="M-2,1570c0,4.7,0,9.3,0,14C-2,1579.3-2,1574.7-2,1570z"/>
		<path d="M372.1,1175.8c1.1-14.7,5.7-19.7,20.2-21.3c13.6-1.5,27.2-2.4,40.8-3.2c2.8-0.2,6.4,0.4,8.4,2.1c4,3.6,8.2,5.4,14.1,3.5
			c0.4,3.3,1.1,5.5,0.9,7.6c-0.3,6-0.9,11.9-1.4,17.9c-0.1,1.7,0.4,3.6-0.3,4.9c-4.3,8-3.1,16.8-4.3,25.3c-1,7.4-2.2,8.8-9.5,8.6
			c-15-0.4-29.1,3.9-42.9,8.5c-14.7,5-28.9,11.6-43.3,17.5c-2.8,1.1-5.5,2.9-8.4,3.1c-8.8,0.4-15.5,4.6-22.5,9.5
			c-14.2,10-29.5,18.1-46.7,22c-14.8,3.4-28.4,1.9-39.5-9.8c-1.1-1.2-2.7-1.9-5-3.4c1.6-3.3,2.7-6.6,4.6-9.5
			c5.5-8.3,11.6-16.3,16.8-24.8c9.5-15.1,23.6-25.3,37.5-35.4c13.1-9.6,27.4-17.5,41.1-26.3c5.1-3.3,10-4.3,16-2.4
			C356.5,1172.6,364.3,1174,372.1,1175.8z"/>
		<path d="M321.6,736.8c5.3-0.2,7.5-2.7,7.3-6.4c-0.3-8.2,4.4-13.9,9.4-19.2c4.9-5.2,8.3-12.3,15.7-14.7c5.2,6.7,5.1,8.5-0.6,12.8
			c-2.1,1.6-4.2,3.1-6.2,4.9c-0.4,0.3-0.3,1.2-0.4,2.1c4,5.6,7.4-2,12.2-0.6c-1.3,5.6-2.6,11.1-3.9,16.6c0.6,0.3,1.1,0.7,1.7,1
			c1.3-1.5,2.7-2.9,3.7-4.5c1.9-3.1,3.2-6.6,5.2-9.6c2.4-3.7,5.6-4,9.4-1.5c7.6,4.9,7.6,4.8,14.9-0.3c0.7-0.5,1.8-0.4,2.8-0.6
			c0.5,9.2-5,24.8-11,32.2c-5.6,7-11.2,14-16.4,21.3c-5.1,7-12.3,10.1-20.2,11.6c-2.9,0.6-6.2-1.3-11-2.5c-4.6,4-10.2,8.6-15.5,13.5
			c-3.8,3.5-6.6,8.4-13.4,5.5c-2-0.9-5.4,2.1-8.3,2.6c-2.3,0.4-4.9-0.2-7.3-0.3c0.4-2.4,0-6,1.4-7c5.4-3.8,5.9-9.4,7-14.9
			c0.2-1,0.3-2,0.4-3c3.1-19.2,3.1-19.2-1.4-34.2c3.2,0.7,5.9,1.4,10.3,2.4c-5.5-8-11-14.8-15-22.4c-3.9-7.4-7.5-15.4-5.6-25.3
			c9,4.4,10.7,14,17.4,20.6c3.6-9,3.2-16.9-0.9-24.9c-6-11.8-4.4-14.3,9.3-15.5c1.6-0.1,3.2-0.5,6.7-1c-7.9-10.1-14.9-19.2-22.6-29
			c0,10.1,0,20.2,0,31.3c-6.7-1.9-9.4-6.2-11.3-10.5c-6-13.7-11.8-27.5-17.1-41.5c-5-13.3-7.8-27.7-14.4-40.1
			c-6.7-12.6-11.2-25.6-14.6-39c-3.3-13.2-5.3-26.7-7.9-40c-0.6-3.2-0.4-6.2,3-7.6c3.5-1.4,6,0.8,7.3,3.6c2.5,5.4,4.6,11,6.8,16.5
			c7,17.6,14,35.2,21,52.7c0.5,1.2,1.2,2.8,2.2,3.2c10.9,4.6,13.8,16.9,22.7,23.3c0.8,0.6,1.2,1.8,2,2.2c8,3.9,13.7,9.8,17.6,17.8
			c0.5,1.1,1.8,2.2,3,2.5c9,2.3,11.6,9.4,14,17.3c1.1,3.8,5,6.8,7.8,9.9c1.8,1.9,4.3,3.2,6,5.2c4,4.7,4.5,7.9,0.3,12.4
			c-9.7,10.3-15,22.8-18.6,36c-2.8,10.2-4.3,20.8-6.2,31.2C320.3,733.8,321.1,735.1,321.6,736.8z M316.1,779.5
			c0.4,0.5,0.7,0.9,1.1,1.4c0.3-0.4,0.6-0.8,0.8-1.2c0.1-0.2-0.4-0.7-0.5-0.7C317,779,316.5,779.3,316.1,779.5z"/>
		<path d="M174.7,1391.2c2.6-8.8,6.2-17.4,7.6-26.3c1.6-10.3,5-18.4,15.4-22.3c2-0.8,3.7-2.5,6-4.2c3,5.9,0.7,10.9-0.4,15.9
			c-1.9,8-3.5,16.1-5.3,24.2c-1.1,5.2-1.8,10.6-3.7,15.5c-4.2,10.6-7.5,21.3-5.9,33.3c-3.1,0.8-5.5,1.4-8.3,2.2
			c-0.1,0.7-0.2,1.6-0.2,2.5c0.1,2.9,1.1,6.1,0.4,8.7c-2.8,10.3-6.4,20.3-9.1,30.6c-1.8,6.7-2.5,13.6-3.7,20.4
			c-0.3,1.9-0.1,4.1-0.9,5.8c-5.4,11.7-11,23.3-16.4,34.7c-7.8,0.2-11.2-4.6-15.1-8c0.6-15.5,5.3-29.6,10.5-43.6
			c3.2-8.7,6.4-17.5,3.8-27.3c-0.6-2.3,0.8-6.2,2.6-8c7.8-7.6,10.4-16.7,9.1-27.2c-0.2-1.6,0.3-3.3,0.6-4.9
			c3.7-18.5,7.5-37.1,11.3-55.6c1-5,2.4-10.1-0.4-16c-1.4,1.6-2.3,2.2-2.5,3c-2.2,10-3.8,20.2-6.6,30.1c-1.3,4.6-3.9,9.2-7.1,12.8
			c-3.7,4.2-4.7,8.3-4.2,13.6c0.4,5.5-0.2,11.2-1,16.7c-0.2,1.3-2.5,3-4.2,3.3c-1,0.2-3.2-1.5-3.6-2.8c-1.3-4.4-2.1-9-3.3-14.5
			c-2.6-0.5-6.5-0.4-7.7-5.6c-0.7-3.3-3.9-6-5.8-9.2c-1.9-3.1-3.6-6.3-5.1-9.6c-1.9-4.1-3.6-8.3-5.3-12.5c-1.1-2.7-3.2-5.8-2.8-8.3
			c1.7-9.1,3.9-18.2,6.6-27.1c1.5-5,5.7-6.6,11.1-6.5c6.5,0.1,13.3-0.2,19.6-1.7c17.5-4.1,33.1,9.7,29.9,27.3
			c-1.4,7.5-3.2,15-4.8,22.5c-1.2,5.8-2.2,11.6-3.3,17.4C173.3,1390.8,174,1391,174.7,1391.2z"/>
		<path d="M204.8,1255.1c5.2-10.3,4.4-20.6,6.9-30c2.5-9.6,4.8-19.3,7.2-28.7c1.1-0.4,1.8-0.9,2.3-0.7c14.4,4.3,14.5,4.3,11.7,19.3
			c-1,5.6-3.2,10.9-4,16.5c-0.9,6.1-0.8,12.4-1.2,18.7c-0.2,4.3-0.3,8.6-0.8,12.9c-0.7,5.1,0.2,9.1,5.6,11.4c4.1,1.8,7,5,7.4,10.3
			c-4,3.3-8.6,1.9-13.1,1.6c-6-0.4-6.5,0.6-6.4,6.7c0.1,4.2-0.1,8.6-1.3,12.6c-2.8,9.5-7.6,18.1-13.5,26.7c-6-3.9-10.8-8.2-17.7-7.3
			c-1.1,0.1-2.5-1-3.5-1.8c-10.3-8.9-20.7-17.7-30.7-27c-7.6-7.1-7.6-8.1-1-16.5c8.1-10.5,16.6-20.8,25.1-31.1
			c6-7.2,12.7-7.4,19.7-0.8C199.7,1249.8,201.7,1252,204.8,1255.1z"/>
		<path d="M316,1115.9c9.4-1.4,16-7.6,22.8-13.5c6.7-5.9,13.9-11.4,20.4-17.5c5.7-5.3,12.2-6.1,18.6-5.5c2.7,4.8,5.1,8.9,7.7,13.5
			c-2.8,3.6-6.5,2.3-9.7,1c-6.6-2.8-11.4-1.1-15.5,4.6c-6.2,8.5-12.7,16.9-19.3,25.1c-3.9,4.9-8,9.9-12.8,13.9
			c-5.3,4.4-11.7,5.9-18.8,3.6c-4.3-1.4-9-1.9-13.6-2.3c-4.3-0.4-7.5-2-10.6-6.7c5.3-2,9.8-4.1,14.5-5.3c4.2-1,5.9-3.1,6.9-7.3
			c3.8-14.8,4.4-29.4,0.4-44.2c-0.5-1.7-0.3-4.1,0.6-5.7c2.3-4,4.5-8.4,7.9-11.4c7-6.5,14.7-12.3,22.2-18.3c3.1-2.5,6.1-2,9.1,0.3
			c4.4,3.5,9,6.8,13.3,10c8.5-3.7,17.4-5.4,22.2-14.7c2.5,2.8,4.2,4.6,6.1,6.7c0.7-1,1.8-1.8,1.8-2.5c-0.2-2.9-0.6-5.8-1.3-8.7
			c-1-4,0.2-6.4,4.3-7.5c4.7-1.3,9.3-2.7,14.2-4.2c0.1,0.1,1,0.8,0.9,1c-6.2,10.5-7.9,22.8-18.9,31.4c-21.6,17-41.5,36.4-62.1,54.7
			c-3.6,3.2-7.4,6.3-11.1,9.5c-1.4,1.2-2.9,2.4-4.3,3.7c0.5,0.4,0.9,0.7,1.4,1.1C314.1,1119.1,315,1117.5,316,1115.9z M340,1051
			c-1.8,8.1-3.7,15-4.7,22.1c-1,6.8-7.5,12.3-4.8,21c1.8-1.5,3-2.2,3.7-3.1c7.1-10.2,14-20.4,20.7-30.1
			C350.5,1057.9,346.2,1055,340,1051z M372.1,1057.8c0.4-0.4,0.9-0.8,1.3-1.2c-1-1.1-2-2.2-2.9-3.3c-0.4,0.4-0.9,0.8-1.3,1.2
			C370.1,1055.6,371.1,1056.7,372.1,1057.8z"/>
		<path d="M1509.8,184.9c-2,6.7-4.4,9.3-10,8.1c-3.4-0.7-7.9-1.7-10.3-0.2c-5.4,3.5-12.8,5-15,12.4c-5.3,17.8-20.7,18.4-35,21
			c-3.2,0.6-6.7,0.6-9.5,2c-4.3,2.2-7.9,2.4-12.1-0.2c-3.3-2-7.4-2.7-11.1-4.2c-3.4-1.3-6.9-2.4-9.9-4.3c-8.4-5.4-15.8-5.6-24.1-0.1
			c-3.2,2.1-6.4,4.4-9.4,6.5c-8.9-10.1-10.1-26.6-3.4-36c2.7-3.9,6.5-5.7,11.1-5.8c6.3-0.2,12.7,0,19,0c36.3-0.1,72.6-0.2,108.9-0.2
			C1502.2,183.8,1505.4,184.4,1509.8,184.9z"/>
		<path d="M376.3,562.3c-5.5-1.6-6.1-6.3-7.8-10c-5.7-12-10.8-24.3-17.2-36c-3.6-6.6-8.6-13-14.4-17.8
			c-13.7-11.3-15.8-26.5-15.7-42.4c0-14.3,1-15.8,6.7-25.9c0,4.2,0,6.5,0,8.8c0,2.2,0,4.5,0,7.6c11.1-17.8,11.6-18.4,21.6-24.9
			c1.5,3.8,2.9,7.4,4.2,11c4.5,12,7,24.3,7.5,37.1c0.1,4,1.2,7.9,2.1,11.8c0.4,1.9,1.1,4.8,2.4,5.3c8.2,3.5,7.5,11.4,10.7,18.3
			c0.6-2.3,1.2-4.6,1.7-6.9c2.9-14.7,5.6-29.4,8.7-44.1c0.9-4.1,3-7.9,4.5-11.9c11,4.7,11,4.8,5.6,23.1c1.3,0.5,2.7,1.2,4.1,1.7
			c1.1,0.3,2.4,0.3,5.2,0.6c-2.5,3.7-4.2,6.4-6.1,8.9c-10.2,13.7-19.7,27.7-24.1,44.5c-1.6,6.2-3.5,12.2,0.7,18.2
			c1,1.5,1.2,3.8,1.1,5.7C377.6,550.8,376.9,556.3,376.3,562.3z"/>
		<path d="M199.4,1202.6c-13.3-8.6-27.6-14.7-38.1-26c-7.9-8.5-15.2-17.3-18.1-29.3c-2.7-11.2-7.4-22-11.2-32.9
			c-8.5-24.9-10.7-50.5-8-76.7c0.4-4,0-8,0.4-11.9c0.4-4.1,1.4-8.2,3.3-12.4c7.5,8.5,15.6,15.6,14.5,28.7c-1.7,21.3-1,42.4,6.8,62.9
			c8,21.1,18.6,40.5,35,56.1C196.2,1172.5,197,1187.7,199.4,1202.6z"/>
		<path d="M454.7,655.2c1.5,1.8,2.9,3.5,4.5,5.3c-3.3,9-12.5,11.8-17.9,18c-5.9,6.9-12.3,12.8-19.1,18.6
			c-6.3,5.4-8.3,15.2-19.4,18.4c1.6-11-0.2-21.4,7.9-29.6c6.5-6.5,6.5-6.6-0.9-12.4c-0.7-0.6-1.2-1.5-2.3-2.9c1.3-2,2.4-4.5,4.1-6.2
			c25.2-25.5,50.5-51,75.9-76.4c2.3-2.3,4.9-4.6,7.7-6.3c5.8-3.5,11.3-2,16.1,3.8c-0.2,0.6-0.4,1.7-0.8,1.7
			c-10.7,1.6-11,10.6-11.5,18.1c-0.5,8-3.3,13.9-9.2,19c-2.4,2.1-4.2,5.1-6,7.9C474.6,646.1,469.8,650,454.7,655.2z M433.8,662.2
			c-0.5-0.5-1.1-1-1.6-1.5c-3,3.4-6.1,6.8-9.1,10.3C429,670.2,432.4,667.2,433.8,662.2z"/>
		<path d="M432.3,596c4.9-5.6,9.9-11.1,14.8-16.7c0,7.2-4,12.3-8.3,17c-8,8.8-16,17.6-24,26.3c-0.2,0.2-0.4,0.5-0.6,0.8
			c-6.6,7.4-10,7.7-19.8,1.7c-3.9,1.9-8.1,4-13.4,6.6c-2.7-12.5,2.8-23.6,1.9-34.4c7.6-5.4,14.5-10.6,21.6-15.5
			c16.9-11.7,26.7-28.6,33.7-47.1c3.8-9.9,6-20.4,8.6-30.7c1.4-5.5,3.6-10,8.8-12.6c4.1-2,7.3-0.7,8.5,3.7c0.6,2.2,0.9,4.7,0.5,6.9
			c-2.7,14-3.9,28.6-8.9,41.8c-3.8,10-9.7,19.2-11,30.3c-0.3,2.6-3.3,4.8-5.1,7.2c-3.1,4.2-6.3,8.4-9.4,12.6
			C430.8,594.6,431.6,595.3,432.3,596z"/>
		<path d="M349.7,377c-16,14.4-24.7,33.9-33.7,54.7c-2.4-2.9-4.3-4.3-5.1-6.1c-7-16.2-15.3-31.8-25-46.6c-3.6-5.4-2.8-6.8,2.6-10.4
			c17.4-11.7,35.7-12.2,55.2-6.2c16.2,5,29.6,15.1,44.1,22.9c8.8,4.8,8.8,8.4,3.1,17c-1.8,2.8-3.7,5.5-5.3,8.5
			c-1.5,2.9-2.6,6-4.6,10.5C370.4,406.3,360.1,391.8,349.7,377z"/>
		<path d="M213.5,1543.6c-2.9-9.6-13-7.4-21-8.9c-2.3-0.4-6.3,1.4-7.7,3.4c-5.1,7.4-11,10.2-19.9,4.5c4.4-16.9,19.9-28.1,26-43.7
			c10-4.4,18.2-0.8,26.6,3.6c6.8,3.5,14.1,5.9,21.1,8.9c15.7,6.7,26.2,19,35,33c1.8,2.8,3.8,5.9,1.2,9.2c-2.8,3.6-6.4,2.2-10.1,1.3
			c-7.7-1.8-15.5-3.4-23.4-4.7c-4.9-0.8-9.4-1.4-13.8-4.6C224.7,1543.6,219.7,1544.4,213.5,1543.6z"/>
		<path d="M54.3,1606.9c-1.4,7.9-2.8,15.9-4.5,25.5c-2.7-2.8-4.8-4-5.5-5.8c-2.7-6.4-6.7-12.8-7-19.4c-1.3-25.6,1.4-50.5,17.8-71.9
			c1.4-1.8,3-3.6,4.8-5c3.9-2.9,6.9-2.6,9,1.8c4.5,9.6,8.3,19.4,8.9,30.4c0.8,16.9-2.7,33.1-6.8,49.2c-1.5,6.1-3.3,12.1-1.4,18.6
			c1.2,3.8-0.8,6.6-4.8,7.3c-4.4,0.8-6-2.3-6.3-5.9c-0.4-4.3-0.3-8.6-0.6-13c-0.2-3.9-0.5-7.8-0.7-11.6
			C56.2,1607,55.3,1607,54.3,1606.9z"/>
		<path d="M54.2,1658.9c0-5,0-10,0-15.2c7.7-2.4,10.1,3.6,13.6,7.7c6.2-2,7.9-7.2,10.5-12.4c1.9-0.3,4.3-0.3,6.4-1
			c1.8-0.6,4.2-1.7,4.7-3.1c4.8-13,13.1-24.2,18.6-36.8c2.6-5.9,6.8-9.5,14.1-11.1c3.9,10-2.9,16.6-6.8,23.6
			c-4,7.3-5.2,17.3-15.9,18.3c-1.3,5.4-2.3,10.3-3.7,15c-1.3,4.5-3,8.8-4.8,13.9c1.7,2.2,3.7,4.8,6.2,8c-1.9,3.9-3.9,7.9-6.4,12.8
			c3.8,0,6.9,0,10,0c-1,10.7-6.3,13.9-14.5,9.2c-8.5-4.9-8.5-4.9-17.6-0.7c-3.3-3.5-6.5-6.8-9.6-10.2c-1.8-2-3.3-4.2-5-6.1
			c-3.5-3.9-6.8-7.4-12.9-8.4c-11.6-2-18.7-16.2-14.2-27c1.7-4.1,4.3-7.9,7.3-13.3c3.9,7.5,7,13.2,10,19c2.9,5.8,5.7,11.7,8.5,17.6
			C53.3,1658.6,53.8,1658.8,54.2,1658.9z M80.6,1672.6c0.3,0.4,0.6,0.8,1,1.2c1.1-0.9,2.3-1.8,3.4-2.7c-0.3-0.4-0.6-0.8-1-1.2
			C82.9,1670.8,81.7,1671.7,80.6,1672.6z"/>
		<path d="M264.4,363.5c9.1,6.9,16.3,13.6,21.4,22.4c2.2,3.8,3.1,7.5-0.1,11.1c-17.3,19.5-19.4,43.3-18.2,67.5
			c0.7,14.9,3.4,29.7,5.2,44.5c0.2,1.5,0,3.1-0.8,5.1c-5-12.2-13.1-21.4-25.5-27c0.7-0.8,1.4-1.5,2.1-2.3c2.7,0.9,5.3,1.7,8,2.6
			c4.2-3.1,3-6.8,1.8-10.2c-7-20.7-9.4-42.1-9.5-63.8c0-3,0.1-6.1,0.9-8.9c3.3-11.5,6.8-22.9,10.5-34.3
			C260.9,368.1,262.6,366.4,264.4,363.5z"/>
		<path d="M255.8,1005.9c0.4-2.5,0.9-4.1,0.8-5.7c-1.3-13.2,1.5-25.8,5.4-38.3c0.7-2.2,1.4-4.5,1.9-6.7c1.6-8.2,1.5-15.6-2.8-23.8
			c-4.6-8.9-6.2-19.4-8.5-29.4c-0.5-2.2,1.2-6.5,3-7.3c2.2-0.9,6.3,0.1,8.2,1.7c5.4,4.8,10.1,10.4,15,15.8
			c5.1,5.7,10.3,11.3,15.1,17.2c6.7,8.4,2.5,19.5-8.3,21.6c-4.4,0.9-9.1,0.7-14.3,1c2.3,7.7,4.9,15.5,6.7,23.3
			c1.9,7.9-6,14.9-2.5,23.1c-4.1,7-8.1,13.9-12.5,21.5c-6.2-4.6-12.9-6.9-16.2-15.3c2.6,0.5,3.8,0.7,4.9,0.8
			C252.8,1005.6,253.8,1005.7,255.8,1005.9z"/>
		<path d="M252.3,804.1c-1.4,3.4-2.3,5.7-3.9,9.7c-21.2-21.7-32-47.3-39-75.1c4.9,3.3,6.6,9,9.4,13.7c2.8,4.8,5.3,9.9,8.6,16.1
			c3.6-2.3,6.4-4.2,9.4-5.9c4-2.2,8-4.8,12.3-6c6.8-1.8,12.5,0.7,15.8,7.3c5.8,11.6,11.6,23.2,16.9,35c2.8,6.2-4,17.5-10.7,18.2
			c-2,0.2-4.4-1.2-6.1-2.5C260.9,811.7,257.2,808.3,252.3,804.1z"/>
		<path d="M44.1,1324.2c-5.1-22.7,2.2-42.7,9-62.7c0.9-0.1,1.7-0.1,2.6-0.2c0.8,2.6,2.2,5.2,2.5,7.8c1.2,11.9,5.9,22.3,11.9,32.4
			c1.7,2.8,2.8,6,3.9,9.1c2.7,7.5,5,15.1,8,22.5c3.1,7.7,4.6,15.7,2.4,23.4c-2.9,10.6,0.9,17.2,9.7,22.5c5.7,3.4,6.6,6,4,10.4
			c-1.2,2-3.8,4.6-5.7,4.5c-1.9,0-4.5-2.6-5.4-4.7c-5.3-11.5-10-23.2-15.1-34.7c-2.7-6.1-5.6-12.1-8.7-18
			C59.3,1329.3,54.5,1323,44.1,1324.2z"/>
		<path d="M233,1345.1c3.3,9.2,1.1,17.1-0.5,24.6c-3.6,16.2-8,32.2-12.4,48.2c-1,3.8-2.7,7.5-4.8,10.8c-2.3,3.7-5.8,4.3-9.4,1.6
			c-5.8-4.5-10.2-9.5-8.1-17.7c3.3-13.2,6.1-26.5,9.4-39.7c2.8-11.1,9.4-19.7,19.4-25.5C228.2,1346.5,230.2,1346.1,233,1345.1z"/>
		<path d="M209.6,468c1.1,0.8,1.9,1.2,2,1.6c2.6,13.3,7.3,26.7,7.3,40c-0.1,36.2,3.5,71.8,11.9,106.9c0.2,0.9,0,1.9,0,3.1
			c-7.8-6.9-21.5-48.6-23.9-73.6C204.4,520.1,201.3,494.1,209.6,468z"/>
		<path d="M132.8,1476c-7.5-2.2-9-12.3-17.8-12.5c-3.8,8.4,9.6,11.9,4.9,19.9c-7.6-0.7-13.8-6.3-14.4-13.3
			c-1.2-12.8-2.1-25.6-3.1-38.3c11.9-3.4,28.8,3.1,38,14.7c-1.7,0.4-3.1,0.7-5.3,1.1c0.4,2.1,0.3,4.7,1.4,6.3
			c4.2,5.7,4,10.9-0.5,16.3C134.6,1471.8,133.8,1474,132.8,1476z"/>
		<path d="M285.7,1469.2c-17.8,6.4-43.3-1.2-56-16.4c0.8-0.9,1.5-2.4,2.5-2.6c10.5-2.2,20.8-4.2,30.6,3.1c4.2,3.1,9.5,4.7,14.3,6.9
			C281,1462,285.3,1463.3,285.7,1469.2z"/>
		<path d="M275.7,759.4c-14.3-34.4-30.2-67.8-56.6-97.1C243.1,667.2,270.2,714.9,275.7,759.4z"/>
		<path d="M426.2,537.6c0.6,9.6-3.5,18-9.1,25.3c-5,6.5-11.4,12-17.5,17.7c-4.6,4.3-10.7,5.5-16.7,5.1c-1.8-0.1-4.4-2.8-5-4.8
			c-0.9-3,1.6-5.5,4.5-5c12.2,2,14.2-8.9,19-15.4c2.3-3.2,3.5-6.6,7.7-8.1c2.3-0.8,4-3.4,5.7-5.3c3.1-3.4,6.1-6.9,9.1-10.3
			C424.8,536.9,425.5,537.3,426.2,537.6z"/>
		<path d="M157.7,1651.5c-0.2-4.9,1.8-7.8,5.8-8.8c9.3-2.3,18.7-4.4,28.1-6.3c1.6-0.3,4.3,0.5,5.1,1.7c0.7,1.1,0.1,4-1,5.2
			c-6.9,7.6-14.1,15-24,18.9c-9.2,3.6-12,2.1-13.6-7.5C158,1653.5,157.8,1652.2,157.7,1651.5z"/>
		<path d="M2409.5,254.5c-4.3,10.1-10.7,14.1-19.8,11.5c-7.3-2.1-12.9-0.3-18.6,3.8c-3.7,2.7-7.7,6.1-12.5,2.3
			c-2.8-2.3-1.3-8.3,4.5-12.7c4.6-3.5,10.4-6.9,15.9-7.2C2388.9,251.6,2398.8,253.5,2409.5,254.5z"/>
		<path d="M2329.6,65.2c-4.5,0-7.4,0.2-10.3,0c-9-0.6-11.2-4-7.3-12.2c1.1-2.3,2.9-4.4,4.8-6.2c4.6-4.4,8.3-8.9,9-15.9
			c0.6-6.8,6.5-8.4,10.9-2.9c3.8,4.8,8.9,4.4,14.3,4.3c0,0.8-0.1,1.7-0.1,2.5c-1.8,0.8-3.6,1.7-5.4,2.5c-4.4,2-9.3,3.4-13.2,6.2
			C2323.8,49.5,2323.1,54.5,2329.6,65.2z"/>
		<path d="M356.6,783.8c-0.6,22.1-11.4,36.2-30.4,39c1.3-2.4,2.5-4.3,3.3-6.3c2-4.9,5.1-9.7,5.4-14.7c0.6-9.6,4.8-14.7,14.1-16.1
			C351.5,785.5,353.9,784.6,356.6,783.8z"/>
		<path d="M393.5,428.6c-0.4-1.5-0.9-2.6-0.8-3.4c2.2-9.6,4.4-19.3,7-28.9c0.6-2.2,2.8-5.3,4.5-5.5c1.8-0.2,4.7,2.1,5.9,4.1
			c4.3,6.7,6.5,14.7,2.8,21.6C409.4,423.3,403.8,429.7,393.5,428.6z"/>
		<path d="M261.3,675.4c12.2,15.5,23.7,31.4,24.5,52.3C272.2,712.9,258.7,698.1,261.3,675.4z"/>
		<path d="M99,1649.3c3.5-1.3,5.9-2.2,8.3-3c6.1-2.1,11.3-5.5,14.4-11.5c4.2-8.2,11.9-12.2,19.8-15.6c3.7-1.6,7.5-2.4,9.6,3.1
			c-9.3,0.6-9.6,0.4-16,7.9c-6.6,7.8-12.7,16.1-19,24.2c-1.2,1.6-2,3.4-3.3,4.9c-3.8,4.3-7.6,4.2-10.4-0.6
			C100.8,1655.9,100.2,1652.7,99,1649.3z"/>
		<path d="M242.3,1312.4c-0.6,1.2-1.8,3.8-3.1,6.5c-5.5-1.3-4.2-5.8-5.3-8.9c-1-2.8-1.7-5.7-2-8.7c-0.5-4.7,2-8.6,6.5-8.2
			c7.4,0.7,15,2.2,21.9,4.7c5,1.8,4.8,6.2-0.3,8.6C254.8,1308.9,249,1310.2,242.3,1312.4z"/>
		<path d="M129.4,1303.5c-3.9-1.6-7.4-2.5-10.4-4.3c-1-0.7-1.4-3.9-0.7-5.2c0.5-1,3.9-1.7,5-1c4.4,3,9.4,2.4,14.1,3.5
			c9.1,2.1,15.2,8.7,19.6,17.3c-3.9,3.3-7.7,2.5-11.5,1.2c-2.8-0.9-5.6-2.7-8.4-2.9C131.2,1311.5,129.1,1308.3,129.4,1303.5z"/>
		<path d="M237.1,906.5c6.7,4,9,9.2,11.4,14.1c3.2,6.5,6.1,13.2,8.6,19.9c0.8,2-0.3,4.7-0.5,7.1c-2.3-0.8-5.5-0.8-6.7-2.4
			c-2.5-3.4-4.2-7.5-5.8-11.4C240.7,925.5,238.4,917,237.1,906.5z"/>
		<path d="M140.4,1642.7c0.4-2.6,0.3-5.7,1.4-8.3c0.7-1.8,2.9-4,4.6-4.1c1.8-0.1,4.9,1.6,5.4,3.1c1.1,3.6,1.5,7.7,1.1,11.4
			c-0.6,4.6-4.6,7.6-8.2,6.9C139.6,1650.8,140.6,1646.6,140.4,1642.7z"/>
		<path d="M254.6,1333c16.3-13.5,23.3-13.3,27.9,0C273.7,1337.3,265.2,1335.6,254.6,1333z"/>
		<path d="M202.9,1452.4c-0.3,5.8-5.3,10.4-10.7,10.3c-4.2-0.1-6.9-3-6.5-7c0.5-5.3,5.6-9.4,11.3-9.1
			C201,1446.7,202.9,1448.8,202.9,1452.4z"/>
		<path d="M246,1100.1c5.7-1.2,7.5,1.3,6.6,5.8c-1.5,7.7-3.4,15.4-5.1,23.2c-5.7-3.3-7.6-9.3-5.1-16.2c0.8-2.2,2.3-4.1,3-6.2
			C246,1104.6,245.8,1102.3,246,1100.1z"/>
		<path d="M83.9,1587.2c1.6,4.1,3.3,8.2,5.3,13.2c-3,3.7-6.1,7.6-10,12.5C73.4,1602.2,81.1,1595.5,83.9,1587.2z"/>
		<path d="M269.9,648.2c8.7,9.7,11.9,21.9,16.2,34.5c-5.9,0.2-8.1-2.6-9.1-6.6c-2.4-9.3-4.7-18.7-7-28L269.9,648.2z"/>
		<path d="M239.6,991.2c-7.1-10.4-6.7-20.6-8-30.4c6.7,6.5,8,15.4,10.6,23.6C242.6,985.7,241,987.6,239.6,991.2z"/>
		<path d="M314.5,485.1c9.5,3.5,13,7.9,12.3,15.5C315.8,498.9,312,494.1,314.5,485.1z"/>
		<path d="M234.4,951.9c8.3,5.4,15.2,12,18.5,23.6C240.8,970.9,237.9,961.2,234.4,951.9z"/>
		<path d="M320.6,510.3c1.8,0.4,4.1,0.2,5.2,1.3c4.5,4.4,8.9,9,12.8,13.9c2.6,3.1,1.7,4.6-4.7,9.6c2.3-12.3-8.7-15.8-14.4-22.7
			C319.8,511.6,320.2,510.9,320.6,510.3z"/>
		<path d="M128.8,1427c-5.9,2.9-9.5,1.1-12.8-1.1c-2.9-2-3.7-4.9-1.2-7.7c2.3-2.6,4.9-1.7,6.9,0.5
			C123.9,1421.1,125.9,1423.6,128.8,1427z"/>
		<path d="M188.5,1484.7c-10.7,2.1-14.3-0.4-12-6.9c0.5-1.4,1.9-3.3,3-3.4c1.6-0.1,3.9,0.7,4.9,1.9
			C186.1,1478.6,187,1481.4,188.5,1484.7z"/>
		<path d="M241,402.1c0,9,0,15.7,0,22.6C233.8,415.9,233.4,410.6,241,402.1z"/>
		<path d="M202.9,1634.1c6.1-4.3,11.2-6,17.5-4.3C215.2,1638,213.2,1638.6,202.9,1634.1z"/>
		<path d="M309.8,808.8c1.6,2.6,3.7,5,4.4,7.8c0.3,1.3-2.1,3.3-3.3,5c-1.6-1.2-4.3-2.2-4.6-3.7c-0.6-2.6,0.3-5.5,0.5-8.3
			C307.8,809.4,308.8,809.1,309.8,808.8z"/>
		<path d="M132.6,1555c1,6.9-3.1,10.4-5.9,14.9C122.2,1561.8,123,1559.8,132.6,1555z"/>
		<path d="M75,1713c-0.7-3.9-1.4-7.3-2.1-10.9c4.7-1.6,8-0.6,8.8,3.1C82.6,1709.2,80.1,1711.8,75,1713z"/>
		<path d="M323.3,545.3c4.4-2.7,7.1-1.7,8.4,1.4c1.5,3.2-0.2,5.6-5,7.2C325.6,551,324.4,548.1,323.3,545.3z"/>
		<path d="M265.5,1142.3c-4.2,4.2-8,6-12.2,3.6c-1.2-0.7-0.7-4.2-1.1-7.3C257.2,1139.9,260.6,1140.9,265.5,1142.3z"/>
		<path d="M169.4,1681.7c-2.2-2.4-4.1-3.5-4.5-5c-0.8-3.2,1.5-5,4.4-4.8c1.4,0.1,4.1,2.3,4,2.9
			C172.8,1676.9,171.2,1678.8,169.4,1681.7z"/>
		<path d="M249.1,1090.5c-2.5-5.4-0.9-9.2,3.5-12.5C257.3,1084.5,257.1,1085.4,249.1,1090.5z"/>
		<path d="M704.3,69.8c-1.7-3.2-3.5-5.4-3-6.2c1.2-2,3.5-3.4,5.3-5c1,1.5,3.1,3.4,2.8,4.5C708.7,65.2,706.7,66.8,704.3,69.8z"/>
		<path d="M425,465.6c-0.8-6.4-1.4-11.4-2.2-17.9c2.3,1.4,4,1.8,4.5,2.8C429.4,455.2,429.1,457.5,425,465.6z"/>
		<path d="M128.7,1757.2c4.5-6.2,9.6-5.4,14.4-5.5C139.7,1755.4,136.1,1758.7,128.7,1757.2z"/>
		<path d="M312,575.9c-2.4-1-4.8-2-8.6-3.7c3.4-1.6,5.6-2.6,7.7-3.7c2.3-1.2,4.7-2.3,7.6-3.8c1,6.2-4.9,7.6-6.8,11.3
			C311.9,576,312,575.9,312,575.9z"/>
		<path d="M397.4,1015.2c-1.5-2-3.3-3.5-3-4.2c0.7-1.8,2.3-3.3,3.5-5c1,1.4,2.8,2.8,2.8,4.2C400.7,1011.5,398.9,1013,397.4,1015.2z"
			/>
		<path d="M292.1,863.3c-4.1,3.9-6.6,3.5-9.2-0.7C286,859.6,288.5,859.9,292.1,863.3z"/>
		<path d="M2422.1,232.2c-3.8-0.3-6.5-0.5-10.5-0.8C2417.7,225.7,2417.7,225.7,2422.1,232.2z"/>
		<path d="M310.1,835.3c-2.9-2.9-2.7-5.1-0.1-7.1c0.5-0.4,2.3-0.2,2.6,0.3C314.6,831.3,313.3,833.4,310.1,835.3z"/>
		<path d="M311.9,576c2.6,1.5,5.2,3,8.5,4.9c-7.5,4.1-7.6,4.1-8.4-5C312,575.9,311.9,576,311.9,576z"/>
		<path d="M324.6,532.7c-1.2-1.9-2.4-2.9-2.3-3.8c0.1-0.9,1.3-1.8,2.1-2.7c0.8,0.9,2.1,1.6,2.3,2.6
			C326.7,529.7,325.6,530.8,324.6,532.7z"/>
		<path d="M2393.9,227.5c1.8-0.2,3-0.6,4.1-0.4c1.5,0.2,3,0.9,5,1.5C2398.3,231.2,2398.3,231.2,2393.9,227.5z"/>
		<path d="M1291.6,267.5c-1.3,0.6-2.1,1.3-2.8,1.2c-0.7-0.1-1.2-1.1-1.7-1.7c0.7-0.5,1.5-1.3,2.2-1.3
			C1289.9,265.8,1290.5,266.7,1291.6,267.5z"/>
		<path d="M355.2,411.8c0.5,1,1.3,1.9,1.6,3c0.3,1.4,0.3,2.9,0.4,4.8c-1.1-0.6-2-0.9-2-1.2c-0.5-2-0.7-4.1-1.1-6.2
			C354.5,412,354.8,411.9,355.2,411.8z"/>
		<path d="M184.4,1552.4c1.1-1.3,2.3-2.5,3.4-3.8c0.5,0.4,1,0.8,1.4,1.2c-1.1,1.4-2.2,2.9-3.3,4.3
			C185.5,1553.5,184.9,1552.9,184.4,1552.4z"/>
		<path d="M254,1287.7c-1.4,0.1-2.8,0.3-4.2,0.2c-0.2,0-0.4-1.6-0.4-1.6c1.3-0.4,2.7-0.7,4-1.1
			C253.6,1286.1,253.8,1286.9,254,1287.7z"/>
		<path d="M269.1,1316.8c-0.5-1.1-1.2-2.1-1-2.6c0.2-0.6,1.4-0.9,2.1-1.4c0.4,0.7,1.3,1.6,1.1,2.2
			C271.2,1315.6,270.1,1316,269.1,1316.8z"/>
		<path d="M173.1,967.7c-0.1-0.8-0.2-1.7-0.3-2.5c0.6,0,1.6-0.3,1.7-0.1c0.4,0.7,0.5,1.6,0.7,2.5C174.6,967.6,174,967.7,173.1,967.7
			z"/>
		<path d="M154.1,1069.5c-0.6-0.6-1-0.9-1.4-1.3c0.6-0.6,1.2-1.3,1.8-1.8c0.1-0.1,1.2,0.9,1.1,1
			C155.2,1068.2,154.6,1068.8,154.1,1069.5z"/>
		<path d="M206.8,851.2c-0.5-1-1-2.1-1.6-3.1c0.5-0.2,0.9-0.4,1.4-0.7c0.5,1,1,2.1,1.5,3.1C207.7,850.8,207.2,851,206.8,851.2z"/>
		<path d="M270,868c-1.1-1.5-1.7-2.2-1.6-2.3c0.6-0.6,1.3-1.1,2-1.6c0.3,0.4,1,0.9,0.9,1.3C271,866.2,270.5,867,270,868z"/>
		<path d="M165.8,1102.6c-0.3,0.5-0.6,1.3-0.9,1.3c-0.5,0-1-0.5-1.5-0.8c0.3-0.5,0.6-1.3,0.9-1.3
			C164.8,1101.7,165.3,1102.3,165.8,1102.6z"/>
		<path d="M270,648.1c-1.1-2.9-2.2-5.8-3.2-8.7c0.6-0.1,1.3-0.3,1.9-0.4c0.4,3.1,0.8,6.1,1.2,9.2C269.9,648.2,270,648.1,270,648.1z"
			/>
		<path d="M369.8,462.2c-0.2-0.6-0.5-1.1-0.7-1.7c0.5-0.1,1-0.3,1.5-0.4c0.1,0,0.4,0.7,0.3,0.8C370.6,461.4,370.2,461.8,369.8,462.2
			z"/>
		<path d="M182.4,1150.4c-0.5,0.2-1.1,0.8-1.4,0.6c-0.4-0.2-0.6-0.9-0.8-1.4c0.5-0.2,1.1-0.8,1.4-0.6
			C182,1149.1,182.1,1149.9,182.4,1150.4z"/>
		<path d="M328.1,804.2c-0.4-0.4-0.8-0.8-1.1-1.2c-0.1-0.2,0.2-0.8,0.3-0.8c0.5,0.1,1,0.2,1.5,0.4
			C328.6,803,328.3,803.6,328.1,804.2z"/>
		<path d="M244.3,1333.2c0.1-0.3,0.2-0.5,0.3-0.8c0.3,0.3,0.7,0.5,1,0.8c-0.2,0.2-0.5,0.5-0.7,0.5
			C244.8,1333.7,244.5,1333.4,244.3,1333.2z"/>
		<path d="M2387,354.8c-0.5,0.3-0.9,0.6-1.4,1c-0.2-0.5-0.5-1-0.6-1.5c0-0.1,0.6-0.5,0.7-0.5C2386.2,354.1,2386.6,354.5,2387,354.8z
			"/>
		<path d="M403.2,999.7c-0.3-0.1-0.5-0.2-0.8-0.3c0.3-0.3,0.5-0.7,0.8-1c0.2,0.2,0.5,0.4,0.5,0.7
			C403.7,999.2,403.4,999.5,403.2,999.7z"/>
		<path d="M136.7,1673.7c-0.3-0.1-0.5-0.2-0.8-0.3c0.3-0.4,0.6-0.7,0.9-1.1c0.2,0.2,0.5,0.5,0.5,0.7
			C137.2,1673.3,136.9,1673.5,136.7,1673.7z"/>
		<path d="M302.9,589.5c-0.1-0.3-0.1-0.6-0.2-0.8c0.5,0.1,0.9,0.1,1.4,0.2c-0.1,0.3-0.2,0.6-0.4,0.7
			C303.6,589.7,303.2,589.5,302.9,589.5z"/>
		<polygon points="363.7,684.8 364.4,684.9 364,685.4 		"/>
		<path d="M143.7,1582.5c-0.4,0.3-0.9,0.5-1.3,0.8c-0.1-0.5-0.3-1-0.3-1.5c0-0.1,0.6-0.5,0.7-0.4
			C143.1,1581.7,143.4,1582.1,143.7,1582.5z"/>
		<path d="M136.8,1425.9c-0.2-0.1-0.6-0.2-0.7-0.4c-0.1-0.2,0.1-0.5,0.2-0.8c0.4,0.2,0.8,0.5,1.1,0.7
			C137.3,1425.6,137,1425.8,136.8,1425.9z"/>
		<path class="st0" d="M87.8,499.5c0.5-25.2,1.1-50.4,1.6-75.6c0-2.3,0.2-4.7-0.3-7c-2.3-10.8,4.5-19.1,7.9-28.3
			c1.4-3.8,4.7-2.9,7.5-0.8c5.9,4.4,11.7,8.8,17.6,13.2c2.7,2,5.2,4.3,8.1,5.7c4.2,2.1,6.7,5.2,8.3,9.5c1,2.8,2.3,5.6,4.1,8
			c4.1,5.3,3.7,9.4-0.3,15.1c-5.4,7.5-5.3,17-5.3,26c0,10.6,0.1,21.2,0.1,31.8c0,1-0.2,2-0.5,2.9c-3.4,11.4-24.3,25.2-36.1,23.9
			c-7.8-0.9-11.1-4.2-11.5-12.3c-0.2-4,0-8,0-12C88.6,499.5,88.2,499.5,87.8,499.5z"/>
		<path class="st0" d="M108.1,215.1c-3.8-3.5-7.1-5.7-9.4-8.7c-4.6-6.1-9.1-12.4-12.9-18.9c-1.5-2.6-1.7-6.3-1.8-9.5
			c-0.3-7.2-0.2-14.5-0.3-21.7c-0.1-11.5,0.1-23,1.6-34.5c0.5-4.1-0.5-8.5-0.8-12.7c6.6-0.9,12.7-2.2,18.8-2.3
			c6.7-0.1,13.2,1.2,18.4,6.2c6.4,6.2,14.7,10.3,18.6,19c2.5,5.5,3.5,10.6,0.9,16.2c-3.9,8.4-7.3,17.1-11.3,25.5
			c-5.1,10.8-10.6,21.4-16,32.1C112.5,208.4,110.7,210.8,108.1,215.1z"/>
		<path class="st0" d="M142.7,551.3c1.1-0.1,2.4,0,3.7-0.2c5.3-1,6.6,2.2,6.2,6.4c-1.1,10.9-2.2,21.8-3.9,32.6
			c-2.7,16.9-14.4,28.9-24.1,41.8c-3.6,4.8-8.7,2.8-9.6-3.5c-0.7-4.6-0.9-9.3-0.7-13.9c0.7-18.1-4.3-34.9-10.7-51.4
			c-1.9-4.9-5.5-9.1-8-13.8c-1.4-2.6-2.4-5.5-3.3-8.3c-1.2-3.8,0.3-6.2,3.9-8c11.1-5.6,30.9-3.5,39.4,5.2
			C138.7,541.2,140,546,142.7,551.3z"/>
		<path class="st0" d="M120.3,714.1c0,3.9,0.6,7.1-0.1,10C104,796.8,100.7,808,92.5,816c-1.2-3.5-2.8-6.3-3.2-9.3
			c-2-14.2-5.6-28-11.8-41.1c-1.6-3.4-1.7-7.8-1.5-11.6c0.5-8.3,1.6-16.5,2.8-24.8c0.9-6.7,6.8-11.6,13.1-11.1
			c4.9,0.4,9.9,2.1,14.7,1.5C110.9,719.2,114.9,716.4,120.3,714.1z"/>
		<path class="st0" d="M195.6,257.8c-15.4-11.8-16.9-17.8-7.9-29.9c-7.2-2.2-13.9-5-20.9-5.9c-3.3-0.4-7.2,2.4-10.6,4.3
			c-3.8,2.2-7,3.8-9.9-1.1c3.6-3.8,6.4-8.2,10.5-10.6c12.4-7.6,21-18.8,30.2-29.5c4.4-5.2,8.7-4.7,11.6,1.3c1.2,2.6,2.2,5.8,2,8.6
			c-0.5,8.9-1.7,17.7-2.5,26.6c-0.5,4.9-0.9,9.9-1.2,14.8C196.5,242.9,196.1,249.5,195.6,257.8z"/>
		<path class="st0" d="M57.4,499.1c-11.5-1-15.8-4.7-15.3-14.8c0.3-5.8-1.7-10.2-4.5-14.9c-1.3-2.3-2.1-6.3-0.9-8.1
			c1.1-1.7,5.2-2.3,7.8-2c10.9,1.4,12.6,3.4,14,14.5C59.9,485.7,59.6,493.4,57.4,499.1z"/>
		<path class="st0" d="M572.1,415c3.2,2.6,6.9,4.4,9,7.3c4.4,6.2,7.9,13,11.7,19.5c0.7,1.1,1.6,2.4,1.6,3.6c-0.1,2.5-0.2,6.4-1.5,7
			c-2.2,1-5.5,0.2-8.2-0.5c-1.3-0.4-2.3-2.3-3.2-3.6c-5.2-7.3-10.4-14.5-15.3-22c-1.3-1.9-2.3-5.2-1.4-7
			C565.7,417.5,568.9,416.8,572.1,415z"/>
		<path class="st0" d="M88.9,308c9,10.5,22.4,15.4,31.7,25.8c-3.7,6.2-8.9,8.4-14.5,8.5c-2.7,0-6.8-1.9-8-4.2c-4.5-8-8-16.6-11.8-25
			c-0.4-1,0.2-2.4,0.3-3.7C87.5,308.9,88.2,308.5,88.9,308z"/>
		<path class="st0" d="M122.5,239.4c4.9-1.7,9.2-3.9,13.7-4.5c2.9-0.4,6.7,0.6,9,2.4c1.4,1.1,1.9,5.3,1,7.2
			c-3,6.4-6.8,12.4-10.3,18.6C128.7,258.1,123.2,248.4,122.5,239.4z"/>
		<path class="st0" d="M501,44.6c0-0.2,0.1,0.2,0,0.4c-3.4,5-7.6,10.3-13.8,9.5c-5.8-0.7-6.8-7.4-8.5-12.4
			c-1.7-4.9-3.2-9.9-4.9-15.1c4.9-2.5,7.4,0.4,10.1,2.7C489.3,34.4,494.7,39.1,501,44.6z"/>
		<path class="st0" d="M182.5,85.5c0.1-6.1,5.2-11.6,10.3-11.2c4.4,0.3,9.9,6.9,9.5,11.3c-0.3,3.7-7.1,7.7-12.7,7.4
			C184.6,92.8,182.4,90.5,182.5,85.5z"/>
		<path class="st0" d="M160.6,481.5c-5-6-4.9-12.6,0.3-22C169.3,465.9,169.2,475.5,160.6,481.5z"/>
		<path class="st0" d="M180.8,562.1c-4-3.9-5.3-7.7-2.1-11.2c3.6-3.8,8.1-3.7,12.8-0.6C190.9,557.5,185,558.7,180.8,562.1z"/>
		<path class="st0" d="M539.8,60.9c-4.6-10.3-2.3-15.7,6.8-16.7C548.1,53.2,546.3,57.5,539.8,60.9z"/>
		<path class="st0" d="M568,348.9c1.8-1.9,2.9-3.1,4.1-4.4c0.9,1.1,2.6,2.2,2.5,3.3c0,1.2-1.2,3-2.4,3.5
			C571.5,351.6,570,350,568,348.9z"/>
		<path class="st0" d="M198.1,168.6c1.3-3.4,2-5.4,3.4-9.1C203.8,164.6,203.7,166.8,198.1,168.6z"/>
		<path class="st0" d="M70.7,887.1c1.3-2.5,2.5-5,4.2-8.4C75.4,884.2,75.4,884.2,70.7,887.1z"/>
		<path class="st0" d="M62.7,907.9c-0.6-1.2-1.5-2.3-1.3-2.6c0.5-0.8,1.6-1.3,2.5-1.9c0.3,0.8,1,1.7,0.8,2.5
			C64.6,906.5,63.6,907,62.7,907.9z"/>
		<path class="st0" d="M162.4,15.5c-1.4-1.3-2.8-2.6-4.3-3.9c0.3-0.4,0.7-0.9,1-1.3c1.5,1.1,3.1,2.1,4.6,3.2
			C163.4,14.2,162.9,14.8,162.4,15.5z"/>
		<path class="st0" d="M24.1,15.9c0.3,1.3,0.5,2.7,0.8,4c-0.4,0-0.9,0-1.3,0c0.2-1.4,0.4-2.7,0.7-4.1C24.2,15.8,24.1,15.9,24.1,15.9
			z"/>
		<path class="st0" d="M105.3,84.8c0,0.3,0,0.5,0,0.8c-0.4-0.1-0.8-0.3-1.2-0.4c0.2-0.2,0.3-0.5,0.5-0.6
			C104.8,84.6,105.1,84.8,105.3,84.8z"/>
		<path class="st0" d="M1252.5,171.7c1.4-6.1,2.9-11.1,3.4-16.1c0.2-2.2-1.1-5-2.5-6.8c-1.1-1.4-3.5-1.8-5.2-2.7
			c-7.1-3.6-8.4-7.7-4-14.3c4.4-6.5,9.3-12.8,14.2-18.9c1.4-1.7,3.5-3.4,5.6-3.9c6-1.6,12.2-2.6,17.7-3.8c2.8,4.1,4.8,7.2,6.2,9.3
			c1.4,7.5,3,14.2,3.8,21c1.7,13.4,6,26.6,1.9,40.3c-0.4,1.5-0.7,3.4-0.1,4.8c2.9,7.2-0.9,12.9-3.9,18.8c-1.9,3.7-4.5,6.1-9.1,6.8
			c-7.3,1.1-12.5,4.9-15.9,11.9c-5.2,10.7-14.4,11.6-22.2,2.6c-3.7-4.3-6.4-9.2-6.1-15.3c0.2-4.6-0.6-9.3-0.2-13.9
			C1237.4,179,1241.3,174.6,1252.5,171.7z"/>
		<path d="M363.3,89.8c5.6-2.3,10.2-5.9,13.1-4.9c5.4,1.9,5.6,8.2,6.5,13.1c-12.6,6-25,3.6-36-6.8C352.4,84.8,358.3,86.8,363.3,89.8
			z"/>
		<path d="M286.2,225.4c-4.7,5.6-11.6,5.6-18.2,5.9c-2.2,0.1-4.6-0.8-6.7-1.7c-3.9-1.7-7.5-2.4-11.1,0.6c-2.2,1.8-5.2,2.8-6.8-0.3
			c-2.1-4.1,1.5-4.9,4.3-6.1c1.5-0.6,3.3-1.1,4.4-2.2c3.6-3.8,7.1-3,11.6-1.3c4.4,1.7,9.5,1.7,14.3,2.2c2.5,0.3,5,0,7.5,0
			C285.7,223.5,285.9,224.5,286.2,225.4z"/>
		<path d="M378.3,219.8c1-5.6,4.3-6.5,7.6-6.2c1.8,0.2,4.5,1.8,5,3.4c1.2,3.3-2.9,7.9-6.3,7C382.2,223.3,380.1,221,378.3,219.8z"/>
		<path d="M375.7,17.8c2.4,2.2,4.9,4.3,6.8,6c-0.8,5-1.5,9.3-2.3,14.1c-8.6-5.2-4.8-13.1-4.4-20.1C375.8,17.9,375.7,17.8,375.7,17.8
			z"/>
		<path d="M382.1,56.6c-4.7,3.2-6.6,2.7-8.6-2.7C376.8,55,378.7,55.6,382.1,56.6z"/>
		<path d="M355.1,223.5c-0.5-1.5-1-2.5-1.2-3.6c0-0.2,1.9-1,2.1-0.8c0.8,0.8,1.2,1.9,1.7,2.9C357.1,222.4,356.3,222.8,355.1,223.5z"
			/>
		<path d="M298.4,228.1c-0.5-0.3-1-0.6-1.5-0.9c0.5-0.5,1.1-1.1,1.6-1.6c0.4,0.5,1,0.9,1,1.4C299.5,227.3,298.8,227.7,298.4,228.1z"
			/>
		<path d="M377.7,70.9c-0.1,0.2-0.3,0.5-0.4,0.7c-0.3-0.3-0.6-0.7-0.8-1c0.3-0.1,0.5-0.3,0.8-0.3C377.4,70.4,377.5,70.7,377.7,70.9z
			"/>
		<path class="st0" d="M2340.4,112.7c7.9,4.5,14,3.2,20.1,1.4c4.6-1.3,9.6-2.9,14.3,2.8c-5.1,2.1-9.5,3.7-13.8,5.8
			c-4.4,2.2-8.5,5.1-12.9,7.3c-1.6,0.8-3.9,0.4-5.8,0.1c-8.2-1.7-9.7-5.9-4.8-12.6C2338.5,116.1,2339.2,114.6,2340.4,112.7z"/>
		<path class="st0" d="M2411.8,102.2c2.5-2.3,4.2-3.9,7.4-6.8c1,5.8,1.6,9.8,2.7,16.3C2417.8,107.8,2415.4,105.6,2411.8,102.2z"/>
		<path class="st0" d="M2361.2,86.8c-0.3,0.4-0.6,1.2-0.9,1.2c-0.4,0.1-0.9-0.5-1.4-0.8c0.3-0.4,0.5-1.2,0.9-1.2
			C2360.2,86,2360.7,86.5,2361.2,86.8z"/>
		<path class="st0" d="M2386.7,123.6c-0.1-0.2-0.3-0.5-0.4-0.7c0.4-0.1,0.9-0.2,1.3-0.2c0,0.3,0,0.6-0.1,0.8
			C2387.4,123.6,2387,123.6,2386.7,123.6z"/>
		<path class="st0" d="M2378.1,78.8c-0.2-0.2-0.6-0.4-0.6-0.6c0-0.2,0.2-0.5,0.4-0.7c0.3,0.3,0.7,0.6,1,0.9
			C2378.6,78.6,2378.4,78.7,2378.1,78.8z"/>
		<path class="st0" d="M29.4,1784.3c0.2-2.2-0.2-4.6,0.6-6.4c4.7-10.2,9.7-20.3,14.7-30.4c2.1-4.2,5.5-4.1,10.5-1.9
			c-5.7,4-9.6,8.3-8.4,14.9c0.1,0.3,0,0.7-0.1,1c-4.9,7.9-9.9,15.9-14.8,23.8C31.1,1785,30.2,1784.6,29.4,1784.3z"/>
		<path class="st0" d="M149.4,1707c-11,2.8-20.3,5.2-30.2,7.8C123.1,1699.2,134.6,1695.9,149.4,1707z"/>
		<path class="st0" d="M17.8,1730.2c2.5-1.5,4.9-3,8.5-5.2c-1.6,5.6-3.2,8.7-8.4,5.1C17.9,1730.1,17.8,1730.2,17.8,1730.2z"/>
		<path d="M256.8,22.3c0.3,0.1,0.5,0.2,0.8,0.3c-0.3,0.3-0.5,0.7-0.8,1c-0.2-0.2-0.5-0.5-0.5-0.7C256.3,22.8,256.6,22.5,256.8,22.3z
			"/>
		<path d="M7.5,52.7c-0.5-1.1-1.1-1.9-1.3-2.8c-0.1-0.4,0.6-1,0.9-1.5c0.7,0.5,1.5,1,2,1.7C9.3,50.3,8.6,51.1,7.5,52.7z"/>
		<path class="st0" d="M316.1,779.5c0.4-0.2,0.9-0.5,1.3-0.5c0.1,0,0.6,0.5,0.5,0.7c-0.2,0.4-0.5,0.8-0.8,1.2
			C316.8,780.4,316.5,779.9,316.1,779.5z"/>
		<path class="st0" d="M340,1051c6.2,4.1,10.5,6.9,14.9,9.8c-6.7,9.7-13.6,20-20.7,30.1c-0.7,1-1.9,1.6-3.7,3.1
			c-2.7-8.7,3.8-14.2,4.8-21C336.4,1066,338.2,1059.1,340,1051z"/>
		<path class="st0" d="M372.1,1057.8c-1-1.1-1.9-2.2-2.9-3.3c0.4-0.4,0.9-0.8,1.3-1.2c1,1.1,2,2.2,2.9,3.3
			C372.9,1057.1,372.5,1057.4,372.1,1057.8z"/>
		<path class="st0" d="M316,1115.9c-0.9,1.6-1.9,3.2-2.8,4.8c-0.5-0.4-0.9-0.7-1.4-1.1c1.4-1.2,2.9-2.4,4.3-3.7
			C316.1,1116,316,1115.9,316,1115.9z"/>
		<path class="st0" d="M433.8,662.2c-1.4,5-4.8,8.1-10.7,8.8c3-3.4,6.1-6.8,9.1-10.3C432.8,661.2,433.3,661.7,433.8,662.2z"/>
		<path class="st0" d="M80.6,1672.6c1.1-0.9,2.3-1.8,3.4-2.7c0.3,0.4,0.6,0.8,1,1.2c-1.1,0.9-2.3,1.8-3.4,2.7
			C81.2,1673.4,80.9,1673,80.6,1672.6z"/>
	</g>
</g>
</svg>
