<?xml version="1.0" encoding="utf-8"?>
<!-- Generator: Adobe Illustrator 19.1.0, SVG Export Plug-In . SVG Version: 6.00 Build 0)  -->
<svg version="1.1" id="Layer_1" xmlns="http://www.w3.org/2000/svg" xmlns:xlink="http://www.w3.org/1999/xlink" x="0px" y="0px"
	 viewBox="0 0 2448 3264" style="enable-background:new 0 0 2448 3264;" xml:space="preserve">
<style type="text/css">
	.st0{fill:#FFFFFF;}
</style>
<g>
	<g>
		<path class="st0" d="M1378,2c236.7,0,473.3,0,710,0c-2.9,10.8-2.4,11.6,7.7,13.4c7.2,1.3,14.4,2,21.8-0.1
			c6.7-1.9,13.3-0.3,19.2,3.1c4.8,2.7,6.5,7.2,6.8,12.5c0.3,4.2,3.4,5.7,7.2,4.7c5.6-1.5,10.4-0.1,15.3,2.5c2.3,1.2,5,1.8,7.5,2.5
			c6.7,1.9,13.4,3.6,20,5.6c4.4,1.4,8.9,1.7,12.2-1.8c5.7-6,11.8-6.5,19-3.1c4.3,2,9,1.6,11.5-2.8c2.9-5.1,7.5-6.1,12.4-7.2
			c3.9-0.8,7.9-1.6,11.6-3c5.9-2.3,11-1.3,16.3,2.8c0,2.6,0,5.4,0,9.1c6.9-1,13.1-1.5,19.2-2.8c3.7-0.8,7.5-2.4,10.7-4.4
			c5.9-3.8,11.5-4.3,14-0.3c2.4,3.8,0.3,7.9-6.5,11c-4.6,2.1-8.5,5.4-8.5,10.2c0,8.9,0,18.3,9.1,23.9c4.4,2.7,5.4,6.1,1.5,9.7
			c-3.3,3-3.6,6.3-2,9.9c5.1,11.4,5.3,23.9,8.2,35.8c2.6,11,4.7,22.2,7.7,33.1c5.1,18.9,6.6,38.8,14.9,56.9c0.7,1.4,0.6,3.2,0.7,4.9
			c0.6,5.9,0.7,11.9,1.9,17.7c9.8,45.9,20,91.8,29.7,137.7c9.4,44.3,18.4,88.7,27.6,133.1c11.3,54.1,22.5,108.3,33.9,162.4
			c2.1,9.8,4.8,19.4,7.3,29c0,852.7,0,1705.3,0,2558c-816,0-1632,0-2448,0c0-431.3,0-862.7,0-1294c8.3-4.2,16.7-8.2,24.8-12.6
			c16-8.7,29.1-20.8,39.7-35.6c2.4-3.4,5.6-6.5,9-8.9c8.4-5.9,17.4-11.1,25.8-17.1c14.3-10.1,24.3-23.5,29.3-40.4
			c2.6-8.7,1.5-11-7.7-12c-9.2-1-18.5-0.2-27.8-0.2c-8.8,0-16.2,2.9-21.3,10.5l0.1,0.1c1.7-4.6,3.8-9.2,5-14c1-4.3,2-9.1,1.3-13.4
			c-1-6.6-5.1-8.4-10.8-5c-4.4,2.7-8.6,6.3-12,10.2c-9.3,10.6-20.5,18.6-32.9,25.1c-7.8,4.1-15.3,6.5-22.6-0.8c0-2.7,0-5.3,0-8
			c11.2-9.4,22.6-18.6,33.4-28.4c7.1-6.5,15.6-8.7,24.4-10.4c4.6-0.9,9.4-0.3,13.9-1.4c9-2.1,18-4.4,26.7-7.6
			c6.1-2.2,10.3-7.3,12.8-13.4c1.8-4.3,1.9-8.4-3.9-11.3c-3.6,7.9-10.3,8-17.4,6.9c-1.3-0.2-2.6-0.8-3.7-1.4c-4-2.1-7.6-1.8-11.2,1
			c-1.1,0.8-2.6,1.1-3.9,1.6c1-3.5,2.5-6,4.6-8.1c8.9-9,17.7-18.1,26.9-26.8c9-8.5,13-8.1,21.5,0.9c0.7,0.7,1.2,1.6,1.8,2.4
			c7.7,10.5,8,10.6,18.3,2.8c1.9-1.4,3.7-2.9,5.3-4.5c0.5-0.5,0.5-1.6,0.7-2.5c-3.1-0.5-5.9-0.9-9-1.5c1.6-5.3,5.2-5.9,8.9-6.2
			c10-0.6,18.4-5.6,26.9-10.2c7-3.9,7.6-6.6,4.2-13.9c-3.5-7.6-7-15.1-10.2-22.8c-0.6-1.4-0.3-3.2-0.4-4.9c0.9-0.6,1.8-1.1,2.6-1.7
			c1.9,2.9,3.7,5.9,6.4,10.1c-0.3-7-1.9-12.2-0.4-16.4c1.9-5.4,2.7-10.1,1-15.5c-0.4-1.2,0.4-2.8,1-6.5c2.5,5.2,4,8.2,5.5,11.2
			c1.1-3,0.4-5.6,0.8-8.1c0.4-2.9,0.7-6.9,2.6-8.2c6-4.1,11.6-9.5,20.1-11.4c-0.4,2.6-0.1,4.4-0.9,5.6c-7,11.1-8,23-5.2,35.6
			c1.1,4.8-0.6,9.1-5.2,11.9c-2.2-1-4.2-2-7.5-3.5c0.1,5.5-3.3,9.8-0.3,15.3c2.9-1.7,5.4-3.1,7.6-4.4c2.7,1.7,4.8,3.1,8.5,5.4
			c-2.8-11.5,2.5-19.9,4.9-29c2.4-8.8,6.8-17.6,3.3-27.3c-0.5-1.5,0.1-4.6,1.3-5.4c7.8-5.1,7.2-14.7,13.1-22.2
			c-9.2-4.7-3.1-13.4-5.7-22.2c-2.4,7.3-3.7,12.7-5.9,17.8c-3.1,7.2-6,8.3-15.5,6.7c0.6-1.3,0.8-2.6,1.7-3.5c4.2-4.3,5.5-8.6,2-14.3
			c-2.7-4.3-0.3-8.5,2.2-12.1c1.6-2.3,4.2-4,7.1-6.6c-7.8-3.8-6.5-9.1-3.6-14.5c2.6-4.8,4.4-9.6,0.1-14.6c-7.7,7.3-7.7,7.3-13.4,7.2
			c4.2-6.8,6.4-14.4,14.2-20.3c6,17.1,12.3,32.8,17.2,49c8.5,28,16.1,56.4,24.3,84.5c1.1,3.9,1.3,8.7,6.9,10.9
			c1.6-3.5,3.1-6.7,5.1-11.2c-3.2-1.7-6.2-3.3-9.1-4.9c4-5.7,7.4-5.5,10.9-3.4c2.6,1.5,4.7,3.9,7.3,5.2c5.4,2.6,7.8,6.5,8.4,12.4
			c0.4,3.7,2.4,7.1,3.6,10.7c8.9-2.8,8.9-2.8,18.4,1.7c1.5,0.7,3.2,1.2,4.8,1.2c5.9,0.1,8.4-3.8,5.6-9.1c-2.5-4.7-5.6-9.1-8.1-13.8
			c-1.1-2-1.5-4.4-2.9-8.8c5.8,2.3,9.1,3.7,12.6,5.1c1.4-9.3,1-10.2-7.1-12.9c-4.4-1.4-8.5-2.8-8.2-8.4c0.1-1.7,1.2-4.2,2.6-4.8
			c1.2-0.6,3.8,0.4,5.1,1.5c2.2,1.8,3.9,4.3,5.6,6.3c4.8-1.9,4.7-5.3,4.6-8.7c-0.5-18.2-5.3-35.4-11.2-52.5
			c-6.1-17.6-16.9-32.4-26.3-48.1c-13.9-23-32.4-40.2-58.8-48.4c-10.8-3.4-20.8-8.6-28.9-17.2c-3.5-3.7-3.9-6.5-1.4-10.4
			c5.6-8.7,11-17.4,16.8-26c3.4-5.1,5.4-5.3,10.5-1.5c3.7,2.8,7.1,6,10.8,8.9c24.2,18.7,51.3,18.1,79.1,11.7c4.9-1.1,6-4.5,4.3-9.3
			c-3-8.7-5.5-10.5-14.7-9.7c-9.9,0.8-18.6-2.2-27.4-7.4c7.6-1.2,11.7-5.8,14.9-12.1c2.4-4.7,7.1-6.8,12.6-6.4
			c2.3,0.2,4.7,0.7,6.9,0.4c8.3-1.1,12.2-6.4,10.3-14.7c-7.4,1.2-15,2.4-22.4,3.8c-7.9,1.5-15.7,3-23.5,4.9
			c-7.4,1.8-14.8,4-22.1,6.3c-7.6,2.4-15,5.8-22.7,7.6c-7,1.7-12.3,8.5-21,6c0.6-1.5,1.7-2.4,3-2.6c9.3-1.9,12.4-9.1,14.8-17.1
			c7.1-24.3,13.8-48.7,13.8-74.3c0-1.2,0.8-2.4,1.3-3.7c8.6,0,16.9,0.2,25.2-0.1c8.2-0.3,16.5,0.2,24.9-4.5
			c-5-8.3-9.5-16.4-14.6-24.1c-3.6-5.5-7.9-10.5-12.3-15.4c-3.6-4.1-3.5-7.2,1.6-9c5.6-1.9,11.5-3.8,17,1.1c1.6,1.4,4.2,2.4,6.3,2.5
			c15,0.4,30.1,1.6,43.8-6.4c3.2-1.8,6.2-2.2,9.3,0.1c3.8,2.7,7.4,1.6,11.3,0.1c3.3-1.3,7-2.4,10.4-2.2c15.5,1.1,21.7-2.6,27.7-17.1
			c1.3-3.2,2.8-6.2,5-11.1c4,5.4,6.7,8.9,9.3,12.5c8.1-6.6,8.1-6.6,4.5-16.9c4.5-2.7,6.4-6.3,2.2-11.5c-2.1,1.5-4.2,2.9-5.3,3.6
			c-4.1-2.4-7.1-5.1-10.6-5.8c-3.5-0.6-7.3,0.8-11,1.4c-0.1-0.7-0.2-1.4-0.4-2.1c11.3-0.1,20.3-9.7,32.4-6.7
			c0.9,0.2,2.4-0.7,3.3-1.4c5.1-4.5,11.4-5.1,17.7-5.3c17.8-0.7,17.8-0.7,21.1-18.6c0.5-2.6,0.8-5.3,0.9-7.9c0.3-11,0.6-22,0.8-33
			c0.1-9.3-2.1-11.8-11.8-12c-26.4-0.4-52.6,0.2-77.8,9.7c-15.2,5.7-31.9,7-45.6,16.9c-7.6,5.4-15.3,10.6-23.3,15.4
			c-24.8,14.9-44.3,35-58.9,60c-2.9,5-6.6,9.5-9.9,14.2c-0.7-0.3-1.3-0.7-2-1c0.9-4.8,1.9-9.5,2.7-14.3
			c5.3-28.8,10.5-57.7,16.2-86.4c0.7-3.6,3.1-8.1,6.1-9.7c15.4-8.7,30.9-17.1,50-12.7c7.3,1.7,15.2,1.2,22.8,1
			c6.7-0.1,10.3-4.1,12.9-10.5c5-12,12.9-22.4,22.2-31.5c1.6-1.5,4-3,6.1-3c11.6-0.3,23.2-0.2,34.8-0.1c0.3,0,0.7,1,1.7,2.8
			c-12.6,11.5-30.1,18.2-39.2,34.6c27-3.5,75-37,77.5-54.8c-5.8,1.2-11.2,2.5-16.7,3.3c-9.2,1.4-18.4,2.8-27.6,3.4
			c-3.7,0.2-8-1.3-11.3-3.1c-4.6-2.6-8.7-6.3-13.4-9.9c2-3.6,3.9-7.5,6.2-11.1c6.1-9.7,14.1-14.8,26.5-14c14.5,1,29.2,0.2,43.8-0.7
			c15.6-1,21.6-6,23.9-21.7c1.6-11,5.6-21.8,4.2-33.4c-1-8.3-0.3-9.7-8.5-10.2c-14.9-1-29.9-1.4-44.8-0.6c-5.1,0.3-9.8,5.3-15,6.9
			c-5.2,1.6-10.9,1.2-16.3,2.3c-4.1,0.9-6.6,3.8-4.7,8.2c3,7-0.4,12.2-4.1,17.5c-5.9,8.5-11.5,17-17.5,25.4c-1.6,2.3-3.9,4-6.2,6.3
			c-5.3-4.5-9.9-8.4-14.4-12.2c-3.4-2.9-3.8-6.3-0.9-9.6c9.3-10.6,11-24.1,13.6-37.1c2-10.4,3.4-20.9-1.2-33
			c-3.7,8-11.4,13.5-3.4,21.5c-3.4,4.7-10.4,6.3-8.7,13.1c2.4,9.4-3,14.6-10.1,18.3c-5.6,2.9-9.8,6.4-11.9,12.6
			c-1.2,3.5-3.6,6.9-8.7,7.1c0.3-12.3,5.8-23.8,2.3-35.6c-12.2-0.1-13.5,0.7-12.4,10.5c1,9.3-3.5,15.2-10.1,20.3
			c-10.3,8.1-10.8,8-12.5,20.4c-1,6.9-1.9,14.4,2.5,21.8c4.4-2.4,8.3-5.2,12.5-6.6c4.4-1.5,8.8-4.3,14.9-2.6
			c-2.1,3.9-3.6,7.2-5.6,10.2c-3.2,4.7-4.8,9.1-2.1,14.9c1.3,2.7,0.8,6.5,0.7,9.7c0,4.6-0.7,9.1-0.6,13.7c0.2,6.7-1.1,8.6-8,10.3
			c-1.3,0.3-2.5,0.5-4.1,0.8c-2.5,9.5-10.5,13.3-17.9,17.8c-8.4,5.1-16.3,2.9-24.8-2.5c2.7-14.3,5.3-29.1,8.4-43.7
			c1.8-8.6,1.2-15.3-7.1-20.8c-7-4.6-5.3-11,3-14.3l-0.1-0.1c4.6,0.6,9.1,0.2,10.6-5c4.8-16.3,9.3-32.6,13.9-48.9
			c0.4-1.6,0.3-3.3,0.5-5c0.6-6,1.3-11.9,1.8-17.9c0.3-3,1.2-6.3,0.2-8.9c-2.7-6.9,1.4-10.4,5.5-14.6c3.7-3.7,7.6-7.5,10.2-12
			c7.5-13.1,15.7-25.5,26.6-36.1c5.7-5.6,8.3-12.7,8.2-20.8c-0.1-6,0.2-12,0.4-18c0-0.6,0.4-1.2,0.7-1.8c0.7,0.6,1.4,1.3,2.9,2.7
			c0.9-5.3,1.8-9.9,2.7-14.9c-3.3,0.4-5.5,0.7-7.8,1.1c-2.7-5.2-5.1-9.8-2.2-15.4c0.6-1.2-0.8-5-1.3-5c-7.2-0.3-4.4-3.4-1.6-5.9
			c1.9-1.7,4.3-3.3,6.8-4c12.4-3.6,19.3-11.3,22.1-24.2c4.1-18.9,13.2-35.3,27.1-49.2c4.1-4.1,7-9.8,9.1-15.3
			c7.7-20.1,11.5-41.1,11.2-62.5c-0.2-12.9-2.4-25.8-3.8-38.7l-0.2,0.2c31.7-11.5,48.9-35.6,57.9-67c-2.3,1.4-4.4,2.8-6.5,4.1
			c4.4-15.9,9-31.2,12.9-46.6c3.4-13.6,5.3-27.4,1.3-41.4c-1.1-3.8-1.6-7.8-2.1-11.8c-2.4-19.4-10.2-37.2-17.6-54.9
			c-3.3-8-9.3-9.2-15.9-3.7c-7.2,5.9-14.2,12.1-20.5,18.9c-4.4,4.7-8.8,7.8-15.5,6.5l0.1,0.2c1.8-2.6,3.2-5.6,5.5-7.7
			c2.8-2.6,6.5-4.3,9.6-6.6c11-8,21.9-16,33.8-24.7c4.4,10.4,8.3,19.2,11.7,28.1c3.3,8.7,6.6,17.5,8.9,26.5
			c2.4,9.3,4.4,18.9,5.4,28.4c1,9.2,0.6,18.6,0.6,27.9c-0.1,9.4-3,18.8-2.3,30.2c3.5-2.3,6.1-3,6.9-4.6
			c6.7-13.4,14.9-26.4,19.2-40.5c6.2-20.6,15.1-39.8,24.3-59c1.7-3.6,4.9-6.5,7.5-9.7c0.7,0.4,1.5,0.8,2.2,1.2
			c-0.5,9.2-5.5,17.2-8.3,25.8c-2.9,8.5-6.4,16.8-9.6,25.2c-3.3,8.7-6.3,17.6-9.7,26.3c-3.3,8.5-6.8,17-10.8,26.9
			c3.6-0.6,5.6-0.6,7.2-1.4c4.9-2.1,9.4-5.5,14.4-6.6c8.4-1.9,12.7-6.5,13.8-14.8c0.8-5.8,3.5-10.6,8.1-14.5
			c4.8-4.1,9.2-8.6,13.6-13.1c4.5-4.5,6.2-4.7,10.7-0.4c4.6,4.4,8.8,9.1,13.6,13.2c5.9,5.1,12.4,7,20.3,4.2
			c12.2-4.3,24.9-7.4,37.2-11.7c23.6-8.1,47.1-16.6,70.6-25.1c14.6-5.3,28.3-13.3,44.2-14.8c3.3-0.3,6.5-1.5,9.7-2.5
			c19.6-6.6,39.1-13.1,58.6-19.9c36.5-12.7,72.9-25.6,109.4-38.3c5.3-1.9,10.8-3.4,16.2-5.1c31.5-9.7,63-19.3,94.5-29.1
			c30.2-9.4,60.3-19.2,90.5-28.5c21.6-6.7,43.5-12.6,65.2-19.2c48.1-14.7,96-30.2,144.3-44.1c14.7-4.2,24.5-13.5,32.6-24.6
			c4.7-6.4,9.5-11.6,16.2-15.5c8.8-5.2,14.5-3.9,20.2,4.7c6.2,9.4,12.1,12,22.7,9.1c16.4-4.5,32.7-9.4,49-14.1
			c4.3-1.3,7.8-3.3,9.8-7.7c1.2-2.7,3.4-5,5.2-7.3c4.1-5.2,9.3-8.6,16.3-7.6c5,0.7,8.4-1.2,11-5.2c2.8-4.3,5.5-8.7,8.6-13.6
			c5.2-2,7.7,1.9,9.7,6.9c1.8-1.3,3.2-1.8,3.8-2.8c4.6-7.6-2-18.6-11.8-19.3c-8.9-0.6-17.9-0.8-26.8-0.9
			c-25.3-0.1-50.6,0.1-75.9,0.1c-10,0-20,0.1-29.9-0.1c-7-0.1-14-0.3-20.9-1.4c-2.3-0.4-5.2-3.2-6-5.5c-1.2-3.5,1.3-6.4,4.7-7.7
			c2.8-1,5.8-2,8.7-2c16.6-0.4,33.2-0.7,49.8-0.6c4.8,0,9.2,0.5,12.8-3.6c2.7-3.1,6.8-4.3,9.9-2c4.3,3.2,9.1,2.8,13.7,3.8
			c16.9,3.6,33.8,1,50.6-0.3c1.8-0.1,4.5-1.1,5.1-2.5c3.6-8,11.5-10.7,17.9-15.1c-4.5,9.1,6.8,10.5,7.5,19.2
			c5.5-4.5,9.5-7.8,14.6-11.9c-8.6-2.8-15.4-4.9-22.3-7.1c-3.5-3.3-7.1-2.3-11.1-0.8c-3.8,1.4-7.9,2-13,3.2
			c-0.4,0.5-1.8,2.1-3.4,3.9c-3.9-2.3-7.2-4.3-10.4-6.2c-2.4,1.8-5.4,4.9-6.2,4.4c-3.6-2.2-6.4,0.1-9.5,0.6
			c-6.2,1-12.5,1.5-18.8-1.8c0.4-3.4,0.8-6.6,1.2-9.8c7.5-4.9,15.7-2.6,23.6-3.2c-2.9-6.9-2.9-6.9,2-16.5c9,0,18-0.3,26.9,0.1
			c8.8,0.4,12.9-1.9,15.5-10.2c-3.9-2.2-7.7-2.5-10.5,1.4c-3.8,5.2-8.4,4.7-13.3,2.8c-4-1.6-8-3.3-11.8-5.3
			c-7.6-4.1-7.6-4.3-13.8,2.6c-3.2,3.6-6.2,4.1-10.1,1.1c1.5-1.7,2.5-2.8,4.2-4.7c-5.6-0.7-9.8-3.1-13.8,1.9c-1.4,1.7-5.2,1.8-8,1.8
			c-5.6,0.1-11.3-0.7-16.9-0.5c-1.9,0-3.7,1.8-6.7,3.3c5.2,3.7,9.3,6.5,14.5,10.2c-4.1,3-6.7,5.7-9.9,7.1c-4.7,2.1-8.7,4.2-10.5,9.7
			c-0.5,1.7-4.2,3.2-6.4,3.3c-3.1,0-6.3-1.4-8.8-2c0.3-4.7,0.5-8.4,0.7-12.2c6.7-4.2,6.7-4.2,8.3-10.9c-4.7,0-9.4-0.6-13.9,0.2
			c-3.4,0.6-6.7,2.6-9.6,4.6c-3.2,2.3-0.7,5.2,0,8.1c1.4,6.2-2.8,10.8-9.3,11c-4,0.1-8,0.5-11.9,0.3c-2.1-0.1-4.2-1.1-5.9-1.6
			c1.4-4.7,4.3-8.9,3.5-12.4c-1.4-6.4,1.1-10.2,5.1-14.1c2-1.9,4-3.9,6.9-6.7c-12.5-6.4-10.6-19.7-17.1-28.4
			c-0.7-0.9-0.5-2.6-0.3-3.9c1.3-6.8,1.5-14.2,4.3-20.3C1376.6,25,1378.6,13.8,1378,2z M203.7,1738.3c1.8-5.3,5.3-9,11.8-10.7
			c1.2,6.4,2.6,12.1,3.5,18c1.6,10.6,8.7,18.4,14.4,26.7c3.6,5.3,10.1,4.5,11.4-1.4c1.6-7.4,6.1-12.2,10.4-17.7
			c1.3-1.6,1.6-5.7,0.5-7.1c-1.7-2-5-2.9-7.7-3.7c-3.2-0.9-6.7-1.5-8.6,3.6c3.5,2.5,7.4,5.7,4.9,10.9c-0.9,1.8-3,3.6-4.9,4.2
			c-0.9,0.3-3.5-2-3.9-3.5c-3-11.2-6.2-22.4-8.4-33.8c-1.3-7,0.3-8.8,7.5-9.8c4.3-0.6,7.1-3.5,5.9-6.3c-3.3-7.9-1.3-15.2,0.1-22.9
			c0.1-0.6-0.9-1.5-1.8-2.9c-1.2,1.8-2.4,3-3,4.4c-6.7,15.3-13.5,30.4-30.2,38c-5.2,2.4-5.3,9.4-1.5,13.9c5.8,4.5,5.8,4.5,7.5-2.1
			C208.5,1736.8,206.1,1737.6,203.7,1738.3z M401.1,717.1c5.4,1.6,7.6-1.7,10-4.2c6.7-6.9,12.7-14.5,20-20.7
			c25.8-21.8,48.1-46.7,66.4-75.1c2-3.1,3.7-6.5,6.3-9c12.6-12,13.7-29.9,23.2-43.9c-4.1,0.1-7.4,1.1-10.6,2.4
			c-15.3,6.6-27.3,17.8-38.8,29.3c-21.6,21.6-42.6,43.9-64.3,65.5c-5.9,5.9-8.3,12.3-8.5,20.3c-0.3,8.6-1.6,17.2-2.5,25.8
			C401.9,710.6,401.5,713.8,401.1,717.1z M394.6,786.8c0.6-2.5,1.5-4.2,1.1-5.5c-2.2-8.1-1-15.8,1.2-23.6c1.4-4.8,2.2-9.7,3.2-14.6
			c-0.7-0.3-1.3-0.6-2-0.9c-9.1,8.4-20.8,14.4-23.3,28.5c-0.2,1.1-1.4,2-2.2,2.9c-2.1,2.5-5,4.6-6.4,7.5
			c-7.2,14.7-12.1,30.3-13.7,46.7c-0.7,6.8-1.6,12.9-5.6,18.7c-2.5,3.6-5,7.8-1.7,13.7c8.2-6.4,14.1-14.4,14.2-23.4
			c0.1-7.4,1.5-13.4,5-19.5c1.6-2.8,3.1-5.9,3.9-9.1c2.8-11.3,11-18.4,18.8-26.3C389.8,783.5,391.8,784.9,394.6,786.8z
			 M282.3,1806.3c-3.2-12.8-1.7-24.7-10.5-34c-2.1-2.3-2-6.8-2.7-10.3c-0.4-2.1-0.5-4.3-0.8-7.3c-8.3,6.2-10.4,13.8-10.3,22.5
			c0,3.9-0.8,7.9-1.4,13.1C263.8,1794.7,270.2,1802.7,282.3,1806.3z M356.8,1341.4c6.5-13,4.9-21.5-7.6-26.1c0.9-2,1.5-3.4,2.3-5.1
			c-5.1-3.5-10.1-6.9-15.7-10.7c0,7.9,0,15.1,0,21.6c4.8,3,8.9,4.7,11.9,7.6C350.9,1331.8,353,1336,356.8,1341.4z M367.6,1312.4
			c3.8-1.8,5.8-5.3,3.7-9.4c-2-3.9-4.7-8.8-8.3-10.2c-3.4-1.4-8.1,1.6-12.8,1.1c-2.9-0.4-3.5,4-1.4,6.2c2.7,2.8,6.1,4.9,9.4,7.1
			C361.2,1308.9,364.2,1310.4,367.6,1312.4z M1650.3,135.5c18.2,3.5,33.4,2.1,38.9-3.9C1675.9,128.6,1664,131.5,1650.3,135.5z
			 M1649.2,94.1c-9.2-2.8-13.6-2-16.1,2.9c-0.8,1.7-0.6,4.4,0.2,6.2c0.4,0.8,4,1,5.2,0.2C1642.2,100.8,1645.3,97.6,1649.2,94.1z
			 M1443.1,74.4c-0.2-0.8-0.4-1.6-0.5-2.4c-4.7-1.4-9.5-2-13.9,1.1c-1.2,0.8-2,3.7-1.5,5c0.5,1.2,3.4,2.5,4.6,2.1
			C1435.7,78.6,1439.4,76.4,1443.1,74.4z M1391.7,90.5c6.7-3.2,13.9-1.6,15.9-9.6C1398.3,79.4,1395.3,80.9,1391.7,90.5z
			 M336.2,1336.2c-1.3-1-2.2-2.2-3.2-2.3c-0.7-0.1-1.6,1.2-2.4,1.9c0.9,0.7,1.8,1.7,2.8,2.1C334,1338,334.9,1337,336.2,1336.2z
			 M1537.9,105c0.1,0.7,0.2,1.5,0.3,2.2c1.3-0.3,2.7-0.6,4-0.9c-0.1-0.5-0.2-1-0.3-1.5C1540.6,104.8,1539.2,104.9,1537.9,105z
			 M399.9,800.7c-0.5-0.6-0.9-1.3-1.4-1.9c-1.6,1.5-3.3,3.1-4.9,4.6c0.4,0.5,0.9,0.9,1.3,1.4C396.6,803.4,398.3,802,399.9,800.7z
			 M325,1301.7c-1.1-0.8-1.7-1.7-2.4-1.7c-0.6,0-1.2,1-1.9,1.5c0.6,0.6,1.2,1.5,1.8,1.6C323.2,1303.3,323.9,1302.4,325,1301.7z
			 M411.8,1278.4c0.5-0.2,1.1-0.5,1.6-0.7c-0.4-0.6-0.9-1.2-1.3-1.9c-0.4,0.4-1.1,0.7-1.2,1.2C410.8,1277.5,411.4,1278,411.8,1278.4
			z M298.5,1443.5c0.4-0.4,0.8-0.8,1.2-1.1c-0.5-0.4-0.9-1-1.4-1c-0.4,0-0.8,0.7-1.2,1.1C297.6,1442.8,298,1443.1,298.5,1443.5z
			 M419.6,1292.1c0.5-0.3,1-0.6,1.4-0.8c-0.4-0.3-0.7-0.6-1.1-0.8c-0.2-0.1-0.7,0.3-0.7,0.4C419.3,1291.3,419.5,1291.7,419.6,1292.1
			z M408.1,1292.9c-0.1-0.3-0.1-0.5-0.2-0.8c-0.4,0.2-0.8,0.4-1.2,0.6c0.2,0.2,0.4,0.5,0.6,0.5
			C407.6,1293.2,407.8,1293,408.1,1292.9z M195.3,1723.3c0,0.3,0,0.6,0,0.9c0.4-0.2,0.8-0.4,1.2-0.6c-0.2-0.2-0.3-0.6-0.5-0.6
			C195.8,1722.9,195.5,1723.2,195.3,1723.3z M390.1,1412c0.2-0.4,0.5-0.9,0.6-1.3c0-0.1-0.5-0.6-0.7-0.5c-0.5,0.2-0.8,0.5-1.3,0.8
			C389.2,1411.3,389.6,1411.6,390.1,1412z M262.4,1709.7c-0.2-0.2-0.5-0.5-0.7-0.5c-0.2,0-0.5,0.4-0.7,0.6c0.4,0.3,0.8,0.5,1.2,0.8
			C262.3,1710.3,262.3,1710,262.4,1709.7z M267.7,1060.2c0.5-0.6,0.9-1.3,1.4-1.9c-0.5-0.2-1.1-0.6-1.5-0.5
			c-0.5,0.1-0.8,0.7-1.2,1.1C266.7,1059.3,267,1059.6,267.7,1060.2z M346.6,1343.8c0.2,0,0.6,0,0.7-0.2c0.1-0.2,0-0.5,0-0.7
			c-0.4,0.1-0.8,0.2-1.2,0.3C346.3,1343.4,346.5,1343.6,346.6,1343.8z"/>
		<path d="M398.1,634.1c1.3,12.9,3.6,25.8,3.8,38.7c0.4,21.5-3.5,42.4-11.2,62.5c-2.1,5.5-5,11.2-9.1,15.3
			c-13.9,13.8-23,30.3-27.1,49.2c-2.8,12.9-9.7,20.6-22.1,24.2c-2.5,0.7-4.9,2.3-6.8,4c-2.8,2.5-5.6,5.6,1.6,5.9c0.6,0,2,3.8,1.3,5
			c-2.9,5.7-0.5,10.2,2.2,15.4c2.3-0.3,4.5-0.6,7.8-1.1c-0.9,5-1.7,9.6-2.7,14.9c-1.5-1.4-2.2-2-2.9-2.7c-0.2,0.6-0.7,1.2-0.7,1.8
			c-0.2,6-0.5,12-0.4,18c0.1,8.1-2.4,15.2-8.2,20.8c-10.9,10.6-19.1,23-26.6,36.1c-2.6,4.5-6.5,8.3-10.2,12
			c-4.1,4.1-8.2,7.7-5.5,14.6c1,2.5,0.1,5.9-0.2,8.9c-0.5,6-1.2,11.9-1.8,17.9c-0.2,1.7,0,3.4-0.5,5c-4.6,16.3-9.1,32.7-13.9,48.9
			c-1.5,5.2-6,5.6-10.6,5c0-1.5,0-3,0-4.5c-0.4,0.1-0.9,0.2-1.3,0.2c0.5,1.5,1,2.9,1.5,4.4c-8.3,3.3-10,9.7-3,14.3
			c8.3,5.5,8.9,12.2,7.1,20.8c-3.1,14.6-5.7,29.4-8.4,43.7c8.5,5.4,16.3,7.6,24.8,2.5c7.4-4.5,15.4-8.3,17.9-17.8
			c1.6-0.3,2.8-0.5,4.1-0.8c6.9-1.7,8.2-3.6,8-10.3c-0.1-4.6,0.5-9.1,0.6-13.7c0-3.3,0.6-7-0.7-9.7c-2.7-5.7-1.1-10.2,2.1-14.9
			c2-3,3.5-6.3,5.6-10.2c-6.1-1.8-10.5,1.1-14.9,2.6c-4.3,1.5-8.1,4.2-12.5,6.6c-4.4-7.4-3.5-14.9-2.5-21.8
			c1.7-12.3,2.2-12.3,12.5-20.4c6.6-5.2,11.1-11,10.1-20.3c-1.1-9.8,0.2-10.5,12.4-10.5c3.5,11.8-2,23.3-2.3,35.6
			c5.1-0.3,7.5-3.7,8.7-7.1c2.1-6.2,6.3-9.7,11.9-12.6c7.2-3.7,12.5-8.9,10.1-18.3c-1.7-6.8,5.3-8.4,8.7-13.1
			c-8-8-0.4-13.6,3.4-21.5c4.5,12,3.2,22.6,1.2,33c-2.6,13-4.3,26.4-13.6,37.1c-2.9,3.3-2.5,6.7,0.9,9.6c4.5,3.9,9.1,7.7,14.4,12.2
			c2.2-2.3,4.6-4,6.2-6.3c5.9-8.4,11.6-17,17.5-25.4c3.7-5.3,7.1-10.5,4.1-17.5c-1.9-4.4,0.6-7.3,4.7-8.2c5.4-1.1,11.1-0.7,16.3-2.3
			c5.2-1.6,9.9-6.6,15-6.9c14.9-0.7,29.9-0.4,44.8,0.6c8.2,0.5,7.5,2,8.5,10.2c1.4,11.6-2.5,22.4-4.2,33.4
			c-2.3,15.6-8.3,20.6-23.9,21.7c-14.6,0.9-29.3,1.7-43.8,0.7c-12.5-0.8-20.4,4.3-26.5,14c-2.3,3.6-4.2,7.5-6.2,11.1
			c4.7,3.6,8.7,7.3,13.4,9.9c3.4,1.9,7.6,3.4,11.3,3.1c9.2-0.5,18.5-2,27.6-3.4c5.5-0.8,10.9-2.2,16.7-3.3
			c-2.5,17.8-50.5,51.2-77.5,54.8c9-16.4,26.5-23.1,39.2-34.6c-1.1-1.8-1.4-2.8-1.7-2.8c-11.6-0.1-23.2-0.2-34.8,0.1
			c-2.1,0.1-4.5,1.5-6.1,3c-9.3,9.2-17.2,19.5-22.2,31.5c-2.6,6.4-6.2,10.4-12.9,10.5c-7.6,0.1-15.5,0.6-22.8-1
			c-19.1-4.4-34.6,4-50,12.7c-3,1.7-5.4,6.2-6.1,9.7c-5.7,28.7-10.8,57.6-16.2,86.4c-0.9,4.8-1.8,9.6-2.7,14.3c0.7,0.3,1.3,0.7,2,1
			c3.3-4.7,7-9.2,9.9-14.2c14.6-24.9,34.1-45,58.9-60c8-4.8,15.7-10,23.3-15.4c13.7-9.9,30.5-11.2,45.6-16.9
			c25.2-9.5,51.5-10,77.8-9.7c9.7,0.1,12,2.7,11.8,12c-0.2,11-0.4,22-0.8,33c-0.1,2.7-0.5,5.3-0.9,7.9c-3.3,17.9-3.3,17.8-21.1,18.6
			c-6.3,0.3-12.6,0.9-17.7,5.3c-0.9,0.8-2.3,1.7-3.3,1.4c-12.1-3-21.1,6.6-32.4,6.7c0.1,0.7,0.2,1.4,0.4,2.1c3.7-0.6,7.6-2,11-1.4
			c3.4,0.6,6.5,3.4,10.6,5.8c1.1-0.7,3.1-2.2,5.3-3.6c4.3,5.2,2.3,8.8-2.2,11.5c3.6,10.4,3.6,10.4-4.5,16.9
			c-2.7-3.5-5.3-7.1-9.3-12.5c-2.2,4.9-3.7,7.9-5,11.1c-6,14.5-12.2,18.1-27.7,17.1c-3.4-0.2-7.1,0.9-10.4,2.2
			c-3.9,1.5-7.6,2.6-11.3-0.1c-3.1-2.3-6.1-1.9-9.3-0.1c-13.7,8-28.9,6.7-43.8,6.4c-2.2-0.1-4.7-1-6.3-2.5c-5.5-4.9-11.3-3-17-1.1
			c-5.2,1.8-5.3,4.9-1.6,9c4.4,4.9,8.6,10,12.3,15.4c5.1,7.7,9.6,15.7,14.6,24.1c-8.4,4.6-16.8,4.2-24.9,4.5
			c-8.3,0.3-16.5,0.1-25.2,0.1c-0.5,1.3-1.3,2.5-1.3,3.7c-0.1,25.6-6.7,50-13.8,74.3c-2.3,8-5.4,15.2-14.8,17.1
			c-1.3,0.3-2.4,1.2-3,2.6c8.7,2.5,14-4.4,21-6c7.7-1.9,15.1-5.2,22.7-7.6c7.3-2.3,14.6-4.5,22.1-6.3c7.8-1.9,15.6-3.4,23.5-4.9
			c7.5-1.4,15-2.5,22.4-3.8c1.9,8.2-2,13.6-10.3,14.7c-2.3,0.3-4.6-0.2-6.9-0.4c-5.5-0.4-10.2,1.7-12.6,6.4
			c-3.2,6.3-7.3,10.9-14.9,12.1c8.7,5.1,17.4,8.2,27.4,7.4c9.3-0.8,11.7,1.1,14.7,9.7c1.7,4.8,0.6,8.2-4.3,9.3
			c-27.8,6.5-54.9,7.1-79.1-11.7c-3.7-2.9-7.1-6.1-10.8-8.9c-5.2-3.9-7.1-3.7-10.5,1.5c-5.7,8.6-11.2,17.3-16.8,26
			c-2.5,3.9-2.1,6.8,1.4,10.4c8.1,8.6,18.1,13.9,28.9,17.2c26.3,8.2,44.9,25.4,58.8,48.4c9.4,15.7,20.2,30.5,26.3,48.1
			c5.9,17.1,10.8,34.3,11.2,52.5c0.1,3.4,0.2,6.8-4.6,8.7c-1.7-2-3.4-4.5-5.6-6.3c-1.3-1.1-3.9-2.1-5.1-1.5
			c-1.4,0.6-2.5,3.1-2.6,4.8c-0.3,5.5,3.8,6.9,8.2,8.4c8.1,2.6,8.5,3.6,7.1,12.9c-3.5-1.4-6.8-2.8-12.6-5.1c1.4,4.4,1.8,6.8,2.9,8.8
			c2.5,4.7,5.6,9,8.1,13.8c2.8,5.3,0.3,9.2-5.6,9.1c-1.6,0-3.3-0.5-4.8-1.2c-9.4-4.5-9.4-4.5-18.4-1.7c-1.3-3.5-3.3-7-3.6-10.7
			c-0.6-5.9-3-9.9-8.4-12.4c-2.7-1.3-4.8-3.6-7.3-5.2c-3.5-2.1-6.9-2.3-10.9,3.4c2.9,1.6,5.8,3.1,9.1,4.9c-2,4.5-3.5,7.7-5.1,11.2
			c-5.5-2.2-5.8-7-6.9-10.9c-8.2-28.2-15.8-56.5-24.3-84.5c-4.9-16.2-11.1-31.9-17.2-49c-7.8,5.9-10,13.5-14.2,20.3
			c5.8,0.1,5.8,0.1,13.4-7.2c4.2,5.1,2.4,9.8-0.1,14.6c-2.9,5.5-4.3,10.8,3.6,14.5c-2.9,2.6-5.5,4.3-7.1,6.6
			c-2.5,3.6-4.9,7.8-2.2,12.1c3.5,5.6,2.2,10-2,14.3c-0.8,0.8-1.1,2.2-1.7,3.5c9.5,1.6,12.4,0.5,15.5-6.7c2.2-5.1,3.6-10.6,5.9-17.8
			c2.7,8.8-3.4,17.5,5.7,22.2c-5.9,7.5-5.3,17.1-13.1,22.2c-1.2,0.8-1.8,3.9-1.3,5.4c3.5,9.7-1,18.5-3.3,27.3
			c-2.5,9.1-7.8,17.5-4.9,29c-3.7-2.3-5.8-3.7-8.5-5.4c-2.3,1.3-4.7,2.7-7.6,4.4c-3-5.5,0.3-9.8,0.3-15.3c3.3,1.6,5.3,2.5,7.5,3.5
			c4.7-2.8,6.3-7.1,5.2-11.9c-2.8-12.6-1.8-24.4,5.2-35.6c0.8-1.2,0.5-3.1,0.9-5.6c-8.5,1.9-14.1,7.3-20.1,11.4
			c-1.9,1.3-2.2,5.3-2.6,8.2c-0.3,2.5,0.3,5.1-0.8,8.1c-1.5-3-2.9-6-5.5-11.2c-0.7,3.8-1.4,5.3-1,6.5c1.6,5.4,0.8,10.1-1,15.5
			c-1.5,4.2,0.1,9.4,0.4,16.4c-2.7-4.2-4.5-7.2-6.4-10.1c-0.9,0.6-1.8,1.1-2.6,1.7c0.1,1.6-0.2,3.5,0.4,4.9
			c3.3,7.6,6.8,15.2,10.2,22.8c3.3,7.2,2.8,10-4.2,13.9c-8.4,4.7-16.8,9.6-26.9,10.2c-3.6,0.2-7.3,0.9-8.9,6.2c3.2,0.5,5.9,1,9,1.5
			c-0.2,0.8-0.1,1.9-0.7,2.5c-1.7,1.6-3.5,3.1-5.3,4.5c-10.3,7.8-10.6,7.7-18.3-2.8c-0.6-0.8-1.1-1.7-1.8-2.4
			c-8.5-9-12.5-9.4-21.5-0.9c-9.2,8.7-18,17.8-26.9,26.8c-2,2.1-3.6,4.6-4.6,8.1c1.3-0.5,2.8-0.8,3.9-1.6c3.6-2.8,7.2-3.1,11.2-1
			c1.2,0.6,2.4,1.2,3.7,1.4c7.1,1.1,13.8,0.9,17.4-6.9c5.8,2.9,5.7,7,3.9,11.3c-2.5,6.1-6.7,11.2-12.8,13.4
			c-8.7,3.2-17.7,5.5-26.7,7.6c-4.5,1.1-9.3,0.5-13.9,1.4c-8.8,1.7-17.3,3.9-24.4,10.4c-10.8,9.9-22.2,19-33.4,28.4
			c0-37.3,0-74.7,0-112c5.8-5.9,8.8-15,18.7-15.6C14,1706,9.4,1702.6-2,1708c0-35.3,0-70.7,0-106c20.8-7,20.8-7,35.3-1.2
			c1.5-9,3.7-17.6,4.3-26.4c1.4-19.3,11.8-34.3,22-49.5c0.8-1.2,2.5-1.9,3.7-2.8c5.6,5.4,13.4,20.1,14.1,30.5
			c0.9,13.3,6,25.1,10.5,37.2c2.2,6,6.2,11.8,0,18.1c7.7,1.1,11.8-1.9,13-8.9c0.6-3.3-0.1-7.2,1.5-9.7c9-14.2,11.3-31.9,22.8-43.1
			c-4.2-5.8-9.8-10.6-11.2-16.5c-1.4-5.5-3.2-10.4-5.9-15.4c-2.8-5.1-5.8-10.7-3.4-17.6c6.8,5.1,8.4,14.3,17.4,15.8
			c-1.5-4.1-3.5-7.8-6.1-11c-6.7-8.4-12.1-17.3-15.7-27.6c-5.2-15.1-5.3-30.7-5.8-46.3c-0.1-3.5-1-7.1-1.9-10.5
			c-0.7-2.9-2.4-5.6-2.8-8.5c-3.5-23.9-15.1-44.6-24.9-66.1c-2.2-4.8-5.2-9.3-8.5-13.5c-3.9-4.9-5.8-4.4-10.5,1.3
			c0,0,0.2-0.2,0.2-0.2c-6.4-4.5-6.3-11.2-5.8-17.9c0.3-4.5,0.8-9.1,1.2-13.6c-2.7,10.8-3.6,21.8-6.3,32.3
			c-8.8,33.4-18.2,66.6-27.6,99.9c-3,10.5-6.4,20.9-9.7,31.3c0-168.7,0-337.3,0-506c4.2,4.2,8.2,8.7,12.8,12.5
			c4.4,3.6,8.2,2.1,9.6-3.4c2.3-9,1-17.4-6.2-23.7C9.2,937.1,3.4,933.8-2,930c0-24.7,0-49.3,0-74c3.6-2.5,4.8-5.8,3.3-10
			c-1.2-3.3-2.2-6.7-3.3-10C-2,558.2-2,280.4-2,2c166.7,0,333.3,0,500,0c0.3,10.8,3.3,20.8,10,29.4c1.3,1.7,4.2,2,7.8,3.7
			c0-6,0-10.2,0-14.3c0-6.2,0.1-12.5,0.2-18.7c37.3,0,74.7,0,112,0c-1.5,4-3.8,7.9-4.5,12.1c-2.5,14.1-8.8,26.4-16.6,38.1
			c-7.6,11.3-15.2,22.6-23.2,33.6c-8.4,11.6-18.9,20.5-33.3,24.1c-3.3,0.8-7.6,2.7-9,5.4c-5.9,11.8-13.7,23-14.9,36.8
			c-0.2,2.7,0.2,5.5,0.3,8.9c2.3-0.8,3.5-0.8,4-1.4c11.2-13,25.5-20.9,41.4-26.8c3.3-1.2,6.4-4.8,8.1-8.1
			c5.7-10.5,10.5-21.5,16-32.1c2.2-4.2,4.5-9,11.5-10.1c0.3,2.8,1.1,5.3,0.7,7.6c-2,13.8-2.9,27.8-8.8,40.9c-2,4.5-3,9.6-3.7,14.5
			c-1.8,11.5-4.1,23-4.6,34.5c-0.9,18.1-8.3,33.6-17.8,48.1c-8.8,13.5-19.8,25.4-35.9,30.3c-8.4,2.5-13,7.4-14.3,15.9
			c-0.4,2.3-0.7,4.7-1.6,6.8c-4.8,10.4-0.1,22.6-6.2,32.9c-0.4,0.6,2.3,4.4,3.7,4.5c3.2,0.2,6.7-0.3,9.6-1.6
			c8.5-3.7,14.6-10.2,19.9-17.7c6.9-9.9,13.1-20,16.1-31.8c0.5-1.9,1.4-3.8,2.7-5.3c12.6-13.7,20.9-29.8,26.8-47.3
			c1.5-4.3,4.1-8.4,6.6-12.3c1.1-1.7,3.3-2.7,5.9-4.8c0.7,3,1.7,5,1.4,6.7c-1.9,10.8-3.6,21.7-6.4,32.3c-4.1,15.8-10.6,30.7-20,44.2
			c-2.8,4.1-4.8,8.6-1.3,14.8c2-2.4,3.7-3.9,4.6-5.7c4.4-8.9,8.5-17.9,12.7-26.8c3.1-6.5,7.7-7.4,12.3-2c3.4,4,6.4,8.6,8.5,13.4
			c5.7,13.4,14.9,24,24.4,35.9c5.8-5.2,10.6-9.7,15.6-14c10.1-8.5,19.1-18.5,32.2-23c6.2-2.2,8.6-6.9,7.9-14.5
			c-2-21.5,1.2-43.2-3.7-64.5c-0.9-4,1-8.7,0.1-12.7c-4.4-19.3-1.1-39-3.3-58.5c-2.1-18.7,0-37.6-1.5-56.5
			c-1.8-21.5-4.1-43.1-0.3-64.6c229.3,0,458.7,0,688,0c0.6,11.8-1.4,23-6.3,34c-2.8,6.2-3.1,13.5-4.3,20.3c-0.2,1.3-0.4,3,0.3,3.9
			c6.5,8.7,4.6,22,17.1,28.4c-2.9,2.8-4.9,4.7-6.9,6.7c-4,3.9-6.5,7.7-5.1,14.1c0.8,3.4-2,7.7-3.5,12.4c1.7,0.5,3.8,1.5,5.9,1.6
			c4,0.2,8-0.1,11.9-0.3c6.5-0.2,10.7-4.9,9.3-11c-0.6-2.9-3.1-5.8,0-8.1c2.8-2.1,6.2-4,9.6-4.6c4.5-0.8,9.2-0.2,13.9-0.2
			c-1.7,6.7-1.7,6.7-8.3,10.9c-0.2,3.8-0.4,7.5-0.7,12.2c2.5,0.6,5.7,2.1,8.8,2c2.2,0,5.9-1.6,6.4-3.3c1.8-5.5,5.8-7.6,10.5-9.7
			c3.2-1.4,5.8-4.1,9.9-7.1c-5.1-3.6-9.2-6.5-14.5-10.2c2.9-1.5,4.8-3.2,6.7-3.3c5.6-0.1,11.3,0.6,16.9,0.5c2.7,0,6.6-0.1,8-1.8
			c4-5,8.2-2.6,13.8-1.9c-1.7,1.9-2.7,3-4.2,4.7c3.9,3,6.9,2.5,10.1-1.1c6.2-6.9,6.3-6.7,13.8-2.6c3.8,2,7.8,3.8,11.8,5.3
			c4.9,1.9,9.6,2.4,13.3-2.8c2.8-3.9,6.7-3.5,10.5-1.4c-2.6,8.3-6.7,10.6-15.5,10.2c-8.9-0.4-17.9-0.1-26.9-0.1
			c-4.9,9.5-4.9,9.5-2,16.5c-7.9,0.7-16.1-1.7-23.6,3.2c-0.4,3.1-0.8,6.3-1.2,9.8c6.3,3.4,12.6,2.9,18.8,1.8
			c3.1-0.5,5.9-2.9,9.5-0.6c0.8,0.5,3.8-2.6,6.2-4.4c3.1,1.9,6.5,3.8,10.4,6.2c1.6-1.8,3-3.5,3.4-3.9c5.2-1.2,9.3-1.8,13-3.2
			c4-1.5,7.6-2.5,11.1,0.8l0.2-0.2c-6.4,4.4-14.3,7.1-17.9,15.1c-0.6,1.4-3.3,2.4-5.1,2.5c-16.9,1.3-33.7,3.9-50.6,0.3
			c-4.7-1-9.4-0.6-13.7-3.8c-3.1-2.3-7.3-1.1-9.9,2c-3.6,4.1-7.9,3.7-12.8,3.6c-16.6-0.1-33.2,0.2-49.8,0.6c-2.9,0.1-5.9,1-8.7,2
			c-3.4,1.3-5.9,4.2-4.7,7.7c0.8,2.3,3.7,5.2,6,5.5c6.9,1.1,13.9,1.3,20.9,1.4c10,0.2,20,0.1,29.9,0.1c25.3,0,50.6-0.2,75.9-0.1
			c8.9,0,17.9,0.2,26.8,0.9c9.8,0.7,16.4,11.6,11.8,19.3c-0.6,1-2,1.5-3.8,2.8c-2-5-4.5-8.8-9.7-6.9c-3.1,4.8-5.8,9.2-8.6,13.6
			c-2.6,4-6,5.9-11,5.2c-7-1-12.1,2.4-16.3,7.6c-1.9,2.3-4,4.6-5.2,7.3c-2,4.4-5.5,6.4-9.8,7.7c-16.3,4.7-32.6,9.7-49,14.1
			c-10.7,2.9-16.6,0.3-22.7-9.1c-5.7-8.7-11.3-9.9-20.2-4.7c-6.7,3.9-11.5,9.1-16.2,15.5c-8.1,11.1-17.9,20.3-32.6,24.6
			c-48.3,13.9-96.2,29.4-144.3,44.1c-21.7,6.6-43.5,12.6-65.2,19.2c-30.2,9.3-60.3,19.1-90.5,28.5c-31.5,9.8-63,19.4-94.5,29.1
			c-5.4,1.7-10.9,3.2-16.2,5.1c-36.5,12.7-72.9,25.6-109.4,38.3c-19.5,6.8-39.1,13.3-58.6,19.9c-3.2,1.1-6.4,2.2-9.7,2.5
			c-15.9,1.5-29.6,9.5-44.2,14.8c-23.5,8.6-47,17-70.6,25.1c-12.3,4.2-24.9,7.3-37.2,11.7c-8,2.8-14.5,1-20.3-4.2
			c-4.8-4.2-9-8.8-13.6-13.2c-4.5-4.3-6.3-4.1-10.7,0.4c-4.4,4.5-8.9,9-13.6,13.1c-4.6,3.9-7.3,8.7-8.1,14.5
			c-1.1,8.3-5.3,12.9-13.8,14.8c-5,1.1-9.6,4.5-14.4,6.6c-1.6,0.7-3.6,0.7-7.2,1.4c4-9.9,7.5-18.4,10.8-26.9
			c3.3-8.7,6.4-17.5,9.7-26.3c3.2-8.4,6.7-16.7,9.6-25.2c2.9-8.5,7.9-16.5,8.3-25.8c-0.7-0.4-1.5-0.8-2.2-1.2
			c-2.5,3.2-5.7,6.1-7.5,9.7c-9.2,19.2-18.1,38.4-24.3,59c-4.3,14.2-12.4,27.2-19.2,40.5c-0.8,1.6-3.4,2.3-6.9,4.6
			c-0.6-11.5,2.3-20.8,2.3-30.2c0.1-9.3,0.4-18.7-0.6-27.9c-1-9.6-2.9-19.1-5.4-28.4c-2.3-9-5.6-17.8-8.9-26.5
			c-3.4-9-7.4-17.7-11.7-28.1c-11.9,8.7-22.9,16.8-33.8,24.7c-3.2,2.3-6.8,4-9.6,6.6c-2.3,2.1-3.7,5.1-5.5,7.7
			c-14.3-20.1-28.5-40.2-42.4-59.7c-17.2,14-23.9,34.7-35.1,55.3c-3-5.6-5-8.9-6.7-12.4c-4.1-8.4-8-16.8-12.2-25.1
			c-0.9-1.7-2.9-2.9-5.5-5.5c0,3.7-0.7,6.5,0.1,7.1c5.7,4.1,6.7,10.4,8.8,16.3c2.2,5.9,5,11.6,6.9,17.5c2.8,8.5,5.1,17.1,7.3,25.8
			c0.4,1.5-0.6,3.4-1.2,6c-5.6-2.9-4.1-7.4-4.6-10.9c-0.8-6-0.9-12.2-7.8-14.9c0,0,0.2,0.2,0.2,0.2c-3.1-4.8-6.1-9.5-9.3-14.5
			c-3.4,3.1-2.7,6.9-2.6,10.9c0.2,9.7-0.3,19.5-0.5,29.3c0,0,0.2,0.1,0.2,0.1c-2.5-4.2-6.8-8.3-7-12.6c-0.2-5.8-2.4-10-4.4-12.4
			c2.1-11.6,3.8-21.5,5.6-31.4c-2.6,0.6-3.9,1.6-4.6,2.9c-5.1,11.3-8.7,23.1-9.2,35.6c-0.9,22.4,0.4,44.6,5.8,66.5
			c0.8,3.1,1.2,6.7,0.6,9.8c-1.4,7.2-3.4,14.3-5.5,21.3c-2.4,7.8-0.4,19.2,5.2,26.4c0-3,0.2-5.6,0-8.2c-2.1-24.7,7.2-46.4,18.3-67.5
			c1.8-3.5,4.7-6.5,7.5-9.3c4.6-4.7,9.9-6.5,16.2-3c1.5,0.9,3.5,0.9,6.5,1.6c-0.5-14.5-5.9-27.4-3.2-41.2
			c2.8-13.9,9.6-25.6,16.3-37.7c-2.1,9.5-4.3,19-6.4,28.5c6.8-4.5,11.7-10,17.5-14.3c4.3-3.3,5.1-6.7,3.5-11.2
			c-1.3-3.8-3.1-7.4-4.3-11.2c-1.5-4.5-1.5-8.6,5.1-9.9c10.6,13,4.6,30.4,11.4,44.7c1.3-1.5,2-2.4,3.5-4.1c2,10.9,4.2,20.8,5.5,30.9
			c1.3,10.2,1.8,20.6,2.6,30.9c1,0.1,1.9,0.2,2.9,0.2c0.7-3.3,1.6-6.6,2.2-10c2.2-14.2,5-28.2,12.5-40.8c6.6,1.3,11-1.7,15.5-6.5
			c6.3-6.8,13.3-13,20.5-18.9c6.7-5.5,12.6-4.3,15.9,3.7c7.4,17.8,15.2,35.5,17.6,54.9c0.5,4,1,8,2.1,11.8c4,14,2.1,27.8-1.3,41.4
			c-3.9,15.4-8.5,30.7-12.9,46.6c2-1.3,4.2-2.6,6.5-4.1c-9,31.4-26.2,55.5-57.9,67c-0.8-2.7-1.7-5.5-2.5-8.3
			c-43.4,19.5-76.3,69.3-72.3,106.8c3.6-2.4,2.9-6,3.2-9c2.1-18.7,9.1-36.1,20.3-50.3c11.2-14.2,26.1-25.4,39.6-37.8
			C389.6,632.5,393.7,631.2,398.1,634.1z M218,931.8c-1.9-8.4-4.5-16.5-11.3-22.6c3.8,7.5,7.6,15,11.4,22.5c0.4,1.4,0.7,2.9,1.1,4.3
			c0.4-0.2,0.8-0.4,1.2-0.5C219.6,934.2,218.8,933,218,931.8z M144,1428.2c1.4,3.3,2.8,6.6,4.2,9.9c-3.1-0.6-6.2-1.3-11.6-2.3
			c3.3,5,5.5,8.2,7.6,11.5c0.8-0.1,1.5-0.2,2.3-0.4c0.5-3,1-6,1.4-9c3.5,0.1,7.2,0.5,8.2-4.2c-4.3-1.9-8.3-3.6-12.4-5.3
			c-0.5-1.4-0.9-2.9-1.4-4.3c-0.4,0.2-0.8,0.4-1.1,0.6C142.2,1425.8,143.1,1427,144,1428.2z M168.3,1321.8
			c4.7,4.5,9.2,9.3,14.2,13.5c3,2.5,6.5,2.3,9.7-0.5c-0.7-5.6-4.6-7.3-8.8-8.5c-5.1-1.5-10.1-2.9-15.2-4.4c-2.6-1.4-5.3-2.8-7.9-4.2
			c-0.3,0.6-0.5,1.2-0.8,1.8C162.5,1320.4,165.4,1321.1,168.3,1321.8z M102.1,935.7c-0.4-4.3-0.7-8.6-1.2-12.8
			c-2.8-21.7-5.9-43.4,1.3-65c1.2-3.7,0.8-3.9-1.3-7.6c-8.7,24.2-7.7,49.1-2.4,74.1c0.8,3.8,2.5,7.5,3.7,11.2
			c1.2,5.6,2.3,11.2,3.5,16.7c2.5,9.2-1.5,16.1-7.7,22.3c-6.9,6.8-14,13.3-23.3,16.6c-4.5,1.6-7.1,4.8-8.1,9.3
			c-0.8,3.2-1.5,6.5-2.1,9.8c-2.4,14.4,1.9,22.7,14.9,29.1c5,2.5,9.8,5.5,14.9,7.8c2.3,1,5,1.3,7.5,1.2c2.5-0.1,5-1.2,7.6-1.9
			c3.5,5.4,1.1,10.2-0.1,14.8c-5.5,21.6-11.3,43.1-17,64.6c-3.1,11.6-6.2,23.1-9.5,34.6c-0.8,2.6-2.3,5-4.5,9.5
			c-3.4-5.5-5.7-8.9-7.7-12.6c-7.5-14.1-14.9-28.2-22.4-42.3c-2-3.7-4.4-7.3-10.4-8.6c5.9,7.5,5.1,14.4,2.1,21.5
			c-5,2.3-8.1,0.6-10.1-4.4c-3.4-8.2-8.5-15.3-15.1-21.5c0.4,3,1.7,5.4,2.7,8c4.2,10.4,9.1,20.7,12.3,31.4c6.2,21,11.2,42.4,17,63.5
			c1.2,4.4,3.6,8.5,5.4,12.7c4.3,14.7-0.6,28.8-2,43.3c2-7,4-14,6.2-22c6.5,10.7,12,20,17.6,29.2c-0.8,3.9,0.2,7.1,3,10
			c6.1,6.4,9.5,14.3,12,22.8c3.6,12.4,7.3,24.8,11.2,37.2c2.8,9.1,6,18.1,9.1,27.1c-0.3-10.7,4.4-19.7,7.6-28.9
			c4-11.7,4.3-11.6,14.9-14.3c-6.2-3.5-12.7-6.5-18.6-10.4c-13.3-8.8-22.4-21.7-31.7-34.3c-2.3-3.2-5.1-6-7.7-9
			c-3.6-8.8-7.1-17.6-10.8-26.3c-3.5-8.1-7.3-16.1-11-24.2c-1.2-5.8-2.1-11.7-3.5-17.4c-3.3-13.5-7-26.9-10.3-40.3
			c-0.7-2.8-1.5-6.8-0.1-8.6c6.1-7.7,3.6-15.6,1.7-23.6c8.3,3.6,10.2,11.2,10.7,18.9c0.4,6,2.9,10.5,5.7,15.5
			c6.6,11.9,13,24,18,36.6c2.5,6.3,5.1,12.1,9.1,17.5c4.2,5.6,9.3,10.9,11.7,17.2c2.9,7.5,7.5,13.1,12.5,18.9
			c3,3.5,5.9,7.2,8.9,10.8c7.7,9.1,14.8,18.7,25.6,25c1.2-0.9,2.5-1.5,3.3-2.5c7.5-9.3,14.8-18.8,22.5-28
			c4.2-5.1,8.7-10.1,13.6-14.5c5.3-4.8,8.7-4.4,13.9,0.6c3,2.9,5.7,6.2,9.1,10c1.2-2.6,2-3.9,2.5-5.4c6.2-20-7.2-46.7-23.3-53.6
			c-11.5-4.9-20.4-13.5-28.5-23c-9.2-10.6-13.6-23.3-18.4-36.1c-10.4-27.8-16.1-56.3-14.7-86c0.6-14.2-0.8-28.7,5.4-42.3
			c0.9-1.9-0.6-5.1-1.5-7.4c-3.8-9.6-7.6-19.1-11.6-28.6c-2.7-6.3-5.8-12.5-8.6-18.8C104.5,946.9,103.3,941.3,102.1,935.7z
			 M238.1,690c0.8,2.9,1.2,5.9,2.5,8.6c2.3,4.7,0.8,7.6-3.5,9.7c-1.7,0.8-3.5,1.7-6.4,3c-2.2-4-4.6-7.5-6-11.3
			c-1.6-4.5-4-7.5-8.7-9.1c8.8,21.6,17.3,42.7,25.9,64c8.7,1.7,12.9-4,17.4-10.7c-3.6-3.2-7-6.3-10.6-9.6c5.8-9.1-3.6-14.7-6.1-23.2
			c2.9-0.7,5.3-1.3,7.7-1.9c0.9,9.6,2.3,19,11.8,24.4c2,6.3,3.7,12.7,5.9,18.9c5.1,14.8,10.5,29.5,15.6,44.2c1.3,3.7,3,7.9-0.3,11.4
			c-6.9,7.1-14.1,13.9-20.8,20.5c-1-0.2-1.4-0.1-1.6-0.3c-0.9-0.5-1.8-0.9-2.5-1.6c-29.2-25.3-44.9-58.1-52.5-95.2
			c-0.7-3.4,0.5-7.2,0.5-10.8c0-4.6,0.6-9.6-0.9-13.7c-2.8-7.3-7-14.1-10.7-21.1c0.6,9.4,1.9,18.8,3.9,28.1
			c2.5,11.2-1.8,20.7-5.1,30.5c-2.7-0.5-4.3-0.8-6.5-1.2c3.5,10,6.8,19.1,9.8,28.2c0.2,0.6-0.6,1.6-1,2.7c-2.3-1.9-4.3-3.5-6.4-5.1
			c-0.5,0.3-1,0.7-1.5,1c1.5,5.5,3,10.9,4.7,17.2c2.4-1.8,4.3-3.2,6.3-4.6c7.9,16.4,10.5,25.1,9.7,32.5c-6.4-6.5-4.4-16.7-12.4-24.6
			c0,10.1-1.9,18.7,0.4,26c4.4,13.9,9.9,27.8,17.4,40.2c9.3,15.3,18.2,30.2,19.1,48.6c0,0.5,0.8,0.9,1.2,1.4c0.6-1.3,1.2-2.5,1.9-4
			c12.7,11.1,16.5,26.9,25.8,39.4c0.3-2.8-0.4-5.1-1.2-7.4c-2.4-6.5-6.3-12.9-7.1-19.6c-1.6-12.8-6.2-23.5-15.8-32.2
			c-2.1-1.9-4.6-4.4-3.6-8.7c5.9,4.8,9,11.8,17,13c3.5-6,3.5-12.3,3.9-18.5c2.1-30.9,18.2-51.9,45.3-65.4c1.8-0.9,3.5-2.1,5.3-3.2
			c-0.3-0.6-0.5-1.2-0.8-1.8c-5.2,1.9-10.5,3.8-16.9,6.1c-0.9-5.3-1.6-9.3-2.4-13.8c3.6-0.7,6.1-1.2,9.1-1.8c1.6-9,2.9-17.8,5-26.6
			c1.7-7.2-0.1-12.8-4.7-18.4c-8.2-10.1-15.7-20.7-23.6-31c-10-12.9-14.1-27.7-15.3-43.7c-0.1-1.4,0.8-2.9,1.9-6.6
			c8.1,13.6,15,25.3,22.3,37.6c2.2-2.5,3.8-4.3,6.4-7.3c5.6,6.7,10.5,12.7,16.1,19.5c1-5.6,4-10,0.7-15c-3.3-4.9-6.2-10.1-9.8-14.8
			c-1.5-2-4.3-3-6.4-4.4c-0.5-2-0.9-3.9-1.4-5.9c-0.4,0.1-0.9,0.3-1.3,0.4c0.9,1.8,1.9,3.6,2.8,5.3c1.4,4.1,2.8,8.2,4.5,13.2
			c-9.7-2.2-14.1-7.1-16.3-14.9c-6-21.5-12.3-42.9-18.7-64.3c-8.8-29.7-16.8-59.6-26.9-88.9c-11.3-32.8-16.1-66.6-18.1-100.9
			c-0.5-8-0.1-16.1-0.1-25.6c1.9,2.5,2.7,3.6,3.6,4.5c2.3,2.3,5.3,4.1,7.8,1.4c1.6-1.8,2.5-5.6,1.7-7.9c-1.2-3.7-3.7-7.1-6.3-10
			c-3.3-3.7-5.7-8.9-12.3-9.8c-0.2,3.7-0.6,6.7-0.5,9.6c0.6,17.6,1.5,35.3,1.9,52.9c0.1,4.9-0.5,9.9-1.4,14.7
			c-2.1,11.4-6.1,22.8-6.5,34.2c-1.1,27.9-1.5,55.9,5.9,83.4c5.3,19.7,11.5,39,20.5,57.3c0.7,1.4,2.2,2.3,3.3,3.4
			c-11-26.9-21-53.9-24.2-82.4c-3.1-28.5-6.2-57.4,4.5-85.6c1.8,3.9,2.5,8,3.5,12c5.1,20.2,6.2,41.4,16,60.4c3,5.8,4.4,12.6,6,19
			c0.5,1.9-0.2,4.6-1.2,6.3c-2.9,4.7-6.2,9.2-9.6,14.1c3.8,3.5,5.1,6.9,2.9,11.7c-1.2,2.7-0.6,6.5,0,9.7c2.9,14,6.1,28,9.1,42
			c0.2,0.8-0.4,1.8-0.7,2.8c-2-0.7-3.8-1.3-5.9-2c-1,1.6-2.1,2.9-2.8,4.4c-6.1,13.4-5.7,15.7,5.3,25.6
			c11.3,10.1,20.1,22.1,27.1,35.6c6.8,13.1,12.8,26.3,14.3,41.3c0.5,5.4,2.1,10.8,3.3,16.2c-0.7,0.2-1.4,0.5-2.2,0.7
			c-1.3-2.9-2.4-5.8-3.8-8.7c-3.2-6.5-6.6-12.9-9.9-19.3c-3.9-8.1-7.9-16.3-11.8-24.4c-4.1-6.5-8.1-13.1-12.2-19.6
			c-2.1-3.7-4-7.6-6.5-11.1c-14.2-19.6-33.1-35.6-44.3-57.6c-0.7-1.4-2.7-2.1-5.9-4.4c2.6,14.4,4.9,26.7,7.1,38.9
			c0.4-0.1,0.8-0.2,1.2-0.2c0.5-3.5,1-7,1.5-10.9c7.3,0.2,10.8,5,14.4,9c9.1,10.2,17.7,20.7,26.7,31
			C233.8,686.9,236.1,688.3,238.1,690z M208.1,1034.1c0,0-0.2-0.2-0.2-0.2c0.6,2.9,0.8,6,1.9,8.7c6.4,15.3,13.2,30.5,19.6,45.9
			c2.3,5.5,4.4,11.2,5.5,17.1c2.1,11.1,3.5,22.3,5.1,33.5c0.6,4,1.1,7.9,1.5,11.9c0.3,3.6,0.3,7.1,0.5,10.7
			c2.5-11.8,1.3-23.3-0.7-34.8c-2.8-16.8-3.6-33.7-0.8-50.6c1.8-10.8,3.8-21.6,5.7-32.4c0.9-4.8,1.8-9.6,2.8-15.1c3,1,5,1.6,7.1,2.3
			c3.5-4.9,0.7-7.4-3.5-9.1c-8-3.4-12.6-9.4-14.1-18c-0.8-4.2-1.9-8.4-2.9-12.6c-1-4.2-1.9-8.4-3-12.6c-0.9-3.8-2-7.5-3.1-11.3
			c-0.5,0.2-1,0.3-1.4,0.5c1,6.9,2.1,13.8,3.4,22.8c-12.4-23.8-23.7-45.4-35-67.2c-2.6,1.7-4.2,2.7-5.3,3.4
			c-14.1-6.7-19.7-18.8-23-32.5c-1.5-6.1-2.8-12.3-4.4-18.4c-0.4-1.6-1.7-2.9-3.3-5.6c-5.9,16.1-7.4,32.1-14.2,48.2
			c-5-8-8.8-14.1-12.6-20.2c-0.5-1.9-1-3.9-1.5-5.8c-0.4,0.2-0.9,0.4-1.3,0.6c1,1.7,2,3.4,3,5.1c4.4,21.1,8.8,42.2,13.3,63.3
			c0.5,2.3,0.6,5.3,2.1,6.5c7.2,5.8,6.6,14.7,9.7,22.1c2.4,5.8,1.3,11-3.4,15.4c-6.4,6-9.4,13.5-9.6,22.3c-0.6,1.6-1.3,3.3-1.9,4.9
			c0.6,0.1,1.1,0.2,1.7,0.4c0-1.8,0-3.6,0-5.4c6-15.6,16.5-26.1,33.1-29.9c0,0,0,0.1,0,0.1C188.6,1010,198.3,1022.1,208.1,1034.1z
			 M207.2,1174.9c1.1,6.2,1.7,11.8-2.2,17.9c-3.7,5.8,0.6,13.6,8.8,18c1.6-5.4,3.2-10.6,4.9-16.3c2.7,0.6,4.9,1.6,7,1.4
			c2.8-0.4,7-1,8-2.8c3.3-6.3,6.1-13.1,6.2-20.4c-2.2,2-3.5,4.3-5.1,6.4c-2.6,3.4-6.4,3.7-8.3,0.4c-3.8-6.5-8.8-12-12.9-18.2
			c-1.2-1.8-0.6-5.2-0.1-7.7c0.6-2.9,2.1-5.5,3.1-8.3c-8.1-3.8-9-5.4-8.5-14.5c0.4-7.4-0.8-8.7-9.7-9.3c0.2,3.6,0,7.2,0.6,10.6
			c2.5,14.4,5.3,28.7,8,43.1c-2.9-1.7-5.7-4.3-10.4-1.5C200.6,1177.5,203.9,1175.7,207.2,1174.9z M650.1,452.6
			c3.9-1.4,7-1.8,9.2-3.5c9.3-7,19.2-11.4,31-12.2c6.6-0.4,11.5-7.7,11.4-14.4c-0.2-8.6-0.5-17.2-0.8-25.8
			c-1.1-24.8-2.3-49.7-3.5-74.5c0-0.4-1-0.8-2.1-1.5c-1.3,1.1-3.3,2-4.1,3.6c-6,11-14.7,20.6-17.2,33.5c-0.4,2.2-2.1,4.1-3.3,6.1
			c-7,11.3-15.6,21.5-20.3,34.2c-1.4,3.8-5.3,6.6-8.2,9.7c-2.7,2.9-6,5.3-8.4,8.4c-4.6,6-4,9,2.9,12.6c6.9,3.6,10.4,9,11.7,16.3
			C648.7,447.1,649.2,449,650.1,452.6z M404.5,174.9c1.2-1.5,2.7-2.6,3.1-4c2.1-8,4.4-16,2.6-24.4c-0.7-3.2-1.1-6.5-1.4-9.8
			c-0.6-6.6-1-13.1-1.7-19.7c-0.4-3.6-1.9-7.3-1.5-10.8c2.2-16-0.8-31.7-2.2-47.5c-0.4-4.2-2-8.4-4-12.2c-2-3.8-6.7-3.5-8.8,0.2
			c-0.9,1.6-1.3,3.7-1.4,5.7c-0.8,12.8-4.2,25.6-0.2,38.4c0.4,1.2,0,2.6,0,4c-0.9,23.7,3.1,46.9,6.7,70.1
			C396.6,170.3,399.7,172.8,404.5,174.9z M93.9,799.2c1.1,0.1,2.2,0.1,3.3,0.2c1-2.6,2.2-5.2,2.8-7.8c2.4-9.6,4.1-19.5,7.2-28.9
			c3.2-9.6,5-19.1,4.9-29.2c-0.1-6.7-1.1-8.1-8-8c-4,0-8,0.2-12,0.3c-8.6,0.3-10.2,2.3-9.3,11.1c0.4,3.5,1.6,8.2-0.1,10.5
			c-6.5,9.4-1.7,17,2.2,25.1c2,4.1,3.7,8.3,5.2,12.6C91.7,789.8,92.7,794.5,93.9,799.2z M133.9,1578c3.7-0.3,6.3-0.4,8.9-0.7
			c11.5-1.5,14.9-4.5,16.4-16c1.8-14.2,6.7-27,15.3-38.5c3.8-5.1,7.5-10.1,11.2-15.3c3.5-4.9,4.9-10.2,2.8-16
			c-1.4-3.9-5.2-5.6-7.8-2.6c-4.9,5.7-12.1,9-15.3,16.6C155.2,1529.4,144.7,1553,133.9,1578z M382.9,510.4c4.7,0.3,5.8-3.4,7.8-6.3
			c6.1-9.1,11.9-18.5,18.8-27c7.8-9.5,13.1-8.4,18.6,2.2c1,1.9,2.3,3.6,4,6.2c3.3-6.8,6-12.5,8.8-18.2c0.8,0.2,1.5,0.5,2.3,0.7
			c3.7,22.4,0.1,44.2-7.4,65.7c2.1-2.4,3.7-4.9,4.5-7.7c6-19.6,9.9-39.4,7.1-60c-1.5-10.9-4.1-21.6-4.9-32.5
			c-0.5-6.6-2.1-11.3-8.3-13.8c-7.8,9.4-7.5,9.4-5.9,20.6c1,6.9,0.9,13.9,0.9,20.9c0,2-1.3,4-2.2,6.4c-3.3-2.4-5.8-4.3-8.1-6
			C401,474.7,382.9,499.2,382.9,510.4z M169.7,855.4c-3.3-6.1-6.6-10-7.7-14.4c-3.2-12.6-6.6-25.2-7.9-38.1
			c-2.3-21.2-1.1-42.5,3.1-63.6c0.7-3.3,0.8-6.7,1.2-9.8c-4.7,4.3-9.1,7.6-12.6,11.6c-2.5,2.9-4.2,6.7-5.3,10.3
			c-3,10.2-5.6,20.5-8.2,30.7c-1,4-1.7,8.1-2.6,12.9c5.4-0.4,9.4-0.7,13.3-1.1c4-0.5,6.4,1.1,7.2,5.1c0.5,2.3,1,4.5,1.5,6.8
			c3.9,17.8,7.8,35.5,11.6,53.3c0.8,0.3,1.6,0.6,2.3,1C167.2,858.3,168.8,856.4,169.7,855.4z M129.3,1585.3
			c-2.6,6.7-4.1,11.9-6.7,16.6c-6,11.1-12.6,21.8-18.7,32.7c-1.9,3.3-4.4,6.9-0.2,11.1c1.5-0.8,3.2-1.2,4.1-2.3
			c11.4-13.7,22.8-27.5,34-41.4c2.5-3.2,1.3-11.3-1.8-14.8C136.2,1582.9,131.9,1583.5,129.3,1585.3z M1259.9,202.9
			c0.3,0,0.5,0,0.8,0c-0.4-5.3-0.2-10.7-1.2-15.8c-1.3-6.6-5.7-10-10.8-9.5c-5.8,0.6-9.5,4.9-9.4,11.9c0.1,6,0,12,1.1,17.8
			c0.9,4.3,3.1,8.8,5.9,12.2c1.7,2.1,5.8,3.2,8.7,3c4-0.2,4.7-4.2,4.9-7.6C1260.1,210.9,1259.9,206.9,1259.9,202.9z M155.6,1650.4
			c-6.7,10.2-11.3,19.6-18.2,26.9c-6.8,7.2-15.8,12.4-24.1,18.6c1.1,0.3,1.8,0.8,2.3,0.6c13.6-5.2,27.2-10.5,41.9-12.2
			c4.4-0.5,6.3-3.5,5.1-7.9C160.4,1668.1,158.2,1659.9,155.6,1650.4z M256.6,477.1c-0.9-3.2-2-6.3-2.6-9.6
			c-2.6-14.7-6.1-29.3-7.4-44.2c-1.5-16.7,1.2-33.2,7.4-48.9c2.8-7.2,5.2-14.7,4.2-24.2C237.2,393.4,238.3,435.4,256.6,477.1z
			 M567.9,304c-8.7,4.1-14.9,10-20.8,16.1c-0.9,1-1.2,3.1-1,4.6c0.6,3.9,7.1,9.3,10.8,9.2c3.9-0.1,8.5-4.3,9.5-8.9
			c1-4.9,2-9.8,2.6-14.7C569.1,308.5,568.3,306.7,567.9,304z M200.3,1384.3c0.5,0.1,0.9,0.3,1.4,0.4c3.1-7.9,5.1-16.5,9.6-23.6
			c4.5-7.2,11.4-13,17.3-19.5c-9.4-5.6-9.2-5.5-7.3-15.7c0.9-5,1.1-10.2,1.5-15.4c-0.7-0.1-1.4-0.2-2.1-0.3
			c-5.1,11.5-6.6,24.1-11.3,37.2c4.4-2.2,7-3.5,9.6-4.8c-4,7.1-9.6,12.6-12.7,19.2C203.1,1368.7,202.2,1376.8,200.3,1384.3z
			 M1270.2,130c8.6,0,13.2-3.2,12.9-9c-0.3-5.8-5.9-10.2-12.8-10c-6.6,0.2-11.6,4.4-11.8,9.8C1258.3,126.8,1262.4,130,1270.2,130z
			 M516,340.2c1,3.2,2,7.4,3.5,11.4c1.5,4,4.5,4.4,8.1,2.3c6.1-3.6,7.4-8.3,4.8-17.4c-1.1-4.1-2.4-7.9-7.8-6.9
			C519.9,330.4,516,334.7,516,340.2z M169.9,1594.3c-4.4-11-11.7-0.9-16.8-4.1c-3.2,18.2-1.1,43.6,4.9,52.9c0.1-5.5-0.5-11-0.9-16.4
			c-0.4-5.3-1.1-10.5-1.1-15.8c0-7.1,1.6-13.3,10.4-14.2C167.6,1596.5,168.6,1595.2,169.9,1594.3z M254.7,971.3
			c4.5-4.8,8.4-9.8,4.6-15.2c-3.1-4.6-8.6-7.7-13.9-12.1c0,3.6,0,5.5,0,7.3c-0.8,0.2-1.4,0.3-2.1,0.4c-0.9,0.2-1.7,0.5-3.3,0.9
			C245.1,959,249.7,964.9,254.7,971.3z M333.4,1085c14.6-11.4,17-25.5,7.1-31.6C338.1,1064.1,335.7,1074.5,333.4,1085z
			 M1434.9,128.2c4.9,2.1,8,3.7,11.3,4.8c3.5,1.1,6.3-0.8,6.7-4.1c0.4-3,0-6.8-1.7-8.9c-1.2-1.4-5.7-1.5-7.8-0.5
			C1440.6,120.9,1438.7,124,1434.9,128.2z M321.4,821.2c2-10,3.9-19,5.9-29C312.1,801,310.3,809.5,321.4,821.2z M228.7,763.3
			c0.2-9.9-9-26.4-17.9-32.3C213.2,741.9,222.6,759,228.7,763.3z M143.4,1625.2c-10.9,6.4-29.8,31.8-31.3,42.9
			C123,1653.2,133.1,1639.4,143.4,1625.2z M1254.7,131.8c-1.1,1-4.1,2.7-5.1,5.1c-1.1,2.9,3.1,5.9,7.5,6.2c4.4,0.2,8.5-2.2,8.6-5
			C1265.9,134.9,1261.8,132.1,1254.7,131.8z M97.9,1703.5c-4.8-1.8-7.4-2.8-10.7-4c0.3,12-12.2,15.2-14.6,25.1
			C81.7,1719.4,88.4,1711.6,97.9,1703.5z M195.2,1089.3c-2.8,9.3-1.3,16.9,4.7,24.2C200.9,1104.1,198.9,1096.6,195.2,1089.3z
			 M1282.2,147.3c-6.5,8.2-5.6,11.6,3,14.2C1286.7,155.3,1286.7,155.3,1282.2,147.3z M194.4,1410.3c-5.8,9.9-4.1,14,6.8,18.1
			C193.3,1424.8,195.8,1417.2,194.4,1410.3z M332,793.6c-1.4,6.5-2.8,13-4.2,19.5C335.3,807.9,334.1,800.8,332,793.6z M232,930.1
			c3,9.2,3.9,9.7,10.4,6C238.8,934.1,235.4,932.1,232,930.1z M430.5,123.7c-2,1.1-3.9,1.9-5.5,3.1c-0.5,0.4-0.5,2-0.1,2.7
			c0.4,0.6,1.8,1.2,2.5,1C430.3,129.7,432,128.1,430.5,123.7z M432.4,544.7c-0.7-0.3-1.4-0.7-2.1-1c-2.9,5.3-5.7,10.6-8.6,15.9
			c0.6,0.3,1.2,0.6,1.7,0.9C426.4,555.2,429.4,549.9,432.4,544.7z M196,1587.4c4.2-2.8,4-6,2.6-10.5
			C194.5,1580.1,192.8,1582.8,196,1587.4z M365.2,467.1c2.6-3.7,2.6-7.3-0.6-11.7C361.6,459.9,363.9,463.4,365.2,467.1z
			 M245.9,1321.5c0.6,0.9,1.1,1.8,1.7,2.7c3.1-2.1,6.2-4.3,9.3-6.4c-0.4-0.6-0.9-1.3-1.3-1.9
			C252.4,1317.7,249.1,1319.6,245.9,1321.5z M419.5,109.5c2.3,1.1,3.6,2.2,5,2.3c0.8,0,1.6-1.5,2.5-2.4c-1.2-0.8-2.3-2-3.6-2.3
			C422.5,106.9,421.4,108.2,419.5,109.5z M43.3,1672.8c1.5-1.8,2.9-2.8,3.2-4.1c0.2-0.8-1.4-2.8-2-2.7c-1.3,0.2-3.3,1.1-3.6,2.1
			C40.5,1669.2,42,1670.6,43.3,1672.8z M290.5,910.2c-0.9-0.6-1.8-1.3-2.7-1.9c-1,1.8-2.1,3.7-3.1,5.5c0.8,0.4,2.1,1.3,2.3,1.2
			C288.3,913.5,289.4,911.8,290.5,910.2z M133.9,1537.6c1.3-1.1,2.8-1.7,2.9-2.5c0.1-0.8-1.3-2.7-1.8-2.6c-1.3,0.2-2.4,1.2-3.6,1.9
			C132.2,1535.3,132.9,1536.3,133.9,1537.6z M572.5,426c0.8,0.5,1.6,1,2.4,1.5c0.4-1.3,1.2-2.7,0.9-3.8c-0.3-1.2-1.6-2.2-2.4-3.3
			c-0.8,0.8-2.2,1.6-2.4,2.5C570.8,423.9,571.9,425,572.5,426z M212.9,875.5c-0.7,0.4-1.5,0.8-2.2,1.2c0.9,1.4,1.8,2.9,2.7,4.3
			c0.5-0.3,1-0.6,1.5-0.9C214.3,878.5,213.6,877,212.9,875.5z M87.2,1626.8c-0.7-0.6-1.3-1.1-2-1.7c-2.9,1.1-4.8,2.9-3.9,8.6
			C84,1630.6,85.6,1628.7,87.2,1626.8z M354.9,1254.6c-1-1.3-1.6-2.5-2-2.5c-1.1,0.1-2.1,0.8-3.2,1.3c0.5,0.7,0.8,2,1.4,2
			C352.1,1255.6,353.2,1255,354.9,1254.6z M184.3,870.8c0.6-0.4,1.1-0.7,1.7-1.1c-1.5-1.8-3-3.5-4.4-5.3c-0.4,0.3-0.8,0.6-1.2,0.9
			C181.6,867.2,183,869,184.3,870.8z M181,1455.4c3.7-2,4.3-4.1,2.5-8.5C182.4,1450.5,181.8,1452.6,181,1455.4z M143.5,1471.5
			c0.8,0.2,1.6,0.4,2.5,0.6c0.1-1.6,0.3-3.3,0.4-4.9c-0.6-0.1-1.1-0.2-1.7-0.2C144.3,1468.5,143.9,1470,143.5,1471.5z M198.5,892.5
			c0.5-0.4,1-0.9,1.6-1.3c-1.7-2.5-3.4-4.9-5.1-7.4c-0.4,0.3-0.8,0.6-1.3,0.8C195.3,887.2,196.9,889.8,198.5,892.5z M39.5,1627.5
			c0.5-0.2,0.9-0.4,1.4-0.6c-1.2-3.1-2.4-6.2-3.6-9.2c-0.5,0.2-1,0.4-1.5,0.6C37.1,1621.3,38.3,1624.4,39.5,1627.5z M430.8,162.2
			c0.8,0.1,1.6,0.3,2.4,0.4c0-1.6,0-3.2,0-4.8c-0.5,0-1-0.1-1.5-0.1C431.3,159.1,431,160.7,430.8,162.2z M179,1635.4
			c0.8-1.1,1.8-1.7,1.8-2.4c0-0.7-1-1.3-1.5-2c-0.6,0.6-1.7,1.2-1.8,1.9C177.4,1633.5,178.3,1634.3,179,1635.4z M45.5,1279.6
			c-0.5-0.2-0.9-0.5-1.4-0.7c-0.5,1.1-1.1,2.2-1.3,3.3c-0.2,0.9,0.2,1.9,0.3,2.8c0.4,0,0.8,0,1.2,0
			C44.6,1283.1,45.1,1281.3,45.5,1279.6z M181.8,738.7c1.1-0.9,2.1-1.4,2.3-2.1c0.2-0.7-0.5-1.6-0.8-2.4c-0.7,0.5-1.7,0.8-2,1.5
			C181,736.4,181.5,737.3,181.8,738.7z M368.1,555.2c-0.4,0.1-0.8,0.3-1.2,0.4c0.7,2,1.4,4.1,2.1,6.1c0.4-0.1,0.7-0.2,1.1-0.4
			C369.4,559.3,368.7,557.3,368.1,555.2z M365.4,479.9c0.6-0.1,1.1-0.2,1.7-0.2c-0.2-1.5-0.5-3-0.7-4.5c-0.6,0.1-1.1,0.2-1.7,0.2
			C364.9,476.9,365.2,478.4,365.4,479.9z M228.4,1294.2c0.7-0.6,1.3-1.1,2-1.7c-0.4-0.4-1-1.1-1.2-1c-0.8,0.4-1.5,1-2.2,1.5
			C227.4,1293.3,227.8,1293.7,228.4,1294.2z M191.9,1631.7c0.8-0.5,1.4-0.7,1.9-1c-0.5-0.7-0.9-1.4-1.6-1.9
			c-0.2-0.1-1.4,0.7-1.4,0.8C191.1,1630.3,191.5,1631,191.9,1631.7z M253.9,1004.4c0.8-1.3,1.6-2,1.6-2.7c0-0.7-0.8-1.5-1.3-2.2
			c-0.6,0.7-1.5,1.3-1.6,2C252.5,1002.2,253.2,1003,253.9,1004.4z M57.1,1794.5c0.4,0.5,0.8,1,1.1,1.6c1.1-1,2.2-1.9,3.3-2.9
			c-0.3-0.4-0.6-0.8-0.9-1.1C59.4,1792.9,58.2,1793.7,57.1,1794.5z M135.3,1509.2c-0.4-0.1-0.9-0.2-1.3-0.3
			c-0.3,1.2-0.6,2.3-0.9,3.5c0.5,0.1,1,0.2,1.4,0.3C134.8,1511.5,135.1,1510.4,135.3,1509.2z M46.3,1637.4c-0.5-0.3-1-0.6-1.5-0.9
			c-0.1,0.6-0.2,1.1-0.1,1.6c0,0.2,0.7,0.5,0.7,0.5C45.8,1638.3,46,1637.9,46.3,1637.4z M144.8,1044.2c-0.4-0.1-0.9-0.2-1.3-0.3
			c-0.2,1-0.3,2.1-0.4,3.1c0,0.1,0.5,0.2,0.8,0.3C144.1,1046.2,144.5,1045.2,144.8,1044.2z M364.2,441.1c-0.3,0.1-0.8,0.2-0.8,0.2
			c0.1,0.5,0.2,1,0.3,1.5c0.3-0.1,0.8-0.2,0.8-0.2C364.5,442.1,364.3,441.6,364.2,441.1z M375.3,578.4c-0.5,0.1-1.1,0.2-1.6,0.3
			c0.3,1.4,0.5,2.9,0.8,4.3c0.4,0,0.8-0.1,1.1-0.1C375.4,581.3,375.4,579.8,375.3,578.4z M1371.4,131.3c-0.1,0.2-0.4,0.6-0.3,0.8
			c0.1,0.2,0.5,0.4,0.7,0.5c0.2-0.4,0.4-0.9,0.6-1.3C1372,131.3,1371.7,131.3,1371.4,131.3z M331.6,627c0.2-0.5,0.4-1,0.4-1.6
			c0-0.2-0.3-0.5-0.5-0.8c-0.3,0.3-1,0.8-0.9,1C330.7,626.2,331.3,626.6,331.6,627z M222.3,899.4c0.3-0.3,0.8-0.6,1-1
			c0.1-0.2-0.2-0.8-0.3-0.8c-0.5,0-0.9,0.2-1.4,0.3C221.8,898.3,222.1,898.9,222.3,899.4z M118.3,1390.8c0.1,0.3,0.3,0.6,0.4,0.8
			c0.4-0.3,0.7-0.6,1.1-0.9c-0.3-0.2-0.5-0.5-0.8-0.5C118.7,1390.3,118.5,1390.6,118.3,1390.8z M377.4,595.4
			c-0.4,0.1-0.7,0.2-1.1,0.3c0.1,1.1,0.2,2.1,0.3,3.2c0.3,0,0.5,0,0.8,0C377.4,597.6,377.4,596.5,377.4,595.4z M18.3,1652.2
			c-0.1-0.2-0.2-0.5-0.3-0.7c-0.3,0.3-0.6,0.6-0.8,0.9c0.2,0.1,0.5,0.4,0.6,0.3C18,1652.7,18.1,1652.3,18.3,1652.2z M7.8,1637.9
			c0.5,0,1.1,0,1.6,0c0.1,0,0.3-0.7,0.2-0.8c-0.4-0.3-0.9-0.5-1.4-0.7C8,1636.9,7.9,1637.4,7.8,1637.9z M70.1,1647.5
			c0.1-0.3,0.1-0.5,0.2-0.8c-0.3-0.1-0.6-0.2-0.8-0.1c-0.2,0.1-0.1,0.5-0.2,0.7C69.5,1647.4,69.8,1647.4,70.1,1647.5z M72.4,1232.6
			c0.1,0.3,0.3,0.5,0.4,0.8c0.3-0.3,0.7-0.6,1-0.9c-0.3-0.1-0.5-0.4-0.8-0.4C72.8,1232.1,72.6,1232.4,72.4,1232.6z M333.9,1260.7
			c-0.2-0.2-0.3-0.5-0.5-0.6c-0.2,0-0.5,0.2-0.7,0.3c0.3,0.3,0.5,0.6,0.8,1C333.6,1261.2,333.8,1260.9,333.9,1260.7z M181.4,753.6
			c0.1,0.3,0.1,0.5,0.2,0.8c0.4-0.2,0.7-0.4,1.1-0.6c-0.2-0.2-0.4-0.5-0.6-0.6C181.9,753.2,181.6,753.5,181.4,753.6z"/>
		<path d="M2446,708c-2.4-9.7-5.2-19.3-7.3-29c-11.4-54.1-22.6-108.3-33.9-162.4c-9.2-44.4-18.2-88.8-27.6-133.1
			c-9.7-45.9-19.9-91.8-29.7-137.7c-1.2-5.8-1.3-11.8-1.9-17.7c-0.2-1.6-0.1-3.4-0.7-4.9c-8.3-18.1-9.8-38-14.9-56.9
			c-3-10.9-5.1-22.1-7.7-33.1c-2.8-11.9-3.1-24.4-8.2-35.8c-1.6-3.6-1.3-6.9,2-9.9c3.9-3.6,2.9-7-1.5-9.7c-9.1-5.6-9.1-15-9.1-23.9
			c0-4.9,3.8-8.1,8.5-10.2c6.8-3.2,9-7.2,6.5-11c-2.6-4-8.2-3.5-14,0.3c-3.2,2.1-7,3.6-10.7,4.4c-6.1,1.3-12.3,1.8-19.2,2.8
			c0-3.7,0-6.5,0-9.1c-5.2-4.1-10.4-5.1-16.3-2.8c-3.7,1.4-7.7,2.2-11.6,3c-4.9,1-9.5,2.1-12.4,7.2c-2.5,4.4-7.3,4.8-11.5,2.8
			c-7.2-3.4-13.3-2.9-19,3.1c-3.3,3.5-7.7,3.2-12.2,1.8c-6.6-2-13.3-3.7-20-5.6c-2.6-0.7-5.2-1.3-7.5-2.5c-4.9-2.6-9.7-4-15.3-2.5
			c-3.8,1-6.9-0.5-7.2-4.7c-0.4-5.4-2.1-9.8-6.8-12.5c-6-3.4-12.6-5-19.2-3.1c-7.4,2.1-14.5,1.4-21.8,0.1
			c-10.2-1.8-10.6-2.7-7.7-13.4c93.3,0,186.7,0,280,0c-0.5,1.9-1,3.8-1.5,5.8c-4,15.5,2,22,18,19.4c0.3-0.1,0.7,0,1-0.1
			c1.6-1.1,4-1.9,4.5-3.3c1.8-5.8,6-9.2,10.3-12.9c2.2-1.8,2.5-5.8,3.7-8.7c14,0,28,0,42,0C2446,237.3,2446,472.7,2446,708z
			 M2377.3,54.2c-1.9-2.7-4.5-6.5-7.3-10.1c-4.6-5.8-7.7-6.4-14.8-3.9c-3.1,1.1-6.4,1.5-9.5,2.5c-3.1,1-6.4,2-9.1,3.6
			c-3.7,2.3-7.7,5.6-5.9,10.4c1.8,4.8,7.1,3.9,11.4,4c0.3,0,0.7,0,1-0.2c8.6-5.2,16.3-4.2,24.6,1.6
			C2371.8,65,2377.4,60.7,2377.3,54.2z"/>
		<path class="st0" d="M690,2c-3.7,21.5-1.4,43.1,0.3,64.6c1.5,18.9-0.6,37.8,1.5,56.5c2.2,19.5-1.1,39.2,3.3,58.5
			c0.9,4-1,8.7-0.1,12.7c4.8,21.3,1.6,43.1,3.7,64.5c0.7,7.5-1.7,12.3-7.9,14.5c-13.1,4.6-22.1,14.5-32.2,23c-5,4.2-9.8,8.8-15.6,14
			c-9.4-11.9-18.7-22.6-24.4-35.9c-2-4.8-5.1-9.4-8.5-13.4c-4.5-5.4-9.2-4.4-12.3,2c-4.3,8.9-8.4,17.9-12.7,26.8
			c-0.9,1.8-2.6,3.3-4.6,5.7c-3.5-6.2-1.5-10.7,1.3-14.8c9.4-13.5,16-28.4,20-44.2c2.7-10.6,4.4-21.5,6.4-32.3
			c0.3-1.7-0.7-3.6-1.4-6.7c-2.6,2-4.8,3.1-5.9,4.8c-2.5,3.9-5.1,7.9-6.6,12.3c-5.9,17.5-14.2,33.6-26.8,47.3
			c-1.3,1.4-2.3,3.4-2.7,5.3c-3,11.8-9.1,22-16.1,31.8c-5.3,7.5-11.4,14-19.9,17.7c-2.9,1.3-6.4,1.9-9.6,1.6
			c-1.4-0.1-4.1-3.9-3.7-4.5c6.1-10.2,1.4-22.5,6.2-32.9c1-2.1,1.3-4.5,1.6-6.8c1.4-8.4,5.9-13.3,14.3-15.9
			c16.1-4.9,27.2-16.8,35.9-30.3c9.4-14.5,16.9-30,17.8-48.1c0.5-11.6,2.8-23.1,4.6-34.5c0.8-4.9,1.7-10,3.7-14.5
			c5.8-13.1,6.7-27.1,8.8-40.9c0.3-2.3-0.4-4.8-0.7-7.6c-7,1.2-9.3,5.9-11.5,10.1c-5.6,10.6-10.4,21.6-16,32.1
			c-1.8,3.3-4.8,6.8-8.1,8.1c-15.9,5.8-30.2,13.8-41.4,26.8c-0.5,0.6-1.7,0.7-4,1.4c-0.1-3.4-0.5-6.1-0.3-8.9
			c1.1-13.8,8.9-25,14.9-36.8c1.3-2.7,5.7-4.6,9-5.4c14.4-3.6,24.9-12.5,33.3-24.1c8-11,15.6-22.3,23.2-33.6
			c7.8-11.7,14.1-24,16.6-38.1c0.7-4.2,3-8.1,4.5-12.1C648.7,2,669.3,2,690,2z"/>
		<path class="st0" d="M-2,1462c3.2-10.4,6.7-20.8,9.7-31.3c9.3-33.2,18.8-66.5,27.6-99.9c2.8-10.5,3.7-21.5,6.3-32.3
			c-0.4,4.5-0.9,9.1-1.2,13.6c-0.5,6.7-0.6,13.4,5.8,17.9c-4,8.7-8.1,17.5-12.1,26.2c-8.7,19-11.5,39.1-7.8,59.3
			c5.8,32.2,24.6,56.9,49.1,77.6c5.5,4.6,11.8,5.9,19.2,5.5c-2.9-5.4-7.2-9.9-7.5-14.7c-1.2-16.1-7.4-30.8-11-46.3
			c-2.8-11.9-6.1-23.8-8.7-35.8c-0.6-3,0.9-6.4,1.5-9.6l-0.1-0.1c2.1,3,4.3,5.9,6.4,8.9c1.5,2.2,4,4.6,3.8,6.7
			c-0.9,10.5,5.5,19.1,6.6,29c0.4,3.6,1.6,7.1,2.4,10.7c0.8,3.5,1.6,7,2.4,10.4c-0.9-30.9-2.8-61.5-16.8-89.7
			c-5.5-11-11-22-16.9-32.7c-2.1-3.7-5.1-7.3-10.5-5.5c4.7-5.7,6.6-6.2,10.5-1.3c3.3,4.1,6.4,8.7,8.5,13.5
			c9.8,21.5,21.4,42.2,24.9,66.1c0.4,2.9,2.1,5.6,2.8,8.5c0.9,3.4,1.8,7,1.9,10.5c0.4,15.6,0.6,31.2,5.8,46.3
			c3.5,10.3,9,19.2,15.7,27.6c2.6,3.3,4.6,7,6.1,11c-9-1.5-10.7-10.7-17.4-15.8c-2.4,6.9,0.6,12.5,3.4,17.6c2.7,5,4.5,9.8,5.9,15.4
			c1.5,5.8,7,10.6,11.2,16.5c-11.5,11.3-13.8,29-22.8,43.1c-1.6,2.5-0.9,6.5-1.5,9.7c-1.2,7-5.2,10-13,8.9c6.1-6.3,2.1-12.1,0-18.1
			c-4.4-12.1-9.6-23.9-10.5-37.2c-0.7-10.4-8.5-25.1-14.1-30.5c-1.2,0.9-2.9,1.6-3.7,2.8c-10.3,15.2-20.7,30.2-22,49.5
			c-0.6,8.8-2.8,17.4-4.3,26.4C18.8,1595,18.8,1595-2,1602c0-1.3,0-2.7,0-4c5.3-16,6.1-32,0-48C-2,1520.7-2,1491.3-2,1462z"/>
		<path d="M-2,1858c7.3,7.3,14.8,4.9,22.6,0.8c12.4-6.5,23.6-14.5,32.9-25.1c3.4-3.9,7.6-7.5,12-10.2c5.6-3.4,9.7-1.6,10.8,5
			c0.7,4.3-0.3,9-1.3,13.4c-1.2,4.8-3.3,9.3-5,14c-4,3.9-7.3,8.3-9.1,15.4c6.2-6.8,6.2-6.8,9-15.5c5.1-7.6,12.4-10.5,21.3-10.5
			c9.3,0,18.6-0.8,27.8,0.2c9.2,1,10.3,3.3,7.7,12c-5,16.9-15,30.3-29.3,40.4c-8.4,5.9-17.4,11.1-25.8,17.1c-3.4,2.4-6.6,5.5-9,8.9
			c-10.6,14.8-23.7,26.9-39.7,35.6c-8.1,4.4-16.5,8.4-24.8,12.6c0-30,0-60,0-90c2.4-2.2,4.8-4.5,7.8-7.3c-3.6-1.3-5.7-2-7.8-2.7
			C-2,1867.3-2,1862.7-2,1858z"/>
		<path class="st0" d="M2404,2c-1.2,3-1.6,6.9-3.7,8.7c-4.4,3.7-8.5,7.2-10.3,12.9c-0.4,1.4-2.9,2.3-4.5,3.3c-0.2,0.2-0.6,0.1-1,0.1
			c-16,2.7-22-3.8-18-19.4c0.5-1.9,1-3.8,1.5-5.8C2380,2,2392,2,2404,2z"/>
		<path class="st0" d="M-2,930c5.4,3.8,11.2,7.1,16.2,11.4c7.2,6.3,8.5,14.7,6.2,23.7c-1.4,5.5-5.2,7-9.6,3.4
			C6.2,964.7,2.2,960.2-2,956C-2,947.3-2,938.7-2,930z"/>
		<path class="st0" d="M516,2c-0.1,6.2-0.1,12.5-0.2,18.7c0,4.2,0,8.3,0,14.3c-3.6-1.6-6.5-2-7.8-3.7c-6.7-8.6-9.7-18.6-10-29.4
			C504,2,510,2,516,2z"/>
		<path class="st0" d="M-2,1708c11.4-5.4,16-2,18.7,14.4C6.8,1723,3.8,1732.1-2,1738C-2,1728-2,1718-2,1708z"/>
		<path d="M-2,1550c6.1,16,5.3,32,0,48C-2,1582-2,1566-2,1550z"/>
		<path class="st0" d="M-2,836c1.1,3.3,2.1,6.7,3.3,10c1.5,4.3,0.3,7.5-3.3,10C-2,849.3-2,842.7-2,836z"/>
		<path class="st0" d="M-2,1872c2.1,0.7,4.2,1.5,7.8,2.7c-3,2.8-5.4,5-7.8,7.3C-2,1878.7-2,1875.3-2,1872z"/>
		<path d="M401.1,717.1c0.4-3.3,0.9-6.5,1.2-9.6c0.9-8.6,2.3-17.2,2.5-25.8c0.2-8.1,2.6-14.5,8.5-20.3
			c21.7-21.6,42.6-43.9,64.3-65.5c11.5-11.5,23.5-22.7,38.8-29.3c3.2-1.4,6.5-2.3,10.6-2.4c-9.5,14.1-10.6,31.9-23.2,43.9
			c-2.6,2.5-4.3,5.9-6.3,9c-18.3,28.4-40.6,53.3-66.4,75.1c-7.3,6.2-13.3,13.8-20,20.7C408.6,715.4,406.5,718.7,401.1,717.1z"/>
		<path d="M394.6,786.8c-2.8-1.9-4.8-3.2-7.5-5c-7.8,7.9-16,14.9-18.8,26.3c-0.8,3.2-2.3,6.2-3.9,9.1c-3.5,6.1-4.9,12.1-5,19.5
			c-0.1,9.1-6,17-14.2,23.4c-3.3-5.9-0.8-10.2,1.7-13.7c3.9-5.8,4.9-11.8,5.6-18.7c1.6-16.3,6.5-31.9,13.7-46.7
			c1.4-2.9,4.2-5,6.4-7.5c0.8-0.9,2-1.8,2.2-2.9c2.6-14.1,14.3-20.1,23.3-28.5c0.7,0.3,1.3,0.6,2,0.9c-1,4.9-1.9,9.8-3.2,14.6
			c-2.2,7.8-3.5,15.6-1.2,23.6C396.1,782.6,395.1,784.3,394.6,786.8z"/>
		<path d="M203.8,1738.1c-3.8-4.5-3.7-11.5,1.5-13.9c16.7-7.6,23.5-22.7,30.2-38c0.6-1.4,1.8-2.6,3-4.4c0.9,1.4,2,2.2,1.8,2.9
			c-1.4,7.6-3.4,15-0.1,22.9c1.2,2.9-1.6,5.7-5.9,6.3c-7.2,1.1-8.8,2.8-7.5,9.8c2.2,11.4,5.3,22.6,8.4,33.8c0.4,1.5,3,3.8,3.9,3.5
			c1.9-0.6,4-2.4,4.9-4.2c2.5-5.2-1.3-8.4-4.9-10.9c1.9-5.1,5.4-4.4,8.6-3.6c2.8,0.8,6.1,1.7,7.7,3.7c1.1,1.4,0.8,5.5-0.5,7.1
			c-4.3,5.5-8.8,10.3-10.4,17.7c-1.3,5.9-7.7,6.7-11.4,1.4c-5.7-8.3-12.8-16.1-14.4-26.7c-0.9-5.9-2.2-11.6-3.5-18
			c-6.5,1.7-9.9,5.3-11.8,10.7L203.8,1738.1z"/>
		<path d="M282.3,1806.3c-12.1-3.7-18.5-11.6-25.7-16.1c0.6-5.2,1.5-9.2,1.4-13.1c-0.1-8.7,1.9-16.3,10.3-22.5
			c0.3,3.1,0.4,5.2,0.8,7.3c0.7,3.5,0.5,8.1,2.7,10.3C280.6,1781.6,279.1,1793.5,282.3,1806.3z"/>
		<path d="M356.8,1341.4c-3.7-5.4-5.9-9.6-9-12.8c-3-2.9-7.1-4.6-11.9-7.6c0-6.5,0-13.7,0-21.6c5.6,3.8,10.6,7.2,15.7,10.7
			c-0.8,1.8-1.4,3.2-2.3,5.1C361.7,1320,363.2,1328.4,356.8,1341.4z"/>
		<path d="M367.6,1312.4c-3.4-2-6.5-3.5-9.3-5.4c-3.3-2.2-6.7-4.3-9.4-7.1c-2.1-2.2-1.5-6.5,1.4-6.2c4.7,0.6,9.4-2.5,12.8-1.1
			c3.6,1.5,6.3,6.3,8.3,10.2C373.4,1307.1,371.4,1310.6,367.6,1312.4z"/>
		<path d="M1650.3,135.5c13.7-4,25.6-7,38.9-3.9C1683.7,137.6,1668.5,139,1650.3,135.5z"/>
		<path d="M1536,126c6.8,2.2,13.6,4.4,22.3,7.1c-5,4.1-9,7.4-14.6,11.9c-0.7-8.6-12-10.1-7.5-19.2C1536.2,125.8,1536,126,1536,126z"
			/>
		<path d="M1649.2,94.1c-3.9,3.5-7,6.7-10.6,9.2c-1.2,0.9-4.8,0.6-5.2-0.2c-0.8-1.8-1.1-4.5-0.2-6.2
			C1635.6,92.1,1640.1,91.3,1649.2,94.1z"/>
		<path d="M1443.1,74.4c-3.7,2-7.4,4.2-11.3,5.7c-1.2,0.5-4.1-0.9-4.6-2.1c-0.5-1.3,0.3-4.2,1.5-5c4.4-3,9.2-2.5,13.9-1.1
			C1442.7,72.8,1442.9,73.6,1443.1,74.4z"/>
		<path d="M1391.7,90.5c3.6-9.5,6.6-11.1,15.9-9.6C1405.6,88.9,1398.4,87.2,1391.7,90.5z"/>
		<path d="M203.7,1738.3c2.4-0.7,4.9-1.5,7.6-2.3c-1.6,6.6-1.6,6.6-7.5,2.1C203.8,1738.1,203.7,1738.3,203.7,1738.3z"/>
		<path d="M336.2,1336.2c-1.3,0.9-2.2,1.8-2.7,1.7c-1-0.4-1.9-1.3-2.8-2.1c0.8-0.7,1.7-2,2.4-1.9
			C334,1334,334.9,1335.1,336.2,1336.2z"/>
		<path d="M1537.9,105c1.3-0.1,2.7-0.1,4-0.2c0.1,0.5,0.2,1,0.3,1.5c-1.3,0.3-2.7,0.6-4,0.9C1538.1,106.4,1538,105.7,1537.9,105z"/>
		<path d="M399.9,800.7c-1.7,1.4-3.3,2.7-5,4.1c-0.4-0.5-0.9-0.9-1.3-1.4c1.6-1.5,3.3-3.1,4.9-4.6C399,799.4,399.4,800,399.9,800.7z
			"/>
		<path d="M325,1301.7c-1.1,0.7-1.8,1.5-2.4,1.4c-0.7-0.1-1.2-1-1.8-1.6c0.6-0.5,1.2-1.5,1.9-1.5
			C323.2,1300,323.9,1300.9,325,1301.7z"/>
		<path d="M411.8,1278.4c-0.3-0.5-1-1-0.9-1.4c0.1-0.4,0.8-0.8,1.2-1.2c0.4,0.6,0.9,1.2,1.3,1.9
			C412.9,1278,412.3,1278.2,411.8,1278.4z"/>
		<path d="M298.5,1443.5c-0.5-0.4-0.9-0.7-1.4-1.1c0.4-0.4,0.8-1.1,1.2-1.1c0.5,0,0.9,0.6,1.4,1
			C299.3,1442.8,298.9,1443.1,298.5,1443.5z"/>
		<path d="M419.6,1292.1c-0.1-0.4-0.3-0.8-0.4-1.3c0-0.1,0.5-0.4,0.7-0.4c0.4,0.2,0.8,0.5,1.1,0.8
			C420.6,1291.6,420.1,1291.8,419.6,1292.1z"/>
		<path d="M408.1,1292.9c-0.2,0.1-0.5,0.4-0.7,0.4c-0.2,0-0.4-0.3-0.6-0.5c0.4-0.2,0.8-0.4,1.2-0.6
			C407.9,1292.3,408,1292.6,408.1,1292.9z"/>
		<path d="M195.3,1723.3c0.3-0.1,0.5-0.4,0.7-0.3c0.2,0.1,0.4,0.4,0.5,0.6c-0.4,0.2-0.8,0.4-1.2,0.6
			C195.3,1723.9,195.3,1723.6,195.3,1723.3z"/>
		<path d="M390.1,1412c-0.4-0.3-0.9-0.7-1.3-1c0.4-0.3,0.8-0.6,1.3-0.8c0.1-0.1,0.7,0.4,0.7,0.5
			C390.6,1411.1,390.3,1411.5,390.1,1412z"/>
		<path d="M262.4,1709.7c-0.1,0.3-0.1,0.6-0.2,0.9c-0.4-0.3-0.8-0.5-1.2-0.8c0.2-0.2,0.4-0.5,0.7-0.6
			C261.9,1709.2,262.2,1709.6,262.4,1709.7z"/>
		<path d="M267.7,1060.2c-0.6-0.6-1-0.9-1.4-1.2c0.4-0.4,0.8-1,1.2-1.1c0.5-0.1,1,0.3,1.5,0.5
			C268.6,1058.9,268.2,1059.5,267.7,1060.2z"/>
		<path d="M346.6,1343.8c-0.1-0.2-0.3-0.4-0.4-0.6c0.4-0.1,0.8-0.2,1.2-0.3c0,0.3,0.1,0.6,0,0.7
			C347.2,1343.8,346.9,1343.8,346.6,1343.8z"/>
		<path class="st0" d="M105.6,952.5c2.9,6.2,6,12.4,8.7,18.7c4,9.5,7.9,19,11.6,28.6c0.9,2.4,2.4,5.6,1.5,7.4
			c-6.3,13.6-4.8,28.1-5.4,42.3c-1.3,29.7,4.3,58.2,14.7,86c4.8,12.9,9.2,25.5,18.4,36.1c8.2,9.4,17,18.1,28.5,23
			c16.1,6.9,29.5,33.5,23.3,53.6c-0.5,1.5-1.3,2.9-2.5,5.4c-3.5-3.8-6.1-7.1-9.1-10c-5.2-5-8.6-5.4-13.9-0.6
			c-4.9,4.5-9.4,9.4-13.6,14.5c-7.6,9.2-15,18.7-22.5,28c-0.8,1-2,1.6-3.3,2.5c-10.8-6.3-18-15.9-25.6-25c-3-3.6-5.8-7.3-8.9-10.8
			c-5-5.8-9.6-11.4-12.5-18.9c-2.4-6.3-7.5-11.7-11.7-17.2c-4.1-5.3-6.6-11.2-9.1-17.5c-5-12.6-11.4-24.7-18-36.6
			c-2.8-5-5.3-9.5-5.7-15.5c-0.5-7.7-2.4-15.3-10.7-18.9l0.2,0.2c2.9-7.1,3.7-14-2.1-21.5c6,1.3,8.4,4.9,10.4,8.6
			c7.5,14.1,14.9,28.2,22.4,42.3c2,3.6,4.3,7.1,7.7,12.6c2.2-4.5,3.7-6.9,4.5-9.5c3.3-11.5,6.4-23.1,9.5-34.6
			c5.7-21.5,11.5-43,17-64.6c1.2-4.6,3.6-9.4,0.1-14.8c-2.6,0.7-5.1,1.8-7.6,1.9c-2.5,0.1-5.3-0.2-7.5-1.2
			c-5.1-2.3-9.9-5.3-14.9-7.8c-13-6.4-17.3-14.7-14.9-29.1c0.5-3.3,1.3-6.5,2.1-9.8c1.1-4.5,3.6-7.7,8.1-9.3
			c9.4-3.3,16.5-9.8,23.3-16.6c6.2-6.2,10.3-13.1,7.7-22.3L105.6,952.5z"/>
		<path class="st0" d="M261.9,734.2c3.3,6.4,6.7,12.8,9.9,19.3c1.4,2.8,2.5,5.8,3.8,8.7c0.7-0.2,1.4-0.5,2.2-0.7
			c-1.1-5.4-2.7-10.7-3.3-16.2c-1.5-14.9-7.5-28.1-14.3-41.3c-7-13.5-15.7-25.4-27.1-35.6c-11.1-9.9-11.4-12.2-5.3-25.6
			c0.7-1.5,1.7-2.8,2.8-4.4c2.1,0.7,3.9,1.3,5.9,2c0.3-1,0.9-2,0.7-2.8c-3-14-6.2-28-9.1-42c-0.6-3.2-1.3-7,0-9.7
			c2.2-4.8,0.8-8.2-2.9-11.7c3.4-4.9,6.8-9.4,9.6-14.1c1.1-1.7,1.7-4.4,1.2-6.3c-1.6-6.4-3-13.2-6-19c-9.8-19-11-40.2-16-60.4
			c-1-4-1.7-8.1-3.5-12c-10.7,28.2-7.6,57.2-4.5,85.6c3.1,28.5,13.2,55.5,24.2,82.4c-1.1-1.1-2.7-2.1-3.3-3.4
			c-9-18.3-15.2-37.6-20.5-57.3c-7.4-27.5-7.1-55.5-5.9-83.4c0.5-11.5,4.4-22.8,6.5-34.2c0.9-4.8,1.5-9.8,1.4-14.7
			c-0.5-17.6-1.3-35.3-1.9-52.9c-0.1-2.9,0.3-5.9,0.5-9.6c6.6,0.9,9,6.1,12.3,9.8c2.6,3,5.1,6.4,6.3,10c0.8,2.2-0.1,6.1-1.7,7.9
			c-2.4,2.7-5.5,0.9-7.8-1.4c-0.9-1-1.7-2.1-3.6-4.5c0,9.5-0.4,17.6,0.1,25.6c2,34.3,6.8,68.1,18.1,100.9
			c10,29.3,18.1,59.2,26.9,88.9c6.3,21.4,12.6,42.8,18.7,64.3c2.2,7.8,6.7,12.7,16.3,14.9c-1.7-5-3.1-9.1-4.5-13.2
			c0,0-0.1,0.1-0.1,0.1c2.2,1.4,4.9,2.5,6.4,4.4c3.6,4.7,6.5,9.9,9.8,14.8c3.3,5,0.3,9.4-0.7,15c-5.6-6.8-10.6-12.8-16.1-19.5
			c-2.6,3-4.2,4.8-6.4,7.3c-7.2-12.2-14.2-24-22.3-37.6c-1.1,3.7-2,5.2-1.9,6.6c1.2,15.9,5.3,30.8,15.3,43.7
			c7.9,10.3,15.4,20.9,23.6,31c4.6,5.6,6.4,11.3,4.7,18.4c-2,8.7-3.3,17.6-5,26.6c-3,0.6-5.4,1.1-9.1,1.8c0.8,4.4,1.5,8.4,2.4,13.8
			c6.4-2.3,11.6-4.2,16.9-6.1c0.3,0.6,0.5,1.2,0.8,1.8c-1.8,1.1-3.5,2.3-5.3,3.2c-27.1,13.5-43.2,34.6-45.3,65.4
			c-0.4,6.2-0.4,12.6-3.9,18.5c-8-1.1-11.1-8.2-17-13c-1,4.3,1.4,6.8,3.6,8.7c9.6,8.7,14.2,19.4,15.8,32.2
			c0.8,6.7,4.7,13.1,7.1,19.6c0.8,2.3,1.5,4.6,1.2,7.4c-9.3-12.5-13.1-28.3-25.8-39.4c-0.7,1.5-1.3,2.7-1.9,4
			c-0.4-0.5-1.2-0.9-1.2-1.4c-1-18.3-9.9-33.3-19.1-48.6c-7.5-12.4-13-26.3-17.4-40.2c-2.3-7.3-0.4-15.9-0.4-26
			c8,7.8,6,18.1,12.4,24.6c0.8-7.4-1.8-16-9.7-32.5c-2,1.4-3.9,2.8-6.3,4.6c-1.7-6.2-3.2-11.7-4.7-17.2c0.5-0.3,1-0.7,1.5-1
			c2,1.6,4,3.3,6.4,5.1c0.4-1.1,1.3-2,1-2.7c-3.1-9.1-6.3-18.2-9.8-28.2c2.3,0.4,3.9,0.7,6.5,1.2c3.4-9.8,7.6-19.4,5.1-30.5
			c-2.1-9.2-3.4-18.7-3.9-28.1c3.6,7,7.9,13.8,10.7,21.1c1.6,4.1,0.9,9.1,0.9,13.7c0,3.6-1.2,7.4-0.5,10.8
			c7.6,37.2,23.2,70,52.5,95.2c0.7,0.6,1.6,1.1,2.5,1.6c0.3,0.2,0.6,0.1,1.6,0.3c6.8-6.6,14-13.4,20.8-20.5
			c3.3-3.4,1.6-7.7,0.3-11.4c-5.1-14.8-10.5-29.5-15.6-44.2c-2.2-6.2-4-12.6-5.9-18.9C262.1,734.1,261.9,734.2,261.9,734.2z
			 M236.4,566.1c3.4,17,5.1,21,9.5,23.4C244.3,577.5,241.7,570.6,236.4,566.1z M253.1,615.7c-0.7,0.3-1.5,0.7-2.2,1
			c-0.2,3.4,0.8,6.2,6.2,9.1C255.3,621.1,254.2,618.4,253.1,615.7z M248.9,600.2c-0.3-0.5-0.5-1-0.8-1.4c-0.5,0.3-1.2,0.5-1.3,0.8
			c-0.1,0.4,0.4,0.9,0.7,1.4C248,600.7,248.4,600.4,248.9,600.2z"/>
		<path class="st0" d="M133.8,898.4c3.8,6.1,7.6,12.2,12.6,20.2c6.8-16.1,8.3-32.1,14.2-48.2c1.6,2.7,2.9,4,3.3,5.6
			c1.6,6.1,2.9,12.3,4.4,18.4c3.3,13.7,8.9,25.8,23,32.5c1.1-0.7,2.7-1.7,5.3-3.4c11.3,21.8,22.6,43.3,35,67.2
			c-1.4-9-2.4-15.9-3.4-22.8c0.5-0.2,1-0.3,1.4-0.5c1,3.8,2.1,7.5,3.1,11.3c1.1,4.2,2,8.4,3,12.6c1,4.2,2.1,8.4,2.9,12.6
			c1.5,8.5,6.1,14.5,14.1,18c4.1,1.8,6.9,4.2,3.5,9.1c-2.1-0.7-4.2-1.4-7.1-2.3c-1,5.5-1.9,10.3-2.8,15.1
			c-1.9,10.8-3.9,21.6-5.7,32.4c-2.8,16.9-2,33.8,0.8,50.6c1.9,11.5,3.2,23,0.7,34.8c-0.2-3.6-0.2-7.2-0.5-10.7
			c-0.3-4-0.9-7.9-1.5-11.9c-1.6-11.2-3-22.4-5.1-33.5c-1.1-5.8-3.2-11.5-5.5-17.1c-6.4-15.4-13.1-30.6-19.6-45.9
			c-1.1-2.7-1.3-5.8-1.9-8.7c1.4,0.8,2.8,1.5,5.4,3c-0.7-2.8-0.9-4.4-1.4-5.8c-3.8-9.2-7.4-18.5-11.5-27.5
			c-8.3-18.2-18.5-35.3-33.6-48.9c-1.7-1.5-4.6-1.7-6.9-2.5c-0.6,2.1-1.7,4.2-1.8,6.3c-0.2,2.3,0.3,4.6,0.8,6.9
			c1.9,8.1,3.9,16.1,5.9,24.1c0.1,0.6,0.8,1,1.6,1.8c1.9-0.4,4-0.9,6.7-1.5c1.9,2.7,3.8,5.4,5.6,8.1c-16.6,3.8-27.1,14.3-33.1,29.9
			l0.2,0.1c0.2-8.7,3.2-16.3,9.6-22.3c4.7-4.4,5.9-9.6,3.4-15.4c-3.1-7.4-2.5-16.4-9.7-22.1c-1.5-1.2-1.6-4.3-2.1-6.5
			c-4.5-21.1-8.8-42.2-13.3-63.3L133.8,898.4z M205.5,972.6c-0.8-5.3-1-10.8-6.7-15.7C198.9,964.3,199.5,969.6,205.5,972.6z"/>
		<path class="st0" d="M392.1,438.3c-7.5,12.6-10.3,26.6-12.5,40.8c-0.5,3.4-1.4,6.7-2.2,10c-1-0.1-1.9-0.2-2.9-0.2
			c-0.8-10.3-1.3-20.7-2.6-30.9c-1.3-10-3.5-20-5.5-30.9c-1.4,1.7-2.2,2.6-3.5,4.1c-6.8-14.2-0.8-31.7-11.4-44.7
			c-6.6,1.3-6.6,5.4-5.1,9.9c1.2,3.8,3,7.4,4.3,11.2c1.6,4.5,0.8,8-3.5,11.2c-5.7,4.3-10.7,9.8-17.5,14.3c2.1-9.5,4.3-19,6.4-28.5
			c-6.7,12-13.5,23.8-16.3,37.7c-2.8,13.8,2.6,26.8,3.2,41.2c-3-0.7-5-0.8-6.5-1.6c-6.3-3.5-11.6-1.7-16.2,3
			c-2.8,2.8-5.6,5.9-7.5,9.3c-11.1,21.1-20.3,42.8-18.3,67.5c0.2,2.6,0,5.2,0,8.2c-5.7-7.1-7.6-18.5-5.2-26.4
			c2.1-7,4.1-14.1,5.5-21.3c0.6-3.1,0.2-6.7-0.6-9.8c-5.5-21.9-6.7-44.1-5.8-66.5c0.5-12.4,4.1-24.3,9.2-35.6c0.6-1.4,2-2.4,4.6-2.9
			c-1.8,9.9-3.5,19.8-5.6,31.4c2,2.4,4.1,6.6,4.4,12.4c0.2,4.3,4.5,8.4,7,12.6c-3.3,4.8-1.4,9.3,0,13.7c0.8-0.1,1.5-0.2,2.3-0.2
			c-0.8-4.5-1.7-9.1-2.5-13.6c0.2-9.8,0.8-19.5,0.5-29.3c-0.1-4-0.8-7.8,2.6-10.9c3.2,5,6.2,9.7,9.3,14.5c-1,0.7-2,1.3-3,2
			c0.2,0.2,0.4,0.4,0.6,0.7c0.7-0.9,1.5-1.9,2.2-2.8c6.9,2.8,7,8.9,7.8,14.9c0.5,3.5-1,8.1,4.6,10.9c0.6-2.6,1.6-4.5,1.2-6
			c-2.2-8.6-4.6-17.3-7.3-25.8c-1.9-6-4.7-11.6-6.9-17.5c-2.2-5.9-3.1-12.2-8.8-16.3c-0.9-0.6-0.1-3.4-0.1-7.1
			c2.7,2.6,4.6,3.8,5.5,5.5c4.2,8.3,8.1,16.8,12.2,25.1c1.7,3.4,3.6,6.8,6.7,12.4c11.2-20.6,17.8-41.3,35.1-55.3
			c13.9,19.6,28.2,39.7,42.4,59.7C392.2,438.5,392.1,438.3,392.1,438.3z M298.6,453.1c0.5,0.2,1.1,0.4,1.6,0.6
			c0.6-1.8,1.3-3.6,1.9-5.5c-0.5-0.2-1-0.4-1.5-0.5C299.9,449.5,299.3,451.3,298.6,453.1z M302.3,469.8c0.4-0.7,1-1.2,0.9-1.5
			c-0.2-0.5-0.7-1.1-1.2-1.3c-0.3-0.1-0.8,0.4-1.3,0.6C301.2,468.3,301.7,469,302.3,469.8z"/>
		<path class="st0" d="M650.1,452.6c-0.9-3.6-1.4-5.5-1.8-7.4c-1.4-7.3-4.8-12.7-11.7-16.3c-6.9-3.5-7.4-6.6-2.9-12.6
			c2.4-3.1,5.7-5.5,8.4-8.4c2.9-3.1,6.8-6,8.2-9.7c4.7-12.8,13.3-23,20.3-34.2c1.2-2,2.9-3.9,3.3-6.1c2.4-12.9,11.1-22.5,17.2-33.5
			c0.8-1.5,2.8-2.5,4.1-3.6c1.1,0.8,2,1.1,2.1,1.5c1.2,24.8,2.4,49.6,3.5,74.5c0.4,8.6,0.6,17.2,0.8,25.8
			c0.2,6.7-4.7,13.9-11.4,14.4c-11.9,0.8-21.8,5.2-31,12.2C657.1,450.8,653.9,451.2,650.1,452.6z"/>
		<path class="st0" d="M404.5,174.9c-4.8-2.1-7.9-4.5-8.8-10c-3.7-23.2-7.7-46.4-6.7-70.1c0.1-1.3,0.4-2.8,0-4
			c-4-12.8-0.6-25.6,0.2-38.4c0.1-1.9,0.5-4,1.4-5.7c2.2-3.7,6.9-4,8.8-0.2c1.9,3.8,3.6,8,4,12.2c1.5,15.8,4.4,31.5,2.2,47.5
			c-0.5,3.5,1.1,7.2,1.5,10.8c0.7,6.6,1.1,13.1,1.7,19.7c0.3,3.3,0.7,6.6,1.4,9.8c1.8,8.4-0.5,16.4-2.6,24.4
			C407.2,172.3,405.7,173.4,404.5,174.9z"/>
		<path class="st0" d="M93.9,799.2c-1.2-4.7-2.2-9.4-3.7-14c-1.4-4.3-3.2-8.5-5.2-12.6c-3.9-8.1-8.7-15.7-2.2-25.1
			c1.7-2.4,0.4-7,0.1-10.5c-0.9-8.8,0.7-10.9,9.3-11.1c4-0.1,8-0.3,12-0.3c7-0.1,7.9,1.3,8,8c0.2,10.1-1.6,19.6-4.9,29.2
			c-3.2,9.4-4.8,19.3-7.2,28.9c-0.7,2.7-1.9,5.2-2.8,7.8C96.1,799.3,95,799.3,93.9,799.2z"/>
		<path class="st0" d="M133.9,1578c10.9-24.9,21.4-48.6,31.4-72.5c3.2-7.6,10.4-10.9,15.3-16.6c2.5-2.9,6.3-1.3,7.8,2.6
			c2.1,5.8,0.8,11.1-2.8,16c-3.7,5.1-7.5,10.2-11.2,15.3c-8.5,11.5-13.5,24.3-15.3,38.5c-1.5,11.5-4.9,14.5-16.4,16
			C140.2,1577.6,137.6,1577.7,133.9,1578z"/>
		<path class="st0" d="M382.9,510.4c0.1-11.1,18.1-35.7,36-48.9c2.4,1.7,4.9,3.6,8.1,6c0.9-2.4,2.2-4.4,2.2-6.4c0-7,0-14-0.9-20.9
			c-1.6-11.2-1.9-11.2,5.9-20.6c6.2,2.6,7.8,7.2,8.3,13.8c0.8,10.9,3.5,21.7,4.9,32.5c2.8,20.6-1.1,40.5-7.1,60
			c-0.8,2.7-2.5,5.2-4.5,7.7c7.5-21.5,11.1-43.2,7.4-65.7c-0.8-0.2-1.5-0.5-2.3-0.7c-2.8,5.7-5.5,11.5-8.8,18.2
			c-1.7-2.6-3-4.3-4-6.2c-5.5-10.6-10.9-11.7-18.6-2.2c-6.9,8.4-12.7,17.9-18.8,27C388.7,507,387.5,510.7,382.9,510.4z"/>
		<path class="st0" d="M207.2,1175.2c-2.7-14.4-5.5-28.7-8-43.1c-0.6-3.4-0.4-7-0.6-10.6c8.9,0.6,10.1,1.9,9.7,9.3
			c-0.5,9.1,0.4,10.7,8.5,14.5c-1.1,2.7-2.5,5.4-3.1,8.3c-0.5,2.5-1.1,5.9,0.1,7.7c4.1,6.2,9.1,11.7,12.9,18.2c2,3.3,5.8,3,8.3-0.4
			c1.6-2.1,2.8-4.4,5.1-6.4c-0.1,7.4-2.9,14.1-6.2,20.4c-1,1.9-5.2,2.5-8,2.8c-2.1,0.3-4.4-0.8-7-1.4c-1.7,5.7-3.3,10.9-4.9,16.3
			c-8.2-4.3-12.5-12.1-8.8-18c3.9-6.1,3.2-11.7,2.2-17.9C207.2,1174.9,207.2,1175.2,207.2,1175.2z"/>
		<path d="M178.9,997.8c-1.9-2.7-3.7-5.4-5.6-8.1c-2.6,0.6-4.8,1.1-6.7,1.5c-0.8-0.8-1.5-1.2-1.6-1.8c-2-8-4.1-16.1-5.9-24.1
			c-0.5-2.2-1-4.6-0.8-6.9c0.2-2.1,1.2-4.2,1.8-6.3c2.3,0.8,5.2,1,6.9,2.5c15.1,13.6,25.3,30.6,33.6,48.9
			c4.1,9.1,7.7,18.3,11.5,27.5c0.6,1.4,0.8,3,1.4,5.8c-2.6-1.4-4-2.2-5.4-3c0,0,0.2,0.2,0.2,0.2
			C202.2,1018.9,191.9,1007.3,178.9,997.8C178.9,997.9,178.9,997.8,178.9,997.8z"/>
		<path class="st0" d="M73.9,1268.3c2.6,3,5.3,5.8,7.7,9c9.3,12.7,18.3,25.5,31.7,34.3c5.9,3.9,12.4,7,18.6,10.4
			c-10.6,2.7-10.9,2.6-14.9,14.3c-3.2,9.2-8,18.2-7.6,28.9c-3-9-6.2-18-9.1-27.1c-3.9-12.4-7.6-24.8-11.2-37.2
			c-2.5-8.4-5.8-16.3-12-22.8c-2.8-2.9-3.9-6.1-3-10L73.9,1268.3z"/>
		<path class="st0" d="M169.7,855.4c-0.9,1-2.5,2.9-4.1,4.8c-0.8-0.3-1.6-0.6-2.3-1c-3.9-17.8-7.7-35.5-11.6-53.3
			c-0.5-2.3-1.1-4.5-1.5-6.8c-0.8-4-3.2-5.5-7.2-5.1c-3.9,0.4-7.9,0.7-13.3,1.1c1-4.8,1.6-8.9,2.6-12.9c2.6-10.3,5.2-20.6,8.2-30.7
			c1.1-3.7,2.9-7.5,5.3-10.3c3.5-4.1,7.9-7.4,12.6-11.6c-0.4,3.1-0.5,6.5-1.2,9.8c-4.2,21-5.4,42.3-3.1,63.6
			c1.4,12.8,4.7,25.5,7.9,38.1C163.1,845.4,166.4,849.3,169.7,855.4z"/>
		<path class="st0" d="M250.3,709.6c-2.4,0.6-4.8,1.2-7.7,1.9c2.5,8.4,11.9,14,6.1,23.2c3.7,3.3,7.1,6.4,10.6,9.6
			c-4.5,6.7-8.7,12.4-17.4,10.7c-8.6-21.3-17.2-42.4-25.9-64c4.7,1.5,7.1,4.5,8.7,9.1c1.4,3.9,3.8,7.3,6,11.3c2.9-1.4,4.7-2.2,6.4-3
			c4.3-2.1,5.8-5,3.5-9.7c-1.3-2.6-1.7-5.7-2.5-8.6c0,0-0.2,0.1-0.2,0.1c4.1,6.5,8.1,13.1,12.2,19.6L250.3,709.6z M233.1,719.8
			c1.6,0.8,2.6,1.5,3.6,1.6c0.3,0.1,1.3-1.5,1.1-2c-0.2-0.7-1.3-1.4-2-1.5C235.2,718,234.5,718.8,233.1,719.8z M240.7,730
			c0.2-0.1,0.5-0.3,0.7-0.4c-0.2-0.4-0.4-0.8-0.7-1.2c0,0-0.4,0.2-0.7,0.4C240.3,729.2,240.5,729.6,240.7,730z"/>
		<path class="st0" d="M129.3,1585.3c2.7-1.8,6.9-2.4,10.7,1.9c3.1,3.6,4.3,11.7,1.8,14.8c-11.2,13.9-22.6,27.7-34,41.4
			c-0.9,1.1-2.7,1.5-4.1,2.3c-4.2-4.3-1.6-7.8,0.2-11.1c6.2-11,12.7-21.7,18.7-32.7C125.1,1597.2,126.6,1592,129.3,1585.3z"/>
		<path class="st0" d="M1259.9,202.9c0,4,0.1,8,0,11.9c-0.2,3.4-0.8,7.4-4.9,7.6c-2.9,0.2-7-0.9-8.7-3c-2.8-3.4-5-7.8-5.9-12.2
			c-1.2-5.8-1.1-11.9-1.1-17.8c-0.1-7,3.6-11.3,9.4-11.9c5.1-0.5,9.5,3,10.8,9.5c1,5.2,0.9,10.5,1.2,15.8
			C1260.4,202.9,1260.2,202.9,1259.9,202.9z"/>
		<path class="st0" d="M155.6,1650.4c2.5,9.5,4.7,17.7,6.9,26c1.2,4.4-0.7,7.4-5.1,7.9c-14.7,1.7-28.2,7-41.9,12.2
			c-0.5,0.2-1.2-0.3-2.3-0.6c8.3-6.2,17.3-11.3,24.1-18.6C144.3,1670,148.9,1660.6,155.6,1650.4z"/>
		<path class="st0" d="M398.1,634.1c-4.4-2.9-8.5-1.6-11.9,1.5c-13.5,12.4-28.4,23.6-39.6,37.8c-11.2,14.2-18.2,31.6-20.3,50.3
			c-0.3,3,0.3,6.6-3.2,9C319,695.3,352,645.5,395.4,626c0.9,2.8,1.7,5.6,2.5,8.3C397.9,634.2,398.1,634.1,398.1,634.1z"/>
		<path class="st0" d="M39.8,1127.8c1.9,8,4.4,15.9-1.7,23.6c-1.4,1.8-0.5,5.8,0.1,8.6c3.3,13.5,6.9,26.9,10.3,40.3
			c1.4,5.7,2.4,11.6,3.5,17.4c0,0,0.1-0.1,0.1-0.1c-1.8-4.2-4.2-8.3-5.4-12.7c-5.8-21.1-10.8-42.5-17-63.5
			c-3.2-10.8-8.1-21-12.3-31.4c-1-2.6-2.4-5-2.7-8c6.6,6.2,11.7,13.3,15.1,21.5c2.1,4.9,5.1,6.7,10.1,4.4
			C40,1128,39.8,1127.8,39.8,1127.8z"/>
		<path class="st0" d="M238.1,690c-2-1.7-4.3-3.1-6-5.1c-8.9-10.3-17.6-20.9-26.7-31c-3.6-4-7.1-8.9-14.4-9c-0.5,3.9-1,7.4-1.5,10.9
			c-0.4,0.1-0.8,0.2-1.2,0.2c-2.2-12.3-4.5-24.5-7.1-38.9c3.2,2.3,5.2,3,5.9,4.4c11.2,22,30.1,38,44.3,57.6
			c2.5,3.4,4.3,7.4,6.5,11.1C238,690.2,238.1,690,238.1,690z"/>
		<path class="st0" d="M256.6,477.1c-18.3-41.7-19.4-83.6,1.6-126.9c1,9.6-1.4,17-4.2,24.2c-6.2,15.8-8.9,32.3-7.4,48.9
			c1.3,14.8,4.8,29.5,7.4,44.2C254.6,470.7,255.7,473.9,256.6,477.1z"/>
		<path class="st0" d="M567.9,304c0.5,2.7,1.2,4.5,1,6.3c-0.6,4.9-1.6,9.8-2.6,14.7c-0.9,4.6-5.5,8.8-9.5,8.9
			c-3.6,0.1-10.2-5.3-10.8-9.2c-0.2-1.5,0.1-3.6,1-4.6C553,314,559.2,308.1,567.9,304z"/>
		<path class="st0" d="M200.3,1384.3c1.9-7.5,2.8-15.6,6-22.5c3.1-6.6,8.7-12,12.7-19.2c-2.6,1.3-5.1,2.6-9.6,4.8
			c4.7-13.1,6.2-25.7,11.3-37.2c0.7,0.1,1.4,0.2,2.1,0.3c-0.5,5.1-0.6,10.3-1.5,15.4c-1.9,10.2-2.1,10.2,7.3,15.7
			c-5.9,6.5-12.8,12.3-17.3,19.5c-4.4,7.1-6.5,15.7-9.6,23.6C201.3,1384.6,200.8,1384.4,200.3,1384.3z"/>
		<path class="st0" d="M1270.2,130c-7.8,0-11.9-3.2-11.7-9.1c0.2-5.5,5.2-9.7,11.8-9.8c6.9-0.2,12.5,4.2,12.8,10
			C1283.4,126.8,1278.8,130,1270.2,130z"/>
		<path class="st0" d="M516,340.2c0-5.5,3.8-9.8,8.6-10.6c5.4-0.9,6.7,2.8,7.8,6.9c2.5,9.1,1.3,13.8-4.8,17.4
			c-3.5,2.1-6.5,1.7-8.1-2.3C518,347.6,517,343.3,516,340.2z"/>
		<path class="st0" d="M169.9,1594.3c-1.4,1-2.3,2.3-3.5,2.4c-8.9,0.9-10.4,7.1-10.4,14.2c0,5.3,0.6,10.6,1.1,15.8
			c0.4,5.5,1,10.9,0.9,16.4c-6-9.3-8.1-34.7-4.9-52.9C158.2,1593.4,165.6,1583.3,169.9,1594.3z"/>
		<path class="st0" d="M254.7,971.3c-5-6.4-9.6-12.3-14.6-18.7c1.5-0.4,2.4-0.7,3.3-0.9c0.6-0.2,1.3-0.3,2.1-0.4c0-1.9,0-3.7,0-7.3
			c5.3,4.5,10.7,7.5,13.9,12.1C263.1,961.6,259.3,966.6,254.7,971.3z"/>
		<path class="st0" d="M102.3,935.6c-1.3-3.7-2.9-7.4-3.7-11.2c-5.3-25-6.3-50,2.4-74.1c2.1,3.7,2.5,3.9,1.3,7.6
			c-7.2,21.6-4,43.3-1.3,65c0.5,4.3,0.8,8.6,1.2,12.9C102.1,935.8,102.3,935.6,102.3,935.6z"/>
		<path class="st0" d="M74,1268.1c-5.5-9.2-11.1-18.4-17.6-29.2c-2.3,8-4.2,15-6.2,22c1.4-14.4,6.3-28.6,2-43.3c0,0-0.1,0.1-0.1,0.1
			c3.7,8,7.5,16,11,24.1c3.8,8.7,7.2,17.5,10.8,26.3C73.9,1268.3,74,1268.1,74,1268.1z"/>
		<path class="st0" d="M333.4,1085c2.4-10.5,4.7-20.9,7.1-31.6C350.4,1059.5,348,1073.6,333.4,1085z"/>
		<path class="st0" d="M1434.9,128.2c3.9-4.2,5.7-7.3,8.4-8.7c2.1-1.1,6.7-1,7.8,0.5c1.7,2.1,2.1,6,1.7,8.9
			c-0.4,3.3-3.2,5.2-6.7,4.1C1442.9,131.9,1439.8,130.3,1434.9,128.2z"/>
		<path class="st0" d="M321.4,821.2c-11.2-11.7-9.3-20.2,5.9-29C325.3,802.1,323.5,811.2,321.4,821.2z"/>
		<path class="st0" d="M228.7,763.3c-6-4.2-15.5-21.3-17.9-32.3C219.7,736.9,228.8,753.4,228.7,763.3z"/>
		<path class="st0" d="M143.4,1625.2c-10.3,14.1-20.4,28-31.3,42.9C113.6,1657,132.5,1631.7,143.4,1625.2z"/>
		<path class="st0" d="M1254.7,131.8c7.1,0.2,11.2,3.1,11.1,6.3c-0.1,2.9-4.2,5.3-8.6,5c-4.4-0.2-8.6-3.3-7.5-6.2
			C1250.6,134.5,1253.6,132.9,1254.7,131.8z"/>
		<path class="st0" d="M97.9,1703.5c-9.6,8-16.2,15.9-25.3,21.1c2.4-9.9,14.9-13,14.6-25.1C90.5,1700.8,93.1,1701.8,97.9,1703.5z"/>
		<path class="st0" d="M168.2,1322c5.1,1.5,10.2,2.9,15.2,4.4c4.2,1.3,8.1,2.9,8.8,8.5c-3.2,2.8-6.7,3-9.7,0.5
			c-5-4.2-9.5-9-14.2-13.5L168.2,1322z"/>
		<path class="st0" d="M195.2,1089.3c3.7,7.3,5.7,14.8,4.7,24.2C193.8,1106.2,192.4,1098.6,195.2,1089.3z"/>
		<path class="st0" d="M1282.2,147.3c4.5,8,4.5,8,3,14.2C1276.6,158.9,1275.7,155.4,1282.2,147.3z"/>
		<path class="st0" d="M178.9,997.9c13,9.4,23.3,21,29.2,36.2C198.3,1022.1,188.6,1010,178.9,997.9z"/>
		<path class="st0" d="M250.1,709.8c3.9,8.1,7.9,16.3,11.8,24.4c0,0,0.1-0.1,0.1-0.1c-9.5-5.4-10.9-14.8-11.8-24.4
			C250.3,709.6,250.1,709.8,250.1,709.8z"/>
		<path class="st0" d="M194.4,1410.3c1.4,6.9-1.1,14.5,6.8,18.1C190.3,1424.3,188.7,1420.2,194.4,1410.3z"/>
		<path class="st0" d="M332,793.6c2.1,7.2,3.2,14.3-4.2,19.5C329.2,806.6,330.6,800.1,332,793.6z"/>
		<path class="st0" d="M148,1437.9c-0.5,3-1,6-1.5,9c-0.8,0.1-1.5,0.2-2.3,0.4c-2.2-3.3-4.3-6.5-7.6-11.5c5.3,1.1,8.4,1.7,11.6,2.3
			L148,1437.9z"/>
		<path class="st0" d="M148.2,1438.1c-1.4-3.3-2.8-6.6-4.2-9.9l-0.1,0.1c4,1.7,8,3.5,12.4,5.3c-1,4.8-4.7,4.4-8.2,4.2
			C148,1437.9,148.2,1438.1,148.2,1438.1z"/>
		<path class="st0" d="M232,930.1c3.4,2,6.8,4,10.4,6C235.8,939.8,235,939.3,232,930.1z"/>
		<path class="st0" d="M430.5,123.7c1.6,4.4-0.2,6-3.1,6.7c-0.8,0.2-2.1-0.4-2.5-1c-0.4-0.6-0.4-2.3,0.1-2.7
			C426.6,125.6,428.5,124.8,430.5,123.7z"/>
		<path class="st0" d="M218.2,931.7c-3.8-7.5-7.6-15-11.4-22.5c6.8,6.2,9.3,14.3,11.3,22.6L218.2,931.7z"/>
		<path class="st0" d="M432.4,544.7c-3,5.3-6,10.5-9,15.8c-0.6-0.3-1.2-0.6-1.7-0.9c2.9-5.3,5.7-10.6,8.6-15.9
			C431,544,431.7,544.3,432.4,544.7z"/>
		<path class="st0" d="M196,1587.4c-3.1-4.6-1.5-7.3,2.6-10.5C200,1581.4,200.1,1584.6,196,1587.4z"/>
		<path class="st0" d="M365.2,467.1c-1.3-3.6-3.6-7.1-0.6-11.7C367.8,459.8,367.8,463.4,365.2,467.1z"/>
		<path class="st0" d="M245.9,1321.5c3.2-1.9,6.5-3.8,9.7-5.6c0.4,0.6,0.9,1.3,1.3,1.9c-3.1,2.1-6.2,4.3-9.3,6.4
			C247,1323.3,246.5,1322.4,245.9,1321.5z"/>
		<path class="st0" d="M419.5,109.5c1.9-1.3,3-2.6,3.8-2.4c1.3,0.3,2.4,1.5,3.6,2.3c-0.8,0.8-1.7,2.4-2.5,2.4
			C423.1,111.7,421.8,110.7,419.5,109.5z"/>
		<path class="st0" d="M43.3,1672.8c-1.2-2.2-2.7-3.6-2.5-4.7c0.3-1,2.3-1.9,3.6-2.1c0.6-0.1,2.2,1.9,2,2.7
			C46.2,1670,44.8,1671,43.3,1672.8z"/>
		<path class="st0" d="M290.5,910.2c-1.2,1.6-2.3,3.3-3.6,4.8c-0.1,0.1-1.5-0.8-2.3-1.2c1-1.8,2.1-3.7,3.1-5.5
			C288.7,908.9,289.6,909.5,290.5,910.2z"/>
		<path class="st0" d="M133.9,1537.6c-1-1.4-1.7-2.3-2.5-3.2c1.2-0.7,2.3-1.7,3.6-1.9c0.5-0.1,1.9,1.8,1.8,2.6
			C136.7,1535.9,135.3,1536.6,133.9,1537.6z"/>
		<path class="st0" d="M572.5,426c-0.5-1-1.6-2.1-1.5-3c0.2-1,1.5-1.7,2.4-2.5c0.8,1.1,2.1,2.1,2.4,3.3c0.3,1.1-0.6,2.5-0.9,3.8
			C574.1,427.1,573.3,426.6,572.5,426z"/>
		<path class="st0" d="M207.2,1175.2c0,0,0-0.3,0-0.3c-3.3,0.8-6.7,2.5-10.4-1.2C201.4,1171,204.3,1173.5,207.2,1175.2z"/>
		<path class="st0" d="M212.9,875.5c0.7,1.5,1.3,3.1,2,4.6c-0.5,0.3-1,0.6-1.5,0.9c-0.9-1.4-1.8-2.9-2.7-4.3
			C211.5,876.2,212.2,875.9,212.9,875.5z"/>
		<path class="st0" d="M87.2,1626.8c-1.6,1.9-3.2,3.8-5.8,6.9c-0.9-5.7,1-7.5,3.9-8.6C85.9,1625.7,86.5,1626.3,87.2,1626.8z"/>
		<path class="st0" d="M354.9,1254.6c-1.7,0.4-2.8,0.9-3.8,0.8c-0.5-0.1-0.9-1.3-1.4-2c1-0.5,2.1-1.2,3.2-1.3
			C353.3,1252.1,353.9,1253.3,354.9,1254.6z"/>
		<path class="st0" d="M184.3,870.8c-1.3-1.8-2.6-3.6-4-5.4c0.4-0.3,0.8-0.6,1.2-0.9c1.5,1.8,3,3.5,4.4,5.3
			C185.4,870.1,184.8,870.5,184.3,870.8z"/>
		<path class="st0" d="M181,1455.4c0.8-2.8,1.4-4.9,2.5-8.5C185.3,1451.3,184.6,1453.4,181,1455.4z"/>
		<path class="st0" d="M143.5,1471.5c0.4-1.5,0.8-3.1,1.1-4.6c0.6,0.1,1.1,0.2,1.7,0.2c-0.1,1.6-0.3,3.3-0.4,4.9
			C145.2,1471.9,144.4,1471.7,143.5,1471.5z"/>
		<path class="st0" d="M198.5,892.5c-1.6-2.6-3.2-5.3-4.8-7.9c0.4-0.3,0.8-0.6,1.3-0.8c1.7,2.5,3.4,4.9,5.1,7.4
			C199.5,891.6,199,892,198.5,892.5z"/>
		<path class="st0" d="M39.5,1627.5c-1.2-3.1-2.5-6.1-3.7-9.2c0.5-0.2,1-0.4,1.5-0.6c1.2,3.1,2.4,6.2,3.6,9.2
			C40.5,1627.1,40,1627.3,39.5,1627.5z"/>
		<path class="st0" d="M430.8,162.2c0.3-1.5,0.6-3,0.8-4.5c0.5,0,1,0.1,1.5,0.1c0,1.6,0,3.2,0,4.8
			C432.4,162.4,431.6,162.3,430.8,162.2z"/>
		<path class="st0" d="M179,1635.4c-0.7-1.1-1.6-1.9-1.5-2.5c0.1-0.7,1.2-1.3,1.8-1.9c0.5,0.7,1.5,1.3,1.5,2
			C180.8,1633.7,179.8,1634.4,179,1635.4z"/>
		<path class="st0" d="M45.5,1279.6c-0.4,1.8-0.9,3.6-1.3,5.3c-0.4,0-0.8,0-1.2,0c-0.1-0.9-0.4-1.9-0.3-2.8c0.2-1.1,0.9-2.2,1.3-3.3
			C44.6,1279.1,45.1,1279.3,45.5,1279.6z"/>
		<path class="st0" d="M105.8,952.4c-1.2-5.6-2.3-11.2-3.5-16.7c0,0-0.1,0.1-0.1,0.1c1.2,5.6,2.3,11.2,3.5,16.7
			C105.6,952.5,105.8,952.4,105.8,952.4z"/>
		<path class="st0" d="M181.8,738.7c-0.3-1.4-0.8-2.4-0.5-3c0.3-0.7,1.3-1,2-1.5c0.3,0.8,1,1.7,0.8,2.4
			C183.9,737.3,182.9,737.8,181.8,738.7z"/>
		<path class="st0" d="M368.1,555.2c0.7,2.1,1.3,4.1,2,6.2c-0.4,0.1-0.7,0.2-1.1,0.4c-0.7-2-1.4-4.1-2.1-6.1
			C367.3,555.5,367.7,555.3,368.1,555.2z"/>
		<path class="st0" d="M365.4,479.9c-0.2-1.5-0.4-3-0.7-4.5c0.6-0.1,1.1-0.2,1.7-0.2c0.2,1.5,0.5,3,0.7,4.5
			C366.5,479.8,365.9,479.9,365.4,479.9z"/>
		<path class="st0" d="M228.4,1294.2c-0.6-0.5-1-0.9-1.4-1.2c0.7-0.5,1.4-1.2,2.2-1.5c0.2-0.1,0.8,0.7,1.2,1
			C229.7,1293.1,229,1293.6,228.4,1294.2z"/>
		<path class="st0" d="M191.9,1631.7c-0.4-0.7-0.9-1.4-1.1-2.2c0-0.1,1.2-0.9,1.4-0.8c0.6,0.5,1.1,1.3,1.6,1.9
			C193.3,1630.9,192.8,1631.2,191.9,1631.7z"/>
		<path class="st0" d="M253.9,1004.4c-0.7-1.4-1.4-2.2-1.3-2.9c0.1-0.8,1.1-1.4,1.6-2c0.5,0.7,1.3,1.5,1.3,2.2
			C255.5,1002.4,254.7,1003.1,253.9,1004.4z"/>
		<path class="st0" d="M57.1,1794.5c1.2-0.8,2.3-1.7,3.5-2.5c0.3,0.4,0.6,0.8,0.9,1.1c-1.1,1-2.2,1.9-3.3,2.9
			C57.8,1795.6,57.5,1795,57.1,1794.5z"/>
		<path class="st0" d="M135.3,1509.2c-0.2,1.2-0.5,2.4-0.7,3.5c-0.5-0.1-1-0.2-1.4-0.3c0.3-1.2,0.6-2.3,0.9-3.5
			C134.5,1509,134.9,1509.1,135.3,1509.2z"/>
		<path class="st0" d="M168.3,1321.8c-2.9-0.7-5.9-1.5-8.8-2.2c0.3-0.6,0.5-1.2,0.8-1.8c2.6,1.4,5.3,2.8,7.9,4.2
			C168.2,1322,168.3,1321.8,168.3,1321.8z"/>
		<path class="st0" d="M46.3,1637.4c-0.3,0.4-0.6,0.9-0.9,1.3c0,0-0.7-0.3-0.7-0.5c-0.1-0.5,0.1-1.1,0.1-1.6
			C45.3,1636.8,45.8,1637.1,46.3,1637.4z"/>
		<path class="st0" d="M144.8,1044.2c-0.3,1-0.7,2-1,3.1c-0.3-0.1-0.8-0.2-0.8-0.3c0.1-1,0.3-2.1,0.4-3.1
			C143.9,1044,144.4,1044.1,144.8,1044.2z"/>
		<path class="st0" d="M364.2,441.1c0.1,0.5,0.2,1,0.3,1.5c0,0.1-0.5,0.2-0.8,0.2c-0.1-0.5-0.2-1-0.3-1.5
			C363.4,441.3,363.9,441.2,364.2,441.1z"/>
		<path class="st0" d="M375.3,578.4c0.1,1.5,0.2,3,0.3,4.5c-0.4,0-0.8,0.1-1.1,0.1c-0.3-1.4-0.5-2.9-0.8-4.3
			C374.2,578.6,374.7,578.5,375.3,578.4z"/>
		<path class="st0" d="M1371.4,131.3c0.3,0,0.6,0,0.9,0c-0.2,0.4-0.4,0.9-0.6,1.3c-0.2-0.2-0.6-0.3-0.7-0.5
			C1371,131.8,1371.2,131.5,1371.4,131.3z"/>
		<path class="st0" d="M331.6,627c-0.3-0.4-0.9-0.8-1-1.3c-0.1-0.3,0.6-0.7,0.9-1c0.2,0.3,0.5,0.5,0.5,0.8
			C332,626,331.8,626.5,331.6,627z"/>
		<path class="st0" d="M222.3,899.4c-0.2-0.5-0.4-1-0.6-1.6c0.5-0.1,0.9-0.3,1.4-0.3c0.1,0,0.4,0.6,0.3,0.8
			C223,898.7,222.6,899,222.3,899.4z"/>
		<path class="st0" d="M118.3,1390.8c0.2-0.2,0.4-0.5,0.7-0.5c0.3,0,0.5,0.3,0.8,0.5c-0.4,0.3-0.7,0.6-1.1,0.9
			C118.5,1391.4,118.4,1391.1,118.3,1390.8z"/>
		<path class="st0" d="M134,898.2c-1-1.7-2-3.4-3-5.1c0.4-0.2,0.9-0.4,1.3-0.6c0.5,1.9,1,3.9,1.5,5.8
			C133.8,898.4,134,898.2,134,898.2z"/>
		<path class="st0" d="M377.4,595.4c0,1.1,0,2.3,0,3.4c-0.3,0-0.5,0-0.8,0c-0.1-1.1-0.2-2.1-0.3-3.2
			C376.7,595.6,377,595.5,377.4,595.4z"/>
		<path class="st0" d="M18.3,1652.2c-0.2,0.2-0.3,0.5-0.5,0.5c-0.2,0-0.4-0.2-0.6-0.3c0.3-0.3,0.6-0.6,0.8-0.9
			C18.1,1651.7,18.2,1651.9,18.3,1652.2z"/>
		<path class="st0" d="M7.8,1637.9c0.1-0.5,0.2-1,0.4-1.5c0.5,0.2,1,0.4,1.4,0.7c0.1,0.1-0.1,0.7-0.2,0.8
			C8.8,1637.9,8.3,1637.9,7.8,1637.9z"/>
		<path class="st0" d="M287.9,678.2c-0.9-1.8-1.9-3.6-2.8-5.3c0.4-0.1,0.9-0.3,1.3-0.4c0.5,2,0.9,3.9,1.4,5.9
			C287.8,678.4,287.9,678.2,287.9,678.2z"/>
		<path class="st0" d="M254.6,1054.5c-0.5-1.5-1-2.9-1.5-4.4c0.4-0.1,0.9-0.2,1.3-0.2c0,1.5,0,3,0,4.5
			C254.5,1054.4,254.6,1054.5,254.6,1054.5z"/>
		<path class="st0" d="M70.1,1647.5c-0.3-0.1-0.5-0.1-0.8-0.2c0.1-0.3,0-0.6,0.2-0.7c0.2-0.1,0.5,0.1,0.8,0.1
			C70.2,1646.9,70.1,1647.2,70.1,1647.5z"/>
		<path class="st0" d="M72.4,1232.6c0.2-0.2,0.4-0.5,0.6-0.5c0.3,0,0.5,0.3,0.8,0.4c-0.3,0.3-0.7,0.6-1,0.9
			C72.7,1233.1,72.5,1232.9,72.4,1232.6z"/>
		<path class="st0" d="M218,931.8c0.8,1.2,1.6,2.4,2.4,3.6c-0.4,0.2-0.8,0.4-1.2,0.5c-0.4-1.4-0.7-2.9-1.1-4.3
			C218.2,931.7,218,931.8,218,931.8z"/>
		<path class="st0" d="M333.9,1260.7c-0.1,0.2-0.3,0.4-0.4,0.7c-0.3-0.3-0.5-0.6-0.8-1c0.2-0.1,0.5-0.3,0.7-0.3
			C333.6,1260.2,333.7,1260.5,333.9,1260.7z"/>
		<path class="st0" d="M144,1428.2c-0.9-1.2-1.8-2.4-2.6-3.6c0.4-0.2,0.8-0.4,1.1-0.6c0.5,1.4,0.9,2.9,1.4,4.3
			C143.8,1428.3,144,1428.2,144,1428.2z"/>
		<path class="st0" d="M145.8,1027.7c0,1.8,0,3.6,0,5.4c-0.6-0.1-1.1-0.2-1.7-0.4c0.6-1.6,1.3-3.3,1.9-4.9
			C146,1027.9,145.8,1027.7,145.8,1027.7z"/>
		<path class="st0" d="M181.4,753.6c0.2-0.1,0.5-0.4,0.7-0.4c0.2,0.1,0.4,0.4,0.6,0.6c-0.4,0.2-0.7,0.4-1.1,0.6
			C181.5,754.1,181.5,753.9,181.4,753.6z"/>
		<path class="st0" d="M2377.3,54.2c0.1,6.4-5.5,10.8-9.6,7.9c-8.2-5.8-16-6.8-24.6-1.6c-0.3,0.2-0.6,0.2-1,0.2
			c-4.3,0-9.6,0.8-11.4-4c-1.8-4.8,2.1-8.1,5.9-10.4c2.7-1.7,6-2.6,9.1-3.6c3.1-1,6.4-1.5,9.5-2.5c7.1-2.5,10.2-1.9,14.8,3.9
			C2372.8,47.7,2375.4,51.5,2377.3,54.2z"/>
		<path d="M68.8,1392.4c-0.5,3.2-2.1,6.6-1.5,9.6c2.5,12,5.9,23.8,8.7,35.8c3.6,15.4,9.8,30.1,11,46.3c0.4,4.8,4.6,9.2,7.5,14.7
			c-7.4,0.3-13.7-1-19.2-5.5c-24.6-20.7-43.3-45.3-49.1-77.6c-3.6-20.3-0.9-40.4,7.8-59.3c4-8.7,8.1-17.5,12.1-26.2
			c0,0-0.2,0.2-0.2,0.2c5.4-1.8,8.4,1.8,10.5,5.5c5.9,10.8,11.5,21.7,16.9,32.7c14,28.1,15.8,58.7,16.8,89.7
			c-0.8-3.5-1.6-7-2.4-10.4c-0.8-3.6-2-7.1-2.4-10.7c-1-9.9-7.5-18.5-6.6-29c0.2-2.1-2.4-4.6-3.8-6.7c-2-3-4.2-5.9-6.4-8.9
			c-2.2-21.6-2.2-21.6-6.7-25.1C62,1376.6,59.7,1385.9,68.8,1392.4z"/>
		<path class="st0" d="M69.9,1855.7c-2.8,8.7-2.8,8.7-9,15.5c1.9-7.1,5.1-11.5,9.1-15.4C70,1855.8,69.9,1855.7,69.9,1855.7z"/>
		<path d="M236.4,566.1c5.3,4.5,7.9,11.3,9.5,23.4C241.5,587.1,239.9,583.1,236.4,566.1z"/>
		<path d="M253.1,615.7c1.1,2.7,2.1,5.4,4,10.2c-5.4-2.9-6.4-5.7-6.2-9.1C251.7,616.4,252.4,616.1,253.1,615.7z"/>
		<path d="M248.9,600.2c-0.5,0.3-0.9,0.5-1.4,0.8c-0.3-0.5-0.8-1-0.7-1.4c0-0.3,0.8-0.5,1.3-0.8
			C248.4,599.2,248.6,599.7,248.9,600.2z"/>
		<path d="M205.5,972.6c-6-3-6.6-8.3-6.7-15.7C204.5,961.8,204.7,967.3,205.5,972.6z"/>
		<path d="M287.7,463.7c0.8,4.5,1.7,9.1,2.5,13.6c-0.8,0.1-1.5,0.2-2.3,0.2c-1.4-4.5-3.3-8.9,0-13.7
			C287.9,463.8,287.7,463.7,287.7,463.7z"/>
		<path d="M298.6,453.1c0.7-1.8,1.3-3.6,2-5.4c0.5,0.2,1,0.4,1.5,0.5c-0.6,1.8-1.3,3.6-1.9,5.5C299.7,453.5,299.2,453.3,298.6,453.1
			z"/>
		<path d="M302.3,469.8c-0.6-0.8-1.1-1.5-1.6-2.2c0.4-0.2,1-0.8,1.3-0.6c0.5,0.2,1,0.8,1.2,1.3C303.2,468.6,302.7,469.1,302.3,469.8
			z"/>
		<path d="M300,437.9c-0.7,0.9-1.5,1.9-2.2,2.8c-0.2-0.2-0.4-0.4-0.6-0.7c1-0.7,2-1.3,3-2C300.1,438,300,437.9,300,437.9z"/>
		<path d="M233.1,719.8c1.4-1,2.1-1.9,2.7-1.8c0.7,0.1,1.8,0.8,2,1.5c0.2,0.5-0.8,2-1.1,2C235.7,721.3,234.7,720.6,233.1,719.8z"/>
		<path d="M240.7,730c-0.2-0.4-0.4-0.8-0.7-1.2c0.2-0.1,0.7-0.4,0.7-0.4c0.3,0.4,0.5,0.8,0.7,1.2C241.2,729.8,241,729.9,240.7,730z"
			/>
		<path class="st0" d="M68.8,1392.4c-9.1-6.5-6.8-15.8-6.9-25.2c4.5,3.5,4.5,3.5,6.7,25.1C68.6,1392.3,68.8,1392.4,68.8,1392.4z"/>
	</g>
</g>
</svg>
