<?xml version="1.0" encoding="utf-8"?>
<!-- Generator: Adobe Illustrator 19.1.0, SVG Export Plug-In . SVG Version: 6.00 Build 0)  -->
<svg version="1.1" id="Layer_1" xmlns="http://www.w3.org/2000/svg" xmlns:xlink="http://www.w3.org/1999/xlink" x="0px" y="0px"
	 viewBox="0 0 2448 3264" style="enable-background:new 0 0 2448 3264;" xml:space="preserve">
<style type="text/css">
	.st0{fill:#FFFFFF;}
</style>
<g>
	<g>
		<path class="st0" d="M268,3266c-8,0-16,0-24,0c2.8-4,5-8.7,8.6-11.9c13.8-12.5,27.9-24.6,42-36.8c15.3-13.3,30.7-26.4,46-39.7
			c0.8-0.7,0.9-2.1,2.1-5.1c-36.6,18.4-63.7,46.5-95.1,70.3c-3-4.3-5.3-7.7-8.2-11.8c-3.8,11.8-7.6,23.4-11.3,35c-16,0-32,0-48,0
			c17.7-13.9,32.4-30.5,45.7-48.6c2.4-3.2,4.6-6.6,7.4-9.4c1.7-1.6,4.8-3.3,6.6-2.8c1.6,0.5,2.6,3.8,3.4,6.1
			c0.8,2.1,0.9,4.5,1.6,8.6c3.9-7.3,7.1-12.4,9.4-17.8c3-7,8.1-11,15-13.6c7.5-2.8,14.9-5.7,22.1-9.2c33.3-16.4,60.8-40.5,86.4-66.9
			c4.6-4.7,8-10.7,11.2-16.5c2.9-5.2,0-9.1-6-8.8c-1.9,0.1-3.9,0.8-5.7,1.7c-14.5,6.7-29,13.4-43.4,20.2c-5.1,2.4-9.9,5.5-14.9,8.2
			c-3.3,1.8-6.8,3.5-10,0.1c-2.8-3-1.3-6.2,0.3-9.2c0.5-0.9,1-1.7,1.5-2.6c9.3-15.8,18.8-31.4,27.8-47.4c6.8-12,16.4-16.8,29.9-14.6
			c19.4,3.2,38.5,1.5,57.3-3.8c12.8-3.6,25.7-6,37.7-12.5c16.2-8.6,31.5-18.4,46.4-29c21.3-15.1,40.9-31.9,53.7-55.2
			c1-1.7,2.2-3.4,3.5-4.8c12.9-14.3,18.7-32.8,28.7-48.8c6-9.7,3.5-13.7-7.1-18.3c-5.2-2.3-9.8-0.6-14.3,1.6c-3,1.5-5.7,3.5-8.7,4.9
			c-9.1,4.5-18.9,2.6-25.7-5.2c-4.7-5.4-10.2-8.3-17.5-7.7c-3.3,0.3-6.7,0.2-10-0.2c-5.9-0.7-8.3-4.8-5-9.7c2.3-3.5,5.8-6.3,9-9.1
			c2.7-2.4,6.7-3.8,8.7-6.6c5.4-7.5,13.4-9.5,21.4-11.7c2.7-0.7,6.2-0.8,8.7,0.3c13.6,5.9,28.3,6.7,42.5,10c5,1.2,10.6-0.7,15.8,0.1
			c10,1.4,18.3-1.7,26.1-7.5c3.5-2.6,6.9-5.3,10.7-7.2c15.6-7.7,31.4-15.2,47-22.6c0.9-5.4,1.8-11,3-18c-4.2-8.5-4.6-9-7.6-8.6
			c-0.8,2.1-1.7,4.4-3,7.6c-4.7-6.4-8.9-11.7-12.5-17.5c-1-1.6-0.4-4.6,0.3-6.7c2.5-7.6,5.3-15,8.3-23.3c-3.7-6.3-4.7-12.9,4.4-17.4
			c1.1-0.6,1.8-3.4,1.5-5c-0.2-1-2.6-2.5-3.8-2.3c-6.8,0.9-13.5,2.4-20.2,3.5c-10.9,1.9-21.4,4.6-30.3,11.7
			c-1.4,1.1-3.8,1.1-5.8,1.3c-6.4,0.8-11.5,3.3-14,9.6c-1.7,4.3-5.1,5.9-9.4,6.3c-2.6,0.3-5.3,0.9-7.9,1.1
			c-12.6,1.4-19.7-8.1-14.4-19.7c2.2-4.7,6-8.7,8.9-13.1c0.7-1,0.9-2.4,1.5-4c-2.3-1.6-4.3-3-5.7-3.9c0-3.2,0.5-5.8-0.1-8.2
			c-0.6-2.3-2.2-4.3-3.4-6.4c7.6-5.8,9.2,4.2,15.4,3.8c1.7-3.6,3.7-7.6,6.1-12.7c-3.2,0.4-5.9,1.4-6.8,0.6
			c-6.2-6.1-14.7-3.1-21.7-5.8c-4.1-1.6-7.5,0.2-8.7,4.3c-1.7,5.8-5,9.9-10.4,12.6c-1.2,0.6-2.7,2.7-2.5,4
			c0.9,7.2-3.5,11.4-7.6,16.3c-5.2,6.4-8.6,14.3-14.1,20.4c-14.9,16.4-27.6,34.6-43.5,50.2c-2.6,2.5-4.6,5.7-6.7,8.7
			c-5,7-10.3,13.9-14.8,21.3c-9.4,15.3-18.5,30.7-27.6,46.2c-0.5,0.8-0.1,2.2-0.1,5.2c5.8-4.8,11-8.1,14.6-12.6
			c5.7-7.1,14.2-9.8,20.7-15.2c6.7-5.5,10.5-14.4,16.3-21c9-10.2,19.2-19.3,27.9-29.8c6.4-7.7,14.3-7.7,22.6-7.2
			c1.6,0.1,4.4,3,4.3,4.4c-0.5,7.7,1.3,15.8-5.7,22.3c-5.1,4.7-9.7,10.4-12.8,16.5c-8,15.5-22.7,21.8-37,28.4
			c-7.4,3.4-8.1,2.5-8.6,11c-0.3,5.2-1.7,9.6-5.1,13.7c-10.3,12.2-20.1,24.7-30.7,36.6c-3.4,3.7-8.6,7.4-13.3,7.9
			c-4.9,0.6-10.1-2.7-16.4-4.7c-24.4,26.1-49.9,53.2-75.2,80.5c-5.9,6.3-11.2,13.1-17.1,19.5c-3.2,3.4-7,6-13.1,4.1
			c0.6-3.5,1.3-6.7,1.6-9.9c0.7-8.2,1.8-16.5,1.7-24.7c-0.1-6.6-2.1-7.8-8.7-8.3c-2.7-0.2-5.4,0-8-0.5c-6.1-1.1-7.5-3.3-5.5-9
			c1.6-4.4,3.9-8.4,5.9-12.6c9.5-19.4,19.4-38.7,28.2-58.4c2.4-5.4,2.1-12.4,1.5-18.5c-0.3-2.6-4.5-5.3-7.4-7
			c-1.1-0.6-4.4,1.1-5.7,2.7c-5.7,6.9-11,14.1-16.5,21.2c-17.4,22.7-34.9,45.3-52,68.3c-9.6,12.8-18.7,25.9-21.9,42.2
			c-0.6,3.1-2.5,6.3-4.7,8.5c-4.6,4.8-9.7,9.2-14.8,13.4c-18.3,15-32.5,33.4-43.2,54.3c-8.9,17.2-14.4,35.8-18.1,54.8
			c-3.7,19.3-7,38.7-10.5,58c-0.9,4.9-1.4,10-5.9,13.4c-10.3,7.8-17.5,19.3-30.4,23.9c-2.3,0.8-4.2,3.2-5.9,5.3
			c-8.7,10.5-17.2,21.2-25.7,31.8c-14.7,0-29.3,0-44,0c0.9-7.9,4-16.2,2.3-23.5c-3-13.1,1.3-19.9,12.3-26.3
			c11.1-6.4,20.7-15.5,31.1-23.3c3.6-2.8,7.3-6.1,13.4-1.8c-1.5,2.9-2.6,5.8-4.3,8.4c-10.7,16.1-20.9,32.4-28,50.5
			c-0.7,1.9-1.2,3.9-1.7,5.8c22.7-28.2,43.7-57.1,61.6-88.3c-9-3.4-9.6-5-5.8-12.4c0.6-1.2,1.5-2.2,2.1-3.4c3.6-7.7,1.8-12-6.5-14
			c-4.1-1-8.6-0.6-12.9-1.2c-4.8-0.7-6-3.6-3.7-7.8c1-1.7,2.4-3.2,3.5-4.9c8-13,15.9-26,23.7-39.2c1-1.7,1-4.1,1.9-8
			c-5.7,2-10,2.8-13.5,4.9c-6.8,4.1-13.7,8.4-19.6,13.7c-12.4,11.1-24.1,22.9-36.1,34.4c-3,2.9-5.6,7-11.8,3.6
			c1.9-11.4,1.6-23.4,10.1-33.2c5.8-6.6,10.9-13.8,16.3-20.8c-0.6-0.6-1.3-1.2-1.9-1.8c-3.7,3.5-7.1,7.2-11.1,10.4
			c-4.6,3.7-9.1,8.7-14.4,10c-13.4,3.2-24.6,9.8-35.1,18.2c0-175.3,0-350.7,0-526c2.9,2.7,7.2,4.8,8.3,8.1c3.6,11,10.5,19.3,19.4,26
			c6.2,4.7,13.1,8.7,20.2,12c9.2,4.3,18.5,1.6,28.1-0.1c26.6-4.9,49.9-17,70.6-33.1c15-11.7,26.7-27.7,39.7-41.8
			c4.1-4.5,4.6-9.4,1-14.5c-2.3-3.3-4-6.9-6.5-10.1c-3.2-4.1-2.6-7.5,0.1-11.7c4.5-7,8.6-14.3,12-21.8c1.5-3.4,1.6-7.7,1.5-11.5
			c-0.2-4.3-1.4-8.5-2.1-12.8c-1.6-9.6-6.1-17.4-13.8-23.5c-3.5-2.8-6.1-6.7-10.2-11.2c8.5-5.5,15.8-10.5,23.4-15.1
			c6.6-4,13.7-4.2,20.5-1.6c3.5,5.6-1,8.9-3.6,13.3c10.5-0.7,20.1-0.6,29.4-2c10.4-1.5,20.3-5.9,31.2-5.6c2.4,0.1,4.9-1.8,7.3-2.9
			c9.3-4.2,17.6-10.8,28.4-11.3c2.1-0.1,4-2.1,6-3.3c8.3-4.9,16.6-9.7,24.9-14.7c2.8-1.7,6.4-3.5,7.7-6.1
			c4.3-9.1,12.4-12.7,20.8-15.9c4.6-1.8,8.4-4,9.6-9.2c1.3-5.6,5.5-8,10.4-9.7c2.4-0.8,4.8-1.4,6.6-1.9c-3-5.5-6.2-10.4-8.2-15.7
			c-2.7-7.2-1.4-8.8,6.4-8.8c7.1,0,13.2-2.6,14.7-9.4c1.4-6.6,0.8-13.8,0.3-20.7c-0.4-5.5-5.9-6.7-9.7-9.2c-1.6-1.1-3-2.4-4.5-3.6
			c-8.3,3.6-15.9,8.2-24.5,4.5c-6.5,5.5-6.5,5.4-13.7,6.1c-2.9,0.3-5.8,1.1-8.7,1.9c-10.1,3-20.1,6.1-30.2,9
			c-1.5,0.4-3.3-0.2-4.9-0.4c-6.5-1.1-13-2.2-19.5-3.5c-1.5-0.3-3.4-0.8-4.4-1.9c-3.7-4.1-7.6-2.7-11.9-1.5
			c-12.8,3.6-23.6,11.4-33.4,19.3c-15.2,12.3-28.2,27.1-40.1,42.7c-3.3,4.3-6.7,7.7-12.3,6.9c-5.3-0.7-8.1,2.2-10.2,6.3
			c-7.8,14.9-18.5,27.4-31.2,38.4c-4.3,3.7-8.4,7.6-12.3,11.7c-7.8,8.2-16.1,15.1-28,12.2c-3,5.3-5,10.4-8.3,14.4
			c-2.9,3.3-7,6.6-11.2,7.5c-15.6,3.5-31.3,6.5-45.7,14.1c-4.9,2.6-9,1.1-12.6-2.6c-3.8-3.9-0.9-7.3,1.1-10.7
			c13.1-22.4,27.8-43.8,44.2-64c7.5-9.3,11.3-9.9,21.8-3.3c0.5,0.3,1.3,0,3.2,0c0.9-2.6,2.1-5.5,2.9-8.5c6.7-25,16.5-48.3,33.1-68.6
			c5.1-6.3,8.8-13.7,13.1-20.6c-11.5,8.9-22.1,18.4-31.3,29.1c-24.9,29.1-51,57.2-71.8,89.5c-9.5,14.8-19.6,29.6-23.9,47
			c-2.7,10.9-8.9,17.5-19.3,20.8c0-43.3,0-86.7,0-130c11.1-8.5,22.1-17.1,33.3-25.3c17.9-13.2,35.9-26.4,54.1-39.3
			c6.7-4.8,13.7-9.5,21.3-12.6c17.3-7.2,34-15.3,49.1-26.6c12.4-9.3,23.8-19.2,31.7-32.8c4.1-7.1,6.4-13.1-2.9-18.5
			c-4.6-2.6-4.9-6.4-1.8-9.9c6.1-7,12-14.4,19.1-20.1c12.7-10.2,26.3-19.3,39.6-28.8c3-2.1,6.1-4.2,9.4-5.6c2.6-1.1,5.8-2,8.6-1.6
			c18.9,2.8,37.8,2.8,56.7,0.6c15.1-1.8,29-7.1,41.8-15.4c1.9-1.2,4-4.1,3.9-6.1c-0.5-8.2-1.6-16.5-6.6-23.6c-3-4.3-5.6-8.9-8-13.5
			c-3.7-7.1-3.7-8.4,2.2-13.7c12.5-11.3,23.7-23.8,38.7-32.5c10.7-6.2,21.4-8.3,32.4-4.4c10.9,3.9,20.9,2.4,31.1-1.3
			c8.4-3,16.6-6.8,25.1-9.7c9.4-3.2,13.7-8.6,13.8-18.8c0-2.6-0.6-5.7,0.5-7.9c4.5-9,4.9-19.6,12.6-27.6c4.6-4.8,8.2-10.3,14.9-12.6
			c1.9-0.6,4.1-1.4,5.2-2.8c5.2-7.2,13-8.6,20.9-10.3c13.1-2.8,21.2-12.9,30.6-21.1c0.6-0.5,0.3-1.9,0.4-2.7c-7.3-7.1-7-7-1.6-15.9
			c5.1-8.6,9.8-17.5,9.6-28c-0.1-5.3,1.8-10,6.1-13.1c4.8-3.5,9.9-6.8,15.2-9.6c8-4.1,8.1-3.9,3.9-12.1c-3.2-6.2-1.5-10.9,5.3-13.5
			c-0.2,1.5-0.2,2.8-0.5,4c-1.1,4.5-0.1,8.2,4.7,9.5c4.3,1.3,6.6-1.7,8.7-5c3.9-6.1,4.8-12,3.3-19.4c-1.7-8-0.4-8.2-7.6-11.1
			c-6,3-11.1,6.3-16.7,8c-3,0.9-7.3,0.1-10.2-1.4c-3.8-1.9-7.3-5.3-5.5-10.5c2.1-6.2,3.5-13.4,11.7-14.7c5.6-0.9,11.2-1,16.8-1.6
			c3.2-0.4,6.9-0.3,9.6-1.9c5.7-3.3,11.2-7.3,16.2-11.6c7.3-6.2,7-6.5,3.4-16c-0.4-1,0.1-2.4,0.2-4.2c2.9,0.7,5.2,1.6,7.4,1.5
			c1.7-0.1,4.2-1,4.9-2.3c0.6-1.3-0.2-3.8-1.1-5.2c-1.1-1.7-3-2.9-5.6-5.2c6.9-1.7,13.7,4.4,18.1-1.9c3.8-5.4,2.6-11.7-0.2-18
			c-1.6,4.2-3.2,8.3-5,13c-7.5-1.8-14.3-1.9-21.5,0.9c-6.4,2.5-10-2.6-7.6-9.6c0.4-1.2,0.5-2.5,0.7-3.8c-5.5-4.1-9.3-0.3-12.6,2.5
			c-6.2,5.2-12.9,9.2-20.6,11.7c-1.5,0.5-3.2,1.3-4.3,2.4c-9,8.8-18.6,17.1-26.7,26.7c-10.4,12.4-19.1,26.1-35.5,31.9
			c-3.9,1.4-7,4.9-10.6,7.5c-1.9,1.4-3.7,2.9-5.7,4c-4.6,2.4-8.2,0.3-7.7-4.9c0.3-3.5,1.6-7.2,3.5-10.2c5.7-9.4,11.8-18.5,18-27.6
			c5.9-8.5,12.2-16.6,18.1-25.1c2.5-3.6,5.1-7.5,2.1-13.2c-3.7,3.7-7.2,6.4-9.7,9.9c-4,5.7-9.1,9.8-15.4,12.3
			c-23,9-40.3,25.6-57.2,42.7c-7.7,7.8-14.5,16.6-22.3,24.2c-5.4,5.3-12,9.4-18.2,13.7c-1.3,0.9-3.5,0.6-6.1,1
			c0.4-4.6,0.8-8.3,1.3-14.7c-4.8,3.9-8.2,5.8-10.6,8.6c-9,10.7-17.6,21.7-26.5,32.4c-2.4,2.9-5.4,5.3-8.1,7.9
			c-0.7-0.5-1.5-1-2.2-1.6c1.7-3.8,3-7.7,5-11.2c2.4-4.3,5.5-8.3,8.1-12.6c15.3-25.7,30.6-51.5,45.9-77.2c2.4-4.1,4.5-8.3,4.5-13.3
			c-2.9,2-5.3,4.3-7.1,6.9c-16.5,23.8-33.4,47.4-49,71.7c-11.5,17.9-22.2,36.4-31.5,55.5c-5.6,11.5-12.4,20.8-22.1,28.8
			c-25.2,21.1-47,45.2-63.1,74.2c-3.7,6.6-8.7,12.6-13.8,18.3c-3.9,4.4-9,7.6-16.1,6.6c-0.9-6.7,3.2-11,6.3-15.4
			c9.3-13.3,19-26.5,28.3-39.8c1.5-2.2,2.6-4.7,3.5-7.1c2-5.4,0.4-7.4-5.3-7.1c-1.5,0.1-2.9,0.5-7,1.2c9.5-13.7,17.1-25.8,25.8-37
			c16.2-20.9,31.3-42.3,43.2-65.9c2.9-5.8,5.8-11.7,6.3-19.7c-2.1,1.2-3.4,1.6-4.2,2.5c-16.7,17.2-34.5,33.6-49.7,52
			c-19.3,23.3-36.7,48.2-54.7,72.6c-16.3,22.1-30.4,45.3-37.7,72.2c-2.7,9.8-9,17.9-17.1,24.1c-12.2,9.3-24.6,18.2-37.1,26.9
			c-8.4,5.9-17.1,11.5-25.9,16.9c-4.4,2.7-8,7.1-15.5,6.5c0.3-3.7,0.1-7.1,0.9-10.3c2.1-8,5.9-15.8,6.9-23.9
			c1.2-9.6,5.4-16.9,11.7-23.6c25.3-27,50.6-54,75.9-80.9c11.9-12.7,22.8-26.1,30.7-41.7c2.4-4.7,5.1-9.5,0.6-14.8
			c-1-1.2-0.4-3.8-0.6-5.8c-0.6-7.8,5.3-11.6,10.4-15.9c-0.6-2.9-2.2-5.8-1.6-8c2.3-8,2.5-16.8,4.9-24.3c4.8-15.1,19.7-20.6,33-26.8
			c1.1-0.5,2.8-0.6,3.9-0.1c6.6,2.6,10.1-1.5,12.9-6.2c2.4-4,4.6-8.1,6.4-12.3c3.4-8,6.5-16,9.5-24.2c1.9-5.3,3.7-10.7,4.9-16.2
			c3.1-13.8,2.9-28.6,13.5-39.8c0.2-0.2,0.3-0.6,0.4-0.9c2.7-6.2,7.2-10.6,12.6-15c7.3-6,17.2-11.2,16.6-23.2l-0.3,0.2
			c1.7-0.1,3.6,0.4,4.9-0.3c1.9-0.9,4.8-2.8,4.7-4.1c-0.1-2.2-2.1-4.4-3.7-6.2c-0.7-0.8-2.5-0.8-3.8-1.1
			c-11.1-2.5-19.5-9.6-27.6-16.9c-3.1-2.8-6.2-6.4-7.7-10.2c-4.7-12.1-9.7-24.2-12.4-36.8c-2.5-11.6-6.1-21.5-14.5-30.5
			c-10.6-11.3-19.2-24.5-28.9-36.8c-2.9-3.7-6.4-6.8-9.5-10.3c-4.2-4.7-4.1-6.2,0.5-10.9c2.3-2.4,5-4.4,7.3-6.8
			c3.1-3.4,5.1-7.4,2.3-11.8c-3-4.8-7.6-3.5-11.6-1.6c-6,2.8-12,5.9-17.8,9c-10.9,5.9-21.2,4-31.2-2.2c-10.7-6.7-12.8-16.9-5.5-27.2
			c2.5-3.5,4.7-7.3,7-10.9c5.6-8.6,8.6-9.2,16.6-2.4c6.7,5.6,13.1,11.4,21.8,13.7c9,2.5,17.9,5.1,27,7.1c4.7,1,9.1,2,12.3,5.9
			c0.5,0.6,1.7,0.6,3.4,1.2c1.2-2.2,2.6-4.4,3.9-6.7c3.2,2,4.9,3,6.6,4.1c3.3,2.2,6.2,2.1,8.7-1.2c7.3-9.4,17.5-12.5,28.7-13.9
			c2.5-0.3,5-1.5,7.4-2.5c3.4-1.4,6.7-3,9.9-4.7c12.2-6.1,24.7-11.6,36.2-18.8c5.3-3.3,9.2-9.5,12.3-15.2c4.3-8.2,1.7-12.7-7.4-15.6
			c-11.9-3.9-24.2-3.9-36.6-3.8c-7,0-13.9-0.5-20.9-1.1c-5.4-0.5-10.7-1.5-18-2.6c-4.2-6.4-2.5-15.1-0.5-24.3
			c-2.5-0.7-5.2-1-7.4-2.2c-1.5-0.8-3.4-2.7-3.4-4.2c-0.1-4.9,2.2-9,6.2-11.9c3.9-2.8,7.2-1.5,10.9,0.9c2.5,1.7,6.4,3.2,9.1,2.4
			c8.6-2.5,17.4-5,25.1-9.3c9.9-5.6,21.9-8.3,29-18.4c0.2-0.3,0.6-0.3,0.8-0.6c12.1-11.4,24.7-22.2,36.1-34.3
			c11.2-11.8,20.2-25.7,33.9-35.1c1.6-1.1,2.8-2.9,4.2-4.2c3.7-3.5,4.1-7,1.3-11.5c-3.2-5-5.9-10.4-8.2-15.9c-1-2.5-1.3-6-0.5-8.5
			c7.7-21.7,3.7-44.3,5.1-66.4c0.3-4.4-2.2-6.8-6.5-7.3c-2.6-0.3-5.3-0.5-8-0.4c-14.9,0.1-29.7,0.2-44.7,2.6
			c-24.5,3.9-48.1,9.9-70.8,19.8c-4.7,2-9.3,3.7-14.5,1.9c-6.6-2.3-8.2-6.6-4.1-12.1c6.8-9,14.4-15.1,26.8-16.5
			c40.7-4.5,74.8-23,102.6-52.8c7.1-7.6,11.3-17.9,17.4-26.6c10.5-14.9,17.3-31.4,21.5-49c1.9-8.1,4.1-16.1,6.3-24.1
			c1.3-4.9-0.6-7.7-5.2-9c-1.9-0.5-3.9-1.1-5.9-1.2c-14.9-0.8-29.9-2.1-44.8-1.9c-9.4,0.1-18.9,1.1-27.6,6.5
			c-5.8,3.6-12.7,5.9-19.4,7.7c-3.8,1-7.5,1.2-10.6,4.4c-1.4,1.4-5,1.7-7.1,1c-3.4-1.1-3.4-4.5-2.9-7.6c1.2-6.8,5.9-11.3,14.4-11.1
			c8,0.3,13.8-2.7,17.8-8.8c5.4-8.3,10.3-17,14.9-25.8c0.8-1.5-0.5-4-0.8-6.2c-4.7,1-9,3.3-12,2.2c-4.5-1.7-7.5-0.3-11.3,0.9
			c-5,1.6-10.4,4.7-17.2-0.4c3.5-3,6-6,9.2-7.7c7.3-4,15.1-6.9,22.3-11c7.5-4.3,12.9-11.3,13-19.8c0.1-9.1-1.2-19-12.8-22.1
			c-0.4-0.1-0.5-1.1-1-2.1c1.2-4.1,5-4.2,8.4-5.4c1.8-0.6,4.3-2.7,4.3-4.3c0.1-1.6-2.2-3.6-3.8-4.9c-1.3-1-3.2-1.3-4.9-2
			c3.2-4.2,5.9-7.8,9.1-12c-3.7-1.8-6.2-2.9-8.9-4.2c9.4-8.4,10-4.9,6.4-17.6c-2.8-9.9-2.2-19.6,2.5-29.1c1.3-2.6,1.1-6.3,0.7-9.4
			c-1.2-9.2-3.5-18.3-4.2-27.6c-0.7-8.2,1.7-16.3,6.6-23.1c3.1-4.4,3.3-8.3,1.2-12.4c-4-2.4-9.6,0.6-12-5.3
			c3.9-4.1,7.4-8.5,11.6-12.2c9.2-8.2,18.9-15.7,27.9-24c17.7-16.2,33-34.6,46.6-54.3c7.2-10.4,14.6-20.5,21.9-30.8
			c1-1.3,1.7-2.8,2.4-4.3c4.5-9.6,9.1-19.2,13.4-29c0.9-2.1,1-4.5,1.4-6.8c-0.7-0.5-1.3-1.1-2-1.6c-6.5,3-13.2,5.7-19.5,9.2
			c-6.4,3.5-12.3,7.8-19.7,12.6c1.5-6.6,2.6-11.2,3.8-16.5c-11,4.5-20.8,8.5-33,13.4c6.6-12.1,12.1-22,17.4-32
			c2.3-4.4,5.7-7,10.4-8.7c15.9-5.8,31.7-11.9,47.7-17.8c4-1.5,8.4-2,12.5-3.4c10.7-3.5,21.3-7.2,31.9-10.9c4.1-1.4,7.9-3.5,12-4.8
			c13.7-4.2,27.5-7.7,41.1-12.2c18-5.9,35.6-13.3,53.8-18.5c18.5-5.3,35-16.6,54.6-18.4c0.6-0.1,1.3-0.4,1.9-0.6
			c28.6-10,57.2-19.9,85.8-30c13.2-4.6,26.3-9.6,39.4-14.3c10.3-3.7,20.7-7.2,31-10.8c11.6-4.1,23.1-8.6,34.9-12.1
			c12.1-3.6,24.6-5.8,36.6-9.5c22.3-6.8,45.2-12.5,66.3-22c24.6-11,50.6-16.3,75.9-24.4c28.2-9.1,57.1-15.7,85.5-24.4
			c44.6-13.7,88.9-28.1,133.3-42.2c18-5.7,34.5-13.6,44.1-31.2c2.6-4.7,7.9-5.1,12.4-4.8c4.6,0.3,6.1,4.6,6.8,8.7
			c0.4,2.2,0.9,4.4,1.6,8c6.9-1.2,13.5-1.7,19.7-3.4c20.2-5.6,40.3-11.5,60.4-17.6c3.7-1.1,8.1-2.7,10.3-5.6
			c4.6-6.1,11.6-2.5,16.7-5.4c5.5,4.1,10.9,1.1,16.2-0.4c6.4-1.9,12.7-3.9,19-6.2c2.6-0.9,4.9-2.8,7.9-4.5c-2.7-3.4-4.5-5.8-6.7-8.6
			c6.5-3,12.1-5.6,17.7-8.2c0.4-6.2-9.6-6.4-8.2-13.3c12.9-3.3,13.3-4.6,4.6-14c-0.4-0.4-0.5-1.2-1.1-2.9c1.9-1.9,3.7-4.9,6.4-6.4
			c6.4-3.6,9.2,5.4,15.7,5.3c0.4-7.5,0.8-14.7,1.2-22.3c2.3-1.4,4.8-2.9,7.3-4.6c2.9-2,5.8-1.8,8.2,0.5c7.2,7.2,11.9,16,14.8,25.6
			c1.4,4.5,7.5,19.9,9.4,23.2c2.8,4.8,6.3,5.4,10.9,3.4c7.1-3,14.3-4.7,22.1-5.1c6.4-0.3,12.5-2.9,18-7.7c-3.6-2.4-6.5-4.3-10.2-6.7
			c4.4-3.2,8-5.7,12.1-8.6c1.1,2.7,1.9,4.4,2.5,6.3c2.7,9.5,7.8,11.4,15.7,5.5c1.9-1.4,3.3-4.1,4.1-6.5c3.3-9.8,3.7-9.9,12.4-3.8
			c2.6,1.8,6.1,4.1,8.8,3.7c7.8-1.1,15.7-2.6,20.6-10.4c3.7-5.8,8-11.2,12.4-16.6c2.4-2.9,5.5-5.2,9.2-8.6c2.2,4.2,4.3,6.9,5.2,9.9
			c4.6,15,5.8,13,20.4,10.4c1-0.2,1.9-0.5,2.9-0.7c20.1-4.8,40.2-9.6,60.2-14.5c2.3-0.6,4.5-1.9,6.9-3c-3.2-2.8-6.8-4.5-7.8-7.1
			c-2.2-5.7-6.4-6.2-11.2-6.3c-11.3-0.4-22.7-1.4-34-0.9c-13.2,0.6-25.1-3.6-36.4-9.2c-7-3.4-13.6-4.5-21.1-4.4
			c-14.6,0.2-29.2-0.1-43.8-0.4c-3.3-0.1-6.5-1.4-9.7-2c-6.5-1.1-12.9-2.7-19.5-3.1c-7-0.4-13.8-0.5-20.5-3.5
			c-4.1-1.8-9.1-2.5-13.6-2.4c-8.6,0.1-17.2,1.2-25.8,1.8c-4.9,0.3-7.2,2.8-7.1,7.7c0.1,3,0.2,6-0.2,9c-1.3,8.4-6.9,12-15.1,9.5
			c-9-2.8-13-10.2-14.7-18.6c-2-9.6-1.4-9.4-11.1-8c-4.4,0.6-9.6,1.1-13.4-0.6c-9.8-4.5-19.8-5.1-30.2-3.8c-8.3,1-16.6,1.8-24.9,2
			c-2.9,0.1-7.7-1.2-8.6-3.2c-2.6-6.1-7.6-6.2-12.4-6.2c-9.4-0.1-18.5-0.8-27.4-4.4c-3.5-1.4-7.8-1-11.8-1.2
			c-16.6-1-33.2-1.8-49.8-3c-6.1-0.5-9.1-4-8.5-10.1c0.5-5.6,0.9-11.7,3.3-16.5c5.3-10.4,6.7-21.5,8.2-32.8c218.7,0,437.3,0,656,0
			c1.3,1,2.4,2.5,3.9,3c16.4,5.5,32.8,10.8,49.2,16.1c7.7,2.4,15.1,3.8,23.3,0.3c5.3-2.3,11.7-1.5,17,2.6c4.9,3.8,4.2,8.3,3.5,13.5
			c-0.8,6.1,0.9,7.3,7.3,7.2c6.2,0,13-1,18.6,1.1c16.3,6,33.2,7.7,50.1,6c24.5-2.6,48.8-6.7,73.1-10.7c11.4-1.8,13.8-0.8,16.2,10
			c4.5,19.8,9.3,39.5,13.7,59.4c18.3,83.3,36.7,166.5,54.8,249.8c11.9,55,23.3,110.1,34.8,165.2c10.4,49.9,20.6,99.8,31,149.7
			c3,14.3,6.5,28.5,9.7,42.8c0,849.1,0,1698.2,0,2548c-374.7,0-749.3,0-1124,0c11.2-10.4,21.9-21.2,32.2-32.5
			c13-14.4,20.2-31.1,24.8-49.3c1.6-6.4-1.2-9.4-7.8-9.6c-4.6-0.1-9.5,0.8-13.9,0c-23.8-4.6-45.3,2.8-66.6,12
			c-4.2,1.8-8.7,3.2-13.2,3.9c-11.4,1.9-15.9-1.8-17.2-13.2c-0.8-7.1-2.9-9-10.1-9.6c-4-0.3-7.9-0.8-11.8-1.2
			c-6.2-0.6-12.5-1.3-18.7-1.7c-3-0.2-6.1,0.7-8.9,0.1c-14.7-3.3-28.9-0.4-43.2,2.8c-3.4,0.8-7.5,1.4-10.6,0.2
			c-7.4-2.7-14.2-6.9-21.6-9.7c-5.5-2.2-12-5.6-16.9-4.3c-11,3-22.4,7.1-31.7,13.4c-15.2,10.4-25.5,25.9-36.1,40.7
			c-1.3,1.9-2.2,4.1-3,6.3c-3.3,8.6-6.5,17.3-9.9,26c-0.7,1.8-1.9,3.5-3.1,5c-6.5,8-13.3,15.7-22.5,20.8c-38.7,0-77.3,0-116,0
			c12.8-5.4,25.5-11.1,38.5-16.2c8.5-3.3,17.2-5,25.4,3c2.3-3.4,4.2-6,5.9-8.8c2.1-3.4,3.7-7.1,6-10.3c9.8-14.2,19.9-28.2,29.7-42.5
			c5.2-7.6,5-8.5-2.2-14.5c-7-5.8-6.4-13.3,1.6-17.7c3.5-1.9,7.4-3,11.3-4c12.9-3.4,25.5-7,35-17.3c1.5-1.6,3.8-2.8,5.9-3.7
			c10.4-4.5,21-8.5,28-18.2c1-1.4,3.6-1.6,5.3-2.7c4.4-2.9,8.7-6,13.1-9c3.8-2.6,7.4-5.7,11.5-7.8c11.3-5.8,11.9-6.9,9.1-21.5
			c-3.4,1.4-6.5,2.8-9.8,3.9c-3.1,1.1-6.2,2.6-9.4,2.6c-4.9-0.1-7.7-4.7-4.8-8.4c5.4-6.9,7.8-16.4,17.4-19.8
			c4.1-1.5,5.9-4.7,5.5-9.5c-0.2-2.6,1.6-5.3,2.6-8c3.5-9.1,13.8-14.7,12.5-26.1c2.5-0.3,4.1-0.4,5.7-0.6c7.2-0.8,7.7-1.6,6.5-8.8
			c-0.3-2-0.1-4.1-0.1-7.2c3.5,1.1,5.9,2,8.4,2.7c3.5,1,5.6-0.5,7-3.8c4.6-11.2,0-28-10.7-36.5c-2.2,3.1-4.4,6.1-6.6,9.1
			c-12.2-5.3-0.3-12.6-1-19.6c-5.1,0.4-9.7,1.2-14.2,1.2c-4.2,0-8.5-0.4-12.6-1.3c-3.8-0.9-5.1-4.1-4.1-7.9c0.7-2.7,1.7-5.3,2.8-8.5
			c-8.6,1.5-9.4,1.9-10,9.1c-0.7,7.9-3.8,13.2-12.3,14.4c-5.2,0.7-10.4,1.6-15.5,2.8c-3.1,0.7-6.9,1.4-9,3.5
			c-6,5.7-12.7,6.2-19.7,3.6c-1.8,2.2-3.1,3.9-4.7,5.8c-3-3.3-5.2-6.3-8-8.6c-6.3-5.2-6-12.2-6.1-19.2c-0.1-5.4,2.6-8.2,7.7-10.1
			c3.3-1.3,3.1-5.4,1.1-7.7c-1.3-1.5-4.8-2.3-6.7-1.7c-3,1-5.5,3.6-8.4,5.3c-1.5,0.9-3.3,1.2-5.9,2.2c1.4-11.3,10.3-15,16.8-20.6
			c-1.9-5.6-5.9-7.6-10.2-5.1c-7.2,4.1-12.3,3.4-16.5-3.8c-0.2-0.3-1.2-0.1-2.7-0.2c-0.7,1.8-1.8,3.8-2.4,5.9
			c-0.6,2-0.9,4.2-1.5,7.6c-4.1-3.7-7.3-6.6-10.4-9.4c-7.8-7.1-7.8-7.1-16.1-0.5c-0.4,0.3-1.2-0.1-1.9-0.2
			c-2.9-16.7-5.4-18.8-17-14.1c-0.8-1.3-1.6-2.7-2.5-4.1c-4.9-6.9-7.1-7.2-13.4-1.5c-1,0.9-1.8,2.1-2.8,2.8
			c-7.2,4.8-14.6,8.2-23.2,3.5c-3.6-2-7.2-4.2-11.4-6.7c-3,5.9-5.1,11.6-8.6,16.3c-4.3,5.9-11.1,4.4-17.8,2.6
			c-0.3,9.3-4,14.6-13.5,14.2c-1.4-0.1-3,1.3-4.2,2.4c-3.5,3-7.1,6-10.3,9.4c-3.4,3.6-7.3,4.7-12.3,5.2c-4.6,0.4-10.3,2.7-12.9,6.1
			c-5.3,6.8-12.5,10.9-19.1,15.8c-6.3,4.7-13.2,8.7-19.1,13.9c-7.9,7-20.3,8.4-24.6,19.8c-0.3,0.9-2.3,1.1-3.5,1.6
			c-2.1,1-4.3,1.7-6.2,3c-13.2,9-26.8,17.4-39.2,27.3c-6.4,5.2-12.1,7.2-19.9,5.1c-4.9-1.4-8.7,0.9-10.3,5.6
			c-4.7,14-16.4,20.3-28.6,26.1c-4.5,2.1-9,2-13.5-0.3c-2.1-1.1-4.2-2-6.3-3.1c-4.5-2.4-8.3-1.6-11.6,2.2
			c-4.1,4.8-8.9,9.1-12.4,14.2c-6,8.7-14.3,10.4-23.7,8.9c-2.7-0.4-6.9-1.9-7.4-3.7c-0.7-2.6,0.6-6.5,2.5-8.8
			c8-9.7,15.8-19.8,25-28.3c8.3-7.6,16.9-14.8,24.5-23.2c7.3-8.1,15.2-15.8,22.7-23.7c1.1-1.2,2.3-2.6,2.8-4.1
			c2.1-7,6.1-12.4,12-16.7c1.5-1.1,2.9-2.9,3.6-4.7c3.2-8.3,10.1-13.9,17.2-17.4c13.1-6.6,15.1-19.9,21.9-30.6
			c-4,1.3-7.3,3.3-10.3,5.6c-6.6,5.3-12.9,11-19.7,16.1c-10.3,7.7-22.6,12.8-29.7,24.4c-0.5,0.8-1.7,1.1-2.4,1.8
			c-3.7,3.7-7.4,7.3-11.1,11c-2.1,2.1-4.1,4.3-6.2,6.3c-4,3.9-8.8,7.2-12.1,11.7c-9.1,12.2-17.8,24.8-26.4,37.4
			c-8.8,12.8-17.7,25.7-26,38.8c-3.6,5.6-8,9.2-14.4,9c-20.9-0.5-38.3,8.8-54.1,20.7c-27.5,20.9-51.6,45.2-68.7,75.7
			c-4.4,7.8-10.6,13.5-18.7,17.3c-7.5,3.5-14.9,7.4-22.2,11.3c-25.8,13.9-51.5,28-77.4,41.7C296.1,3252.5,282,3259.1,268,3266z
			 M443.6,2299.6c-2.8-0.7-4.3-1.7-5.1-1.3c-5.5,2.9-10,3.1-15.2-1.4c-1.9-1.6-7.2-0.7-10.1,0.7c-1.6,0.8-2,5.2-1.8,7.9
			c0.3,4.7,2.3,8.8,7.6,11.1c1.5-3.1,2.8-5.9,4.4-9.3C431.7,2310.2,437.7,2307.2,443.6,2299.6z M371,1664.6c5-0.3,7.5-3.2,8.8-7.2
			c3.1-9.3,4-18.8,1.4-28.5c-1.7,2.6-2.6,5.3-2.6,8.1c-0.1,4.6-1.5,8.4-5.2,11.3C367.6,1652.9,368.2,1658.4,371,1664.6z
			 M1578.8,181.6c-0.1-6.8-2.3-10.1-7-10.1c-3.6,0.1-6.6,1.2-6.6,5.7c0,6,3.5,10.2,8.6,10.1C1577.5,187.3,1579.1,185.3,1578.8,181.6
			z M1173,2962.3c4,0.2,9.2-4.4,8.9-7.5c-0.2-1.3-2.4-3.3-3.7-3.3c-4.1,0.1-7,2.4-7.2,6.7C1170.9,2959.5,1172.4,2961.1,1173,2962.3z
			 M914.6,2866.8c-0.3,9.2,2,12,9.9,12.7C924.1,2873.4,920,2870.5,914.6,2866.8z M596,1908c2.9-2.7,4.2-5,1.5-7.9
			c-0.5-0.5-2.2-0.7-2.7-0.3C591.8,1902.3,592.5,1904.8,596,1908z M306.3,2216.5c-8.1-0.3-8.1-0.3-9.7,7.4
			C300.7,2220.8,303.5,2218.7,306.3,2216.5z M1598.9,178.6c3.7-4.5,3.7-4.5,0-8.4C1598.9,173.6,1598.9,176.1,1598.9,178.6z
			 M394.6,1621c0.7-1.4,1.5-2.4,1.7-3.4c0.1-0.5-1.1-1.1-1.8-1.7c-0.8,1.1-1.6,2.2-2.4,3.3C392.8,1619.6,393.5,1620.1,394.6,1621z
			 M422.1,851.6c-1.5,4.4-0.5,6.6,4.8,6.5C424.8,855.2,423.5,853.4,422.1,851.6z M427,709.3c0.2,0.6,0.5,1.2,0.7,1.8
			c1.4-0.5,2.8-1.1,4.2-1.7c0.1,0-0.4-1.1-0.6-1.7C429.9,708.3,428.4,708.8,427,709.3z M426,887c1.1-1,2.3-1.8,2.2-2.1
			c-0.4-1-1.2-1.9-2-2.6c-0.2-0.2-1.9,1-1.9,1.3C424.6,884.7,425.3,885.6,426,887z M459.5,1605.7c0.9-1.1,1.9-2.1,2.8-3.2
			c-1.1-0.8-2.1-1.6-3.3-2.3c-0.1,0-1,0.9-1,1.3C458.4,1602.9,459,1604.2,459.5,1605.7z M409.6,1621.3c-1.3-0.9-2.2-1.5-3.1-2.1
			c-0.3,0.8-1,1.6-0.9,2.3c0.2,0.7,1.1,1.3,1.7,2C407.9,1622.9,408.5,1622.3,409.6,1621.3z M2126.1,56.3c0.8-1.4,1.7-2.2,1.7-3
			c0-0.6-1.1-1.8-1.6-1.7c-0.8,0.1-1.8,0.9-2,1.7C2124.1,53.6,2125,54.5,2126.1,56.3z M1478,2838.3c1-0.8,2.1-1.7,3.1-2.5
			c-1-1-2-2-3.1-3c-0.8,0.7-1.6,1.5-2.4,2.2C1476.4,2836.1,1477.2,2837.2,1478,2838.3z M321,1365.8c-0.6-0.6-1.2-1.2-1.9-1.7
			c-0.1-0.1-1.2,0.9-1.1,1c0.4,0.7,1.1,1.3,1.6,2C320,1366.8,320.4,1366.4,321,1365.8z M994.4,2890.3c0.5-0.2,0.9-0.5,1.4-0.7
			c-0.3-0.5-0.4-1.2-0.8-1.3c-0.3-0.1-0.9,0.4-1.4,0.6C993.9,2889.3,994.2,2889.8,994.4,2890.3z M973.9,2876.7c-0.3-0.3-0.7-1-1.1-1
			c-0.4,0-0.8,0.7-1.2,1.1c0.4,0.4,0.8,0.8,1.1,1.1C973.1,2877.5,973.5,2877.1,973.9,2876.7z M1121.5,2936.7c-0.5-0.2-1-0.5-1.5-0.6
			c-0.1,0-0.5,0.6-0.5,0.7c0.3,0.5,0.7,0.8,1,1.2C1120.9,2937.6,1121.2,2937.2,1121.5,2936.7z M420.1,1617.1
			c0.4-0.4,0.8-0.7,1.3-1.1c-0.5-0.3-0.9-0.6-1.4-0.7c-0.2,0-0.7,0.5-0.7,0.5C419.5,1616.3,419.8,1616.7,420.1,1617.1z M718,2908.1
			c0.4-0.5,0.8-0.9,1.2-1.4c-0.4-0.3-1-0.9-1.3-0.7c-0.5,0.2-0.8,0.9-1.2,1.3C717.2,2907.6,717.6,2907.8,718,2908.1z M1057.7,2903.3
			c0.5,0.3,0.9,0.6,1.4,0.8c0.1,0,0.6-0.4,0.5-0.6c-0.2-0.5-0.5-0.9-0.8-1.3C1058.5,2902.6,1058.1,2902.9,1057.7,2903.3z
			 M281.6,2234.8c-0.3-0.2-0.8-0.5-0.8-0.4c-0.4,0.4-0.6,0.9-0.9,1.4c0.3,0.2,0.8,0.5,0.8,0.4
			C281.1,2235.8,281.3,2235.3,281.6,2234.8z M1465,2870.6c0.2-0.1,0.5-0.2,0.6-0.4c0.1-0.2-0.1-0.5-0.2-0.7c-0.3,0.2-0.7,0.5-1,0.7
			C1464.6,2870.3,1464.8,2870.5,1465,2870.6z M408.5,2333.7c0.4-0.3,0.8-0.6,1.2-0.9c0.1-0.1-0.2-0.7-0.4-0.7c-0.5,0-1,0.1-1.5,0.2
			C408.1,2332.8,408.3,2333.2,408.5,2333.7z M424.6,942c-0.4-0.3-0.7-0.7-1.1-1c0,0-0.6,0.4-0.5,0.6c0.1,0.5,0.4,1,0.6,1.4
			C423.8,942.7,424.2,942.4,424.6,942z"/>
		<path d="M1384,2c-1.5,11.2-2.9,22.3-8.2,32.8c-2.4,4.9-2.8,10.9-3.3,16.5c-0.5,6.1,2.4,9.6,8.5,10.1c16.6,1.2,33.2,2,49.8,3
			c4,0.2,8.3-0.2,11.8,1.2c8.9,3.6,18,4.3,27.4,4.4c4.8,0.1,9.8,0.2,12.4,6.2c0.9,2,5.6,3.3,8.6,3.2c8.3-0.2,16.6-1,24.9-2
			c10.4-1.2,20.3-0.7,30.2,3.8c3.8,1.7,9,1.3,13.4,0.6c9.7-1.4,9.1-1.6,11.1,8c1.7,8.3,5.6,15.8,14.7,18.6c8.2,2.5,13.8-1,15.1-9.5
			c0.4-2.9,0.3-6,0.2-9c-0.2-4.9,2.2-7.4,7.1-7.7c8.6-0.6,17.2-1.7,25.8-1.8c4.6-0.1,9.5,0.6,13.6,2.4c6.7,2.9,13.5,3,20.5,3.5
			c6.5,0.4,13,1.9,19.5,3.1c3.3,0.6,6.5,1.9,9.7,2c14.6,0.4,29.2,0.6,43.8,0.4c7.5-0.1,14.1,1,21.1,4.4c11.3,5.5,23.1,9.8,36.4,9.2
			c11.3-0.5,22.6,0.5,34,0.9c4.8,0.2,9,0.6,11.2,6.3c1,2.7,4.6,4.4,7.8,7.1c-2.5,1.1-4.6,2.4-6.9,3c-20,4.9-40.1,9.7-60.2,14.5
			c-1,0.2-1.9,0.6-2.9,0.7c-14.6,2.7-15.8,4.6-20.4-10.4c-0.9-3-2.9-5.7-5.2-9.9c-3.7,3.4-6.8,5.7-9.2,8.6
			c-4.4,5.3-8.7,10.8-12.4,16.6c-4.9,7.7-12.8,9.3-20.6,10.4c-2.7,0.4-6.2-1.9-8.8-3.7c-8.7-6.2-9.1-6.1-12.4,3.8
			c-0.8,2.4-2.2,5-4.1,6.5c-7.9,5.9-12.9,4-15.7-5.5c-0.5-1.8-1.4-3.6-2.5-6.3c-4.1,2.9-7.6,5.5-12.1,8.6c3.7,2.4,6.6,4.3,10.2,6.7
			c-5.5,4.8-11.6,7.4-18,7.7c-7.8,0.4-15,2.1-22.1,5.1c-4.6,2-8.1,1.5-10.9-3.4c-1.9-3.4-8-18.7-9.4-23.2c-3-9.6-7.7-18.4-14.8-25.6
			c-2.4-2.4-5.3-2.6-8.2-0.5c-2.4,1.7-5,3.2-7.3,4.6c-0.4,7.6-0.8,14.8-1.2,22.3c-6.5,0.1-9.3-8.9-15.7-5.3
			c-2.7,1.5-4.5,4.5-6.4,6.4c0.6,1.7,0.6,2.4,1.1,2.9c8.7,9.4,8.3,10.7-4.6,14c-1.4,6.9,8.6,7.1,8.2,13.3
			c-5.6,2.6-11.3,5.2-17.7,8.2c2.2,2.8,4.1,5.2,6.7,8.6c-3,1.7-5.3,3.6-7.9,4.5c-6.2,2.3-12.6,4.3-19,6.2
			c-5.3,1.6-10.7,4.5-16.2,0.4c-5.1,2.9-12.1-0.7-16.7,5.4c-2.2,2.8-6.6,4.5-10.3,5.6c-20.1,6.1-40.2,12-60.4,17.6
			c-6.2,1.7-12.8,2.3-19.7,3.4c-0.7-3.6-1.3-5.8-1.6-8c-0.7-4.2-2.2-8.4-6.8-8.7c-4.5-0.3-9.8,0.1-12.4,4.8
			c-9.7,17.7-26.1,25.5-44.1,31.2c-44.4,14.1-88.8,28.6-133.3,42.2c-28.3,8.7-57.3,15.4-85.5,24.4c-25.3,8.1-51.3,13.4-75.9,24.4
			c-21.2,9.4-44,15.2-66.3,22c-12,3.7-24.6,5.9-36.6,9.5c-11.8,3.5-23.3,8-34.9,12.1c-10.3,3.6-20.7,7.1-31,10.8
			c-13.2,4.7-26.2,9.7-39.4,14.3c-28.6,10.1-57.2,20-85.8,30c-0.6,0.2-1.2,0.6-1.9,0.6c-19.7,1.7-36.1,13-54.6,18.4
			c-18.2,5.3-35.8,12.6-53.8,18.5c-13.6,4.5-27.4,8-41.1,12.2c-4.1,1.2-7.9,3.3-12,4.8c-10.6,3.7-21.2,7.4-31.9,10.9
			c-4.1,1.3-8.5,1.9-12.5,3.4c-15.9,5.8-31.7,11.9-47.7,17.8c-4.6,1.7-8,4.3-10.4,8.7c-5.2,10-10.7,19.8-17.4,32
			c12.1-4.9,22-9,33-13.4c-1.2,5.4-2.3,10-3.8,16.5c7.4-4.8,13.3-9,19.7-12.6c6.3-3.5,13-6.2,19.5-9.2c0.7,0.5,1.3,1.1,2,1.6
			c-0.4,2.3-0.5,4.7-1.4,6.8c-4.3,9.7-8.9,19.3-13.4,29c-0.7,1.5-1.5,3-2.4,4.3c-7.3,10.3-14.7,20.5-21.9,30.8
			c-13.6,19.7-28.9,38.1-46.6,54.3c-9,8.3-18.8,15.8-27.9,24c-4.2,3.7-7.7,8.1-11.6,12.2c2.4,5.9,7.9,2.9,12,5.3
			c2,4.1,1.9,8-1.2,12.4c-4.9,6.8-7.2,14.8-6.6,23.1c0.7,9.2,3,18.4,4.2,27.6c0.4,3.1,0.6,6.8-0.7,9.4c-4.7,9.5-5.4,19.2-2.5,29.1
			c3.6,12.7,3,9.2-6.4,17.6c2.7,1.3,5.2,2.5,8.9,4.2c-3.2,4.2-5.9,7.8-9.1,12c1.7,0.6,3.6,0.9,4.9,2c1.6,1.3,3.8,3.3,3.8,4.9
			c-0.1,1.5-2.5,3.6-4.3,4.3c-3.4,1.2-7.2,1.3-8.4,5.4c0.4,1,0.6,2,1,2.1c11.6,3.1,12.9,13,12.8,22.1c-0.1,8.4-5.5,15.5-13,19.8
			c-7.2,4.1-15,7-22.3,11c-3.2,1.7-5.7,4.7-9.2,7.7c6.8,5.1,12.2,2,17.2,0.4c3.8-1.2,6.8-2.6,11.3-0.9c2.9,1.2,7.3-1.2,12-2.2
			c0.3,2.1,1.6,4.7,0.8,6.2c-4.7,8.8-9.5,17.5-14.9,25.8c-4,6.1-9.8,9.1-17.8,8.8c-8.5-0.3-13.2,4.2-14.4,11.1
			c-0.5,3.1-0.6,6.5,2.9,7.6c2.1,0.7,5.8,0.4,7.1-1c3.1-3.2,6.7-3.4,10.6-4.4c6.7-1.8,13.6-4,19.4-7.7c8.7-5.4,18.2-6.4,27.6-6.5
			c14.9-0.2,29.9,1.2,44.8,1.9c2,0.1,3.9,0.6,5.9,1.2c4.6,1.3,6.6,4.1,5.2,9c-2.2,8-4.4,16.1-6.3,24.1c-4.2,17.6-10.9,34.1-21.5,49
			c-6.1,8.7-10.3,18.9-17.4,26.6c-27.7,29.8-61.9,48.3-102.6,52.8c-12.4,1.4-20.1,7.5-26.8,16.5c-4.1,5.5-2.6,9.8,4.1,12.1
			c5.2,1.8,9.8,0.1,14.5-1.9c22.7-9.9,46.3-15.9,70.8-19.8c15-2.4,29.7-2.5,44.7-2.6c2.7,0,5.3,0.1,8,0.4c4.3,0.5,6.8,2.9,6.5,7.3
			c-1.4,22.2,2.6,44.7-5.1,66.4c-0.9,2.5-0.6,6,0.5,8.5c2.3,5.5,5,10.9,8.2,15.9c2.9,4.5,2.4,8-1.3,11.5c-1.5,1.4-2.6,3.1-4.2,4.2
			c-13.7,9.5-22.7,23.3-33.9,35.1c-11.4,12-24,22.9-36.1,34.3c-0.2,0.2-0.6,0.3-0.8,0.6c-7.1,10.2-19,12.9-29,18.4
			c-7.7,4.3-16.5,6.9-25.1,9.3c-2.6,0.8-6.5-0.8-9.1-2.4c-3.7-2.4-7-3.8-10.9-0.9c-4,2.9-6.4,7-6.2,11.9c0,1.5,1.9,3.4,3.4,4.2
			c2.2,1.2,4.9,1.5,7.4,2.2c-1.9,9.2-3.7,17.9,0.5,24.3c7.3,1.1,12.7,2.1,18,2.6c6.9,0.6,13.9,1.1,20.9,1.1
			c12.4-0.1,24.6-0.1,36.6,3.8c9,3,11.7,7.5,7.4,15.6c-3,5.7-7,12-12.3,15.2c-11.5,7.2-24.1,12.7-36.2,18.8
			c-3.3,1.6-6.6,3.2-9.9,4.7c-2.4,1-4.9,2.2-7.4,2.5c-11.2,1.4-21.4,4.5-28.7,13.9c-2.5,3.3-5.5,3.4-8.7,1.2
			c-1.6-1.1-3.3-2.1-6.6-4.1c-1.3,2.2-2.6,4.5-3.9,6.7c-1.6-0.5-2.9-0.6-3.4-1.2c-3.2-3.9-7.6-4.9-12.3-5.9c-9.1-2-18-4.6-27-7.1
			c-8.6-2.4-15.1-8.1-21.8-13.7c-8-6.8-11-6.1-16.6,2.4c-2.4,3.6-4.6,7.3-7,10.9c-7.2,10.2-5.2,20.5,5.5,27.2
			c10,6.3,20.3,8.1,31.2,2.2c5.9-3.2,11.8-6.2,17.8-9c4-1.9,8.6-3.2,11.6,1.6c2.8,4.4,0.8,8.4-2.3,11.8c-2.3,2.4-4.9,4.5-7.3,6.8
			c-4.6,4.6-4.7,6.1-0.5,10.9c3.1,3.5,6.6,6.6,9.5,10.3c9.6,12.3,18.2,25.5,28.9,36.8c8.5,9,12,18.9,14.5,30.5
			c2.8,12.6,7.8,24.7,12.4,36.8c1.5,3.8,4.6,7.4,7.7,10.2c8.1,7.3,16.5,14.4,27.6,16.9c1.3,0.3,3,0.2,3.8,1.1c1.6,1.8,3.6,4,3.7,6.2
			c0.1,1.3-2.8,3.2-4.7,4.1c-1.4,0.7-3.3,0.2-4.9,0.3c-2.5-2.1-4.7-4.9-7.5-6.2c-3.5-1.6-7.6-2-9.5,4.8c6.3,0.5,11.8,0.9,17.3,1.3
			c0.5,12-9.3,17.2-16.6,23.2c-5.3,4.4-9.9,8.7-12.6,15c-0.1,0.3-0.2,0.7-0.4,0.9c-10.5,11.3-10.3,26.1-13.5,39.8
			c-1.3,5.5-3,10.9-4.9,16.2c-3,8.1-6.1,16.2-9.5,24.2c-1.8,4.3-4,8.4-6.4,12.3c-2.9,4.7-6.3,8.8-12.9,6.2c-1.1-0.4-2.8-0.4-3.9,0.1
			c-13.3,6.2-28.2,11.7-33,26.8c-2.4,7.5-2.6,16.2-4.9,24.3c-0.6,2.2,0.9,5.1,1.6,8c-5.1,4.3-11,8.1-10.4,15.9
			c0.1,2-0.5,4.5,0.6,5.8c4.4,5.3,1.7,10.1-0.6,14.8c-7.9,15.6-18.7,29-30.7,41.7c-25.3,26.9-50.6,53.9-75.9,80.9
			c-6.3,6.7-10.5,14.1-11.7,23.6c-1.1,8.1-4.8,15.9-6.9,23.9c-0.9,3.2-0.6,6.7-0.9,10.3c7.5,0.6,11.2-3.8,15.5-6.5
			c8.8-5.4,17.4-11,25.9-16.9c12.5-8.8,25-17.7,37.1-26.9c8.1-6.2,14.5-14.3,17.1-24.1c7.3-26.9,21.4-50.1,37.7-72.2
			c18-24.4,35.4-49.3,54.7-72.6c15.3-18.4,33-34.8,49.7-52c0.8-0.8,2.1-1.2,4.2-2.5c-0.4,8-3.4,13.9-6.3,19.7
			c-11.9,23.6-27,45.1-43.2,65.9c-8.7,11.2-16.3,23.3-25.8,37c4.1-0.7,5.5-1.1,7-1.2c5.7-0.3,7.3,1.8,5.3,7.1c-0.9,2.5-2,5-3.5,7.1
			c-9.4,13.3-19,26.4-28.3,39.8c-3.1,4.5-7.2,8.7-6.3,15.4c7.1,1.1,12.2-2.2,16.1-6.6c5.1-5.7,10.1-11.7,13.8-18.3
			c16.1-29,37.8-53.1,63.1-74.2c9.7-8.1,16.5-17.4,22.1-28.8c9.3-19.1,20-37.6,31.5-55.5c15.7-24.4,32.6-47.9,49-71.7
			c1.8-2.6,4.2-4.9,7.1-6.9c0.1,5.1-2.1,9.3-4.5,13.3c-15.3,25.7-30.6,51.5-45.9,77.2c-2.6,4.3-5.7,8.3-8.1,12.6
			c-2,3.6-3.4,7.5-5,11.2c0.7,0.5,1.5,1,2.2,1.6c2.7-2.6,5.7-5,8.1-7.9c8.9-10.7,17.5-21.7,26.5-32.4c2.4-2.8,5.8-4.8,10.6-8.6
			c-0.6,6.4-0.9,10.1-1.3,14.7c2.6-0.4,4.8-0.1,6.1-1c6.2-4.3,12.8-8.5,18.2-13.7c7.9-7.6,14.6-16.4,22.3-24.2
			c16.9-17.1,34.3-33.6,57.2-42.7c6.3-2.5,11.4-6.6,15.4-12.3c2.5-3.4,5.9-6.1,9.7-9.9c3,5.7,0.4,9.6-2.1,13.2
			c-5.9,8.5-12.3,16.6-18.1,25.1c-6.2,9-12.3,18.2-18,27.6c-1.9,3-3.1,6.7-3.5,10.2c-0.5,5.2,3.1,7.3,7.7,4.9c2-1.1,3.8-2.6,5.7-4
			c3.5-2.5,6.6-6.1,10.6-7.5c16.4-5.8,25.1-19.6,35.5-31.9c8.1-9.6,17.7-17.9,26.7-26.7c1.1-1.1,2.8-1.9,4.3-2.4
			c7.7-2.5,14.4-6.5,20.6-11.7c3.3-2.8,7.1-6.6,12.6-2.5c-0.2,1.3-0.3,2.6-0.7,3.8c-2.4,7,1.2,12.2,7.6,9.6
			c7.2-2.9,14.1-2.7,21.5-0.9c1.8-4.7,3.4-8.8,5-13c2.8,6.3,4,12.6,0.2,18c-4.4,6.3-11.1,0.2-18.1,1.9c2.5,2.3,4.5,3.5,5.6,5.2
			c0.9,1.5,1.8,4,1.1,5.2c-0.7,1.3-3.1,2.2-4.9,2.3c-2.2,0.1-4.4-0.9-7.4-1.5c-0.1,1.8-0.5,3.2-0.2,4.2c3.6,9.6,3.9,9.8-3.4,16
			c-5,4.3-10.5,8.2-16.2,11.6c-2.7,1.6-6.3,1.5-9.6,1.9c-5.6,0.6-11.3,0.7-16.8,1.6c-8.2,1.3-9.6,8.4-11.7,14.7
			c-1.8,5.2,1.7,8.6,5.5,10.5c2.9,1.5,7.2,2.3,10.2,1.4c5.6-1.7,10.7-5,16.7-8c7.1,2.9,5.9,3.1,7.6,11.1c1.5,7.4,0.6,13.3-3.3,19.4
			c-2.1,3.3-4.4,6.3-8.7,5c-4.8-1.4-5.7-5-4.7-9.5c0.3-1.2,0.3-2.5,0.5-4c-6.7,2.6-8.5,7.3-5.3,13.5c4.2,8.2,4.1,7.9-3.9,12.1
			c-5.3,2.7-10.4,6-15.2,9.6c-4.2,3.1-6.2,7.8-6.1,13.1c0.3,10.5-4.5,19.4-9.6,28c-5.3,9-5.6,8.8,1.6,15.9c-0.1,0.9,0.1,2.3-0.4,2.7
			c-9.4,8.2-17.5,18.3-30.6,21.1c-7.9,1.7-15.7,3.2-20.9,10.3c-1.1,1.4-3.3,2.2-5.2,2.8c-6.7,2.3-10.3,7.8-14.9,12.6
			c-7.7,8-8.1,18.5-12.6,27.6c-1.1,2.2-0.5,5.2-0.5,7.9c-0.2,10.2-4.4,15.6-13.8,18.8c-8.5,2.9-16.6,6.7-25.1,9.7
			c-10.2,3.7-20.2,5.2-31.1,1.3c-11-3.9-21.7-1.8-32.4,4.4c-15,8.7-26.2,21.2-38.7,32.5c-5.9,5.3-6,6.6-2.2,13.7
			c2.4,4.6,5,9.2,8,13.5c5,7.1,6.1,15.4,6.6,23.6c0.1,2-2,4.9-3.9,6.1c-12.7,8.3-26.7,13.6-41.8,15.4c-18.9,2.2-37.8,2.2-56.7-0.6
			c-2.7-0.4-5.9,0.5-8.6,1.6c-3.3,1.4-6.4,3.5-9.4,5.6c-13.3,9.5-26.8,18.6-39.6,28.8c-7.2,5.8-13.1,13.2-19.1,20.1
			c-3.1,3.6-2.8,7.3,1.8,9.9c9.3,5.3,7,11.4,2.9,18.5c-7.9,13.6-19.4,23.5-31.7,32.8c-15.1,11.3-31.7,19.4-49.1,26.6
			c-7.6,3.1-14.6,7.9-21.3,12.6c-18.2,12.9-36.2,26.1-54.1,39.3c-11.2,8.3-22.2,16.9-33.3,25.3c0-67.3,0-134.7,0-202
			c7.3-6.7,14.6-13.5,22-20.1c7.7-6.8,15.7-13.3,23.3-20.2c4.3-4,7.7-8.7,7.4-17.3c-4.8,3-8.2,4.7-11.2,7.1
			c-13.9,10.8-27.7,21.7-41.5,32.6c0-13.3,0-26.7,0-40c11.9-9.3,25.1-16.1,38.7-22.5c5-2.3,9.6-6,13.7-9.7
			c17.3-15.6,34.2-31.6,51.6-47.1c8.9-8,18.8-14.9,27.7-22.9c17.6-15.8,35.1-31.6,52.2-48c11.3-10.8,21.6-22.6,32.3-34
			c1.8-1.9,4.5-5,4-6.5c-2.3-6.8,1.1-12.2,3-18.1c0.5-1.6-0.8-4.8-2.3-5.9c-1.5-1-4.6-0.9-6.4,0c-2.2,1.2-3.8,3.6-5.6,5.5
			c-2.1,2.3-4.2,4.5-7.6,8.1c-0.9-8.3,5.2-9.9,7.4-13.9c2.4-4.5,2.8-10.6,6.2-14c7.6-7.5,8.6-17.4,12.1-26.4c0.1-0.3-0.7-1-1.9-2.5
			c-12,3.7-23.3,10.3-29.8,21c-4.7,7.7-11.1,12.9-16.9,19.1c-4.5,4.9-9.3,9.5-14.2,14c-4.6,4.2-9.3,8.5-14.3,12.2
			c-7.1,5.2-13.4,10.8-15.8,19.9c-0.8,3.1-2.7,6.1-4.6,8.8c-10.2,14.3-23.7,25.1-37.3,35.8c-18.8,14.9-38.2,29.1-62.3,34.8
			c-12,2.8-22.4,8.1-27.8,20.3c-0.4,0.9-1.4,1.4-2.1,2.1C-2,1351.3-2,676.7-2,2C460,2,922,2,1384,2z M68,1495.7
			c-11.5-0.2-22,2.2-32.6,4c-2.1,0.4-4.3,2.1-5.7,3.8c-8,9.2-16,18.5-23.6,28.1c-1.3,1.6-1.6,5.3-0.7,7.2c3.5,7,14.9,9.4,21.4,4.6
			c5.6-4.1,10.5-9.2,16.2-13.2c11-7.7,17.3-19,24.4-29.8C67.9,1499.5,67.7,1498,68,1495.7z M122.8,1234.9c4.8,2.2,8,3,10.5,4.9
			c4.5,3.3,8.1,2.6,12.6-0.2c8.8-5.4,18-10,27.1-14.7c4.7-2.4,9.7-4.3,14.5-6.7c5.3-2.7,9.3-8.8,7-11.7c-3.4-4.1-8.3-7.3-12.9-10.2
			c-3.9-2.4-6.7,0.6-9.6,3.1c-9.2,8-18.5,15.9-29.4,21.8C136,1224.7,130.3,1229.7,122.8,1234.9z M236,1229.1
			c0.7,0.2,1.4,0.5,2.1,0.7c21.9-21.9,24.3-28.5,35.2-49.7c2.2-4.4,3.6-9.2,4.7-14.1c0.4-1.9-0.4-5.1-1.8-6c-1.3-0.9-4.6-0.2-6.1,1
			c-7.4,5.6-14.5,11.5-21.7,17.4c-1,0.8-1.8,2.1-2,3.3C242.9,1197.5,239.5,1213.3,236,1229.1z M183.9,1229c-0.6-0.7-1.2-1.5-1.7-2.2
			c-2.9,1.3-6,2.4-8.7,4.1c-13.8,8.5-27.6,17.3-41.4,25.9c-3,1.9-5.7,4-3.9,8c1.9,4.3,5.4,3.1,8.5,1.7c8.6-3.6,17.2-7.2,25.6-11.2
			C173.7,1249.9,181,1241.2,183.9,1229z M198.3,1844.6c-10.9-3.8-21.6-5.3-31,0.7c-9,5.8-16.2,13.9-21.2,24.1
			c3.6,0.6,6.9,0.6,9.5-0.7C170.4,1861.9,185.8,1856,198.3,1844.6z M309.3,1060.9c-0.4-0.5-0.9-1.1-1.3-1.6c-3,1.9-6.9,3.2-8.9,5.8
			c-8.4,11.1-16.5,22.4-24.1,34.1c-3.5,5.3-1.6,14.1,2.7,18.3c2.3,2.3,4.7,2.5,6.6-0.5c0.9-1.4,1.4-3,1.7-4.6
			c2-11,7.1-20.7,12.4-30.3C302.2,1075.1,305.6,1068,309.3,1060.9z M183.5,1491.7c-15.9,10.9-23.4,26.1-28.4,46
			c4.6-2.5,8.1-3.3,9.9-5.5c7.3-9,14.4-18.2,21-27.8C189.4,1499.5,188.5,1496.6,183.5,1491.7z M81.7,1563.8c3.3,1.1,5,2.3,6.3,2
			c8.5-2.5,17-5.1,25.4-8.1c1.5-0.6,2.6-2.9,3.5-4.6c1.8-3.2,3.8-6.5,0-9.8c-3.6-3.2-7.1-2.6-10.8,0.2c-6.4,4.7-12.9,9.2-19.2,14.1
			C85.2,1558.8,84.1,1560.9,81.7,1563.8z M484,1826.8c9.5-5.4,18.1-9.9,23.6-18.5c1.4-2.2,2.3-4.8,2.6-7.4c0.6-4.6-2.6-6.8-6.8-4.9
			c-1.2,0.5-2.5,1.2-3.2,2.2c-5.8,7.5-11.6,15.1-17.1,22.8C482.5,1821.9,483.5,1823.9,484,1826.8z M51.2,2248.9
			c9.6-3.3,15.1-8.9,20.2-14.8c1.5-1.7,0.8-5.3,1.1-8.1c-2.8-0.1-6.4-1.2-8.2,0.1C57.2,2230.9,52.5,2237.5,51.2,2248.9z
			 M445.3,603.5c7.7,9.8,11.6,9.2,22.4-2.2c-6.7-10.4-7.5-10.5-16.7-2.6C449.3,600.2,447.5,601.6,445.3,603.5z M1249.9,207.7
			c7.2-9.2,7.9-16.8,2.4-23.9C1242.2,188.8,1241.1,197.8,1249.9,207.7z M139.9,1573.3c16.6-2.8,19.9-7.1,15.9-19.4
			C147,1557.2,140.5,1562.1,139.9,1573.3z M339.4,839.5c-1.5,3.7-2.6,6.5-3.7,9.4c8.6-8,12.2-17.7,11.9-29.5
			C335.9,824.3,333,832.3,339.4,839.5z M300.2,1348.2c-4.4-7.7-7.5-9.4-12.5-7.8c-3.2,1-5.1,3-4.7,6.5c0.5,3.8,2.9,6.2,6.7,5.4
			C293.3,1351.6,296.6,1349.6,300.2,1348.2z M203.5,1222.2c-5.3,4.9-7,10.2-7.1,15.7c0,1.9,2.7,3.9,4.2,5.8c1.6-1.5,3.9-2.6,4.5-4.4
			C206.9,1234.1,206.7,1228.9,203.5,1222.2z M292.3,1392.3c11.6,1.9,14.8-0.7,14.7-11.2C302.4,1384.6,297.9,1388.1,292.3,1392.3z
			 M108,1345.7c5-6,5.6-7.7,4.9-15.2C105.5,1336.5,104.4,1339.8,108,1345.7z M319.1,816.1c5.2-11.8,5.2-11.8,2-18.3
			C317.2,803.4,313.3,808.4,319.1,816.1z M73.1,1508.1c8.8-0.3,8.8-0.3,13.8-5c-3.4-1.2-6.3-3.2-8.8-2.7
			C76.4,1500.6,75.3,1504.3,73.1,1508.1z M250.5,916.4c0.8-6.5-0.3-10.4-3.4-14.7C242.4,908.1,247.1,911,250.5,916.4z M67,1929.4
			c-7.1,0.5-10.2,2.8-11.2,9C61.3,1938.1,64.8,1936.3,67,1929.4z M441.7,458.1c1.1-0.3,2.2-0.5,3.3-0.8c-0.9-4.5-1.9-9.1-2.8-13.6
			c-0.8,0.1-1.7,0.3-2.5,0.4C440.3,448.9,441,453.5,441.7,458.1z M456.5,560.1c2.7-3.7,6.6-6.9,7.2-13.3
			C457.9,550.3,456.6,554.9,456.5,560.1z M306.3,1176.8c-3.6,0.4-6.1,1-6,5.3C304.9,1183,306.1,1180.9,306.3,1176.8z M374,1104.1
			c-0.3-0.9-0.5-1.9-0.8-2.8c-2.2,0.5-4.3,1-6.4,1.7c-0.2,0.1-0.1,2.3,0.4,2.6C370.1,1107.3,372.6,1107,374,1104.1z M251.9,848.4
			c-0.2-0.7-0.4-1.4-0.6-2.2c-1.4,0.4-2.9,0.9-4.3,1.3c0.1,0.5,0.2,1,0.4,1.5C248.8,848.8,250.4,848.6,251.9,848.4z M36.6,1451.4
			c-0.7,0.2-1.5,0.5-2.2,0.7c0.4,1.3,0.8,2.7,1.4,4c0,0.1,1.5-0.5,2.3-0.7C37.6,1454,37.1,1452.7,36.6,1451.4z M433,454.1
			c0.5,0.1,1,0.2,1.5,0.3c0.3-1.9,0.6-3.8,0.9-5.7c-0.4-0.1-0.8-0.2-1.2-0.2C433.8,450.3,433.4,452.2,433,454.1z M397,1945.2
			c-1.2-0.5-2-1-2.7-1.1c-0.4,0-1.3,0.9-1.2,1.1c0.3,0.7,1,1.7,1.3,1.7C395.1,1946.8,395.8,1946,397,1945.2z M329.5,1658.8
			c0.4,0.4,0.8,1,1.2,1c0.4,0,0.8-0.7,1.2-1.1c-0.4-0.4-0.8-1.1-1.1-1.1C330.4,1657.7,330,1658.4,329.5,1658.8z M117.9,1627.3
			c-0.5-0.5-1.1-0.9-1.6-1.4c-0.7,0.9-1.6,1.7-2.2,2.6c-0.4,0.8-0.5,1.8-0.7,2.7c0.4,0.1,0.8,0.3,1.1,0.4
			C115.7,1630.1,116.8,1628.7,117.9,1627.3z M344.6,1059.9c-0.8-0.9-1.3-1.5-1.9-2c-0.4,0.5-1.2,0.9-1.2,1.5
			c-0.1,0.8,0.3,1.6,0.6,2.4C342.8,1061.3,343.5,1060.7,344.6,1059.9z M377.2,1008.2c0.3-0.3,0.7-0.7,1.1-1c-0.4-0.4-0.7-1-1.2-1.2
			c-0.2-0.1-0.7,0.6-1.1,1C376.3,1007.4,376.8,1007.8,377.2,1008.2z M407.6,733.5c-0.4-0.7-0.6-1.2-0.8-1.6
			c-0.8,0.4-1.5,0.8-2.2,1.4c-0.1,0.1,0.6,1.4,0.6,1.3C406,734.3,406.8,733.9,407.6,733.5z M212.1,1204.7c-0.3,0.5-0.8,1.1-0.7,1.5
			c0.1,0.4,0.8,0.7,1.3,1c0.3-0.5,0.8-1.1,0.7-1.5C213.3,1205.3,212.5,1205,212.1,1204.7z M478.1,591.2c0.3-0.5,0.6-0.9,0.9-1.4
			c-0.3-0.1-0.7-0.4-0.7-0.4c-0.4,0.4-0.7,0.9-1,1.3C477.6,590.9,477.9,591,478.1,591.2z M299.2,1993.8c0.4-0.4,0.7-0.7,1.1-1.1
			c-0.4-0.3-0.8-0.6-1.3-0.7c-0.1,0-0.6,0.5-0.5,0.6C298.7,1992.9,299,1993.3,299.2,1993.8z M1269.7,121.6c0.1-0.5,0.3-1,0.4-1.5
			c-0.5,0-1-0.1-1.6,0c-0.1,0-0.3,0.7-0.2,0.8C1268.8,121.2,1269.3,121.4,1269.7,121.6z"/>
		<path d="M268,3266c14-6.9,28.1-13.5,41.9-20.8c25.9-13.7,51.6-27.8,77.4-41.7c7.3-3.9,14.7-7.8,22.2-11.3
			c8.1-3.8,14.3-9.5,18.7-17.3c17.2-30.4,41.2-54.8,68.7-75.7c15.7-11.9,33.2-21.2,54.1-20.7c6.5,0.1,10.9-3.4,14.4-9
			c8.3-13.2,17.2-26,26-38.8c8.6-12.6,17.3-25.2,26.4-37.4c3.3-4.4,8.1-7.8,12.1-11.7c2.1-2,4.1-4.2,6.2-6.3
			c3.7-3.7,7.4-7.4,11.1-11c0.7-0.7,1.9-1,2.4-1.8c7.1-11.6,19.4-16.7,29.7-24.4c6.8-5.1,13.1-10.8,19.7-16.1
			c3-2.4,6.3-4.4,10.3-5.6c-6.8,10.7-8.8,24-21.9,30.6c-7.1,3.6-14,9.1-17.2,17.4c-0.7,1.8-2.1,3.6-3.6,4.7
			c-5.9,4.3-9.9,9.8-12,16.7c-0.5,1.5-1.7,2.9-2.8,4.1c-7.5,7.9-15.4,15.6-22.7,23.7c-7.6,8.4-16.2,15.6-24.5,23.2
			c-9.2,8.5-17,18.6-25,28.3c-1.8,2.2-3.2,6.2-2.5,8.8c0.5,1.8,4.7,3.3,7.4,3.7c9.4,1.5,17.7-0.2,23.7-8.9
			c3.5-5.2,8.3-9.5,12.4-14.2c3.3-3.8,7.1-4.6,11.6-2.2c2.1,1.1,4.2,2.1,6.3,3.1c4.4,2.3,9,2.4,13.5,0.3
			c12.1-5.8,23.8-12.1,28.6-26.1c1.6-4.7,5.4-7,10.3-5.6c7.7,2.2,13.4,0.1,19.9-5.1c12.4-10,26-18.4,39.2-27.3c1.9-1.3,4.1-2,6.2-3
			c1.2-0.5,3.1-0.8,3.5-1.6c4.4-11.4,16.7-12.8,24.6-19.8c5.9-5.2,12.8-9.2,19.1-13.9c6.6-5,13.8-9,19.1-15.8
			c2.7-3.4,8.4-5.7,12.9-6.1c5-0.5,8.9-1.6,12.3-5.2c3.2-3.4,6.8-6.4,10.3-9.4c1.2-1,2.8-2.4,4.2-2.4c9.4,0.4,13.1-4.9,13.5-14.2
			c6.8,1.7,13.5,3.3,17.8-2.6c3.4-4.7,5.6-10.4,8.6-16.3c4.2,2.5,7.7,4.7,11.4,6.7c8.6,4.7,16,1.3,23.2-3.5c1.1-0.7,1.9-1.9,2.8-2.8
			c6.3-5.7,8.5-5.5,13.4,1.5c0.9,1.3,1.7,2.7,2.5,4.1c11.7-4.7,14.1-2.6,17,14.1c0.6,0.1,1.5,0.4,1.9,0.2c8.4-6.6,8.4-6.6,16.1,0.5
			c3.1,2.9,6.3,5.7,10.4,9.4c0.6-3.4,0.9-5.5,1.5-7.6c0.6-2.1,1.6-4.1,2.4-5.9c1.4,0.1,2.5-0.1,2.7,0.2c4.2,7.2,9.3,7.9,16.5,3.8
			c4.4-2.5,8.3-0.5,10.2,5.1c-6.6,5.6-15.5,9.3-16.8,20.6c2.6-0.9,4.4-1.3,5.9-2.2c2.9-1.7,5.3-4.3,8.4-5.3c1.9-0.6,5.4,0.2,6.7,1.7
			c2.1,2.3,2.3,6.4-1.1,7.7c-5,1.9-7.8,4.7-7.7,10.1c0.2,7-0.2,14.1,6.1,19.2c2.8,2.3,5,5.3,8,8.6c1.6-1.9,2.9-3.6,4.7-5.8
			c7,2.6,13.7,2.1,19.7-3.6c2.2-2.1,5.9-2.7,9-3.5c5.1-1.2,10.3-2.1,15.5-2.8c8.5-1.2,11.6-6.5,12.3-14.4c0.6-7.2,1.4-7.6,10-9.1
			c-1,3.2-2,5.8-2.8,8.5c-1,3.8,0.3,6.9,4.1,7.9c4.1,1,8.4,1.3,12.6,1.3c4.6,0,9.1-0.7,14.2-1.2c0.7,7-11.2,14.3,1,19.6
			c2.2-3,4.3-6.1,6.6-9.1c10.7,8.4,15.3,25.2,10.7,36.5c-1.3,3.3-3.5,4.8-7,3.8c-2.5-0.7-4.9-1.6-8.4-2.7c0,3-0.3,5.1,0.1,7.2
			c1.2,7.2,0.7,8-6.5,8.8c-1.6,0.2-3.2,0.3-5.7,0.6c1.2,11.4-9,17-12.5,26.1c-1,2.6-2.8,5.4-2.6,8c0.5,4.8-1.4,8.1-5.5,9.5
			c-9.6,3.4-12,13-17.4,19.8c-2.9,3.6-0.1,8.3,4.8,8.4c3.1,0,6.3-1.5,9.4-2.6c3.2-1.1,6.4-2.5,9.8-3.9c2.9,14.6,2.2,15.6-9.1,21.5
			c-4.1,2.1-7.7,5.2-11.5,7.8c-4.4,3-8.6,6.1-13.1,9c-1.6,1.1-4.2,1.3-5.3,2.7c-7,9.8-17.7,13.7-28,18.2c-2.1,0.9-4.4,2.1-5.9,3.7
			c-9.5,10.3-22.1,13.9-35,17.3c-3.8,1-7.8,2.2-11.3,4c-8.1,4.4-8.6,11.9-1.6,17.7c7.2,6,7.5,6.9,2.2,14.5
			c-9.8,14.2-19.9,28.3-29.7,42.5c-2.3,3.3-3.9,6.9-6,10.3c-1.7,2.7-3.6,5.3-5.9,8.8c-8.2-8-16.9-6.3-25.4-3
			c-13,5.1-25.7,10.8-38.5,16.2c-172,0-344,0-516,0c10.2-7.4,20.5-14.8,30.7-22.2c2.7-2,5.9-4.2,3.7-8.1c-2.3-4.1-6.2-2.9-9.7-1.5
			c-1.2,0.5-2.4,1.1-3.6,1.8c-18.4,10-36.7,20.1-55.1,30.1C320,3266,294,3266,268,3266z M880.7,3054.7c0.8-5,1.7-7.9,1.7-10.7
			c0-3.2,0.3-7.4-1.4-9.5c-5.2-6.4-11-12.4-17.2-17.9c-7.5-6.6-15.8-12.2-23.4-18.6c-5.7-4.8-4.7-12.3,1.6-16.6
			c4.9-3.4,10.2-6.2,15-9.7c4-2.9,8-6,11.4-9.6c5.1-5.4,2.1-11.4-0.4-16.8c-2.4-5.3-5.9-6.6-12.4-5.6c-5.2,0.8-10.1,1.6-14.7,5.3
			c-4.8,3.9-11,5.7-14.6,11.5c-1.2,1.9-4.6,2.4-6.9,3.5c-2.1,1-4.8,1.4-6.2,3c-5,5.6-9.9,11.4-14.2,17.6
			c-3.9,5.7-7.4,11.1-15.6,10.2c-1.8-0.2-4.7,1.5-5.5,3.1c-7.9,14.9-21.5,24-34.2,33.7c-11,8.5-23.2,15.6-34.7,23.5
			c-7.1,4.9-13.9,10-20.7,15.2c-10.1,7.6-19.7,15.9-30.3,22.7c-8.1,5.2-11.4,11.8-13.5,20.9c-2.6,11.5-7.3,22.6-10.9,33.9
			c-0.7,2.3-0.4,4.9-0.6,7.3c2.8-0.1,6.4,0.9,8.1-0.5c5.5-4.2,11.8-8.4,15.1-14.2c8.5-14.9,20.6-26,33.9-36.1
			c9-6.8,18.3-13.2,27.7-19.4c10.2-6.8,20.6-13.3,31.1-19.7c2.2-1.3,5-1.6,7.6-2.3c2.2-0.6,5.1-0.5,6.6-1.8c5.6-5,12.2-4,18.8-4.3
			c1.8,10.7,0.7,20.7-4.2,30.2c-5.3,10.3-9.4,21.2-17.6,29.9c-5.6,5.9-3.7,10.8,4.3,11.2c7.9,0.4,16,0.3,23.7-0.9
			c13.1-2,26.2-4.4,38.4-10.1c2.9-1.4,6.6-2.4,9.7-1.8c9.3,1.6,17.6-2.3,25.8-4.7c8.8-2.6,16.7-8.2,25-12.4
			c16.1-8.1,30.6-19.4,48.1-25c2.1-0.7,4.7-3.4,4.9-5.4c0.1-1.9-2.2-4.7-4.2-5.9c-7.4-4.3-15-8.4-22.8-12c-2.8-1.3-6.6-1.8-9.6-1.2
			c-4.4,1-8.5,3.4-12.8,5.3C887.9,3051.3,885.1,3052.6,880.7,3054.7z M609.1,3186.9c12.1,4.6,18.9,2.7,24.7-6.2
			c1.3-1.9,2.5-3.9,3.8-5.8c2.1-3.4,3.1-6.9-0.4-9.8c-3.3-2.8-7.2-5.8-11.6-2.7C616.9,3168.3,612.3,3177.1,609.1,3186.9z
			 M519.6,3191.6c6.2,4.4,15.7,4.3,20.4-0.2c3.6-3.4,3.1-6.8-1.6-9.3C531.1,3178.1,524.7,3181.4,519.6,3191.6z M1114.9,2952.9
			c-0.1-3-3.6-5.1-5.5-3c-2.4,2.8-3.8,6.6-5.3,10.1c-0.2,0.4,1.5,2.2,2.5,2.4c2.8,0.7,6.9-3.3,8-7.6
			C1114.7,2954.3,1114.8,2953.6,1114.9,2952.9z M1140.5,2989.3c-5.3-3.7-8.2-2.7-10.5,2.5
			C1134.2,2994.3,1137.1,2993.6,1140.5,2989.3z M980.2,2919.9c4.2-0.8,7.8-1.2,8.1-6c0-0.6-1.3-1.9-1.9-1.9
			C982.3,2912.2,979.7,2914,980.2,2919.9z"/>
		<path d="M70,3266c8.6-10.6,17.1-21.2,25.7-31.8c1.7-2,3.6-4.5,5.9-5.3c12.9-4.5,20.1-16.1,30.4-23.9c4.4-3.4,5-8.5,5.9-13.4
			c3.5-19.3,6.8-38.7,10.5-58c3.7-19,9.2-37.6,18.1-54.8c10.7-20.9,25-39.3,43.2-54.3c5.1-4.2,10.2-8.6,14.8-13.4
			c2.2-2.3,4.1-5.5,4.7-8.5c3.3-16.2,12.4-29.4,21.9-42.2c17.1-22.9,34.7-45.5,52-68.3c5.4-7.1,10.8-14.3,16.5-21.2
			c1.3-1.5,4.6-3.3,5.7-2.7c3,1.7,7.1,4.3,7.4,7c0.7,6.1,0.9,13.1-1.5,18.5c-8.8,19.8-18.7,39-28.2,58.4c-2,4.2-4.4,8.3-5.9,12.6
			c-2,5.7-0.6,7.9,5.5,9c2.6,0.5,5.3,0.3,8,0.5c6.6,0.5,8.6,1.7,8.7,8.3c0.2,8.2-0.9,16.5-1.7,24.7c-0.3,3.2-1,6.4-1.6,9.9
			c6.1,1.9,9.9-0.6,13.1-4.1c5.8-6.4,11.2-13.2,17.1-19.5c25.4-27.3,50.8-54.4,75.2-80.5c6.3,2,11.6,5.2,16.4,4.7
			c4.7-0.5,10-4.2,13.3-7.9c10.6-11.8,20.4-24.4,30.7-36.6c3.4-4,4.8-8.4,5.1-13.7c0.5-8.5,1.1-7.6,8.6-11
			c14.3-6.6,29.1-12.9,37-28.4c3.1-6.1,7.8-11.8,12.8-16.5c7-6.5,5.2-14.6,5.7-22.3c0.1-1.4-2.7-4.3-4.3-4.4
			c-8.3-0.5-16.2-0.4-22.6,7.2c-8.7,10.4-18.9,19.6-27.9,29.8c-5.9,6.7-9.7,15.5-16.3,21c-6.5,5.4-15,8.1-20.7,15.2
			c-3.6,4.5-8.9,7.7-14.6,12.6c0-2.9-0.4-4.3,0.1-5.2c9.1-15.5,18.2-30.9,27.6-46.2c4.5-7.3,9.8-14.2,14.8-21.3
			c2.1-3,4.1-6.1,6.7-8.7c15.8-15.6,28.6-33.8,43.5-50.2c5.5-6.1,8.9-14,14.1-20.4c4.1-5,8.5-9.2,7.6-16.3c-0.2-1.2,1.3-3.4,2.5-4
			c5.4-2.7,8.7-6.8,10.4-12.6c1.2-4.1,4.6-5.9,8.7-4.3c7,2.7,15.5-0.4,21.7,5.8c0.8,0.8,3.5-0.3,6.8-0.6c-2.5,5.1-4.4,9.1-6.1,12.7
			c-6.2,0.4-7.8-9.6-15.4-3.8c1.2,2.1,2.8,4.1,3.4,6.4c0.6,2.4,0.1,5,0.1,8.2c1.3,0.9,3.4,2.4,5.7,3.9c-0.6,1.7-0.8,3-1.5,4
			c-2.9,4.4-6.7,8.4-8.9,13.1c-5.3,11.5,1.9,21,14.4,19.7c2.6-0.3,5.3-0.9,7.9-1.1c4.3-0.4,7.7-2,9.4-6.3c2.5-6.3,7.6-8.9,14-9.6
			c2-0.2,4.4-0.2,5.8-1.3c8.9-7.2,19.4-9.8,30.3-11.7c6.7-1.2,13.4-2.6,20.2-3.5c1.2-0.2,3.6,1.3,3.8,2.3c0.3,1.6-0.4,4.5-1.5,5
			c-9.1,4.5-8.1,11.1-4.4,17.4c-3,8.3-5.8,15.8-8.3,23.3c-0.7,2.1-1.3,5.1-0.3,6.7c3.6,5.7,7.8,11,12.5,17.5c1.3-3.2,2.1-5.5,3-7.6
			c3.1-0.5,3.5,0,7.6,8.6c-1.2,7-2.1,12.6-3,18c-15.5,7.4-31.3,14.9-47,22.6c-3.8,1.9-7.3,4.7-10.7,7.2c-7.8,5.8-16.1,8.9-26.1,7.5
			c-5.2-0.7-10.8,1.1-15.8-0.1c-14.2-3.3-28.9-4-42.5-10c-2.5-1.1-6-1.1-8.7-0.3c-8,2.2-16.1,4.1-21.4,11.7c-2,2.8-5.9,4.2-8.7,6.6
			c-3.2,2.8-6.7,5.6-9,9.1c-3.3,5-1,9.1,5,9.7c3.3,0.4,6.7,0.4,10,0.2c7.3-0.6,12.8,2.3,17.5,7.7c6.8,7.8,16.6,9.7,25.7,5.2
			c3-1.5,5.7-3.5,8.7-4.9c4.5-2.2,9-3.9,14.3-1.6c10.5,4.6,13.1,8.6,7.1,18.3c-10,16-15.8,34.5-28.7,48.8c-1.3,1.5-2.6,3.1-3.5,4.8
			c-12.9,23.3-32.4,40.2-53.7,55.2c-14.9,10.5-30.3,20.3-46.4,29c-12,6.4-24.9,8.9-37.7,12.5c-18.9,5.3-38,6.9-57.3,3.8
			c-13.5-2.2-23.2,2.6-29.9,14.6c-9,15.9-18.5,31.6-27.8,47.4c-0.5,0.9-1.1,1.7-1.5,2.6c-1.6,3-3.1,6.2-0.3,9.2
			c3.2,3.4,6.7,1.8,10-0.1c5-2.7,9.8-5.8,14.9-8.2c14.4-6.9,28.9-13.6,43.4-20.2c1.8-0.8,3.8-1.5,5.7-1.7c6-0.4,8.9,3.6,6,8.8
			c-3.2,5.8-6.6,11.8-11.2,16.5c-25.6,26.4-53.1,50.5-86.4,66.9c-7.1,3.5-14.6,6.5-22.1,9.2c-6.9,2.6-12.1,6.6-15,13.6
			c-2.3,5.5-5.5,10.5-9.4,17.8c-0.7-4.1-0.8-6.4-1.6-8.6c-0.8-2.3-1.8-5.6-3.4-6.1c-1.8-0.5-4.9,1.1-6.6,2.8
			c-2.8,2.7-5.1,6.1-7.4,9.4c-13.2,18.1-28,34.7-45.7,48.6C143.3,3266,106.7,3266,70,3266z M258.7,3118c-3.4,2.6-6.6,4.4-9.1,6.9
			c-15.4,14.6-30.7,29.4-45.9,44.1c-3.6,3.5-7,7.1-10.3,10.8c-2.3,2.5-4.6,5.9-1.7,8.7c1.6,1.5,5.4,1.6,8,1
			c5.5-1.2,10.8-3.4,16.2-4.9c15.1-4.2,25.3-15,35.6-25.8c1.1-1.1,1.6-2.9,2.1-4.5c2.8-8.2,5.6-16.3,8.3-24.5
			C263,3125.9,263.2,3122.1,258.7,3118z M680.8,2726.8c-3.4-2.5-5.4-4.8-7.7-5.3c-1.3-0.3-4.5,2.1-4.7,3.5c-0.4,3.8,3.1,4.7,6,4.8
			C675.9,2729.9,677.5,2728.4,680.8,2726.8z M655.9,2731.4c0.3-0.5,0.6-0.9,0.8-1.4c0.1-0.2-0.4-0.7-0.5-0.7
			c-0.5,0.2-0.9,0.5-1.3,0.7C655.2,2730.5,655.6,2731,655.9,2731.4z"/>
		<path d="M2446,718c-3.2-14.3-6.7-28.5-9.7-42.8c-10.4-49.9-20.6-99.8-31-149.7c-11.5-55.1-22.9-110.2-34.8-165.2
			c-18-83.3-36.4-166.6-54.8-249.8c-4.4-19.8-9.1-39.6-13.7-59.4c-2.5-10.8-4.8-11.8-16.2-10c-24.3,3.9-48.6,8.1-73.1,10.7
			c-16.8,1.8-33.7,0.1-50.1-6c-5.6-2.1-12.4-1.1-18.6-1.1c-6.4,0-8.1-1.1-7.3-7.2c0.7-5.2,1.4-9.7-3.5-13.5
			c-5.3-4.1-11.7-4.9-17-2.6c-8.2,3.5-15.6,2.2-23.3-0.3c-16.4-5.2-32.8-10.6-49.2-16.1c-1.5-0.5-2.6-2-3.9-3c116,0,232,0,348,0
			c0.3,3.5,1.5,6.5,5.6,6.3c3.7-0.2,4.2-3.3,4.4-6.3c16,0,32,0,48,0C2446,240.7,2446,479.3,2446,718z M2387.2,15.4
			c-0.3-5.4-3.1-7.6-7.1-7.1c-3.2,0.4-6.3,1.6-5.7,5.4c0.6,3.6,3.5,6.1,7.1,5.5C2383.9,18.9,2385.9,16.4,2387.2,15.4z"/>
		<path d="M-2,2486c10.4-3.3,16.6-9.9,19.3-20.8c4.3-17.4,14.4-32.2,23.9-47c20.8-32.3,46.9-60.4,71.8-89.5
			c9.2-10.8,19.8-20.2,31.3-29.1c-4.3,6.9-8,14.4-13.1,20.6c-16.6,20.2-26.5,43.6-33.1,68.6c-0.8,3-2,5.9-2.9,8.5
			c-2,0-2.8,0.3-3.2,0c-10.5-6.6-14.2-6-21.8,3.3c-16.3,20.2-31.1,41.5-44.2,64c-2,3.5-4.9,6.8-1.1,10.7c3.5,3.7,7.7,5.3,12.6,2.6
			c14.3-7.6,30-10.6,45.7-14.1c4.1-0.9,8.3-4.2,11.2-7.5c3.4-3.9,5.4-9.1,8.3-14.4c11.9,2.9,20.2-4,28-12.2c3.9-4.1,8-8,12.3-11.7
			c12.7-11,23.4-23.5,31.2-38.4c2.1-4,4.9-7,10.2-6.3c5.6,0.7,9-2.6,12.3-6.9c12-15.5,24.9-30.4,40.1-42.7
			c9.9-8,20.6-15.8,33.4-19.3c4.3-1.2,8.3-2.7,11.9,1.5c1,1.1,2.8,1.6,4.4,1.9c6.5,1.3,13,2.4,19.5,3.5c1.6,0.3,3.4,0.9,4.9,0.4
			c10.1-2.9,20.1-6,30.2-9c2.8-0.8,5.8-1.6,8.7-1.9c7.1-0.7,7.2-0.6,13.7-6.1c8.6,3.7,16.2-0.9,24.5-4.5c1.5,1.2,3,2.5,4.5,3.6
			c3.7,2.6,9.3,3.7,9.7,9.2c0.5,6.9,1.2,14.1-0.3,20.7c-1.5,6.9-7.5,9.4-14.7,9.4c-7.8,0-9.1,1.7-6.4,8.8c2,5.3,5.3,10.1,8.2,15.7
			c-1.7,0.5-4.2,1.1-6.6,1.9c-4.9,1.7-9.2,4.1-10.4,9.7c-1.2,5.2-5,7.4-9.6,9.2c-8.4,3.3-16.5,6.9-20.8,15.9
			c-1.3,2.7-4.9,4.4-7.7,6.1c-8.2,5-16.6,9.8-24.9,14.7c-2,1.2-4,3.2-6,3.3c-10.9,0.5-19.1,7.1-28.4,11.3c-2.4,1.1-4.9,2.9-7.3,2.9
			c-10.8-0.3-20.8,4-31.2,5.6c-9.3,1.4-18.9,1.3-29.4,2c2.6-4.4,7-7.8,3.6-13.3c-6.8-2.6-13.9-2.4-20.5,1.6
			c-7.6,4.6-14.9,9.6-23.4,15.1c4.1,4.6,6.7,8.4,10.2,11.2c7.7,6.1,12.2,13.9,13.8,23.5c0.7,4.3,2,8.5,2.1,12.8
			c0.2,3.8,0.1,8.1-1.5,11.5c-3.4,7.5-7.5,14.8-12,21.8c-2.7,4.2-3.3,7.6-0.1,11.7c2.4,3.1,4.2,6.8,6.5,10.1
			c3.6,5.2,3.2,10.1-1,14.5c-13.1,14.2-24.7,30.1-39.7,41.8c-20.6,16.1-44,28.3-70.6,33.1c-9.6,1.8-18.9,4.5-28.1,0.1
			c-7.1-3.3-14-7.3-20.2-12c-8.8-6.7-15.8-15-19.4-26c-1.1-3.2-5.4-5.4-8.3-8.1c0-1.3,0-2.7,0-4c4.4-3.9,10.1-6.8,12.4-14.7
			c-4.9,0.3-8.6,0.5-12.4,0.7C-2,2543.3-2,2514.7-2,2486z"/>
		<path d="M1012,3266c9.2-5.1,16-12.8,22.5-20.8c1.2-1.5,2.4-3.2,3.1-5c3.4-8.6,6.6-17.3,9.9-26c0.8-2.2,1.7-4.4,3-6.3
			c10.6-14.9,21-30.3,36.1-40.7c9.3-6.4,20.7-10.5,31.7-13.4c4.9-1.3,11.4,2.2,16.9,4.3c7.3,2.9,14.2,7,21.6,9.7
			c3.1,1.1,7.2,0.5,10.6-0.2c14.3-3.2,28.5-6.1,43.2-2.8c2.8,0.6,6-0.3,8.9-0.1c6.2,0.4,12.5,1.1,18.7,1.7c3.9,0.4,7.9,0.9,11.8,1.2
			c7.2,0.6,9.3,2.5,10.1,9.6c1.3,11.5,5.8,15.1,17.2,13.2c4.5-0.8,9-2.1,13.2-3.9c21.3-9.2,42.8-16.5,66.6-12
			c4.5,0.9,9.3-0.1,13.9,0c6.6,0.2,9.4,3.2,7.8,9.6c-4.6,18.2-11.8,34.9-24.8,49.3c-10.3,11.3-21,22.2-32.2,32.5
			C1218.7,3266,1115.3,3266,1012,3266z"/>
		<path class="st0" d="M-2,2026c0.7-0.7,1.7-1.3,2.1-2.1c5.3-12.1,15.8-17.5,27.8-20.3c24.1-5.7,43.4-19.9,62.3-34.8
			c13.5-10.7,27.1-21.6,37.3-35.8c1.9-2.7,3.7-5.6,4.6-8.8c2.4-9,8.6-14.7,15.8-19.9c5-3.7,9.7-7.9,14.3-12.2
			c4.9-4.5,9.7-9.1,14.2-14c5.7-6.2,12.2-11.4,16.9-19.1c6.5-10.7,17.8-17.3,29.8-21c1.2,1.5,2,2.2,1.9,2.5
			c-3.5,9-4.5,18.9-12.1,26.4c-3.4,3.3-3.8,9.5-6.2,14c-2.2,4-8.3,5.6-7.4,13.9c3.3-3.6,5.4-5.9,7.6-8.1c1.8-1.9,3.4-4.4,5.6-5.5
			c1.7-0.9,4.9-1,6.4,0c1.5,1,2.8,4.2,2.3,5.9c-1.9,5.9-5.3,11.2-3,18.1c0.5,1.6-2.2,4.6-4,6.5c-10.6,11.5-21,23.2-32.3,34
			c-17,16.4-34.5,32.2-52.2,48c-8.9,8-18.8,14.9-27.7,22.9c-17.4,15.5-34.3,31.5-51.6,47.1c-4.1,3.7-8.7,7.3-13.7,9.7
			c-13.6,6.4-26.8,13.3-38.7,22.5c0-12,0-24,0-36c6.9-3.4,12.3-8.2,16.2-15.9c-7.1-0.5-11.5,3.2-16.2,5.9C-2,2042-2,2034-2,2026z"/>
		<path d="M-2,3116c10.5-8.4,21.7-14.9,35.1-18.2c5.3-1.3,9.9-6.3,14.4-10c3.9-3.2,7.4-6.9,11.1-10.4c0.6,0.6,1.3,1.2,1.9,1.8
			c-5.4,6.9-10.5,14.2-16.3,20.8c-8.6,9.8-8.2,21.8-10.1,33.2c6.2,3.4,8.8-0.7,11.8-3.6c12-11.5,23.8-23.3,36.1-34.4
			c5.9-5.3,12.8-9.5,19.6-13.7c3.5-2.1,7.8-2.9,13.5-4.9c-0.9,3.9-0.9,6.3-1.9,8c-7.8,13.1-15.8,26.1-23.7,39.2
			c-1,1.7-2.5,3.2-3.5,4.9c-2.4,4.2-1.1,7.1,3.7,7.8c4.3,0.7,8.7,0.2,12.9,1.2c8.3,2,10.1,6.3,6.5,14c-0.6,1.2-1.5,2.2-2.1,3.4
			c-3.8,7.4-3.1,9,5.8,12.4c-18,31.2-38.9,60.1-61.6,88.3c0.6-2,1-4,1.7-5.8c7.1-18.1,17.2-34.4,28-50.5c1.7-2.6,2.9-5.6,4.3-8.4
			c-6.1-4.3-9.8-0.9-13.4,1.8c-10.3,7.8-20,16.9-31.1,23.3c-11,6.4-15.4,13.2-12.3,26.3c1.7,7.3-1.4,15.6-2.3,23.5
			c-9.3,0-18.7,0-28,0C-2,3216-2,3166-2,3116z"/>
		<path d="M228,3266c3.7-11.6,7.5-23.1,11.3-35c2.8,4.1,5.2,7.5,8.2,11.8c31.4-23.8,58.5-52,95.1-70.3c-1.2,3-1.3,4.4-2.1,5.1
			c-15.3,13.3-30.7,26.4-46,39.7c-14.1,12.2-28.2,24.3-42,36.8c-3.5,3.2-5.7,7.9-8.6,11.9C238.7,3266,233.3,3266,228,3266z"/>
		<path class="st0" d="M346,3266c18.4-10,36.7-20.1,55.1-30.1c1.2-0.6,2.3-1.3,3.6-1.8c3.5-1.4,7.4-2.6,9.7,1.5
			c2.2,3.9-1,6.1-3.7,8.1c-10.2,7.4-20.4,14.8-30.7,22.2C368.7,3266,357.3,3266,346,3266z"/>
		<path class="st0" d="M-2,2136c13.8-10.9,27.6-21.8,41.5-32.6c3-2.3,6.5-4.1,11.2-7.1c0.3,8.5-3.1,13.3-7.4,17.3
			c-7.6,6.9-15.6,13.4-23.3,20.2c-7.4,6.6-14.7,13.4-22,20.1C-2,2148-2,2142-2,2136z"/>
		<path d="M-2,2050c4.8-2.7,9.2-6.4,16.2-5.9c-3.9,7.7-9.4,12.5-16.2,15.9C-2,2056.7-2,2053.3-2,2050z"/>
		<path class="st0" d="M-2,2572c3.8-0.2,7.5-0.4,12.4-0.7c-2.3,7.9-8,10.8-12.4,14.7C-2,2581.3-2,2576.7-2,2572z"/>
		<path class="st0" d="M2398,2c-0.2,3-0.7,6.1-4.4,6.3c-4.1,0.2-5.3-2.8-5.6-6.3C2391.3,2,2394.7,2,2398,2z"/>
		<path d="M443.6,2299.6c-6,7.6-11.9,10.5-20.1,7.7c-1.6,3.4-2.9,6.2-4.4,9.3c-5.3-2.3-7.3-6.4-7.6-11.1c-0.2-2.7,0.2-7.1,1.8-7.9
			c2.9-1.5,8.2-2.4,10.1-0.7c5.2,4.5,9.8,4.3,15.2,1.4C439.3,2297.9,440.8,2298.9,443.6,2299.6z"/>
		<path d="M371,1664.6c-2.8-6.2-3.4-11.6,2.4-16.2c3.7-2.9,5-6.7,5.2-11.3c0.1-2.7,0.9-5.5,2.6-8.1c2.5,9.7,1.7,19.2-1.4,28.5
			C378.5,1661.3,376,1664.2,371,1664.6z"/>
		<path d="M1578.8,181.6c0.4,3.7-1.3,5.7-5,5.8c-5.1,0.1-8.6-4.2-8.6-10.1c0-4.5,3-5.6,6.6-5.7
			C1576.4,171.5,1578.7,174.8,1578.8,181.6z"/>
		<path d="M1173,2962.3c-0.6-1.1-2.1-2.7-2.1-4.2c0.2-4.2,3.1-6.6,7.2-6.7c1.3,0,3.6,2,3.7,3.3
			C1182.2,2957.9,1177,2962.5,1173,2962.3z"/>
		<path d="M914.6,2866.8c5.4,3.7,9.5,6.6,9.9,12.7C916.6,2878.8,914.2,2876,914.6,2866.8z"/>
		<path d="M596,1908c-3.5-3.2-4.2-5.7-1.1-8.2c0.5-0.4,2.2-0.3,2.7,0.3C600.2,1903,599,1905.3,596,1908z"/>
		<path d="M306.3,2216.5c-2.8,2.1-5.6,4.3-9.7,7.4C298.2,2216.2,298.2,2216.2,306.3,2216.5z"/>
		<path d="M1598.9,178.6c0-2.5,0-5,0-8.4C1602.5,174.1,1602.5,174.1,1598.9,178.6z"/>
		<path d="M394.6,1621c-1.2-0.8-1.9-1.3-2.5-1.8c0.8-1.1,1.6-2.2,2.4-3.3c0.6,0.6,1.8,1.2,1.8,1.7
			C396.2,1618.6,395.4,1619.6,394.6,1621z"/>
		<path d="M422.1,851.6c1.3,1.8,2.7,3.6,4.8,6.5C421.6,858.3,420.7,856,422.1,851.6z"/>
		<path d="M427,709.3c1.4-0.5,2.9-1,4.3-1.5c0.2,0.6,0.6,1.6,0.6,1.7c-1.4,0.6-2.8,1.2-4.2,1.7C427.4,710.6,427.2,709.9,427,709.3z"
			/>
		<path d="M426,887c-0.7-1.4-1.4-2.4-1.6-3.4c-0.1-0.3,1.7-1.4,1.9-1.3c0.8,0.7,1.6,1.6,2,2.6C428.3,885.2,427.1,886,426,887z"/>
		<path d="M459.5,1605.7c-0.5-1.4-1.1-2.8-1.4-4.3c-0.1-0.3,0.9-1.3,1-1.3c1.1,0.7,2.2,1.5,3.3,2.3
			C461.4,1603.5,460.4,1604.6,459.5,1605.7z"/>
		<path d="M409.6,1621.3c-1.1,1-1.7,1.6-2.3,2.1c-0.6-0.7-1.5-1.2-1.7-2c-0.1-0.7,0.6-1.5,0.9-2.3
			C407.4,1619.8,408.3,1620.4,409.6,1621.3z"/>
		<path d="M2126.1,56.3c-1.1-1.7-2.1-2.6-1.9-3.1c0.3-0.7,1.2-1.5,2-1.7c0.4-0.1,1.6,1.1,1.6,1.7C2127.8,54,2127,54.9,2126.1,56.3z"
			/>
		<path d="M1478,2838.3c-0.8-1.1-1.5-2.2-2.3-3.3c0.8-0.7,1.6-1.5,2.4-2.2c1,1,2,2,3.1,3C1480.1,2836.6,1479,2837.4,1478,2838.3z"/>
		<path d="M321,1365.8c-0.6,0.6-1,0.9-1.4,1.3c-0.6-0.6-1.2-1.2-1.6-2c-0.1-0.1,1-1.1,1.1-1C319.7,1364.6,320.3,1365.2,321,1365.8z"
			/>
		<path d="M994.4,2890.3c-0.3-0.5-0.5-0.9-0.8-1.4c0.5-0.2,1-0.8,1.4-0.6c0.4,0.1,0.5,0.8,0.8,1.3
			C995.4,2889.8,994.9,2890,994.4,2890.3z"/>
		<path d="M973.9,2876.7c-0.4,0.4-0.8,0.8-1.1,1.2c-0.4-0.4-0.8-0.8-1.1-1.1c0.4-0.4,0.8-1,1.2-1.1
			C973.2,2875.7,973.6,2876.4,973.9,2876.7z"/>
		<path d="M1121.5,2936.7c-0.3,0.4-0.6,0.9-0.9,1.3c-0.4-0.4-0.8-0.8-1-1.2c-0.1-0.1,0.4-0.7,0.5-0.7
			C1120.5,2936.2,1121,2936.5,1121.5,2936.7z"/>
		<path d="M420.1,1617.1c-0.3-0.4-0.6-0.8-0.8-1.3c0-0.1,0.5-0.6,0.7-0.5c0.5,0.2,1,0.5,1.4,0.7
			C420.9,1616.4,420.5,1616.7,420.1,1617.1z"/>
		<path d="M718,2908.1c-0.4-0.3-0.9-0.5-1.3-0.8c0.4-0.5,0.7-1.1,1.2-1.3c0.2-0.1,0.8,0.5,1.3,0.7
			C718.8,2907.2,718.4,2907.6,718,2908.1z"/>
		<path d="M1057.7,2903.3c0.4-0.4,0.8-0.7,1.2-1c0.3,0.4,0.6,0.8,0.8,1.3c0,0.1-0.4,0.6-0.5,0.6
			C1058.6,2903.9,1058.2,2903.6,1057.7,2903.3z"/>
		<path d="M281.6,2234.8c-0.3,0.5-0.6,1-0.9,1.4c0,0-0.5-0.3-0.8-0.4c0.3-0.5,0.6-1,0.9-1.4C280.9,2234.3,281.4,2234.6,281.6,2234.8
			z"/>
		<path d="M1465,2870.6c-0.2-0.1-0.4-0.3-0.6-0.4c0.3-0.2,0.7-0.5,1-0.7c0.1,0.2,0.3,0.5,0.2,0.7
			C1465.5,2870.4,1465.2,2870.5,1465,2870.6z"/>
		<path d="M408.5,2333.7c-0.2-0.5-0.4-0.9-0.7-1.4c0.5-0.1,1-0.2,1.5-0.2c0.1,0,0.4,0.6,0.4,0.7
			C409.4,2333.1,408.9,2333.4,408.5,2333.7z"/>
		<path d="M424.6,942c-0.4,0.3-0.7,0.7-1.1,1c-0.2-0.5-0.5-0.9-0.6-1.4c0-0.2,0.5-0.6,0.5-0.6C423.8,941.3,424.2,941.7,424.6,942z"
			/>
		<path class="st0" d="M68,1495.7c-0.3,2.3-0.1,3.8-0.7,4.8c-7.1,10.7-13.4,22.1-24.4,29.8c-5.7,4-10.6,9-16.2,13.2
			c-6.5,4.8-17.9,2.4-21.4-4.6c-0.9-1.9-0.6-5.6,0.7-7.2c7.6-9.6,15.6-18.9,23.6-28.1c1.5-1.7,3.6-3.4,5.7-3.8
			C46,1497.8,56.6,1495.5,68,1495.7z"/>
		<path class="st0" d="M122.8,1234.9c7.4-5.3,13.2-10.2,19.8-13.7c10.9-5.9,20.2-13.8,29.4-21.8c2.8-2.5,5.7-5.5,9.6-3.1
			c4.7,2.9,9.5,6,12.9,10.2c2.4,2.9-1.7,9-7,11.7c-4.7,2.4-9.7,4.3-14.5,6.7c-9.1,4.7-18.3,9.4-27.1,14.7c-4.6,2.8-8.2,3.5-12.6,0.2
			C130.9,1237.9,127.6,1237.1,122.8,1234.9z"/>
		<path class="st0" d="M236,1229.1c3.4-15.8,6.9-31.6,10.4-47.4c0.3-1.2,1.1-2.5,2-3.3c7.1-5.9,14.3-11.8,21.7-17.4
			c1.5-1.2,4.8-1.9,6.1-1c1.4,0.9,2.2,4.1,1.8,6c-1.1,4.8-2.5,9.7-4.7,14.1c-10.9,21.1-13.3,27.8-35.2,49.7
			C237.5,1229.6,236.7,1229.3,236,1229.1z"/>
		<path class="st0" d="M183.9,1229c-2.8,12.2-10.2,20.9-21.6,26.3c-8.4,4-17,7.5-25.6,11.2c-3.1,1.3-6.6,2.5-8.5-1.7
			c-1.8-4,0.9-6.1,3.9-8c13.8-8.6,27.5-17.3,41.4-25.9c2.7-1.7,5.8-2.7,8.7-4.1C182.7,1227.5,183.3,1228.3,183.9,1229z"/>
		<path class="st0" d="M198.3,1844.6c-12.5,11.4-27.9,17.2-42.7,24.1c-2.7,1.2-5.9,1.3-9.5,0.7c5.1-10.2,12.2-18.3,21.2-24.1
			C176.6,1839.3,187.4,1840.8,198.3,1844.6z"/>
		<path class="st0" d="M309.3,1060.9c-3.6,7-7.1,14.2-10.9,21.1c-5.3,9.6-10.4,19.3-12.4,30.3c-0.3,1.6-0.8,3.3-1.7,4.6
			c-1.9,3-4.3,2.8-6.6,0.5c-4.3-4.2-6.1-13-2.7-18.3c7.6-11.6,15.7-23,24.1-34.1c2-2.7,5.9-3.9,8.9-5.8
			C308.4,1059.8,308.8,1060.4,309.3,1060.9z"/>
		<path class="st0" d="M183.5,1491.7c5,4.9,6,7.7,2.5,12.7c-6.6,9.5-13.7,18.8-21,27.8c-1.8,2.2-5.2,3-9.9,5.5
			C160,1517.9,167.6,1502.6,183.5,1491.7z"/>
		<path class="st0" d="M81.7,1563.8c2.4-3,3.5-5,5.2-6.3c6.3-4.8,12.9-9.3,19.2-14.1c3.6-2.7,7.1-3.3,10.8-0.2
			c3.7,3.3,1.7,6.6,0,9.8c-0.9,1.7-2,4.1-3.5,4.6c-8.3,3-16.8,5.6-25.4,8.1C86.7,1566.2,85,1564.9,81.7,1563.8z"/>
		<path class="st0" d="M484,1826.8c-0.5-2.9-1.5-4.9-0.9-5.8c5.5-7.7,11.3-15.3,17.1-22.8c0.8-1,2.1-1.7,3.2-2.2
			c4.2-1.9,7.4,0.2,6.8,4.9c-0.3,2.5-1.3,5.2-2.6,7.4C502.1,1816.9,493.5,1821.4,484,1826.8z"/>
		<path class="st0" d="M51.2,2248.9c1.3-11.4,6-18,13-22.8c1.9-1.3,5.4-0.1,8.2-0.1c-0.3,2.7,0.4,6.3-1.1,8.1
			C66.3,2240,60.8,2245.7,51.2,2248.9z"/>
		<path class="st0" d="M445.3,603.5c2.2-1.9,4-3.3,5.7-4.8c9.2-7.9,10-7.8,16.7,2.6C456.9,612.7,453,613.3,445.3,603.5z"/>
		<path class="st0" d="M1249.9,207.7c-8.8-9.9-7.7-18.9,2.4-23.9C1257.8,190.9,1257.1,198.5,1249.9,207.7z"/>
		<path class="st0" d="M139.9,1573.3c0.6-11.2,7.1-16.1,15.9-19.4C159.8,1566.3,156.5,1570.5,139.9,1573.3z"/>
		<path class="st0" d="M339.4,839.5c-6.4-7.2-3.5-15.1,8.1-20.1c0.3,11.8-3.3,21.5-11.9,29.5C336.8,846,337.9,843.2,339.4,839.5z"/>
		<path class="st0" d="M300.2,1348.2c-3.6,1.5-6.9,3.4-10.5,4.1c-3.8,0.8-6.2-1.6-6.7-5.4c-0.4-3.5,1.5-5.5,4.7-6.5
			C292.7,1338.8,295.8,1340.5,300.2,1348.2z"/>
		<path class="st0" d="M203.5,1222.2c3.2,6.7,3.5,12,1.7,17.1c-0.6,1.8-3,3-4.5,4.4c-1.5-1.9-4.3-3.9-4.2-5.8
			C196.5,1232.4,198.1,1227.1,203.5,1222.2z"/>
		<path class="st0" d="M292.3,1392.3c5.6-4.2,10.1-7.7,14.7-11.2C307,1391.6,303.8,1394.2,292.3,1392.3z"/>
		<path class="st0" d="M108,1345.7c-3.6-5.9-2.6-9.1,4.9-15.2C113.6,1337.9,113,1339.7,108,1345.7z"/>
		<path class="st0" d="M319.1,816.1c-5.8-7.6-1.9-12.7,2-18.3C324.4,804.2,324.4,804.2,319.1,816.1z"/>
		<path class="st0" d="M73.1,1508.1c2.3-3.7,3.3-7.5,5-7.8c2.5-0.5,5.4,1.5,8.8,2.7C81.9,1507.8,81.9,1507.8,73.1,1508.1z"/>
		<path class="st0" d="M354.8,1671.5c-5.5-0.4-11-0.8-17.3-1.3c1.9-6.7,6-6.4,9.5-4.8c2.9,1.3,5,4.1,7.5,6.2
			C354.6,1671.7,354.8,1671.5,354.8,1671.5z"/>
		<path class="st0" d="M250.5,916.4c-3.3-5.4-8.1-8.3-3.4-14.7C250.1,906,251.3,909.9,250.5,916.4z"/>
		<path class="st0" d="M67,1929.4c-2.2,6.9-5.7,8.7-11.2,9C56.8,1932.2,59.9,1929.9,67,1929.4z"/>
		<path class="st0" d="M441.7,458.1c-0.7-4.6-1.3-9.3-2-13.9c0.8-0.1,1.7-0.3,2.5-0.4c0.9,4.5,1.9,9.1,2.8,13.6
			C443.9,457.6,442.8,457.9,441.7,458.1z"/>
		<path class="st0" d="M456.5,560.1c0.1-5.2,1.4-9.8,7.2-13.3C463.1,553.2,459.2,556.4,456.5,560.1z"/>
		<path class="st0" d="M306.3,1176.8c-0.2,4.2-1.4,6.2-6,5.3C300.2,1177.8,302.7,1177.1,306.3,1176.8z"/>
		<path class="st0" d="M374,1104.1c-1.5,3-3.9,3.2-6.8,1.5c-0.5-0.3-0.6-2.5-0.4-2.6c2.1-0.7,4.3-1.2,6.4-1.7
			C373.5,1102.2,373.8,1103.1,374,1104.1z"/>
		<path class="st0" d="M251.9,848.4c-1.5,0.2-3,0.4-4.6,0.7c-0.1-0.5-0.2-1-0.4-1.5c1.4-0.4,2.9-0.9,4.3-1.3
			C251.5,846.9,251.7,847.7,251.9,848.4z"/>
		<path class="st0" d="M36.6,1451.4c0.5,1.3,1,2.7,1.5,4c-0.8,0.3-2.2,0.8-2.3,0.7c-0.6-1.3-1-2.6-1.4-4
			C35.1,1451.9,35.9,1451.6,36.6,1451.4z"/>
		<path class="st0" d="M433,454.1c0.4-1.9,0.8-3.8,1.2-5.7c0.4,0.1,0.8,0.2,1.2,0.2c-0.3,1.9-0.6,3.8-0.9,5.7
			C434,454.3,433.5,454.2,433,454.1z"/>
		<path class="st0" d="M397,1945.2c-1.2,0.9-1.8,1.7-2.5,1.8c-0.4,0.1-1.1-1-1.3-1.7c-0.1-0.2,0.8-1.1,1.2-1.1
			C395,1944.1,395.7,1944.6,397,1945.2z"/>
		<path class="st0" d="M329.5,1658.8c0.5-0.4,0.8-1.1,1.3-1.1c0.3,0,0.7,0.7,1.1,1.1c-0.4,0.4-0.8,1-1.2,1.1
			C330.3,1659.8,329.9,1659.2,329.5,1658.8z"/>
		<path class="st0" d="M117.9,1627.3c-1.1,1.4-2.2,2.9-3.3,4.3c-0.4-0.1-0.8-0.3-1.1-0.4c0.2-0.9,0.3-1.9,0.7-2.7
			c0.5-1,1.4-1.8,2.2-2.6C116.8,1626.3,117.4,1626.8,117.9,1627.3z"/>
		<path class="st0" d="M344.6,1059.9c-1.1,0.8-1.8,1.3-2.6,1.8c-0.2-0.8-0.6-1.6-0.6-2.4c0-0.5,0.8-1,1.2-1.5
			C343.3,1058.5,343.8,1059.1,344.6,1059.9z"/>
		<path class="st0" d="M377.2,1008.2c-0.4-0.4-0.8-0.8-1.3-1.2c0.4-0.4,0.9-1.1,1.1-1c0.5,0.2,0.8,0.8,1.2,1.2
			C377.9,1007.5,377.5,1007.9,377.2,1008.2z"/>
		<path class="st0" d="M407.6,733.5c-0.8,0.4-1.6,0.8-2.4,1.1c-0.1,0-0.7-1.3-0.6-1.3c0.7-0.5,1.5-0.9,2.2-1.4
			C407,732.3,407.3,732.8,407.6,733.5z"/>
		<path class="st0" d="M212.1,1204.7c0.4,0.3,1.2,0.6,1.2,1c0.1,0.5-0.4,1-0.7,1.5c-0.4-0.3-1.2-0.6-1.3-1
			C211.3,1205.8,211.8,1205.2,212.1,1204.7z"/>
		<path class="st0" d="M478.1,591.2c-0.3-0.1-0.5-0.3-0.8-0.4c0.3-0.5,0.6-0.9,1-1.3c0,0,0.5,0.3,0.7,0.4
			C478.8,590.3,478.5,590.7,478.1,591.2z"/>
		<path class="st0" d="M299.2,1993.8c-0.3-0.4-0.6-0.8-0.8-1.3c0-0.1,0.4-0.6,0.5-0.6c0.5,0.2,0.9,0.5,1.3,0.7
			C299.9,1993,299.6,1993.4,299.2,1993.8z"/>
		<path class="st0" d="M1269.7,121.6c-0.5-0.2-0.9-0.4-1.4-0.7c-0.1-0.1,0.1-0.7,0.2-0.8c0.5-0.1,1,0,1.6,0
			C1270,120.6,1269.9,121.1,1269.7,121.6z"/>
		<path class="st0" d="M880.7,3054.7c4.4-2.1,7.2-3.4,10-4.7c4.2-1.9,8.3-4.3,12.8-5.3c3-0.7,6.8-0.1,9.6,1.2
			c7.8,3.6,15.4,7.7,22.8,12c2,1.2,4.3,4,4.2,5.9c-0.1,2-2.8,4.7-4.9,5.4c-17.5,5.6-32,16.9-48.1,25c-8.3,4.2-16.2,9.8-25,12.4
			c-8.2,2.4-16.5,6.4-25.8,4.7c-3-0.5-6.8,0.5-9.7,1.8c-12.2,5.7-25.3,8.1-38.4,10.1c-7.8,1.2-15.8,1.3-23.7,0.9
			c-8-0.4-9.9-5.3-4.3-11.2c8.3-8.7,12.3-19.6,17.6-29.9c4.9-9.5,6-19.5,4.2-30.2c-6.6,0.4-13.2-0.6-18.8,4.3
			c-1.5,1.4-4.4,1.2-6.6,1.8c-2.5,0.7-5.4,0.9-7.6,2.3c-10.5,6.4-20.9,12.9-31.1,19.7c-9.4,6.2-18.7,12.6-27.7,19.4
			c-13.3,10.1-25.5,21.2-33.9,36.1c-3.3,5.8-9.6,10-15.1,14.2c-1.8,1.4-5.4,0.4-8.1,0.5c0.2-2.4-0.1-5,0.6-7.3
			c3.6-11.3,8.3-22.4,10.9-33.9c2-9,5.4-15.7,13.5-20.9c10.6-6.8,20.2-15.1,30.3-22.7c6.8-5.1,13.7-10.3,20.7-15.2
			c11.5-7.9,23.6-15,34.7-23.5c12.7-9.8,26.3-18.8,34.2-33.7c0.9-1.6,3.8-3.3,5.5-3.1c8.2,0.8,11.7-4.5,15.6-10.2
			c4.3-6.2,9.2-12,14.2-17.6c1.4-1.6,4.1-2,6.2-3c2.4-1.1,5.7-1.6,6.9-3.5c3.6-5.7,9.9-7.6,14.6-11.5c4.5-3.7,9.4-4.6,14.7-5.3
			c6.5-0.9,10,0.4,12.4,5.6c2.5,5.4,5.4,11.3,0.4,16.8c-3.4,3.6-7.3,6.8-11.4,9.6c-4.8,3.5-10.1,6.3-15,9.7
			c-6.3,4.3-7.3,11.8-1.6,16.6c7.6,6.5,15.9,12.1,23.4,18.6c6.2,5.4,12,11.5,17.2,17.9c1.7,2.2,1.4,6.3,1.4,9.5
			C882.4,3046.8,881.5,3049.6,880.7,3054.7z"/>
		<path class="st0" d="M609.1,3186.9c3.2-9.8,7.8-18.6,16.5-24.6c4.4-3,8.3,0,11.6,2.7c3.5,2.9,2.5,6.5,0.4,9.8
			c-1.2,2-2.5,3.9-3.8,5.8C628,3189.6,621.2,3191.5,609.1,3186.9z"/>
		<path class="st0" d="M519.6,3191.6c5.1-10.2,11.5-13.4,18.8-9.5c4.7,2.5,5.2,5.9,1.6,9.3C535.3,3195.8,525.8,3195.9,519.6,3191.6z
			"/>
		<path class="st0" d="M1114.9,2952.9c-0.1,0.7-0.1,1.3-0.3,1.9c-1.1,4.3-5.1,8.3-8,7.6c-1-0.2-2.7-2-2.5-2.4
			c1.5-3.5,2.9-7.3,5.3-10.1C1111.2,2947.8,1114.8,2949.9,1114.9,2952.9z"/>
		<path class="st0" d="M1140.5,2989.3c-3.4,4.3-6.3,5-10.5,2.5C1132.3,2986.6,1135.2,2985.6,1140.5,2989.3z"/>
		<path class="st0" d="M980.2,2919.9c-0.5-5.9,2.1-7.7,6.2-7.9c0.6,0,1.9,1.2,1.9,1.9C988,2918.7,984.4,2919.1,980.2,2919.9z"/>
		<path class="st0" d="M258.7,3118c4.6,4.1,4.4,7.9,3.1,11.9c-2.7,8.2-5.5,16.4-8.3,24.5c-0.5,1.6-1.1,3.3-2.1,4.5
			c-10.3,10.8-20.5,21.6-35.6,25.8c-5.4,1.5-10.7,3.7-16.2,4.9c-2.6,0.6-6.4,0.5-8-1c-2.9-2.8-0.5-6.2,1.7-8.7
			c3.3-3.7,6.8-7.3,10.3-10.8c15.3-14.8,30.5-29.5,45.9-44.1C252.1,3122.4,255.2,3120.5,258.7,3118z"/>
		<path class="st0" d="M680.8,2726.8c-3.3,1.6-4.8,3.1-6.3,3c-2.9-0.1-6.4-1-6-4.8c0.1-1.4,3.4-3.8,4.7-3.5
			C675.4,2722.1,677.4,2724.3,680.8,2726.8z"/>
		<path class="st0" d="M655.9,2731.4c-0.3-0.4-0.7-0.9-1-1.3c0.4-0.3,0.9-0.6,1.3-0.7c0.1,0,0.5,0.5,0.5,0.7
			C656.5,2730.5,656.2,2730.9,655.9,2731.4z"/>
		<path class="st0" d="M2387.2,15.4c-1.4,1-3.3,3.4-5.6,3.8c-3.6,0.6-6.6-1.9-7.1-5.5c-0.6-3.9,2.6-5,5.7-5.4
			C2384.1,7.8,2386.9,10.1,2387.2,15.4z"/>
	</g>
</g>
</svg>
