<?xml version="1.0" encoding="utf-8"?>
<!-- Generator: Adobe Illustrator 19.1.0, SVG Export Plug-In . SVG Version: 6.00 Build 0)  -->
<svg version="1.1" id="Layer_1" xmlns="http://www.w3.org/2000/svg" xmlns:xlink="http://www.w3.org/1999/xlink" x="0px" y="0px"
	 viewBox="0 0 2448 3264" style="enable-background:new 0 0 2448 3264;" xml:space="preserve">
<style type="text/css">
	.st0{fill:#FFFFFF;}
</style>
<g>
	<g>
		<path d="M2446,2c0,1088,0,2176,0,3264c-816,0-1632,0-2448,0C-2,2178-2,1090-2,2C814,2,1630,2,2446,2z M2260.1,1009.8l-0.1,0.1
			c8.4-7.5,19.2-9.6,29.1-11.8c0.4-1.7,0.7-2.1,0.6-2.3c-0.8-2.1-1.7-4.2-2.6-6.3c-2.3-5.5-1.5-7.6,4-10.2c1.2-0.6,2.6-0.8,3.8-1.3
			c6.2-2.7,7.8-6.1,6-12.7c-0.5-1.6-1.4-3-1.9-4.6c-5.4-17.9,6.5-34.8,23.8-31.7c5.2,0.9,10.5,1.9,15.5,3.5c9.2,3,12.1,1,12.8-10
			c-5.4-0.4-11.3,0.3-16.1-1.6c-4.9-1.9-8.7-6.5-14-10.7c4.4-3.5,7.6-5.8,10.5-8.3c2.9-2.5,7.2-4.1,6.2-9.4c-2.7-2-5.5-4.1-8.5-6.3
			c3.8-6.3,7.1-12,10.7-17.6c1.8-2.8,2.5-5.3,0.6-8.3c-1-1.5-1.2-3.5-2.2-6.4c4.6-0.9,8.4-1.6,12.2-2.3c19.6-3.2,20.3-3.3,25-22.4
			c2.1-8.5,3.8-18.1-6-24.2c-4.9-3-2.5-7.2-0.3-12.1c-3.1,1.1-4.5,1.9-6.1,2.2c-1.5,0.3-3.1,0.2-4.5,0.3
			c-4.6-10.6-2.5-14.6,7.4-15.1c11.2-0.5,16.8-4.8,19.9-15.5c1.1-3.8,1.7-7.8,2.5-11.7c0.9-4.6,3.5-7.6,8-9.3
			c12.4-4.9,12.6-6.2,4.1-16c-0.4-0.5-0.9-1-1.3-1.5c-6.4-7.4-6.1-22.7,1.6-28.7c5.7-4.4,8.1-8.7,6.9-15.9
			c-0.7-4.4,0.7-9.3,1.7-13.8c0.4-1.9,2.3-3.5,4.2-6.2c2.1,4.5,3.1,8.2,5.3,10.8c6.5,7.7,7.5,15.1,0.9,23.4c-1.3,1.6-1.4,6.5-0.6,7
			c3.9,2,8.6,4.5,12.6,4c4.6-0.5,3.4-5.6,2.9-9.2c-0.3-2.3-0.7-4.6-1.3-6.9c-4.3-15.4-5.7-31.3-10.9-46.6
			c-4.4-13.1-5.1-27.4-7.8-41.1c-6-30.7-12.2-61.4-18.4-92.1c-4.1-20.6-8.3-41.1-12.6-61.6c-4.5-21.5-9.1-43-13.9-64.4
			c-4.1-18.9-8.5-37.7-12.7-56.5c-5.6-25.4-11-50.8-16.7-76.1c-1.2-5.5-3.9-10.6-5.1-16.1c-2.4-11.3-4.5-12.1-13.8-4.9
			c-0.5,0.4-1.3,0.2-3.3,0.6c-7.3-7.4-20.2-4.8-28.3-13.3c-1-1-3.1-1-4.7-1.6c-4.3-1.7-8.8-3-12.7-5.4c-4.6-2.8-8.5-3.2-12.8,0.1
			c-1.3,1-2.9,1.4-4.8,2.3c-6-7-12.3-6.8-20.3-3c-11.4,5.4-22.7,3.6-32.5-5.1c0.7-2.5,2-5.1,1.8-7.5c-0.2-1.8-2.2-4.3-3.8-4.7
			c-1.7-0.4-4.7,1-5.6,2.4c-0.8,1.4-0.3,4.7,0.9,5.9c1.7,1.8,4.5,2.5,6.8,3.7c-5.9,2.2-11.8,4.5-17.7,6.5c-4.2,1.4-7.9,0.5-10.3-3.7
			c-0.9-1.6-2.2-2.9-3.6-4.8c-7.6,7.9-15.5,12.2-26.6,7.4c3.1-6.3,2.5-10.9-3.4-14.1c-1.6-0.9-2.9-2.8-3.8-4.5
			c-2.5-4.8-5.5-4.6-10.6-3.5c-9.7,2.1-19.4,7.8-30.2,2.2c-4,8.1-11.1,8.9-18.7,8.4c-0.3,0-0.7,0-1,0c-11.3-0.2-22.7-1.6-33.8-0.2
			c-10.2,1.3-19.8-0.7-29.7-1.5c-5.6-0.5-11.3-0.3-17,0.3c-1.9,0.2-4.8,2.2-4.9,3.6c-0.2,1.7,1.6,4.3,3.3,5.4
			c2.6,1.6,5.8,2.3,9.6,3.7c-2.1,1-2.9,1.8-3.8,1.8c-11.4-0.1-22.8-0.1-31.6-9.2c-1.6-1.7-3.6-3-5.5-4.3c-5.7-3.8-12.8-2.6-16.7,2.9
			c-0.8,1.1-1.1,2.5-1.8,3.6c-5.3,8.7-12,10.6-21.1,6.3c-2.9-1.3-5.8-2.4-9.7-3.9c0.9,4.4,6.6,5.6,3.2,9.6
			c-2.8,3.2-6.4,3.3-10.1,1.9c-1.9-0.7-3.6-1.8-5.5-2.4c-9-2.5-17.6-3-25.5,3.6c-7.6,6.3-8.2,6.2-15.4-1.5c-3-3.2-5.6-3.4-9.7-2.5
			c-7.1,1.5-14.4,2.7-21.6,2.8c-7.2,0.1-14.5-1.9-20.5,4.2c-1.1,1.1-3.8,0.5-5.8,0.9c-4.2,0.8-8.5,1.4-12.6,2.5
			c-8.4,2.2-16.6,4.9-25,7.1c-6.6,1.7-12.9,1.5-19-3c-5.9-4.3-8.7-2.4-8.9,4.9c0,1.1-0.5,2.2-0.9,4.2c-6.3-4.3-11.5-9.8-19.5-6
			c0.9,2.6,1.7,4.8,2.1,5.8c-5.1,2-10.1,2.7-13.2,5.6c-8.2,7.6-18.9,7.5-28.6,10.4c-5,1.5-10.3,2-15.3,3.5
			c-4.4,1.3-9.1,2.2-12.2-1.3c-5-5.7-10.3-4.8-16.2-2.5c-1.8,0.7-3.9,1.3-5.9,1.1c-10.1-0.6-18.6,2.9-26.5,9.1
			c-3,2.4-5.8,4.5-6.1,8.5c-0.3,4.9-2.7,8.2-7.1,10c-16.1,6.7-25.3,21.2-37.2,32.6c-0.5,0.5-0.2,1.8-0.3,4.3c3.1-0.4,5.9-0.5,8.6-1
			c4.6-0.9,9-2.6,13.6-2.9c3.4-0.2,7.8,0.1,10.1,2.1c3.5,3.1,0.9,7.3-0.8,11c-1.5,3.1-2.5,6.4-4.4,11.1c7,0.3,12.2,0.6,17.4,0.7
			c12.4,0.3,24.6,1.4,36.1,6.7c9.8,4.5,10.8,10.3,2.8,17.1c-1.3,1.1-2.7,2-4,3c-16.7,12.5-34.8,22-54.5,28.8
			c-23.7,8.2-47.9,13.7-72.8,17c-9.7,1.3-19.1,5.4-28.4,8.8c-3.1,1.1-6.7,3.2-6.5,8.2c2.1,0.7,3.9,1.5,5.8,1.8
			c8.8,1.4,8.9,10.3,2.9,14.8c-2.9,2.2-5.7,4.6-8.5,7c-21,18.2-43.5,34-68.7,46c-9.1,4.3-17.1,11.3-25,17.9
			c-15,12.6-29.4,25.9-44.3,38.7c-6,5.2-12.4,10.1-18.8,14.8c-9,6.7-18,13.7-27.4,19.8c-11.6,7.5-22.6,15.1-28.2,28.6
			c-2.9,6.9-9,11.6-16.5,13.6c-4.8,1.3-8.4,3.5-10.1,8.6c-0.8,2.4-3,4.3-4.6,6.4c-3.4,4.6-2.8,7.3,2.8,8.6c8.9,2,14.3,8.3,19.3,14.8
			c5.1,6.7,4,15.8-3.4,18.9c-9.3,4-14.9,12.1-22.8,17.4c-8.1,5.4-9,9.6-4.8,18.4c2.6,5.4,0.1,8.8-3.1,12.5c-3.3,3.7-6.3,2.6-9.5,0.1
			c-0.6-0.5-1.8-0.1-3.5-0.1c-1.2,3-2.7,5.9-3.5,9.1c-2.2,8.7,3.8,14.3,12.6,11.9c1.9-0.5,3.6-1.7,5.5-2.3c3.8-1.1,7.3-1,9.9,4.2
			c-2.2,2.7-4.3,6-7.1,8.6c-5.7,5.6-9.8,11.2-3.3,18.4c-2.1,3.5-3.8,6.3-6.7,11.1c11.9-1.9,20.9-6.4,32-4.7
			c-8.7,8.9-6.8,17.1,0.2,25.5c-6,3.2-11.3,5.9-18.2,9.5c9,6,11.3,12.8,8.5,21.4c-0.4,1.1,0.6,2.6,0.5,3.9
			c-0.1,4.9-0.4,9.8-0.3,14.7c0,3.5-0.7,7.7,1,10.3c4.6,7.3,3.3,13.1-2.5,18.7c-1.1,1.1-1.6,2.7-2.9,4.8c2.7,2.3,4.8,4.9,7.5,6.5
			c8.9,5.3,9,5.2,6.4,14.6c-1.8,6.9-0.3,10,6.5,11.9c3.8,1.1,7.9,1.5,11.7,2.5c4,1.2,7,3.6,8,8.1c1.2,5.7,2.6,11.4,4.1,17.5
			c-6.7,9.1-20.3,3.4-29.4,11.9c2.8,2.7,5,5.1,7.4,7c3.2,2.6,5.1,5.8,3.8,9.6c-3.3,9.4-2.1,16.8,10.2,21.1
			c-5.8,1.6-9.3,2.6-12.9,3.5c1.7,2.9,3.5,3.9,5.5,4.6c2.1,0.8,5.6,0.8,6.2,2.1c2.4,5.3,6.4,5.6,11.4,5.9c6.4,0.3,8.5,4.5,6,10.6
			c-1.2,3-3,5.8-4.7,9c1.7,1.9,3.1,3.8,4.7,5.3c6.5,6.1,11,6.2,16.9-0.4c7.3-8.2,14.4-16.6,21-25.4c5.4-7.2,10-14.9,18.2-19.6
			c2.2-1.3,3.6-3.8,5.3-5.9c3.4-4.1,6.9-8.1,10.1-12.4c5-6.6,10.7-12.9,14.4-20.3c9.9-20.1,23.3-38,35.1-56.9c2.2-3.5,4.6-8,10-6.5
			c3.3,0.9,3.6,5.2,0,12.5c-4.6,9.4-7,19.3-8.8,29.5c-1.1,6.5-4,12.6-6.4,18.9c-2.1,5.6-4.9,11-6.7,16.7c-1.9,6.1-2,12.3,3.5,17.2
			c5.3-4.2,5.7-4.1,6.4-11.6c1.8-20.5,9.2-38.9,21.1-55.4c13.6-18.9,27.8-37.4,42.2-55.7c3.6-4.6,8.5-8.6,13.6-11.4
			c6.6-3.7,13.9-6.2,21.1-8.8c2.2-0.8,5.8-1.1,7.2,0.2c1.4,1.3,1.8,5,1.1,7.1c-2.1,6-5,11.6-7.5,17.4c-1.1,2.5-1.9,5.2-3.1,8.5
			c6.6,0.6,9-3.5,11.9-6.3c6.3-6,13.9-7.9,22.1-6.9c2.1,0.2,5.8,3.1,5.6,4.2c-1.3,7.5,2.6,10.9,8.8,13.5c1.8,0.8,3.2,3.4,4.2,5.4
			c2.3,4.3,5.6,5.2,10.1,4.1c13.3-3.2,26.5-6.3,39.9-9.3c4.2-0.9,8.5-2,12.7-1.9c6.5,0.1,8.2,3.1,5.7,9.2
			c-6.9,17.1-15.2,33.5-29.4,45.8c-12,10.5-24.7,20.3-37,30.3c-4.4,3.6-9,6.8-13.2,10.6c-6.2,5.6-11.9,11.7-18.1,17.2
			c-4.3,3.8-8.3,7.4-10.6,13c-1.1,2.8-3.9,5.4-6.6,7.1c-13.3,8.2-26.8,16.1-40.4,23.9c-7.7,4.4-14.5,9.3-18.3,17.7
			c-1.4,3.2-4.4,5.8-6.9,8.4c-11.2,11.4-22.5,22.7-33.7,34.1c-1.9,2-5.2,3.6-3.3,8.1c3.3,0.2,7-0.1,10.5,0.7
			c2.7,0.6,6.4,1.9,7.3,3.9c0.8,1.9-1.4,5.2-2.4,7.8c-0.4,0.9-1.3,1.5-2,2.2c-11.6,9.5-23.1,19-34.7,28.4c-1.8,1.5-4.1,2.4-5.6,4.1
			c-1.1,1.3-1.8,3.5-1.6,5.2c0.2,1,2.4,2.2,3.9,2.4c2.9,0.4,6-0.1,9,0.3c4.3,0.6,7.4,3.2,8.4,7.5c1,4-2.1,5.9-4.9,7.8
			c-5.2,3.6-10.3,7.4-15.4,11.1c-10,7.2-19.6,14.8-30,21.4c-5.7,3.6-10.6,6.8-10.3,14.4c0.1,1.4-1.2,2.9-2,4.8
			c-3.2-0.5-6.3-1.8-8.9-1.1c-2.4,0.6-5.6,3-6.2,5.2c-1.1,3.8,2.3,4.9,5.6,5.1c1,0.1,2.2-0.2,3,0.2c1.9,1,4.8,2.2,5,3.7
			c0.2,1.6-1.7,4.1-3.3,5.3c-4.2,3.2-8.4,7-13.3,8.5c-7.3,2.3-15.7,0-22.3,5.7c-0.8,0.7-3.1-0.4-4.8-0.6c-1.8-0.2-3.7-0.4-5.4-0.6
			c-2.5,4.9,0.4,7.9,3,10.1c4.1,3.3,8.7,6.2,13.3,8.6c11.3,5.8,11.7,6.1,9.7,18.4c-0.2,1-0.4,2-0.5,3c-1.1,10.3,2.1,14.8,12.3,17.1
			c3.1,0.7,6.2,1.4,11,2.5c-2.8,4.4-4.4,7.5-6.5,10.2c-9.3,12-10.4,26.3-11.9,40.5c-0.5,4.7,1.6,7.7,6.6,8.1c1,0.1,2,0.3,2.9,0.7
			c4,1.7,5.2,5,4.5,9c-0.8,4.6-4.3,6.1-8.2,5.2c-3-0.7-6.1-2.4-8.6-4.4c-3.4-2.7-7.3-4.8-10.9-2.1c-5.4,4-10.2,9.1-16.8,15.2
			c4.6,1.3,7.2,2.2,9.9,2.8c6.8,1.6,7.7-6.3,12-8.2c1.1,0.5,2,0.7,2.2,1.1c2.9,5.5,6,10.9,8.3,16.6c0.7,1.6-0.2,4.8-1.6,6
			c-2.1,1.9-5.4,2.6-7.9,4.2c-2.7,1.8-6.5,3.7-7.3,6.3c-1.6,5.5-4.9,9.1-9,12.7c-5.4,4.8-4.7,9.1,1.5,12.6c3.4,1.9,7,3.3,11.1,5.2
			c-1.3,2.1-2.1,3.5-2.9,4.9c-1,1.6-1.9,3.3-3.1,5.3c1.7,1.3,2.9,2.3,4.1,3.4c1.4,1.2,2.8,2.4,5.8,4.9c-8.8,1.6-15.7,2.9-22.3,4.1
			c-5.6-12.1-7.7-13.6-17-13c0.5,6.4,1.1,12.9,1.7,19.3c0.1,0.6,0.4,1.4,0.9,1.8c4.2,3.9,5.6,8.8,6.3,14.2c0.3,2.1,1.9,4.5,3.6,5.7
			c7.8,5.8,12.8,13.3,15.9,22.4c2,6,5.9,10.3,13,10.6c1.2,0,2.4,1.5,5.5,3.5c-9.6,1.8-18.4,2.8-15.8,13.9
			c-10.6,2.2-16-1.4-16.8-10.2c-0.6-7.3-1.1-14.6-2-21.8c-0.3-2.6-1.4-5.1-2.6-7.5c-1.5-2.9-4.2-5-7.3-3.3c-2.3,1.3-4.1,4-5.2,6.5
			c-0.7,1.6,0.5,3.9,0.5,5.9c0,6.5-3.9,9-9.8,5.9c-3.2-1.7-6-4.2-9.2-6c-2.3-1.3-4.9-2.6-6.8,0.8c4.6,6.8,4.7,7,19.3,14.9
			c6.3,3.4,11.1,7.9,10.6,15.5c-0.5,7.3-9.3,17-15.9,18.1c-7.3,1.2-13.8,4-20.1,9.2c2,1.7,3.6,4,5,3.8c4-0.3,7.9-1.6,11.8-2.6
			c3.3,10.7,1.6,15-7.1,18.9c-1.6,0.7-3.6,2.5-3.7,3.8c-0.1,1.5,1.4,3.8,2.9,4.7c4.1,2.7,8.2,4,12.6-0.2c4.5-4.3,9.8-4.6,14.4-1.7
			c-2.8,11.4-5.1,22-8.1,32.4c-0.7,2.2-3.8,4.7-6.2,5.3c-5.7,1.3-9.6,4.3-12.4,9.2c-0.7,1.2-2.3,1.9-3.5,2.9c-3.3-2.4-2-8.3-7.3-7.8
			c-0.4,0.2-0.7,0.2-1,0.5c-0.5,0.5-1,0.9-1.3,1.5c-3.1,8.3-5.1,17.3-16,19.5c-1.2,0.2-2.4,3.9-2.2,5.7c0.1,1.2,2.7,2.7,4.4,3.2
			c1.8,0.5,4-0.5,5.9-0.2c2.1,0.3,5.2,0.9,6,2.3c2.6,5,7,5.6,11.7,6.2c8.2,1.1,16.4,2.4,24.5,3.9c1.4,0.2,3.3,1.5,3.6,2.7
			c0.4,1.2-0.4,3.4-1.4,4.3c-1.4,1.2-3.5,1.6-5.4,2.4c-4.8,2.1-9.6,4.3-14.4,6.3c-3.3,1.4-6.7,2.7-10.1,3.8c-2.4,0.8-5,1.2-7.1,1.7
			c-1.3,10-3.9,19.4,4,28.2c5.5-3.7,10.5-7.3,15.9-10.5c2.4-1.5,5.9-3.5,8-2.7c6.1,2.1,12.6,3.8,18.2,9.4c-4.3,6-8.3,11.7-13.4,18.8
			c3.7,0,5.6,0,7.4,0c3.4,0,6.2,1.5,6.3,5.1c0.2,7,4.1,8.9,10.4,8.9c4,0,9.3,1.2,8.3,6.3c-1.1,5.5-6.2,3.7-9.9,2
			c-5.1-2.3-10-1.5-14.4,1.1c-2.3,1.3-5,4.1-5.2,6.4c-0.1,2.2,2.5,5,4.5,6.7c4.7,4.1,10.1,7.3,14.7,11.5c3.7,3.4,2.8,10.2-1.4,10.7
			c-8.2,1-17,4.4-24.6-2.8c-2-1.9-5.2-3.5-7.8-3.3c-4.7,0.3-8.2-0.8-11.9-3.6c-5.3-3.9-7.2-3.3-12.6,2.3c1,1.5,1.9,3.2,3.1,4.8
			c3.7,5,7.5,9.5,14.9,5.6c1.6-0.9,4.5,0.3,6.6,0.9c4.5,1.2,8.9,2.6,13.2,4.2c1.3,0.5,2.4,1.6,5.1,3.6c-4.8,0.5-7.8,0.3-10.4,1.2
			c-5.4,1.8-10.4,1.9-15.3-1.3c-1-0.7-2.5-1-3.8-1c-4.5-0.2-7.1,3.4-4.7,7.2c3.9,6.3,8.2,12.5,15.8,14.6c3.2,0.8,8.3,0.9,10.1-1
			c5.5-5.8,11.2-5.4,18.2-4c9.8,1.9,16.3-2.9,17.5-12.9c0.8-6.4,3.9-10.8,7.7-15.7c6.5-8.3,12.3-17.3,17.9-26.3
			c3.1-5.1,1.2-7.8-4.9-8.6c-2.7-0.4-5.5-0.7-8.8-1.1c6.7-10.6,12.3-12.3,21.9-7.7c6.7,3.2,10.5,2.3,14.3-3.9
			c1.6-2.5,2.9-5.3,3.6-8.2c2.7-10.3,6.2-20.6,7.2-31c1.4-14.2,8.5-25.9,14.7-37.8c15.4-29.6,38.1-53.6,61.2-77.3
			c4.2-4.3,8.6-8.5,13.6-11.7c6.9-4.5,14.4-8.2,21.9-11.9c3.3-1.6,7.4-1.2,8.2,2.8c1.5,7.4,4,15.6,2.3,22.5
			c-3,12.2-8.1,24-13.6,35.3c-12.6,25.7-27.3,50.3-38.1,76.8c-1.5,3.7-4,6.9-5.8,10.4c-1.4,2.6-3.1,5.2-3.7,8
			c-1.4,5.9,0.9,8.3,6.8,7.3c8.9-1.5,16.5-4.8,20.3-14c3.9-9.3,11-14.4,20.8-18.4c11.1-4.5,21.2-12.4,30.7-20
			c6.4-5.1,11.3-12.2,16.5-18.7c2-2.5,3.4-5.7,4.4-8.8c1.8-5,3.2-10.2,4.5-15.3c1.5-5.7,4.7-10,9.1-13.9
			c11.6-10.3,25.1-17.9,39.2-23.7c10.3-4.2,21.6-6.9,32.7-8.2c7.4-0.8,11.6-3.2,14.7-9.5c9.1-18.5,23.9-32.8,36.4-48.6
			c1.4-1.8,3.2-3.4,5-4.9c8.4-7.5,17-6.9,24.1,2c7.7,9.6,15.8,19.2,15.6,32.6c0,1.3,0.5,2.6,0.9,3.9c2.3,6.7,5.7,7.8,11,3.2
			c4.8-4.2,9.1-8.8,13.9-12.9c4-3.4,6-7.6,7.6-12.5c3.2-9.7,7-19.3,11.4-28.6c4-8.4,9.2-16.1,13.6-24.3
			c8.3-15.6,18.3-29.9,29.9-43.4c15.7-18.3,35.5-31,55-44.2c3.3-2.2,7.2-3,10.1,0c4.6,4.8,9.3,10,7.6,17.5c-1.8,8.5-3.4,17-6.1,25.2
			c-9.4,28.6-25.2,54.3-38.3,81.3c-0.7,1.5-1.9,2.7-2.8,4.1c-2.2,3.4-7.2,5.9-4.4,11c1.6,2.9,5.6,1.1,11.8-4
			c9.7-8.1,19.5-16.1,29.7-23.6c5.3-3.9,11.9-6,17.5-9.6c28-17.9,58.5-28.5,91.6-31.8c1.9-0.2,4.2-0.2,5.9,0.6
			c5.9,2.8,12,3.7,18.5,2.9c4.4-0.6,7.6,1.6,9.8,5.5c5.8,10.6,3.9,26.3-4,35.5c-6.1,7.1-12,14.3-17.8,21.6
			c-3.3,4.1-5.1,8.5-1.4,13.7c3.5,4.9,7.5,8.9,14,7.4c8.4-1.9,16.7-4.3,25-6.5c3.8-1,7.6-2.5,11.4-2.8c7.9-0.6,16,0.3,23.8-0.8
			c6.8-0.9,14.2-1.1,22-7c-5.1-1.1-8.2-1.6-11.2-2.4c-5.7-1.6-7.1-5.9-3.6-10.6c1-1.3,2.4-2.3,3.7-3.3c4.1-2.9,8.3-5.8,12.8-8.8
			c1.8,3.9,4.2,8.5,9.3,6.5c5.4-2.1,10.3-1.4,15.6-0.5c1.3,0.2,2.9-0.9,4.9-1.6c-1.2-3.3-2.1-6-3-8.6c1.6-2.8,3.2-5.4,4.9-8.4
			c-3.9-1.4-6.9-2.5-9.6-3.5c-0.1-5.3,3.1-6.9,6.5-8.6c7.1-3.5,7-3.6,4.9-11.2c-1.8-6.4-0.8-8.8,5.7-9.7c5.9-0.8,11.9-0.4,17.8-0.6
			c2.1-0.1,4.2-0.4,7.9-0.8c-2-3-2.7-5.4-4.4-6.5c-4.9-3.3-10-6.6-15.4-9.2c-9.1-4.4-10.2-10.4-3-17.6c8.9-9.1,17.2-18.5,17.4-32.3
			c0-2.6,0.5-5.3,0.8-7.9c0.6-5.4,2.4-10.1,6.8-13.3c5.3,2.7,10.1,5.1,15.8,8c-0.7-4.3-1-6.9-1.4-9.6c2.8-1.6,5.3-3,8.7-5
			c-4.7-3.8-8.6-7-13.5-11c3.3-2.9,6.1-4.8,8.1-7.2c2.4-3,5.3-6.2,6.2-9.8c1.8-7-2.8-11-9.7-9c-3.5,1-6.7,3-10,4.4
			c-2.7,1.1-6.2,3.5-8.3,2.7c-9.2-3.7-14.2,1-19.5,7.4c-3.2,3.9-7.8,5.8-14.1,2.9c4.7-6,9.1-11.5,14.3-18.1
			c13.1-2.4,28.2-3.8,40.1-16.2c-2.5-3.2-4.7-6.4-7.3-9.3c-3.5-4-4.3-8.2-1.4-12.8c2.8-4.3,3-10.4,9.2-12.4c1.3-0.4,2.2-3.1,2.6-4.9
			c0.5-2.6,0.1-5.3,0.3-8c0.8-10.5,0-11.6-10.2-14.6c-11.8-3.4-13.8-8.6-7.1-18.2c-15.5-5.9-15.5-5.9-14.6-17.3
			c-7.8-5.6-7.8-5.6-8.6-10.1c4.8-0.7,9.5-1.6,14.3-2.2c3.2-0.4,6.5-1.1,9.6-0.8c7.8,0.9,8.1,1.2,11-6.1c1.7-4.2,4.2-5.4,8.4-5.3
			c4.2,0.1,8.5-0.5,12.7-0.3c2.5,0.1,5.2,0.5,7.6,1.4c7.3,2.9,9.2,2.5,10.5-4.5c0.9-4.6,3.1-7.6,6.1-10.9
			c4.9-5.5,8.8-11.9,13.5-18.3c-2.1-1.2-3.1-2.2-4.3-2.4c-4.3-0.5-8.6-0.7-12.9-1.1c-3.3-0.3-6-1.5-6.1-5.2c-0.1-4.2,2.7-6.3,6.4-6
			c4.6,0.3,9.1,1.4,13.6,2.5c3.4,0.8,6.4,4,10.6,0.9c0.3-6.3-4.3-10.8-6.9-15.9c-3.9-7.5-10.1-11.2-18.7-11.1c-3,0-6.2,0-8.8-1.1
			c-1.7-0.7-3.3-3.3-3.5-5.2c-0.1-1.3,2-3.4,3.5-4.1c2-0.9,4.5-0.8,6.8-1.1c4-0.5,8.1-0.4,11.8-1.6c5.7-1.8,10-1.3,14.5,3.2
			c4.9,4.8,12.6,5.5,17.4,2.1c1.7-1.2,3.6-4.6,3.1-6.3c-1.3-4.9-4.1-9.2-9.5-10.7c-6.6-1.8-13.2-3.6-20.4-5.5
			c-1.4,1.5-3.1,3.5-5.1,5.3c-3,2.7-6.5,3.8-10,1.4c-3.8-2.6-3-6.6-1.4-9.9c1.2-2.6,3.4-4.8,5.5-6.9c5.2-5.3,4.8-7.2-1.9-9.4
			c-1.7-0.6-3.4-1.3-6.2-2.3c4.5-5.6,8.4-10.2,13.3-16.3c1.5,6.9,2.2,12.2,3.8,17.2c0.8,2.6,2.9,6.4,4.9,6.7
			c9.1,1.5,17.7,4.1,25.5,9.2c0.1,0.1,0.6-0.3,1.4-0.8c0.1-7.4-3.8-12.7-9.7-16.9c-5.8-4.1-9.7-9.5-9.1-16.7
			c0.8-9.5,3.4-18.6,8.6-26.9c3-4.7,4.8-5.7,9.7-3.6c5.2,2.3,10.4,4.5,15.2,7.3c1.9,1.1,3.7,3.8,4.1,6c0.5,3.2-1,7.4,3.4,8.3
			c3.4,0.7,7.3,0.2,10.7-0.7c3.7-1.1,5-4.3,3.2-8c-1.3-2.6-2.7-5.1-4.5-8.4c3.5-0.6,6.1-0.8,8.6-1.4c6.1-1.6,8-5.3,6-11.3
			c-0.5-1.6-1.6-2.9-2.2-4.5c-1.7-4.9-0.5-8.3,3.9-11c1.1-0.7,2.5-1,3.7-1.6c6.4-3.1,6.7-4.6,2.1-10.3c-1.6-2.1-3.7-3.9-5-6.2
			c-3-5-1.1-8.9,4.8-8.5c8.9,0.7,18.7-3.1,26.5,4.5c0.4,0.4,1.8-0.2,4.4-0.6c-2.2-3.6-3.7-6.7-5.8-9.3c-5.4-6.8-5.7-6.9-12.8-1.8
			c-3.6,2.6-7.2,3.8-11.1,1.4C2271.7,1017.6,2266,1013.6,2260.1,1009.8z M935.7,2386.7c-0.8-0.4-1.7-0.6-2.5-1.2
			c-2.6-1.9-5.6-3.7-7.3,0.4c-1.4,3.4,1,5.8,4.1,6.8c2.8,1,5.9,1.2,8.7,2c7.8,2,11.4,6.4,10.8,14.4c-0.3,3.5-1.8,7-3.3,10.2
			c-1.8,3.9-4.4,7.5-6.2,11.4c-1.8,3.8-4.6,8.1-1.2,12.2c3.4,4.1,8,1.9,12.1,0.6c5.7-1.9,11.2-4.2,17-5.9c3.8-1.2,7.7-2.3,11.6-2.4
			c16.2-0.7,32.5-0.8,48.8-1.5c5.1-0.2,8.3,1.8,10.7,5.7c2.6,4.3,3,8.9,1.4,13.5c-3.3,9.4-6,18.9-13.5,26.3
			c-6.8,6.7-12.3,14.7-18.4,22.1c-1.3,1.5-2.8,3.2-4.6,3.7c-8.2,2.6-13,9-17.8,15.4c-1.7,2.2-4,5.6-3.4,7.4c0.7,1.9,4.6,2.8,7.3,3.9
			c1.2,0.5,2.6,0.3,4,0.3c15-0.6,26,7.4,35.9,17.1c6.8,6.6,6.4,13.3-0.3,20c-4.2,4.3-8.2,8.7-12.4,12.9
			c-12.1,12.3-23.2,25.7-38.6,34.4c-2.3,1.3-3.9,3.6-6.1,5.1c-11.5,7.7-23.1,15.3-34.7,22.9c-0.8,0.5-1.9,0.6-2.9,0.9
			c-11.3,2.9-22.4,6.6-33.8,8.4c-13,2-19.3,10.5-24.6,20.9c-5.6,11-11.2,22-17.1,32.8c-9.4,17.2-19.2,34.3-28.7,51.4
			c-6.8,12.1-13.1,24.5-20.2,36.5c-7.3,12.2-15.4,23.9-22.7,36.1c-2.7,4.5-3.6,10.1-6.6,14.3c-8.7,12.2-17.8,24-23.8,38
			c-1.7,3.9-4,7.9-7,10.9c-10.1,10-12.8,22.7-12.3,35.7c0.3,8.4-2.6,12.3-9.5,15.1c-10.4,4.1-18.6,10.2-20.2,22.4
			c-0.2,1.6-1.8,2.9-2.2,4.5c-0.9,3.8-1.6,7.6-2,11.4c-0.3,2.9,0,5.9-0.1,8.9c-0.2,6,2.2,8.4,7.7,6.1c5.7-2.4,11.1-6,16.3-9.5
			c9.3-6.3,18.5-12.8,27.5-19.5c3.7-2.7,7.3-5.8,10.4-9.2c6.7-7.4,12.5-15.7,23.1-18.1c1.2-0.3,2.4-1.2,3.4-2
			c12.4-9.6,25-18.9,37.1-28.8c14.4-11.7,28.5-23.9,42.6-36c4.5-3.9,8.1-8.9,12.8-12.4c4.2-3.2,6.6-7.1,9-11.6
			c6.5-12.1,7.9-26.9,19.3-36.5c1.8-1.6,2.4-4.7,3.5-7.1c1.9-4.2,3.7-8.6,5.8-12.7c5.9-11.7,10.7-23.9,21.8-32.7
			c7.2-5.6,11.7-14.5,18.2-21.2c13-13.5,20.6-30.2,27.3-47.1c6.9-17.3,12.1-35.3,23.3-50.7c12.7-17.5,25.1-35.3,37.5-53
			c6.1-8.7,11.9-17.6,18.3-26c7.6-10.1,15.8-19.8,23.4-29.9c8.4-11.2,16.6-22.5,24.4-34c3.3-4.9,5.9-10.3,8.2-15.7
			c8-19,15.8-38.1,23.4-57.3c1.7-4.2,2.9-8.8,3.2-13.3c0.7-11.2,0.7-22.5,1-33.8c0.5-19.6,6.1-38,12.9-56.1c5-13.4,9.5-27,14.6-40.3
			c1.5-3.9,3.6-7.9,6.5-10.9c7.2-7.4,13.4-5.6,15,4.8c1.9,12.3,5.7,24.8,0.6,37.4c-0.5,1.2-0.7,2.8-0.3,3.9c0.7,1.7,1.8,3.6,3.3,4.4
			c0.9,0.5,3.4-0.4,4.3-1.5c4.6-5.2,9.5-10.3,13.3-16.2c12.9-20.5,26.6-40.5,36-63c1.3-3.1,2.9-6.1,4.9-8.7c3.8-5.1,4.2-10.2,1.9-16
			c-6.2-15.6-6.6-31.4-3.7-48c3.8-21.5,11-41.9,18.3-62.2c3-8.2,8.9-15.5,14.5-22.5c3.7-4.6,7.1-3.8,10.6,0.9
			c4.7,6.3,5.2,13.3,3.8,20.9c-2.1,11.1-3.8,22.3-5.4,33.5c-0.3,2,0.6,4.1,0.9,6.4c7.2-6.5,13.9-12.3,20.3-18.3
			c1.6-1.5,2.9-3.8,3.5-5.9c4.3-13.7,8.6-27.3,12.4-41.1c1.7-6.3,0.4-12.5-2.5-18.4c-5.1-10.4-13.1-17.6-24-21.3
			c-7.8-2.7-14.3-7.1-19.5-13.4c-8-9.5-15.2-19.3-17.5-32c-0.8-4.2-2-8.5-3.8-12.4c-2.6-5.4-3.8-10.4-1.6-16.3
			c0.7-1.9,0.2-4.6-0.4-6.8c-3.3-12.7-4.2-25.2,0.8-37.8c4.2-10.5,4.7-21.4,1.6-32.4c-1.2-4.1-3.5-8.3-8.1-7.3
			c-6.7,1.5-13.2,4.4-19.6,7.1c-1.2,0.5-2.5,2.7-2.5,4c0.3,7.1-4.6,10.6-9.4,14.3c-1.6,1.3-2.7,3.3-4.1,5.2
			c4.8,5.5,9.5,5.3,14.9,2.6c3.3-1.7,6.6-5.1,10.8-1.7c0.2,16.3-6.6,23.2-22.3,23.6c-4.9,0.1-9.9,1.4-14.6,2.7
			c-3.6,1-6.9,3.2-7.1,7.5c-0.2,4,3,5.6,6,7.1c0.9,0.4,1.7,0.9,3.4,1.9c-5.8,3-10.3,1.4-14.8,1.1c-2.4-0.2-6.4,0-7.1,1.4
			c-2.9,5.1-7.3,6.1-12.4,7c-5.3,0.9-6.8,3.8-4.8,8.6c1,2.4,3.2,4.4,4.4,5.8c6.3-0.8,5.8-9,12.1-7.4c0,13.6-12.6,23.3-24.4,19
			c-3.9-1.4-7.8-4.1-12.2,0.7c1.4,1.6,2.4,3.8,3.9,4.2c4.8,1.3,9.7,2.1,14.6,2.6c6.3,0.7,12.6,0.7,18.9,1.3c1.1,0.1,1.9,2.3,2.8,3.5
			c-1.5,1-3,2.9-4.4,2.8c-2.2-0.1-4.3-1.7-6.5-2.3c-4.5-1.2-10.6,2-13.2,6.8c-2.4,4.4-1.5,8.5,3,12.3c4.7,4,9.9,6.5,16.4,6.2
			c4.8-0.2,9.3,0.8,10.3,7.2c-6.1,4.7-12.5,4.6-19,2.3c-6.8-2.4-12.1-6.6-16.1-12.8c-9-13.7-23.6-13.1-37.5-14.4
			c-1.2-0.1-2.6,0.6-3.7,1.3c-4,2.2-5.1,5.5-2.3,9c3.9,4.8,7.2,10,14.7,10.9c4.7,0.5,9.2,3.6,13.5,6.1c2,1.2,4.4,3.9,4.3,5.8
			c-0.1,1.9-3,4.5-5.1,5.1c-3.9,1-6.1,2.8-8.1,6.4c-2.6,4.7-6.1,4.7-9-0.4c-3.2-5.6-7.6-8-13.6-8.6c-1.7-0.2-3.2-1.7-5.4-3
			c2.4-2.5,4.3-4.3,5.9-6.3c2.2-2.7,1.5-5.3-1.7-6.3c-5.8-1.8-10.3,1.9-14.6,4.8c-3.6,2.4-1.5,5.8-1,9.1c0.6,3.8,1.1,7.8,0.7,11.7
			c-0.8,7.6-1,7.5,5.8,10.2c1.7,0.7,3.1,1.9,6.1,3.7c-3.3,2-5.4,3.2-7.4,4.5c-2.2,1.4-5.6,2.4-6.3,4.4c-2.7,7.6-8.9,10.2-15.4,13.1
			c-3.6,1.6-8.2,3.8-6.4,8.7c1.8,4.7,6.2,2,9.7,1.4c5.4-0.9,10.8-3.3,17,0.2c-1.6,2-2.4,4-3.9,4.9c-4,2.3-8.4,4.1-12.5,6.3
			c-5.9,3.2-6.3,7.2-1.6,11.9c1.7,1.7,3.6,3.2,5.4,4.9c-9.5-3.6-15.2,4.2-22.1,6.7c-6.5-8.7-6.5-8.7-13.4-4.7
			c4.3,5.8,8.4,11.7,13,17.3c2,2.5,4.9,1.7,7.1-0.4c2.3-2.2,4.5-4.4,7.2-7.1c1.8,2.3,3.2,3.4,3.6,4.9c1.2,4.2,6.8,7.9,3.3,12.7
			c-3,4.2-8,1.6-12.2,1.2c-6.9-0.6-9.9,2-10.4,8.9c-0.7,10.1,2.5,15.2,12.3,20c0.9,0.4,1.7,1,2.8,1.7c-4,6.9-9.6,10-15.7,12.8
			c-3.5,1.6-7.4,3.3-9.8,6.2c-3.4,4.1-6.4,5-11.1,2.8c-8.3-3.8-17.4-4.2-25.3-0.7c-9.4,4.1-18.7,8.3-28.6,11
			c-0.3,0.1-0.4,1.1-0.7,2.3c3.9,1.5,8,2.8,11.9,4.5c6.3,2.7,7.2,5.2,5.4,11.8c-3.4,12.5-13.9,16.8-23.9,22.1
			c-3.9-4-3.8-13.1-12.7-9.5c4.1,16,2.4,23.6-6.3,28.5c-8.4-9.8-18.3-13.2-27.8-9.4c-5.5,2.2-8.4,7.1-8.1,14
			c0.6,0.3,1.2,0.8,1.8,0.8c5.9-0.8,21.8,0.6,27.9,2.5c0.6,0.2,1.3,0.3,1.9,0.5c9.7,2,14.7,8.2,16.3,17.7c-0.7,0.9-1.1,1.9-1.8,2.5
			c-5.6,4-8.8,8.7-9.7,16.3c-1,7.7-5.5,15-13,19.3c-4.3,2.5-8.7,4.9-13.1,7.2c-7.2,3.7-8.7,6.7-7.1,14.3c0.4,1.9,0.8,3.8,1.1,5.3
			C940.4,2380.8,938.1,2383.7,935.7,2386.7z M693.5,2845.3c-1.9-2.9-3.2-5.2-4.8-7.3c-5.6-7.4-10.6-7.7-17.5-1.4
			c-3.5,3.2-3.5,6.6-2.2,10.8c2.7,9.6,2,11.3-6.8,15.8c-3.8,2-8.1,3-12,4.7c-3,1.3-6.8,2.3-8.4,4.6c-4.8,6.7-8.6,13.9-12.8,20.9
			c7.5,6,13.9,5.5,18.6-1.4c1.5-2.2,2.4-4.8,3.9-6.9c4.6-6.4,11.1-8.2,18.2-4.5c4.3,2.2,8,2.6,12.3,0.4c2.8-1.5,5.9-3.5,9.3-0.6
			c0,0.9,0,1.9-0.2,2.8c-1.2,6.4,0.9,10.2,6.7,12c5.2,1.6,9-0.6,11.3-6.9c0.9-2.5,1-5.2,1.8-7.8c1.2-3.8,2-7.8,4-11.2
			c4.3-7.1,9-14,14.1-20.5c9.2-11.9,9.3-11.7,2.7-24.5c9.1-3.7,9.3-3.6,11.7-14.5c0.9-4,3.4-5.3,6.7-6.4c8.2-2.7,14.2-8,19.2-15.1
			c4.7-6.7,10.5-12.8,15.9-19.1c13-15.1,26-30.1,35.8-47.7c3.9-7.1,8.3-14.5,14.2-19.7c11.9-10.3,14.8-25.9,24.2-37.5
			c1.1-1.4,0.5-5.7-0.9-7c-1.4-1.3-4.8-1-7.2-0.7c-1.5,0.2-3,1.5-4.2,2.6c-5,4.7-11,7-17.6,8.8c-4.2,1.2-8,4.3-11.6,7.1
			c-9.4,7.3-18.4,15.1-27.8,22.4c-1.7,1.4-4.3,1.8-6.4,2.6c-2.8,1.1-5.9,1.7-8.2,3.5c-9.5,7.1-20.4,11-31.5,14.7
			c-3.2,1.1-6.9,3.5-8.4,6.3c-3.1,5.7-4.8,12.1-7.2,18.4c6.3,5.9,12.3,11.5,21.1,12.9c1.9,0.3,3.8,1.2,5.5,2.2
			c8,4.7,9,13.7,1.2,18.4c-9.9,5.9-12.1,19.3-23.6,23.2c-0.3,0.1-0.5,0.5-0.6,0.8c-1,7.5-7.2,9.7-12.6,12.9
			c-5.7,3.3-11.2,6.9-16.6,10.3C704.7,2835.1,704.7,2835.1,693.5,2845.3z M1225.1,2725.7c-0.3-0.9-0.7-1.8-1-2.7
			c-3.1,0.6-6.3,0.9-9.3,1.8c-7,2.2-13.8,4.9-20.8,7c-22.7,6.8-45.5,6.6-67.7-1.8c-13.5-5.1-25.4-4.5-36.1,5.5
			c-11.9,11.1-23.9,22-35.4,33.6c-12.6,12.7-24.7,25.9-37,38.9c-8.1,8.6-8.2,10.3-0.9,19.8c0.4,0.5,0.9,1,1.1,1.6
			c2.4,8.3,9.1,9.2,16,8.3c5.2-0.7,10.6-2,15.2-4.3c8.9-4.4,17.5-9.6,26-14.8c28.8-17.4,57.5-34.9,86.2-52.4
			c19.6-12,39.1-24.1,58.6-36.3C1221.9,2728.9,1223.4,2727.2,1225.1,2725.7z M1225.8,3037.6c-0.8,1.2-1.7,2.3-2.5,3.5
			c-1.6,0-3.2,0.1-4.8,0c-4-0.3-8-0.4-11.9-1.1c-10.4-1.8-12.3-4.2-12.6-15.3c-1.7-0.5-3.8-2-5.3-1.6c-4,1.3-8.2,2.8-11.5,5.3
			c-4.7,3.6-8.7,7.4-14.8,2.5c-0.9-0.7-4.1-0.4-4.5,0.4c-3.1,5.8-6.2,11.6-8.1,17.8c-0.4,1.5,3.6,5.1,6.2,6.5
			c2.1,1.1,5.2,0.4,7.8,0.5c2.8,0.2,5.5,0.5,9.5,0.9c-2.1,4.7-4.2,7.9-4.8,11.3c-0.3,2,1.8,4.4,2.8,6.6c1.7-1.1,3.9-1.9,5.1-3.4
			c1.4-1.7,1.6-4.7,3.2-6.1c3.3-2.7,7.8-4.1,10.8-7c3.1-3,5.1-7.1,8.3-11.7c1.1,2.4,2,3.5,2,4.6c-0.5,5.3-1.6,10.5-1.7,15.8
			c-0.1,4.2,0.1,8.6,1.4,12.5c1.6,4.8,4.2,5.2,8.3,2.2c2.1-1.5,4.3-4.2,6.5-4.3c9.4-0.2,11.6-6.4,12.7-13.8
			c0.8-5.6,3.9-8.9,9.5-10.1c8.5-1.7,16.9-3.6,25.3-5.5c1.7-0.4,3.3-1.3,5-1.9c-0.5-1.3-0.5-2.1-0.9-2.5c-0.9-0.9-2-1.7-3.1-2.5
			c-10.7-7.2-10.8-7.2-7.1-19.6c1.7-5.9,1.7-12-3.9-15.3c-6.2-3.7-12.4-10.2-20.9-5.5c-4.9,2.7-9.2,6.6-14.2,9.2
			c-3.6,1.9-4.2,4.5-4.6,8.1c-0.8,7.6,0.3,14,8,17.6C1222.5,3036.6,1224.2,3037.1,1225.8,3037.6z M1458,2085.7
			c-7.6-0.2-12,3.4-16.6,6.5c-3,2-5.9,4.6-9.2,5.9c-11.8,4.4-23.8,8.3-35.8,12.5c-6.3,2.2-12.7,4.2-18.7,7
			c-6.9,3.2-12.3,8.3-13.5,16.2c-1.6,10.3-4.7,20-9,29.5c-1.4,3.2-1.9,7.2-1.6,10.6c0.6,5.6,4.4,7.2,9.3,4.4
			c5.7-3.3,10.1-7.8,10.9-14.7c1.2-10.6,7.5-18.4,14.2-25.8c6.1-6.7,12.8-5.2,16.2,3.3c0.9,2.1,0.8,4.6,1.7,6.8
			c0.8,2.1,1.9,4.4,3.6,5.7c8.6,6.4,23.6,1.4,26.9-8.9c1.3-4.1,2.3-8.3,3.4-12.5c3.9-14.4,6.6-29.3,16.3-41.5
			C1457,2089.7,1457.1,2088.3,1458,2085.7z M1584.8,1895c-0.2,0-0.5,0-0.7-0.1c0.2-3,0.8-6,0.6-8.9c-0.2-2.1-1.6-4-2.4-6
			c-2.1,1.2-4.8,2-6.2,3.8c-2.1,2.9-3.3,6.5-4.9,9.8c-2.5,5-5,10-7.5,14.9c-6.4,12.4-13.4,24.4-13.6,39.1
			c-0.1,5.2-2.1,10.3-2.9,15.4c-0.5,3.5-1.4,7.3-0.5,10.6c2.5,9.5,4.3,18.7-0.4,28.2c-1.9,3.8,0.1,6.2,4.3,7.1
			c3.9,0.8,7.6,2.4,11.5,2.8c2.4,0.3,5.9-0.2,7.1-1.7c3.3-4,6.9-8.5,7.9-13.4c1.2-6,3.7-10.4,7.7-14.6c8-8.4,8-10.4,0.3-19
			c-4-4.5-5.5-9.4-4.9-15.5C1582.1,1930,1583.4,1912.5,1584.8,1895z M845.8,3053.4c5.1-2.4,9.5-3.9,13.3-6.4
			c5.8-3.7,5.4-7.9-0.4-11.2c-4-2.2-8-4.6-11.9-7c-9.4-5.7-18.5-11.8-28-17.2c-7.3-4.2-15.3-5.2-22.9-0.8
			c-9.7,5.7-19.2,11.9-28.6,18c-2.2,1.4-4.3,3.2-5.9,5.3c-0.8,1.1-1.2,3.4-0.5,4.5c0.6,1.1,2.7,1.7,4.2,1.9c1.2,0.2,2.6-0.4,3.9-0.8
			c7.9-2.4,15.7-4.9,23.6-7.1c5.8-1.7,9.4-0.5,12.7,5c3.1,5.1,5.6,10.5,8,16c3.2,7.4,6.2,9.3,13.8,6.8c6.5-2.2,12.4-1.6,18.2,1.7
			c1.5,0.8,2.9,1.8,5.8,3.6C848.8,3060.7,847.5,3057.7,845.8,3053.4z M1562.7,2217.1c-0.4-0.5-0.7-0.9-1.1-1.4
			c-1.5,0.6-3.2,0.9-4.5,1.8c-16.9,11.7-34.6,22.4-50.2,35.6c-7.8,6.6-16,11.4-24.7,16.2c-4.4,2.4-8.6,5-12.7,7.9
			c-1.6,1.2-2.5,3.3-4.1,5.5c5.7,2.7,10,0.3,14.3-1.1c7.1-2.3,14.1-3.8,21.5-1.4c4.8,1.6,9-0.1,13.4-2.2c9.6-4.5,19.4-8.6,29.2-12.5
			c4.3-1.7,8.3-3.7,8.5-8.7c0.3-5.8,3.5-9.7,7-13.9c7-8.1,6.8-10.3-0.1-18.6c-0.4-0.4-0.2-1.3-0.4-2.1
			C1560.1,2220.7,1561.4,2218.9,1562.7,2217.1z M1289.5,3003.5c3.2-11.3,0.8-19.4-6.3-23.6c-7.7-4.6-7.7-4.6-2.5-13
			c2.8-4.4,2.4-7.5-2.1-10c-6.6-3.6-13.3-4.9-21-2.1c-14.8,5.4-15.8,18.6-13.3,30.5c1.2,5.6,4.4,11,11.1,12c0.8-0.6,1.1-0.8,1.3-1.1
			c2.5-2.6,2.2-9.2,7.8-7.1c4.6,1.8,2.9,6.8,2.3,10.7c-0.1,1-0.7,2-0.6,2.9c0.2,4.6-0.1,9.3,1,13.7c1.9,7.6,3.7,8.3,12.5,6.2
			c1.4-8-6.3-15.3-2.4-24.9C1281.3,2999.6,1285,3001.4,1289.5,3003.5z M1665.8,1790.7c1,3,2.3,8.2,4.6,12.9
			c2.6,5.2,6.6,5.7,10.2,1.1c3-3.9,5.6-8.3,7.3-12.9c4-10.6,7-21.5,15-30.1c1.7-1.9,2.8-4.5,3.8-7c3.3-8.3,0.7-12.3-8-12.3
			c-6.3,0-12.6,0.4-18.9,0.7c-4.6,0.2-8.4,2.9-8.2,7.2c0.4,12.8-1.3,25.2-5.8,37.2C1665.7,1787.7,1665.8,1788.1,1665.8,1790.7z
			 M1981.5,1718.6c-3.4,0.2-6.3,0.2-9.1,0.6c-3.9,0.6-8,0.9-11.6,2.4c-2.3,1-3.9,3.8-5.8,5.9c2.3,1.6,4.4,3.8,7,4.8
			c4.9,1.9,9.6,0.5,14.5-1.3c5.2-1.9,10.9-3.5,16.3-3.2c15.5,1.1,23.8-4.2,26.1-19c0.4-2.4-1.1-6-2.9-7.7c-1.5-1.4-5.4-1.7-7.1-0.6
			c-1.5,1-1.9,4.4-2,6.8c-0.1,3.6,1.3,8.4-4.1,8.3c-4.6-0.1-5.1-4.4-4.9-8.3c0-0.7,0.2-1.3,0.2-2c-0.4-5.7-4.4-8.2-9.5-5.6
			c-4.1,2.1-6.6,5.6-7,10.3C1981.3,1712.5,1981.5,1715.1,1981.5,1718.6z M1738.3,1687.5c0.2-8.4-1.9-15.9-8-21.8
			c-4.9-4.7-8.4-4.5-12.3,0.9c-2.7,3.7-4.9,7.8-7.3,11.8c-5.1,8.6-1.8,21.8,6.8,27c7.2,4.4,15.9,1.6,18.7-6.3
			C1737.4,1695.4,1737.6,1691.4,1738.3,1687.5z M1063.4,2635.7c1.1-0.3,2.6-0.4,3.4-1.1c9-8.3,17.8-16.9,26.9-25.1
			c9.6-8.6,14.2-18.9,12.3-31.9c-0.6-4,1.5-10-4.1-10.9c-5.2-0.9-6,5-7.8,8.8c-8.7,17.8-16,36.4-28.9,51.9
			C1063.4,2629.6,1060.7,2631.8,1063.4,2635.7z M1354.4,1950c-4.4,10.4-7.8,19.5-8.9,29.3c-0.7,6.9-0.9,13.9-0.6,20.8
			c0.3,7.2,1.4,14.5,2.6,21.6c0.2,1.4,2.7,3.4,4.1,3.3c1.3,0,2.7-2.3,3.6-3.8c0.6-1,0.4-2.6,0.5-3.9c1.2-17.5,2.3-35,3.5-52.5
			C1359.4,1960.1,1359.8,1955.5,1354.4,1950z M1651.7,2227.1c-2.7-0.8-4.5-1.8-6.2-1.7c-6,0.1-10-2.9-12.8-7.8
			c-0.8-1.4-1.6-2.9-2.5-4.3c-3.6-4.9-16.5-5.7-20.4-1c-0.9,1.2-0.8,3.7-0.4,5.4c0.9,3.7,2.2,7.3,3.5,11.4
			C1625.2,2235.3,1638,2238.1,1651.7,2227.1z M1150.1,3101.2c-7.8,4.6-12.6,15.1-10.9,22.3c0.8,3.4,2.4,6.3,6.3,6.6
			c3.5,0.3,5.5-1.7,6.5-4.9c1.3-4.1,3.9-7,8.2-7.8c5.5-1,7.5-4.6,8-9.8c0.4-3.6,1.9-7.1,2.3-10.6c0.2-1.9-0.6-4-1-5.9
			c-11.4,2.7-8.7,14.1-14.1,21.9C1153.3,3108.2,1151.9,3105,1150.1,3101.2z M1595.3,1840c2.4-1.7,4.2-2.5,5.3-3.9
			c4.8-6.2,9.5-12.5,14-19c3.1-4.4,0.8-9.4-5.4-12.7c-5.9-3.2-10.3-2.2-11.9,3.6c-2.2,8.3-3.4,16.8-4.5,25.3
			C1592.7,1835.1,1594.3,1837.2,1595.3,1840z M1336.2,2962.7c-3.1,0.3-6,0.2-8.6,0.9c-10.7,3.1-12.9,8.3-8.5,18.6
			c1.4,3.3,2.4,6.9,4,10.2c1.3,2.6,2.8,5.3,4.9,7.3c1.1,1.1,4.1,1.6,5.2,0.8c1.1-0.7,1.2-3.4,1.2-5.2c0-1.2-0.9-2.5-1.7-3.5
			c-3.1-3.9-2.6-7.7-0.4-12C1334.8,2975,1337.3,2969.9,1336.2,2962.7z M1287.7,2951.5c1.6,6.8,3.2,14.1,5.2,21.3
			c0.4,1.4,2.8,3.3,4.2,3.2c1.4-0.1,3.3-2,4.1-3.5c3.3-6.4,6.5-12.9,9.2-19.5c0.9-2.4,1.3-6.1,0-8c-2-3.1-5.8-2.5-8.9-0.8
			C1297.2,2946.4,1292.9,2948.7,1287.7,2951.5z M1644.7,2278.9c-1-4.6-1.3-7-2.1-9.3c-1.9-5.2-3.9-10.5-6.3-15.5
			c-1.4-3-3.2-5.8-5.3-8.3c-3.7-4.5-6.2-4.7-9.9-1.3c-4.3,3.9-4.9,8.5-1.4,12.2c5.7,6,11.5,12,17.5,17.8
			C1638.5,2275.8,1640.7,2276.5,1644.7,2278.9z M2315.9,1041.1c-5.6,4.5-9.5,7.6-13.4,10.8c8.9,6.7,17,12.8,25.1,18.8
			c0.5,0.4,1.2,0.7,1.8,0.9c4.8,1.8,8-0.7,7.2-5.8c-0.9-5.6-3.6-10-9.4-11.6C2321.1,1052.6,2316.8,1049.6,2315.9,1041.1z
			 M627.7,2930.8c2.7,0.7,4.3,1.7,5.7,1.4c7.8-1.3,15.5-2.8,23.2-4.5c3.6-0.8,8.1-2.1,7.4-6.4c-0.5-3.4-3.1-7.2-5.9-9.5
			c-2.9-2.3-7-2.8-11-0.8c1.9,2.9,3.4,5.3,5,7.8C646.1,2927.2,633.8,2920.4,627.7,2930.8z M1320.3,2493.7c7-2.4,10-7.4,13.2-11.8
			c1.8-2.5,2.5-5.7,3.7-8.6c-3.3-1-6.6-2.2-9.9-3c-1.2-0.3-2.6,0.1-3.9,0.4c-3.4,0.6-5.4,2.5-4.9,6.2
			C1318.9,2482,1319.5,2487.2,1320.3,2493.7z M2421.8,727c-0.2,1.4-0.8,2.9-0.4,3.9c3,6.1,6.1,12.3,9.6,18.1
			c0.7,1.1,3.7,1.8,5.2,1.4c4.3-1.3,6.1-4.8,6.2-9.2c0.1-5-2.4-8.4-6.8-9.6C2431.4,730.3,2427.3,728.8,2421.8,727z M2292.4,1080.3
			c-9.6-2-13.5,3.8-18,7.8c-3.9,3.5-3.4,7,0.4,10.1c4.6,3.7,9.7,3.5,11.9-1.1C2289.1,1092.1,2290.4,1086.6,2292.4,1080.3z
			 M903.8,2417.8c-3.3,1-8.3,2-12.6,4.1c-4.8,2.4-4.5,7.2,0,10.2c6.5,4.3,18.7-1.2,19.5-8.9C911.1,2419.4,908.8,2417.9,903.8,2417.8
			z M1416.1,1967.3c-8.1-0.9-16.6,3-19.4,8.4c-1.9,3.7-1.3,7.3,1.6,10.1c3.4,3.3,6.1,0.5,8.5-1.8
			C1411.3,1979.6,1415.3,1974.8,1416.1,1967.3z M1245,960.8c0.9-0.6,3.5-1.5,4.2-3.2c0.7-1.7,0.2-4.9-1.1-6.1c-3-3-6.5-5.7-10.2-7.5
			c-4.6-2.2-9.7,1.3-9,5.5C1229.7,954.4,1238.4,961.1,1245,960.8z M1286.2,1365.8c4.1-1.1,7.5-1.6,10.4-2.8c4.2-1.8,5.6-6.2,3.6-9.8
			c-2.2-3.9-5.6-4.4-9.3-2.4c-2.6,1.4-5.4,2.8-7.4,4.9c-1.6,1.7-3.4,4.7-2.9,6.4C1281.2,1363.8,1284.4,1364.8,1286.2,1365.8z
			 M1493.3,2413.2c-2.8,2.9-5.1,4.6-6.5,6.9c-2.3,3.6-4.2,7.5-5.8,11.4c-0.7,1.6-1,4.4-0.1,5.2c1,1,3.7,1.1,5.3,0.5
			C1495.6,2434.2,1498.4,2426.6,1493.3,2413.2z M1325.8,2303.7c-5.2-3.8-9.2-1.3-12.7,1.6c-3.9,3.3-6.6,7.6-5.9,12.9
			c0.5,3.4,3.4,4.6,5.8,2.5C1318.3,2316,1323.7,2311.2,1325.8,2303.7z M869.9,2454.2c0.7,0.6,1.4,1.2,2.1,1.9
			c5-2.3,10.2-4.3,14.9-6.9c4.2-2.3,3.7-7-0.5-9.3c-4.3-2.4-10.3-1.1-12.8,3.7C871.8,2446.7,871.1,2450.6,869.9,2454.2z
			 M1186.2,2893.8c6.9-9.1,14.6-17.5,16.8-29.2C1193,2871.8,1184,2879.5,1186.2,2893.8z M2386.7,783.3c-6.5,5.9-9.3,10-8.2,12.7
			c2,5.3,7.4,6.1,12,7.6c1.4,0.5,3.5,0.3,4.8-0.4c1.7-0.9,2.9-2.7,4.6-4.4C2387,792.5,2387,792.5,2386.7,783.3z M2056.1,1680.9
			c-6.9,4.5-13.1,8.7-19.4,12.8c3.9,4.2,7.6,6.7,10.6,6.5c1.5-0.1,4-0.7,4.3-1.7C2053.1,1692.9,2057.6,1687.8,2056.1,1680.9z
			 M2181.7,1286.3c-5.9,0.1-10.9,1-15.3,4c-3.1,2.1-3.9,5.4-1.7,8.7c2.3,3.4,5.6,3.7,8.6,1.2
			C2177.2,1296.9,2181,1293.3,2181.7,1286.3z M1274,1318.5c4.2,0,8.3-3.2,8.5-6.8c0.2-3.5-2.9-6.6-7-6.8c-4.3-0.3-8,2.7-8.2,6.7
			C1267.1,1315.5,1270,1318.5,1274,1318.5z M1250,1587.7c-3-8.1-8.9-9.8-15.2-10.5c-1.3-0.1-3.4,1-4,2.1c-0.5,1,0.1,3.7,0.9,4.2
			C1237,1586.4,1242.2,1590.4,1250,1587.7z M1600.7,2195c-8.8-3.7-15.4,1.1-15.3,11.1C1594.3,2206.6,1597.6,2204.2,1600.7,2195z
			 M1914,1889.3c-1-0.9-2.8-3.5-4.9-4c-3.9-0.9-8,3.2-7.6,7c0.4,3.8,2.8,5.8,6.5,6.2C1911.5,1898.8,1913.9,1895.7,1914,1889.3z
			 M1756.6,1751.7c9.2-1.2,14.4-6.5,16-15.6C1764.2,1736.9,1758.5,1742.2,1756.6,1751.7z M1210.7,927.7c5.3,4.9,11.1,7.1,18.4,6
			C1225.4,923.6,1220,921.9,1210.7,927.7z M1150.1,2854.9c-12.5-1.6-17.5,1.8-17,10.6C1140.1,2864.8,1145.1,2861.3,1150.1,2854.9z
			 M2355.1,865.2c5.4,1.1,9.4,2.3,13.4,2.6c1.3,0.1,3-2,3.9-3.5c0.4-0.7-0.3-2.6-1.1-3.4C2367.7,857.4,2360.6,858.7,2355.1,865.2z
			 M2065.7,1663.1c-9-2.4-12.1-1.7-14,2.6c-0.7,1.5-0.6,4.3,0.3,5.3c1,1,4.1,1.3,5.2,0.4C2060,1669.4,2062.1,1666.6,2065.7,1663.1z
			 M928.4,2355.4c5.3,0,8.6-2.5,7.8-5.7c-0.5-2-2.6-4.5-4.6-5.2c-2.6-0.9-7.2,4.1-6.5,7.1C925.5,2353.3,927.7,2354.6,928.4,2355.4z
			 M845.5,3078.7c0-1,0-2,0-3.1c-2.5-1.2-4.9-3-7.5-3.5c-3.4-0.7-6.2,2.7-5.7,6.2c0.5,3.3,2.8,4.6,5.7,3.8
			C840.6,3081.4,843,3079.9,845.5,3078.7z M1409.3,2799.9c6.3,8.9,11.2,8.8,17.2,1C1420.3,2800.5,1414.8,2800.2,1409.3,2799.9z
			 M1434.2,2791.8c2.5-3.5,4.5-5.9,5.8-8.6c0.3-0.5-2.2-3.4-3.4-3.4c-3.7,0-6.5,2.1-6.3,6.1
			C1430.4,2787.5,1432.2,2788.9,1434.2,2791.8z M2132.7,1604.4c-2.9-8.6-6-9.1-14.3-3.6C2123.8,1602.2,2128.2,1603.3,2132.7,1604.4z
			 M963.3,2261.1c5.5,2.6,8.8,2.4,9.8-0.8c0.3-1.2-0.6-3.7-1.5-4.1C967.2,2254.6,963.8,2255.6,963.3,2261.1z M1968.8,1859.6
			c6.7,1.9,11,3.6,15.3-1.4C1979.1,1854,1975,1855.1,1968.8,1859.6z M1178.6,1954.2c2.9,1.8,4.8,3.7,5.8,3.3
			c2.1-0.8,3.7-2.9,5.6-4.4c-1.5-1.3-3.2-3.7-4.5-3.5C1183.3,1949.9,1181.6,1952,1178.6,1954.2z M1064.3,3154.5
			c-6.2,0.6-9.8,2.7-10.3,9.3C1060.6,3163.9,1063.1,3160.7,1064.3,3154.5z M2209.7,1191.4c5,4.3,8.5,6.5,14.2,3.7
			C2220.6,1189.8,2217,1187.9,2209.7,1191.4z M2031.4,1688.6c-2.7-1.5-4.6-3.2-5.2-2.8c-1.9,1.3-3.4,3.3-5,5
			c1.1,0.9,2.7,2.9,3.3,2.6C2026.6,1692.5,2028.4,1690.8,2031.4,1688.6z M2132.2,1560c1.9-2.5,3.8-4.3,3.5-4.7c-1.3-1.9-3.1-3.6-5-5
			c-0.1-0.1-3.1,2.4-2.9,2.9C2128.7,1555.3,2130.3,1557.1,2132.2,1560z M2329.8,961.8c-7.9,0.2-7.9,0.2-10.5,5.6
			C2324.5,969.7,2327.7,968.2,2329.8,961.8z M1064.9,2165.8c1.6-2.2,3.4-4.1,3.2-4.4c-1.2-1.6-2.8-3-4.6-3.9
			c-0.4-0.2-3.1,2.4-2.9,2.9C1061.5,2162.2,1063,2163.6,1064.9,2165.8z M2225.3,198.2c5.6,2.6,9,3.6,11.9-1.3
			C2232,194.4,2232,194.4,2225.3,198.2z M1270.4,3068.3c-4.7-5.7-9.1-8.1-16.7-8.7C1258.7,3065,1263,3067.6,1270.4,3068.3z
			 M1682,2218.5c-3.9,2.8-5.4,5.4-2.8,8.8c0.5,0.6,2.8,0.8,3.5,0.2C1685.9,2224.8,1685.2,2221.9,1682,2218.5z M2102.4,1644.8
			c0.1-1.2,0.2-2.4,0.3-3.6c-3.2-2.3-6.3-3.3-11.1,2.9C2096.4,1644.4,2099.4,1644.6,2102.4,1644.8z M1626.9,2201.5
			c1.6-2.3,3.3-4.1,3-4.7c-0.8-1.5-2.4-2.9-3.9-3.4c-0.8-0.2-2.3,1.6-3.4,2.5C1623.8,2197.6,1625,2199.1,1626.9,2201.5z
			 M1644.1,1975.2c4.2,0,5.9-2,5.8-5.3c0-0.7-1.9-2.1-2.7-1.9C1643.8,1968.8,1642.6,1971.1,1644.1,1975.2z M678.6,2913.2
			c0-1.1-0.1-2.3-0.1-3.4c-3.7,0.2-7.5-2.6-11.1,2.8C671.1,2912.9,674.9,2913,678.6,2913.2z M1589.4,2318.9c3,2.1,5.9,2.3,8.1-1.3
			c0.5-0.7-0.4-2.3-0.7-3.5c-2.3,0.8-4.6,1.5-6.9,2.4C1589.6,2316.6,1589.7,2317.7,1589.4,2318.9z M2226.7,1110.4
			c1.1-5.8,1.1-5.8-1.9-9.6C2222,1104.3,2222.1,1107,2226.7,1110.4z M1427.8,1953.7c-5,0.6-7.5,1.9-6.7,6.8
			C1425.6,1960.7,1427.5,1958.9,1427.8,1953.7z M809.3,3074.6c1.8,1.5,2.9,2.8,4.2,3.2c0.6,0.2,1.8-1.3,2.7-2
			c-1.2-1.3-2.3-2.7-3.7-3.7C812.3,3071.9,810.8,3073.4,809.3,3074.6z M1654.7,2182.9c0.9-2.2,2-3.5,1.6-4.2c-0.6-1.2-2-2.3-3.3-2.8
			c-0.4-0.2-2.4,1.9-2.2,2.2C1651.7,2179.5,1652.9,2180.7,1654.7,2182.9z M1575.3,2337.6c0.8,0.8,1.6,1.5,2.4,2.3
			c1.4-1.3,2.7-2.7,4.1-4c-0.8-0.8-2.3-2.3-2.5-2.1C1577.9,2334.9,1576.6,2336.3,1575.3,2337.6z M2371,889.8
			c-1.8-1.1-2.9-2.3-3.8-2.2c-1,0.1-1.8,1.5-2.7,2.3c0.9,0.8,1.7,2.2,2.6,2.3C2368.1,892.2,2369.1,891,2371,889.8z M666.4,2897.2
			c-4.1-2.8-6-2.1-7.3,1c-0.2,0.4,0.4,1.1,1.1,2.8C662.2,2899.8,663.9,2898.8,666.4,2897.2z M2099.7,1586.1c1-1.7,1.8-2.9,2.2-4.2
			c0.1-0.4-1.2-1.1-1.8-1.7c-0.9,1.1-1.9,2.1-2.5,3.4C2097.4,1583.8,2098.6,1584.8,2099.7,1586.1z M1951.6,1861.3
			c1-1.2,2.1-2.3,2-2.6c-0.5-1-1.6-1.7-2.4-2.6c-0.8,0.8-1.6,1.7-2.4,2.5C1949.7,1859.5,1950.5,1860.3,1951.6,1861.3z
			 M1271.3,3085.6c0.4-1.1,0.8-2.1,1.2-3.2c-2.2-0.8-4.5-1.5-6.7-2.3c-0.3,0.9-0.7,1.8-1,2.7
			C1266.9,3083.7,1269.1,3084.7,1271.3,3085.6z M1064.4,2088.1c1.4,0.8,2.5,1.9,3.5,1.9c0.7,0,1.3-1.6,2-2.6
			c-1.1-0.6-2.1-1.4-3.2-1.7C1066.1,2085.7,1065.4,2087,1064.4,2088.1z M2068.5,1588.9c0.2,0.7,0.5,1.5,0.7,2.2
			c2.6,0.5,4.7,0.1,5.6-4.8C2072,1587.5,2070.3,1588.2,2068.5,1588.9z M1883.4,1903.4c-0.6,1.1-1.4,2.1-1.2,2.7
			c0.2,0.7,1.3,1.1,2.1,1.6c0.5-0.7,1.4-1.5,1.3-2.2C1885.4,1904.8,1884.3,1904.3,1883.4,1903.4z M2309.6,1072.7
			c-1.4-0.5-2.3-1.1-3-0.9c-0.6,0.2-1,1.3-1.5,2c0.8,0.4,1.7,1.1,2.4,1C2308.1,1074.7,2308.7,1073.7,2309.6,1072.7z M2414.4,814.6
			c0.7-1.1,1.6-1.9,1.5-2.5c-0.1-0.7-1.2-1.2-1.8-1.8c-0.6,0.6-1.6,1.3-1.6,1.9C2412.5,812.9,2413.5,813.6,2414.4,814.6z
			 M1068.5,2174.7c-0.8-1-1.3-2.1-2-2.2c-0.6-0.1-1.5,0.8-2.2,1.3c0.5,0.7,0.9,1.9,1.5,2.1
			C1066.5,2176.1,1067.4,2175.3,1068.5,2174.7z M1179.4,3101.7c1.1-0.7,2.3-1.1,2.4-1.7c0.1-0.6-0.6-2-1.2-2.2
			c-0.6-0.2-1.9,0.4-2.2,1C1178.2,3099.5,1178.9,3100.5,1179.4,3101.7z M1207.9,2981.8c-1.2-0.6-2.1-1.4-2.7-1.3
			c-0.6,0.1-1,1.3-1.5,2.1c0.7,0.5,1.5,1.4,2.2,1.3C1206.5,2983.9,1207.1,2982.7,1207.9,2981.8z M629.3,2878.2
			c0.6-0.1,1.2-0.2,1.8-0.4c-0.3-0.7-0.6-1.5-0.9-2.2c-0.5,0.3-1.3,0.5-1.5,0.9C628.5,2877,629.1,2877.6,629.3,2878.2z M1231,1661.5
			c-1.1-0.8-1.7-1.7-2.4-1.8c-0.7,0-1.4,0.8-2.1,1.2c0.6,0.6,1.1,1.6,1.7,1.7C1228.9,1662.8,1229.8,1662.1,1231,1661.5z
			 M1239.3,1508c0.4-1.3,1-2.3,0.7-2.9c-0.3-0.7-1.3-1-2-1.5c-0.3,0.8-1,1.6-0.9,2.3C1237.3,1506.6,1238.3,1507.1,1239.3,1508z
			 M1867.2,1904.6c0.9-0.8,2-1.3,2.1-1.9c0.1-0.6-0.8-1.8-1.4-1.9c-0.6-0.1-1.8,0.7-2,1.3
			C1865.8,1902.7,1866.7,1903.5,1867.2,1904.6z M1666.4,1960.7c-0.4-0.7-0.9-1.4-1.3-2.2c-1.2,1-2.5,2-3.7,3c0.3,0.5,0.7,1,1,1.4
			C1663.7,1962.2,1665.1,1961.5,1666.4,1960.7z M1299.7,3010.9c-0.6-0.2-1.2-0.5-1.8-0.7c-0.7,1.8-1.5,3.7-2.2,5.5
			c0.6,0.2,1.2,0.5,1.7,0.7C1298.2,3014.6,1299,3012.8,1299.7,3010.9z M1620.4,2180.1c0.5-1.3,0.9-2.1,1-2.9c0-0.3-1.2-1.1-1.4-0.9
			c-0.7,0.4-1.2,1.2-1.8,1.8C1618.8,2178.6,1619.4,2179.1,1620.4,2180.1z M1361.1,1852.2c-1.2-0.6-2-1-2.8-1.2c-0.2,0-1,1.2-0.8,1.5
			c0.3,0.8,1.1,1.4,1.7,2C1359.8,1853.9,1360.3,1853.2,1361.1,1852.2z M1093.7,2084c0.6,0.7,1,1.7,1.7,2c0.5,0.2,1.3-0.8,2-1.2
			c-0.6-0.6-1.2-1.4-2-1.8C1095.2,2082.8,1094.5,2083.5,1093.7,2084z M932.7,2334.8c1.1,0.9,1.7,1.6,2.4,1.8
			c0.4,0.1,1.5-0.5,1.5-0.7c-0.1-0.7-0.4-1.9-0.9-2C935,2333.7,934.2,2334.3,932.7,2334.8z M1354.7,2508.7c0.5-0.8,1.2-1.5,1.2-2.2
			c0-0.4-1.1-0.9-1.8-1.3c-0.4,0.8-0.8,1.6-1,2.4C1353.2,2507.8,1354.1,2508.2,1354.7,2508.7z M1217.9,862.6c0.5-0.2,1-0.4,1.6-0.7
			c-0.4-0.6-0.8-1.2-1.2-1.7c-0.4,0.4-1.1,0.7-1.2,1.1C1217,861.6,1217.6,862.1,1217.9,862.6z M2153.5,1271.2
			c-0.3-0.5-0.6-1.2-1.1-1.3c-0.4-0.1-0.9,0.5-1.4,0.8c0.3,0.5,0.6,1.2,1.1,1.3C2152.4,1272.1,2153,1271.5,2153.5,1271.2z
			 M1609.5,2258c0.5-0.3,1-0.6,1.5-0.8c-0.3-0.5-0.6-1.2-1-1.4c-0.4-0.1-1,0.5-1.5,0.8C1608.9,2257,1609.2,2257.5,1609.5,2258z
			 M2347,1044.9c0.5,0.3,1,1,1.4,0.9c0.4-0.1,0.8-0.8,1.1-1.2c-0.5-0.3-0.9-1-1.4-0.9C2347.7,1043.8,2347.4,1044.5,2347,1044.9z
			 M2312.3,217.4c0.5,0,1,0,1.5,0c0,0,0-0.8,0-0.8c-0.5-0.1-1-0.1-1.5-0.1C2312.3,216.8,2312.3,217.1,2312.3,217.4z M1209.4,2853.2
			c0.2-0.5,0.7-1.1,0.6-1.5c-0.1-0.4-0.9-0.5-1.4-0.8c-0.2,0.5-0.7,1.1-0.6,1.5C1208.1,2852.7,1208.9,2852.9,1209.4,2853.2z
			 M966.1,2242.6c-0.2-0.1-0.6-0.3-0.8-0.2c-0.2,0.1-0.4,0.4-0.6,0.7c0.4,0.2,0.9,0.3,1.3,0.5
			C966.1,2243.2,966.1,2242.9,966.1,2242.6z M1248.8,1472.2c0.3-0.1,0.7-0.1,0.8-0.3c0.1-0.2,0-0.6,0-0.9c-0.4,0.2-0.9,0.4-1.3,0.5
			C1248.4,1471.7,1248.6,1471.9,1248.8,1472.2z M781.7,2465.9c-0.3,0.1-0.7,0-0.8,0.2c-0.2,0.2-0.1,0.6-0.1,0.9
			c0.5-0.1,0.9-0.2,1.4-0.3C782,2466.4,781.8,2466.1,781.7,2465.9z M1201.7,2402.8l0.3,0.6l0.4-0.5L1201.7,2402.8z M797,2443.6
			l-0.3,0.6l0.7,0L797,2443.6z M1859.2,1946.3l0-0.7l-0.6,0.3L1859.2,1946.3z M2180.8,1302.3l0.6-0.3l-0.5-0.4L2180.8,1302.3z"/>
		<path class="st0" d="M2201.8,206.1c9.7,8.7,21.1,10.5,32.5,5.1c8.1-3.8,14.4-4,20.3,3c1.9-0.9,3.6-1.4,4.8-2.3
			c4.3-3.3,8.2-2.9,12.8-0.1c3.9,2.4,8.4,3.7,12.7,5.4c1.5,0.6,3.7,0.5,4.7,1.6c8.2,8.4,21.1,5.9,28.3,13.3c2.1-0.3,2.9-0.2,3.3-0.6
			c9.3-7.2,11.4-6.4,13.8,4.9c1.2,5.5,3.9,10.6,5.1,16.1c5.7,25.3,11.1,50.7,16.7,76.1c4.2,18.9,8.5,37.7,12.7,56.5
			c4.7,21.5,9.3,42.9,13.9,64.4c4.3,20.5,8.4,41.1,12.6,61.6c6.2,30.7,12.4,61.4,18.4,92.1c2.7,13.7,3.3,28,7.8,41.1
			c5.2,15.3,6.6,31.2,10.9,46.6c0.6,2.2,1,4.6,1.3,6.9c0.5,3.6,1.7,8.7-2.9,9.2c-4.1,0.5-8.7-2-12.6-4c-0.9-0.4-0.7-5.4,0.6-7
			c6.7-8.2,5.7-15.6-0.9-23.4c-2.2-2.6-3.2-6.3-5.3-10.8c-1.9,2.7-3.8,4.3-4.2,6.2c-1,4.5-2.4,9.4-1.7,13.8
			c1.2,7.3-1.2,11.5-6.9,15.9c-7.7,6-7.9,21.3-1.6,28.7c0.4,0.5,0.9,1,1.3,1.5c8.5,9.8,8.2,11.1-4.1,16c-4.5,1.8-7.1,4.7-8,9.3
			c-0.8,3.9-1.4,7.9-2.5,11.7c-3.1,10.8-8.8,15.1-19.9,15.5c-9.9,0.4-12,4.4-7.4,15.1c1.4-0.1,3,0,4.5-0.3c1.6-0.3,3.1-1.1,6.1-2.2
			c-2.2,4.9-4.5,9.1,0.3,12.1c9.8,6.1,8.1,15.7,6,24.2c-4.7,19-5.4,19.1-25,22.4c-3.8,0.6-7.6,1.4-12.2,2.3c1,2.9,1.2,4.8,2.2,6.4
			c1.9,3,1.2,5.5-0.6,8.3c-3.6,5.6-6.9,11.3-10.7,17.6c2.9,2.2,5.7,4.2,8.5,6.3c1,5.3-3.3,7-6.2,9.4c-3,2.5-6.1,4.9-10.5,8.3
			c5.3,4.2,9.1,8.8,14,10.7c4.8,1.9,10.7,1.2,16.1,1.6c-0.6,11-3.6,13-12.8,10c-5-1.7-10.3-2.6-15.5-3.5
			c-17.3-3.1-29.2,13.8-23.8,31.7c0.5,1.6,1.4,3,1.9,4.6c1.9,6.6,0.3,10-6,12.7c-1.2,0.5-2.6,0.7-3.8,1.3c-5.5,2.6-6.3,4.8-4,10.2
			c0.9,2.1,1.7,4.2,2.6,6.3c0.1,0.3-0.1,0.6-0.6,2.3c-9.8,2.2-20.7,4.3-29.1,11.8c-6.7-12.1-7.5-12.3-19.6-5.2
			c-0.5,0.3-0.6,1.1-1.6,2.9c7.4,0.6,13.8,4.6,21.3,2.2c5.8,3.8,11.6,7.7,17.5,11.3c3.9,2.4,7.4,1.2,11.1-1.4c7-5,7.3-4.9,12.8,1.8
			c2.1,2.6,3.6,5.7,5.8,9.3c-2.6,0.4-4,1-4.4,0.6c-7.8-7.6-17.6-3.8-26.5-4.5c-5.9-0.5-7.8,3.4-4.8,8.5c1.3,2.3,3.4,4.1,5,6.2
			c4.5,5.8,4.2,7.2-2.1,10.3c-1.2,0.6-2.6,0.9-3.7,1.6c-4.4,2.7-5.6,6.1-3.9,11c0.6,1.6,1.6,2.9,2.2,4.5c2,6,0.1,9.7-6,11.3
			c-2.5,0.6-5.1,0.9-8.6,1.4c1.8,3.3,3.3,5.8,4.5,8.4c1.8,3.7,0.6,6.9-3.2,8c-3.4,1-7.3,1.4-10.7,0.7c-4.3-0.9-2.9-5.1-3.4-8.3
			c-0.3-2.2-2.2-4.8-4.1-6c-4.8-2.9-10.1-5-15.2-7.3c-4.9-2.2-6.7-1.2-9.7,3.6c-5.2,8.3-7.8,17.3-8.6,26.9
			c-0.6,7.2,3.3,12.6,9.1,16.7c5.9,4.2,9.8,9.5,9.7,16.9c-0.9,0.5-1.3,0.9-1.4,0.8c-7.8-5.1-16.3-7.7-25.5-9.2
			c-2-0.3-4.1-4.1-4.9-6.7c-1.6-5-2.3-10.3-3.8-17.2c-4.9,6-8.8,10.7-13.3,16.3c2.8,1,4.5,1.7,6.2,2.3c6.7,2.2,7,4.1,1.9,9.4
			c-2.1,2.1-4.2,4.3-5.5,6.9c-1.6,3.3-2.4,7.3,1.4,9.9c3.5,2.4,7.1,1.3,10-1.4c2-1.8,3.7-3.8,5.1-5.3c7.2,1.9,13.8,3.7,20.4,5.5
			c5.4,1.5,8.2,5.8,9.5,10.7c0.5,1.8-1.3,5.1-3.1,6.3c-4.8,3.5-12.5,2.8-17.4-2.1c-4.5-4.4-8.8-5-14.5-3.2
			c-3.7,1.2-7.9,1.1-11.8,1.6c-2.3,0.3-4.8,0.2-6.8,1.1c-1.6,0.7-3.7,2.8-3.5,4.1c0.2,1.9,1.8,4.5,3.5,5.2c2.6,1.1,5.8,1.1,8.8,1.1
			c8.5,0,14.8,3.7,18.7,11.1c2.7,5.1,7.2,9.6,6.9,15.9c-4.2,3.1-7.2-0.1-10.6-0.9c-4.5-1.1-9-2.1-13.6-2.5c-3.7-0.3-6.5,1.8-6.4,6
			c0.1,3.8,2.8,5,6.1,5.2c4.3,0.3,8.6,0.6,12.9,1.1c1.2,0.1,2.2,1.2,4.3,2.4c-4.6,6.4-8.5,12.8-13.5,18.3c-3,3.4-5.2,6.4-6.1,10.9
			c-1.3,7.1-3.2,7.5-10.5,4.5c-2.3-0.9-5-1.4-7.6-1.4c-4.2-0.1-8.5,0.5-12.7,0.3c-4.1-0.1-6.7,1.1-8.4,5.3c-2.9,7.3-3.2,7-11,6.1
			c-3.1-0.3-6.4,0.4-9.6,0.8c-4.8,0.6-9.6,1.5-14.3,2.2c0.8,4.5,0.8,4.5,8.6,10.1c-0.9,11.4-0.9,11.4,14.6,17.3
			c-6.8,9.7-4.8,14.8,7.1,18.2c10.3,3,11,4.1,10.2,14.6c-0.2,2.7,0.2,5.4-0.3,8c-0.3,1.8-1.3,4.5-2.6,4.9c-6.2,2-6.5,8.1-9.2,12.4
			c-2.9,4.6-2.1,8.8,1.4,12.8c2.5,2.9,4.8,6.1,7.3,9.3c-11.8,12.4-27,13.8-40.1,16.2c-5.2,6.6-9.5,12.1-14.3,18.1
			c6.2,2.9,10.9,0.9,14.1-2.9c5.3-6.3,10.3-11.1,19.5-7.4c2.1,0.8,5.5-1.6,8.3-2.7c3.4-1.4,6.6-3.4,10-4.4c6.9-2.1,11.5,2,9.7,9
			c-0.9,3.6-3.8,6.8-6.2,9.8c-2,2.4-4.7,4.3-8.1,7.2c4.9,4,8.8,7.1,13.5,11c-3.4,2-5.8,3.4-8.7,5c0.4,2.7,0.8,5.2,1.4,9.6
			c-5.7-2.9-10.5-5.3-15.8-8c-4.4,3.2-6.2,7.9-6.8,13.3c-0.3,2.6-0.7,5.3-0.8,7.9c-0.2,13.8-8.5,23.2-17.4,32.3
			c-7.1,7.3-6.1,13.2,3,17.6c5.4,2.6,10.4,5.8,15.4,9.2c1.6,1.1,2.4,3.5,4.4,6.5c-3.6,0.4-5.7,0.7-7.9,0.8c-6,0.2-12-0.2-17.8,0.6
			c-6.5,0.9-7.6,3.4-5.7,9.7c2.2,7.6,2.2,7.7-4.9,11.2c-3.4,1.7-6.6,3.3-6.5,8.6c2.7,1,5.7,2.1,9.6,3.5c-1.7,3-3.3,5.6-4.9,8.4
			c0.9,2.6,1.9,5.3,3,8.6c-2,0.7-3.6,1.8-4.9,1.6c-5.3-0.9-10.2-1.7-15.6,0.5c-5.2,2-7.6-2.6-9.3-6.5c-4.4,3.1-8.6,5.9-12.8,8.8
			c-1.3,1-2.7,2-3.7,3.3c-3.6,4.7-2.2,8.9,3.6,10.6c3,0.9,6.2,1.4,11.2,2.4c-7.8,5.9-15.2,6.1-22,7c-7.8,1-15.9,0.2-23.8,0.8
			c-3.9,0.3-7.6,1.8-11.4,2.8c-8.3,2.2-16.6,4.6-25,6.5c-6.5,1.5-10.5-2.5-14-7.4c-3.7-5.1-1.8-9.5,1.4-13.7
			c5.8-7.3,11.7-14.5,17.8-21.6c7.9-9.2,9.8-25,4-35.5c-2.2-3.9-5.4-6.1-9.8-5.5c-6.5,0.8-12.5-0.1-18.5-2.9
			c-1.7-0.8-3.9-0.8-5.9-0.6c-33.1,3.3-63.6,13.9-91.6,31.8c-5.6,3.6-12.2,5.7-17.5,9.6c-10.2,7.4-19.9,15.5-29.7,23.6
			c-6.3,5.2-10.3,6.9-11.8,4c-2.8-5.1,2.2-7.6,4.4-11c0.9-1.4,2.1-2.6,2.8-4.1c13.1-26.9,28.9-52.6,38.3-81.3
			c2.7-8.2,4.3-16.8,6.1-25.2c1.6-7.5-3-12.7-7.6-17.5c-2.9-3-6.8-2.3-10.1,0c-19.5,13.2-39.3,26-55,44.2
			c-11.6,13.5-21.6,27.8-29.9,43.4c-4.4,8.2-9.7,15.9-13.6,24.3c-4.4,9.3-8.1,18.9-11.4,28.6c-1.6,4.9-3.6,9.1-7.6,12.5
			c-4.8,4.1-9.1,8.8-13.9,12.9c-5.3,4.6-8.7,3.5-11-3.2c-0.4-1.3-0.9-2.6-0.9-3.9c0.1-13.5-8-23-15.6-32.6c-7.1-8.9-15.7-9.5-24.1-2
			c-1.7,1.6-3.5,3.1-5,4.9c-12.6,15.9-27.4,30.1-36.4,48.6c-3.1,6.3-7.3,8.7-14.7,9.5c-11.1,1.2-22.4,3.9-32.7,8.2
			c-14.1,5.8-27.5,13.4-39.2,23.7c-4.4,3.9-7.6,8.2-9.1,13.9c-1.4,5.2-2.8,10.3-4.5,15.3c-1.1,3.1-2.4,6.3-4.4,8.8
			c-5.2,6.5-10.1,13.6-16.5,18.7c-9.5,7.6-19.6,15.5-30.7,20c-9.8,4-16.9,9.1-20.8,18.4c-3.9,9.3-11.5,12.5-20.3,14
			c-5.9,1-8.2-1.4-6.8-7.3c0.6-2.8,2.3-5.4,3.7-8c1.9-3.5,4.4-6.8,5.8-10.4c10.8-26.6,25.5-51.2,38.1-76.8
			c5.5-11.3,10.6-23.2,13.6-35.3c1.7-6.9-0.8-15.1-2.3-22.5c-0.8-4.1-5-4.4-8.2-2.8c-7.4,3.7-14.9,7.4-21.9,11.9
			c-5,3.2-9.4,7.5-13.6,11.7c-23,23.7-45.8,47.7-61.2,77.3c-6.2,11.9-13.3,23.6-14.7,37.8c-1,10.5-4.6,20.7-7.2,31
			c-0.7,2.9-2.1,5.7-3.6,8.2c-3.9,6.2-7.7,7.1-14.3,3.9c-9.6-4.6-15.2-2.9-21.9,7.7c3.3,0.4,6.1,0.8,8.8,1.1c6.2,0.8,8,3.5,4.9,8.6
			c-5.5,9-11.3,18-17.9,26.3c-3.8,4.8-6.9,9.2-7.7,15.7c-1.2,10-7.8,14.9-17.5,12.9c-7-1.4-12.7-1.8-18.2,4c-1.8,1.9-6.9,1.9-10.1,1
			c-7.6-2-11.9-8.3-15.8-14.6c-2.4-3.8,0.2-7.4,4.7-7.2c1.3,0.1,2.8,0.3,3.8,1c4.9,3.2,9.9,3.2,15.3,1.3c2.7-0.9,5.7-0.7,10.4-1.2
			c-2.7-2-3.8-3.1-5.1-3.6c-4.4-1.5-8.8-3-13.2-4.2c-2.2-0.6-5-1.7-6.6-0.9c-7.4,3.9-11.2-0.6-14.9-5.6c-1.2-1.6-2.1-3.3-3.1-4.8
			c5.4-5.6,7.3-6.2,12.6-2.3c3.8,2.8,7.3,3.9,11.9,3.6c2.5-0.2,5.8,1.5,7.8,3.3c7.6,7.2,16.4,3.8,24.6,2.8c4.2-0.5,5.1-7.4,1.4-10.7
			c-4.6-4.2-10-7.5-14.7-11.5c-2.1-1.8-4.7-4.6-4.5-6.7c0.1-2.3,2.9-5.1,5.2-6.4c4.4-2.5,9.3-3.3,14.4-1.1c3.6,1.6,8.8,3.4,9.9-2
			c1-5.1-4.3-6.3-8.3-6.3c-6.4,0-10.2-1.9-10.4-8.9c-0.1-3.6-2.9-5-6.3-5.1c-1.9,0-3.8,0-7.4,0c5-7.1,9.1-12.8,13.4-18.8
			c-5.6-5.7-12.1-7.4-18.2-9.4c-2.1-0.7-5.6,1.3-8,2.7c-5.4,3.2-10.4,6.9-15.9,10.5c-7.9-8.9-5.4-18.3-4-28.2
			c2.1-0.5,4.6-0.9,7.1-1.7c3.4-1.1,6.8-2.4,10.1-3.8c4.8-2,9.6-4.2,14.4-6.3c1.8-0.8,3.9-1.2,5.4-2.4c1-0.9,1.8-3.1,1.4-4.3
			c-0.4-1.2-2.2-2.4-3.6-2.7c-8.1-1.5-16.3-2.7-24.5-3.9c-4.7-0.6-9.1-1.3-11.7-6.2c-0.8-1.5-3.9-2-6-2.3c-1.9-0.3-4.1,0.7-5.9,0.2
			c-1.7-0.4-4.2-1.9-4.4-3.2c-0.2-1.9,1-5.5,2.2-5.7c10.9-2.2,12.8-11.3,16-19.5c0.2-0.6,0.8-1,1.3-1.5c0.2-0.2,0.6-0.3,1-0.5
			c5.3-0.5,4,5.4,7.3,7.8c1.2-0.9,2.8-1.6,3.5-2.9c2.9-4.9,6.8-7.8,12.4-9.2c2.4-0.6,5.6-3,6.2-5.3c3.1-10.4,5.4-21,8.1-32.4
			c-4.6-2.9-9.9-2.6-14.4,1.7c-4.4,4.2-8.5,2.9-12.6,0.2c-1.5-1-3-3.2-2.9-4.7c0.1-1.4,2.1-3.1,3.7-3.8c8.6-3.9,10.4-8.3,7.1-18.9
			c-3.9,0.9-7.8,2.2-11.8,2.6c-1.4,0.1-2.9-2.2-5-3.8c6.3-5.2,12.8-8,20.1-9.2c6.6-1.1,15.4-10.7,15.9-18.1
			c0.5-7.6-4.4-12.1-10.6-15.5c-14.6-7.9-14.7-8.1-19.3-14.9c1.9-3.3,4.5-2.1,6.8-0.8c3.2,1.8,6,4.3,9.2,6c5.9,3.1,9.9,0.7,9.8-5.9
			c0-2-1.2-4.3-0.5-5.9c1.1-2.5,2.9-5.2,5.2-6.5c3.1-1.7,5.8,0.4,7.3,3.3c1.2,2.3,2.3,4.9,2.6,7.5c0.9,7.2,1.4,14.5,2,21.8
			c0.7,8.8,6.2,12.4,16.8,10.2c-2.6-11.2,6.1-12.1,15.8-13.9c-3-2-4.2-3.4-5.5-3.5c-7.1-0.3-11-4.6-13-10.6
			c-3.1-9.1-8.1-16.7-15.9-22.4c-1.7-1.3-3.4-3.7-3.6-5.7c-0.7-5.5-2.1-10.4-6.3-14.2c-0.5-0.4-0.8-1.2-0.9-1.8
			c-0.6-6.4-1.1-12.9-1.7-19.3c9.3-0.7,11.4,0.9,17,13c6.6-1.2,13.5-2.5,22.3-4.1c-3-2.5-4.4-3.7-5.8-4.9c-1.2-1-2.5-2-4.1-3.4
			c1.2-2,2.1-3.6,3.1-5.3c0.8-1.4,1.6-2.7,2.9-4.9c-4.1-1.9-7.7-3.3-11.1-5.2c-6.3-3.5-7-7.8-1.5-12.6c4.1-3.6,7.3-7.2,9-12.7
			c0.8-2.6,4.6-4.5,7.3-6.3c2.5-1.6,5.7-2.3,7.9-4.2c1.3-1.2,2.2-4.4,1.6-6c-2.4-5.7-5.4-11.1-8.3-16.6c-0.2-0.5-1.1-0.6-2.2-1.1
			c-4.3,1.9-5.2,9.8-12,8.2c-2.7-0.6-5.3-1.5-9.9-2.8c6.7-6.1,11.4-11.2,16.8-15.2c3.6-2.7,7.4-0.7,10.9,2.1c2.5,2,5.5,3.7,8.6,4.4
			c3.9,0.9,7.4-0.6,8.2-5.2c0.7-4-0.5-7.3-4.5-9c-0.9-0.4-1.9-0.6-2.9-0.7c-5.1-0.4-7.2-3.4-6.6-8.1c1.6-14.2,2.6-28.6,11.9-40.5
			c2.1-2.7,3.8-5.8,6.5-10.2c-4.8-1.1-7.9-1.8-11-2.5c-10.2-2.4-13.4-6.8-12.3-17.1c0.1-1,0.4-2,0.5-3c2-12.3,1.6-12.6-9.7-18.4
			c-4.7-2.4-9.3-5.3-13.3-8.6c-2.7-2.2-5.5-5.1-3-10.1c1.7,0.2,3.5,0.3,5.4,0.6c1.6,0.2,3.9,1.3,4.8,0.6c6.6-5.6,15.1-3.4,22.3-5.7
			c4.8-1.5,9.1-5.3,13.3-8.5c1.6-1.2,3.6-3.7,3.3-5.3c-0.2-1.4-3.1-2.6-5-3.7c-0.8-0.4-2-0.1-3-0.2c-3.3-0.2-6.7-1.2-5.6-5.1
			c0.7-2.2,3.8-4.6,6.2-5.2c2.6-0.7,5.7,0.6,8.9,1.1c0.8-1.8,2.1-3.3,2-4.8c-0.3-7.6,4.5-10.8,10.3-14.4c10.4-6.5,20-14.2,30-21.4
			c5.1-3.7,10.2-7.5,15.4-11.1c2.8-2,5.9-3.8,4.9-7.8c-1-4.3-4.1-6.9-8.4-7.5c-2.9-0.4-6,0.1-9-0.3c-1.4-0.2-3.7-1.4-3.9-2.4
			c-0.3-1.6,0.5-3.9,1.6-5.2c1.5-1.7,3.8-2.6,5.6-4.1c11.6-9.4,23.2-18.9,34.7-28.4c0.8-0.6,1.7-1.3,2-2.2c1.1-2.6,3.3-5.9,2.4-7.8
			c-0.9-2-4.6-3.3-7.3-3.9c-3.5-0.8-7.2-0.5-10.5-0.7c-1.9-4.5,1.3-6.1,3.3-8.1c11.2-11.4,22.5-22.7,33.7-34.1
			c2.5-2.6,5.5-5.2,6.9-8.4c3.8-8.5,10.6-13.4,18.3-17.7c13.6-7.8,27.1-15.7,40.4-23.9c2.7-1.7,5.5-4.3,6.6-7.1
			c2.3-5.6,6.3-9.2,10.6-13c6.2-5.5,11.9-11.6,18.1-17.2c4.2-3.8,8.8-7,13.2-10.6c12.4-10.1,25-19.9,37-30.3
			c14.2-12.3,22.5-28.7,29.4-45.8c2.5-6.1,0.8-9.1-5.7-9.2c-4.2-0.1-8.6,1-12.7,1.9c-13.3,3-26.6,6.1-39.9,9.3
			c-4.4,1.1-7.8,0.2-10.1-4.1c-1.1-2-2.4-4.6-4.2-5.4c-6.2-2.6-10-6-8.8-13.5c0.2-1.1-3.5-4-5.6-4.2c-8.2-0.9-15.8,0.9-22.1,6.9
			c-2.9,2.8-5.3,6.9-11.9,6.3c1.2-3.3,2-6,3.1-8.5c2.5-5.8,5.4-11.5,7.5-17.4c0.7-2.1,0.4-5.9-1.1-7.1c-1.4-1.2-5-1-7.2-0.2
			c-7.2,2.6-14.5,5.1-21.1,8.8c-5.1,2.9-10,6.8-13.6,11.4c-14.4,18.3-28.6,36.8-42.2,55.7c-11.9,16.5-19.3,34.9-21.1,55.4
			c-0.6,7.4-1,7.4-6.4,11.6c-5.4-4.9-5.4-11.1-3.5-17.2c1.8-5.7,4.6-11.1,6.7-16.7c2.3-6.2,5.3-12.4,6.4-18.9
			c1.8-10.3,4.3-20.1,8.8-29.5c3.5-7.3,3.2-11.6,0-12.5c-5.5-1.5-7.8,3-10,6.5c-11.8,18.9-25.2,36.8-35.1,56.9
			c-3.6,7.3-9.4,13.6-14.4,20.3c-3.2,4.3-6.7,8.3-10.1,12.4c-1.7,2-3.2,4.6-5.3,5.9c-8.2,4.7-12.8,12.4-18.2,19.6
			c-6.5,8.8-13.7,17.2-21,25.4c-5.9,6.6-10.4,6.5-16.9,0.4c-1.6-1.5-3-3.4-4.7-5.3c1.7-3.2,3.5-6,4.7-9c2.5-6.1,0.4-10.3-6-10.6
			c-5-0.2-9-0.6-11.4-5.9c-0.6-1.4-4.1-1.3-6.2-2.1c-1.9-0.7-3.7-1.8-5.5-4.6c3.5-1,7-1.9,12.9-3.5c-12.2-4.4-13.5-11.7-10.2-21.1
			c1.3-3.8-0.6-7-3.8-9.6c-2.4-2-4.5-4.3-7.4-7c9.1-8.5,22.6-2.9,29.4-11.9c-1.4-6.1-2.9-11.8-4.1-17.5c-0.9-4.5-3.9-6.9-8-8.1
			c-3.8-1.1-7.9-1.5-11.7-2.5c-6.8-1.9-8.4-5-6.5-11.9c2.5-9.4,2.4-9.3-6.4-14.6c-2.7-1.6-4.9-4.2-7.5-6.5c1.2-2.1,1.8-3.8,2.9-4.8
			c5.8-5.6,7.1-11.4,2.5-18.7c-1.6-2.6-0.9-6.8-1-10.3c0-4.9,0.3-9.8,0.3-14.7c0-1.3-0.9-2.8-0.5-3.9c2.9-8.5,0.6-15.4-8.5-21.4
			c6.8-3.6,12.1-6.3,18.2-9.5c-7-8.4-8.8-16.5-0.2-25.5c-11.1-1.7-20.1,2.8-32,4.7c2.9-4.8,4.6-7.7,6.7-11.1
			c-6.5-7.2-2.4-12.8,3.3-18.4c2.7-2.7,4.9-6,7.1-8.6c-2.6-5.2-6.1-5.3-9.9-4.2c-1.9,0.6-3.6,1.8-5.5,2.3
			c-8.8,2.4-14.8-3.2-12.6-11.9c0.8-3.2,2.3-6.1,3.5-9.1c1.7,0,2.9-0.4,3.5,0.1c3.3,2.5,6.2,3.7,9.5-0.1c3.2-3.7,5.7-7.1,3.1-12.5
			c-4.2-8.7-3.4-12.9,4.8-18.4c8-5.3,13.5-13.4,22.8-17.4c7.4-3.2,8.5-12.2,3.4-18.9c-5-6.5-10.4-12.8-19.3-14.8
			c-5.6-1.3-6.2-4-2.8-8.6c1.6-2.1,3.8-4,4.6-6.4c1.7-5.1,5.3-7.3,10.1-8.6c7.5-2,13.6-6.6,16.5-13.6c5.6-13.5,16.6-21.1,28.2-28.6
			c9.5-6.1,18.4-13,27.4-19.8c6.4-4.8,12.8-9.6,18.8-14.8c14.8-12.8,29.3-26.1,44.3-38.7c7.8-6.6,15.9-13.6,25-17.9
			c25.2-12,47.7-27.8,68.7-46c2.8-2.4,5.6-4.8,8.5-7c6-4.5,5.9-13.4-2.9-14.8c-1.9-0.3-3.7-1.2-5.8-1.8c-0.2-5,3.4-7,6.5-8.2
			c9.3-3.4,18.7-7.5,28.4-8.8c24.9-3.3,49.1-8.8,72.8-17c19.7-6.8,37.9-16.4,54.5-28.8c1.3-1,2.8-1.9,4-3c8-6.9,7-12.7-2.8-17.1
			c-11.5-5.3-23.7-6.4-36.1-6.7c-5.2-0.1-10.4-0.4-17.4-0.7c1.8-4.8,2.9-8,4.4-11.1c1.8-3.7,4.3-7.9,0.8-11c-2.3-2-6.7-2.3-10.1-2.1
			c-4.6,0.3-9.1,2-13.6,2.9c-2.7,0.5-5.4,0.6-8.6,1c0.1-2.4-0.2-3.8,0.3-4.3c12-11.4,21.2-25.9,37.2-32.6c4.4-1.8,6.8-5.1,7.1-10
			c0.2-4,3-6.1,6.1-8.5c7.9-6.2,16.4-9.7,26.5-9.1c1.9,0.1,4-0.4,5.9-1.1c5.9-2.2,11.2-3.1,16.2,2.5c3.1,3.5,7.8,2.6,12.2,1.3
			c5-1.5,10.3-2,15.3-3.5c9.7-2.9,20.3-2.8,28.6-10.4c3.1-2.8,8.1-3.5,13.2-5.6c-0.4-1-1.1-3.2-2.1-5.8c8-3.8,13.2,1.7,19.5,6
			c0.4-2,0.9-3.1,0.9-4.2c0.2-7.4,2.9-9.2,8.9-4.9c6.1,4.4,12.3,4.7,19,3c8.4-2.2,16.6-4.9,25-7.1c4.1-1.1,8.4-1.7,12.6-2.5
			c1.9-0.4,4.7,0.2,5.8-0.9c6.1-6.1,13.3-4.1,20.5-4.2c7.2-0.1,14.5-1.2,21.6-2.8c4.1-0.9,6.7-0.6,9.7,2.5c7.3,7.7,7.9,7.8,15.4,1.5
			c7.9-6.6,16.5-6.1,25.5-3.6c1.9,0.5,3.6,1.7,5.5,2.4c3.7,1.3,7.3,1.2,10.1-1.9c3.5-4-2.3-5.3-3.2-9.6c3.9,1.6,6.8,2.6,9.7,3.9
			c9.1,4.3,15.8,2.3,21.1-6.3c0.7-1.1,1-2.5,1.8-3.6c3.9-5.5,11-6.7,16.7-2.9c1.9,1.3,3.9,2.7,5.5,4.3c8.8,9,20.2,9.1,31.6,9.2
			c0.9,0,1.7-0.8,3.8-1.8c-3.9-1.4-7.1-2.1-9.6-3.7c-1.7-1.1-3.5-3.7-3.3-5.4c0.2-1.5,3.1-3.5,4.9-3.6c5.6-0.5,11.3-0.7,17-0.3
			c9.9,0.8,19.4,2.8,29.7,1.5c11.1-1.4,22.5,0,33.8,0.2c0.3,0,0.7,0,1,0c7.6,0.5,14.7-0.3,18.7-8.4c10.9,5.6,20.5-0.1,30.2-2.2
			c5.1-1.1,8.1-1.3,10.6,3.5c0.9,1.7,2.2,3.6,3.8,4.5c5.9,3.2,6.5,7.8,3.4,14.1c11.1,4.9,19,0.5,26.6-7.4c1.4,1.9,2.7,3.2,3.6,4.8
			c2.5,4.1,6.1,5.1,10.3,3.7c6-2,11.8-4.3,17.7-6.5L2201.8,206.1z M2074.8,1463.3c0.5,1.7,0.5,2.4,0.9,2.9
			c7.2,9.4,6.7,11.9-3.7,16.8c-0.9,0.4-1.8,0.8-2.7,1.2c-4.9,2.1-8.2,5.1-7.9,11.3c0.1,2.5-1.9,5.3-3.4,7.6
			c-2.8,4.3-2.3,6.4,2.3,8.3c8.4,3.5,14.7-0.9,21-5.5c3.8-2.8,5.7-6,4-11.1c-0.9-2.5-0.8-5.8,0-8.4c2.3-7.7,5.1-15.2,7.9-23.1
			C2086.3,1461.2,2080.8,1458.6,2074.8,1463.3z M1280.7,1707.6c-3.1-1.7-5.5-2.4-7-4c-3-3.3-6.6-6.7-8-10.7c-1.5-4.1,3.2-5.9,6-8.1
			c3.3-2.6,2.7-5.7,0.9-8.9c-2-3.5-5-4.2-8.5-2.5c-6.3,3-10.2,8.5-12.9,14.6c-2.7,5.9-6.7,9.6-13,11.1c-2.9,0.7-6.7,1.1-6.9,6.1
			c10.1,2,18.9-2.8,28.4-4.7c1.5,5.6,0.7,12.4,7.9,14C1273.1,1715.8,1276.7,1712.6,1280.7,1707.6z M2109.6,1452.9
			c0.3-8.2-0.4-13.2-8-14.5c-2.6-0.4-4.6-3.6-7.1-4.9c-3.7-1.9-7.6-3.7-11.6-4.6c-2.8-0.6-5,1.3-4.6,4.8c0.7,6.2,7.5,13.4,13.3,12.3
			C2098.5,1444.8,2103.7,1447,2109.6,1452.9z M2237.8,1062.7c-9.5-1.8-18.2-3.4-26.8-4.9c-1.2-0.2-3.1-0.3-3.8,0.5
			c-2,1.9-4.2,4.2-4.8,6.6c-0.2,1.1,3.6,4.5,5.3,4.3c9.5-0.8,18.8-2.3,28.2-3.7C2236.4,1065.4,2236.7,1064.4,2237.8,1062.7z
			 M1312,1274.5c3.1,4.2,4.6,7.4,7.1,9.2c2.4,1.8,5.9,3.1,8.8,2.9c5.1-0.4,7.5-4.9,6.3-10.3c-1.1-5.3-3.3-6.5-9.4-5
			C1321.1,1272.2,1317.4,1273.2,1312,1274.5z M2121.4,1330.8c0.7-0.7,1.4-1.4,2.2-2.2c-0.6-6.9-4.6-11.6-11-14.6
			c-2.9-1.3-6.1-1.5-7.9,1.8c-1.7,3.3,0.3,6,2.9,7.6C2112.1,1326.1,2116.8,1328.4,2121.4,1330.8z M1320.9,1380.6
			c-0.3,1-0.5,1.9-0.8,2.9c2.1,1,4.5,3.4,6.2,2.9c6.6-1.9,13.9-2.5,20.5-7.4C1336.3,1369.9,1329,1378.5,1320.9,1380.6z
			 M1303.4,1743.7c-3.6-3.1-9.9-6.1-13.9-6c-1.7,0.1-4.2,1-4.8,2.2c-0.7,1.4,0,4,0.9,5.5C1289.6,1751.5,1298.1,1750.6,1303.4,1743.7
			z M2151.3,1179.5c-7.2-2.7-13.4-5.2-19.9-7.2c-1.4-0.4-3.3,0.9-5,1.5c0.5,1.5,0.6,3.6,1.6,4.2c6.5,4.1,13.5,6.8,21.4,4
			C2150.1,1181.7,2150.5,1180.5,2151.3,1179.5z M2062.2,1549c-1.2-7.6-5.3-11-11.3-12c-1.8-0.3-4,1.3-6,2c0.8,2,1.1,4.7,2.5,5.9
			C2051.2,1548.2,2055.8,1549.9,2062.2,1549z M1291.3,1783.1c-4.1-4.6-8.6-4.9-13-3.3c-1.7,0.6-3.9,3.4-3.6,4.7
			c0.3,1.6,2.9,3.7,4.7,4C1283.7,1789.2,1287.5,1787.3,1291.3,1783.1z M2252.8,990.4c7-5.7,12.2-10,18-14.7
			C2261.4,972.5,2255.3,977.3,2252.8,990.4z M2238.5,1026.9c1.3,4,3.8,5.8,7.5,5c3.6-0.8,6.7-2.7,6.8-8
			C2247.4,1022.2,2242.7,1022.1,2238.5,1026.9z M2360.6,828.3c-7.7-3.8-10.1-3.1-14.2,3.7C2353.1,835.6,2353.9,835.4,2360.6,828.3z
			 M2037.9,1375.2c4.9,7.2,5.8,7.4,11.2,2.3C2044.8,1373.3,2044.8,1373.3,2037.9,1375.2z M1311,1451.5c-0.4-0.7-0.8-1.5-1.2-2.2
			c-3.5,0.8-7.1,1.3-10.4,2.6c-1.4,0.5-2.2,2.7-3.2,4.1c1.7,0.5,3.7,1.8,5,1.3C1304.6,1455.8,1307.7,1453.5,1311,1451.5z
			 M1247,1749.2c1.8-3,3.8-4.9,3.4-5.8c-0.9-2-3-3.5-4.6-5.2c-1.1,1.3-3.4,2.9-3.1,3.9C1243.2,1744.2,1245,1746,1247,1749.2z
			 M1338.2,1393.9c3.9,4.6,7.8,5.5,13.4,2.8C1347.3,1392.4,1343.8,1389.9,1338.2,1393.9z M2316.7,862.5c5.6,7.5,5.6,7.5,11.3,1.5
			C2324,863.5,2321.1,863.1,2316.7,862.5z M1256.5,995.9c1.9,1.8,3,3.4,4.5,4c0.6,0.2,3-1.9,2.9-2.8c-0.2-1.6-1.6-3-2.5-4.5
			C1260,993.5,1258.6,994.4,1256.5,995.9z M1319,1358.2c-0.1,0.7-0.2,1.4-0.3,2.1c5.4,3.5,5.4,3.5,10.2-1.6
			C1325,1358.5,1322,1358.3,1319,1358.2z M2246.2,1075.7c1.5-2.2,2.7-3.8,3.5-5.5c0.1-0.2-2.3-2.1-2.6-1.9c-1.6,1.1-2.9,2.7-4.3,4.1
			C2243.6,1073.3,2244.5,1074,2246.2,1075.7z M2059.8,1435.9c-1.8-1.4-2.9-2.6-4.1-2.9c-0.5-0.1-2.3,1.8-2.2,2.6
			c0.2,1.3,1.5,2.5,2.4,3.7C2056.9,1438.3,2058,1437.4,2059.8,1435.9z M1266.3,1736.9c-2.2-1.2-3.7-2.5-4.8-2.3c-1.1,0.2-2,2-3,3
			c1.2,0.9,2.3,2.5,3.5,2.5C1263.2,1740.1,1264.3,1738.5,1266.3,1736.9z M1342.3,1248.8c0.1-0.9,0.3-1.7,0.4-2.6
			c-1.6-0.2-3.2-0.5-4.8-0.5c-0.2,0-0.3,1.5-0.5,2.4C1339,1248.3,1340.7,1248.5,1342.3,1248.8z M2073.6,1408.9c1.4-2,2.6-3,2.5-3.9
			c-0.1-0.9-1.4-1.8-2.4-2.4c-0.2-0.1-1.8,1.2-1.8,1.9C2071.9,1405.6,2072.6,1406.6,2073.6,1408.9z M2105.8,1349.1
			c-1.2-0.9-1.9-1.6-2.6-1.8c-0.4-0.1-1.6,0.7-1.6,0.8c0.2,0.8,0.6,2,1.1,2.1C2103.4,1350.4,2104.3,1349.7,2105.8,1349.1z
			 M2190,1066.4c0.8-1.2,1.4-1.9,1.6-2.7c0.1-0.3-0.9-1.4-1.1-1.3c-0.8,0.3-1.9,0.7-2.1,1.4
			C2188.3,1064.3,2189.2,1065.2,2190,1066.4z M1289.4,1723.4c-0.2-0.5-0.4-1.3-0.7-1.5c-0.4-0.2-1.1,0.1-1.7,0.3
			c0.3,0.7,0.6,1.4,0.9,2.1C1288.3,1724,1288.8,1723.7,1289.4,1723.4z M1285.9,1024.3c0.5-0.3,1.2-0.6,1.4-1c0.1-0.4-0.5-1-0.8-1.5
			c-0.6,0.5-1.3,0.9-1.9,1.4C1285,1023.5,1285.4,1023.9,1285.9,1024.3z M2087.5,1372.5c0.6-1.8,1.1-2.7,1.2-3.6
			c0-0.4-0.7-1.3-1.1-1.3c-0.8,0.1-1.6,0.6-2.4,0.9C2085.7,1369.3,2086.1,1370,2087.5,1372.5z M2313.5,919.9
			c-0.6-0.8-0.9-1.3-1.3-1.7c-0.7,0.5-1.4,1-2,1.7c-0.1,0.1,0.8,1.4,1,1.3C2312,920.9,2312.7,920.3,2313.5,919.9z M2353.1,808.8
			c0.6-0.6,1.1-1.2,1.7-1.9c-0.5-0.4-1.1-1.2-1.3-1.1c-0.8,0.3-1.4,1-2,1.6C2351.9,807.8,2352.4,808.2,2353.1,808.8z M2157.1,1144.2
			c0.8-0.6,1.2-0.9,1.7-1.3c-0.6-0.6-1.2-1.3-2-1.7c-0.2-0.1-0.9,0.6-1.4,1C2156,1142.9,2156.6,1143.6,2157.1,1144.2z M2384.3,713.4
			c0.5,0,0.9,0,1.4,0c0,0,0-0.8,0-0.8c-0.5-0.1-1-0.1-1.4-0.1C2384.3,712.8,2384.3,713.1,2384.3,713.4z M2061.7,1476
			c0.3,0.4,0.6,0.9,0.9,1.3c0.4-0.3,1.1-0.7,1.2-1.1c0.1-0.4-0.5-0.9-0.8-1.3C2062.6,1475.3,2062.2,1475.7,2061.7,1476z
			 M2239.1,1044.1c0.5-0.1,1.3-0.1,1.6-0.4c0.2-0.2-0.2-1-0.3-1.5c-0.5,0.1-1.3,0.1-1.6,0.4
			C2238.7,1042.8,2239,1043.6,2239.1,1044.1z M1264.1,1661.2c-0.2-0.2-0.4-0.5-0.7-0.4c-0.2,0-0.4,0.3-0.6,0.5
			c0.3,0.2,0.7,0.5,1,0.7C1264,1661.7,1264,1661.4,1264.1,1661.2z M2067.7,1361.2l0.6,0l-0.3-0.5L2067.7,1361.2z"/>
		<path class="st0" d="M935.7,2386.7c2.5-3,4.8-5.8,7.4-9.1c-0.3-1.5-0.7-3.4-1.1-5.3c-1.6-7.7-0.1-10.6,7.1-14.3
			c4.4-2.3,8.8-4.7,13.1-7.2c7.5-4.3,12-11.7,13-19.3c1-7.6,4.1-12.2,9.7-16.3c0.8-0.5,1.2-1.6,1.8-2.5c-1.6-9.5-6.6-15.8-16.3-17.7
			c-0.7-0.1-1.3-0.3-1.9-0.5c-6.1-1.9-22-3.3-27.9-2.5c-0.5,0.1-1.2-0.5-1.8-0.8c-0.3-6.8,2.6-11.8,8.1-14
			c9.4-3.8,19.4-0.4,27.8,9.4c8.7-4.9,10.4-12.5,6.3-28.5c8.9-3.6,8.7,5.5,12.7,9.5c10-5.3,20.6-9.6,23.9-22.1
			c1.8-6.6,0.9-9.1-5.4-11.8c-3.9-1.7-8-3-11.9-4.5c0.4-1.2,0.4-2.2,0.7-2.3c9.9-2.7,19.2-6.9,28.6-11c7.9-3.4,17.1-3.1,25.3,0.7
			c4.8,2.2,7.8,1.3,11.1-2.8c2.4-2.8,6.3-4.6,9.8-6.2c6.1-2.8,11.7-6,15.7-12.8c-1.1-0.7-1.9-1.3-2.8-1.7c-9.8-4.7-13-9.9-12.3-20
			c0.5-6.9,3.4-9.5,10.4-8.9c4.2,0.3,9.2,3,12.2-1.2c3.4-4.8-2.1-8.4-3.3-12.7c-0.4-1.4-1.9-2.6-3.6-4.9c-2.7,2.7-4.9,5-7.2,7.1
			c-2.2,2.1-5,2.9-7.1,0.4c-4.6-5.6-8.7-11.5-13-17.3c6.8-4.1,6.8-4.1,13.4,4.7c6.8-2.5,12.6-10.3,22.1-6.7
			c-1.8-1.6-3.6-3.2-5.4-4.9c-4.7-4.7-4.3-8.7,1.6-11.9c4.1-2.3,8.4-4,12.5-6.3c1.5-0.9,2.3-2.8,3.9-4.9c-6.2-3.5-11.6-1.1-17-0.2
			c-3.4,0.6-7.9,3.3-9.7-1.4c-1.8-4.8,2.8-7.1,6.4-8.7c6.4-2.9,12.7-5.5,15.4-13.1c0.7-2,4.1-3,6.3-4.4c2.1-1.3,4.2-2.6,7.4-4.5
			c-3-1.8-4.4-3-6.1-3.7c-6.8-2.7-6.6-2.7-5.8-10.2c0.4-3.8-0.1-7.8-0.7-11.7c-0.5-3.2-2.6-6.7,1-9.1c4.4-2.9,8.8-6.6,14.6-4.8
			c3.2,1,3.9,3.6,1.7,6.3c-1.6,2-3.5,3.8-5.9,6.3c2.3,1.3,3.8,2.9,5.4,3c6,0.7,10.4,3,13.6,8.6c2.9,5,6.4,5.1,9,0.4
			c2-3.6,4.3-5.3,8.1-6.4c2.1-0.6,5-3.2,5.1-5.1c0.1-1.9-2.3-4.6-4.3-5.8c-4.2-2.5-8.8-5.6-13.5-6.1c-7.5-0.9-10.8-6.1-14.7-10.9
			c-2.8-3.6-1.7-6.8,2.3-9c1.1-0.6,2.5-1.4,3.7-1.3c13.8,1.3,28.5,0.7,37.5,14.4c4,6.1,9.3,10.4,16.1,12.8c6.5,2.3,12.9,2.4,19-2.3
			c-1-6.4-5.5-7.4-10.3-7.2c-6.5,0.3-11.7-2.2-16.4-6.2c-4.5-3.9-5.4-7.9-3-12.3c2.6-4.8,8.7-8.1,13.2-6.8c2.2,0.6,4.3,2.2,6.5,2.3
			c1.4,0.1,2.9-1.8,4.4-2.8c-0.9-1.2-1.8-3.4-2.8-3.5c-6.3-0.7-12.6-0.7-18.9-1.3c-4.9-0.5-9.8-1.4-14.6-2.6
			c-1.5-0.4-2.5-2.6-3.9-4.2c4.4-4.8,8.3-2.1,12.2-0.7c11.8,4.3,24.4-5.4,24.4-19c-6.3-1.6-5.9,6.6-12.1,7.4
			c-1.1-1.4-3.4-3.4-4.4-5.8c-2-4.8-0.5-7.7,4.8-8.6c5.1-0.9,9.5-1.9,12.4-7c0.8-1.4,4.7-1.6,7.1-1.4c4.5,0.3,9,2,14.8-1.1
			c-1.7-1-2.5-1.5-3.4-1.9c-3.1-1.5-6.2-3.1-6-7.1c0.2-4.3,3.5-6.5,7.1-7.5c4.8-1.3,9.7-2.6,14.6-2.7c15.7-0.4,22.4-7.2,22.3-23.6
			c-4.2-3.4-7.5-0.1-10.8,1.7c-5.3,2.8-10.1,2.9-14.9-2.6c1.4-1.8,2.5-3.9,4.1-5.2c4.8-3.7,9.7-7.2,9.4-14.3c-0.1-1.4,1.2-3.5,2.5-4
			c6.4-2.7,12.8-5.6,19.6-7.1c4.6-1,6.9,3.2,8.1,7.3c3.1,11,2.6,21.9-1.6,32.4c-5.1,12.6-4.1,25.1-0.8,37.8c0.6,2.2,1.1,4.8,0.4,6.8
			c-2.2,5.8-1.1,10.9,1.6,16.3c1.9,3.8,3.1,8.1,3.8,12.4c2.3,12.7,9.6,22.5,17.5,32c5.2,6.3,11.7,10.7,19.5,13.4
			c10.9,3.7,18.9,10.9,24,21.3c2.9,5.9,4.2,12.1,2.5,18.4c-3.8,13.8-8.1,27.5-12.4,41.1c-0.7,2.1-1.9,4.4-3.5,5.9
			c-6.4,6-13.1,11.8-20.3,18.3c-0.4-2.3-1.2-4.4-0.9-6.4c1.6-11.2,3.3-22.4,5.4-33.5c1.5-7.6,0.9-14.6-3.8-20.9
			c-3.5-4.7-6.9-5.5-10.6-0.9c-5.5,7-11.5,14.3-14.5,22.5c-7.4,20.3-14.5,40.7-18.3,62.2c-2.9,16.6-2.5,32.4,3.7,48
			c2.3,5.8,1.9,10.9-1.9,16c-2,2.6-3.6,5.6-4.9,8.7c-9.3,22.5-23,42.6-36,63c-3.7,5.9-8.6,11-13.3,16.2c-0.9,1-3.3,2-4.3,1.5
			c-1.5-0.8-2.6-2.7-3.3-4.4c-0.5-1.1-0.2-2.7,0.3-3.9c5.1-12.6,1.2-25-0.6-37.4c-1.6-10.4-7.8-12.3-15-4.8c-2.9,3-5,7-6.5,10.9
			c-5.1,13.4-9.6,27-14.6,40.3c-6.8,18.2-12.4,36.5-12.9,56.1c-0.3,11.3-0.3,22.6-1,33.8c-0.3,4.5-1.5,9.1-3.2,13.3
			c-7.6,19.2-15.4,38.2-23.4,57.3c-2.3,5.4-4.9,10.9-8.2,15.7c-7.9,11.5-16,22.9-24.4,34c-7.6,10.1-15.8,19.8-23.4,29.9
			c-6.4,8.5-12.2,17.4-18.3,26c-12.5,17.7-24.8,35.5-37.5,53c-11.2,15.4-16.4,33.3-23.3,50.7c-6.8,17-14.3,33.6-27.3,47.1
			c-6.5,6.7-11,15.6-18.2,21.2c-11.1,8.7-15.8,20.9-21.8,32.7c-2.1,4.2-3.9,8.5-5.8,12.7c-1.1,2.4-1.6,5.6-3.5,7.1
			c-11.4,9.6-12.7,24.4-19.3,36.5c-2.4,4.5-4.8,8.4-9,11.6c-4.7,3.6-8.3,8.5-12.8,12.4c-14.1,12.2-28.2,24.3-42.6,36
			c-12.1,9.9-24.7,19.2-37.1,28.8c-1,0.8-2.2,1.7-3.4,2c-10.6,2.4-16.4,10.7-23.1,18.1c-3.1,3.4-6.7,6.5-10.4,9.2
			c-9,6.7-18.2,13.2-27.5,19.5c-5.2,3.5-10.6,7-16.3,9.5c-5.5,2.4-8,0-7.7-6.1c0.1-3-0.2-6,0.1-8.9c0.4-3.8,1.1-7.7,2-11.4
			c0.4-1.6,1.9-2.9,2.2-4.5c1.6-12.2,9.8-18.3,20.2-22.4c6.9-2.7,9.8-6.7,9.5-15.1c-0.5-13,2.2-25.7,12.3-35.7c3-3,5.3-7,7-10.9
			c6-13.9,15.1-25.8,23.8-38c3-4.2,3.9-9.9,6.6-14.3c7.4-12.2,15.5-23.9,22.7-36.1c7.1-11.9,13.5-24.3,20.2-36.5
			c9.5-17.1,19.3-34.2,28.7-51.4c5.9-10.8,11.5-21.8,17.1-32.8c5.3-10.4,11.6-18.9,24.6-20.9c11.4-1.7,22.6-5.5,33.8-8.4
			c1-0.2,2.1-0.3,2.9-0.9c11.6-7.6,23.2-15.2,34.7-22.9c2.2-1.5,3.9-3.8,6.1-5.1c15.4-8.7,26.5-22.1,38.6-34.4
			c4.2-4.3,8.2-8.7,12.4-12.9c6.6-6.7,7.1-13.4,0.3-20c-9.9-9.7-20.9-17.7-35.9-17.1c-1.3,0.1-2.8,0.2-4-0.3c-2.6-1-6.5-1.9-7.3-3.9
			c-0.7-1.8,1.7-5.2,3.4-7.4c4.8-6.4,9.6-12.8,17.8-15.4c1.8-0.5,3.3-2.3,4.6-3.7c6.2-7.4,11.7-15.4,18.4-22.1
			c7.5-7.5,10.2-17,13.5-26.3c1.6-4.6,1.3-9.2-1.4-13.5c-2.4-4-5.7-6-10.7-5.7c-16.2,0.7-32.5,0.9-48.8,1.5
			c-3.9,0.2-7.8,1.3-11.6,2.4c-5.7,1.8-11.3,4.1-17,5.9c-4.1,1.3-8.6,3.5-12.1-0.6c-3.4-4-0.6-8.3,1.2-12.2
			c1.8-3.9,4.4-7.5,6.2-11.4c1.5-3.2,3.1-6.7,3.3-10.2c0.6-8-3-12.4-10.8-14.4c-2.9-0.8-5.9-1-8.7-2c-3.1-1.1-5.5-3.5-4.1-6.8
			c1.7-4.1,4.7-2.3,7.3-0.4C933.9,2386.1,934.9,2386.3,935.7,2386.7z M1071.9,2233.7c0.1-0.8,0.2-1.6,0.2-2.5
			c-1.9-1.2-4-3.5-5.8-3.4c-2,0.1-3.8,2.5-5.7,3.9c1.3,1.6,2.6,4.4,4,4.5C1067,2236.3,1069.5,2234.6,1071.9,2233.7z M1090.9,2307.4
			c1.8-2.9,3.8-4.8,3.4-5.6c-0.8-1.7-2.6-3.5-4.4-4c-0.9-0.3-3.9,2.6-3.7,3.1C1087,2302.9,1088.7,2304.5,1090.9,2307.4z
			 M1149.4,2031.7c1.9-1.8,4.1-2.8,4.3-4.1c0.2-1.1-1.9-3.5-3.1-3.6c-1.4-0.1-3.6,1.5-4.1,2.9
			C1146.2,2027.7,1148.1,2029.5,1149.4,2031.7z M1098.5,2179.1c0.9,3.4,3.2,4,5.9,2.5c0.6-0.4,1-2.7,0.6-3.2
			C1102.8,2176.2,1100.5,2176.3,1098.5,2179.1z M1217.3,1979.1c0.2,1.1,0.3,2.3,0.5,3.4c1.8-0.4,3.6-0.7,5.3-1.3
			c0.2-0.1-0.1-2.4-0.2-2.4C1221,1978.8,1219.1,1979,1217.3,1979.1z M1078.8,2298.3c-0.8-1-1.3-2-2-2.1c-0.6-0.1-1.4,0.8-2.1,1.3
			c0.5,0.7,0.9,1.8,1.5,2C1076.8,2299.6,1077.7,2298.8,1078.8,2298.3z M1098.5,2245c0.7-0.5,1.2-0.8,1.7-1.2c-0.7-0.6-1.3-1.3-2-1.7
			c-0.2-0.1-0.9,0.6-1.4,0.9C1097.4,2243.7,1097.9,2244.4,1098.5,2245z M956.2,2389.3c0.3,0,0.7,0.2,0.9,0.1
			c0.2-0.1,0.3-0.5,0.4-0.8c-0.5-0.1-0.9-0.1-1.4-0.2C956.1,2388.7,956.2,2389,956.2,2389.3z M1148.9,2161.5
			c0.2-0.2,0.4-0.5,0.6-0.7c-0.4-0.2-0.9-0.3-1.3-0.5c0,0.3-0.1,0.7,0,0.9C1148.3,2161.4,1148.7,2161.4,1148.9,2161.5z
			 M968.9,2381.4c0.2-0.1,0.5-0.1,0.7-0.1c-0.2-0.4-0.4-0.7-0.5-1.1c-0.2,0.2-0.5,0.3-0.5,0.6
			C968.6,2380.9,968.8,2381.2,968.9,2381.4z"/>
		<path class="st0" d="M693.5,2845.3c11.1-10.2,11.1-10.2,9.3-21c5.4-3.4,11-7,16.6-10.3c5.4-3.2,11.6-5.4,12.6-12.9
			c0-0.3,0.3-0.7,0.6-0.8c11.5-4,13.7-17.3,23.6-23.2c7.8-4.7,6.9-13.8-1.2-18.4c-1.7-1-3.6-1.9-5.5-2.2c-8.8-1.4-14.8-7-21.1-12.9
			c2.4-6.3,4.1-12.8,7.2-18.4c1.5-2.8,5.2-5.2,8.4-6.3c11.1-3.7,22-7.6,31.5-14.7c2.3-1.7,5.5-2.4,8.2-3.5c2.2-0.9,4.7-1.3,6.4-2.6
			c9.3-7.4,18.4-15.1,27.8-22.4c3.6-2.8,7.4-6,11.6-7.1c6.6-1.8,12.6-4.2,17.6-8.8c1.2-1.1,2.7-2.4,4.2-2.6c2.4-0.3,5.8-0.6,7.2,0.7
			c1.4,1.3,2,5.6,0.9,7c-9.4,11.6-12.3,27.2-24.2,37.5c-6,5.2-10.3,12.6-14.2,19.7c-9.8,17.6-22.8,32.6-35.8,47.7
			c-5.4,6.3-11.2,12.3-15.9,19.1c-5,7.1-11,12.4-19.2,15.1c-3.3,1.1-5.9,2.4-6.7,6.4c-2.4,10.8-2.6,10.8-11.7,14.5
			c6.6,12.7,6.5,12.6-2.7,24.5c-5.1,6.6-9.8,13.4-14.1,20.5c-2,3.3-2.9,7.4-4,11.2c-0.8,2.5-0.9,5.3-1.8,7.8
			c-2.3,6.3-6.1,8.5-11.3,6.9c-5.8-1.8-7.9-5.6-6.7-12c0.2-0.9,0.1-1.9,0.2-2.8c-3.4-3-6.5-0.9-9.3,0.6c-4.3,2.2-8,1.8-12.3-0.4
			c-7-3.7-13.6-1.9-18.2,4.5c-1.5,2.2-2.5,4.7-3.9,6.9c-4.7,6.9-11.1,7.4-18.6,1.4c4.2-7,8.1-14.3,12.8-20.9
			c1.7-2.4,5.5-3.4,8.4-4.6c3.9-1.7,8.2-2.7,12-4.7c8.7-4.5,9.5-6.3,6.8-15.8c-1.2-4.2-1.3-7.6,2.2-10.8c6.9-6.3,11.9-6,17.5,1.4
			C690.3,2840.1,691.6,2842.4,693.5,2845.3z"/>
		<path class="st0" d="M1225.1,2725.7c-1.7,1.4-3.2,3.1-5,4.3c-19.5,12.1-39,24.3-58.6,36.3c-28.7,17.5-57.4,35-86.2,52.4
			c-8.5,5.2-17.1,10.3-26,14.8c-4.7,2.3-10,3.6-15.2,4.3c-6.9,0.9-13.5-0.1-16-8.3c-0.2-0.6-0.7-1.1-1.1-1.6
			c-7.3-9.5-7.3-11.2,0.9-19.8c12.3-13,24.4-26.3,37-38.9c11.5-11.5,23.5-22.5,35.4-33.6c10.7-10,22.6-10.6,36.1-5.5
			c22.2,8.4,44.9,8.6,67.7,1.8c7-2.1,13.8-4.8,20.8-7c3-0.9,6.2-1.2,9.3-1.8C1224.4,2723.9,1224.7,2724.8,1225.1,2725.7z"/>
		<path class="st0" d="M1225.8,3037.6c-1.6-0.6-3.3-1-4.8-1.8c-7.7-3.6-8.8-10.1-8-17.6c0.4-3.5,1-6.1,4.6-8.1
			c4.9-2.7,9.3-6.5,14.2-9.2c8.5-4.7,14.7,1.8,20.9,5.5c5.5,3.2,5.6,9.4,3.9,15.3c-3.6,12.4-3.6,12.4,7.1,19.6
			c1.1,0.7,2.2,1.6,3.1,2.5c0.4,0.4,0.5,1.2,0.9,2.5c-1.6,0.7-3.2,1.5-5,1.9c-8.4,1.9-16.9,3.8-25.3,5.5c-5.6,1.1-8.7,4.5-9.5,10.1
			c-1.1,7.4-3.3,13.6-12.7,13.8c-2.2,0-4.3,2.8-6.5,4.3c-4.2,3-6.7,2.6-8.3-2.2c-1.3-3.9-1.6-8.3-1.4-12.5
			c0.2-5.3,1.3-10.5,1.7-15.8c0.1-1.1-0.9-2.2-2-4.6c-3.2,4.6-5.2,8.7-8.3,11.7c-3.1,2.9-7.5,4.3-10.8,7c-1.6,1.3-1.8,4.3-3.2,6.1
			c-1.3,1.5-3.4,2.3-5.1,3.4c-1-2.2-3.1-4.6-2.8-6.6c0.6-3.4,2.7-6.6,4.8-11.3c-3.9-0.4-6.7-0.7-9.5-0.9c-2.6-0.2-5.7,0.6-7.8-0.5
			c-2.6-1.4-6.6-5-6.2-6.5c1.8-6.2,5-12,8.1-17.8c0.4-0.8,3.6-1.1,4.5-0.4c6.1,4.9,10.1,1.1,14.8-2.5c3.3-2.5,7.5-4,11.5-5.3
			c1.5-0.5,3.6,1,5.3,1.6c0.2,11.1,2.2,13.5,12.6,15.3c3.9,0.7,7.9,0.8,11.9,1.1c1.6,0.1,3.2,0,4.8,0
			C1224.1,3040,1225,3038.8,1225.8,3037.6z M1173.4,3049.7c0.7-0.6,1.4-1.2,2.1-1.8c-0.6-3.5-2.1-5.9-8.8-5.9
			C1169.8,3045.6,1171.6,3047.6,1173.4,3049.7z M1219.9,3058.8c1.1-1.8,2.5-3.2,2.2-3.8c-0.6-1.2-2-2.2-3.2-2.7
			c-0.4-0.2-2.4,1.9-2.2,2.5C1217.1,3056,1218.4,3057,1219.9,3058.8z"/>
		<path class="st0" d="M1458,2085.7c-0.9,2.6-1,4-1.7,4.9c-9.7,12.2-12.4,27.1-16.3,41.5c-1.1,4.2-2.1,8.4-3.4,12.5
			c-3.3,10.3-18.3,15.3-26.9,8.9c-1.7-1.3-2.8-3.6-3.6-5.7c-0.9-2.1-0.8-4.6-1.7-6.8c-3.4-8.5-10.1-10-16.2-3.3
			c-6.7,7.4-13.1,15.2-14.2,25.8c-0.8,6.9-5.2,11.4-10.9,14.7c-4.9,2.8-8.7,1.2-9.3-4.4c-0.4-3.5,0.1-7.5,1.6-10.6
			c4.3-9.5,7.4-19.2,9-29.5c1.2-8,6.7-13,13.5-16.2c6-2.8,12.4-4.8,18.7-7c11.9-4.2,23.9-8.1,35.8-12.5c3.3-1.2,6.2-3.9,9.2-5.9
			C1446,2089.1,1450.4,2085.5,1458,2085.7z"/>
		<path class="st0" d="M1584.8,1895c-1.5,17.5-2.7,35-4.5,52.5c-0.6,6.1,0.8,11,4.9,15.5c7.7,8.7,7.7,10.6-0.3,19
			c-4,4.2-6.5,8.6-7.7,14.6c-1,4.8-4.6,9.3-7.9,13.4c-1.3,1.5-4.8,2-7.1,1.7c-3.9-0.4-7.6-2-11.5-2.8c-4.2-0.9-6.2-3.3-4.3-7.1
			c4.7-9.4,2.9-18.6,0.4-28.2c-0.9-3.3,0-7.1,0.5-10.6c0.8-5.2,2.8-10.3,2.9-15.4c0.2-14.6,7.1-26.7,13.6-39.1
			c2.6-4.9,5-9.9,7.5-14.9c1.6-3.3,2.8-6.9,4.9-9.8c1.3-1.8,4.1-2.6,6.2-3.8c0.8,2,2.2,3.9,2.4,6c0.3,2.9-0.3,6-0.6,8.9
			C1584.4,1895,1584.6,1895,1584.8,1895z"/>
		<path class="st0" d="M845.8,3053.4c1.8,4.3,3,7.2,5,12.1c-2.9-1.8-4.3-2.7-5.8-3.6c-5.8-3.3-11.7-3.9-18.2-1.7
			c-7.6,2.6-10.5,0.7-13.8-6.8c-2.4-5.4-4.9-10.9-8-16c-3.3-5.4-6.9-6.6-12.7-5c-7.9,2.3-15.7,4.8-23.6,7.1c-1.3,0.4-2.6,1-3.9,0.8
			c-1.5-0.2-3.5-0.8-4.2-1.9c-0.6-1.1-0.3-3.4,0.5-4.5c1.6-2,3.7-3.9,5.9-5.3c9.5-6.1,18.9-12.3,28.6-18c7.6-4.4,15.6-3.4,22.9,0.8
			c9.5,5.4,18.7,11.5,28,17.2c3.9,2.4,7.9,4.8,11.9,7c5.9,3.3,6.3,7.5,0.4,11.2C855.3,3049.5,850.9,3051.1,845.8,3053.4z"/>
		<path class="st0" d="M1562.7,2217.1c-1.3,1.8-2.6,3.6-3.8,5.3c0.1,0.9,0,1.7,0.4,2.1c6.9,8.3,7.1,10.4,0.1,18.6
			c-3.5,4.1-6.7,8-7,13.9c-0.3,4.9-4.2,6.9-8.5,8.7c-9.8,3.9-19.6,8-29.2,12.5c-4.4,2.1-8.6,3.7-13.4,2.2
			c-7.4-2.4-14.4-0.9-21.5,1.4c-4.3,1.4-8.5,3.8-14.3,1.1c1.6-2.2,2.4-4.4,4.1-5.5c4-2.9,8.3-5.5,12.7-7.9
			c8.6-4.8,16.9-9.5,24.7-16.2c15.5-13.3,33.3-23.9,50.2-35.6c1.3-0.9,3-1.2,4.5-1.8C1561.9,2216.2,1562.3,2216.6,1562.7,2217.1z"/>
		<path class="st0" d="M1289.5,3003.5c-4.5-2.2-8.2-3.9-12.3-5.9c-3.9,9.5,3.8,16.8,2.4,24.9c-8.8,2.1-10.6,1.4-12.5-6.2
			c-1.1-4.4-0.8-9.1-1-13.7c0-1,0.5-1.9,0.6-2.9c0.5-3.9,2.2-8.9-2.3-10.7c-5.5-2.1-5.3,4.5-7.8,7.1c-0.2,0.2-0.5,0.4-1.3,1.1
			c-6.6-0.9-9.9-6.4-11.1-12c-2.5-11.9-1.5-25,13.3-30.5c7.7-2.8,14.4-1.5,21,2.1c4.5,2.5,4.9,5.6,2.1,10c-5.3,8.4-5.3,8.4,2.5,13
			C1290.3,2984.2,1292.7,2992.2,1289.5,3003.5z"/>
		<path class="st0" d="M1665.8,1790.7c0-2.6-0.1-3,0-3.2c4.5-12,6.2-24.3,5.8-37.2c-0.2-4.3,3.6-7,8.2-7.2
			c6.3-0.3,12.6-0.7,18.9-0.7c8.7,0,11.3,4,8,12.3c-1,2.5-2,5.1-3.8,7c-8,8.6-11.1,19.5-15,30.1c-1.7,4.6-4.3,9-7.3,12.9
			c-3.6,4.6-7.5,4.1-10.2-1.1C1668.1,1798.9,1666.8,1793.7,1665.8,1790.7z"/>
		<path class="st0" d="M1981.5,1718.6c0-3.5-0.2-6.2,0-8.7c0.4-4.6,2.9-8.2,7-10.3c5.1-2.6,9.2-0.1,9.5,5.6c0,0.7-0.1,1.3-0.2,2
			c-0.2,3.9,0.3,8.3,4.9,8.3c5.4,0.1,4-4.7,4.1-8.3c0.1-2.4,0.5-5.8,2-6.8c1.7-1.1,5.7-0.7,7.1,0.6c1.8,1.7,3.3,5.2,2.9,7.7
			c-2.3,14.8-10.6,20.1-26.1,19c-5.4-0.4-11.1,1.3-16.3,3.2c-4.9,1.8-9.6,3.1-14.5,1.3c-2.6-1-4.7-3.2-7-4.8c1.9-2,3.4-4.9,5.8-5.9
			c3.6-1.5,7.7-1.8,11.6-2.4C1975.2,1718.8,1978.1,1718.8,1981.5,1718.6z"/>
		<path class="st0" d="M1738.3,1687.5c-0.7,3.9-0.9,7.9-2.2,11.6c-2.8,7.9-11.5,10.7-18.7,6.3c-8.5-5.1-11.9-18.4-6.8-27
			c2.4-4,4.6-8.1,7.3-11.8c3.9-5.4,7.5-5.6,12.3-0.9C1736.5,1671.6,1738.5,1679.1,1738.3,1687.5z"/>
		<path class="st0" d="M1063.4,2635.7c-2.7-3.9,0-6.2,1.8-8.3c12.9-15.5,20.2-34.1,28.9-51.9c1.8-3.8,2.7-9.7,7.8-8.8
			c5.5,0.9,3.5,6.9,4.1,10.9c1.9,12.9-2.7,23.3-12.3,31.9c-9.1,8.2-17.9,16.8-26.9,25.1C1066,2635.4,1064.5,2635.4,1063.4,2635.7z"
			/>
		<path class="st0" d="M1354.4,1950c5.4,5.5,5,10.1,4.7,14.8c-1.2,17.5-2.3,35-3.5,52.5c-0.1,1.3,0.1,2.9-0.5,3.9
			c-0.9,1.6-2.4,3.8-3.6,3.8c-1.4,0-3.9-1.9-4.1-3.3c-1.2-7.2-2.2-14.4-2.6-21.6c-0.3-6.9-0.2-13.9,0.6-20.8
			C1346.6,1969.5,1350,1960.4,1354.4,1950z"/>
		<path class="st0" d="M1651.7,2227.1c-13.6,11-26.5,8.2-38.9,2c-1.3-4.1-2.6-7.7-3.5-11.4c-0.4-1.7-0.5-4.2,0.4-5.4
			c3.9-4.7,16.8-4,20.4,1c1,1.3,1.7,2.8,2.5,4.3c2.8,5,6.8,7.9,12.8,7.8C1647.2,2225.3,1648.9,2226.3,1651.7,2227.1z"/>
		<path class="st0" d="M1150.1,3101.2c1.8,3.8,3.2,6.9,5.4,11.8c5.4-7.8,2.6-19.2,14.1-21.9c0.4,2,1.3,4,1,5.9
			c-0.5,3.6-1.9,7.1-2.3,10.6c-0.6,5.2-2.5,8.7-8,9.8c-4.3,0.8-6.9,3.6-8.2,7.8c-1,3.2-3,5.2-6.5,4.9c-4-0.4-5.5-3.2-6.3-6.6
			C1137.6,3116.3,1142.3,3105.9,1150.1,3101.2z"/>
		<path class="st0" d="M1595.3,1840c-1.1-2.8-2.7-4.9-2.4-6.7c1.2-8.5,2.4-17,4.5-25.3c1.5-5.9,6-6.8,11.9-3.6
			c6.2,3.3,8.4,8.3,5.4,12.7c-4.5,6.5-9.2,12.8-14,19C1599.6,1837.5,1597.7,1838.3,1595.3,1840z"/>
		<path class="st0" d="M1336.2,2962.7c1.1,7.2-1.4,12.3-4,17.2c-2.3,4.3-2.8,8,0.4,12c0.8,1,1.7,2.3,1.7,3.5c0,1.8-0.1,4.5-1.2,5.2
			c-1.1,0.7-4.1,0.2-5.2-0.8c-2.1-2-3.6-4.7-4.9-7.3c-1.6-3.3-2.5-6.8-4-10.2c-4.4-10.3-2.2-15.6,8.5-18.6
			C1330.2,2962.9,1333.1,2963,1336.2,2962.7z"/>
		<path class="st0" d="M1287.7,2951.5c5.2-2.8,9.5-5.1,13.7-7.3c3.2-1.7,6.9-2.3,8.9,0.8c1.2,1.9,0.9,5.6,0,8
			c-2.7,6.7-5.9,13.1-9.2,19.5c-0.8,1.5-2.6,3.4-4.1,3.5c-1.4,0.1-3.8-1.8-4.2-3.2C1290.9,2965.6,1289.4,2958.3,1287.7,2951.5z"/>
		<path class="st0" d="M1644.7,2278.9c-4-2.3-6.1-3.1-7.6-4.5c-5.9-5.8-11.7-11.7-17.5-17.8c-3.5-3.7-2.9-8.3,1.4-12.2
			c3.7-3.4,6.3-3.2,9.9,1.3c2.1,2.5,3.9,5.4,5.3,8.3c2.4,5.1,4.4,10.3,6.3,15.5C1643.4,2271.8,1643.7,2274.3,1644.7,2278.9z"/>
		<path class="st0" d="M2315.9,1041.1c1,8.4,5.2,11.5,11.2,13.1c5.8,1.5,8.5,6,9.4,11.6c0.8,5.1-2.3,7.5-7.2,5.8
			c-0.6-0.2-1.2-0.5-1.8-0.9c-8.1-6-16.1-12.1-25.1-18.8C2306.3,1048.8,2310.3,1045.6,2315.9,1041.1z"/>
		<path class="st0" d="M627.7,2930.8c6.1-10.3,18.4-3.6,24.4-11.9c-1.6-2.5-3.2-4.9-5-7.8c4-2,8.2-1.5,11,0.8c2.8,2.3,5.4,6,5.9,9.5
			c0.7,4.4-3.8,5.7-7.4,6.4c-7.7,1.7-15.4,3.2-23.2,4.5C632,2932.5,630.4,2931.5,627.7,2930.8z"/>
		<path class="st0" d="M1320.3,2493.7c-0.7-6.5-1.4-11.7-1.9-16.9c-0.4-3.7,1.6-5.5,4.9-6.2c1.3-0.2,2.7-0.7,3.9-0.4
			c3.4,0.8,6.6,2,9.9,3c-1.2,2.9-1.9,6.1-3.7,8.6C1330.3,2486.3,1327.3,2491.3,1320.3,2493.7z"/>
		<path class="st0" d="M2421.8,727c5.4,1.8,9.6,3.3,13.9,4.6c4.4,1.3,6.9,4.6,6.8,9.6c-0.1,4.3-2,7.9-6.2,9.2
			c-1.5,0.5-4.5-0.2-5.2-1.4c-3.5-5.9-6.6-12-9.6-18.1C2421,729.9,2421.6,728.4,2421.8,727z"/>
		<path class="st0" d="M2292.4,1080.3c-2.1,6.3-3.4,11.7-5.7,16.7c-2.1,4.6-7.3,4.8-11.9,1.1c-3.8-3.1-4.3-6.6-0.4-10.1
			C2278.9,1084.1,2282.8,1078.3,2292.4,1080.3z"/>
		<path class="st0" d="M903.8,2417.8c5.1,0.1,7.3,1.7,6.9,5.5c-0.8,7.7-13,13.2-19.5,8.9c-4.5-3-4.8-7.9,0-10.2
			C895.5,2419.8,900.4,2418.8,903.8,2417.8z"/>
		<path class="st0" d="M1416.1,1967.3c-0.8,7.5-4.8,12.3-9.3,16.7c-2.4,2.3-5.2,5.1-8.5,1.8c-2.8-2.8-3.5-6.4-1.6-10.1
			C1399.5,1970.3,1408.1,1966.4,1416.1,1967.3z"/>
		<path class="st0" d="M1245,960.8c-6.6,0.3-15.3-6.5-16.1-11.4c-0.7-4.2,4.4-7.7,9-5.5c3.8,1.8,7.3,4.6,10.2,7.5
			c1.3,1.2,1.8,4.5,1.1,6.1C1248.5,959.3,1245.8,960.2,1245,960.8z"/>
		<path class="st0" d="M1286.2,1365.8c-1.7-1.1-5-2-5.6-3.7c-0.5-1.7,1.3-4.7,2.9-6.4c2-2.1,4.8-3.5,7.4-4.9c3.7-2,7.1-1.5,9.3,2.4
			c2.1,3.6,0.7,8-3.6,9.8C1293.6,1364.3,1290.3,1364.7,1286.2,1365.8z"/>
		<path class="st0" d="M1493.3,2413.2c5.1,13.4,2.3,21-7.1,24c-1.6,0.5-4.3,0.5-5.3-0.5c-0.9-0.9-0.6-3.7,0.1-5.2
			c1.7-3.9,3.6-7.8,5.8-11.4C1488.2,2417.9,1490.5,2416.2,1493.3,2413.2z"/>
		<path class="st0" d="M1325.8,2303.7c-2.1,7.5-7.5,12.3-12.7,17.1c-2.4,2.1-5.3,0.9-5.8-2.5c-0.7-5.4,1.9-9.7,5.9-12.9
			C1316.7,2302.4,1320.6,2299.9,1325.8,2303.7z"/>
		<path class="st0" d="M869.9,2454.2c1.2-3.6,1.9-7.5,3.7-10.8c2.6-4.7,8.5-6.1,12.8-3.7c4.2,2.4,4.6,7,0.5,9.3
			c-4.8,2.7-9.9,4.7-14.9,6.9C871.3,2455.4,870.6,2454.8,869.9,2454.2z"/>
		<path class="st0" d="M1186.2,2893.8c-2.2-14.4,6.9-22,16.8-29.2C1200.8,2876.3,1193,2884.8,1186.2,2893.8z"/>
		<path class="st0" d="M2386.7,783.3c0.2,9.2,0.2,9.2,13,15.5c-1.7,1.7-2.9,3.5-4.6,4.4c-1.3,0.7-3.3,0.9-4.8,0.4
			c-4.6-1.5-9.9-2.3-12-7.6C2377.4,793.3,2380.2,789.2,2386.7,783.3z"/>
		<path class="st0" d="M2056.1,1680.9c1.6,6.9-2.9,12-4.6,17.7c-0.3,0.9-2.8,1.6-4.3,1.7c-3.1,0.1-6.7-2.3-10.6-6.5
			C2042.9,1689.6,2049.2,1685.4,2056.1,1680.9z"/>
		<path class="st0" d="M2181.7,1286.3c-0.6,7-4.5,10.6-8.4,13.9c-2.9,2.5-6.3,2.2-8.6-1.2c-2.2-3.3-1.4-6.5,1.7-8.7
			C2170.8,1287.4,2175.8,1286.5,2181.7,1286.3z"/>
		<path class="st0" d="M1274,1318.5c-4,0-6.9-3-6.7-6.9c0.2-4,3.9-7,8.2-6.7c4,0.2,7.2,3.3,7,6.8
			C1282.3,1315.3,1278.2,1318.5,1274,1318.5z"/>
		<path class="st0" d="M1250,1587.7c-7.8,2.6-13-1.3-18.2-4.2c-0.9-0.5-1.5-3.2-0.9-4.2c0.6-1.1,2.7-2.3,4-2.1
			C1241.1,1577.9,1247,1579.6,1250,1587.7z"/>
		<path class="st0" d="M1600.7,2195c-3.1,9.3-6.4,11.7-15.3,11.1C1585.3,2196.1,1591.9,2191.3,1600.7,2195z"/>
		<path class="st0" d="M1914,1889.3c-0.1,6.4-2.5,9.5-6.1,9.1c-3.6-0.4-6.1-2.3-6.5-6.2c-0.4-3.8,3.7-7.9,7.6-7
			C1911.3,1885.8,1913,1888.4,1914,1889.3z"/>
		<path class="st0" d="M1756.6,1751.7c1.9-9.5,7.6-14.8,16-15.6C1771,1745.2,1765.8,1750.4,1756.6,1751.7z"/>
		<path class="st0" d="M1210.7,927.7c9.2-5.8,14.7-4.1,18.4,6C1221.8,934.9,1216.1,932.6,1210.7,927.7z"/>
		<path class="st0" d="M1150.1,2854.9c-5,6.4-10,9.9-17,10.6C1132.6,2856.7,1137.6,2853.3,1150.1,2854.9z"/>
		<path class="st0" d="M2355.1,865.2c5.5-6.4,12.6-7.8,16.3-4.3c0.8,0.8,1.5,2.7,1.1,3.4c-0.9,1.5-2.7,3.6-3.9,3.5
			C2364.5,867.5,2360.6,866.3,2355.1,865.2z"/>
		<path class="st0" d="M2065.7,1663.1c-3.5,3.6-5.7,6.4-8.4,8.3c-1.2,0.8-4.3,0.6-5.2-0.4c-1-1-1-3.8-0.3-5.3
			C2053.5,1661.3,2056.7,1660.6,2065.7,1663.1z"/>
		<path class="st0" d="M928.4,2355.4c-0.7-0.8-2.8-2.1-3.2-3.8c-0.7-3,3.9-8,6.5-7.1c1.9,0.7,4.1,3.1,4.6,5.2
			C937,2352.9,933.7,2355.4,928.4,2355.4z"/>
		<path class="st0" d="M845.5,3078.7c-2.5,1.2-4.9,2.7-7.5,3.4c-2.9,0.8-5.2-0.5-5.7-3.8c-0.5-3.6,2.3-7,5.7-6.2
			c2.6,0.6,5,2.3,7.5,3.5C845.5,3076.7,845.5,3077.7,845.5,3078.7z"/>
		<path class="st0" d="M2202,206c-2.3-1.2-5.1-1.9-6.8-3.7c-1.2-1.3-1.7-4.5-0.9-5.9c0.9-1.5,3.9-2.8,5.6-2.4c1.6,0.4,3.6,3,3.8,4.7
			c0.2,2.4-1.1,5-1.8,7.5C2201.8,206.1,2202,206,2202,206z"/>
		<path class="st0" d="M1409.3,2799.9c5.5,0.3,11,0.6,17.2,1C1420.5,2808.7,1415.6,2808.8,1409.3,2799.9z"/>
		<path class="st0" d="M1434.2,2791.8c-2-2.9-3.8-4.3-3.9-5.9c-0.2-4,2.6-6.1,6.3-6.1c1.2,0,3.7,2.9,3.4,3.4
			C1438.7,2785.9,1436.7,2788.3,1434.2,2791.8z"/>
		<path class="st0" d="M2132.7,1604.4c-4.4-1.1-8.9-2.2-14.3-3.6C2126.7,1595.3,2129.7,1595.9,2132.7,1604.4z"/>
		<path class="st0" d="M963.3,2261.1c0.5-5.5,3.9-6.5,8.3-4.8c0.9,0.3,1.8,2.9,1.5,4.1C972.1,2263.5,968.8,2263.6,963.3,2261.1z"/>
		<path class="st0" d="M1968.8,1859.6c6.1-4.5,10.2-5.6,15.3-1.4C1979.9,1863.2,1975.5,1861.5,1968.8,1859.6z"/>
		<path class="st0" d="M1178.6,1954.2c3-2.2,4.8-4.3,6.8-4.6c1.3-0.2,3,2.3,4.5,3.5c-1.8,1.5-3.5,3.5-5.6,4.4
			C1183.4,1957.9,1181.5,1955.9,1178.6,1954.2z"/>
		<path class="st0" d="M1064.3,3154.5c-1.2,6.2-3.7,9.4-10.3,9.3C1054.6,3157.2,1058.1,3155.1,1064.3,3154.5z"/>
		<path class="st0" d="M2209.7,1191.4c7.3-3.5,10.9-1.6,14.2,3.7C2218.2,1197.9,2214.7,1195.7,2209.7,1191.4z"/>
		<path class="st0" d="M2031.4,1688.6c-3,2.2-4.8,3.9-6.9,4.9c-0.6,0.3-2.2-1.7-3.3-2.6c1.6-1.7,3.1-3.7,5-5
			C2026.8,1685.4,2028.7,1687,2031.4,1688.6z"/>
		<path class="st0" d="M2132.2,1560c-1.9-2.9-3.5-4.7-4.3-6.8c-0.2-0.6,2.7-3,2.9-2.9c1.9,1.5,3.7,3.1,5,5
			C2136,1555.7,2134.1,1557.5,2132.2,1560z"/>
		<path class="st0" d="M2329.8,961.8c-2.1,6.4-5.3,7.9-10.5,5.6C2321.9,962,2321.9,962,2329.8,961.8z"/>
		<path class="st0" d="M1064.9,2165.8c-1.9-2.2-3.5-3.7-4.3-5.4c-0.2-0.5,2.4-3.1,2.9-2.9c1.8,0.9,3.4,2.3,4.6,3.9
			C1068.4,2161.8,1066.5,2163.6,1064.9,2165.8z"/>
		<path class="st0" d="M2225.3,198.2c6.7-3.8,6.7-3.8,11.9-1.3C2234.3,201.8,2230.9,200.8,2225.3,198.2z"/>
		<path class="st0" d="M1270.4,3068.3c-7.4-0.6-11.7-3.3-16.7-8.7C1261.3,3060.1,1265.7,3062.6,1270.4,3068.3z"/>
		<path class="st0" d="M1682,2218.5c3.2,3.4,3.9,6.3,0.7,9c-0.7,0.6-3,0.4-3.5-0.2C1676.5,2223.9,1678.1,2221.3,1682,2218.5z"/>
		<path class="st0" d="M2102.4,1644.8c-3-0.2-6.1-0.4-10.8-0.8c4.8-6.2,7.9-5.2,11.1-2.9C2102.6,1642.4,2102.5,1643.6,2102.4,1644.8
			z"/>
		<path class="st0" d="M1626.9,2201.5c-1.9-2.4-3.1-3.9-4.4-5.5c1.2-0.9,2.6-2.8,3.4-2.5c1.6,0.4,3.2,1.9,3.9,3.4
			C1630.3,2197.5,1628.5,2199.2,1626.9,2201.5z"/>
		<path class="st0" d="M1644.1,1975.2c-1.5-4.1-0.3-6.4,3.1-7.2c0.7-0.2,2.6,1.2,2.7,1.9C1649.9,1973.1,1648.3,1975.2,1644.1,1975.2
			z"/>
		<path class="st0" d="M678.6,2913.2c-3.7-0.2-7.5-0.4-11.2-0.6c3.6-5.4,7.4-2.6,11.1-2.8C678.5,2911,678.6,2912.1,678.6,2913.2z"/>
		<path class="st0" d="M1589.4,2318.9c0.2-1.2,0.2-2.3,0.5-2.4c2.3-0.9,4.6-1.6,6.9-2.4c0.3,1.2,1.1,2.7,0.7,3.5
			C1595.3,2321.2,1592.5,2321,1589.4,2318.9z"/>
		<path class="st0" d="M2226.7,1110.4c-4.7-3.4-4.8-6.1-1.9-9.6C2227.8,1104.6,2227.8,1104.6,2226.7,1110.4z"/>
		<path class="st0" d="M1427.8,1953.7c-0.4,5.2-2.2,7.1-6.7,6.8C1420.4,1955.6,1422.8,1954.3,1427.8,1953.7z"/>
		<path class="st0" d="M809.3,3074.6c1.5-1.2,3-2.7,3.2-2.5c1.4,1,2.5,2.4,3.7,3.7c-0.9,0.7-2.1,2.2-2.7,2
			C812.1,3077.4,811.1,3076.1,809.3,3074.6z"/>
		<path class="st0" d="M1654.7,2182.9c-1.8-2.2-3.1-3.4-3.9-4.8c-0.1-0.3,1.9-2.3,2.2-2.2c1.3,0.6,2.6,1.6,3.3,2.8
			C1656.7,2179.3,1655.6,2180.7,1654.7,2182.9z"/>
		<path class="st0" d="M1575.3,2337.6c1.3-1.3,2.6-2.7,4-3.8c0.2-0.1,1.6,1.4,2.5,2.1c-1.4,1.3-2.7,2.7-4.1,4
			C1576.9,2339.2,1576.1,2338.4,1575.3,2337.6z"/>
		<path class="st0" d="M2371,889.8c-1.9,1.2-2.9,2.4-3.9,2.3c-0.9-0.1-1.7-1.4-2.6-2.3c0.9-0.8,1.7-2.1,2.7-2.3
			C2368.1,887.5,2369.2,888.7,2371,889.8z"/>
		<path class="st0" d="M666.4,2897.2c-2.5,1.5-4.2,2.6-6.2,3.8c-0.7-1.7-1.3-2.4-1.1-2.8C660.4,2895.1,662.4,2894.4,666.4,2897.2z"
			/>
		<path class="st0" d="M2099.7,1586.1c-1.1-1.3-2.3-2.3-2.1-2.5c0.6-1.2,1.7-2.3,2.5-3.4c0.6,0.6,1.9,1.3,1.8,1.7
			C2101.5,1583.2,2100.7,1584.4,2099.7,1586.1z"/>
		<path class="st0" d="M1951.6,1861.3c-1.1-1-2-1.8-2.8-2.6c0.8-0.8,1.6-1.7,2.4-2.5c0.8,0.8,1.9,1.6,2.4,2.6
			C1953.8,1859.1,1952.6,1860.1,1951.6,1861.3z"/>
		<path class="st0" d="M1271.3,3085.6c-2.2-0.9-4.3-1.9-6.5-2.8c0.3-0.9,0.7-1.8,1-2.7c2.2,0.8,4.5,1.5,6.7,2.3
			C1272.1,3083.5,1271.7,3084.6,1271.3,3085.6z"/>
		<path class="st0" d="M1064.4,2088.1c1.1-1.2,1.8-2.4,2.2-2.4c1.1,0.2,2.2,1.1,3.2,1.7c-0.6,0.9-1.3,2.5-2,2.6
			C1066.9,2090.1,1065.8,2089,1064.4,2088.1z"/>
		<path class="st0" d="M2068.5,1588.9c1.7-0.7,3.5-1.4,6.3-2.6c-0.9,4.9-3,5.3-5.6,4.8C2069,1590.4,2068.8,1589.6,2068.5,1588.9z"/>
		<path class="st0" d="M1883.4,1903.4c1,0.9,2.1,1.4,2.2,2.1c0.1,0.6-0.8,1.4-1.3,2.2c-0.7-0.5-1.9-0.9-2.1-1.6
			C1882,1905.5,1882.8,1904.6,1883.4,1903.4z"/>
		<path class="st0" d="M2309.6,1072.7c-0.9,1-1.5,2-2.1,2.1c-0.7,0.1-1.6-0.7-2.4-1c0.5-0.7,0.9-1.8,1.5-2
			C2307.3,1071.6,2308.2,1072.2,2309.6,1072.7z"/>
		<path class="st0" d="M2414.4,814.6c-0.9-1-1.9-1.7-1.9-2.4c0-0.6,1-1.3,1.6-1.9c0.7,0.6,1.7,1.1,1.8,1.8
			C2416,812.7,2415.1,813.5,2414.4,814.6z"/>
		<path class="st0" d="M1068.5,2174.7c-1.1,0.5-2.1,1.4-2.7,1.2c-0.7-0.2-1-1.4-1.5-2.1c0.7-0.5,1.6-1.4,2.2-1.3
			C1067.2,2172.6,1067.7,2173.7,1068.5,2174.7z"/>
		<path class="st0" d="M1179.4,3101.7c-0.5-1.2-1.2-2.2-0.9-2.8c0.3-0.6,1.6-1.2,2.2-1c0.6,0.2,1.3,1.5,1.2,2.2
			C1181.7,3100.6,1180.5,3101,1179.4,3101.7z"/>
		<path class="st0" d="M1207.9,2981.8c-0.8,0.9-1.4,2.1-2,2.1c-0.7,0.1-1.5-0.8-2.2-1.3c0.5-0.7,0.9-1.9,1.5-2.1
			C1205.8,2980.4,1206.7,2981.2,1207.9,2981.8z"/>
		<path class="st0" d="M629.3,2878.2c-0.2-0.5-0.8-1.2-0.6-1.6c0.2-0.4,1-0.6,1.5-0.9c0.3,0.7,0.6,1.5,0.9,2.2
			C630.5,2877.9,629.9,2878.1,629.3,2878.2z"/>
		<path class="st0" d="M1231,1661.5c-1.3,0.6-2.1,1.3-2.7,1.2c-0.7-0.1-1.2-1.1-1.7-1.7c0.7-0.4,1.4-1.3,2.1-1.2
			C1229.3,1659.7,1230,1660.6,1231,1661.5z"/>
		<path class="st0" d="M1239.3,1508c-1-0.9-2-1.4-2.1-2.1c-0.1-0.7,0.6-1.5,0.9-2.3c0.7,0.5,1.7,0.8,2,1.5
			C1240.3,1505.8,1239.7,1506.7,1239.3,1508z"/>
		<path class="st0" d="M1867.2,1904.6c-0.6-1.1-1.4-1.9-1.2-2.5c0.2-0.6,1.4-1.4,2-1.3c0.6,0.1,1.4,1.3,1.4,1.9
			C1869.3,1903.3,1868.2,1903.8,1867.2,1904.6z"/>
		<path class="st0" d="M1666.4,1960.7c-1.4,0.8-2.7,1.5-4.1,2.3c-0.3-0.5-0.7-1-1-1.4c1.2-1,2.5-2,3.7-3
			C1665.5,1959.3,1666,1960,1666.4,1960.7z"/>
		<path class="st0" d="M1299.7,3010.9c-0.7,1.8-1.5,3.7-2.2,5.5c-0.6-0.2-1.2-0.5-1.7-0.7c0.7-1.8,1.5-3.7,2.2-5.5
			C1298.6,3010.5,1299.1,3010.7,1299.7,3010.9z"/>
		<path class="st0" d="M1620.4,2180.1c-1-0.9-1.6-1.5-2.3-2.1c0.6-0.6,1.1-1.4,1.8-1.8c0.2-0.1,1.4,0.6,1.4,0.9
			C1621.3,2178,1620.9,2178.8,1620.4,2180.1z"/>
		<path class="st0" d="M1361.1,1852.2c-0.8,1-1.4,1.7-1.9,2.3c-0.6-0.7-1.3-1.2-1.7-2c-0.2-0.3,0.6-1.5,0.8-1.5
			C1359.2,1851.2,1359.9,1851.6,1361.1,1852.2z"/>
		<path class="st0" d="M1093.7,2084c0.8-0.5,1.5-1.2,1.7-1.1c0.8,0.4,1.3,1.2,2,1.8c-0.7,0.5-1.5,1.4-2,1.2
			C1094.7,2085.7,1094.3,2084.7,1093.7,2084z"/>
		<path class="st0" d="M932.7,2334.8c1.4-0.5,2.3-1.1,3-1c0.5,0.1,0.8,1.3,0.9,2c0,0.2-1.1,0.8-1.5,0.7
			C934.4,2336.4,933.9,2335.7,932.7,2334.8z"/>
		<path class="st0" d="M1354.7,2508.7c-0.7-0.5-1.6-0.9-1.5-1.2c0.1-0.8,0.6-1.6,1-2.4c0.6,0.4,1.8,0.9,1.8,1.3
			C1355.9,2507.3,1355.2,2508,1354.7,2508.7z"/>
		<path class="st0" d="M1217.9,862.6c-0.3-0.4-0.9-0.9-0.8-1.3c0.1-0.4,0.8-0.7,1.2-1.1c0.4,0.6,0.8,1.2,1.2,1.7
			C1219,862.1,1218.4,862.3,1217.9,862.6z"/>
		<path class="st0" d="M2153.5,1271.2c-0.5,0.3-1,0.9-1.4,0.8c-0.4-0.1-0.7-0.9-1.1-1.3c0.5-0.3,1-0.9,1.4-0.8
			C2152.9,1270,2153.1,1270.7,2153.5,1271.2z"/>
		<path class="st0" d="M1609.5,2258c-0.3-0.5-0.6-1-0.9-1.4c0.5-0.3,1.1-0.9,1.5-0.8c0.4,0.1,0.7,0.9,1,1.4
			C1610.5,2257.4,1610,2257.7,1609.5,2258z"/>
		<path class="st0" d="M2347,1044.9c0.4-0.4,0.7-1.2,1.1-1.2c0.4-0.1,0.9,0.6,1.4,0.9c-0.4,0.4-0.7,1.2-1.1,1.2
			C2347.9,1045.9,2347.4,1045.3,2347,1044.9z"/>
		<path class="st0" d="M2312.3,217.4c0-0.3,0-0.6,0-0.9c0.5,0,1,0,1.5,0.1c0,0,0,0.8,0,0.8C2313.2,217.4,2312.7,217.4,2312.3,217.4z
			"/>
		<path class="st0" d="M1209.4,2853.2c-0.5-0.3-1.2-0.4-1.4-0.8c-0.1-0.4,0.4-1,0.6-1.5c0.5,0.3,1.2,0.4,1.4,0.8
			C1210.1,2852.1,1209.6,2852.7,1209.4,2853.2z"/>
		<path class="st0" d="M966.1,2242.6c0,0.3,0,0.6,0,0.9c-0.4-0.2-0.9-0.3-1.3-0.5c0.2-0.2,0.3-0.6,0.6-0.7
			C965.5,2242.2,965.8,2242.5,966.1,2242.6z"/>
		<path class="st0" d="M1248.8,1472.2c-0.2-0.2-0.4-0.4-0.6-0.7c0.4-0.2,0.9-0.4,1.3-0.5c0,0.3,0.2,0.7,0,0.9
			C1249.5,1472,1249.1,1472,1248.8,1472.2z"/>
		<path class="st0" d="M781.7,2465.9c0.2,0.2,0.3,0.5,0.5,0.7c-0.5,0.1-0.9,0.2-1.4,0.3c0-0.3-0.1-0.7,0.1-0.9
			C781,2465.9,781.4,2465.9,781.7,2465.9z"/>
		<polygon class="st0" points="1201.7,2402.8 1202.4,2402.9 1202,2403.4 		"/>
		<polygon class="st0" points="797,2443.6 797.3,2444.2 796.7,2444.2 		"/>
		<polygon class="st0" points="1859.2,1946.3 1858.6,1946 1859.1,1945.6 		"/>
		<polygon class="st0" points="2180.8,1302.3 2180.9,1301.6 2181.4,1302 		"/>
		<path d="M2074.8,1463.3c6-4.7,11.5-2.1,18.3,0c-2.7,7.9-5.6,15.5-7.9,23.1c-0.8,2.6-0.9,5.9,0,8.4c1.8,5.1-0.1,8.3-4,11.1
			c-6.3,4.5-12.6,9-21,5.5c-4.6-1.9-5.1-4-2.3-8.3c1.5-2.4,3.5-5.1,3.4-7.6c-0.2-6.1,3-9.1,7.9-11.3c0.9-0.4,1.8-0.7,2.7-1.2
			c10.4-4.9,10.9-7.5,3.7-16.8C2075.3,1465.7,2075.3,1465,2074.8,1463.3z"/>
		<path d="M1280.7,1707.6c-3.9,5-7.6,8.2-13.2,6.9c-7.2-1.6-6.3-8.3-7.9-14c-9.5,2-18.2,6.8-28.4,4.7c0.2-5,4-5.4,6.9-6.1
			c6.3-1.6,10.3-5.2,13-11.1c2.8-6,6.6-11.6,12.9-14.6c3.5-1.7,6.5-1,8.5,2.5c1.8,3.1,2.4,6.3-0.9,8.9c-2.8,2.2-7.5,4-6,8.1
			c1.5,4,5,7.4,8,10.7C1275.1,1705.2,1277.6,1705.9,1280.7,1707.6z"/>
		<path d="M2109.6,1452.9c-6-5.9-11.1-8.1-18.1-6.8c-5.7,1.1-12.5-6.1-13.3-12.3c-0.4-3.5,1.8-5.4,4.6-4.8c4,0.9,7.9,2.7,11.6,4.6
			c2.6,1.3,4.6,4.4,7.1,4.9C2109.2,1439.7,2109.9,1444.6,2109.6,1452.9z"/>
		<path d="M2237.8,1062.7c-1.1,1.7-1.4,2.7-1.9,2.7c-9.4,1.4-18.8,2.9-28.2,3.7c-1.8,0.1-5.6-3.2-5.3-4.3c0.5-2.5,2.8-4.7,4.8-6.6
			c0.7-0.7,2.6-0.7,3.8-0.5C2219.6,1059.3,2228.3,1061,2237.8,1062.7z"/>
		<path d="M1312,1274.5c5.4-1.4,9.1-2.4,12.9-3.3c6.1-1.5,8.2-0.3,9.4,5c1.2,5.4-1.2,9.9-6.3,10.3c-2.9,0.2-6.4-1.1-8.8-2.9
			C1316.6,1281.9,1315.1,1278.7,1312,1274.5z"/>
		<path d="M2121.4,1330.8c-4.6-2.4-9.3-4.7-13.8-7.3c-2.7-1.6-4.7-4.3-2.9-7.6c1.8-3.4,5-3.1,7.9-1.8c6.4,2.9,10.4,7.7,11,14.6
			C2122.9,1329.3,2122.1,1330.1,2121.4,1330.8z"/>
		<path d="M1320.9,1380.6c8.1-2,15.4-10.7,26-1.7c-6.6,4.9-13.9,5.5-20.5,7.4c-1.7,0.5-4.1-1.8-6.2-2.9
			C1320.4,1382.5,1320.6,1381.5,1320.9,1380.6z"/>
		<path d="M1303.4,1743.7c-5.4,6.9-13.8,7.8-17.8,1.7c-1-1.5-1.6-4.1-0.9-5.5c0.6-1.3,3.1-2.2,4.8-2.2
			C1293.5,1737.6,1299.8,1740.6,1303.4,1743.7z"/>
		<path d="M2151.3,1179.5c-0.7,1-1.1,2.2-1.9,2.5c-7.9,2.8-14.9,0.1-21.4-4c-1-0.6-1.1-2.8-1.6-4.2c1.7-0.5,3.6-1.9,5-1.5
			C2137.8,1174.3,2144.1,1176.8,2151.3,1179.5z"/>
		<path d="M2062.2,1549c-6.4,0.9-10.9-0.9-14.8-4.1c-1.5-1.2-1.7-3.9-2.5-5.9c2-0.7,4.2-2.3,6-2
			C2056.8,1538.1,2060.9,1541.5,2062.2,1549z"/>
		<path d="M1291.3,1783.1c-3.7,4.2-7.5,6.2-12,5.4c-1.8-0.3-4.4-2.4-4.7-4c-0.3-1.3,1.9-4.1,3.6-4.7
			C1282.7,1778.2,1287.1,1778.5,1291.3,1783.1z"/>
		<path d="M2260.1,1009.8c-7.5,2.5-13.9-1.6-21.3-2.2c1-1.8,1.2-2.6,1.6-2.9c12-7.1,12.8-6.9,19.6,5.2
			C2260,1010,2260.1,1009.8,2260.1,1009.8z"/>
		<path d="M2252.8,990.4c2.5-13.1,8.6-17.9,18-14.7C2265,980.4,2259.8,984.7,2252.8,990.4z"/>
		<path d="M2238.5,1026.9c4.2-4.8,8.9-4.7,14.3-3c-0.1,5.3-3.2,7.2-6.8,8C2242.3,1032.7,2239.8,1030.9,2238.5,1026.9z"/>
		<path d="M2360.6,828.3c-6.7,7.2-7.4,7.3-14.2,3.7C2350.5,825.2,2352.9,824.5,2360.6,828.3z"/>
		<path d="M2037.9,1375.2c6.9-1.9,6.9-1.9,11.2,2.3C2043.7,1382.5,2042.8,1382.4,2037.9,1375.2z"/>
		<path d="M1311,1451.5c-3.3,2-6.4,4.3-9.9,5.8c-1.2,0.5-3.3-0.8-5-1.3c1.1-1.4,1.8-3.6,3.2-4.1c3.3-1.3,6.9-1.8,10.4-2.6
			C1310.2,1450.1,1310.6,1450.8,1311,1451.5z"/>
		<path d="M1247,1749.2c-2-3.1-3.8-4.9-4.3-7.1c-0.2-1,2-2.6,3.1-3.9c1.6,1.7,3.7,3.2,4.6,5.2
			C1250.8,1744.2,1248.8,1746.2,1247,1749.2z"/>
		<path d="M1338.2,1393.9c5.7-4,9.2-1.5,13.4,2.8C1345.9,1399.4,1342.1,1398.5,1338.2,1393.9z"/>
		<path d="M2316.7,862.5c4.4,0.6,7.3,1,11.3,1.5C2322.4,870,2322.4,870,2316.7,862.5z"/>
		<path d="M1256.5,995.9c2.1-1.5,3.5-2.4,4.9-3.4c0.9,1.5,2.3,3,2.5,4.5c0.1,0.9-2.3,3-2.9,2.8
			C1259.5,999.3,1258.4,997.7,1256.5,995.9z"/>
		<path d="M1319,1358.2c3,0.1,6,0.3,9.9,0.5c-4.8,5.1-4.8,5.1-10.2,1.6C1318.8,1359.6,1318.9,1358.9,1319,1358.2z"/>
		<path d="M2246.2,1075.7c-1.7-1.6-2.6-2.4-3.4-3.2c1.4-1.4,2.7-3,4.3-4.1c0.3-0.2,2.7,1.7,2.6,1.9
			C2248.9,1071.9,2247.7,1073.5,2246.2,1075.7z"/>
		<path d="M2059.8,1435.9c-1.7,1.5-2.8,2.4-3.9,3.4c-0.8-1.2-2.1-2.4-2.4-3.7c-0.1-0.8,1.6-2.8,2.2-2.6
			C2056.9,1433.3,2058,1434.5,2059.8,1435.9z"/>
		<path d="M1266.3,1736.9c-2,1.6-3.1,3.2-4.3,3.2c-1.2,0-2.3-1.6-3.5-2.5c1-1.1,1.8-2.8,3-3
			C1262.7,1734.4,1264.1,1735.7,1266.3,1736.9z"/>
		<path d="M1342.3,1248.8c-1.7-0.2-3.3-0.5-5-0.7c0.2-0.8,0.4-2.4,0.5-2.4c1.6,0,3.2,0.3,4.8,0.5
			C1342.6,1247.1,1342.5,1247.9,1342.3,1248.8z"/>
		<path d="M2073.6,1408.9c-0.9-2.3-1.7-3.3-1.7-4.4c0-0.7,1.6-2,1.8-1.9c1,0.6,2.3,1.5,2.4,2.4
			C2076.2,1405.9,2074.9,1406.9,2073.6,1408.9z"/>
		<path d="M2105.8,1349.1c-1.5,0.6-2.4,1.3-3.1,1.1c-0.5-0.1-0.9-1.3-1.1-2.1c0-0.1,1.1-0.9,1.6-0.8
			C2104,1347.6,2104.6,1348.3,2105.8,1349.1z"/>
		<path d="M2190,1066.4c-0.8-1.2-1.7-2.1-1.6-2.6c0.2-0.6,1.3-1.1,2.1-1.4c0.2-0.1,1.2,0.9,1.1,1.3
			C2191.4,1064.5,2190.8,1065.2,2190,1066.4z"/>
		<path d="M1289.4,1723.4c-0.5,0.3-1,0.6-1.5,0.9c-0.3-0.7-0.6-1.4-0.9-2.1c0.6-0.1,1.3-0.5,1.7-0.3
			C1289,1722.1,1289.1,1722.9,1289.4,1723.4z"/>
		<path d="M1285.9,1024.3c-0.4-0.4-0.9-0.7-1.3-1.1c0.6-0.5,1.3-0.9,1.9-1.4c0.3,0.5,0.9,1.1,0.8,1.5
			C1287.1,1023.7,1286.4,1023.9,1285.9,1024.3z"/>
		<path d="M2087.5,1372.5c-1.4-2.5-1.8-3.2-2.3-3.9c0.8-0.3,1.6-0.8,2.4-0.9c0.3,0,1.1,0.9,1.1,1.3
			C2088.6,1369.9,2088.2,1370.7,2087.5,1372.5z"/>
		<path d="M2313.5,919.9c-0.8,0.5-1.5,1-2.3,1.3c-0.2,0.1-1.1-1.2-1-1.3c0.6-0.6,1.3-1.1,2-1.7
			C2312.5,918.6,2312.9,919.1,2313.5,919.9z"/>
		<path d="M2353.1,808.8c-0.7-0.6-1.2-1-1.7-1.4c0.7-0.5,1.3-1.2,2-1.6c0.2-0.1,0.9,0.7,1.3,1.1
			C2354.3,807.6,2353.7,808.2,2353.1,808.8z"/>
		<path d="M2157.1,1144.2c-0.5-0.7-1.1-1.3-1.6-2c0.5-0.4,1.2-1.1,1.4-1c0.7,0.4,1.3,1.1,2,1.7
			C2158.3,1143.3,2157.9,1143.7,2157.1,1144.2z"/>
		<path d="M2384.3,713.4c0-0.3,0-0.6,0-0.9c0.5,0,1,0,1.4,0.1c0,0,0,0.8,0,0.8C2385.2,713.4,2384.8,713.4,2384.3,713.4z"/>
		<path d="M2061.7,1476c0.4-0.3,0.8-0.7,1.3-1c0.3,0.4,0.9,0.9,0.8,1.3c-0.1,0.4-0.8,0.7-1.2,1.1
			C2062.4,1476.9,2062.1,1476.5,2061.7,1476z"/>
		<path d="M2239.1,1044.1c-0.1-0.5-0.5-1.3-0.3-1.5c0.3-0.3,1-0.3,1.6-0.4c0.1,0.5,0.5,1.3,0.3,1.5
			C2240.4,1044,2239.7,1044,2239.1,1044.1z"/>
		<path d="M1264.1,1661.2c-0.1,0.3-0.2,0.5-0.3,0.8c-0.3-0.2-0.7-0.5-1-0.7c0.2-0.2,0.4-0.5,0.6-0.5
			C1263.7,1660.7,1263.9,1661,1264.1,1661.2z"/>
		<polygon points="2067.7,1361.2 2068,1360.6 2068.3,1361.1 		"/>
		<path d="M1071.9,2233.7c-2.5,0.9-4.9,2.5-7.4,2.5c-1.4,0-2.6-2.9-4-4.5c1.9-1.4,3.8-3.8,5.7-3.9c1.9-0.1,3.9,2.2,5.8,3.4
			C1072.1,2232.1,1072,2232.9,1071.9,2233.7z"/>
		<path d="M1090.9,2307.4c-2.2-2.8-3.9-4.5-4.7-6.6c-0.2-0.5,2.8-3.4,3.7-3.1c1.8,0.5,3.7,2.3,4.4,4
			C1094.7,2302.6,1092.7,2304.5,1090.9,2307.4z"/>
		<path d="M1149.4,2031.7c-1.3-2.1-3.2-3.9-2.9-4.9c0.5-1.4,2.7-2.9,4.1-2.9c1.2,0.1,3.2,2.5,3.1,3.6
			C1153.5,2028.9,1151.3,2029.9,1149.4,2031.7z"/>
		<path d="M1098.5,2179.1c1.9-2.9,4.2-3,6.4-0.8c0.5,0.5,0.1,2.9-0.6,3.2C1101.7,2183.1,1099.5,2182.5,1098.5,2179.1z"/>
		<path d="M1217.3,1979.1c1.9-0.1,3.7-0.3,5.6-0.3c0.1,0,0.4,2.4,0.2,2.4c-1.7,0.6-3.5,0.9-5.3,1.3
			C1217.6,1981.4,1217.4,1980.3,1217.3,1979.1z"/>
		<path d="M1078.8,2298.3c-1.1,0.5-2,1.3-2.6,1.2c-0.6-0.2-1-1.3-1.5-2c0.7-0.5,1.5-1.4,2.1-1.3
			C1077.4,2296.3,1077.9,2297.3,1078.8,2298.3z"/>
		<path d="M1098.5,2245c-0.6-0.6-1.1-1.3-1.7-1.9c0.5-0.3,1.1-1.1,1.4-0.9c0.8,0.4,1.4,1.1,2,1.7
			C1099.7,2244.1,1099.2,2244.5,1098.5,2245z"/>
		<path d="M956.2,2389.3c-0.1-0.3-0.1-0.6-0.2-0.9c0.5,0.1,0.9,0.1,1.4,0.2c-0.1,0.3-0.2,0.7-0.4,0.8
			C956.9,2389.5,956.5,2389.4,956.2,2389.3z"/>
		<path d="M1148.9,2161.5c-0.3-0.1-0.7-0.1-0.8-0.3c-0.1-0.2,0-0.6,0-0.9c0.4,0.2,0.9,0.3,1.3,0.5
			C1149.3,2161,1149.1,2161.3,1148.9,2161.5z"/>
		<path d="M968.9,2381.4c-0.1-0.2-0.3-0.5-0.3-0.7c0-0.2,0.3-0.4,0.5-0.6c0.2,0.4,0.4,0.7,0.5,1.1
			C969.4,2381.3,969.2,2381.3,968.9,2381.4z"/>
		<path d="M1173.4,3049.7c-1.8-2.1-3.6-4.2-6.7-7.7c6.7,0,8.3,2.4,8.8,5.9C1174.9,3048.5,1174.1,3049.1,1173.4,3049.7z"/>
		<path d="M1219.9,3058.8c-1.5-1.8-2.8-2.8-3.2-4c-0.2-0.6,1.8-2.6,2.2-2.5c1.3,0.5,2.6,1.5,3.2,2.7
			C1222.4,3055.6,1221,3057,1219.9,3058.8z"/>
	</g>
</g>
</svg>
