<svg version="1.1" id="progressiveMoose" xmlns="http://www.w3.org/2000/svg"  x="0px" y="0px" viewBox="0 0 1030.8 932.9" style="enable-background:new 0 0 1030.8 932.9;" >
<style type="text/css">
.blue{fill:#1505BC;}
.red{fill:#DD0201;}
.stars-white{fill:#FFFFFF;}
</style>
<path class="blue" d="M949,395.1c-13-48.1-40-86.7-79.6-116.5c-22.5-17-48.5-21.8-76-18.8c-9.7,1.1-19.2,4.1-28.5,7c-21.5,6.8-43.8,9.4-66.1,11.9c-8.7,1-17.7,2.4-26.3,1.5c-32.8-3.4-64.3-12.4-94.4-25.5c-20.4-8.9-40-19.7-60-29.5c-21.8-10.8-44.7-16.8-69.3-15.3c-7.1,0.4-14.3,1.1-21.4,1.6c-6.1,0.5-12.1,0.9-18.2,1.3c-0.3-0.5-0.6-1.1-0.9-1.6c6.1-4.7,11.6-11,18.5-13.7c12.1-4.8,21-13,30.1-21.6c13.6-12.7,24.2-27.5,29-45.3c5.9-22.1,10.5-44.6,14.7-67.1c1.7-9,0.9-18.6-3.5-27.3c-2.9-5.7-7.8-6.3-10.9-0.7c-2.1,3.8-2.2,8.5-3.4,12.7c-0.5,1.8-1.2,4.9-2.3,5.2c-4.9,1.1-7.3,4.4-9.9,8.3c-1.3,1.9-4.9,2.4-7.4,3.5c-0.7-2.6-1.7-5.1-2.1-7.7c-0.2-1.2,0.5-2.6,0.9-3.9c2-6.6,4.6-13.2,6-20c1.1-5.2,1.5-10.9,0.5-16.1c-0.5-2.9-4.2-6.5-7.1-7.3c-2.1-0.6-5.7,2.5-7.8,4.8c-2.2,2.4-3.4,5.8-5,8.8c-5-3.7-5.2-6.7-0.6-9.2c4.4-2.3,4.4-5.3,2.6-9.1c-2.2-4.5-5.9-6-10.7-5.4c-6.5,0.9-13.1,1.7-19.7,2.6c-6,0.8-10.5,3-11.4,9.8c-0.3,2.2-1.8,4.2-3,7c-3.4-4.1-5.8-7.3-8.5-10.1c-2.2-2.3-5.5-3.3-7,0.3c-3.2,7.7-9.7,14.3-8.6,23.6c0.2,1.6-0.6,3.3-1,4.9c-2.6,10.8-5.4,21.5-7.6,32.4c-0.9,4.5-1.4,9.5-0.5,13.9c3.3,15.7,7,31.3,11.1,46.8c2.1,7.9,1.4,15.2-1.3,22.5c-1.3,3.8-4,6.8-8.4,6.7c-4.3-0.1-6.5-3.4-7.3-7.1c-1.2-6-1.7-12.1-2.5-18.2c-0.4-3.1-0.5-6.9-4.7-7c-4.1-0.1-7.6,2.1-8.4,6.4c-0.6,3.3-0.3,6.9-0.1,10.4c0.5,12.8,1.3,25.5,1.7,38.3c0.1,2.6-1.1,5.3-1.7,7.6c-4-1.4-7.4-2.6-10.6-3.8c1.8-4.8,5.1-9.7,5.1-14.7c0-12.9-0.5-26-7.2-37.7c-2.2-4-3.1-8-1.6-12.4c0.8-2.1,1.2-4.5,1.8-6.7c1.4-5.3-0.6-9.5-4.4-13c-3.9-3.5-8.4-3.2-12.5-0.8c-12,6.9-21.2,16.4-26.7,29.3c-3.3,7.9-7.1,15.7-10.6,23.5c-1.9,4.2-4,8.4-5.3,12.7c-1.4,4.4-2.2,9-2.9,13.6c-0.4,3.2-1.8,3.8-4.7,3.1c-8.1-2-15.8-0.7-23.4,2.5c-2.6,1.1-5.5,1.3-8.2,2.2c-2.6,0.9-5.3,1.7-7.6,3.1c-2.6,1.6-4.9,1.8-6.5-0.7c-2.7-4.5-5.9-9-7.4-13.9c-4.7-15.4-12.9-28.7-22.6-41.3c-5.3-7-12.9-8.5-21.1-6.9c-5.9,1.1-8.1,5-6.8,11c0.5,2.3,1.5,4.9,0.8,6.8c-4.3,10.7-3.7,21.8-3.4,33c0.2,6.2-1.6,12.6,3.2,18c0.7,0.7-0.3,2.9-0.5,4.4c-1.3-0.4-3.4-0.3-3.9-1.2c-3-5-6.2-9.9-8-15.2c-1.9-5.4-2.3-11.4-3.2-17.1c-0.8-5.3-1.9-10.6-2.1-16c-0.2-5.5,0.2-11,1.2-16.4c1.7-9,2.6-18.4,6.3-26.5c4.6-10.1,7.9-20.2,10.4-31c4.1-17.5,1.3-33.7-5.5-49.6c-1.4-3.3-2.9-7.3-7.6-6.5c-4.8,0.9-4.3,5.2-4.7,8.8c-0.2,2-0.5,3.9-0.7,5.8c-2.3-3.5-3.2-7-4.5-10.4c-2.2-5.7-5.4-7.6-11.3-5.9c-4.4,1.3-7.6,0.1-11.1-2.3c-5.6-3.9-8.4-2.7-9.1,4.1c-0.3,2.7,0.9,5.6,1.4,8.3c0.5,2.6,1.6,5.2,1.5,7.8c0,1.7-1.7,3.3-2.6,4.9c-1.1-1.4-2.8-2.6-3.3-4.2c-0.8-2.7-0.7-5.6-1.3-8.4c-0.3-1.8-0.9-3.6-1.8-5.1c-1.8-3.1-4.9-4.7-8-3.2c-2.2,1-4.6,3.7-4.8,5.9c-0.6,5.9,0,11.9,0.2,17.9c0,2.2,0.3,4.5,0.5,7.4c-6.7-1.9-9.4-6.6-11.5-12c-2.3-5.5-4.2-11.2-6.7-16.6c-2.7-5.9-7.5-9.3-14-9.9C57.7,15,54,18,54,24.1c0.1,3.5,0.7,7,1.7,10.3c2.7,9.4,6.2,18.6,8.5,28.1c1.2,5.2,1.1,10.8,0.9,16.2c-0.1,3.3-2.7,4.6-5.1,2c-2.4-2.6-4.4-5.8-6-9c-2.6-5.2-4.7-10.6-7.3-15.8c-1.5-2.8-4-4.5-7.5-3.1c-5.6,2.2-9.6,9.9-7.5,15.6c2.5,6.8,6,13.3,8.3,20.2c3.1,9.4,5.5,19,8,28.6c0.4,1.2-0.1,2.7-0.4,5.4c-4.6-4.9-7.8-9.2-11.8-12.6c-4.2-3.6-5.5-7.1-4.3-12.6c2.4-11.1-3.2-18.6-14.1-20c-1.7-0.2-3.5-1.1-5-2C4.5,70.6,0.6,72.6,0,81.9c-0.1,1.9,0,4,0.5,5.9c2.9,9.9,7.4,19.5,8.3,30c0.1,1.4,1.3,2.7,1.7,4.1c0.9,2.8,2,5.7,2.3,8.6c1.8,19.4,7.9,36.9,20.5,52.1c9,10.9,17.3,22.4,25.8,33.7c1.8,2.5,3,5.6,4.5,8.4c-0.4,0.4-0.7,0.8-1.1,1.2c-2.6-0.8-5.4-1.3-7.8-2.5c-9.5-4.7-19-9.6-28.5-14.3c-1.9-0.9-3.9-1.8-6-2.3c-5.6-1.3-12.5,2.7-14.8,8.5c-2.3,5.6-0.4,11,4.8,14.2c13.5,8.2,26.8,16.7,40.6,24.4c16.2,9,32.7,12.7,51,4.7c12.3-5.4,25.7-9.8,39-11.5c13.1-1.7,26.3-2.1,39.2-5.5c5.8-1.5,6.7,0.5,4.8,6.3c-2.3,6.8-6.2,13.7-6.3,20.7c-0.3,14.1-2,27.8-6.7,41.1c-0.8,2.3-1.5,4.9-1.5,7.3c0.1,9.9-4.5,17.9-9.2,26c-7.1,12.2-11.2,25.2-10.4,39.5c0.6,10.6,0,21.1-3.4,31.5c-2.5,7.6-0.7,13.9,4.6,15.8c8.4,3,12.8,8.7,15.6,16.7c0.7,1.8,4.2,4.1,6.1,3.8c9.8-1.3,18.3,1.8,26.7,6.2c5.8,3,11.8,3,17.7-0.2c9.2-5,18.4-9.8,27.7-14.6c6.3-3.2,9.6-8.3,9-15.3c-0.3-4.6-1.2-9.2-2.3-13.7c-1.8-7.5,0.3-13.7,6.5-18c5.3-3.7,11.1-6.7,16.7-9.9c8.5-4.8,14.8-11.2,17.6-20.8c0.6-2.2,1.9-4.2,3.1-6.8c3.1,5.2,3.3,10.6,0.8,16.5c-3.5,8.5-10.1,13.8-18.2,17.6c-5.4,2.6-6.1,4.6-4,9.9c4.2,10.3,8.6,20.5,12.4,31c1.8,5.2,4.5,6.8,10.1,6.8c212.7-0.1,425.3-0.1,638-0.1c9.2,0,9.2,0,11.5-8.6c0.3-1.1,0.6-2.2,1-3.3C951.9,416.5,951.9,405.8,949,395.1z M501.8,372.9c-0.2,0-0.3,0-0.5,0c-12.7,0-25.3,0.2-38-0.1c-0.1,0-0.2,0-0.3,0c-4,0-5.9,1.4-7.2,5.5c-4,13.3-8.6,26.5-13.4,41c0-0.1-0.1-0.2-0.1-0.3c-2.7-7.8-4.9-14.6-7.2-21.3c-2.3-6.8-4.8-13.5-6.7-20.4c-1-3.7-2.9-4.6-6.4-4.5h-0.2c-12.5,0.2-25,0.1-37.5,0.1c-0.3,0-0.7,0-1,0c-1.2,0-2.5-0.3-4.1-1.1c2-1.6,4-3.1,6.1-4.6c9.2-6.8,18.4-13.8,27.8-20.3c3.6-2.5,4-4.8,2.7-8.7c-2.5-7.4-4.9-14.8-7.4-22.6c0,0,0-0.1,0-0.1c-0.4-1.3-0.8-2.6-1.2-4c-0.6-1.8-1.2-3.7-1.8-5.5c-0.9-2.9-1.9-5.9-2.8-8.9c2.7,1.9,5.2,3.7,7.6,5.4c3.1,2.2,6,4.2,8.9,6.3c6.6,4.7,13.3,9.3,19.8,14.3c1.5,1.1,2.8,1.7,4,1.5c0,0,0,0,0,0c1-0.1,2-0.6,3.2-1.5c11.4-8.5,23-16.7,35.6-25.8c0.1-0.1,0.2-0.1,0.3-0.2c-2.4,7.7-4.4,14.1-6.4,20.5c-2.3,7.3-4.4,14.6-7,21.8c-1.2,3.3-0.6,5.1,2.2,7.1c10.1,7.1,20,14.5,29.9,21.8c1.6,1.1,3.1,2.3,5.6,4.2C504.1,372.7,502.9,372.9,501.8,372.9z M651.7,372.4c-12.5,0.1-25,0.2-37.5,0c-3.5,0-5.2,1.1-6.3,4.6c-4.2,13.4-8.8,26.8-13.7,41.6c-0.1-0.1-0.1-0.3-0.1-0.4c-1-2.8-1.6-4.3-2.1-5.8c-3.9-11.6-8-23.3-11.6-35c-0.6-2-1.4-3.4-2.6-4.2c0,0-0.1-0.1-0.1-0.1c-1-0.7-2.3-0.9-4.2-0.9c-12.7,0.3-25.3,0-38,0c-1.3,0-2.6-0.2-5.1-0.4c0.1,0,0.1-0.1,0.2-0.2c2.9-2.2,4.9-3.9,7.1-5.4c9.3-6.9,18.4-13.8,27.8-20.4c3-2.1,3.4-4,2.3-7.4c-4.5-13.4-8.8-26.9-13.1-40.3c0.2-0.3,0.5-0.5,0.7-0.8c11.4,8.3,23,16.3,34.6,24.9c3.3,2.4,5.4,2.5,8.6,0c9.8-7.5,19.9-14.5,29.9-21.7c1.2-1,2.5-1.7,4.9-3.4c0.1-0.1,0.2-0.2,0.3-0.2c-1.6,5.3-2.7,9.1-3.9,12.8c-3,9.6-6,19.3-9.3,28.9c-1,2.7-0.8,4.4,0.6,6c0.1,0.1,0.2,0.2,0.3,0.4c0.4,0.4,1,0.9,1.6,1.3c4.5,3.1,8.9,6.3,13.4,9.5c0.5,0.3,1,0.7,1.4,1.1c3.7,2.7,7.4,5.5,11.2,8.2c0.1,0.1,0.1,0.1,0.2,0.2c1.2,0.9,2.5,1.8,3.7,2.7c0.1,0.1,0.3,0.2,0.5,0.3c0,0,0,0,0.1,0c0.6,0.4,1.2,0.9,1.9,1.5c0.2,0.2,0.4,0.3,0.6,0.5c0.5,0.4,1,0.8,1.6,1.3c0.1,0.1,0.2,0.1,0.2,0.2C655.1,372.1,653.4,372.4,651.7,372.4z M804.7,372.8c-12.9,0.1-25.7,0.2-38.5,0c-4.1-0.1-6.1,1-7.4,5.2c-3.6,12-7.7,23.8-11.6,35.6c-0.4,1.2-0.8,2.3-1.4,3.9c-0.2,0.5-0.4,1.1-0.6,1.7c-0.9-2.6-1.7-5.1-2.6-7.7c-0.5-1.4-1-2.8-1.4-4.2c-0.7-1.9-1.3-3.9-2-5.8c-2.5-7.4-4.9-14.6-6.9-21.9c-0.9-3.2-2.2-5.1-4.1-6.1c0,0-0.1,0-0.1-0.1c-1.4-0.7-3.2-0.9-5.4-0.8c-13.2,0.4-26.5,0.1-40.9,0.1l0.1-0.1c1.5-1.5,2.3-2.4,3.3-3.1c10.6-7.9,21.1-15.7,31.8-23.4c2.7-1.9,3.4-3.7,2.3-7c-4.5-13.6-8.7-27.2-13.4-41.8c0,0,0,0,0,0c0.2,0.1,0.3,0.2,0.5,0.3c0,0,0,0,0,0c0.9,0.6,1.6,1,2.3,1.4c0.1,0.1,0.2,0.1,0.3,0.2c0.5,0.3,0.9,0.5,1.3,0.8c10.2,7.2,20.5,14.3,30.4,21.9c0.7,0.5,1.3,1,2,1.3c0.2,0.1,0.3,0.2,0.5,0.2c2.6,1.2,4.8,0.4,7.7-1.7c10.7-8.2,21.8-16,33.8-24.6c0.1-0.1,0.2-0.1,0.3-0.2c-0.7,2.6-1,4.1-1.5,5.5c-3.9,12.4-7.7,24.8-11.8,37.1c-1,3.1-0.4,4.7,2.2,6.6c11.6,8.3,23.1,16.8,35.6,26C807,372.6,805.9,372.8,804.7,372.8z"/>
<path class="red" d="M1030.6,815.8c-0.7-5.1-3.6-9.9-5.5-14.8c-4.5-11.5-10.1-22.6-13.1-34.4c-5.3-20.9-8.7-42.2-13.3-63.3c-3.2-14.4-5.5-28.7-3.6-43.5c1.2-9.2-0.3-18-5.4-25.8c-4.4-6.8-9.3-13.3-14.4-19.7c-7.2-9-13-18.6-14.1-30.3c-0.8-7.9-1.2-15.9-1.1-23.9c0.3-19.3-2.4-38.2-5.9-57c-2.7-14.6-5.9-29-8.2-43.6c-0.7-4.6-1.6-6.1-6.4-6.1c-211.3,0.1-422.7,0.1-634,0.1c-1.6,0-3.2,0.1-4.8,0.2c-0.2,0.4-0.4,0.7-0.6,1.1c4.8,3.9,9.9,7.6,14.4,11.9c4.4,4.3,9.7,8.5,11.8,13.9c4.5,11.4,7.6,23.4,10.4,35.3c2.3,9.8,3.9,19.7,11.6,27c2.6,2.5,5.8,4.3,9,6c2.5,1.3,5.5,1.8,8.2,3c6.5,2.8,12.8,5.9,19.3,8.5c3,1.2,6.4,2.3,9.5,2c6-0.7,9.9,2,13.9,5.9c6.3,6.1,11.3,13.8,20.5,16.3c0.4,0.1,0.8,0.5,1,0.9c2.2,4.6,3.6,9.8,8.7,12.6c0.4,0.2,0.2,1.6,0.3,2.4c0.9,5.4,1.4,10.9,2.6,16.2c5.4,23.5,11.6,46.8,16.3,70.4c5.3,26.4,9.2,53.1,13.6,79.6c4.7,28.9,8.3,57.9,6.7,87.4c-0.7,11.5-5,19.8-16.3,23.6c-18.7,6.2-26.7,21.9-33.2,38.6c-2.5,6.4,1.4,10.2,8,8.1c3.4-1.1,5.4-0.8,6.5,2.8c1.5,5,5,6.1,9.7,5.6c7.6-0.8,15.2-1.6,22.8-2.2c13.8-1.1,24.6-6.9,30-20.3c3.1-7.8,8.5-10.5,16.6-10.7c6-0.2,12.1-1.5,18-3.1c4.6-1.2,7.1-4.9,7-9.8c-0.2-4.1-0.3-8.3-1-12.4c-1.7-10.3-2.1-20.5,3.5-30c3-5.1,1.3-9.9-1.3-14.6c-2.7-5-5.9-9.8-7.6-15.1c-13.2-41.4-26.2-83-39.1-124.5c-3.7-11.8-7.8-23.8-4.7-36.2c2.8-11.2,7.7-21.8,11.1-32.9c2.1-6.9,4.3-14.1,4.5-21.2c0.7-20.1,4.8-24.6,24.9-23.3c16.1,1,31.7-0.5,47-6.3c14.4-5.4,29.5-9.6,45.1-9.4c13.8,0.2,27.6,2,41.4,2.2c16.8,0.2,33.6-0.3,50.4-1c7.9-0.3,15.8-2,24.2-3.2c0.4,1.9,0.8,3.3,1,4.4c1.9,13.4,6.6,25.7,14,37c4.2,6.4,8.5,12.7,12.8,19.1c21.5,31.9,35.6,66,32.5,105.6c-1.8,22.2-3.3,44.5-4.1,66.8c-0.7,18.9-8.3,34.4-20.1,48.3c-9.3,10.9-18.8,21.6-28,32.6c-2,2.4-3.7,5.3-4.4,8.2c-0.4,2,0.7,5.2,2.2,6.5c1.3,1.1,4.7,1,6.3,0.1c3.6-2.1,4.9-0.7,7,2.3c1.7,2.6,5.1,5.4,7.9,5.5c6.6,0.2,13.5-0.1,19.7-2.1c17.1-5.6,26.4-15.1,25.3-33.5c-0.5-9,2.5-15.8,9-21.6c7.7-6.9,11.4-15.7,11.2-26.2c-0.1-4.9,0-9.7,0.6-14.5c1.9-14.5,4.2-28.9,6.3-43.4c4.1-27.7,10-55,21.4-80.7c5.3-12,4.3-22.1-4.2-32.3c-5.6-6.7-10.5-14.3-13.9-22.3c-9.1-21-11.5-43.5-11.7-66.3c-0.1-8.2-0.3-16.3,0.5-24.4c0.3-2.8,3-6.6,5.6-7.7c1.9-0.8,6.3,1.3,8,3.4c4.8,5.7,9.6,11.6,13,18.2c12.3,23.6,27.2,45,46.1,63.7c8.5,8.6,14.1,18.9,15.4,31.2c1.5,13.7,6.9,25.7,15.4,36.3c7,8.7,11.4,18.7,14.6,29.3c9.4,30.6,19,61.2,28.4,91.8c1.6,5.2,2.7,10.6,3.5,16c2,13.9-3,26.2-9.7,37.9c-6.9,12-11.1,24.8-12.9,38.5c-1.1,8.4,2.4,12.6,10.9,13c4.9,0.2,9.7,0.1,14.5,0.6c21.6,2.2,36.9-14.5,32.6-35.6c-2.5-12.6-2.9-24.6,5.9-35.6C1030.6,825.7,1031.2,820,1030.6,815.8z M500.8,775.6c0.1-0.2,0.2-0.3,0.4-0.4c-1.5,15.7,4.9,29,9.2,42.7c0,0,0,0,0,0c0.6,2,1.2,4.1,1.7,6.2c0.5,2.1,0.9,4.2,1.2,6.3c0.6,4.4,1.2,8.8,1.1,13.3c-1.1-1.1-2.1-2.5-3.2-4.1c-0.3-0.4-0.5-0.8-0.8-1.3c-0.1-0.2-0.2-0.5-0.4-0.7c-0.5-0.9-1-1.9-1.5-2.9c-0.1-0.3-0.2-0.5-0.4-0.8C499.9,815.8,494.8,783.1,500.8,775.6z"/>
<path class="stars-white" d="M555.4,297.3c11.5,8.2,23,16.3,34.4,24.7c3.2,2.4,5.3,2.5,8.6,0c9.8-7.4,19.9-14.5,29.9-21.7c1.3-0.9,2.6-1.8,5.2-3.6c-1.6,5.3-2.7,9-3.9,12.8c-3.1,9.7-6,19.4-9.3,28.9c-1.3,3.6-0.5,5.5,2.6,7.7c10.1,7,19.9,14.5,29.9,21.7c1.3,1,2.6,2,4.9,3.8c-2.8,0.3-4.5,0.6-6.2,0.6c-12.5,0-25,0.1-37.5,0c-3.6-0.1-5.2,1.1-6.3,4.6c-4.2,13.4-8.8,26.8-13.7,41.6c-1-3-1.6-4.6-2.2-6.2c-3.9-11.7-7.9-23.3-11.6-35c-1.2-3.8-2.8-5.2-6.9-5.2c-12.6,0.3-25.3,0.1-38,0c-1.3,0-2.6-0.2-5.1-0.4c3-2.3,5.2-4,7.3-5.6c9.2-6.8,18.4-13.8,27.8-20.4c3-2.1,3.5-4.1,2.3-7.4c-4.5-13.4-8.7-26.8-13.1-40.3C554.9,297.9,555.1,297.6,555.4,297.3z"/>
<path class="stars-white" d="M745.2,419.2c-4.6-13.8-9.3-26.6-13.1-39.6c-1.6-5.5-4.1-7.1-9.7-6.9c-13.3,0.5-26.5,0.1-40.9,0.1c1.7-1.5,2.5-2.5,3.4-3.2c10.6-7.8,21.1-15.7,31.8-23.4c2.7-2,3.4-3.7,2.3-7c-4.5-13.5-8.7-27.1-13.4-41.8c2,1.2,3.2,1.9,4.3,2.7c10.2,7.3,20.5,14.3,30.4,21.9c3.9,3,6.5,2.7,10.2-0.2c10.9-8.2,22-16,34.1-24.8c-0.7,2.6-1,4.1-1.5,5.5c-3.9,12.4-7.7,24.8-11.8,37.1c-1,3.1-0.4,4.7,2.2,6.6c11.6,8.3,23.1,16.9,35.6,26c-2.3,0.2-3.4,0.5-4.6,0.5c-12.8,0-25.6,0.2-38.5,0c-4.1-0.1-6.1,1.1-7.4,5.2c-3.6,11.9-7.7,23.7-11.6,35.6C746.7,415.2,746.1,416.7,745.2,419.2z"/>
<path class="stars-white" d="M402.5,297.1c6.2,4.4,11.3,8,16.3,11.7c6.6,4.7,13.4,9.4,19.8,14.3c2.7,2.1,4.5,2.1,7.3,0c11.4-8.6,23.1-16.8,35.9-26c-2.4,7.7-4.3,14.1-6.4,20.5c-2.3,7.3-4.4,14.6-7,21.8c-1.1,3.2-0.6,5.1,2.2,7.1c10.1,7.1,19.9,14.5,29.9,21.8c1.6,1.1,3.1,2.3,5.6,4.2c-2.4,0.2-3.6,0.4-4.8,0.4c-12.7,0-25.3,0.2-38-0.1c-4.4-0.1-6.4,1.2-7.7,5.5c-4.1,13.3-8.6,26.5-13.4,41c-2.7-8-5-14.8-7.3-21.6s-4.7-13.5-6.7-20.4c-1-3.6-2.9-4.5-6.4-4.5c-12.5,0.2-25,0.1-37.5,0.1c-1.6,0-3.2,0-5.3-1.1c2-1.5,4.1-3.1,6.1-4.6c9.2-6.8,18.4-13.8,27.8-20.3c3.6-2.5,4-4.8,2.7-8.7C411.3,325,407.2,311.7,402.5,297.1z"/>
</svg>