<?xml version="1.0" encoding="utf-8"?>
<!-- Generator: Adobe Illustrator 20.0.0, SVG Export Plug-In . SVG Version: 6.00 Build 0)  -->
<svg version="1.1" id="Layer_1" xmlns="http://www.w3.org/2000/svg" xmlns:xlink="http://www.w3.org/1999/xlink" x="0px" y="0px"
	 viewBox="0 0 249 379" style="enable-background:new 0 0 249 379;" xml:space="preserve">
<style type="text/css">
	.st0{fill:#FFFFFF;}
</style>
<g>
	<path class="st0" d="M0,249C0,166,0,83,0,0c31.7,0,63.3,0,95,0c1.4,3.3,2.8,6.6,4.8,11.2c1.6-2.4,2.7-4.2,4.2-6.5
		c0.2,2.9,0.3,5.4,0.5,7.8c0.7,0.1,1.4,0.2,2,0.3c1.2-4.3,2.4-8.5,3.5-12.8c19.3,0,38.7,0,58,0c-1,2.3-2,4.6-3,7
		c0.3,0.2,0.7,0.7,1.1,0.7c7-0.2,3.1-4.6,2.9-7.6c4.7,0,9.3,0,14,0c0.7,3.9,3.7,4.5,6.4,5.3c-0.2-2-0.3-3.6-0.4-5.3c8,0,16,0,24,0
		c1,1.4,2.1,2.9,3.7,5.2c1.9-1.9,3.6-3.5,5.3-5.2c8.7,0,17.3,0,26,0c0,21.3,0,42.7,0,64c-0.1,0.1-0.2,0.2-0.2,0.3
		c0,0.2,0.1,0.5,0.2,0.7c0,11,0,22,0,33c-1.2-1-2.3-2-3.5-3c0.2-1.7,0.4-3.3,0.7-5.5c-2.3,1.7-4.3,3.1-6.2,4.5
		c1.5-3.9-0.8-5.1-4-5.6c1.6-1.2,3.7-2,4.7-3.6c0.6-0.9,0-3.2-0.7-4.4c-0.8-1.3-2.5-2-4.6-3.6c0,2.5,0,3.7,0,4.8
		c-1.4-0.8-2-1.8-2.4-3c-0.5-1.2-0.8-2.5-1.4-4.4c-2.6,6.5-1.5,12,2.4,13.8c-2.9,4.3,1,7.7,1.6,11.6c0,0,1.2-0.1,1.8-0.1
		c-4.6,2.6-1.1,5.7-0.5,8.6c1.2,5.6,2.3,11.2,3.7,16.7c0.2,1,1.8,1.6,1.9,1.8c-1.1,5.2-2,9.6-2.9,14.1c0,0.1,0.1,0.3,0.1,0.5
		c1.2,4.6,2.6,9.1,3.4,13.8c0.7,3.6,2.3,8-1.7,10.6c-3.4,2.3-5.6,7.8-11.4,5.1c-0.4-0.2-1.4,0.7-2.3,1.2c4.3,3.4,1.3,6.5,0,9.7
		c-3.5,8.6-6.2,9.6-14.9,5.6c-2.2-1-4.3-2.6-6.5-3.5c-6.3-2.7-12-6.2-16.4-12.1c0.2,2.4,0.4,4.7,0.6,6.9c-2.6,1.7-5.7,1.7-6-1.3
		c-0.3-2.9,1-7.6,3-8.7c6.7-3.5,9.2-7,7.1-13.9c-0.4-1.2-1.7-2.1-2.5-3.2c-1,1-2.2,1.8-2.9,2.9c-3.5,5.4-6.8,10.9-10.2,16.3
		c-1.1,1.7-2.8,3.3-3,5c-0.6,4.3-0.5,8.8-0.5,13.1c0,2-0.1,5.6,0.6,5.7c4.7,1.2,2.4,3.8,1.2,5.6c-2.2,3.1-4.6,6.2-7.5,8.6
		c-14.6,11.8-31.3,20.1-48.4,27.5c-4.3,1.9-9.2,4.4-11.6,8.1c-4,6.1-6.2,13.4-9.2,20.2c-2.7,5.9-5.5,11.7-8.3,17.6
		c-2.2-0.8-3.8-1.4-5.7-2.1c-0.2,1-0.4,1.6-0.4,2.2c0.7,8.3-0.5,9.6-7.8,12.5c-3,1.2-5.9,3.7-8,6.4c-4.5,5.9-8.4,12.2-12.6,18.3
		c-1.4,2-2.8,4-4.2,6c-0.2-0.2-0.5-0.4-0.7-0.5c0.6-2.1,1.1-4.3,1.7-6.4c-0.3,0-0.6-0.1-0.9-0.1c-1.5,2.8-2.9,5.6-4.4,8.4
		c-0.5-0.2-0.9-0.5-1.4-0.7c0.3-1.5,0.5-2.9,0.8-4.4c-1.6,1.5-2.6,3.2-2.8,5.1c-0.5,4,0.4,8.6-1.2,12c-2.8,6.1-6.3,12.1-12.7,15.4
		c-1.3,0.7-3.3,2.3-3.2,3.3c0.6,7.8-5,13.4-6.7,20.4c-7,0-14,0-21,0c0-2.3,0-4.7,0-7c2-2.5,5.8-5.2,5.5-7.3C4.8,358.9,2,354.5,0,350
		c0-4,0-8,0-12c4.2-3.1,8.5-6.1,12.7-9.2c-0.1-0.2-0.2-0.4-0.3-0.6c-1.5,0.3-2.9,0.5-4.5,0.8c1.4-5.9,6.9-11.6,10.9-11.6
		c9.5,0,12-2.2,14.4-11.9c0.4-1.6,2-3.2,3.5-4.3c3.4-2.6,7-4.9,10.6-7.4c-9.4-7.1-2.1-13.6,0.8-21.3c-3.1,1.9-6.3,2.8-7.5,4.8
		c-2.4,4-4.7,6-9.5,2.6c-0.2,0.5-0.4,1-0.6,1.5c1.7,2,3.4,3.9,4.9,5.6c-3.5,2.5-7.2,5.1-11.5,8.1c0.9-3.7,1.9-7.1,2.5-10.6
		c0.6-3.7,1.3-7.6-3.1-10.1c-1.3,1.4-2.5,2.9-3.8,4.4c-0.3-0.2-0.6-0.4-0.9-0.6c0.5-1.7,0.9-3.4,1.4-5.1c2.1-2.2,4.2-4.4,6.3-6.6
		c-3.6,1-7.7,1.9-6.2,6.7c-1.4,0.3-2.8,0.7-3.8,0.9c-1.6-7.3,5.9-8.7,8-13c1.6,0,3,0,4.4,0c0.1-0.4,0.3-0.9,0.4-1.3
		c-2.8-2-5.5-4-8.3-6c1.6-0.8,3.2-1.6,4.8-2.4c3.1-1.7,6.1-3.4,9.2-5.1c-0.2-0.5-0.4-0.9-0.5-1.4c-7.6,2.7-4.3-7.9-10.1-7.9
		c-0.5,1.7-1,3.3-1.4,4.9c-0.5,0.1-1.1,0.2-1.6,0.2c1.2-4.9,1.6-9.3-4.3-10.6c-0.1,0-0.1-2.5,0.4-3.5c0.4-0.8,1.7-1.7,2.5-1.7
		c2.1,0,2.1,0.2,3-2c-2.9-1.6-4.9-5.5-9.4-3.5c2.6,3.9,0.5,5.4-1.7,8.8c-3.1,4.7-5.7,11.9-0.6,18.1C7.5,248,3.7,248.5,0,249z M6,215
		c0.5-0.9,1.2-1.8,1.5-2.8c0.3-1.1,0.3-2.3,0.5-3.4c-1.3,0.3-3.1,0.2-3.7,1.1C2.7,212.1,3.1,214.1,6,215c0.5,1.7,0.9,3.4,1.3,5.2
		c-1.1,0.4-1.9,0.7-2.9,1c1.1,1.7,2.1,3.2,3.1,4.7c6-1.5,2.8-7.7,6.7-10c-0.3-0.3-0.6-0.6-0.9-0.9C10.9,215,8.5,215,6,215z
		 M62.9,69.1c0.7-4.6,1.5-9.3,2.2-14c-7,0.8-8.3,2.5-5.8,8.1C60.2,65.3,61.7,67.1,62.9,69.1c-2.7,3.1-5.2,2.2-7.2-0.7
		c-1.3-1.9-2-4.1-3.1-6.1c-1.1-2.1-2.2-4.1-3.3-6.1c-0.6,0.1-1.2,0.3-1.8,0.4c-0.2,2.1-0.5,4.2-0.5,6.4c-0.1,2.4-0.1,4.9,0.1,7.3
		c0.3,2.8,0.1,6,1.4,8.2c4,6.8,5.4,14.1,3.7,21.4c-3.5,15-2.7,29.5,2.8,43.9c1.5,4,3,8.6,2.4,12.6c-1.7,10.6,2.9,19.8,5,29.5
		c2,9.4,4.3,18.8,5.4,28.3c0.7,5.9,2.7,10.2,7.9,12.8c2.5,1.3,4.2,4.4,8.3,2.8c1.5-0.6,4.5,2.9,6.9,4.6c-0.6,0.2-1.4,0.6-2.3,0.9
		c-4.4,1.5-9.1,2.4-13,4.7c-2.2,1.2-3,4.7-4.4,7.2c2.2,0.8,4.3,1.9,6.6,2.5c2.8,0.7,5.7,1,8.6,1.5c0.3-1.1,0.8-2.9,1.3-4.7
		c0.2,0.5,0.3,1,0.5,1.5c2.2,0.1,4.4,0.3,7.4,0.5c-2.5-3.4-0.9-6.6,2-7.2c3.1-0.6,6.2-1.5,8.1-1.9c0-3.5,0-5.8,0-8.2
		c-1.8-0.3-4.2,0-5.3-1.1c-5.4-5.2-12.4-7.2-18.7-10.6c-2.4-1.2-4.3-3.2-7.1-5.3c0.9-2.6-0.5-7,4.7-8.4c6.3-1.6,6.6-2.8,2-7.9
		c-3.2-3.6-2.4-6.5,2.3-7.4c1.7-0.3,3.6,0.1,5.4,0.2c2.8,0,5.6,0,8.4,0c0-0.5,0.1-1.1,0.1-1.6c-0.8-0.4-1.5-0.9-2.3-1.1
		c-3.2-0.6-6.3-1.1-9.5-1.4c-3-0.3-6.1-0.2-9.1-0.7c-1.7-0.3-3.3-1.4-5-2.1c1.3-0.8,2.5-1.5,4.1-2.5c0-3.5-0.5-6.2-6-6.2
		c-6.6,0-10.8-9.5-7.8-15.5c3.9-7.7,7.5-15.5,11.1-23.4c1.6-3.5,2.8-7.2,4.1-10.9c-1.2,0.2-3.3,0.7-5.3,0.8
		c-5.8,0.5-9.1-2.8-8.7-8.6c0.2-2.5,0.8-4.9,0.9-7.4c0.1-1.9,0.1-4.1-0.7-5.8c-3.3-6.6-2.9-13.9,1.7-19.5c0.7-0.8,2.6-1.5,3.3-1.1
		c4.1,2.1,5.8-0.1,7-3.5c1.4-4,0.3-6.9-3.8-8.4C68.6,71,65.8,70.1,62.9,69.1z M108.3,118.5c-9-3.9-23,1-26.7,8
		c3.5,4.6,6.9,9.1,10.5,13.9c1-1.6,2.3-3.6,2.7-4.3c2.8,1.2,5.2,2.6,7.7,3.2c0.6,0.1,1.8-2.5,3-4.2c2.6,0.6,5.9,1.3,9.3,2
		c0.2-0.4,0.4-0.9,0.7-1.3c-3.9-2.6-7.9-5.2-11.7-7.9c-1.1-0.8-2.5-2.1-2.6-3.2c-0.1-1,1.5-2.2,2.5-3.1
		C104.9,120.6,106.3,119.8,108.3,118.5z M149.7,110.2c-0.4,0.3-0.8,0.6-1.1,0.8c0.9,3.3,3.1,6.8,2.4,9.7c-1.6,6.7,3.3,11.4,4.1,17.3
		c0.2,1.2,2.2,2.1,3.3,3.1c1-1.2,2.9-2.3,3-3.6c0.2-2.5-0.6-5.1-1.1-7.7c-0.1-0.5-0.2-0.9-0.2-1.3c1.3-0.7,2.5-1.4,3.7-2
		c0.2-0.4,0.4-0.8,0.6-1.3C154.5,124.8,153.5,116.2,149.7,110.2z M240.1,76.3c2.4-9.3-6.2-10.2-10.5-14.1c-1.5-1.4-4.4-1.2-6.6-1.8
		c0.5,1.6,1.2,2.1,1.9,2.4c1,0.5,2.1,0.9,3.2,1.3c-2.2,4-1.2,6,3.2,7.3c1.6,0.5,3,1.9,4.5,2.8c-0.2,0.4-0.5,0.7-0.7,1.1
		C236.7,75.7,238.3,76,240.1,76.3z M218.6,27.5c0.5,0.7,1,1.3,1.5,2c1.8-2.6,3.7-5.3,5.5-8c-1.4-2.6-2.7-5-4-7.4
		c-1.5,0.3-2.9,0.6-4.4,1c0.3-1.9,0.5-3.3,0.7-4.8c-0.4-0.1-0.8-0.3-1.2-0.4c-0.6,1.3-2,2.7-1.8,3.7C216,18.3,217.4,22.9,218.6,27.5
		z M12.5,193.9c-0.9-2.7-1.4-5-2.5-6.9c-0.2-0.3-3.1,0.3-4.2,1.1c-2.8,2.1-1.4,4.5-0.1,7c0.9,1.7,1.2,3.8,1.6,5.3
		c2.7-2.1,5.5-4.2,8.5-6.5C14.3,193.9,12.9,193.9,12.5,193.9z M208.9,18.4c0.1-0.3,0.3-0.7,0.4-1c-2.3-2.1-4.4-4.5-6.9-6.4
		c-3.3-2.4-9.4-0.7-10.4,3.2c-0.4,1.5,1.2,3.8,2.5,5.2c0.7,0.7,2.7,0.1,4.8,0.1c-2.5-1.6-4-2.5-6.6-4.1c3.8-1.2,5.8-1.9,7.9-2.5
		c-0.1,0.3-0.2,0.7-0.3,1C203.1,15.5,206,17,208.9,18.4z M185.9,27.7c0.4-0.3,0.7-0.5,1.1-0.8c-2-6.8-10-14-15.6-13.3
		c1.9,1.7,4.2,3,6.3,4.4c1,0.6,2.2,1.2,2.9,2.2C182.5,22.5,184.1,25.1,185.9,27.7z M217.2,43.1c-0.1,2.9-0.2,5.2-0.3,7.6
		c0.8,0.1,2.2,0.3,2.9,0.4c0.1,1.7,0.2,2.8,0.3,4c2-0.3,3.9-0.6,6-0.9C222.9,50.3,220.3,47,217.2,43.1z M60.7,254.5
		c-1.9-2.6-5-2-7.9-0.6c-2.1,0.9-3.8,2.5-6,3.9C51.9,256.5,56.3,255.5,60.7,254.5z M235.6,36c0.5-0.4,1-0.7,1.6-1.1
		c-0.6-2.4-1.2-4.7-1.8-7.1c-0.4-0.1-0.8-0.2-1.2-0.4c-0.4,1.2-1.3,2.5-1.1,3.5C233.6,32.7,234.7,34.3,235.6,36z M170.2,125
		c-3.5-6.9-4.2-7.4-9.4-6.3C164.2,121,166.9,122.8,170.2,125z M95.9,19.8c2.2-2.2,3.7-3.6,5.6-5.5C96.3,12.6,94.8,14,95.9,19.8z
		 M202.1,28.2c0.3-0.6,0.6-1.3,0.9-1.9c-1.8-0.8-3.7-1.7-5.5-2.5c-0.2,0.9-0.6,2.4-0.4,2.5C198.6,27.1,200.4,27.6,202.1,28.2z
		 M146,15.8c-0.6-0.8-1.2-1.6-1.8-2.4c1.6-0.7,3.2-1.3,4.8-2c0.2,0.2,0.4,0.5,0.6,0.7c-2.7,0-5.4,0-8.2,0c-0.1,0.3-0.1,0.6-0.2,0.8
		C142.8,13.9,144.4,14.8,146,15.8z"/>
	<path d="M21,378c1.6-7,7.3-12.6,6.7-20.4c-0.1-1,1.9-2.6,3.2-3.3c6.4-3.4,9.9-9.4,12.7-15.4c1.6-3.5,0.7-8,1.2-12
		c0.2-1.8,1.2-3.6,2.8-5.1c-0.3,1.5-0.5,2.9-0.8,4.4c0.5,0.2,0.9,0.5,1.4,0.7c1.5-2.8,2.9-5.6,4.4-8.4c0.3,0,0.6,0.1,0.9,0.1
		c-0.6,2.1-1.1,4.3-1.7,6.4c0.2,0.2,0.5,0.4,0.7,0.5c1.4-2,2.8-4,4.2-6c4.2-6.1,8.1-12.5,12.6-18.3c2-2.6,4.9-5.2,8-6.4
		c7.3-2.9,8.5-4.2,7.8-12.5c0-0.6,0.2-1.3,0.4-2.2c1.9,0.7,3.6,1.3,5.7,2.1c2.8-5.8,5.6-11.7,8.3-17.6c3.1-6.7,5.2-14,9.2-20.2
		c2.4-3.7,7.3-6.2,11.6-8.1c17.2-7.4,33.8-15.7,48.4-27.5c2.9-2.3,5.3-5.5,7.5-8.6c1.3-1.8,3.5-4.4-1.2-5.6
		c-0.6-0.2-0.6-3.7-0.6-5.7c0-4.4,0-8.8,0.5-13.1c0.2-1.8,2-3.4,3-5c3.4-5.4,6.8-10.9,10.2-16.3c0.7-1.1,1.9-1.9,2.9-2.9
		c0.9,1.1,2.2,2,2.5,3.2c2.1,6.9-0.5,10.4-7.1,13.9c-2,1.1-3.3,5.8-3,8.7c0.3,2.9,3.4,3,6,1.3c-0.2-2.3-0.4-4.5-0.6-6.9
		c4.4,6,10.1,9.4,16.4,12.1c2.3,1,4.3,2.5,6.5,3.5c8.7,4,11.3,3.1,14.9-5.6c1.3-3.1,4.3-6.3,0-9.7c0.9-0.5,1.9-1.5,2.3-1.2
		c5.8,2.7,8-2.8,11.4-5.1c3.9-2.6,2.3-7,1.7-10.6c-0.9-4.6-2.3-9.2-3.4-13.8c0-0.2-0.2-0.3-0.1-0.5c0.9-4.5,1.8-8.9,2.9-14.1
		c-0.2-0.1-1.7-0.8-1.9-1.8c-1.4-5.5-2.5-11.1-3.7-16.7c-0.6-2.9-4.1-6,0.5-8.6c0.3-0.8,0.7-1.6,1-2.4c0.4,0.2,0.8,0.4,1.2,0.6
		c3.1,2.4,6.3,4.8,9.4,7.2c0,55,0,110,0,165c-3.4,1-6.9,2.1-11.4,3.4c0.9-3.5,1.4-5.3,1.8-7.1c2.1,0.2,3.6,0.4,5.3,0.6
		c-1-2-1.4-3.8-2.5-4.8c-1.4-1.3-4.7-2.9-5.1-2.5c-3.8,3.9-7.5,1.7-11.3,0.3c2.5-2.7,5-5.3,7.1-7.6c-5-8.4-11.9-11.5-19.5-12.4
		c-2.5,1.4-4.8,2.6-8.2,4.5c5.6,4.2,10.8,8.1,16,12.1c1.5,1.2,3.1,2.3,4.7,3.4c-1.5,3.4-0.6,5.9,2.4,8.2c2.7,2,5.2,4.5,7.5,7
		c4,4.4,7,5.1,13.1,2.9c0,33.3,0,66.6,0,100C172.3,378,96.7,378,21,378z M203.8,203.2c-8.5-0.9-13.9,6-11.1,13.7
		C197,212.9,204.8,212,203.8,203.2z"/>
	<path d="M0,249c3.7-0.5,7.5-1,11.2-1.5c1-0.1,2-0.3,3-0.4c-0.2,4.1,2.2,5.8,5.8,6.5c0.3,0,0.6,0.1,0.8,0.1c2.8,2,5.5,4,8.3,6
		c-0.1,0.4-0.3,0.9-0.4,1.3c-1.4,0-2.8,0-4.4,0c-2,4.3-9.6,5.7-8,13c1-0.2,2.4-0.6,3.8-0.9c0,0-0.1-0.1-0.1-0.1
		c-0.5,1.7-0.9,3.4-1.4,5.1c0.3,0.2,0.6,0.4,0.9,0.6c1.3-1.5,2.6-2.9,3.8-4.4c4.4,2.5,3.7,6.4,3.1,10.1c-0.6,3.5-1.6,6.9-2.5,10.6
		c4.3-3,8-5.7,11.5-8.1c-1.5-1.7-3.2-3.6-4.9-5.6c0.2-0.5,0.4-1,0.6-1.5c4.7,3.4,7.1,1.4,9.5-2.6c1.2-2,4.4-2.9,7.5-4.8
		c-2.9,7.7-10.2,14.2-0.8,21.3c-3.6,2.5-7.3,4.8-10.6,7.4c-1.4,1.1-3.1,2.7-3.5,4.3c-2.4,9.7-4.9,11.9-14.4,11.9
		c-4,0-9.4,5.7-10.9,11.6c1.6-0.3,3.1-0.5,4.5-0.8c0.1,0.2,0.2,0.4,0.3,0.6c-4.2,3.1-8.5,6.1-12.7,9.2c0-9,0-18,0-27
		c0-0.7,0-1.3,0-2c0-1.7,0-3.3,0-5c1.6-1.6,3.3-3.1,4.1-4c-0.6-2.3-1.5-3.9-1.2-5c0.9-3,2.5-5.7,3.4-7.8c-2.5-2.5-4.5-4.3-6.4-6.2
		C0,270.3,0,259.7,0,249z"/>
	<path class="st0" d="M248,278c-6.2,2.2-9.1,1.5-13.1-2.9c-2.3-2.5-4.7-5-7.5-7c-3-2.3-3.9-4.8-2.4-8.2l-0.1,0.1
		c3.8,1.4,7.4,3.5,11.3-0.3c0.5-0.5,3.7,1.2,5.1,2.5c1.1,1,1.5,2.9,2.5,4.8c-1.7-0.2-3.2-0.3-5.3-0.6c-0.4,1.7-0.9,3.5-1.8,7.1
		c4.5-1.4,8-2.4,11.4-3.4C248,272.7,248,275.3,248,278z"/>
	<path d="M110,0c-1.2,4.3-2.4,8.5-3.5,12.8c-0.7-0.1-1.4-0.2-2-0.3c-0.1-2.5-0.3-4.9-0.5-7.8c-1.5,2.3-2.6,4.1-4.2,6.5
		C97.8,6.6,96.4,3.3,95,0C100,0,105,0,110,0z"/>
	<path class="st0" d="M0,281c1.9,1.9,3.9,3.8,6.4,6.2c-0.9,2.1-2.5,4.8-3.4,7.8c-0.4,1.2,0.6,2.7,1.2,5c-0.9,0.8-2.5,2.4-4.1,4
		C0,296.3,0,288.7,0,281z"/>
	<path d="M0,350c2,4.5,4.8,8.9,5.5,13.7c0.3,2.1-3.5,4.9-5.5,7.3C0,364,0,357,0,350z"/>
	<path class="st0" d="M248,105c-3.1-2.4-6.3-4.8-9.4-7.2c2-0.9,4-1.8,6-2.8c1.2,1,2.3,2,3.5,3C248,100.3,248,102.7,248,105z"/>
	<path d="M169,0c0.2,3,4.1,7.4-2.9,7.6c-0.4,0-0.8-0.5-1.1-0.7c1-2.4,2-4.7,3-7C168.3,0,168.7,0,169,0z"/>
	<path d="M222,0c-1.7,1.7-3.4,3.3-5.3,5.2C215.1,2.9,214,1.4,213,0C216,0,219,0,222,0z"/>
	<path d="M189,0c0.1,1.7,0.3,3.3,0.4,5.3c-2.7-0.8-5.7-1.4-6.4-5.3C185,0,187,0,189,0z"/>
	<path class="st0" d="M0,309c0,0.7,0,1.3,0,2C0,310.3,0,309.7,0,309z"/>
	<path d="M248,65c-0.1-0.2-0.2-0.5-0.2-0.7c0-0.1,0.1-0.2,0.2-0.3C248,64.3,248,64.7,248,65z"/>
	<path d="M62.9,69.1c2.8,1,5.7,1.9,8.5,2.9c4.1,1.5,5.2,4.4,3.8,8.4c-1.2,3.4-2.9,5.6-7,3.5c-0.7-0.4-2.7,0.3-3.3,1.1
		c-4.7,5.7-5.1,12.9-1.7,19.5c0.8,1.6,0.8,3.8,0.7,5.8c-0.1,2.5-0.7,4.9-0.9,7.4c-0.4,5.8,2.9,9.1,8.7,8.6c2.1-0.2,4.1-0.6,5.3-0.8
		c-1.4,3.7-2.5,7.4-4.1,10.9c-3.6,7.8-7.2,15.7-11.1,23.4c-3,6,1.2,15.5,7.8,15.5c5.5,0,6,2.7,6,6.2c-1.6,1-2.9,1.7-4.1,2.5
		c1.7,0.7,3.3,1.8,5,2.1c3,0.5,6.1,0.4,9.1,0.7c3.2,0.3,6.4,0.9,9.5,1.4c0.8,0.1,1.5,0.7,2.3,1.1c0,0.5-0.1,1.1-0.1,1.6
		c-2.8,0-5.6,0-8.4,0c-1.8,0-3.7-0.5-5.4-0.2c-4.7,0.9-5.5,3.8-2.3,7.4c4.6,5.1,4.3,6.3-2,7.9c-5.1,1.3-3.8,5.8-4.7,8.4
		c2.8,2.1,4.8,4,7.1,5.3c6.3,3.4,13.4,5.4,18.7,10.6c1.1,1,3.5,0.8,5.3,1.1c0,2.3,0,4.6,0,8.2c-1.9,0.5-5,1.3-8.1,1.9
		c-2.9,0.5-4.5,3.8-2,7.2c-3-0.2-5.2-0.3-7.4-0.5c-0.2-0.5-0.3-1-0.5-1.5c-0.5,1.8-1,3.6-1.3,4.7c-2.9-0.5-5.8-0.8-8.6-1.5
		c-2.3-0.6-4.4-1.6-6.6-2.5c1.4-2.5,2.3-6,4.4-7.2c3.9-2.3,8.7-3.2,13-4.7c0.9-0.3,1.8-0.7,2.3-0.9c-2.4-1.7-5.4-5.1-6.9-4.6
		c-4.1,1.6-5.8-1.5-8.3-2.8c-5.1-2.6-7.1-6.9-7.9-12.8c-1.1-9.5-3.4-18.9-5.4-28.3c-2.1-9.8-6.7-19-5-29.5c0.6-4-0.9-8.6-2.4-12.6
		c-5.5-14.4-6.2-28.9-2.8-43.9c1.7-7.4,0.3-14.6-3.7-21.4c-1.3-2.3-1.1-5.4-1.4-8.2c-0.2-2.4-0.2-4.9-0.1-7.3
		c0.1-2.1,0.3-4.3,0.5-6.4c0.6-0.1,1.2-0.3,1.8-0.4c1.1,2,2.2,4.1,3.3,6.1c1,2,1.8,4.3,3.1,6.1C57.8,71.3,60.3,72.2,62.9,69.1
		L62.9,69.1z"/>
	<path d="M108.3,118.5c-2,1.3-3.4,2.1-4.6,3.1c-1,0.9-2.6,2.1-2.5,3.1c0.1,1.1,1.5,2.4,2.6,3.2c3.8,2.7,7.8,5.3,11.7,7.9
		c-0.2,0.4-0.4,0.9-0.7,1.3c-3.3-0.7-6.7-1.5-9.3-2c-1.2,1.8-2.4,4.4-3,4.2c-2.5-0.6-4.9-1.9-7.7-3.2c-0.5,0.7-1.7,2.7-2.7,4.3
		c-3.6-4.8-7-9.3-10.5-13.9C85.3,119.5,99.4,114.6,108.3,118.5z"/>
	<path d="M20.9,253.7c-0.3-0.1-0.5-0.1-0.8-0.1c0.1-4-0.1-7.7-5.8-6.5c-1,0.1-2,0.3-3,0.4c-5-6.2-2.4-13.4,0.7-18.1
		c2.2-3.3,4.2-4.9,1.7-8.8c4.6-2,6.5,1.9,9.4,3.5c-0.9,2.3-0.9,2-3,2c-0.9,0-2.1,0.9-2.5,1.7c-0.5,1-0.6,3.5-0.4,3.5
		c5.8,1.4,5.5,5.8,4.3,10.6c0.5-0.1,1.1-0.2,1.6-0.2c0.5-1.6,0.9-3.2,1.4-4.9c5.8,0,2.4,10.6,10.1,7.9c0.2,0.5,0.4,0.9,0.5,1.4
		c-3.1,1.7-6.1,3.4-9.2,5.1C24.1,252.1,22.5,252.9,20.9,253.7z"/>
	<path d="M149.7,110.2c3.8,6,4.8,14.6,14.6,15.2c-0.2,0.4-0.4,0.8-0.6,1.3c-1.2,0.7-2.4,1.3-3.7,2c0.1,0.4,0.2,0.9,0.2,1.3
		c0.4,2.6,1.2,5.2,1.1,7.7c-0.1,1.3-1.9,2.4-3,3.6c-1.2-1-3.2-2-3.3-3.1c-0.8-5.9-5.7-10.6-4.1-17.3c0.7-2.9-1.5-6.5-2.4-9.7
		C148.9,110.8,149.3,110.5,149.7,110.2z"/>
	<path d="M240.1,76.3c-1.8-0.3-3.4-0.6-5-0.9c0.2-0.4,0.5-0.7,0.7-1.1c-1.5-1-2.9-2.4-4.5-2.8c-4.5-1.3-5.5-3.3-3.2-7.3
		c-1.1-0.4-2.1-0.9-3.2-1.3c-0.7-0.4-1.4-0.8-1.9-2.4c2.2,0.5,5.1,0.4,6.6,1.8C233.8,66.2,242.4,67,240.1,76.3z"/>
	<path d="M232.9,88.1c-3.9-1.8-5-7.3-2.4-13.8c0.6,1.9,1,3.2,1.4,4.4c0.4,1.1,1,2.2,2.4,3c0-1.2,0-2.3,0-4.8
		c2.2,1.6,3.8,2.3,4.6,3.6c0.8,1.2,1.3,3.4,0.7,4.4c-1,1.5-3.1,2.4-4.7,3.6C234.3,88.3,233.6,88.2,232.9,88.1z"/>
	<path d="M218.6,27.5c-1.3-4.6-2.7-9.2-3.6-13.9c-0.2-1.1,1.1-2.5,1.8-3.7c0.4,0.1,0.8,0.3,1.2,0.4c-0.2,1.5-0.4,2.9-0.7,4.8
		c1.5-0.3,2.9-0.6,4.4-1c1.3,2.4,2.6,4.8,4,7.4c-1.9,2.7-3.7,5.3-5.5,8C219.6,28.8,219.1,28.2,218.6,27.5z"/>
	<path d="M12.5,193.9c0.4,0,1.8,0,3.2,0c-3,2.3-5.8,4.4-8.5,6.5c-0.4-1.4-0.7-3.5-1.6-5.3c-1.3-2.5-2.6-4.9,0.1-7
		c1.1-0.9,4-1.5,4.2-1.1C11.1,189,11.6,191.2,12.5,193.9z"/>
	<path d="M208.9,18.4c-2.9-1.5-5.8-2.9-8.7-4.4c0.1-0.3,0.2-0.7,0.3-1c-2,0.6-4,1.3-7.9,2.5c2.6,1.6,4.1,2.5,6.6,4.1
		c-2.2,0-4.2,0.6-4.8-0.1c-1.3-1.4-2.9-3.8-2.5-5.2c1.1-3.9,7.1-5.6,10.4-3.2c2.5,1.8,4.6,4.2,6.9,6.4
		C209.2,17.8,209,18.1,208.9,18.4z"/>
	<path d="M6,215c2.5,0,4.9,0,7.4,0c0.3,0.3,0.6,0.6,0.9,0.9c-3.9,2.3-0.7,8.5-6.7,10c-1-1.5-2-3-3.1-4.7c0.9-0.3,1.8-0.6,2.9-1
		C6.9,218.4,6.5,216.7,6,215C6.1,214.9,6,215,6,215z"/>
	<path d="M232.9,88.1c0.7,0.1,1.4,0.2,2.1,0.3c3.1,0.6,5.5,1.8,4,5.6c-0.5,1.1-1.1,2.1-1.7,3.2c-0.3,0.8-0.7,1.6-1,2.4
		c-0.6,0-1.8,0.2-1.8,0.1C234,95.8,230,92.4,232.9,88.1z"/>
	<path d="M63,69.1c-1.2-1.9-2.8-3.8-3.7-5.9c-2.4-5.6-1.2-7.3,5.8-8.1C64.4,59.8,63.7,64.5,63,69.1C62.9,69.1,63,69.1,63,69.1z"/>
	<path d="M185.9,27.7c-1.7-2.5-3.3-5.1-5.2-7.6c-0.7-0.9-1.9-1.5-2.9-2.2c-2.2-1.4-4.4-2.6-6.3-4.4c5.6-0.7,13.5,6.6,15.6,13.3
		C186.6,27.2,186.2,27.4,185.9,27.7z"/>
	<path d="M217.2,43.1c3.1,3.8,5.7,7.1,8.9,11.1c-2,0.3-4,0.6-6,0.9c-0.1-1.2-0.2-2.3-0.3-4c-0.7-0.1-2.1-0.3-2.9-0.4
		C217,48.3,217.1,46,217.2,43.1z"/>
	<path d="M237.4,97.2c0.6-1.1,1.1-2.1,1.7-3.2c1.9-1.4,3.9-2.8,6.2-4.4c-0.3,2.1-0.5,3.8-0.7,5.5c-2,0.9-4,1.9-6,2.8
		C238.2,97.6,237.8,97.4,237.4,97.2z"/>
	<path d="M60.7,254.5c-4.3,1-8.8,2-13.9,3.2c2.1-1.4,3.9-2.9,6-3.9C55.7,252.5,58.8,251.9,60.7,254.5z"/>
	<path d="M235.6,36c-0.9-1.7-2-3.3-2.5-5.1c-0.3-1,0.7-2.3,1.1-3.5c0.4,0.1,0.8,0.2,1.2,0.4c0.6,2.4,1.2,4.7,1.8,7.1
		C236.7,35.3,236.1,35.6,235.6,36z"/>
	<path d="M170.2,125c-3.4-2.2-6-4-9.4-6.3C166,117.6,166.7,118.1,170.2,125z"/>
	<path d="M6.1,214.9c-3-0.8-3.4-2.8-1.8-5c0.6-0.8,2.4-0.7,3.7-1.1c-0.1,1.1-0.1,2.3-0.5,3.4C7.2,213.2,6.5,214.1,6.1,214.9
		C6,215,6.1,214.9,6.1,214.9z"/>
	<path d="M95.9,19.8c-1.2-5.8,0.4-7.2,5.6-5.5C99.6,16.2,98.1,17.6,95.9,19.8z"/>
	<path d="M202.1,28.2c-1.7-0.6-3.5-1.1-5.1-1.9c-0.2-0.1,0.3-1.7,0.4-2.5c1.8,0.8,3.7,1.7,5.5,2.5C202.6,26.9,202.4,27.6,202.1,28.2
		z"/>
	<path d="M146,15.8c-1.6-0.9-3.2-1.9-4.8-2.8c0.1-0.3,0.1-0.6,0.2-0.8c2.7,0,5.4,0,8.2,0c-0.2-0.2-0.4-0.5-0.6-0.7
		c-1.6,0.7-3.2,1.3-4.8,2C144.8,14.2,145.4,15,146,15.8z"/>
	<path d="M20.1,273.1c-1.5-4.8,2.5-5.7,6.2-6.7C24.2,268.6,22.1,270.8,20.1,273.1C20,273,20.1,273.1,20.1,273.1z"/>
	<path class="st0" d="M225,259.9c-1.6-1.1-3.1-2.2-4.7-3.4c-5.2-3.9-10.5-7.9-16-12.1c3.4-1.9,5.7-3.1,8.2-4.5
		c7.6,0.9,14.5,3.9,19.5,12.4C229.9,254.7,227.4,257.3,225,259.9C224.9,260,225,259.9,225,259.9z"/>
	<path class="st0" d="M203.8,203.2c1.1,8.8-6.8,9.7-11.1,13.7C189.9,209.2,195.3,202.3,203.8,203.2z"/>
	<path class="st0" d="M14.2,247.1c5.7-1.2,5.9,2.5,5.8,6.5C16.4,252.9,14,251.1,14.2,247.1z"/>
</g>
</svg>
