
<svg class="svg" version="1.1" id="Layer_1" xmlns="http://www.w3.org/2000/svg" xmlns:xlink="http://www.w3.org/1999/xlink" x="0px" y="0px"
	  viewBox="71 -129 818 818" enable-background="new 71 -129 818 818" xml:space="preserve">


	  <defs>
 <style type="text/css">



#circle1 {
	fill: #D8D8D8;
	
}
#circle1:hover {
	fill: white;
	transition: .8s;
	
}
 </style>
</defs>
<circle id="circle1" stroke="#979797" stroke-miterlimit="10" cx="480" cy="280" r="409"/>
<g>
	
		<circle opacity="0.7" fill="none" stroke="#4CE570" stroke-width="7" stroke-miterlimit="10" stroke-dasharray="10,5" enable-background="new    " cx="485.707" cy="265.917" r="197.586"/>
	<path opacity="0.95" fill="#3F474F" enable-background="new    " d="M325.641,221.557l-17.052-7.675v-6.637
		c14.485-11.644,26.332-34.905,26.332-61.742c0-38.478-4.845-67.457-47.193-66.884c-41.23,0.562-49.067,28.406-49.067,66.887
		c0,26.834,11.986,50.095,24.058,61.739v6.637l-14.582,7.675l-36.597,17.453h0.123c1.866,19.314,35.349,33.963,76.517,33.963
		c41.163,0,74.651-14.649,76.515-33.963h0.007L325.641,221.557z"/>
	<path opacity="0.95" fill="#3F474F" enable-background="new    " d="M704.646,221.557l-17.021-7.675v-6.637
		c14.485-11.644,26.303-34.905,26.303-61.742c0-38.478-4.862-67.457-47.21-66.884c-41.23,0.56-49.043,28.406-49.043,66.884
		c0,26.837,12.011,50.096,24.082,61.742v6.637l-14.613,7.675l-36.632,17.453h0.123c1.866,19.314,35.352,33.963,76.52,33.963
		c41.163,0,74.65-14.649,76.515-33.963h0.007L704.646,221.557z"/>
	<path opacity="0.95" fill="#3F474F" enable-background="new    " d="M523.592,482.155l-17.035-7.812v-6.637
		c16.899-11.644,26.315-34.905,26.315-61.739c0-38.479-4.857-67.456-47.203-66.887c-41.233,0.561-49.053,28.408-49.053,66.887
		c0,26.834,11.999,50.096,24.069,61.739v6.637l-14.599,7.812l-36.614,17.593h0.123c1.866,19.313,35.35,33.963,76.52,33.963
		c41.163,0,74.65-14.649,76.515-33.963h0.007L523.592,482.155z"/>
	<g>
		<rect x="639.34" y="316.266" opacity="0.95" fill="#3F474F" enable-background="new    " width="55.527" height="98.983"/>
		<g>
			<path opacity="0.95" fill="#42C8F4" enable-background="new    " d="M638.364,315.01v102.051h58.179V315.01H638.364z
				 M693.291,413.808h-51.672v-95.543h51.672V413.808z"/>
			<path opacity="0.95" fill="#42C8F4" enable-background="new    " d="M689.088,321.268h-43.271v75.228h43.271V321.268z
				 M685.838,393.246h-36.769v-68.729h36.767v68.729H685.838z"/>
			<path opacity="0.95" fill="#42C8F4" enable-background="new    " d="M662.152,410.442h10.604v-10.605h-10.604V410.442z
				 M665.401,403.087h4.103v4.104h-4.103V403.087z"/>
		</g>
	</g>
	<g>
		<rect x="282.032" y="313.852" opacity="0.95" fill="#3F474F" enable-background="new    " width="55.527" height="98.983"/>
		<g>
			<path opacity="0.95" fill="#42C8F4" enable-background="new    " d="M280.062,312.256v102.05h58.176v-102.05H280.062z
				 M334.989,411.054h-51.674V315.51h51.674V411.054z"/>
			<path opacity="0.95" fill="#42C8F4" enable-background="new    " d="M330.786,318.514h-43.271v75.228h43.271V318.514z
				 M327.536,390.489h-36.769v-68.729h36.767v68.729H327.536z"/>
			<path opacity="0.95" fill="#42C8F4" enable-background="new    " d="M303.85,407.686h10.604V397.08H303.85V407.686z
				 M307.099,400.329h4.104v4.103h-4.104V400.329z"/>
		</g>
	</g>
	<g>
		<rect x="458.271" y="28.971" opacity="0.95" fill="#3F474F" enable-background="new    " width="55.528" height="98.984"/>
		<g>
			<path opacity="0.95" fill="#42C8F4" enable-background="new    " d="M456.968,26.991v102.047h58.177V26.991H456.968z
				 M511.895,125.789h-51.677V30.243h51.677V125.789z"/>
			<path opacity="0.95" fill="#42C8F4" enable-background="new    " d="M507.691,33.247h-43.268v75.228h43.268V33.247z
				 M504.439,105.225h-36.767V36.499h36.767V105.225z"/>
			<path opacity="0.95" fill="#42C8F4" enable-background="new    " d="M480.753,122.421h10.606v-10.606h-10.606V122.421
				L480.753,122.421z M484.003,115.065h4.102v4.104h-4.102V115.065z"/>
		</g>
	</g>
</g>
</svg>
