<svg class="svg" version="1.1" id="Layer_1" xmlns="http://www.w3.org/2000/svg" xmlns:xlink="http://www.w3.org/1999/xlink" x="0px" y="0px"
 viewBox="71 -129 818 818" enable-background="new 71 -129 818 818" xml:space="preserve">

 <defs>
 <style type="text/css">



#circle3 {
	fill: #D8D8D8;
	
}
#circle3:hover {
	fill: white;
	transition: .8s;
}

#arm {


}

 #arm:hover {
	fill: #bd58c0;
	transition: .8s;
}
 </style>

</defs>
<circle id="circle3" stroke="#979797" stroke-miterlimit="10" cx="480" cy="280" r="409"/>
<path id="arm" opacity="0.76" d="M610.959,323.795c-24.311,4.834-42.531,17.922-55.805,32.544c-1.985-0.489-3.946-0.998-5.896-1.515
	c0-32.614,0-73.352,0-105.835c-12.449,8.422-24.534,16.598-37.219,25.18c0-8.693,0-16.692,0-25.379
	c-12.719,8.605-24.847,16.811-37.636,25.462c0-8.867,0-16.816,0-25.231c-1.377,0.862-2.308,1.406-3.196,2.008
	c-9.748,6.598-19.665,12.966-29.156,19.917c-4.453,3.261-8.947,3.853-14.412,3.043c-1.628-19.848-3.241-39.52-4.862-59.28
	c-1.188,0-2.338,0-3.476,0l0.428-25.06c-3.396,0.548-8.247,2.423-8.247,8.683c0,6.577,3.626,12.977,5.927,16.376
	c-1.257,0-2.507,0-3.784,0c-1.632,19.911-3.246,39.58-4.889,59.619c-3.18,0-6.117,0-9.053,0c0,24.652,0.793-5.072,0,81.689
	c-0.059,6.274,0.419,11.639,1.365,16.199c-0.329,0.334-0.661,0.657-0.988,0.996c-3.44,3.572-8.95,5.153-13.5,7.658
	c-1.747-4.91-4.609-9.72-5.056-14.748c-2.106-23.694-3.489-47.453-5.245-71.182c-3.555-48.078,3.039-94.184,27.614-136.439
	c2.648-4.551,9.526-10.05,13.89-9.611c19.143,1.932,35.922-3.678,52.521-11.908c4.816-2.391,10.366-3.782,15.731-4.477
	c8.679-1.125,16.866-3.931,18.074-13.038c0.806-6.063-2.878-12.725-4.551-19.119c-0.895,0.138-1.786,0.274-2.678,0.414
	c1.251-3.14,2.383-6.335,3.772-9.411c7.914-17.492,8.037-20.433-6.445-33.001c-14.724-12.778-30.365-24.571-46.184-35.988
	c-10.65-7.685-22.115-8.023-32.584,1.233C397.61,39.34,379.62,54.908,362.261,71.14c-5.128,4.794-9.304,11.146-12.333,17.534
	c-9.631,20.314-18.743,40.881-27.643,61.531c-20.318,47.125-41.484,93.928-60.216,141.683
	c-15.393,39.246-20.958,80.401-14.053,122.646c1.363,8.336,2.583,16.918,2.1,25.284c-1.497,25.896,0.688,30.107,24.801,40.574
	c55.221,23.969,114.239,29.56,173.128,32.431c58.507,2.853,117.236,1.57,175.863,1.283c42.571-0.21,74.092-21.993,89.064-60.021
	C741.493,381.662,678.937,310.284,610.959,323.795z M539.998,317.363c-6.079,0-12.118,0-18.396,0c0-4.208,0-8.353,0-12.685
	c6.082,0,12.04,0,18.396,0C539.998,308.958,539.998,313.034,539.998,317.363z M521.586,283.339c6.134,0,12.09,0,18.307,0
	c0,4.167,0,8.319,0,12.775c-6.183,0-12.136,0-18.307,0C521.586,291.801,521.586,287.658,521.586,283.339z M521.527,326.025
	c6.2,0,12.239,0,18.449,0c0,4.217,0,8.289,0,12.636c-6.027,0-12.06,0-18.449,0C521.527,334.371,521.527,330.298,521.527,326.025z
	 M502.548,338.703c-6.181,0-12.212,0-18.508,0c0-4.178,0-8.317,0-12.671c6.114,0,12.145,0,18.508,0
	C502.548,330.365,502.548,334.42,502.548,338.703z M502.466,317.389c-6.117,0-12.149,0-18.436,0c0-4.196,0-8.342,0-12.764
	c6.287,0,12.244,0,18.436,0C502.466,308.89,502.466,313.026,502.466,317.389z M484.005,283.337c6.214,0,12.245,0,18.384,0
	c0,4.373,0,8.583,0,12.78c-6.266,0-12.213,0-18.384,0C484.005,291.803,484.005,287.656,484.005,283.337z M446.516,338.663
	c0-4.076,0-8.208,0-12.711c6.153,0,12.107,0,18.354,0c0,4.175,0,8.305,0,12.711C458.837,338.663,452.819,338.663,446.516,338.663z
	 M446.419,283.441c6.039,0,12.066,0,18.419,0c0,4.096,0,8.309,0,12.684c-6.091,0-12.042,0-18.419,0
	C446.419,291.829,446.419,287.774,446.419,283.441z M446.322,304.79c6.179,0,12.291,0,18.62,0c0,4.153,0,8.3,0,12.524
	c-6.324,0-12.432,0-18.62,0C446.322,313.04,446.322,309.062,446.322,304.79z M427.382,338.772c-6.227,0-12.178,0-18.359,0
	c0-4.259,0-8.404,0-12.751c6.1,0,12.138,0,18.359,0C427.382,330.248,427.382,334.314,427.382,338.772z M409.049,283.324
	c6.183,0,12.138,0,18.306,0c0,4.306,0,8.449,0,12.777c-6.139,0-12.092,0-18.306,0C409.049,291.919,409.049,287.77,409.049,283.324z
	 M408.975,304.652c6.149,0,12.105,0,18.326,0c0,4.209,0,8.355,0,12.733c-6.062,0-12.102,0-18.326,0
	C408.975,313.188,408.975,309.115,408.975,304.652z"/>
<path d="M422.963,189.444c0,0,1.956-4.759-3.006-13.059l-0.227,13.264C421.557,189.355,422.963,189.444,422.963,189.444z">
<animateTransform  type="translate" fill="remove" begin=".1" attributeName="transform" accumulate="none" dur="5s" additive="replace" restart="always" calcMode="linear" values="0,0;-3,7;0,0" repeatCount="indefinite" attributeType="HML">
		</animateTransform>
</path>
<path d="M417.223,172.408c1.089,1.405,1.987,2.73,2.734,3.978l0.414-24.348C420.371,152.038,408.889,161.667,417.223,172.408z">
<animateTransform  type="translate" fill="remove" begin=".3" attributeName="transform" accumulate="none" dur="5s" additive="replace" restart="always" calcMode="linear" values="0,0;2,5;0,0" repeatCount="indefinite" attributeType="HML">
		</animateTransform>
</path>
</svg>
