<svg version="1.1" id="Layer_1" xmlns="http://www.w3.org/2000/svg" xmlns:xlink="http://www.w3.org/1999/xlink" x="0px" y="0px"
 viewBox="55.5 -14.5 818 818" enable-background="new 55.5 -14.5 818 818" xml:space="preserve">



<defs>
 <style type="text/css">



#circle {
	fill: #D8D8D8;
	
}
#circle:hover {
	fill: white;
	transition: .8s;
	
}

.horn  {
fill: #3F474F;

}
#circle:hover 
.horn  
fill: none;
}
 </style>
</defs>
<circle id="circle" stroke="#979797" stroke-miterlimit="10" cx="464.5" cy="394.5" r="409"/>
<g id="Your_Icon">
	<g>
		<g id="horn">
			<path class="horn" opacity="0.8"  enable-background="new    " d="M442.316,250.278L134.78,459.662
				c-4.193,2.881-6.048,8.257-4.489,13.079l7.641,24.198c1.527,4.872,5.982,6.58,11.134,6.496h84.333l2.262,38.416
				c0.19,6.586,5.541,11.902,12.199,11.891l96.463,0.037c1.216,0,2.548-0.128,3.771-0.572c4.577-1.447,8.03-5.541,8.369-10.484
				l2.255-39.287h163.56c1.146-0.038,2.331-0.199,3.397-0.601c2.343-0.7,4.415-2.122,5.942-4.203
				c2.141-2.956,2.778-6.857,1.608-10.407L459.981,256.41c-1.101-3.491-3.771-6.315-7.265-7.479
				C449.271,247.674,445.406,248.234,442.316,250.278z M333.142,529.188h-73.338l-1.941-25.744h76.25L333.142,529.188z"/>
			<path class="horn" opacity="0.8"  enable-background="new    " d="M490.284,219.889c-8.634,2.722-13.147,12.839-10.067,22.689
				l79.915,252.974c3.176,9.744,12.64,15.512,21.311,12.712c8.702-2.685,13.188-12.877,10.105-22.652l-80.009-252.939
				C508.509,222.834,499.004,217.129,490.284,219.889z"/>
		</g>
	</g>
</g>
<path opacity="0.8" fill="#3F474F" stroke="#42C8F4" stroke-miterlimit="10" enable-background="new    " d="M587.901,288.538
	c8.285-8.185,16.579-16.364,24.849-24.565c1.49-1.478,3.102-2.713,5.012-2.598c1.114,0.065,2.355,0.442,3.064,1.154
	c10.938,10.948,21.803,21.968,32.667,32.987c1.739,1.764,1.472,4.539-0.616,7.159c-0.239,0.301-0.52,0.578-0.797,0.852
	c-16.725,16.529-33.444,33.062-50.185,49.582c-3.134,3.09-6.238,3.335-8.749,0.79c-10.435-10.556-20.866-21.118-31.301-31.681
	c-2.716-2.744-2.401-5.55,1.029-8.95C571.217,305.018,579.558,296.779,587.901,288.538 M618.113,322.468l-24.628-24.926
	l-24.394,24.102l24.631,24.929L618.113,322.468z M645.787,295.127l-24.644-24.941l-24.44,24.152l24.643,24.941L645.787,295.127z
	 M600.343,283.236c0.255,0.259,0.532,0.508,0.769,0.781c0.834,0.961,1.889,0.756,2.899-0.221c1.018-0.989,0.89-1.963,0.137-2.756
	c-0.252-0.266-0.522-0.514-0.771-0.778c-1.512-1.615-2.576-1.814-3.684-0.554C598.121,281.504,599.432,282.319,600.343,283.236
	 M618.307,329.045c0.485,0.492,0.737,1.049,1.163,1.107c0.722,0.105,1.848,0.187,2.268-0.239c0.542-0.551,0.726-1.646,0.734-2.445
	c0.007-0.451-0.631-0.787-0.995-1.163c-1.593-1.625-2.62-1.83-3.662-0.629C616.262,327.471,617.528,328.295,618.307,329.045
	 M607.364,276.405c0.071,0.075,0.149,0.146,0.221,0.224c1.195,1.26,2.256,1.384,3.295,0.379c1.062-1.03,0.968-2.019-0.314-3.323
	c-0.074-0.074-0.149-0.149-0.221-0.224c-1.587-1.608-2.563-1.795-3.652-0.697C605.625,273.841,605.824,274.899,607.364,276.405
	 M579.265,303.869c0.404,0.408,0.713,1.086,1.232,1.161c0.719,0.108,1.848,0.021,2.333-0.454c0.498-0.488,0.806-1.792,0.538-2.309
	c-0.494-0.958-1.334-1.808-2.293-2.305c-0.517-0.268-1.835,0.053-2.317,0.55c-0.473,0.491-0.482,1.581-0.433,2.34
	C578.354,303.27,578.929,303.537,579.265,303.869 M600.343,346.912l0.013-0.01c-0.218-0.221-0.451-0.441-0.663-0.672
	c-0.766-0.846-1.764-0.843-2.753,0.094c-1.064,1.008-1.096,2.041-0.221,2.887c0.597,0.582,1.135,1.235,1.785,1.755
	c0.766,0.61,1.643,0.454,2.514-0.427c0.855-0.871,1.03-1.723,0.42-2.51C601.117,347.618,600.71,347.282,600.343,346.912
	 M628.479,319.457c-0.292-0.296-0.598-0.582-0.881-0.894c-0.783-0.868-1.782-0.753-2.75,0.177c-0.902,0.871-1.036,1.855-0.323,2.651
	c0.554,0.622,1.136,1.229,1.752,1.789c0.83,0.747,1.767,0.706,2.769-0.339c0.927-0.975,0.945-1.842,0.199-2.602
	C628.993,319.977,628.734,319.718,628.479,319.457 M646.375,301.562c0.255,0.258,0.513,0.52,0.768,0.777
	c0.838,0.847,1.793,0.89,2.875-0.228c1.03-1.061,0.887-1.95,0.121-2.728c-0.367-0.37-0.756-0.722-1.095-1.12
	c-0.831-0.983-1.873-1.571-3.214-0.246c-1.341,1.326-0.769,2.381,0.209,3.208C646.16,301.328,646.263,301.446,646.375,301.562
	 M589.252,294.132c-1.559-1.58-2.427-1.739-3.531-0.647c-1.086,1.077-0.939,2.069,0.578,3.578c0.909,0.905,1.721,2.219,3.544,0.707
	C591.068,296.748,590.882,295.781,589.252,294.132 M607.442,340.189c-0.33-0.334-0.585-0.891-1.005-0.953
	c-0.774-0.115-1.805-0.232-2.442,0.184c-0.992,0.656-1.204,1.765-0.488,2.589c0.609,0.71,1.263,1.388,1.979,1.994
	c0.809,0.697,1.733,0.489,2.623-0.473c0.833-0.902,0.924-1.733,0.214-2.454C608.03,340.779,607.734,340.484,607.442,340.189
	 M639.462,308.483c0.258,0.259,0.522,0.507,0.766,0.778c0.702,0.783,1.559,0.855,2.572-0.021c1.067-0.934,1.217-1.871,0.488-2.754
	c-0.265-0.32-0.572-0.604-0.861-0.902c-1.605-1.627-2.604-1.836-3.652-0.616C637.216,306.791,638.597,307.553,639.462,308.483
	 M635.884,312.802c-0.709-0.616-1.086-0.979-1.499-1.298c-1.023-0.783-2.602-0.338-2.953,1.023
	c-0.221,0.854,0.144,2.039,0.722,2.561c0.81,0.726,1.366,2.324,3.09,1.416c0.635-0.336,1.422-1.375,1.459-1.984
	C636.739,313.77,636.062,313.138,635.884,312.802 M568.348,314.958c-0.299-0.299-0.6-0.582-0.88-0.89
	c-0.787-0.865-1.765-0.778-2.735,0.192c-0.905,0.909-0.971,1.839-0.184,2.592c0.601,0.579,1.183,1.179,1.758,1.779
	c0.753,0.781,1.662,0.743,2.595-0.174c0.986-0.978,1.07-1.936,0.209-2.723C568.846,315.49,568.6,315.219,568.348,314.958
	 M617.248,266.546c-0.146-0.149-0.308-0.286-0.438-0.448c-0.774-0.937-1.739-1.53-3.049-0.271c-1.415,1.356-0.734,2.352,0.175,3.205
	c0.114,0.105,0.218,0.221,0.326,0.333c1.637,1.658,2.579,1.867,3.644,0.675C619.551,268.207,618.079,267.479,617.248,266.546
	 M572.405,310.852c0.108,0.111,0.224,0.215,0.326,0.336c0.803,0.927,1.708,1.748,3.151,0.354c1.438-1.382,0.688-2.34-0.211-3.18
	c-0.112-0.108-0.218-0.224-0.327-0.333c-1.637-1.658-2.598-1.869-3.634-0.676C570.118,309.187,571.549,309.93,572.405,310.852
	 M593.383,290.082c0.33,0.332,0.666,0.665,0.993,1.001c0.725,0.747,1.614,0.575,2.467-0.236c0.924-0.878,1.129-1.802,0.354-2.604
	c-0.326-0.339-0.653-0.675-0.983-1.008c-1.574-1.599-2.461-1.795-3.493-0.644C591.068,288.43,592.537,289.157,593.383,290.082
	 M611.452,336.004c0.33,0.336,0.666,0.67,0.996,1.009c0.716,0.74,1.556,0.638,2.458-0.208c0.971-0.906,1.142-1.796,0.407-2.614
	c-0.314-0.352-0.65-0.678-0.983-1.015c-1.553-1.57-2.517-1.754-3.534-0.56C609.315,334.353,610.572,335.127,611.452,336.004"/>
<polyline opacity="0.8" fill="#3F474F" stroke="#42C8F4" stroke-miterlimit="10" enable-background="new    " points="
	637.48,133.468 563.346,169.971 592.923,230.031 667.055,193.528 637.48,133.468 "/>
<polyline xmlns="http://www.w3.org/2000/svg" opacity="0.8" stroke="#42C8F4" stroke-miterlimit="10" enable-background="new    " points="630.922,140.932   657.139,194.172 606.049,219.329 579.831,166.088 630.922,140.932 " style="
    fill: rgb(216, 216, 216);
"/>
<polygon opacity="0.8" fill="#3F474F" stroke="#42C8F4" stroke-miterlimit="10" enable-background="new    " points="
	725.571,250.505 717.149,230.964 730.499,225.208 753.845,279.382 740.495,285.138 732.073,265.597 676.929,289.363 
	670.424,274.271 "/>
<g>
	<path opacity="0.8" fill="#3F474F" stroke="#42C8F4" stroke-miterlimit="10" enable-background="new    " d="M809.381,497.57
		l0.219-8.303l18.43-15.204l-5.289-6.372l3.942-23.604l-8.143-1.285L806,422.354l-6.771,4.146l-16.495-8.219l-3.699,7.426
		l-23.51,6.089l2.171,8.372l-13.237,19.273l6.844,4.703l2.713,23.741l8.257-0.942l17.615,16.134l5.612-6.126L809.381,497.57z
		 M768.421,473.292c-6.496-10.6-3.177-24.454,7.423-30.956c10.597-6.496,24.453-3.177,30.952,7.423
		c6.502,10.597,3.177,24.457-7.42,30.953S774.923,483.885,768.421,473.292"/>
	<polygon opacity="0.8" fill="#3F474F" stroke="#42C8F4" stroke-miterlimit="10" enable-background="new    " points="
		793.269,450.045 793.838,471.677 774.813,461.36 	"/>
</g>
<path opacity="0.8" fill="#3F474F" stroke="#42C8F4" stroke-miterlimit="10" enable-background="new    " d="M743.068,327.816
	c11.613-0.844,23.233-1.674,34.851-2.536c2.091-0.155,4.119-0.046,5.5,1.278c0.803,0.778,1.503,1.87,1.581,2.869
	c1.203,15.425,2.305,30.865,3.409,46.3c0.178,2.467-1.832,4.405-5.121,5.04c-0.376,0.068-0.769,0.099-1.157,0.13
	c-23.451,1.702-46.903,3.41-70.357,5.093c-4.393,0.317-6.913-1.512-7.171-5.08c-1.077-14.809-2.144-29.611-3.221-44.418
	c-0.279-3.848,1.783-5.779,6.603-6.135C719.676,329.506,731.37,328.666,743.068,327.816 M743.998,373.238l-2.532-34.95l-34.2,2.479
	l2.532,34.95L743.998,373.238z M782.797,370.426l-2.532-34.966l-34.272,2.483l2.529,34.968L782.797,370.426z M755.967,331.867
	c0.027,0.363,0.074,0.73,0.078,1.095c0.009,1.272,0.945,1.802,2.349,1.714c1.412-0.09,1.95-0.914,1.892-2.006
	c-0.019-0.365-0.065-0.729-0.081-1.096c-0.103-2.205-0.781-3.049-2.439-2.81C755.406,329.107,755.873,330.578,755.967,331.867
	 M739.873,378.365c0.053,0.69-0.118,1.275,0.165,1.603c0.479,0.547,1.281,1.341,1.879,1.288c0.769-0.065,1.621-0.781,2.144-1.379
	c0.299-0.339,0.034-1.011-0.003-1.53c-0.156-2.271-0.803-3.093-2.377-2.856C739.341,375.839,739.768,377.292,739.873,378.365
	 M765.745,331.235c0.006,0.103,0.019,0.205,0.024,0.313c0.087,1.733,0.815,2.521,2.256,2.43c1.478-0.096,2.047-0.908,1.923-2.73
	c-0.01-0.104-0.019-0.209-0.025-0.314c-0.161-2.256-0.784-3.03-2.323-2.902C766.087,328.158,765.552,329.092,765.745,331.235
	 M726.539,333.863c0.043,0.573-0.162,1.292,0.184,1.684c0.479,0.551,1.391,1.22,2.071,1.17c0.694-0.047,1.773-0.84,1.907-1.409
	c0.246-1.048,0.162-2.24-0.246-3.241c-0.217-0.539-1.428-1.154-2.124-1.086c-0.676,0.064-1.395,0.887-1.849,1.496
	C726.24,332.812,726.501,333.395,726.539,333.863 M714.604,380.282l0.016-0.004c-0.021-0.313-0.056-0.625-0.065-0.939
	c-0.031-1.142-0.793-1.785-2.153-1.717c-1.462,0.074-2.155,0.843-2.044,2.05c0.078,0.831,0.065,1.674,0.222,2.495
	c0.184,0.965,0.951,1.412,2.184,1.31c1.22-0.103,1.9-0.644,1.95-1.636C714.735,381.321,714.645,380.798,714.604,380.282
	 M753.836,377.681c-0.034-0.413-0.078-0.83-0.091-1.25c-0.031-1.167-0.868-1.733-2.206-1.646c-1.25,0.072-1.994,0.734-1.966,1.802
	c0.019,0.837,0.065,1.671,0.174,2.501c0.144,1.104,0.884,1.684,2.321,1.537c1.341-0.14,1.916-0.787,1.842-1.848
	C753.886,378.412,753.857,378.045,753.836,377.681 M779.061,375.699c0.031,0.364,0.056,0.728,0.081,1.095
	c0.084,1.186,0.784,1.842,2.33,1.696c1.475-0.141,1.944-0.912,1.866-2.001c-0.037-0.52-0.103-1.039-0.1-1.562
	c0.007-1.288-0.401-2.411-2.283-2.271c-1.882,0.134-2.134,1.307-1.926,2.573C779.055,375.385,779.051,375.544,779.061,375.699
	 M740.461,332.949c-0.162-2.212-0.716-2.899-2.268-2.784c-1.521,0.115-2.057,0.961-1.883,3.093c0.103,1.278-0.134,2.806,2.234,2.84
	C740.144,336.116,740.629,335.258,740.461,332.949 M724.373,379.777c-0.037-0.466,0.134-1.051-0.146-1.371
	c-0.517-0.592-1.22-1.351-1.979-1.447c-1.182-0.149-2.06,0.561-2.053,1.646c0.003,0.937,0.062,1.88,0.208,2.801
	c0.162,1.055,0.999,1.496,2.3,1.344c1.219-0.144,1.829-0.716,1.754-1.727C724.433,380.611,724.401,380.198,724.373,379.777
	 M769.311,376.477c0.027,0.361,0.065,0.722,0.074,1.089c0.025,1.052,0.629,1.665,1.973,1.652c1.415-0.013,2.137-0.632,2.156-1.773
	c0.006-0.417-0.041-0.834-0.068-1.244c-0.162-2.277-0.791-3.086-2.377-2.838C768.703,373.732,769.261,375.208,769.311,376.477
	 M763.785,377.432c-0.141-0.924-0.187-1.446-0.299-1.963c-0.271-1.257-1.755-1.944-2.909-1.136c-0.722,0.504-1.22,1.64-1.113,2.415
	c0.143,1.076-0.474,2.653,1.431,3.079c0.703,0.159,1.973-0.118,2.398-0.562C763.81,378.727,763.707,377.802,763.785,377.432
	 M711.036,335.201c-0.031-0.42-0.078-0.833-0.091-1.247c-0.034-1.17-0.837-1.739-2.199-1.63c-1.278,0.103-1.932,0.768-1.826,1.854
	c0.081,0.828,0.134,1.665,0.184,2.496c0.065,1.082,0.781,1.646,2.084,1.552c1.388-0.1,2.072-0.774,1.93-1.935
	C711.073,335.93,711.061,335.562,711.036,335.201 M779.664,330.158c-0.013-0.205-0.047-0.413-0.041-0.621
	c0.02-1.217-0.326-2.293-2.143-2.188c-1.957,0.111-2.088,1.31-1.951,2.548c0.019,0.155,0.025,0.312,0.034,0.467
	c0.168,2.327,0.75,3.095,2.33,2.881C780.333,332.918,779.688,331.412,779.664,330.158 M716.792,334.717
	c0.012,0.158,0.034,0.311,0.034,0.469c0.006,1.227,0.161,2.439,2.162,2.318c1.991-0.118,2.041-1.334,1.903-2.557
	c-0.019-0.156-0.021-0.312-0.034-0.467c-0.168-2.324-0.762-3.108-2.323-2.875C716.135,331.967,716.738,333.459,716.792,334.717
	 M746.232,332.555c0.034,0.467,0.068,0.936,0.1,1.406c0.064,1.039,0.852,1.483,2.028,1.424c1.269-0.068,2.028-0.637,1.96-1.748
	c-0.028-0.47-0.06-0.936-0.091-1.402c-0.161-2.237-0.709-2.963-2.239-2.76C745.545,329.795,746.191,331.301,746.232,332.555
	 M730.142,379.202c0.034,0.47,0.068,0.946,0.103,1.412c0.065,1.027,0.769,1.494,2.007,1.44c1.325-0.062,2.031-0.622,2.01-1.727
	c-0.013-0.467-0.057-0.939-0.091-1.409c-0.158-2.202-0.771-2.968-2.32-2.722C729.588,376.558,730.039,377.964,730.142,379.202"/>
<path opacity="0.8" fill="#3F474F" stroke="#42C8F4" stroke-miterlimit="10" enable-background="new    " d="M711.805,440.756
	L631.73,420.35l-16.526,64.879l80.071,20.4L711.805,440.756z M632.132,485.618l14.653-57.509l55.188,14.064l-14.653,57.503
	L632.132,485.618z"/>
</svg>
