<svg version="1.1"
	 id="Flag_of_Western_Abenaki" inkscape:version="0.44" sodipodi:docbase="C:\flags" sodipodi:docname="Flag_of_Western_Abenaki.svg" sodipodi:version="0.32" xmlns:cc="http://web.resource.org/cc/" xmlns:dc="http://purl.org/dc/elements/1.1/" xmlns:inkscape="http://www.inkscape.org/namespaces/inkscape" xmlns:rdf="http://www.w3.org/1999/02/22-rdf-syntax-ns#" xmlns:sodipodi="http://sodipodi.sourceforge.net/DTD/sodipodi-0.dtd" xmlns:svg="http://www.w3.org/2000/svg" xmlns="http://www.w3.org/2000/svg" xmlns:xlink="http://www.w3.org/1999/xlink" x="0px" y="0px" viewBox="0 0 750 500"
	 style="enable-background:new 0 0 750 500;" xml:space="preserve">
<style type="text/css">
	.st0{fill:#31735A;}
	.st1{fill:#6B4A39;stroke:#FFFFFF;stroke-width:8.233;}
	.st2{fill:#9C3142;stroke:#FFFFFF;stroke-width:4.933;}
	.st3{fill:#18296B;stroke:#FFFFFF;stroke-width:5.8342;stroke-linejoin:round;}
	.st4{fill:#18296B;stroke:#FFFFFF;stroke-width:5.137;stroke-linejoin:round;}
	.st5{fill:#31735A;stroke:#FFFFFF;stroke-width:6.025;}
	.st6{fill:#FFFFFF;}
</style>
<sodipodi:namedview  bordercolor="#666666" borderopacity="1.0" gridtolerance="10000" guidetolerance="10" height="500px" id="base" inkscape:current-layer="layer1" inkscape:cx="362.07826" inkscape:cy="250" inkscape:document-units="px" inkscape:guide-bbox="true" inkscape:pageopacity="0.0" inkscape:pageshadow="2" inkscape:window-height="579" inkscape:window-width="847" inkscape:window-x="448" inkscape:window-y="109" inkscape:zoom="0.754" objecttolerance="10" pagecolor="#ffffff" showguides="true" width="750px">
</sodipodi:namedview>
<g id="layer1" inkscape:groupmode="layer" inkscape:label="Layer 1">
	<rect id="rect2760" class="st0" width="750" height="500"/>
	<g id="g3080" transform="matrix(1.070077,0,0,1.070077,-24.49896,-19.07784)">
		<path id="rect1872" sodipodi:nodetypes="czzzzzszzzszzzzzz" class="st1" d="M247.2,112.65c30.41-32.95,38.96,0.43,68.76-1.64 c29.8-2.07,30.89-16.31,60.69-16.31s29.8,13.15,59.59,15.22c29.8,2.07,25.56-27.96,58.44-0.79c33.52,27.71,3.15,41.91,3.15,68.32 c0,27.74,13.19,42.9,14.52,74.95c1.33,32.05-14.99,42.15-13.85,71.69c1.2,30.86,32.34,41.69-2.88,71.75 c-35.99,30.72-25.08-5.63-61.01-4.53c-35.98,1.1-38.11,14.69-57.97,14.69s-39.73-16.52-59.59-16.52 c-44.69,0-35.93,31.36-66.81,4.54c-30.23-26.26,1.22-46.17,1.22-72.59c0-27.74-14.91-31.24-15.78-68.75 c-0.87-36.41,13.82-39.93,13.15-71.39C248.16,148.76,217.45,144.9,247.2,112.65z"/>
		<path id="path2762" sodipodi:nodetypes="ccccccccccccccccccccc" class="st2" d="M480.43,207.55v-13.63l-65.43-6.86l52.71-24.54 l-7.27-14.54l-52.71,20.9l19.08-42.71L410.46,118l-23.63,42.71l-7.27-44.53h-16.36l-7.27,43.62l-25.44-36.35l-14.54,9.09 l19.08,34.53l-50.89-19.99l-5.45,14.54l48.16,24.54l-59.07,11.4l0.91,10H480.43z"/>
		<path id="path2766" sodipodi:nodetypes="ccccccccccccc" class="st3" d="M258.62,227.08c12.63,10.62,28.43,12.59,40.27,0 c11.98,10.15,24.76,10.07,35.95-1.43c13.74,13.38,25.49,12.2,38.83,0c13.9,14.95,28.2,11.8,41.71,0 c13.74,12.59,28.66,12.99,38.83,0c10.09,15.35,24.93,11.8,37.39,0c-12.28,20.44-22.98,24.34-36.85,19.99 c-12.21,11.46-25.6,7.97-37.81,0.15c-14.43,10.93-29.46,9.52-42.94,0.64c-12.88,10.44-27.34,11.45-41,0.64 c-11.3,12.59-27.37,9.84-36.29,0C282.82,254.17,265.76,244.36,258.62,227.08z"/>
		<path id="path2768" sodipodi:nodetypes="ccccccccccc" class="st4" d="M277.28,268.53c14.66,8.83,31,12.14,42.98,0 c12.4,10.51,28.16,8.89,39.22-0.24c12.85,9.79,29.05,10.31,38.55,0.24c13.61,11.03,23.19,9.49,34.79,0 c10.26,11.47,25.23,10.14,36.84-1.35c-8.96,17.54-24.31,21.84-36.97,19.51c-11.16,8.09-24.33,8.46-34.49,0.44 c-12.83,9.41-29.01,9.12-40.5-0.22c-12.48,10.3-27.65,8.24-37.44,0.44C304.58,291.24,281.87,281.21,277.28,268.53z"/>
		<path id="path2770" sodipodi:nodetypes="ccczczccccccccccccccczczccczc" class="st5" d="M284.95,352.26h13.92v-7.53 c0,0-10.08-8.35-9.93-16.76c0.15-8.41,13.84-20.17,13.84-20.17s13.88,11.53,13.89,19.86c0.01,8.33-8.72,17.06-8.72,17.06v7.24 h40.86v-5.61h-11.5l17.89-32.63l7.7,13.33l11.26-19.5l11.12,19.26l8.12-14.06l17.71,33.42h-12.95v5.49h44.08v-6.55 c0,0-9.33-7.99-9.2-17.07c0.13-9.09,13.03-19.28,13.03-19.28s15.23,10.66,14.97,19.37c-0.26,9.01-9.6,17.27-9.6,17.27v6.25 l17.55-0.11c0,0-45.4,33.83-91.41,34.01S284.95,352.26,284.95,352.26z"/>
		<rect id="rect2774" x="358.46" y="342.96" class="st6" width="11.57" height="11.98"/>
		<rect id="rect2776" x="376.82" y="343.01" class="st6" width="11.61" height="12.1"/>
	</g>
</g>
</svg>