<svg version="1.1" id="vermontInsignia" xmlns="http://www.w3.org/2000/svg"  x="0px"
	 y="0px" viewBox="0 0 634.7 629" style="enable-background:new 0 0 634.7 629;" xml:space="preserve">
<g>
	<path d="M202.1,503.6c-2.9-0.3-5.8-0.6-9.1-0.9c3-4,1.7-8.4-2.7-10.3c-3.9-1.6-8-2.7-12.8-4.2c1.6,10.5,8.5,17.3,15,25.3
		c-4,0.4-7.4,0.8-11.9,1.3c1.3-2.2,2.1-3.5,3-5c-1.2-0.9-2.2-1.6-2.2-1.6c-1.2-15.2-13.5-21.2-21.8-30c-0.9-0.9-2.6-1-3.9-1.5
		c-2.3,7.8,2.4,15.5,9.5,18.3c3.4,1.4,6,4.9,9,7.4c-0.2,0.6-0.4,1.2-0.6,1.7c-3-0.6-6-1.1-8.9-1.8c-1.6-0.4-3.2-1.6-4.6-1.3
		c-1.5,0.3-3.2,1.8-3.7,3.2c-0.3,1,0.9,3.5,2,3.9c3.7,1.4,7.5,2.2,11.3,3.2c-1.2,4.7-4.1,5.3-8.8,3.8c-6.1-1.9-12.5-3.1-18.9-4.3
		c-6.2-1.1-12.4-1.9-19.5-2.9c1.5-0.5,2.3-1,3.1-0.9c6.9,0.8,13.9,1.2,20.7,2.6c4,0.8,5.7-0.5,6.5-3.9c0.9-3.9-1.8-4.4-4.7-4.6
		c-0.5,0-0.9-0.2-2.7-0.7c3.1-2.2,5.5-3.9,8.4-5.9c-3.8-1.3-6.9-3-10.2-3.2c-1.4-0.1-3.4,2.7-4.4,4.5c-0.6,1,0.2,2.7,0.4,4.2
		c-0.6,0.1-1.1,0.2-1.7,0.3c-0.3-3.1-0.6-6.1-0.9-9.8c-3.2,0.5-6.1,0.9-9,1.3c1.3-1,3.3-1.8,3.7-3.1c0.5-1.4-0.3-3.4-0.9-5
		c-0.1-0.2-2.1-0.2-2.8,0.3c-1.5,1.2-2.9,2.7-4.1,4.2c-1.3,1.6-2.6,3.2-3.9,4.8c0.2,0.2,0.5,0.5,0.7,0.7c2.4-0.7,4.8-1.3,7.3-2
		c-7,6.6-14.9,9.2-24.2,6.9c3.2-0.7,6.4-1.4,9.6-2c2.7-0.5,4.9-1.4,4.8-4.7c-0.1-3.9-3.2-3.3-5.5-3.5c-2.8-0.2-5.6,0.3-8.3,0
		c-2.2-0.2-4.4-1.2-6.6-1.9c-4-1.4-8-2.8-13-4.6c1.6-1.7,2.6-3.7,4.1-4c1.1-0.3,2.6,1.7,4.1,2.4c3.4,1.5,6.8,3.3,10.5,4
		c4.3,0.9,8.9,1,13.3,0.9c1.9,0,4.2-1.1,5.3-2.5c0.5-0.7-0.8-3.5-2-4.8c-3.9-4.5-9.4-4.5-15.1-5.3c0.1-1.2,0.9-3.1,0.3-4.4
		c-0.9-2.1-2.3-4.4-4.2-5.6c-2.2-1.5-4.5-1.2-4.9,2.3c-0.1,0.7-1.3,1.7-2,1.8c-9.7,1.3-19.6,3.1-27.5-5.2c-2.5-2.6-3-5.3-0.2-7.5
		c3.1-2.5,1.6-3.6-0.7-5.1c-2.9-1.9-5.7-3.8-8.7-5.9c1.9-2.5,3.4-4.4,4.2-5.5c5.2,0.8,9.8,1.2,14.2,2.3
		c10.4,2.7,16.4,11.6,24.2,17.9c2.7,2.2,4.6,4.8,8.7,5c2,0.1,3.9,2,6.3,2.6c-0.9-4.8-5.7-6.1-8.3-9.4c-2.7-3.5-5.2-7.2-8.4-11.7
		c7.7,7.2,14.5,13.5,21.3,19.9c0.5-0.4,0.9-0.9,1.4-1.3c0-6-5.6-8.7-8.9-13.8c1.9,0.5,3.1,0.9,4.7,1.3c1.1-5.4-3-7.8-5.6-11
		c-1.3-1.6-2.6-3.2-3.4-5.1c-1.6-3.8-4.6-5.1-8.2-6.8c-8.6-4.1-19-2.3-26.6-8.8c-4.6-4-9-8.3-13.7-12.5c1.1-9.9,1.1-9.9,4.6-12.3
		c0.2,0.5,0.5,1,0.4,1.4c-1.3,6.7-1.4,6.8,5.5,7.3c3.4,0.3,6.9-0.1,10.3,0.2c1,0.1,2.7,1.8,2.6,2.2c-1.8,5.3,3.2,6.9,5.7,8.8
		c3.2,2.5,7.8,3.2,11.6,4.9c1.3,0.6,3.6,2.2,3.4,2.7c-1.8,5,2.1,6.8,4.9,9.2c1.7,1.4,3.5,2.8,5.2,4.3c0.6-0.3,1.2-0.6,1.8-0.8
		c-1.8-6.7-3.6-13.5-5.5-20.7c-6.3,3.5-6.8-1.7-8.3-6.1c-1.3,1.8-2.1,2.9-3.1,4.3c-1-0.3-2.4-0.2-3-0.9c-0.9-1.1-2.2-3.1-1.8-4
		c1.4-3.3,0-5.3-2-7.6c-1.9-2.1-3.4-4.5-4.9-6.9c-4.4-7.1-11.9-9.3-19.2-11.6c-0.8-0.2-2.6,2.4-3.8,3.8c-1,1.2-1.7,2.5-2.5,3.8
		c-0.7-1.3-1.5-2.5-2-3.9c-0.4-1.2-0.5-2.7-0.3-3.9c0.8-4.7-1.2-7.8-4.8-10.7c-1.5-1.2-2.7-4.9-1.9-6.2c1.3-2.1,4.2-4.1,6.7-4.5
		c2.3-0.4,5,1.2,9.3,2.3c-1.5-2.3-2.1-3.8-3.2-4.6c-8-5.7-9.7-14.4-10.3-23.2c-0.2-2.2,3-5.5,5.4-6.8c3.6-2,4.7-3.2,1.4-6.4
		c-1.4-1.4-2.5-3.7-2.7-5.6c-0.7-7-1.1-13.9-1.2-20.9c-0.1-5.6,3.7-8.7,10.2-9.8c3.8-9.8,7.3-18.9,11.2-29c1.7,1.9,2.7,2.6,3.1,3.5
		c9.1,17.9,10.8,36.4,6.5,56.1c-2.1,9.7-3.3,20.5,3.4,29.7c0.8,1.1,2.2,1.7,3.3,2.5c0.8-1.5,2.1-2.9,2.4-4.5c0.2-0.9-1.3-2.1-2-3.2
		c-0.8-1.1-2.1-2.2-2.2-3.4c-0.5-5.9,0-12-1.3-17.6c-1.6-7.2,1.6-12.6,5-18.1c0.4-0.6,3.2-0.6,4.1,0.1c4.2,3.1,6.9,7.1,7.1,12.6
		c0.1,2,0.7,4,1.1,6c1.1-0.2,1.5-0.2,1.8-0.3c2.8-1,5.7-2.1,8.5-3.1c0.2,3.2,1.1,6.6,0.3,9.5c-1.4,4.9-4,9.4-6.1,14.1
		c-0.7-0.3-1.5-0.6-2.2-0.9c0.6-1.7,1.3-3.3,1.9-5c1.1-2.9,2.6-5.7,3.2-8.8c0.3-1.4-1.2-3.2-1.8-4.8c-1.4,0.7-3.4,1.1-4.1,2.2
		c-2.3,3.6-4.9,7.2-6.2,11.2c-6,18.2-8.5,37-6.9,56c0.6,6.9,4.7,13.5,7.6,21.2c4.4-4.8,5.2-8.6,3.5-13.1c-1.6-4-3.2-8.1-4.3-12.2
		c-0.6-2.6-0.2-5.4-0.2-9.3c2.3,6,4,10.8,6,15.4c0.5,1.1,2.7,2.7,3.2,2.4c1.4-0.8,2.6-2.3,3.4-3.8c0.6-1.2,0.5-2.8,0.7-4.8
		c2,0.9,3.3,1.6,5.3,2.5c1.8-5.9,4.9-11.2,1.9-17.5c5.1-5.6-4.4-12,0.9-17.6c0.2-0.2,0.5-0.4,1.7-1.1c3,11.9,2.1,23.4-0.9,33.8
		c-5,5.4-10.1,10.1-14.2,15.6c-2.8,3.7-0.9,7.9,3.7,10.2c-4.1,4.8-2.4,8.9,1.4,13c1.2,1.3,2.1,4.4,1.4,5.8c-2.8,5.7-1.1,11,0.4,16.5
		c1,3.5,2,6.9,3,10.4c0.5-0.1,1-0.1,1.5-0.2c-0.1-5-0.1-10-0.2-15c0.6,0,1.3,0,1.9,0c0.3,4.3,0.5,8.7,0.9,13s-0.6,9.2,4.9,12
		c0.3-1,0.8-2,0.6-2.4c-3.7-5.3-2-11.2-2.1-16.8c-0.2-7.3-1.8-14.1-6.4-20c-0.7-1-0.7-2.5-1-3.7c1.4,0.3,3.5,0.1,4.1,1
		c2.6,3.9,5.1,3.8,7.4,0.5c-0.7,3.3-1.8,6.7-2.2,10.2c-0.1,1.3,1.2,2.8,1.8,4.2c1-1.1,2.1-2.2,3.1-3.4c0.4-0.4,0.5-1.1,1.3-2.7
		c-0.2,10.1-5.1,18.2-5.1,27.1c0.8,0.2,1.5,0.5,2.3,0.7c2.2-5,5.6-9.9,6.4-15.1c2.1-14.6,3-29.3,4.4-44c0.2-1.8,0.5-3.6,0.8-5.4
		c0.5,0,1.1,0,1.6,0c0.2,1.4,0.6,2.8,0.6,4.2c0.1,14.3-0.5,28.7,0.6,42.9c0.5,6,4.5,11.8,7,17.7c1.2,2.8,2.1,5.9,4,8.2
		c10.7,13,25.7,17.9,41.6,20.2c14.1,2,28.4,2.4,42.6,4.2c6.5,0.8,13,2.7,19.3,4.8c9.8,3.2,19.6,6.5,29,10.6
		c5.7,2.5,10.6,6.9,16.1,10.2c1.5,0.9,4.3,1.4,5.6,0.6c7.2-4.3,13.7-10.4,21.4-13.3c5-1.9,8.3-7.1,15.2-6.4
		c3.7,0.4,8.8-1.9,13.5-2.3c15.8-1.1,31.7-2.8,47.5-3.5c16.3-0.7,31.5-5.2,45.3-13.5c16.7-10.1,24.7-28.9,21.4-48
		c-1.3-7.8-7.4-12.3-15.5-11.9c-4.5,0.2-8.9,1.1-13.5-1.6c-2.7-1.6-7.1-0.4-10.8,0c-7.6,0.7-12.7,0-17.4-3c4-3.1,7.5-4.2,12.7-2.1
		c3,1.3,7.2-0.3,10.9-0.5c2.9-0.1,5.9-0.1,8.8-0.1c0.1,0.5,0.3,1,0.4,1.6c0.9-1.4,1.5-2.9,2.6-4c1.6-1.6,3.5-2.8,5.4-4.1
		c1-0.7,2.5-1,3.3-1.8c3.3-3.6,6.1-3.2,8,1.1c0.5,1.2,1.2,2.2,1.8,3.4c0.6,0.1,1.1,0.2,1.7,0.3c0.7-2.2,2-4.4,2-6.6
		c-0.2-10.5-1-20.9-1.1-31.4c0-9.2,0.9-18.3,1-27.5c0-2.3-0.7-6-2.2-6.7c-2.9-1.4-5.1,1.1-6.4,3.9c-0.3,0.7-1,1.3-1.8,2.2
		c-2.6-2.2-5.1-4.4-7.9-6.7c0.7-1,1.9-2.2,2.2-3.5c0.3-1.4,0.1-3.5-0.8-4.4c-2-2-10.5-0.8-12.3,1.7c-2.2,3-4.8,3.7-8.3,3.2
		c-5.2-0.7-10-0.9-14.5,3.7c-1.9,1.9-6.9,1-10.5,1c-3.2,0.1-6.6-1.2-7.6,3.9c-0.4,2-9.4,1.7-13.6-0.6c1.5-0.7,2.6-1.2,3.7-1.7
		c8.2-3.4,16.6-6.5,24.7-10.2c4.4-2,8.3-4.5,12.3,0.5c0.4,0.5,3.6-0.2,3.8-0.9c1.7-5.2,3.2-4,5.1-0.1c0.4,0.7,1.4,1.1,2.6,1.9
		c1.3-6.1,5.6-4.5,9.5-4.6c2.2,0,4.4-0.7,6.5-1c-0.1-0.6-0.1-1.7-0.4-1.8c-2.3-0.6-4.6-1.1-6.9-1.3c-1.7-0.1-3.4,0.3-5.4-0.3
		c1.8-1.1,3.7-2.2,5.6-3.4c-3.3-5.2-7.9-6-13.4-5.5c-3.4,0.3-7,0-10.3-1c-1.9-0.6-4.8-3.1-4.7-4.5c0.5-4.8-3.1-5.9-5.9-6.7
		c-3-0.8-6.7-0.7-9.6,0.4c-7.3,2.8-14.4,6-21.3,9.7c-3.4,1.8-5.9,5.2-8.8,7.8c-1.9,1.7-4,3.4-5.3,4.5c-2.5-1.6-4.3-2.7-6.1-3.8
		c0,1.9,0.1,3.7,0.1,6.2c-0.9,0.2-2.4,0.5-3.2,0.6c-3.1-3.7-5.2-8.3-8.6-9.6c-3.1-1.3-7.6,1-11.5,1.7c0-2.3-0.1-4.7-0.1-7.3
		c0.5,0.2,1.5,0.6,2.5,0.9c3.6,1.2,6.8,1,10.8-0.3c9.2-3.1,19-4.4,28.5-6.8c6.4-1.6,12.6-3.9,18.8-6c3.4-1.2,6.7-3,10.2-3.9
		c1.5-0.4,3.5,0.4,5.1,1.2c11.1,5.6,22.2,11.2,33.1,17.3c4.2,2.3,7.7,5.7,11.6,8.5c2.2,1.5,4.4,3,6.7,4.3c1.2,0.6,3.5,1.4,3.9,1
		c0.9-1.1,1.5-3,1.3-4.5c-1.4-9.8-3.3-19.5-4.5-29.3c-0.7-5.7-0.2-11.6-0.4-17.4c-0.3-9.7-0.8-19.4-1-29.1c0-1.3,0.4-3.1,1.3-3.8
		c12.7-9.8,25.5-19.5,38.2-29.2c3-2.3,6.2-4.4,9.2-6.6c0.7-0.5,1.1-1.5,1.6-2.2c-0.9-0.6-1.9-1.8-2.7-1.6
		c-5.8,1.2-11.9-1.1-17.4,3.5c-4.3,3.6-9.9,3-14.8-0.3c-0.7-0.4-1.5-0.8-2.2-0.9c-13.2-0.9-26.4-2.2-39.7-2.6
		c-17.8-0.5-35.6-0.1-53.4-0.6c-10.6-0.3-21.3-2.7-31.8-2.1c-15.1,0.8-30-1.1-45-1.2c-9.1,0-18.1,1.3-27.2,1.7
		c-6.9,0.3-13.9,0.2-20.9,0.3c-9.9,0-19.9-0.1-29.8,0c-15.8,0.2-31.6,0.5-47.3,0.8c-13.3,0.3-26.5,0.7-39.8,0.9
		c-7.1,0.1-14.3-0.3-21.4-0.2c-3.3,0.1-6.5,1.1-9.7,1.3c-2.4,0.2-4.9-0.2-7.2-0.6c-1.5-0.2-2.8-1.3-4.2-1.4c-1.8,0-3.7,0.7-5.5,1.1
		c0.8,1.5,1.2,3.4,2.3,4.5c8.9,8.4,18,16.5,26.7,25.1c4.8,4.8,10,9.7,13,15.6c2.4,4.7,2.3,11,2.3,16.5c-0.1,14.9-0.8,29.8-1.1,44.7
		c-0.2,10.1-0.2,20.3-0.3,30.4c-0.1,5.4,0.9,6.4,6.2,6.4c2.3,0,4.7,0.1,6.8,0.7c0.9,0.3,2.1,2.3,1.9,3.2c-0.3,1.2-1.7,2.8-2.9,3.1
		c-2.4,0.6-5.1,0-7.4,0.8c-1.4,0.4-2.2,2.5-3.2,3.8c1.5,0.4,3.4,1.5,4.6,1c4.5-2,8.8-3.3,13.7-1.3c1.7,0.7,4.1-0.4,7-0.8
		c0.8,1,2.2,2.7,4.3,5.4c0.3-2.7,0.5-4.2,0.8-6.5c0.9,1,1.6,1.4,1.6,1.8c0.4,7,5.3,11,12,9.4c1.6-0.4,2.7-2.8,4.3-4.6
		c1.3,1.8,5,2.7,4.4,7.3c-0.2,1.5,1.9,4.3,3.5,4.9c1.8,0.7,4.2-0.4,6.4-0.8c-0.9-1.7-1.7-3.4-2.7-5c-0.4-0.6-1.3-0.8-3-1.7
		c3.5,0,5.7-0.1,8-0.1c3.6,7.9,3.6,7.9,8.6,6.4c-0.9-2.8-1.5-5.7-2.7-8.2c-1-2.1-2.8-3.9-4.5-6.3c0.8-0.2,2-0.6,3.1-0.8
		c2.3-0.4,5.1,0.2,6.1-3.2c0.2-0.7,1.9-0.9,3-1.3c0.5-0.1,1,0,1.5-0.1c3.6-0.1,7.3-0.1,11,0.5c-1.5,0.7-3.1,1.4-4.6,2.1
		c0,0.5-0.1,0.9-0.1,1.4c3.7,0.6,7.6,2.2,11,1.5c6.5-1.4,10.6,1.5,14.5,5.7c1.9,2.1,4.1,3.8,6.9,6.4c-5.3,1.1-10.5,2.2-16.5,3.5
		c0.1-2,0.2-3.8,0.3-5.5c0.3-0.3,0.3-0.5,0.5-0.6c1.6-0.9,3.2-1.8,4.8-2.7c-2.7-0.3-5.4-0.7-8-0.8c-5.6-0.3-11.2-0.7-16.8-0.6
		c-4.6,0.1-6.2,2.5-4.9,6.4c0.4,1.1,1.5,2.4,2.4,2.6c1,0.2,2.8-0.8,3.1-1.6c1.4-4.1,5.2-4.1,7.9-3.4c1.8,0.4,3.1,3.7,4.1,5.9
		c0.3,0.8-0.6,2.6-1.4,3.3c-0.8,0.6-2.3,0.6-3.5,0.6c-5.7-0.2-11.3-0.7-17-0.8c-0.8,0-1.5,1.1-2.3,1.6c-2.3,1.6-4.5,3.5-7,4.7
		c-5.2,2.5-8.4,1.1-10-3.4c-3.3-1.1-6.2-2-9-3.1c-3.9-1.5-6.6,0.6-9.4,2.9c-1.5,1.2-4.3,2.9-5.3,2.3c-1.8-1.1-3.6-3.6-3.9-5.7
		c-0.5-3.4-1.2-5.3-5.1-5c-1.2,0.1-2.6-1.3-3.8-2c-1.1-0.6-2.2-1.7-3.4-1.9c-2.6-0.5-5.5,0-7.8-0.9c-2.1-0.8-3.7-2.9-6.8-5.4
		c-0.2,10.4-0.3,19.4-0.5,28.5c-0.7,0-1.3,0.1-2,0.1c-0.3-1.1-0.9-2.2-0.9-3.4c-0.4-9.8-0.7-19.6-1.1-29.4
		c-0.4-8.9-0.9-17.8-1.2-26.7c-0.4-11.2-0.7-22.4-1.1-33.6c-0.2-5.9-1-11.8-0.9-17.6c0.1-6.1,0.7-12.2,1.2-18.4
		c0.5-5.8-1.4-9.8-6.4-13.5c-8.5-6.3-15.9-14.1-24.4-20.5c-10-7.7-20.4-14.7-30.8-21.8c-2-1.4-5-1.5-7.6-1.8c-3.3-0.4-6.7-0.9-7-4.9
		c-0.4-4.4,3.3-5.7,6.6-5.8c6.6-0.3,13.4-0.7,19.9,0.3c26.2,4,52.6,4.9,79.1,5.3c10,0.1,19.9-0.9,29.9-1.1
		c7.1-0.1,14.2,0.4,21.4,0.3c2.9,0,5.9-0.9,8.8-0.9c4.4,0,8.8,0.3,13.1,0.9c3.7,0.6,4.5-0.9,5-4.2c0.6-4.9,1.8-9.7,3.1-14.4
		c0.7-2.7,9.7-5.7,13.9-5c6.7,1.2,6.6,1.2,6.8-6c0-1.2,0.5-2.8,1.3-3.6c4.6-4.6,8.7-10.2,14.2-13c4.8-2.5,9.6-4.9,13.7-8.4
		c1.3-1.1,2.4-2.5,3.6-3.8c-1.3-1.1-2.5-2.2-3.8-3.2c-5.8-4.5-12.7-2.6-19.2-3c-0.5,0-0.9,0.3-1.4,0.5c-2.4,1.1-5.2,3.7-7.2,3.2
		c-6.3-1.5-13.4-2.1-17.7-8.1c-4.2-6-4.7-13-3.9-19.9c0.1-1.3,2.4-2.8,4-3.3c9.6-3.2,19.3-6.1,29-9.1c0.8-0.2,1.6-0.3,2.5-0.4
		c7.2-0.8,9.3-6.2,6.3-12.9c-2.2-4.8-3.5-10.4-3.8-15.7c-0.3-6.5,4.8-9.6,11.6-8.5c2,0.3,4.3-0.4,6.4-0.7c-0.6-2.4-0.3-5.6-1.8-7.1
		c-6.8-6.8-9.6-15-9.7-24.3c0-1.5,1.2-4.4,1.8-4.4c2,0.1,4.7,0.6,5.9,2c2.6,3,4.4,6.6,6.6,10c3.4,5.4,5.5,5.7,10.5,1.8
		c9.7-7.7,23.6-9.4,33.2-3.4c-2.2,0.7-3.8,1.4-5.4,1.6c-8.4,0.9-15.7,4-21.5,10.2c-3,3.1-4.4,6.8-3.8,12.1c1.8-0.8,2.9-1.7,4.3-2
		c2.4-0.6,4.8-1.1,7.2-1.1c1,0,2.6,1.1,2.9,2s-0.6,2.5-1.4,3.2c-1.9,1.6-4.2,2.8-6.1,4.3c-4.6,3.5-5.1,9.8-1.2,14.1
		c2.4,2.7,4.6,5.7,7.4,8c3.5,2.9,7.4,5.3,11.1,7.8c0.4,0.3,1,0.3,1.4,0.3c4.3,0.4,13-10.6,12.6-14.9c-0.8-7.7-0.9-15.5-1.2-23.3
		c0-1.4,0.7-2.8,1.2-4.5c8,2.6,8.7,10.6,13.3,17c5.5-13.7,0.6-25.7-1.3-37.9c6.8-2.3,11.8,0,13.4,9.2c1.7,9.3,0.7,19.1,0.9,28.6
		c0,0.8-0.4,1.6-0.8,2.4c-3,6.2-3,6.2,2.8,9.1c-2.1,1.8-4.5,1.7-8.2-1c-0.8-0.6-1.4-2.9-0.9-3.6c5.8-8.5,3.9-18.3,4.3-27.6
		c0.2-3.4-0.4-6.9-1.1-10.3c-0.2-1.1-2-1.8-3-2.7c-0.4,1.3-1.3,2.5-1.2,3.8c0.5,6.3,1.2,12.5,1.9,18.8c0.7,6.6-3.5,16.8-8.5,19.3
		c-1.6-3.4-3.1-6.9-4.9-10.1c-0.7-1.2-2.4-1.7-3.6-2.6c-0.5,1.6-1.1,3.1-1.5,4.7c-0.1,0.3,0.2,0.6,0.3,0.9c2,6.4,8.8,12.5-0.3,19.5
		c0.6,0.3,1.3,0.7,1.9,1c1.7-0.7,3.7-1.1,5-2.3c4.4-4,9.2-4.1,14.3-2.1c3.5,1.4,12.5-0.2,14.7-3.1c0.6-0.8,0.3-2.4,0.4-3.6
		c-1,0-2.1-0.2-3.1-0.1c-0.7,0.1-1.3,0.5-2,0.8c-0.2-0.4-0.3-0.8-0.5-1.1c4.5-2.3,8.9-4.6,13.4-6.9c0.5,0.5,1.1,0.9,1.6,1.4
		c-2.1,3.8-4.2,7.5-6.3,11.2c-0.1,0.1-0.3,0.2-0.4,0.4c-5.7,10.6-14.1,5-22,3.9c-2.6-0.4-5.3,0.2-7.9,0.8c-0.8,0.2-2,1.9-1.8,2.6
		c0.3,1.1,1.5,2.2,2.6,2.6c6.2,2.5,12.6,4.6,18.8,7.2c1,0.4,2.1,2.7,1.8,3.6c-1.6,5.4-10.9,11.8-16.7,11.8c-3.6,0-7.3-0.3-10.9-0.6
		c-3.4-0.3-5.4,0.9-4.3,4.5c2.9,9.5,1.5,19.1,0.2,28.6c-0.6,4.7-2.7,9.2-4.2,13.8c-0.3,1.1-0.6,2.3-1.2,3.3
		c-5.2,9.5,1,14.7,7.4,19.7c2.8,2.1,4.3,4.5,3.9,8c-0.4,3,0.6,4.4,4.2,4.4c15.4,0.1,30.8,0.7,46.3,0.9c11.4,0.1,22.8-0.3,34.2-0.2
		c8.3,0,16.6,0.9,24.8,0.6c12.2-0.5,24.4-2,36.6-2.6c7.3-0.3,14.6,0.3,21.8,0.5c3.4,0.1,6.9-0.1,10.8-0.1c0.3,3.7-0.6,8-5.5,10.4
		c-13.7,6.9-24.5,17.6-35.7,27.7c-2.5,2.3-5.7,4-8.8,5.2c-6.4,2.5-7,4.5-6.5,11.2c0.6,8.6-0.3,17.2-0.4,25.9c0,3.4,0.5,6.9,0.3,10.3
		c-0.6,8.1-1.7,16.1-2.3,24.2c-0.5,8.3-0.5,16.6-1,24.9c-0.2,4.3-1.2,8.5-1.4,12.8c-0.8,19.7-1.6,39.5-2.2,59.2
		c-0.2,7.4,0.2,14.8,0.3,23.9c5.3-8.8,8.1-1.4,12.6,0.4c0.6-1.1,1.3-2.4,1.7-3.1c1,9.8,1.9,19.7,2.9,29.6c0.6,0,1.1,0,1.7,0
		c0.4-1.8,0.9-3.5,1.5-6c2.8,4,1.9,6.9,0.1,10.1c-0.8,1.4-0.6,3.4-0.8,5.1c0.8,0.1,2,0.5,2.2,0.2c1-1.4,1.8-2.9,2.4-4.5
		c5-12.1,0.2-23.8-1.4-35.7c-0.3-2.2-2.2-4.2-3.7-7c0.3-0.2,1.5-1,2.6-1.7c0.8,1.3,2,2.6,2.4,4c2,8.4,3.8,16.8,5.8,25.2
		c0.2,1,1.1,1.9,1.8,3.1c1.6-1.1,2.9-2,4.4-3.1c0.5,1.6,0.9,2.9,1.5,4.7c2.8-2.4,6.9-3.4,4.3-8.2c-0.3-0.5,0.1-1.3,0.1-2
		c0.6-7.9-0.7-15.2-6-21.5c-4.8-5.8-7.2-12.7-6.5-20.3c0.4-4.4,1.1-8.9,3.5-12.6c0.5,0.1,0.9,0.1,1.4,0.2c0.1,8.4,0.2,16.9,0.4,25.9
		c3-1,4.7-1.6,6.9-2.4c-0.8-5.4-1.6-10.8-2.4-16.3c0.3-0.1,0.5-0.2,0.8-0.3c0.9,1.5,2,2.9,2.6,4.5c2.8,7.1,2.7,7.1,8.9,2.6
		c-4.9,7.5-7.2,15.6-6.1,24.7c1.3-3,2.6-6,3.8-9c0.3,0,0.6,0.1,0.8,0.1c-0.3,3.2-0.7,6.4-1,9.5c0.5,0.2,1,0.4,1.4,0.6
		c1-1.6,2.7-3.2,3-4.9c1.3-8.5,2.6-17.1,3.2-25.6c0.2-2.1-1.7-4.8-3.4-6.5c-7.5-7.7-15.4-15.2-22.9-22.9c-2.6-2.7-5.1-5.6-6.9-8.8
		c-1.2-2.1-1.8-5-1.7-7.5c0.2-4.6,3.3-6.1,7.3-3.6c3.8,2.4,7.3,5.1,11.1,7.9c3-2.4,3-5.7,2.3-9.2c-0.2-1.1,0.1-2.3,0.2-3.5
		c1.3,0.2,2.9,0,3.7,0.7c2.6,2.5,5.1,5.2,7.3,8.1c2.4,3.1,4.5,6.6,6.7,9.9c4.9-4.9,7.1-15.9,4.5-21.7c-0.4-0.8-1.2-1.9-1.9-2.1
		c-6.3-1.6-9-7-11.1-11.8c-4.5-10.3-5.7-21.8-4.7-32.7c0.8-7.7,5-15,8.1-22.4c0.5-1.2,3.1-2,4.7-2c3.3,0,6.7,0.3,9.8,1.4
		s5.9,3.1,8.7,4.9c2.4,1.5,4.5,3.6,7.1,4.8c4.7,2.2,6.8,6.8,5.7,14.6c-1.1,7.7-2.2,15.4-3.6,23c-0.8,4.2-2.2,8.3-3.8,12.3
		c-2.2,5.3-5.3,10.3-7.2,15.7c-1.3,3.6-1.2,7.7-1.3,12.2c3.3-9.2,11.3-7.5,19.5-9.2c0.1,10.5,0.6,20.6,0.2,30.7
		c-0.1,2.1-2.9,4.7-5,6.1c-7.1,4.5-14.5,8.5-21.7,12.7c-1,0.6-1.9,1.5-2.4,2.5c-3,6.6-5.8,13.3-8.9,19.9c-1.7,3.8-3.8,7.3-5.5,11.1
		c-0.7,1.4-0.9,3-1.3,4.5c1.7,0.2,3.4,0.7,5.1,0.6c1.6,0,3.5-0.1,4.8-1c2-1.3,4.1-3,5.2-5c1.1-2.1,1-4.8,1.3-7.3
		c1.1-7.6,8.7-15.9,16.1-17.4c0.8-0.2,2.5,0.3,2.5,0.5c0,1.9-0.2,3.9-0.4,6.1c4.2,2,7.9-1.2,11.6-3c3.1-1.5,5.4-1.4,6.4,1.8
		c0.9,2.8,5.2,5.8,0.1,9c-2.3,1.5-4.6,3.3-6.3,5.4c-0.6,0.7,0.2,3,1,4.2c1.3,2,4.6,4.2,4.2,5.3c-0.9,2.5-3.2,5.2-5.6,6.3
		c-8.5,3.9-16.9,6-26.2,0.8c-3.2-1.7-8.4,0.2-12.7,0.6c-0.9,0.1-1.7,1-2.6,1.4c-7.1,4-7.1,4-7.8,10.8c-6-2.9-10.7,0.5-15.2,3.7
		c-2.8,2-2.2,3.7,1.2,4.7c6.4,1.9,15.8-2.3,19.4-10.1c0.9,2.2,2.1,3.7,1.8,4.6c-0.9,2.6-0.1,3.5,2.4,4.2c2.5,0.6,4.8,1.9,7.2,3.5
		c-9.4,3-17.2,10.7-28.2,7.8c6.9-1.3,14.1-1.8,20-6.5c-4.4-4.7-6.6-4.6-10.9-0.7c-1.4,1.2-3.8,1.3-5.8,1.6c-3.7,0.7-8.9-1.7-9.5,5
		c0,0.5-1.9,0.9-3,1.3c-4.6,2-10.8,0.7-13,8c-0.6,2-6.4,3.5-9.8,3.5c-5.2,0-4.9,2.5-4.3,7.3c8.6-1.1,16.8-2.1,25.3-3.2
		c-2.5,3.2-9.4,3.9-6.6,11.2c-0.5-0.2-1.1-0.5-1.6-0.7c-0.3-1.4-0.6-2.8-1-4.8c-12.2,2.1-24.7,2-35.1,9.8c-0.9,0.7-1.9,2.6-1.6,3.1
		c0.9,1.4,2.4,2.8,3.9,3.3c2.5,0.9,5.3,1.1,8,1.6c0.1,0.5,0.2,1,0.4,1.5c-7.6,5-15.2,10.1-23,15.3c-12.7-6.7-25.5-4.6-36.8,6.2
		c-2.7,2.6-1.4,4.7,0,7.1c1.6,2.6,3.3,5.3,7.1,3.9c3.7-1.4,7.3-2.9,10.4-4.2c0.1,6.5,0.2,13,0.3,19.4c0.1,5.1-0.1,10.2,0.2,15.3
		c0.2,2.7,1.1,5.3,1.7,8c2.5-0.8,5.5-1,7.6-2.4c8.8-6.5,17-13.8,26-19.9c12.7-8.7,25.7-16.9,38.8-25.1c14.1-8.8,29.2-15.3,46-15.7
		c7.1-0.2,14.5,1.6,21.2,4c8.7,3.2,17.1,7.8,19.1,18.8c2.1-1,3.4-1.8,4.7-2.2c1.7-0.5,2.7-1.7,5.1,0.6c3,2.9,6-0.7,8.8-3.8
		c-1.7-0.6-2.7-0.9-3.6-1.3c1.3-4.5,8.7-3.8,8.8-11.4c-7.7,4.3-14.4,8-21,11.7c-0.2-0.4-0.5-0.8-0.7-1.1c3.4-2.1,6.7-4.4,10.3-6.2
		c4.2-2.2,7.6-6,7.4-9.4c-4,2.7-7.7,5.2-11.5,7.7c-0.4-0.4-0.8-0.7-1.1-1.1c1.1-1.2,2.1-2.6,3.4-3.5c6.1-4.2,5.9-10.3,0.1-14.8
		c-4.9-3.8-8.8-8.8-13.7-12.7c-7.8-6.1-15.6-12.1-26.6-10.8c-7.2,0.9-14.6,0.5-21.8,1.2c-4.1,0.4-8,1.8-12.1,2.3
		c6.8-3.4,14.1-5.2,21.7-5.9c3.9-0.4,7.6-2.2,11.4-3.3c1.6-0.4,3.6-1.1,5-0.6c11.1,4.4,22.3,8.6,33.1,13.8c4,1.9,7,6,10.3,9.3
		c2.4,2.3,4.4,5.1,7,7.1c7.4,5.6,7.6,13.6,8.6,21.8c1.3,10.1-2.2,15.6-11.7,19.1c-7.4,2.7-14.1,7.3-21,11.2c-8.1,4.7-15.8,4-23.4-1
		c-3-2-6-4.1-8.9-6.2c-0.4,0.3-0.9,0.5-1.3,0.8c2.4,4.3,4.8,8.5,7.2,12.8c0.7,1.2,1.2,2.5,1.8,3.8c-1.5,0.4-3.2,1.4-4.6,1.1
		c-6.7-1.8-13.3-3.9-19.9-6c-4.1-1.3-7.7-2.9-10.9-6.1c-5.1-5.1-5-10.8,1.1-15c3.1-2.1,5.9-4.6,9.5-6.3c-0.5,0.9-1.1,1.7-1.9,2.9
		c5.4,1.5,10.4,3,15.5,4.3c3.4,0.8,5.2-0.7,6-4.1c0.5-2,1.9-3.8,3.1-5.4c0.9-1.1,2.6-1.6,3.5-2.7c0.6-0.8,0.7-2.1,0.7-3.2
		c0-0.3-1.1-1-1.6-0.9c-3.7,1-6.8-6.2-11.1-0.6c-2.1,2.8-5.5,4.5-8.4,6.7c-0.3-0.4-0.6-0.7-0.9-1.1c3.3-2.8,6.6-5.5,10.7-8.9
		c-7.5-3.6-14.1-2.2-19.9-0.1c-9.1,3.4-17.4,8.7-26.5,12.3c-5.7,2.2-10.1,5.4-13.8,10c-0.6,0.7-1.6,1.3-2.5,1.6
		c-15.1,4.8-25.5,16.4-37.8,25.4c-9.7,7.1-20.1,14.3-31.3,18.3c-10.3,3.6-22.2,3.8-33.2,0.2c-6-2-11.6-11-11.7-17.2
		c0-1.4-1.2-3.8-2.4-4.2c-3.4-1.1-7-2.1-10.5-1.8c-3.7,0.3-7.2,2.3-8.4-3.5c-0.1-0.7-3.4-1.6-4.6-1c-7.5,3.3-15,6.8-22.3,10.6
		c-5.4,2.8-4.6,5.6,2.4,10.3c-1.9,8-1.6,8.2,6.5,11.7c2.8,1.2,5,3.7,7.8,5.2c1.1,0.6,2.9-0.2,4.3-0.3c-0.3-1.5-0.2-3.6-1.1-4.4
		c-2.3-2-5.2-3.5-7.8-5.2c-1.2-0.7-2.3-1.4-3.1-3.1c1.2,0.3,2.4,0.5,3.5,1c5.5,2.5,11.1,4.9,16.4,7.8c1.8,1,3,3,4.3,4.8
		c2.8,4,5.5,8.1,8.2,12.1c-5.5,3-14.5,1.7-19.9-2.2c-7.9-5.8-16.1-11-24.2-16.5c-4.1-2.8-8-5.9-12.2-8.4c-1.4-0.8-3.9-0.9-5.4-0.3
		c-8.5,3.6-17,7.3-25.3,11.4c-4.7,2.3-9,5.6-13.6,8.2c-3.6,2-7.3,4-11.2,5.2c-2.4,0.7-5.3-0.1-8.5-1.2c8.7-5.1,6.5-18.3,18.4-22
		c0,3.2,0.1,5.7,0.1,8.2c0,2.4,0.7,4.2,3.6,2.9c8.1-3.6,16.5-6.9,24.3-11.1c10.3-5.5,20.3-11.7,30.3-17.8c2.7-1.7,5-4,7.3-6.3
		c0.5-0.5,0.7-1.9,0.4-2.6c-0.3-0.6-1.6-1.1-2.3-1c-1.8,0.3-3.5,1-5.2,1.6c0.1-0.5,0.2-1,0.3-1.5c-3.2-1.2-6.4-2.4-9-3.3
		c4.7-1.6,21.5-0.6,39.5,3.6c13.1,3.1,26,7.2,39.3,11c0.1-0.6,0.2-1.9,0.4-3.8c3.5,2.5,6.6,4.6,9.6,6.8c0.4-0.2,0.9-0.4,1.3-0.5
		c-0.6-2.4-1.3-4.9-1.7-6.5c1.3,0.6,3.5,1.5,5.6,2.5c-0.1-2-0.2-3.9-0.3-5.6c3.7,1,5.3-0.6,3-4c-1-1.5-2.2-2.9-2.8-4.9
		c1.7,1,3.4,2,5.2,3.1c2.9-2.8,1.3-5.1-0.5-7c-3.4-3.7-6.7-7.4-10.5-10.8c-1.9-1.7-4.6-2.5-7-3.8c-3.5-1.9-6.9-4.3-10.6-5.8
		c-3.3-1.3-7-1.7-10.5-2.2c-3.6-0.5-7.3-0.5-10.8-1.1c-1.5-0.2-2.8-1.4-3.9-2.6c10-3.6,18.8,7.2,27.8,1.6c0.6,1.9,0.7,4.2,1.8,5.5
		c2,2.2,4.3,1.7,7.1,0c5.4-3.5,11.3-6.2,16.9-9.4c1.5-0.8,3-1.9,4.6-2.9c-1.9-1.4-3.6-2.2-4.6-3.6c-1.7-2.5-3.4-2.1-5.5-0.7
		c-4.2,2.7-8.4,5.4-12.7,8c-0.9,0.5-1.9,0.8-3.3,0.5c4.3-2.9,8.7-5.8,13-8.7c1.2-0.8,2.8-1.6,3.3-2.7c2.6-6.1,5-12.3,7.4-18.5
		c1.3-3.4-0.9-3.7-3.4-3.5c-6.8,0.7-13.5,2-20.3,2.1c-16.3,0.4-32.4,2.5-48.3,6.2c-4.6,1.1-8.8,3.6-13.1,5.7
		c-5.3,2.6-10.5,5.4-15.7,8.3c-2.7,1.6-4.8,4.3-7.7,5.3c-2.8,1-6.1,0.5-9.2,0.6c-3.8,0.1-7.5,0.1-12.3,0.2c1.4-1,2-1.6,2.7-1.8
		c3.9-1.3,3.5-3.5,0.7-5.2c-5.4-3.3-10.8-7.2-16.7-9.1c-13.6-4.2-27.5-7.8-41.5-10.8c-4.9-1.1-10.3,0.3-15.5,0.5c-0.5,0-1,0-1.4-0.2
		c-5.7-1.5-7.4-0.2-6.1,5.7c0.9,4.2,2.1,9,8.2,8.8c0.6,0,1.2,1,1.8,1.6c2.8,2.8,5.7,5.6,8.4,8.5c2.1,2.3,3.6,5.1,5.9,7.1
		c1.3,1.2,3.7,1.3,5.5,1.8c-0.4-1.7-0.3-3.8-1.2-5.2c-3.5-5.1-7.4-9.9-10.4-15.5c5.6,8.2,12.6,14.8,20,20.4
		c-11.9,3.3-24.8,6.9-37.7,10.5c-2.2-2.6-1.3-4.3,1.8-5.4c3.4-1.3,7-2.3,10.1-4.2c1.4-0.9,3-4.4,2.4-5.3c-1.1-1.7-3.9-3.3-5.7-3.1
		c-2.8,0.3-5.3,2.5-8.1,3.5c-1.2,0.4-2.8,0-4.5-0.1c1-3.6,6.8-4.4,2.4-8.5c1.2,0.1,2.5,0.2,3.8,0.3c0.2-0.6,0.6-1.3,0.4-1.5
		c-2-2.5-3.8-5.4-6.3-7.4c-3.5-2.8-7.5-4.9-11.2-7.3c3.7,1.3,7.5,2.6,11.4,4c-0.9-8.8-10.2-14.9-20.2-12.5
		C198.7,498.5,200.4,501.1,202.1,503.6z M577.8,541.4c0.1-1.4,0.2-2.8,0.2-4.1c-0.4-0.3-0.9-0.5-1.3-0.8c-1.4,1.3-2.8,2.6-4.2,3.9
		c0.3,0.5,0.5,0.9,0.8,1.4C574.8,541.6,576.3,541.5,577.8,541.4c-2.6,1.9-5.4,3.9-8,6c-1.4,1.2-2.5,2.9-3.7,4.3
		c0.5,0.5,1.1,1,1.6,1.5c5.1-3.9,10.1-7.8,15.2-11.6c-0.4-0.6-0.7-1.2-1.1-1.8C580.5,540.3,579.1,540.9,577.8,541.4z M320.7,130.9
		c-6.3,5.7-11.6,11.1-17.5,15.7c-4.5,3.5-10,5.7-14.7,8.9c-2.3,1.6-4.2,4.1-5.8,6.6c-0.3,0.5,1.4,3.4,2.4,3.5
		c5.9,0.8,11.9,2,17.7,1.3c5-0.6,9.7-2.2,15-1.7c3.8,0.4,7.8-1.5,11.7-1.9c1.7-0.2,3.6,1,5.4,1.5c1.2,0.3,2.8,1,3.5,0.6
		c0.7-0.5,0.9-2.3,0.8-3.4c0-0.8-0.9-1.6-1.1-1.9c1.5-1.6,3.3-2.7,3.9-4.2c2.2-6.1,4.1-12.4,6.2-18.6c0.4-1.3,1.3-2.5,1.9-3.8
		c1.1,0.8,2.2,1.5,3.3,2.3c0.4,0.3,0.9,0.6,1.4,0.9c0.4-0.3,0.7-0.5,1.1-0.8c-1-1.9-1.6-4.3-3.1-5.6c-3-2.7-3.7-5.3-2.2-9.1
		c1.3-3.1,1.4-6.6,2.4-9.8c0.6-1.9,1.9-3.7,3.1-6.1c2.1,0.2,4.9,0.5,7.7,0.6c4.8,0.2,9.6,0.5,14.4,0.2c1.6-0.1,3-1.9,4.5-2.9
		c-1.3-1.2-2.5-2.6-3.9-3.6c-1.3-0.9-3.1-1.1-4.4-2.1c-5.8-4.6-11.3-4.8-17.7-0.5c-3.6,2.4-8.3,5.5-13.4,1.8
		c-3.6-2.6-7.1-5.5-11.1-7.5c-2.8-1.4-6.2-1.5-9.4-1.9c-1.8-0.2-3.7,0.7-5.4,0.5c-7-0.9-12.3,3.1-17,6.9s-9.3,7-15.2,7.6
		c-7.2,0.7-14.1,2.2-20.4,5.9c-3.3,1.9-3.9,4.1-1.4,7c6.2-3.8,17.5-4.9,19.7-1.9c-6.3,2.7-12.6,5.5-19,8.2c1.2,1.9,2.2,2.8,2.9,2.6
		c7-2.1,14,1,21.2-0.6C299.5,123.1,309.8,128.2,320.7,130.9z M448.6,509.9c-0.7-0.5-1.4-0.9-2.1-1.4c0.5-2,1.1-4.1,1.6-6.1
		c0.7-2.7,1.8-5.3,1.9-8c0-1-2.2-2.9-3.5-2.9c-5.9,0-16.7,9.7-17.8,15.5c-0.1,0.3,0.5,0.7,0.8,1.2c1.3-0.6,2.5-1.1,3.5-1.6
		c1.2,1,2.2,2,3.4,2.9c1.3,1,2.7,1.8,4.1,2.7c-1.3,1.5-2.6,3.2-4.1,4.5c-0.7,0.6-2.1,0.2-2.8,0.8c-0.9,0.7-1.4,2-2.1,3
		c1.2,0.6,2.3,1.6,3.6,1.8c0.9,0.1,2-0.7,2.2-0.8c2,1.8,3.4,4,5,4.2c9,1.3,17.8,0.8,25.6-4.7c0.9-0.7,1.7-2.1,1.8-3.2
		c0-0.6-1.4-1.5-2.4-2c-3.9-2-7.4-1.8-11.2,0.9c-2.5,1.7-5.7,2.4-8.5,3.5c-0.2-0.5-0.4-0.9-0.6-1.4c4.1-2.6,8.7-4.7,12.3-7.8
		c3.5-3.1,6.1-7.3,9.7-11.7c-0.7-0.8-2-2.3-3.3-3.8c5.5-5.3,6.2-11.9,5.8-19.5c-6.6,4.2-12.5,8-18.4,11.9c-0.7,0.5-1,1.7-1.2,2.6
		c-1.3,8.2,0.8,10.2,8.8,8.5c0.4-0.1,0.8,0.1,1.3,0.2C455.9,500.6,450.1,502.3,448.6,509.9z M319.5,61.7c2-5.9,2.9-12.4,6.2-17.4
		c3.2-4.9,8.9-8.2,13.4-12.3c-4.2,0.4-8.6,1.2-11.9,3.6c-3.4,2.5-5.7,6.5-9.2,10.7c-3.6-5.2-7-10.2-10.7-15.1
		c-1.1-1.5-3-2.4-4.5-3.5c-0.2,2.1-1.3,4.5-0.5,6.1c2.7,5.5,6.1,10.6,9.2,16c1,1.8,2.5,3.9,2.4,5.8c-0.3,5.1-1.3,10.1-2.1,15.1
		c-0.5,0.2-0.9,0.5-1.4,0.7c-2.4-2.3-4.6-4.8-7.2-6.9c-1.1-0.9-3.3-1.7-4.3-1.1c-1,0.6-2,3.1-1.5,4.1c2.1,4.4,4.6,8.7,7.3,12.8
		c1,1.5,2.9,3.5,4.4,3.5c4.6,0,9.1-0.7,13.7-1.4c1.4-0.2,3.5-1.2,3.8-2.2c0.3-1.2-0.7-3.2-1.8-4.1c-2.9-2.4-3.1-5.1-1.3-7.9
		c1.8-2.9,4.2-5.4,6.4-8c1.1-1.3,2.3-2.4,4.2-4.5C327.1,55,324.5,59.9,319.5,61.7z M478,491.7c9.7-7.4,11.5-17.7,12.4-28.9
		c1.2,3.7,1.1,7.2,1.3,10.7c0.1,1,0.7,2.1,1.4,3c0.2,0.2,1.9-0.1,2.1-0.5c1.7-3.8,4.9-7.3,2.1-12c-4.2-7.1-8.3-14.3-13-22.6
		c-1.1,6.8-2.1,13-3.1,19.3c-0.4,2.7-0.1,5.9-1.4,8C475.3,475.9,473.9,483,478,491.7z M139.7,466.5c0.5-0.5,1.1-1,1.6-1.4
		c3.6,3.4,7.3,6.9,12.1,11.4c0.7-3.2,2.1-5.7,1.4-7.5c-2.1-5.9-4.7-11.6-7.5-17.3c-0.5-1.1-3.8-2-3.9-1.9c-2.7,4.5-6.6,8.9-7.2,13.7
		c-1,7.8,3.4,14.5,9.1,19.9c1.4,1.3,3.8,1.6,5.7,2.4c-0.4-2.2-0.7-4.3-1.2-6.4c-0.2-0.7-1.2-1.1-1.7-1.7
		C145.3,474,142.5,470.2,139.7,466.5z M322,186.2c0.3-0.1,0.7-0.2,1-0.4c0.1-1.5,0.1-3,0.2-4.1c3.6,0.6,6.8,1.1,11.4,1.8
		c-1.1-4.1-1-9.7-3.5-11.2c-5.8-3.6-12.3-7.5-20-4.8c-2.7,1-5.8,1.1-5.2,5.1c0.6,3.9,4.4,6.7,7.9,6.7c1.8,0,3.8,1.2,5.3,2.4
		C320.5,182.9,321.1,184.7,322,186.2z M558.7,322.3c1.3-4.6,2.6-9.2,3.9-13.7c0.3,0.1,0.6,0.1,0.9,0.2c-1.8,8.9-3.5,17.9-5.3,26.8
		c0.5,0.1,0.9,0.1,1.4,0.2c8-12.4,10.9-25.8,8.8-40.6C559.9,297.9,552.6,316,558.7,322.3z M74.7,451.2c-1.8,1.9-4.6,3.6-4.5,4.9
		c0.2,1.8,2.5,3.6,4.2,5c4.2,3.5,9.3,4.5,14.7,4.5c4.6,0,5.4-1.3,4.3-5.5c-1-3.9-3.2-5.5-7.1-5.5c-3.8,0-6.5-1-7.1-5.7
		c-0.6-4.4-5.6-7.1-10.5-6.3C70.9,445.7,72.9,448.6,74.7,451.2z M282.6,196.2c8.4,2.1,16.3,3.1,24.4-0.5c1.1-0.5,3.3-0.9,3.8-0.3
		c3.5,3.9,8,2.5,12.2,2.4c1.5,0,2.9-1.6,4.4-2.4c-1.3-1-2.4-2.4-3.9-3c-5-1.9-11.6,0.9-13.8-4.2c-4.2,1-7.2,2.1-10.3,2.4
		c-3.1,0.3-6.3-0.4-9.4-0.5C286.1,190.1,283.7,191.9,282.6,196.2z M85.6,368.8c0.1-0.2,0.5-0.5,0.5-0.7
		c-1.7-12.5-6.6-23.5-16.5-31.7c-0.9-0.7-3.3-0.9-4-0.2c-1.1,0.9-2,3-1.7,4.3c2,10.6,9.7,17.7,16.2,25.5c0.3-6.2-7.3-8.6-7.1-14.6
		c0.6-0.3,1.3-0.7,1.9-1C78.3,356.5,81.9,362.6,85.6,368.8z M299,176.7c1.4,1.8,2.2,3.1,3.3,4c1.1,1,2.4,1.7,3.6,2.5
		c0.1-1.5,0.4-3.1,0.1-4.5c-0.9-4.6-5-5.5-8.5-7.4c-4.5-2.5-13.3-2.7-17.2,0.4c-2.1,1.6-3.5,3.8-1.2,5.7c2.4,1.9,3.7,7.3,8.5,4.1
		c3.1-2,5.9-3.6,9.3-0.3C297.6,179.8,298.1,178.7,299,176.7z M357.9,189.1c2-2.3,5.5-4.4,1.8-6.6c-6-3.7-12.5-6.9-19.9-6.9
		c-1.2,0-3.5,1.9-3.4,2.5c0.6,3.3,1.1,7.1,3.1,9.6c1.7,2.1,5.4,2.5,8.2,3.7c0.1,0,0.3-0.1,0.4-0.2c2.1-1.7,4.2-3.3,6.4-5.1
		C355.3,186.8,356.4,187.7,357.9,189.1z M544.4,389.1c0.9-1.5,1.2-1.9,1.3-2.3c1.2-9.8-2.2-18.7-6.2-27.3c-0.9-2-3-3.5-4.9-4.8
		c-0.5-0.4-3.2,0.9-3.2,1.3c0.2,6.5,0,13.1,4.2,19c1.2-1.1,2-1.7,2.7-2.4C540.3,378,542.2,383.1,544.4,389.1z M550,326.5
		c0.9,0,1.8,0,2.7,0c0.2-2,0.8-4.1,0.5-6c-0.9-4.9-2.7-9.7-3.2-14.6c-0.4-5.3-3.2-8.3-7.4-10.7c-3.8,9.9-3.2,22,2,27.6
		c-0.1-4.4-0.1-8-0.2-11.7c0.2,0,0.4,0,0.6,0.1C546.7,316.2,548.3,321.3,550,326.5z M99.3,316.8c0.3,0,0.7,0.1,1,0.1
		c0,3.3,0.2,6.6,0.1,9.9c-0.1,3.1-0.7,6.3-1,9.4c6.7-6.6,7.3-17.4,2.1-26.9c-0.9-1.7-2.7-2.8-4.2-4.2c-1,1.8-3,3.7-2.9,5.4
		c0.4,6.6,1.5,13.1,2.4,19.7c0.7,0,1.3,0,2,0C99,325.8,99.2,321.3,99.3,316.8z M555.7,435.1c0.5,2.1,0.5,3.9,1.3,5.2
		c0.7,1.3,2.1,2.8,3.4,2.9c6.3,0.6,12.6,0.3,18.4-2.8c1.3-0.7,2.9-2.2,2.9-3.3c0-1.2-2-3.4-2.9-3.3c-3.4,0.4-6.8,1.3-10,2.5
		c-0.5,0.2,0,2.9,0,5.3c-2.6-1-5.5-2.2-9.6-3.8c3.6-2.8,6.2-4.8,2.7-8.1C559.7,431.7,557.7,433.4,555.7,435.1z M262.6,193.7
		c4.3-0.6,7.8-3.1,9.9-8c0.6-1.5,0.9-4.6,0.2-5.1c-1.7-1.1-4.4-1.8-6.3-1.2c-2.2,0.6-4.3,2.5-5.9,4.3s-3.8,4.3-3.6,6.2
		C257,191.4,260.5,192.4,262.6,193.7z M94.4,347.5c-1.3,3.6-1.7,6.9-3.4,9.3c-6.8,9.9,1.1,18.9,1.2,28.3c0,0.1,0.5,0.3,1.8,0.9
		c0.3-3.2,0.9-6.1,0.7-8.9c-0.2-3.1-1.3-6.1-2-9.1c-0.5-2.5-1-4.9-1.5-7.4c0.4-0.1,0.8-0.2,1.3-0.3c0.3,2,0.6,4,1,6.4
		C97.5,362.7,98.3,351.9,94.4,347.5z M84.8,382.9c0.5-0.1,1.1-0.2,1.6-0.3c-1-2.7-1.3-6.1-3.2-7.8c-3.5-3.3-7.8-6-12.1-8.3
		c-1.7-0.9-4.2-0.4-6.3-0.5c0.8,2.1,1,5.1,2.5,6.2C72.9,376,79,379.3,84.8,382.9z M489.7,431c-4,8.1,2.5,25.7,11.4,28.9
		c-1.1-2.2-2-3.6-2.5-5.1c-0.8-2.2-2.2-4.7-1.7-6.8C498.4,441,496.4,435.3,489.7,431z M81.2,327.2c0.8-0.4,1.5-0.7,2.3-1.1
		c-1.8-5.1-3.4-10.2-5.5-15.2c-1.2-2.8-2.9-5.6-5-7.8c-0.8-0.8-3.1-0.2-4.8-0.2c0.1,1.5-0.2,3.3,0.4,4.5c1.7,3.4,3.8,6.6,5.9,9.9
		C76.6,320.7,78.9,323.9,81.2,327.2z M81.1,279.4c-0.5,0.1-1.1,0.1-1.6,0.2c1.1,10,2.1,19.9,3.2,29.9
		C89.1,298.8,86.7,289,81.1,279.4z M525.3,373.7c0.6-11.8-0.6-14.7-6.9-16.8c-1.3-0.4-3.7-0.2-4.3,0.6c-0.7,0.8-0.3,3.1,0.5,4.3
		c1.9,3.1,4,6,6.3,8.8C521.8,371.8,523.4,372.4,525.3,373.7z M86.7,418.1c-1.7-5.3-9.2-11.8-14.3-11.9c-3-0.1-5.1,1.9-3.1,4.2
		c2.6,3,6.2,5.3,9.8,7.1C81.1,418.4,84,417.9,86.7,418.1z M570.8,421.3c1.2,2.7,2.1,4.8,2.9,6.7c6.8-2,8.5-4.4,7.8-11.7
		C577.8,418,574.4,419.6,570.8,421.3z M565.4,385.3c5,0,10.7-4.7,10.8-8.7c0.1-2.6-1.4-4-3.7-2.5
		C568.5,376.6,566.6,380.6,565.4,385.3z M554.4,377.6c3.1-7.2,2.7-8.6-4-12.9c-1,2.7-3.2,5.8-2.5,7.9
		C548.5,374.7,552.1,376,554.4,377.6z M558.5,426.6c5.1-1.6,5.2-6.2,6.2-10.2c0.1-0.4-2.7-2.2-3.5-1.9
		C557.4,416.1,556.1,422.5,558.5,426.6z M123.5,471.1c1.6,3.1,8.5,5.8,10.2,3.7c1.2-1.5,0.6-4.4,0.9-7.4
		C130,469,126.9,470,123.5,471.1z M431.7,563.5c-0.4-0.1-0.8-0.1-1.2-0.2c-0.2,1.8-0.4,3.7-0.6,5.5c-0.4,5.7-1,11.4-1.1,17.1
		c0,1.3,1.3,2.7,2,4c0.4-0.2,0.8-0.5,1.3-0.7C432,580.7,431.9,572.1,431.7,563.5z M266.3,611.2c0.9,0.5,1.9,0.9,2.8,1.4
		c1.9-3.1,3.9-6.2,5.5-9.5c0.4-0.8-0.5-2.4-1.1-3.5c-0.2-0.3-1.9-0.2-2.1,0.1C269.6,603.5,268,607.4,266.3,611.2z M427.4,574.9
		c-0.5-0.1-1-0.1-1.5-0.2c-3.8,6.1-3.8,13.6,0.9,15.2C427,584.8,427.2,579.9,427.4,574.9z M602.1,547.8c-6.3,0.7-8.2,2.9-7.3,7.3
		c0.2,0.9,1.1,2,1.9,2.4c0.5,0.2,2-0.7,2.3-1.4C600.1,553.6,600.9,551,602.1,547.8z M559.7,378.6c6.7-1.3,9.1-5.4,6.6-11.3
		C564.1,371.1,561.9,374.8,559.7,378.6z M71,326.3c-1.6,3.5,5.5,13.2,10.1,14.2C77.7,335.8,74.3,331,71,326.3z M92.3,392.3
		c-1,4.5,0.8,7.6,5.5,9.6C99,396.2,97.4,393.3,92.3,392.3z M551.9,300.5c0.6-0.1,1.2-0.2,1.7-0.4c-0.8-4-1.6-8-2.4-12
		c-0.7,0.2-1.5,0.3-2.2,0.5C549.4,292.8,547.4,297.3,551.9,300.5z M552,281.8c1,4.1,2,8.2,3.2,13.2
		C558.1,290.6,556.7,283.9,552,281.8z M85.4,345.7c0.3,3.3,0.7,6.5,1.2,11C91.1,351.9,90.9,349.4,85.4,345.7z M333.9,199.3
		c1.6-1.5,2.7-2.5,3.7-3.5c-1.3-1.3-2.5-3.2-4.1-3.6c-1-0.2-2.6,1.8-3.9,2.9C330.9,196.3,332.2,197.6,333.9,199.3z M471.6,334.1
		c0,0.4,0.1,0.9,0.1,1.3c2,0,4.2,0.4,6-0.3c0.9-0.3,1-2.7,1.4-4.1c-1.3,0-2.8-0.3-3.8,0.2C474,331.8,472.8,333.1,471.6,334.1z
		 M567.4,364.9c0.8,0,1.7-0.1,2.5-0.1c0.1-2,0.2-3.9,0.3-5.9c-1.1,0.1-2.3,0.1-3.4,0.2C567,361.1,567.2,363,567.4,364.9z
		 M417.8,591.3c0.8,0.1,1.5,0.1,2.3,0.2c0.1-2.8,0.2-5.5,0.3-8.3c-0.7,0-1.4-0.1-2.2-0.1C418.1,585.9,418,588.6,417.8,591.3z"/>
	<path d="M237.6,578.7c-1.2,1.5-2.3,2.8-4,5c-4.4-5.8-8.7-11.4-13.4-17.6c-1.1,2.5-2,4.3-2.8,6.1c6.6,2.2,6.4,5.2-0.6,12.8l-0.1-6
		c-7.5,0.3-1.6-5.5-3.6-7.5c-4.7,7.5-5.5,7.6-11.1,0.5c-0.3-0.4-0.7-0.7-1-1.1c-11.1-10.5-24.6-17.6-38.8-21.8
		c-14.9-4.4-30.9-5.4-46.5-7.7c-4-0.6-8.3-0.3-12.4,0.1c-5.2,0.5-10.2,1.8-15.4,2.2c-1.1,0.1-3.3-1.7-3.6-3c-1-5.4-1.6-11-2-16.5
		c-0.3-3.2-0.3-6.4-4.4-6.6c-3-0.1-6.2,0.2-9.1,1c-1.1,0.3-2.2,2.8-2.1,4.3c0.3,6.4,1.1,12.8,1.6,19.2c0.1,0.9-0.1,2.6-0.4,2.7
		c-3.4,0.6-7.1,2-10.2,1.2c-1.6-0.4-2.1-2.1-2.2-4c-0.7-1.4-1.8-2.6-2.6-3.9c-0.5-1-0.4-2.1,0.6-2.8c0.9-0.6,2.3-0.4,2.8,0.6
		c0,0.1,0.1,0.2,0.1,0.2c0.5-1.6,1-3.2,1.5-4.8c-0.9,0.2-1.9,0.3-2.8,0.6c-0.4,0.1-0.8,0.1-1.1,0c-0.2,0.1-0.4,0.1-0.7,0.1
		c-2.6,0-2.8-4-0.2-4c0.2,0,0.5,0,0.7,0.1c0,0,0,0,0.1,0c1.8-0.5,3.7-0.7,5.5-1c0.5-1.3,1-2.6,1.7-3.9c0.1-0.2-0.5-0.8-0.8-1.4
		c-2.5,0.3-4.9,1-7.3,0.9c-1.4-0.1-2.7-1.5-4-2.3c0.8-1.1,1.5-2.8,2.6-3.2c6.3-2.1,12.6-3.9,19-5.6c6.1-1.6,12.3-2.8,18.5-4.2
		c-0.8-0.9-1.8-1.4-2.7-1.3c-7.1,0.7-14.4,0.7-21.2,2.6c-8.4,2.3-16.3,6.2-24.5,9.4c-4.5,1.8-9.2,3.2-13.5,5.4
		c-3.1,1.6-6.1,3.9-8.4,6.5c-1.1,1.2-0.4,4.1-0.2,6.2c0.4,4.8,0.5,9.2-1.5,14c-2,4.5-2,10-2.5,15c-0.1,1.4,0.9,3.2,2,4.3
		c5.6,5.7,12.4,7.4,20.4,6.3c10.7-1.5,21.4-2.3,32.2-3.4c4.3-0.4,7.7,1.1,10.6,4.4c4.6,5.1,8.9,10.4,15.5,13.7s11.3,4.3,17.7-0.1
		c3.4-2.3,6.7-2.5,10.7-2.6c5.6-0.1,10.7,0.2,15.3,3.6c0.7,0.5,2.1,0.1,4.2,0.2c-1-2.2-1.5-3.9-2.4-5.3c-3.8-6.3-9.6-9.9-16.4-12.3
		c-1.3-0.5-3.3-2.4-3.1-3.2c0.3-1.4,1.9-3.1,3.3-3.6c3.9-1.5,7.3-4.8,12.1-3.1c0.7,0.2,1.9-0.9,3.1-1.5c-1.8-4-4.6-6-8.6-6.1
		c-7.9-0.1-15.6-0.9-22.8-4.4c-1.9-0.9-3.6-2.2-5.5-3.3c1.8-1.2,3.6-2.4,5.5-3.6c0.5-0.3,1.3-0.5,1.9-0.4c8.3,0.9,16.7,1,24.7,3
		c15.9,4,31.6,8.8,47.2,13.8c5.6,1.8,11,4.7,12.7,11.4c0.3,1,1.2,1.9,2.1,2.7c4.4,4,8.7,8.2,13.4,11.8c5.7,4.4,11.4,9,19.7,7.5
		C237.4,593.6,241.3,586.5,237.6,578.7z M40.2,552.9c-0.7,0.2-2.6-1.4-2.7-2.3c-0.2-1.9-0.1-4.2,0.8-5.9c0.8-1.4,2.8-2.2,4.5-3.5
		c-1.3-1.1-2.4-2-3.5-2.9c1.3-3.1,2.5-5.9,3.7-8.8c0.5-0.1,1-0.2,1.5-0.2c1.5,6.3,3.1,12.6,4.9,20.1
		C46.7,550.4,43.5,551.9,40.2,552.9z M74.6,518.6c1,2.1,1.9,4.1,2.9,6.2c-1.3,0.4-3,1.5-3.7,1C71.1,524.1,71,521.6,74.6,518.6z
		 M73.7,544.6c-0.1-4.4-0.2-8.2-0.1-12.1c0-0.9,1.2-2.4,2-2.5c1.1-0.1,2.6,0.5,3.4,1.3C83.7,536.3,81.8,542.6,73.7,544.6z
		 M79.4,564.1c1.7-5.1,3.3-10.2,5.2-15.3c0.1-0.2,2.6,0,3,0.6c0.6,1,0.3,2.5,0.4,3.8l0,0c-2.4,3.8-4.9,7.5-7.3,11.3
		C80.2,564.4,79.8,564.2,79.4,564.1z M92,578.2c0.4-3,0.7-6,1.1-8.9c-1.2,1.5-2.5,3.1-3.7,4.6c-5.5-4.7-6.5-9.4-3.7-15.3
		c0.9-1.8,1.5-3.6,2.3-5.4c1.7-2.2,3.5-4.4,6.1-7.7c0.8,3,1.2,4.5,1.5,5.8c1.1,0.1,2.9-0.3,3.3,0.3c0.6,0.8,0.6,2.5,0.1,3.6
		c-1.8,4.7-3.9,9.3-5.9,14c2.1-3.2,4.2-6.3,6.4-9.6C100.9,562.4,96.7,575.4,92,578.2z M109.3,585.6c-0.6,0-1.3,0.5-2,0.8
		c-1.2,0.4-3,1.5-3.5,1.1c-0.9-0.7-1.8-2.6-1.5-3.7c0.7-3.2,1.7-6.4,3.1-9.3c0.6-1.1,2.7-1.5,5.1-2.7c-0.2,3.7-0.3,6.1-0.5,8.9
		c1.4-0.5,2.6-1,3.8-1.5C115,584.6,114,585.9,109.3,585.6z M114.3,558.6c0.3,3.5,0.6,5.6,0.4,7.6c-0.1,0.6-2.4,1.6-2.5,1.5
		c-1.2-1.4-2.1-3-3.1-4.6C110.4,562,111.7,560.8,114.3,558.6z M103.8,560.4c0.4-0.8,1.8-1.2,2.7-1.7c0.8,1.5,1.7,3,2.5,4.5l0,0
		c-1.6,3.6-3.1,7.2-4.8,10.7c-1.3,2.5-3,4.8-4.5,7.2c-0.5-0.2-1-0.3-1.4-0.5c-0.3-1.5-1.2-3.3-0.7-4.6
		C99.4,570.7,101.6,565.5,103.8,560.4z"/>
	<path d="M324.5,392.4c3.6,2.8,4.8,8,8.3,2.6c2.7,3.2,5.2,6.2,7.9,9.5c-8.2,2-16.2,1.1-24.3-3.2c-0.4,17.3-0.8,33.6-1.2,49.9
		c-0.7,0-1.3,0.1-2,0.1c-4.2-6.6-1.6-15.1-5.4-22.5c-6.8,5.6-3.5,13.8-6.2,20c-0.4-0.1-0.9-0.2-0.9-0.3c0.4-11.6,1-23.2,1.4-34.8
		c0.1-2.2,0.2-4.3,0-6.5c-0.3-2.7,1.2-6.6-3.5-6.9c-4.1-0.2-7.9,3.4-8.1,7.3c-0.1,1.3,0,2.6,0.1,5.3c-4.7-0.8-9.1-1.5-13.1-2.2
		c0.9-2.9,1-4.9,2-6.3c2.1-3.1,2.6-7,7.6-8.3c3.3-0.8,5.7-4.9,8.8-7.8c1.2,1.6,2.7,3.4,4.2,5.3c0.2-0.1,0.4-0.2,0.6-0.3
		c-0.8-3.4-1.7-6.8-2.5-10.1c0.5-0.1,0.9-0.2,1.4-0.3c1.9,2.6,3.8,5.2,6.1,8.3c3.8-4.6,6.5-6.4,9.2-2.8c1.6-3.5,3-6.5,4.5-9.7
		c-1.6-1.8-3.4-4-5.4-5.9c-0.8-0.7-2.2-0.8-3.4-1.1c-0.9-0.2-2.5-0.1-2.7-0.6c-2.3-5.9-6.1-3.2-9.9-2.2c-1.5,0.4-3.3-0.5-5-0.8
		c1-1.2,2-2.5,3.1-3.7c1-1,2.2-1.9,3.3-2.8c4.6,3.7,13.2,1.8,15.6-3.4c0.9-1.9,2.8-4.3,2.2-5.7c-1.3-3.5-3.6-6.6-5.9-9.6
		c-0.6-0.9-2.5-0.8-3.8-1.1c-0.1,1.2-0.2,2.5-0.1,3.7c0,0.5,0.4,1.1,0.3,0.7c-3.8-0.2-7.5-0.4-11.9-0.6c3.2-4.4,11.1-2.1,11-9.6
		c-0.1-4.8,1.1-9.7,1.8-15c-3.2,1.2-5.4,2.8-7.1,2.3c-1.8-0.5-3-3.1-4.7-4.4c-1.2-0.9-2.9-1.3-4.5-1.7c-2-0.4-4.1-0.5-6.2-0.8
		c-0.1-0.5-0.2-1.1-0.4-1.6c5.6-2.4,11.3-4.9,17.5-7.6c1.1,3.1,2.3,6.4,4,11c2.7-4.4,5.1-7.4,6.5-10.9c1-2.6,2.1-5.5-1.4-8.3
		c-2.7-2.2-4.7-2.8-8.1-2.8c-3.9,0.1-7.9-2-12.8-3.5c4.4-2.4,7.6-4.1,10.7-5.8c0.4-0.8,0.7-1.6,1.1-2.3c1.5,1.8,3,3.6,4.6,5.6
		c1.1-0.5,3.4-0.9,4.6-2.3s1.5-3.7,1.8-5.6c0.1-0.6-1.7-1.3-1.9-2.1c-0.4-2-0.3-4-0.5-6c2.1,0.6,4.8,0.5,6.2,1.8
		c2,1.9,2.7,5.1,4.6,7.2c6,6.8,13.5,12.4,17.7,20.8c-0.3,0.4-0.6,0.7-0.8,1.1c-2-1.6-4-3.1-5.9-4.9c-0.9-0.9-1.4-2.7-2.4-3
		c-1.9-0.6-4.1-0.4-6.1-0.4c-0.2,0-0.6,2-0.4,2.1c2,1.4,4.2,2.7,6.3,3.8c0.5,0.2,1.2-0.1,0.8,0c3.9,6.3,7.4,12.1,11,18.1
		c-4.2,2.3-4.3,5.2-0.6,9c1.4,1.4,1.2,4.2,1.8,6.5c-3.1,0.8-5.5,1.4-8.6,2.1c2.8,3.7,4,8.3,8.5,5.7c1,3.5,0.8,8.1,3,9.9
		c5.5,4.7,12.1,8.2,19.6,9.5c2.8,0.5,5.3,2.3,7.9,3.4c1,0.5,2,1.2,3.1,1.2c3.8,0.3,7.6,0.4,11.4,0.6c0,0.7,0,1.3-0.1,2
		c-3.3-0.2-6.6-0.6-9.9-0.7c-3.1,0-6.2,0.3-10.2,0.6c-3.3-1.7-8-3.8-12.3-6.5c-3.6-2.2-6.6-5.4-10.2-7.7c-2.1-1.4-4.9-1.8-7.3-2.6
		c-0.1,2.6-0.4,5.1-0.2,7.7c0.1,1.4,1.2,2.6,2.1,4.4c1.3-1.2,2.2-2.1,3.2-3c3.7,8,8.5,10.2,20.5,9.6c-2.8,4.2-9.6,4.1-18.9,0
		c-2.7,2.2-5.3,4.4-7.9,6.6c-0.5-0.3-1-0.5-1.4-0.8c0.2,2.4,0.3,4.7,0.5,7.4C329.2,382.2,330.9,392.4,324.5,392.4z M324.4,346.5
		c1.4-0.7,3.7-1.4,3.6-1.9c-0.2-2.2-0.4-5.2-1.8-6.2c-3-2.1-6.7-3.8-10.3-4.3c-1.5-0.2-4.4,2.8-5,4.8c-0.8,2.7,1.6,2.6,3.9,2.5
		c1.6-0.1,3.8,0.6,4.8,1.7c1.6,1.8,2.4,4.3,3.6,6.4c0.1,0.3,0.9,0.2,1.7,0.3C324.7,348.4,324.5,347.2,324.4,346.5z M331.6,351.1
		c-2.5,1.1-4.6,1.5-5.4,2.7c-0.9,1.2-1.3,4-0.6,4.9c1.7,2,4.2,3.3,6.7,5.1c-0.2-1.6-0.3-3-0.6-5.5c1.5,2.2,2.3,3.4,3.3,4.9
		C336.3,357.2,334.9,353.4,331.6,351.1z M325.6,385.6c0.6-0.1,1.2-0.3,1.8-0.4c1.2-4.6-0.5-10.9-4.3-13.8
		C324,376.6,324.8,381.1,325.6,385.6z M330.2,333.5c0.6,0,1.1-0.1,1.7-0.1c0.4-2.2,0.9-4.5,1.3-6.7c-2.1-0.2-4.1-0.5-6.2-0.7
		c-0.2,0.5-0.4,1-0.5,1.5C327.7,329.4,329,331.4,330.2,333.5z"/>
	<path d="M348.2,431c2.8-5.6,6.6-2.6,8.6-2.9c2.5,3.3,4.6,6,6.9,9.1c2.1,7.9,4.4,16.7,6.8,25.4c0.7,0,1.4-0.1,2.1-0.1
		c0.6-4.6,1.1-9.2,1.7-13.8c1-8.3,2.2-9.4,10.4-9.2c2.6,0.1,5.3,0.1,7.9,0.6c4.4,0.9,8.9,1.6,10.1,7.4c0.4,2,3.2,3.6,5.1,5.1
		c3.1,2.6,6.4,4.9,10.7,8.2c-0.2-6.8-3-11-7.6-14.7c2.5-3.7,5-7.1,7.2-10.7c2.7-4.4,0-9.2-5.2-9.2c-9.6,0-19.2,0.1-28.8,0.3
		c-5.9,0.1-11.4-0.5-16.3-4.5c-3.8-3-8.2-5.4-12.6-7.4c-2.3-1.1-5.1-1.1-7.7-1.1c-0.5,0-1.8,3-1.3,3.8c2.7,4.8-2.2,7.9-2.4,12
		c0,0.3-1.8,1-2.5,0.7c-0.7-0.2-1.4-1.3-1.6-2.1c-1.2-4.5,4.7-17.5,9-19.6c1-0.5,2.7-0.3,3.6,0.2c2.3,1.3,4.4,2.9,6.4,4.7
		c11.5,10.6,25.1,13.1,40.1,10.6c6-1,12.3-1.8,18.2-1.2c3.2,0.3,7.3,3.4,8.7,6.3c2.7,5.9,3.9,12.6,5.4,19c0.3,1.4-0.7,4.3-1.7,4.6
		c-1.8,0.6-4.2,0.1-6-0.7c-1.3-0.6-2.1-2.4-3.1-3.7c-0.5,0.1-1,0.2-1.6,0.4c0.6,2.6,1.3,5.1,1.7,7.8c0.3,2,0.8,4.3,0,6
		c-1.8,4.3-0.6,8.1,4.1,8.9c2.3,0.4,4.8-0.5,7.3-0.8c3.6-0.4,7.2-0.9,10.8-0.9c1,0,2,1.6,3,2.5c-0.8,0.9-1.5,2-2.5,2.6
		c-3.5,2.3-7.2,4.4-10.8,6.6c-0.5,0.3-0.8,1.3-1.4,1.4c-7.2,1.7-14.3,4.4-21.5,4.6c-4.8,0.2-9.9-4-13.7,2.2
		c-8.7,0.3-17.4,0.9-26.2,0.9c-3.4,0-6.4-0.6-9.2,2.3c-0.9,1-3.3,0.5-5.8,0.8c-0.3,0.4-1.1,2.1-2.3,2.7c-2.5,1.1-4.9,1.5-4.6-2.8
		c0.2-4.1-0.4-7.8-4.7-10.4c-2.6-1.6-3.6-1.7-6.3-0.2c-2.8,1.6-6.6,1.5-10.1,1.6c-3.3,0.1-6.5-0.6-10.7-1.1c10.5-2.6,19.8-5.1,30-4
		c7.4,0.8,14.9,0,22.3-0.1c0.1-0.6,0.1-1.1,0.2-1.7c-1.9-0.5-3.8-1.3-5.8-1.4c-3.8-0.1-3.7-1.6-2.9-4.8c1.7-7,3-14.1,4-21.3
		c0.2-1.5-1.3-3.3-2.2-4.9c-1.4-2.6-3.3-5-4.3-7.8C355.4,433.5,353.7,430.4,348.2,431z M384.2,472.6c0.2,0.6,0.3,1.2,0.5,1.8
		c5.4-0.1,11,0.5,16.3-0.4c4.6-0.9,5.1-5.9,5.4-9.7c0.2-2.9-0.5-6.2-2-8.6c-0.8-1.3-4.2-1.3-6.4-1.3c-5.5-0.1-11,0.7-16.4,0.2
		c-3.7-0.4-5.8-0.1-6.2,3.9c-0.6,5.9-1.3,11.8-1.8,17.8c-0.1,1.1,0.3,3.2,0.7,3.2c1.5,0.1,3.5,0.2,4.5-0.6
		C380.8,477,382.4,474.7,384.2,472.6z M407,468.2c2,1.8,3.2,2.9,4.3,4c1.4-1.8,3.4-3.5,4-5.5c0.3-1.1-1.8-2.9-2.9-4.3
		C410.8,464.1,409.2,465.8,407,468.2z M367.7,476.1c1.9-2.7,3.6-4.3,4-6.2c0.2-1-1.7-2.6-2.7-3.9c-1.3,2-2.8,3.8-3.7,5.9
		C365,472.6,366.3,473.9,367.7,476.1z M425.1,443.6c0.5-0.2,1-0.5,1.4-0.7c-1.2-3.1,0.5-7.4-5.6-9.9
		C422.7,437.3,423.9,440.4,425.1,443.6z"/>
	<path d="M324.1,255.4c1.8,3.1,3,5.1,4.2,7.2c-0.5,0-1.1,0.1-1.6,0.1c-0.6,1.8-2,3.8-1.6,5.4c1.2,5.2,3,10.2,4.7,15.7
		c-3.7-1-6.9-1.9-6.9-6.8c0-1.5-1.2-3.9-2.2-4.2c-4.9-1.2-4.6-5.8-6.6-8.9c-1.7-2.6-4.6-4.5-6.4-7.1c-1.4-1.9-1.9-4.5-2.7-6.7
		c3.5-0.3,6.2-0.6,9.7-0.9c5.3,3.4,7.5,3.4,10.3-1.6c0.7-1.3,0-4.9-0.9-5.2c-5.8-2.1-6.6-7.9-9.5-12.1c-0.9-1.3-2-2.6-3.3-4.2
		c-3.8,6.8,3.4,9.6,2.8,15.2c-2.7-2.5-5.4-5.1-9-8.4c-1.7,2.2-3.8,4.6-5.4,7.3c-0.3,0.5,1.5,2.2,2.6,3.6c-4,2.4-7.1,7.4-13.4,4.5
		c-1.2-0.5-3.1,0.4-5.3-0.3c4.1-3.7,8.4-7.2,12.2-11.2c4.1-4.3,8.1-8.9,11.4-13.9c2-3,3.8-2.8,5.5-0.9c2.6,3.1,5,6.6,6.8,10.3
		c2.4,5,5.4,9.2,10.6,11.4c1.7,0.7,3.3,1.5,5.1,2.4C330.2,250.3,327.1,252.9,324.1,255.4z"/>
	<path d="M233.1,316.7c-6.5-3.1-13.6-5.2-19.2-9.4c-8.1-6.1-17-9.3-26.7-9.1c-3.4,0.1-8.1,3.1-9.9,6.2c-2.1,3.5,0.5,7.5,4,10.2
		c3,2.3,3.3,5,0.2,7.3c-2.2,1.7-4.9,2.7-7.2,4.3c-1.9,1.3-4.5,2.5-5.1,4.3c-1.8,5.4-5.7,4.4-10.9,4.4c1.1-4.3,2-8,3-11.7
		c0.1-0.4,0.6-1.1,0.9-1.1c6.4,0.6,4-3.1,4.1-6.8c0.1-2.9,3.5-5.7,6.1-9.6c-6.5,1.5-12.7,3-18.8,4.4c-0.2-0.6-0.4-1.1-0.6-1.7
		c1.4-0.9,2.8-1.9,4.3-2.6c7.2-3.2,14.4-6.9,21.8-9.4c11-3.7,21.6-3.3,31.5,4.2c6.3,4.8,13.5,8.5,20.2,12.7c0.9,0.6,1.9,1.2,2.8,1.8
		C233.6,315.7,233.4,316.2,233.1,316.7z"/>
	<path d="M207.3,439.3c1.7,4.7-7,11.9,3.6,14.6c2.4-2.2,4-4.4,2.4-8.1c-1.3-3-0.8-5.4,3.3-6.7c5.2-1.6,6.2-5.1,3.7-10.2
		c-0.6-1.2-1.3-2.3-1.9-3.5c-1.9-4.4-4.9-5.6-9.2-3.3c-0.9,0.5-1.9,0.6-4.4,1.5c1.5-2.3,2.5-4.5,2.9-4.4c4.6,1.4,10.1-2.2,14,2.5
		c0.6,0.7,1.8,1.7,1.7,2.3c-1.8,7,3.7,10.3,7.4,15.4c-6.2-2-7,1.8-8.5,6.2c-2.7,7.7-0.9,14.7,0.8,22c0.3,1.4-0.4,3.1-0.6,4.6
		c-1.1-1.2-2.1-2.5-3.2-3.7c-1.2-1.4-2.6-2.7-3.8-4c-0.9-1-1.9-2.1-2.6-3.3c-1.1-1.7-2-3.6-3-5.3c-2.5,2.4-4.6,4.3-7.5,7.1
		c-0.1-8.9-0.2-16.1-0.3-23.7C203.6,439.1,205.4,439.2,207.3,439.3z"/>
	<path d="M270.1,462.7c8.7-2.8,17.5-5.6,26.4-8.4c4,3,15.9,4.3,19.5,1.8c1.3,0.8,2.7,1.7,4.4,2.7c1.4-2,2.7-3.9,4.3-6.1
		c4.2,4.3,10.9-4.7,14.3,2.9c-1,1.8-1.6,4.2-3.2,5.3c-1.3,1-3.7,0.6-5.6,0.7c-2.2,0-4.5-0.5-6.7-0.3c-5,0.4-9.9,1.4-14.9,1.6
		c-10.9,0.6-21.8,1-32.7,1.4c-1.9,0.1-3.9-0.3-5.8-0.5C270.1,463.3,270.1,463,270.1,462.7z"/>
	<path d="M328.4,543.4c0.2-2.4,0.3-4.7,0.7-7.1c0.2-0.9,1-1.8,1.6-2.6c0.6,0.8,1.8,1.6,1.8,2.5c0.1,6.3,0.3,12.6-0.3,18.9
		c-0.3,3.2-3.1,3.5-5.1,1.2c-2.1-2.5-3.7-5.5-5.4-8.3c-1.1-1.8-2-3.7-2.9-5.6c-0.5,0-1,0-1.6,0c-0.9,4.5-1.9,9-2.8,13.5
		c-0.5,0-1,0-1.4,0c-0.4-1.1-1.1-2.2-1.2-3.3c0-5.6,0-11.3,0.3-16.9c0-0.9,1.2-2.6,1.6-2.5c2,0.3,4.5,0.6,5.8,1.8
		c2.7,2.6,4.7,5.8,7,8.7C327.2,543.7,327.8,543.6,328.4,543.4z"/>
	<path d="M498.4,524.9c1,2.5,2.2,5,2.8,7.6c0.3,1.5-0.4,3.3-0.7,4.9c-1.2-1-2.9-1.8-3.6-3.2c-2.3-4.4-4.4-8.8-6.3-13.4
		c-0.5-1.2-0.5-3.2,0.2-4c0.8-0.8,2.9-1.2,4-0.7c4,1.5,7.7,3.4,13.1,5.9c-1.5-3.2-2.8-5.3-3.5-7.5c-0.5-1.7-0.4-3.7-0.5-5.6
		c1.7,0.9,4.3,1.3,5.1,2.7c2.3,4.2,4.2,8.7,5.8,13.2c0.5,1.3-0.3,3.8-1.3,4.6s-3.5,0.6-4.8-0.1c-3-1.7-5.7-4.1-8.5-6.1
		C499.6,523.9,499,524.4,498.4,524.9z"/>
	<path d="M185.4,431.5c-0.7,2.3-1.3,4.2-1.8,6.2c0.6,0.3,1.2,0.6,1.8,0.9c1.6-2.7,3.2-5.3,4.8-8c0.3,0,0.6,0,0.9,0.1
		c-0.7,3.4-1.9,6.8-2,10.2c-0.2,5.7,0,11.5,0.4,17.2c0.2,2.6,1.7,5.6-2.2,6.5c-3.4,0.7-6.2-0.2-6.7-4.5c-0.8-6.8-4.1-13.4-1.1-20.4
		c0.2-0.4,0.3-1,0.1-1.5C177.4,432.3,179.9,430.7,185.4,431.5z"/>
	<path d="M279.5,559.6c0.1-1.2-0.2-2.5,0.2-3.6c2.1-5.7,4.1-11.6,6.8-17.1c0.9-1.9,3.5-3.8,5.4-4c1.4-0.2,3.7,2.2,4.6,3.9
		c2.4,4.5,4.5,9.2,6.3,14c0.5,1.2-0.3,2.9-0.6,4.4c-1.4-0.8-3.4-1.2-4.1-2.4c-1.4-2.5-2.4-4.4-5.9-4c-3.7,0.5-7.3,0.5-8.5,5.1
		c-0.4,1.5-1.7,2.8-2.6,4.2C280.6,560,280.1,559.8,279.5,559.6z"/>
	<path d="M357.9,558.3c-4-0.5-6.9-0.7-9.6-1.2c-2.8-0.5-4.3-2.2-4-5.3c0.4-4.6,0.1-9.4,1.1-13.9c0.4-1.9,3.2-4.2,5.3-4.7
		c3.9-0.9,12.2,3.7,13.5,6.8c2.5,5.7,1.3,11.1-2.3,15.9C360.8,557.3,358.7,557.8,357.9,558.3z M349.6,547.7c0.1,0,0.1,0,0.2,0
		c-0.1,1-0.4,2.1-0.2,2.9c0.5,1.6,1,3.7,2.2,4.4c0.9,0.5,3.2-0.5,4.3-1.4c3.2-2.7,4.5-10.4,2.1-13.8c-0.9-1.4-3.1-2.3-4.8-2.5
		c-0.9-0.1-2.4,1.8-2.8,3.1C350,542.7,349.9,545.2,349.6,547.7z"/>
	<path d="M241.3,442.8c2.1,7,7.1,7,12.5,6.7c0.7,0,2.7,3.4,2.3,4.5c-2.8,6.9-0.2,13.1,1.8,19.4c0.1,0.4,0,1-0.1,2.4
		c-3.2-0.3-6.3-0.6-9.3-0.9c-0.2-1.1-0.4-1.4-0.3-1.7c1.9-4.7,1.9-7.5,0.1-13.5c-0.4-1.3-1.1-2.5-1.2-3.8c-0.1-2.3,0.6-5.1-3-5
		c-3.5,0.1-5.3,2.1-5.7,5.7c-0.5,5.4-1.3,10.8-2,16.2c0,0.2-0.5,0.4-1.8,1.3c0.5-5.7,0.8-10.7,1.5-15.7c0.7-4.9,1.9-9.6,2.9-14.4
		C239.7,443.5,240.5,443.2,241.3,442.8z"/>
	<path d="M491.6,538.1c0,7.5-3.1,10.9-9.7,12.6c-4.4,1.1-8-0.8-10.8-6c-1.1-2-2.2-4.2-2.6-6.4c-0.3-1.5,0.6-3.2,1-4.9
		c1.6,0.7,3.7,1.1,4.8,2.3c1.4,1.5,1.7,4,2.9,5.7c1.7,2.3,3.4,5.8,7,3.8c3.5-2,2.8-5.2,1-8.3c-1.6-2.7-3.4-5.4-4.5-8.3
		c-0.6-1.5,0.3-3.5,0.5-5.3c1.4,0.9,3.3,1.4,4,2.7C487.8,530.5,490.1,535.2,491.6,538.1z"/>
	<path d="M154.7,390.9c1.4,2.5,2.6,4.6,4,7.1c1.5-1.1,2.5-1.9,3.8-2.7c1.7,3.3,3.2,6.2,4.8,9.2c0.5-0.1,1-0.3,1.4-0.4
		c-0.5-2.8-1-5.7-1.6-9.6c1.5,1,2.6,1.4,3.1,2.2c1.7,2.6,2.3,6.6,7.1,4.9c0.1,0,1.4,3.2,2.2,4.9c-1.2,0.1-2.5,0.3-3.7,0.2
		c-0.7-0.1-1.4-0.6-2.6-1.1c-0.6,1.6-0.9,3.1-1.7,4.2c-0.5,0.8-1.9,1.7-2.6,1.5c-4.5-1.5-9.3-2.6-13.1-5.1c-2-1.3-3-5.2-3.3-8.1
		C152.2,395.9,153.7,393.5,154.7,390.9z"/>
	<path d="M312.2,578.1c-2,1.5-4,3.1-6.1,4.6c0.1-0.6,0.2-1.1,0.2-1.7c-7.1-4.5-14.2-9.1-21.3-13.6c0.1-0.6,0.1-1.1,0.2-1.7
		c9.8-1.4,19.6-2.8,29.4-4.2c0.1,0.3,0.3,0.7,0.4,1c-0.6,0.6-1.1,1.2-1.8,1.7c-2.6,1.8-5.8,3.1-7.8,5.4
		C302.6,573,306,577.2,312.2,578.1L312.2,578.1z"/>
	<path d="M587.9,502c-2,0.6-3.9,1.8-5.9,1.8c-8.4-0.1-10.7,1.4-13.1,9.3c-0.2,0.6-0.2,1.5-0.6,1.9c-1,0.9-2.2,1.6-3.3,2.4
		c-0.7-1-2.1-2.2-1.9-3.1c1.1-5.4-1.2-9.6-3.6-14.1c-0.7-1.3-0.1-3.3-0.1-4.9c2.1,0.5,5.4,0.4,6.1,1.7c2.8,5.2,5.3,4.9,9.7,1.6
		c4.4-3.4,8.7-0.4,12.6,1.8C587.9,500.9,587.9,501.4,587.9,502z"/>
	<path d="M418.1,395.4c-7.7,1.1-14.4-3.1-21.6-4.4c-7.1-1.2-14.7-0.1-22.4,0c0.9-4,2.7-5.8,6.6-5.7c5.3,0.2,10.6-0.1,15.9-0.1
		c3.2,0,5.8,0.4,8.2,3.5c1.4,1.9,5.2,2,7.9,3c2,0.7,4,1.3,5.9,2C418.3,394.3,418.2,394.8,418.1,395.4z"/>
	<path d="M170.3,417.7c-0.5,1.1-0.7,2.6-1.5,3.3c-2.9,2.4-2.3,4.5-0.3,7.2c1.3,1.8,1.8,4.4,1.9,6.6c0.1,4-1.8,8.3,2.7,11.4
		c0.5,0.4,0.2,3.1-0.5,3.9c-3.5,3.8-5.3,7.9-3.5,13.5c-2.2,0.2-4,0.3-6.8,0.5c7.7-8,3.1-17.3,5-25.5c0.3-1.1-0.9-2.9-1.8-3.9
		C159.5,428,161,420.9,170.3,417.7z"/>
	<path d="M335.6,293.3c4.3-0.1,7.8-0.1,11.2-0.2c0.3-0.4,0.6-0.8,0.9-1.1c-1.6-1.5-3-3.5-4.9-4.4c-5.9-2.6-10.3-6.7-12.5-12.7
		c-0.6-1.6,0.1-3.6,0.2-5.5c1.5,0.2,3.1,0.1,4.4,0.7c4.1,1.9,5.6-1.5,7.7-3.5c0.7-0.7,0.8-2,1.7-4.4c1.4,3,2.4,4.9,3.7,7.6
		c-5,0.8-9.3,1.3-13.5,2.4c-1,0.3-2.5,3-2.2,3.3c2.7,3.2,5.3,7,8.8,9.1c4.1,2.5,9.2,3.3,13.6,5.2c1.3,0.6,2.1,2.4,3.1,3.6
		c-1.2,0.9-2.2,2.5-3.5,2.7C348.2,297.2,341.9,298.1,335.6,293.3z"/>
	<path d="M142.3,537.1c-7,0.5-8-0.8-6.2-7.4c0.5-1.9,0.8-3.9,1.3-5.8c1.6-5.7,5.2-7.7,10.9-6c4.5,1.4,5.9,4.9,4.1,10.5
		C150.2,535.4,148.7,536.6,142.3,537.1z M149.3,527.9c-2.1-2.4-3.6-4-5-5.6c-1,2.3-2.6,4.4-2.8,6.8c-0.1,1.3,1.9,2.8,2.9,4.2
		C145.8,531.7,147.2,530.2,149.3,527.9z"/>
	<path d="M193.2,544.5c-2.1,1.1-4.3,2.2-6.4,3.3c-1.1,0.6-2.3,1-3.5,1.5c-0.5-1.3-1.1-2.6-1.3-4s-0.1-2.8-0.1-5.1
		c-2.3,2-3.9,3.5-5.7,5.1c-0.4-2.8,4-12.9,5.9-13.5c3.1-1.1,4.2,0.9,4.5,3.6c0.3,2.7,0.5,5.4,0.8,9.2c2.8-1.7,4.3-3.2,6.1-3.6
		c1.9-0.4,4.1-0.1,5.8,0.7c0.6,0.3,0.4,3.3-0.3,4.6c-1.5,3-3.4,5.7-5.3,8.4c-0.4,0.6-1.6,0.8-2.4,1.1c-0.1-0.9-0.5-1.8-0.2-2.6
		c1-2.6,2.2-5,3.4-7.5C194.1,545.3,193.7,544.9,193.2,544.5z"/>
	<path d="M106.5,516.2c-1.8,0.4-3.7,0.6-5.3,1.4c-1.2,0.6-2.2,1.9-2.6,3.2c-0.2,0.6,0.9,2.3,1.7,2.5c4.2,1.3,3.3,3.3,1.2,5.8
		c-2.8,3.2-1.3,4.4,2.2,5.1c1.4,0.3,2.7,1.6,4,2.4c-1.7,0.6-3.3,1.4-5,1.9c-0.9,0.2-2-0.3-3-0.2c-4.8,0.3-6.4-2.2-6.1-6.7
		c0.2-3.3,0-6.7,0-10c-0.1-5,2.3-7.4,7.2-7.1c1.9,0.1,3.8,0.6,5.6,0.8C106.5,515.6,106.5,515.9,106.5,516.2z"/>
	<path d="M181.8,413.4c1.9,0,3.2,0.1,4.3-0.1s3-0.7,3.1-1.3c0.6-3.9,2.9-4.6,6.3-4.5c1.1,0.1,2.7-0.8,3.5-1.7c3.7-4.3,5.7-2.3,7.7,2
		c-3.2,1.6-6.5,3-9.6,4.7c-3.2,1.7-4.2,4.1-2.3,7.4c1.5,2.6,2.9,5.2,4.1,7.9c0.5,1,0.5,2.5,0.1,3.5c-0.2,0.5-1.8,1.2-2.4,0.9
		c-0.9-0.4-1.8-1.5-2-2.5C192.1,420.1,191.3,419,181.8,413.4z"/>
	<path d="M166.4,542.9c-8.6,0.2-11.2-3.1-9.5-9.6c0.4-1.5,0.6-2.9,1.1-4.4c2-5.7,5.2-7.7,9.6-5.8c6.2,2.6,7.9,6,4.9,11.7
		C170.7,538.1,167.9,540.9,166.4,542.9z M166.4,526.6c-0.7,0-1.4,0-2.2,0c-1.1,2.5-2.9,5-3.1,7.6c-0.1,1.5,2.3,3.2,3.5,4.8
		c1.7-2,4.5-3.7,4.9-5.9C169.9,531.2,167.5,528.8,166.4,526.6z"/>
	<path d="M467.4,387.9c-3,1.3-6.9,3.2-11,4.5c-1.1,0.3-2.8-1.4-4.2-1.9c-1.3-0.4-3.3-1.2-3.9-0.6c-7,6.6-8.5,6.3-11.3-2.7
		c-0.2-0.6-0.3-1.3-0.7-2.5C447.7,381.1,458,386.9,467.4,387.9z"/>
	<path d="M530.6,501c5.2-6,16.9-7.1,19.9-2.2c-6.9,4.1-6.9,4.1-5,12.9c0.3,1.3,0.8,2.8,0.3,3.9s-1.9,1.9-2.9,2.8
		c-0.8-0.9-1.8-1.7-2.3-2.7c-0.4-0.8-0.4-1.9-0.5-2.9C538.8,503.9,538.8,503.9,530.6,501z"/>
	<path d="M129.3,517c-1,0-2.1,0.1-3.1,0c-4.3-0.2-6.4,2.5-5.1,6.6c0.3,1.1,1,2.3,0.8,3.3c-0.9,3.7-0.5,6,4.2,5.4
		c0.6-0.1,1.8,0.9,1.8,1.2c-0.1,0.9-0.7,2.2-1.3,2.3c-2.9,0.5-5.9,1-8.8,0.9c-0.6,0-1.8-2.3-1.7-3.4c0.6-5.2,1.2-10.5,2.5-15.5
		c0.4-1.6,3-3.2,4.8-3.5c2-0.4,4.2,0.6,6.3,1C129.5,515.8,129.4,516.4,129.3,517z"/>
	<path d="M213,398.2c0-1.4,0-2.8-0.1-4.2c0.5-0.2,1-0.5,1.5-0.7c2,3.5,4.1,7,5.7,10.7c0.3,0.6-1.3,2.7-2.4,3.1
		c-1.3,0.5-3.3,0.3-4.4-0.4c-1.7-1.2-2.7-3.3-4.2-4.8c-1.1-1.2-2.4-2.2-3.7-3.2c-1.1-0.9-2.3-1.7-3.5-2.6c1.1-0.8,2.1-2.2,3.3-2.4
		c1.3-0.2,2.9,0.5,4,1.4c1.1,0.8,1.8,2.3,2.7,3.4C212.3,398.4,212.7,398.3,213,398.2z"/>
	<path d="M286.5,256.2c0.6,4.3,1.2,8.5,1.9,13.3c-1.6-1.4-2.8-2.8-4.2-3.7c-1.2-0.7-2.9-1.4-4-1c-1.8,0.6-3.1,2.5-4.9,2.9
		s-3.8-0.5-6-0.8C271.9,258.5,280.4,259.4,286.5,256.2z"/>
	<path d="M529.3,521.8c-0.9,1-1.7,2.6-2.6,2.7c-1.1,0.1-2.9-0.9-3.3-1.9c-2.1-5-3.9-10.1-5.5-15.3c-0.3-1,0.7-3.5,1.3-3.6
		c1.3-0.2,3.8,0.3,4.1,1.2C525.4,510.3,527.2,515.8,529.3,521.8z"/>
	<path d="M291.7,374.2c-4.3,3.3-8.6,6.6-13,9.9c-0.3,0.2-1,0.2-1.4,0c-2.3-0.7-7.2-8.8-6.5-11c0.4-1.1,1.4-2.5,2.3-2.8
		c0.7-0.2,2.4,0.9,2.8,1.9c4.3,8.3,4.6,8.4,11.5,1.6c0.7-0.7,1.8-1,2.8-1.5C290.8,372.9,291.3,373.6,291.7,374.2z"/>
	<path d="M222.2,319.4c-8.9,3.6-14.9-2.5-22.5-4.5C208.9,309,215.7,312.2,222.2,319.4z"/>
	<path d="M443.9,371.7c-11.5-0.5-23-0.9-35.5-1.4C419,365.9,434.2,366.3,443.9,371.7z"/>
	<path d="M244.6,574.7c11.9-3.7,23.8-7.8,36.5-8c0.1,0.5,0.2,0.9,0.3,1.4c-12.1,2.9-24.2,5.8-36.4,8.7
		C244.9,576.1,244.7,575.4,244.6,574.7z"/>
	<path d="M211.8,561.5c-0.7,1.4-1.3,2.6-1.9,3.8c3.7-7.2,2.8-14.7,1.2-22.3c5,1.2,6.4,4.6,5.9,9.1c-0.1,1.5-0.3,3,0,4.5
		C218.1,562.8,218.1,562.9,211.8,561.5z"/>
	<path d="M272.6,293.7c-10,4.2-10,4.2-14.6,2.4c2.3-3,3.9-7,6.8-8.3C269.5,285.7,270.4,291.2,272.6,293.7z"/>
	<path d="M122.4,407.6c1.3-4.3,2.4-7.7,3.4-10.8c2.4,3,4.7,0.8,6.2-2.4c1.3-2.8,1.9-6,3.8-9.3c0.3,1.1,1.1,2.3,0.8,3.3
		C134.6,396.5,130.1,402.8,122.4,407.6z"/>
	<path d="M441.1,549.3c0.1,4.9,0.3,9.8,0.2,14.7c-0.2,5-0.9,9.9-1.4,15c-3-3.5-3-10.1-0.2-29.6C440.2,549.3,440.6,549.3,441.1,549.3
		z"/>
	<path d="M275.9,316.7c-5.4-0.9-10.8-1.6-16.2-2.7c-1.2-0.2-2.3-1.5-3.3-2.5c-0.1-0.1,0.9-2.1,1.4-2c1.5,0.1,3.2,0.4,4.5,1.1
		c0.8,0.4,1.1,1.8,2.1,3.7c1.1-2.7,1.8-4.5,2.5-6.3c-0.2,6.6,6,5.3,9.3,7.4C276.1,315.8,276,316.3,275.9,316.7z"/>
	<path d="M212.8,329.2c5.2-0.5,10.4-1.3,15.6-1.4c4.6-0.1,3.3,3.3,3.1,5.1c-6.5-1-12.7-1.9-18.9-2.8
		C212.7,329.8,212.7,329.5,212.8,329.2z"/>
	<path d="M225.1,417.3c4.3-2.1,3.3-4.4,1.8-7.5c-2.3-4.5-3.8-9.5-4.9-14.6c3.6,6.6,7.2,13.2,11,20.2c-2.4,1.1-4.5,2.1-6.5,3.1
		C226,418.1,225.6,417.7,225.1,417.3z"/>
	<path d="M214,518.3c-7.5,5.9-11.5,0.4-15.6-4.5C203.6,515.3,208.8,516.8,214,518.3z"/>
	<path d="M351.4,347.2c2.1-2.3,4.4-4.6,6.3-7c1.9-2.3,3.8-4,7-2.3C362.4,343.7,355.7,347.9,351.4,347.2z"/>
	<path d="M447.6,564.9c-1.9-1.6-3-2.5-2.9-2.4c0.8-6.6,1.5-12.1,2.2-17.5c0.6,0,1.1,0.1,1.7,0.1C448.3,551.3,448,557.6,447.6,564.9z
		"/>
	<path d="M179.8,520.3c7.2-0.2,17.4,5.6,18.2,10.7C191.8,527.4,186.1,524.1,179.8,520.3z"/>
	<path d="M118.4,365.1c-0.6,5.4-1.2,10.7-1.8,17c-2.6-4-4.7-7.2-6.8-10.4c0.2-0.2,0.3-0.4,0.5-0.6c1.3,0.8,2.5,1.5,4.1,2.5
		C115.8,370.6,117.1,367.8,118.4,365.1C118.5,365.2,118.6,365.3,118.4,365.1z"/>
	<path d="M61.9,412.5c0.1,5.4,0.2,10.6,0.2,15.5C58,425,57.4,415.9,61.9,412.5z"/>
	<path d="M382.6,346.6c3.8-0.1,7.6-0.1,11.4-0.2c0,0.7,0,1.4,0,2.1c-3.8,0.1-7.6,0.1-11.4,0.2C382.6,348,382.6,347.3,382.6,346.6z"
		/>
	<path d="M472.7,347.3c-2.3,3.5-9.3,4-15.1,1C463,348,467.6,347.7,472.7,347.3z"/>
	<path d="M444.9,316.2c-0.1,2.1-0.2,4-0.3,6.7c-0.7,0.2-2.1,0.5-3.7,0.8C440,315.3,440.5,314.5,444.9,316.2z"/>
	<path d="M239,415.3c-1.6-3.4-3.3-7-4.8-10C240.8,408.8,242.6,413,239,415.3z"/>
	<path d="M257.4,327.3c4.1-0.1,8.3-0.1,12.4-0.2c0,0.4,0,0.9,0,1.3c-4.1,0.1-8.3,0.1-12.4,0.2C257.4,328.1,257.4,327.7,257.4,327.3z
		"/>
	<path d="M330.1,254.7c2.1,2.2,3.8,3.9,5.7,6c-1.7,0.5-3,0.9-4.4,1.4C331,259.6,330.6,257.4,330.1,254.7z"/>
	<path d="M312.3,578.1c0.5-2.3,1.1-4.6,1.6-7c1.2,0.8,3.1,2.1,6,4.1C316.9,576.3,314.6,577.2,312.3,578.1
		C312.2,578.1,312.3,578.1,312.3,578.1z"/>
	<path d="M346,388.5c1.2-1.5,2.4-3,4.5-5.7c0,2.7,0.6,4.5-0.1,5.4c-0.7,1-2.5,1.1-3.9,1.6C346.3,389.4,346.2,389,346,388.5z"/>
	<path d="M455.7,356.3c-2.5,0.7-4.4,1.2-6.9,1.9C450.6,353.1,451.4,353,455.7,356.3z"/>
	<path d="M454.4,556.1c0-3.1-0.1-6.2-0.1-9.3c0.2,0,0.5-0.1,0.7-0.1c0,3.1,0.1,6.2,0.1,9.3C454.9,556,454.6,556.1,454.4,556.1z"/>
	<path d="M325.3,110.9c-3.2,1.2-6,2.6-9,3.2c-1.4,0.3-4.2-0.6-4.5-1.6c-1.5-4.3-10.1-4.8-6.7-10.9c1.4-2.5,6.1-3.6,9.6-4.2
		c2.3-0.4,5,1.3,7.5,1.7c3.7,0.7,5.2,2.5,4,6.3C325.5,107.3,325.5,109.1,325.3,110.9z"/>
	<path d="M392.1,465.6c-2.5,0.2-5,0.5-7.5,0.7c0-0.5-0.1-1.1-0.1-1.6c2.4-2.2,5.1-2.1,7.8-0.6C392.2,464.6,392.2,465.1,392.1,465.6z
		"/>
</g>
</svg>
