<svg version="1.1" id="MetropolitanMuseumArt" xmlns="http://www.w3.org/2000/svg" x="0px" y="0px" viewBox="0 0 285.2 121.8" style="fill: bisque; color: bisque">
<style>

  path:hover {
 	stroke:  transparent;
    fill:  bisque;
    stroke-with: 2px;

 }

	 path:hover {
 	 fill: transparent;
     stroke: bisque;
     stroke-with: 1px;
     transition: all .6s;
 }


</style>
<path d="M246.1,64.5c1.8,0.7,3,0.8,4.5-0.1C249,64,247.8,64,246.1,64.5z M246.1,64.5c1.8,0.7,3,0.8,4.5-0.1
C249,64,247.8,64,246.1,64.5z M246.1,64.5c1.8,0.7,3,0.8,4.5-0.1C249,64,247.8,64,246.1,64.5z M246.1,64.5c1.8,0.7,3,0.8,4.5-0.1
C249,64,247.8,64,246.1,64.5z M246.1,64.5c1.8,0.7,3,0.8,4.5-0.1C249,64,247.8,64,246.1,64.5z M246.1,64.5c1.8,0.7,3,0.8,4.5-0.1
C249,64,247.8,64,246.1,64.5z M246.1,64.5c1.8,0.7,3,0.8,4.5-0.1C249,64,247.8,64,246.1,64.5z M246.1,64.5c1.8,0.7,3,0.8,4.5-0.1
C249,64,247.8,64,246.1,64.5z M246.1,64.5c1.8,0.7,3,0.8,4.5-0.1C249,64,247.8,64,246.1,64.5z M246.1,64.5c1.8,0.7,3,0.8,4.5-0.1
C249,64,247.8,64,246.1,64.5z M246.1,64.5c1.8,0.7,3,0.8,4.5-0.1C249,64,247.8,64,246.1,64.5z M246.1,64.5c1.8,0.7,3,0.8,4.5-0.1
C249,64,247.8,64,246.1,64.5z M246.1,64.5c1.8,0.7,3,0.8,4.5-0.1C249,64,247.8,64,246.1,64.5z M246.1,64.5c1.8,0.7,3,0.8,4.5-0.1
C249,64,247.8,64,246.1,64.5z M246.1,64.5c1.8,0.7,3,0.8,4.5-0.1C249,64,247.8,64,246.1,64.5z M246.1,64.5c1.8,0.7,3,0.8,4.5-0.1
C249,64,247.8,64,246.1,64.5z M246.1,64.5c1.8,0.7,3,0.8,4.5-0.1C249,64,247.8,64,246.1,64.5z M246.1,64.5c1.8,0.7,3,0.8,4.5-0.1
C249,64,247.8,64,246.1,64.5z M246.1,64.5c1.8,0.7,3,0.8,4.5-0.1C249,64,247.8,64,246.1,64.5z M246.1,64.5c1.8,0.7,3,0.8,4.5-0.1
C249,64,247.8,64,246.1,64.5z M246.1,64.5c1.8,0.7,3,0.8,4.5-0.1C249,64,247.8,64,246.1,64.5z M246.1,64.5c1.8,0.7,3,0.8,4.5-0.1
C249,64,247.8,64,246.1,64.5z M246.1,64.5c1.8,0.7,3,0.8,4.5-0.1C249,64,247.8,64,246.1,64.5z M246.1,64.5c1.8,0.7,3,0.8,4.5-0.1
C249,64,247.8,64,246.1,64.5z M246.1,64.5c1.8,0.7,3,0.8,4.5-0.1C249,64,247.8,64,246.1,64.5z M246.1,64.5c1.8,0.7,3,0.8,4.5-0.1
C249,64,247.8,64,246.1,64.5z M246.1,64.5c1.8,0.7,3,0.8,4.5-0.1C249,64,247.8,64,246.1,64.5z M246.1,64.5c1.8,0.7,3,0.8,4.5-0.1
C249,64,247.8,64,246.1,64.5z M246.1,64.5c1.8,0.7,3,0.8,4.5-0.1C249,64,247.8,64,246.1,64.5z M246.1,64.5c1.8,0.7,3,0.8,4.5-0.1
C249,64,247.8,64,246.1,64.5z M246.1,64.5c1.8,0.7,3,0.8,4.5-0.1C249,64,247.8,64,246.1,64.5z M246.1,64.5c1.8,0.7,3,0.8,4.5-0.1
C249,64,247.8,64,246.1,64.5z M246.1,64.5c1.8,0.7,3,0.8,4.5-0.1C249,64,247.8,64,246.1,64.5z M246.1,64.5c1.8,0.7,3,0.8,4.5-0.1
C249,64,247.8,64,246.1,64.5z M246.1,64.5c1.8,0.7,3,0.8,4.5-0.1C249,64,247.8,64,246.1,64.5z M246.1,64.5c1.8,0.7,3,0.8,4.5-0.1
C249,64,247.8,64,246.1,64.5z M246.1,64.5c1.8,0.7,3,0.8,4.5-0.1C249,64,247.8,64,246.1,64.5z M246.1,64.5c1.8,0.7,3,0.8,4.5-0.1
C249,64,247.8,64,246.1,64.5z M246.1,64.5c1.8,0.7,3,0.8,4.5-0.1C249,64,247.8,64,246.1,64.5z M246.1,64.5c1.8,0.7,3,0.8,4.5-0.1
C249,64,247.8,64,246.1,64.5z M246.1,64.5c1.8,0.7,3,0.8,4.5-0.1C249,64,247.8,64,246.1,64.5z M246.1,64.5c1.8,0.7,3,0.8,4.5-0.1
C249,64,247.8,64,246.1,64.5z M246.1,64.5c1.8,0.7,3,0.8,4.5-0.1C249,64,247.8,64,246.1,64.5z M246.1,64.5c1.8,0.7,3,0.8,4.5-0.1
C249,64,247.8,64,246.1,64.5z M246.1,64.5c1.8,0.7,3,0.8,4.5-0.1C249,64,247.8,64,246.1,64.5z M246.1,64.5c1.8,0.7,3,0.8,4.5-0.1
C249,64,247.8,64,246.1,64.5z M246.1,64.5c1.8,0.7,3,0.8,4.5-0.1C249,64,247.8,64,246.1,64.5z M246.1,64.5c1.8,0.7,3,0.8,4.5-0.1
C249,64,247.8,64,246.1,64.5z M246.1,64.5c1.8,0.7,3,0.8,4.5-0.1C249,64,247.8,64,246.1,64.5z M246.1,64.5c1.8,0.7,3,0.8,4.5-0.1
C249,64,247.8,64,246.1,64.5z M246.1,64.5c1.8,0.7,3,0.8,4.5-0.1C249,64,247.8,64,246.1,64.5z M246.1,64.5c1.8,0.7,3,0.8,4.5-0.1
C249,64,247.8,64,246.1,64.5z M246.1,64.5c1.8,0.7,3,0.8,4.5-0.1C249,64,247.8,64,246.1,64.5z M246.1,64.5c1.8,0.7,3,0.8,4.5-0.1
C249,64,247.8,64,246.1,64.5z M246.1,64.5c1.8,0.7,3,0.8,4.5-0.1C249,64,247.8,64,246.1,64.5z M246.1,64.5c1.8,0.7,3,0.8,4.5-0.1
C249,64,247.8,64,246.1,64.5z M246.1,64.5c1.8,0.7,3,0.8,4.5-0.1C249,64,247.8,64,246.1,64.5z M246.1,64.5c1.8,0.7,3,0.8,4.5-0.1
C249,64,247.8,64,246.1,64.5z M246.1,64.5c1.8,0.7,3,0.8,4.5-0.1C249,64,247.8,64,246.1,64.5z M246.1,64.5c1.8,0.7,3,0.8,4.5-0.1
C249,64,247.8,64,246.1,64.5z M246.1,64.5c1.8,0.7,3,0.8,4.5-0.1C249,64,247.8,64,246.1,64.5z M246.1,64.5c1.8,0.7,3,0.8,4.5-0.1
C249,64,247.8,64,246.1,64.5z M178.4,39.8L178.4,39.8l4.7,0.1v-0.1H178.4z M246.1,64.5c1.8,0.7,3,0.8,4.5-0.1
C249,64,247.8,64,246.1,64.5z M246.1,64.5c1.8,0.7,3,0.8,4.5-0.1C249,64,247.8,64,246.1,64.5z M178.4,39.8L178.4,39.8l4.7,0.1v-0.1
H178.4z M178.4,39.8L178.4,39.8l4.7,0.1v-0.1H178.4z M195.4,49.7c0.1-0.1,0.2-0.3,0.4-0.5C195.6,49.4,195.5,49.5,195.4,49.7z
M246.1,64.5c1.8,0.7,3,0.8,4.5-0.1C249,64,247.8,64,246.1,64.5z M246.1,64.5c1.8,0.7,3,0.8,4.5-0.1C249,64,247.8,64,246.1,64.5z
M195.4,49.7c0.1-0.1,0.2-0.3,0.4-0.5C195.6,49.4,195.5,49.5,195.4,49.7z M178.4,39.8L178.4,39.8l4.7,0.1v-0.1H178.4z M178.4,39.8
L178.4,39.8l4.7,0.1v-0.1H178.4z M195.4,49.7c0.1-0.1,0.2-0.3,0.4-0.5C195.6,49.4,195.5,49.5,195.4,49.7z M246.1,64.5
c1.8,0.7,3,0.8,4.5-0.1C249,64,247.8,64,246.1,64.5z M246.1,64.5c1.8,0.7,3,0.8,4.5-0.1C249,64,247.8,64,246.1,64.5z M195.4,49.7
c0.1-0.1,0.2-0.3,0.4-0.5C195.6,49.4,195.5,49.5,195.4,49.7z M178.4,39.8L178.4,39.8l4.7,0.1v-0.1H178.4z M178.4,39.8L178.4,39.8
l4.7,0.1v-0.1H178.4z M195.4,49.7c0.1-0.1,0.2-0.3,0.4-0.5C195.6,49.4,195.5,49.5,195.4,49.7z M246.1,64.5c1.8,0.7,3,0.8,4.5-0.1
C249,64,247.8,64,246.1,64.5z M246.1,64.5c1.8,0.7,3,0.8,4.5-0.1C249,64,247.8,64,246.1,64.5z M195.4,49.7c0.1-0.1,0.2-0.3,0.4-0.5
C195.6,49.4,195.5,49.5,195.4,49.7z M178.4,39.8L178.4,39.8l4.7,0.1v-0.1H178.4z M178.4,39.8L178.4,39.8l4.7,0.1v-0.1H178.4z
M195.4,49.7c0.1-0.1,0.2-0.3,0.4-0.5C195.6,49.4,195.5,49.5,195.4,49.7z M246.1,64.5c1.8,0.7,3,0.8,4.5-0.1
C249,64,247.8,64,246.1,64.5z M246.1,64.5c1.8,0.7,3,0.8,4.5-0.1C249,64,247.8,64,246.1,64.5z M195.4,49.7c0.1-0.1,0.2-0.3,0.4-0.5
C195.6,49.4,195.5,49.5,195.4,49.7z M178.4,39.8L178.4,39.8l4.7,0.1v-0.1H178.4z M178.4,39.8L178.4,39.8l4.7,0.1v-0.1H178.4z
M195.4,49.7c0.1-0.1,0.2-0.3,0.4-0.5C195.6,49.4,195.5,49.5,195.4,49.7z M246.1,64.5c1.8,0.7,3,0.8,4.5-0.1
C249,64,247.8,64,246.1,64.5z M246.1,64.5c1.8,0.7,3,0.8,4.5-0.1C249,64,247.8,64,246.1,64.5z M195.4,49.7c0.1-0.1,0.2-0.3,0.4-0.5
C195.6,49.4,195.5,49.5,195.4,49.7z M178.4,39.8L178.4,39.8l4.7,0.1v-0.1H178.4z M178.4,39.8L178.4,39.8l4.7,0.1v-0.1H178.4z
M195.4,49.7c0.1-0.1,0.2-0.3,0.4-0.5C195.6,49.4,195.5,49.5,195.4,49.7z M246.1,64.5c1.8,0.7,3,0.8,4.5-0.1
C249,64,247.8,64,246.1,64.5z M246.1,64.5c1.8,0.7,3,0.8,4.5-0.1C249,64,247.8,64,246.1,64.5z M195.4,49.7c0.1-0.1,0.2-0.3,0.4-0.5
C195.6,49.4,195.5,49.5,195.4,49.7z M178.4,39.8L178.4,39.8l4.7,0.1v-0.1H178.4z M178.4,39.8L178.4,39.8l4.7,0.1v-0.1H178.4z
M195.4,49.7c0.1-0.1,0.2-0.3,0.4-0.5C195.6,49.4,195.5,49.5,195.4,49.7z M246.1,64.5c1.8,0.7,3,0.8,4.5-0.1
C249,64,247.8,64,246.1,64.5z M246.1,64.5c1.8,0.7,3,0.8,4.5-0.1C249,64,247.8,64,246.1,64.5z M195.4,49.7c0.1-0.1,0.2-0.3,0.4-0.5
C195.6,49.4,195.5,49.5,195.4,49.7z M178.4,39.8L178.4,39.8l4.7,0.1v-0.1H178.4z M178.4,39.8L178.4,39.8l4.7,0.1v-0.1H178.4z
M195.4,49.7c0.1-0.1,0.2-0.3,0.4-0.5C195.6,49.4,195.5,49.5,195.4,49.7z M246.1,64.5c1.8,0.7,3,0.8,4.5-0.1
C249,64,247.8,64,246.1,64.5z M246.1,64.5c1.8,0.7,3,0.8,4.5-0.1C249,64,247.8,64,246.1,64.5z M195.4,49.7c0.1-0.1,0.2-0.3,0.4-0.5
C195.6,49.4,195.5,49.5,195.4,49.7z M178.4,39.8L178.4,39.8l4.7,0.1v-0.1H178.4z M178.4,39.8L178.4,39.8l4.7,0.1v-0.1H178.4z
M195.4,49.7c0.1-0.1,0.2-0.3,0.4-0.5C195.6,49.4,195.5,49.5,195.4,49.7z M246.1,64.5c1.8,0.7,3,0.8,4.5-0.1
C249,64,247.8,64,246.1,64.5z M246.1,64.5c1.8,0.7,3,0.8,4.5-0.1C249,64,247.8,64,246.1,64.5z M195.4,49.7c0.1-0.1,0.2-0.3,0.4-0.5
C195.6,49.4,195.5,49.5,195.4,49.7z M178.4,39.8L178.4,39.8l4.7,0.1v-0.1H178.4z M178.4,39.8L178.4,39.8l4.7,0.1v-0.1H178.4z
M195.4,49.7c0.1-0.1,0.2-0.3,0.4-0.5C195.6,49.4,195.5,49.5,195.4,49.7z M246.1,64.5c1.8,0.7,3,0.8,4.5-0.1
C249,64,247.8,64,246.1,64.5z M246.1,64.5c1.8,0.7,3,0.8,4.5-0.1C249,64,247.8,64,246.1,64.5z M195.4,49.7c0.1-0.1,0.2-0.3,0.4-0.5
C195.6,49.4,195.5,49.5,195.4,49.7z M178.4,39.8L178.4,39.8l4.7,0.1v-0.1H178.4z M178.4,39.8L178.4,39.8l4.7,0.1v-0.1H178.4z
M195.4,49.7c0.1-0.1,0.2-0.3,0.4-0.5C195.6,49.4,195.5,49.5,195.4,49.7z M246.1,64.5c1.8,0.7,3,0.8,4.5-0.1
C249,64,247.8,64,246.1,64.5z M246.1,64.5c1.8,0.7,3,0.8,4.5-0.1C249,64,247.8,64,246.1,64.5z M195.4,49.7c0.1-0.1,0.2-0.3,0.4-0.5
C195.6,49.4,195.5,49.5,195.4,49.7z M178.4,39.8L178.4,39.8l4.7,0.1v-0.1H178.4z M178.4,39.8L178.4,39.8l4.7,0.1v-0.1H178.4z
M195.4,49.7c0.1-0.1,0.2-0.3,0.4-0.5C195.6,49.4,195.5,49.5,195.4,49.7z M246.1,64.5c1.8,0.7,3,0.8,4.5-0.1
C249,64,247.8,64,246.1,64.5z M246.1,64.5c1.8,0.7,3,0.8,4.5-0.1C249,64,247.8,64,246.1,64.5z M195.4,49.7c0.1-0.1,0.2-0.3,0.4-0.5
C195.6,49.4,195.5,49.5,195.4,49.7z M178.4,39.8L178.4,39.8l4.7,0.1v-0.1H178.4z M178.4,39.8L178.4,39.8l4.7,0.1v-0.1H178.4z
M195.4,49.7c0.1-0.1,0.2-0.3,0.4-0.5C195.6,49.4,195.5,49.5,195.4,49.7z M246.1,64.5c1.8,0.7,3,0.8,4.5-0.1
C249,64,247.8,64,246.1,64.5z M246.1,64.5c1.8,0.7,3,0.8,4.5-0.1C249,64,247.8,64,246.1,64.5z M195.4,49.7c0.1-0.1,0.2-0.3,0.4-0.5
C195.6,49.4,195.5,49.5,195.4,49.7z M178.4,39.8L178.4,39.8l4.7,0.1v-0.1H178.4z M178.4,39.8L178.4,39.8l4.7,0.1v-0.1H178.4z
M195.4,49.7c0.1-0.1,0.2-0.3,0.4-0.5C195.6,49.4,195.5,49.5,195.4,49.7z M246.1,64.5c1.8,0.7,3,0.8,4.5-0.1
C249,64,247.8,64,246.1,64.5z M246.1,64.5c1.8,0.7,3,0.8,4.5-0.1C249,64,247.8,64,246.1,64.5z M195.4,49.7c0.1-0.1,0.2-0.3,0.4-0.5
C195.6,49.4,195.5,49.5,195.4,49.7z M178.4,39.8L178.4,39.8l4.7,0.1v-0.1H178.4z M178.4,39.8L178.4,39.8l4.7,0.1v-0.1H178.4z
M195.4,49.7c0.1-0.1,0.2-0.3,0.4-0.5C195.6,49.4,195.5,49.5,195.4,49.7z M246.1,64.5c1.8,0.7,3,0.8,4.5-0.1
C249,64,247.8,64,246.1,64.5z M246.1,64.5c1.8,0.7,3,0.8,4.5-0.1C249,64,247.8,64,246.1,64.5z M195.4,49.7c0.1-0.1,0.2-0.3,0.4-0.5
C195.6,49.4,195.5,49.5,195.4,49.7z M178.4,39.8L178.4,39.8l4.7,0.1v-0.1H178.4z M178.4,39.8L178.4,39.8l4.7,0.1v-0.1H178.4z
M195.4,49.7c0.1-0.1,0.2-0.3,0.4-0.5C195.6,49.4,195.5,49.5,195.4,49.7z M246.1,64.5c1.8,0.7,3,0.8,4.5-0.1
C249,64,247.8,64,246.1,64.5z M246.1,64.5c1.8,0.7,3,0.8,4.5-0.1C249,64,247.8,64,246.1,64.5z M195.4,49.7c0.1-0.1,0.2-0.3,0.4-0.5
C195.6,49.4,195.5,49.5,195.4,49.7z M178.4,39.8L178.4,39.8l4.7,0.1v-0.1H178.4z M178.4,39.8L178.4,39.8l4.7,0.1v-0.1H178.4z
M195.4,49.7c0.1-0.1,0.2-0.3,0.4-0.5C195.6,49.4,195.5,49.5,195.4,49.7z M246.1,64.5c1.8,0.7,3,0.8,4.5-0.1
C249,64,247.8,64,246.1,64.5z M246.1,64.5c1.8,0.7,3,0.8,4.5-0.1C249,64,247.8,64,246.1,64.5z M195.4,49.7c0.1-0.1,0.2-0.3,0.4-0.5
C195.6,49.4,195.5,49.5,195.4,49.7z M178.4,39.8L178.4,39.8l4.7,0.1v-0.1H178.4z M75.4,11C75.4,11,75.4,11,75.4,11
C75.5,11,75.5,11,75.4,11C75.5,11,75.4,11,75.4,11z M178.4,39.8L178.4,39.8l4.7,0.1v-0.1H178.4z M195.4,49.7
c0.1-0.1,0.2-0.3,0.4-0.5C195.6,49.4,195.5,49.5,195.4,49.7z M246.1,64.5c1.8,0.7,3,0.8,4.5-0.1C249,64,247.8,64,246.1,64.5z
M246.1,64.5c1.8,0.7,3,0.8,4.5-0.1C249,64,247.8,64,246.1,64.5z M195.4,49.7c0.1-0.1,0.2-0.3,0.4-0.5
C195.6,49.4,195.5,49.5,195.4,49.7z M178.4,39.8L178.4,39.8l4.7,0.1v-0.1H178.4z M75.4,11C75.4,11,75.4,11,75.4,11
C75.5,11,75.5,11,75.4,11C75.5,11,75.4,11,75.4,11z M178.4,39.8L178.4,39.8l4.7,0.1v-0.1H178.4z M195.4,49.7
c0.1-0.1,0.2-0.3,0.4-0.5C195.6,49.4,195.5,49.5,195.4,49.7z M246.1,64.5c1.8,0.7,3,0.8,4.5-0.1C249,64,247.8,64,246.1,64.5z
M246.1,64.5c1.8,0.7,3,0.8,4.5-0.1C249,64,247.8,64,246.1,64.5z M195.4,49.7c0.1-0.1,0.2-0.3,0.4-0.5
C195.6,49.4,195.5,49.5,195.4,49.7z M178.4,39.8L178.4,39.8l4.7,0.1v-0.1H178.4z M75.4,11C75.4,11,75.4,11,75.4,11
C75.5,11,75.5,11,75.4,11C75.5,11,75.4,11,75.4,11z M178.4,39.8L178.4,39.8l4.7,0.1v-0.1H178.4z M195.4,49.7
c0.1-0.1,0.2-0.3,0.4-0.5C195.6,49.4,195.5,49.5,195.4,49.7z M246.1,64.5c1.8,0.7,3,0.8,4.5-0.1C249,64,247.8,64,246.1,64.5z
M246.1,64.5c1.8,0.7,3,0.8,4.5-0.1C249,64,247.8,64,246.1,64.5z M195.4,49.7c0.1-0.1,0.2-0.3,0.4-0.5
C195.6,49.4,195.5,49.5,195.4,49.7z M178.4,39.8L178.4,39.8l4.7,0.1v-0.1H178.4z M75.4,11C75.4,11,75.4,11,75.4,11
C75.5,11,75.5,11,75.4,11C75.5,11,75.4,11,75.4,11z M178.4,39.8L178.4,39.8l4.7,0.1v-0.1H178.4z M195.4,49.7
c0.1-0.1,0.2-0.3,0.4-0.5C195.6,49.4,195.5,49.5,195.4,49.7z M246.1,64.5c1.8,0.7,3,0.8,4.5-0.1C249,64,247.8,64,246.1,64.5z
M246.1,64.5c1.8,0.7,3,0.8,4.5-0.1C249,64,247.8,64,246.1,64.5z M195.4,49.7c0.1-0.1,0.2-0.3,0.4-0.5
C195.6,49.4,195.5,49.5,195.4,49.7z M178.4,39.8L178.4,39.8l4.7,0.1v-0.1H178.4z M75.4,11C75.4,11,75.4,11,75.4,11
C75.5,11,75.5,11,75.4,11C75.5,11,75.4,11,75.4,11z M178.4,39.8L178.4,39.8l4.7,0.1v-0.1H178.4z M195.4,49.7
c0.1-0.1,0.2-0.3,0.4-0.5C195.6,49.4,195.5,49.5,195.4,49.7z M246.1,64.5c1.8,0.7,3,0.8,4.5-0.1C249,64,247.8,64,246.1,64.5z
M246.1,64.5c1.8,0.7,3,0.8,4.5-0.1C249,64,247.8,64,246.1,64.5z M195.4,49.7c0.1-0.1,0.2-0.3,0.4-0.5
C195.6,49.4,195.5,49.5,195.4,49.7z M178.4,39.8L178.4,39.8l4.7,0.1v-0.1H178.4z M75.4,11C75.4,11,75.4,11,75.4,11
C75.5,11,75.5,11,75.4,11C75.5,11,75.4,11,75.4,11z M178.4,39.8L178.4,39.8l4.7,0.1v-0.1H178.4z M195.4,49.7
c0.1-0.1,0.2-0.3,0.4-0.5C195.6,49.4,195.5,49.5,195.4,49.7z M246.1,64.5c1.8,0.7,3,0.8,4.5-0.1C249,64,247.8,64,246.1,64.5z
M246.1,64.5c1.8,0.7,3,0.8,4.5-0.1C249,64,247.8,64,246.1,64.5z M195.4,49.7c0.1-0.1,0.2-0.3,0.4-0.5
C195.6,49.4,195.5,49.5,195.4,49.7z M178.4,39.8L178.4,39.8l4.7,0.1v-0.1H178.4z M75.4,11C75.4,11,75.4,11,75.4,11
C75.5,11,75.5,11,75.4,11C75.5,11,75.4,11,75.4,11z M34.1,40.6h-4.3c0,0.1,0,0.1,0,0.2h4.3C34.1,40.7,34.1,40.6,34.1,40.6z
M178.4,39.8L178.4,39.8l4.7,0.1v-0.1H178.4z M195.4,49.7c0.1-0.1,0.2-0.3,0.4-0.5C195.6,49.4,195.5,49.5,195.4,49.7z M246.1,64.5
c1.8,0.7,3,0.8,4.5-0.1C249,64,247.8,64,246.1,64.5z M246.1,64.5c1.8,0.7,3,0.8,4.5-0.1C249,64,247.8,64,246.1,64.5z M195.4,49.7
c0.1-0.1,0.2-0.3,0.4-0.5C195.6,49.4,195.5,49.5,195.4,49.7z M178.4,39.8L178.4,39.8l4.7,0.1v-0.1H178.4z M34.1,40.6h-4.3
c0,0.1,0,0.1,0,0.2h4.3C34.1,40.7,34.1,40.6,34.1,40.6z M75.4,11C75.4,11,75.4,11,75.4,11C75.5,11,75.5,11,75.4,11
C75.5,11,75.4,11,75.4,11z M34.1,40.6h-4.3c0,0.1,0,0.1,0,0.2h4.3C34.1,40.7,34.1,40.6,34.1,40.6z M178.4,39.8L178.4,39.8l4.7,0.1
v-0.1H178.4z M195.4,49.7c0.1-0.1,0.2-0.3,0.4-0.5C195.6,49.4,195.5,49.5,195.4,49.7z M246.1,64.5c1.8,0.7,3,0.8,4.5-0.1
C249,64,247.8,64,246.1,64.5z M246.1,64.5c1.8,0.7,3,0.8,4.5-0.1C249,64,247.8,64,246.1,64.5z M195.4,49.7c0.1-0.1,0.2-0.3,0.4-0.5
C195.6,49.4,195.5,49.5,195.4,49.7z M178.4,39.8L178.4,39.8l4.7,0.1v-0.1H178.4z M34.1,40.6h-4.3c0,0.1,0,0.1,0,0.2h4.3
C34.1,40.7,34.1,40.6,34.1,40.6z M75.4,11C75.4,11,75.4,11,75.4,11C75.5,11,75.5,11,75.4,11C75.5,11,75.4,11,75.4,11z M34.1,40.6
h-4.3c0,0.1,0,0.1,0,0.2h4.3C34.1,40.7,34.1,40.6,34.1,40.6z M178.4,39.8L178.4,39.8l4.7,0.1v-0.1H178.4z M195.4,49.7
c0.1-0.1,0.2-0.3,0.4-0.5C195.6,49.4,195.5,49.5,195.4,49.7z M246.1,64.5c1.8,0.7,3,0.8,4.5-0.1C249,64,247.8,64,246.1,64.5z
M246.1,64.5c1.8,0.7,3,0.8,4.5-0.1C249,64,247.8,64,246.1,64.5z M195.4,49.7c0.1-0.1,0.2-0.3,0.4-0.5
C195.6,49.4,195.5,49.5,195.4,49.7z M178.4,39.8L178.4,39.8l4.7,0.1v-0.1H178.4z M34.1,40.6h-4.3c0,0.1,0,0.1,0,0.2h4.3
C34.1,40.7,34.1,40.6,34.1,40.6z M75.4,11C75.4,11,75.4,11,75.4,11C75.5,11,75.5,11,75.4,11C75.5,11,75.4,11,75.4,11z M34.1,40.6
h-4.3c0,0.1,0,0.1,0,0.2h4.3C34.1,40.7,34.1,40.6,34.1,40.6z M178.4,39.8L178.4,39.8l4.7,0.1v-0.1H178.4z M195.4,49.7
c0.1-0.1,0.2-0.3,0.4-0.5C195.6,49.4,195.5,49.5,195.4,49.7z M246.1,64.5c1.8,0.7,3,0.8,4.5-0.1C249,64,247.8,64,246.1,64.5z
M246.1,64.5c1.8,0.7,3,0.8,4.5-0.1C249,64,247.8,64,246.1,64.5z M195.4,49.7c0.1-0.1,0.2-0.3,0.4-0.5
C195.6,49.4,195.5,49.5,195.4,49.7z M178.4,39.8L178.4,39.8l4.7,0.1v-0.1H178.4z M34.1,40.6h-4.3c0,0.1,0,0.1,0,0.2h4.3
C34.1,40.7,34.1,40.6,34.1,40.6z M75.4,11C75.4,11,75.4,11,75.4,11C75.5,11,75.5,11,75.4,11C75.5,11,75.4,11,75.4,11z M34.1,40.6
h-4.3c0,0.1,0,0.1,0,0.2h4.3C34.1,40.7,34.1,40.6,34.1,40.6z M178.4,39.8L178.4,39.8l4.7,0.1v-0.1H178.4z M195.4,49.7
c0.1-0.1,0.2-0.3,0.4-0.5C195.6,49.4,195.5,49.5,195.4,49.7z M246.1,64.5c1.8,0.7,3,0.8,4.5-0.1C249,64,247.8,64,246.1,64.5z
M246.1,64.5c1.8,0.7,3,0.8,4.5-0.1C249,64,247.8,64,246.1,64.5z M195.4,49.7c0.1-0.1,0.2-0.3,0.4-0.5
C195.6,49.4,195.5,49.5,195.4,49.7z M178.4,39.8L178.4,39.8l4.7,0.1v-0.1H178.4z M34.1,40.6h-4.3c0,0.1,0,0.1,0,0.2h4.3
C34.1,40.7,34.1,40.6,34.1,40.6z M75.4,11C75.4,11,75.4,11,75.4,11C75.5,11,75.5,11,75.4,11C75.5,11,75.4,11,75.4,11z M34.1,40.6
h-4.3c0,0.1,0,0.1,0,0.2h4.3C34.1,40.7,34.1,40.6,34.1,40.6z M178.4,39.8L178.4,39.8l4.7,0.1v-0.1H178.4z M195.4,49.7
c0.1-0.1,0.2-0.3,0.4-0.5C195.6,49.4,195.5,49.5,195.4,49.7z M246.1,64.5c1.8,0.7,3,0.8,4.5-0.1C249,64,247.8,64,246.1,64.5z
M246.1,64.5c1.8,0.7,3,0.8,4.5-0.1C249,64,247.8,64,246.1,64.5z M195.4,49.7c0.1-0.1,0.2-0.3,0.4-0.5
C195.6,49.4,195.5,49.5,195.4,49.7z M178.4,39.8L178.4,39.8l4.7,0.1v-0.1H178.4z M34.1,40.6h-4.3c0,0.1,0,0.1,0,0.2h4.3
C34.1,40.7,34.1,40.6,34.1,40.6z M75.4,11C75.4,11,75.4,11,75.4,11C75.5,11,75.5,11,75.4,11C75.5,11,75.4,11,75.4,11z M34.1,40.6
h-4.3c0,0.1,0,0.1,0,0.2h4.3C34.1,40.7,34.1,40.6,34.1,40.6z M178.4,39.8L178.4,39.8l4.7,0.1v-0.1H178.4z M195.4,49.7
c0.1-0.1,0.2-0.3,0.4-0.5C195.6,49.4,195.5,49.5,195.4,49.7z M246.1,64.5c1.8,0.7,3,0.8,4.5-0.1C249,64,247.8,64,246.1,64.5z
M246.1,64.5c1.8,0.7,3,0.8,4.5-0.1C249,64,247.8,64,246.1,64.5z M195.4,49.7c0.1-0.1,0.2-0.3,0.4-0.5
C195.6,49.4,195.5,49.5,195.4,49.7z M178.4,39.8L178.4,39.8l4.7,0.1v-0.1H178.4z M34.1,40.6h-4.3c0,0.1,0,0.1,0,0.2h4.3
C34.1,40.7,34.1,40.6,34.1,40.6z M75.4,11C75.4,11,75.4,11,75.4,11C75.5,11,75.5,11,75.4,11C75.5,11,75.4,11,75.4,11z M8,116.6H3.3
c0,0.1,0,0.1,0,0.2h4.7C8.1,116.7,8,116.7,8,116.6z M34.1,40.6h-4.3c0,0.1,0,0.1,0,0.2h4.3C34.1,40.7,34.1,40.6,34.1,40.6z
M178.4,39.8L178.4,39.8l4.7,0.1v-0.1H178.4z M195.4,49.7c0.1-0.1,0.2-0.3,0.4-0.5C195.6,49.4,195.5,49.5,195.4,49.7z M246.1,64.5
c1.8,0.7,3,0.8,4.5-0.1C249,64,247.8,64,246.1,64.5z M246.1,64.5c1.8,0.7,3,0.8,4.5-0.1C249,64,247.8,64,246.1,64.5z M195.4,49.7
c0.1-0.1,0.2-0.3,0.4-0.5C195.6,49.4,195.5,49.5,195.4,49.7z M178.4,39.8L178.4,39.8l4.7,0.1v-0.1H178.4z M34.1,40.6h-4.3
c0,0.1,0,0.1,0,0.2h4.3C34.1,40.7,34.1,40.6,34.1,40.6z M75.4,11C75.4,11,75.4,11,75.4,11C75.5,11,75.5,11,75.4,11
C75.5,11,75.4,11,75.4,11z M8,116.6H3.3c0,0.1,0,0.1,0,0.2h4.7C8.1,116.7,8,116.7,8,116.6z M34.1,40.6h-4.3c0,0.1,0,0.1,0,0.2h4.3
C34.1,40.7,34.1,40.6,34.1,40.6z M178.4,39.8L178.4,39.8l4.7,0.1v-0.1H178.4z M195.4,49.7c0.1-0.1,0.2-0.3,0.4-0.5
C195.6,49.4,195.5,49.5,195.4,49.7z M246.1,64.5c1.8,0.7,3,0.8,4.5-0.1C249,64,247.8,64,246.1,64.5z M246.1,64.5
c1.8,0.7,3,0.8,4.5-0.1C249,64,247.8,64,246.1,64.5z M195.4,49.7c0.1-0.1,0.2-0.3,0.4-0.5C195.6,49.4,195.5,49.5,195.4,49.7z
M178.4,39.8L178.4,39.8l4.7,0.1v-0.1H178.4z M34.1,40.6h-4.3c0,0.1,0,0.1,0,0.2h4.3C34.1,40.7,34.1,40.6,34.1,40.6z M75.4,11
C75.4,11,75.4,11,75.4,11C75.5,11,75.5,11,75.4,11C75.5,11,75.4,11,75.4,11z M8,116.6H3.3c0,0.1,0,0.1,0,0.2h4.7
C8.1,116.7,8,116.7,8,116.6z M34.1,40.6h-4.3c0,0.1,0,0.1,0,0.2h4.3C34.1,40.7,34.1,40.6,34.1,40.6z M178.4,39.8L178.4,39.8
l4.7,0.1v-0.1H178.4z M195.4,49.7c0.1-0.1,0.2-0.3,0.4-0.5C195.6,49.4,195.5,49.5,195.4,49.7z M246.1,64.5c1.8,0.7,3,0.8,4.5-0.1
C249,64,247.8,64,246.1,64.5z M246.1,64.5c1.8,0.7,3,0.8,4.5-0.1C249,64,247.8,64,246.1,64.5z M195.4,49.7c0.1-0.1,0.2-0.3,0.4-0.5
C195.6,49.4,195.5,49.5,195.4,49.7z M178.4,39.8L178.4,39.8l4.7,0.1v-0.1H178.4z M34.1,40.6h-4.3c0,0.1,0,0.1,0,0.2h4.3
C34.1,40.7,34.1,40.6,34.1,40.6z M75.4,11C75.4,11,75.4,11,75.4,11C75.5,11,75.5,11,75.4,11C75.5,11,75.4,11,75.4,11z M34.1,40.6
h-4.3c0,0.1,0,0.1,0,0.2h4.3C34.1,40.7,34.1,40.6,34.1,40.6z M178.4,39.8L178.4,39.8l4.7,0.1v-0.1H178.4z M195.4,49.7
c0.1-0.1,0.2-0.3,0.4-0.5C195.6,49.4,195.5,49.5,195.4,49.7z M246.1,64.5c1.8,0.7,3,0.8,4.5-0.1C249,64,247.8,64,246.1,64.5z
M246.1,64.5c1.8,0.7,3,0.8,4.5-0.1C249,64,247.8,64,246.1,64.5z M195.4,49.7c0.1-0.1,0.2-0.3,0.4-0.5
C195.6,49.4,195.5,49.5,195.4,49.7z M178.4,39.8L178.4,39.8l4.7,0.1v-0.1H178.4z M34.1,40.6h-4.3c0,0.1,0,0.1,0,0.2h4.3
C34.1,40.7,34.1,40.6,34.1,40.6z M75.4,11C75.4,11,75.4,11,75.4,11C75.5,11,75.5,11,75.4,11C75.5,11,75.4,11,75.4,11z M34.1,40.6
h-4.3c0,0.1,0,0.1,0,0.2h4.3C34.1,40.7,34.1,40.6,34.1,40.6z M178.4,39.8L178.4,39.8l4.7,0.1v-0.1H178.4z M195.4,49.7
c0.1-0.1,0.2-0.3,0.4-0.5C195.6,49.4,195.5,49.5,195.4,49.7z M246.1,64.5c1.8,0.7,3,0.8,4.5-0.1C249,64,247.8,64,246.1,64.5z
M246.1,64.5c1.8,0.7,3,0.8,4.5-0.1C249,64,247.8,64,246.1,64.5z M195.4,49.7c0.1-0.1,0.2-0.3,0.4-0.5
C195.6,49.4,195.5,49.5,195.4,49.7z M178.4,39.8L178.4,39.8l4.7,0.1v-0.1H178.4z M34.1,40.6h-4.3c0,0.1,0,0.1,0,0.2h4.3
C34.1,40.7,34.1,40.6,34.1,40.6z M75.4,11C75.4,11,75.4,11,75.4,11C75.5,11,75.5,11,75.4,11C75.5,11,75.4,11,75.4,11z M34.1,40.6
h-4.3c0,0.1,0,0.1,0,0.2h4.3C34.1,40.7,34.1,40.6,34.1,40.6z M178.4,39.8L178.4,39.8l4.7,0.1v-0.1H178.4z M195.4,49.7
c0.1-0.1,0.2-0.3,0.4-0.5C195.6,49.4,195.5,49.5,195.4,49.7z M246.1,64.5c1.8,0.7,3,0.8,4.5-0.1C249,64,247.8,64,246.1,64.5z
M246.1,64.5c1.8,0.7,3,0.8,4.5-0.1C249,64,247.8,64,246.1,64.5z M195.4,49.7c0.1-0.1,0.2-0.3,0.4-0.5
C195.6,49.4,195.5,49.5,195.4,49.7z M178.4,39.8L178.4,39.8l4.7,0.1v-0.1H178.4z M34.1,40.6h-4.3c0,0.1,0,0.1,0,0.2h4.3
C34.1,40.7,34.1,40.6,34.1,40.6z M75.4,11C75.4,11,75.4,11,75.4,11C75.5,11,75.5,11,75.4,11C75.5,11,75.4,11,75.4,11z M272.5,38
c4.2,0.1,8.5,0.2,12.7-0.2v-2.9c-0.8-1-1.8-1.2-3-1.2c-2.2,0-4.5,0-6.7,0c-1.4,0-2-0.5-1.2-1.9c0.7-1.3,0.9-2.5-0.5-3.4
c-1.2-0.8-1-1.5-0.5-2.6c0.9-1.9,0.3-3-1.8-3.5c-1.2-0.3-2.4-0.2-3.6-0.1c-1,0.2-1.3-0.2-1.6-1.2c-0.4-1.5-0.2-3-0.3-4.5
c-0.1-1.4-0.6-2.2-1.6-2.1c-0.2,0-0.3,0-0.5,0.1c-2,0.4-4-1-5.9,0.4c-0.3,0.2-1,0-1.4-0.2c-2.6-1.5-4.6,0.1-6.6,1.5
c0.8,0.7,1.7,1.1,2.7,1c2.9-0.4,5.9,0.3,9.1-0.1c-2,1.8-3.6,2.4-6.3,1.4c-1.9-0.7-4.5-1.6-6.8-0.8c-1.9,0.6-3.6-0.1-5.8-0.1
c2.5-1.1,5.1,0.6,7-1.5c0,0,0,0.1,0.1,0.1c0.2-0.7,0.8-1.4-0.1-2c-1.4-0.9-2.8-0.3-4,0.1c0.7-0.3,0.9-1,1.1-1.8
c0.2-0.9,0.9-1.6,1.8-1.8c3.7-0.8,7.3,0,10.8,1.2c3,1.1,6.2,0.7,7.8-1.8c0.9-1.4,1.9-3.1,0.5-4.6c-1.5-1.6-2.7-0.1-3.9,0.7
c-1.6,1.1-2,0.9-2.4-0.9c-0.5-1.9-2-2.5-3.6-1.3c-0.6,0.5-1.2,1.1-1.9,1.5c-2.1,1.2-4.9-0.2-5.2-2.6c-0.2-1.2-0.7-2-1.8-2.3
c-1.2-0.3-2.3,0.2-2.6,1.1c-0.9,2.2-2.8,2.8-4.7,3.6c-1,0.4-1.6,0.2-2.4-0.5c-2.9-2.7-4.3-2.5-6.3,0.8c-0.9,1.5-1.6,1.6-2.7,0.2
c-1.8-2.4-3.7-2.5-5.7-0.3c-1.8,2.1-2.5,2.1-4.3,0c-1.5-1.7-2.7-1.9-4.6-0.6c-0.6,0.4-1,1.1-1.5,1.5c-1.2,0.9-2.3,0.9-3.4-0.3
c-2.4-2.9-3.5-2.9-6.3-0.1c-1.3,1.3-2.3,1.3-3.4,0c-2.4-2.9-4.7-2.6-6.4,0.7c-0.3,0.6-0.6,1.2-0.9,1.9c0.3,0.2,0.4,0.6,0.5,0.9
c0,0.7-0.5,0.7-0.9,0.7c-0.1,1,0.3,1.5,1.9,1.6c0.9,0.1,1.8,0,2.7,0c-0.1,0-0.1,0-0.1,0c-2.2,0.3-4.5,0.1-6.5-1.1
c-0.1,0.2-0.3,0.3-0.4,0.5c-0.2-0.1-0.3-0.3-0.5-0.3c-0.2,0-0.3-0.2-0.4-0.4c-0.7,0-1.3-0.1-2,0.1c-0.8,0.2-1.3,1.1-0.5,1.6
c0.1,0,0.2,0.1,0.2,0.1c-0.5,0.1-0.9,0.4-1.3,1c-0.5,0.8-1.1,1.4-1.8,1.8c-0.5,0.3-0.8,0.8-0.6,1.4c0.2,0.6,0.7,0.9,1.3,1
c0.6,0.1,1.3,0,1.8,0c-0.8,0.2-1.7,0.2-2.6,0.2c-3.9,0.1-7.8,0-11.7-0.9c-0.7-0.2-1.3-0.1-1.9,0.1c1.1-1.2,0.1-2.5,0-3.9
c1-0.3,2.7,0.2,2.5-1.5c-0.1-0.7-0.4-0.9-0.7-0.9c1.1-0.1,2.2-0.2,3.4-0.5c0.9-0.2,1.6-0.6,1.8-1.7c0.3-1.9-1.4-2.5-2.3-3.7
c-0.7-0.9-1.8-0.8-2.6-0.2c-1.2,0.9-2.1,0.6-3.1-0.4c-2.7-2.7-3.8-2.5-5.8,0.7c-0.6,1-1.2,1.4-2.2,0.5c-3-2.6-3.1-2.6-6.3,0.2
c-1.3,1.2-2.5,1.1-3.8-0.2c-2.7-2.8-3.3-2.8-6.1,0c-1.5,1.5-2.9,1.4-4.3-0.1c-2.1-2.4-3.4-2.4-5.6,0c-1.5,1.6-2.7,1.6-4.2,0
c-2.3-2.4-3.4-2.4-5.7-0.2c-1,1-1.7,1.3-2.5-0.2c-1.7-3.1-3.2-3.2-5.7-0.7c-0.7,0.7-1.6,1.6-2.4,1c-2.1-1.6-3.5-0.4-5,0.8
c-1.9,1.5-1.7,3.7,0.5,4.7c1.1,0.5,2,0.9,2.7,1.9c0.2,0.1,0.3,0.2,0.5,0.3c0,0,0,0,0.1,0c0.3,0.2,0.6,0.3,0.8,0.5
c0.3,0.3,0.6,0.6,0.8,0.9c0.7,1.1,0.2,1.7-1.5,2.2c-0.5,0.1-1,0.4-1.1,0.8c-0.7,2.2-2.6,2.2-4.3,2.2c-4.1,0.1-8.1,0.2-12.2-0.2
c-0.5,0-0.9,0-1.4,0c0.8-0.3,1.8,0.3,2.3-0.6c0.5-0.9,0.5-1.7-0.9-1.7c1.6-0.9,0.3-3.5,2.4-4.1c0.6-0.2,0.9-0.9,0.8-1.6
c-0.2-0.9-1-0.9-1.7-0.9c-0.6,0-1.2,0.1-1.9,0.3c-1.9,0.4-3.7,1.5-5.6,1.3c-0.2,0-0.5,0-0.7,0c3.6,0,3.9-0.7,2.8-4.9
c-0.4-1.6-1.6-2.8-3.3-3.1c-1.3-0.3-2.5,0-3.3,1.3C84,7.6,83,7.6,81,5.6c-2.1-2.2-3.5-2.2-5.5,0.1c-1.5,1.7-2.4,1.8-4.2,0.2
c-0.2-0.2-0.5-0.5-0.7-0.7c-2-1.7-3.4-1.5-5,0.5c-1.2,1.6-2.5,1.8-4.1,0.4c-0.5-0.4-0.9-0.9-1.4-1.3c-1.7-1.2-3.1-1-4.4,0.5
c-1.5,1.8-1.9,1.8-3.3-0.3c-2-2.9-4.1-3-6.3-0.3c-0.8,1-1.5,1.2-2.6,0.6c-2.1-1-4.1-2-5.1-4.3c-0.6-1.3-1.9-1.4-3.1-1.1
C34,0.6,34,1.8,34.2,3c0.1,0.5,0.4,1,0.3,1.6c-0.1,2.4,1.9,3.8,2.8,5.7c0.2,0.5,1,0.4,1.6,0.2c-1.5,2.1-1.1,3.3,1,4
c-0.8-0.3-1.9-0.5-3.1,0.4c-1.3,0.9-2.9,0.7-4.4,0.5c-3.3-0.4-6.5-1.3-9.8-1.1c-0.5,0-1,0.1-1.5,0.1c-0.4,0.1-0.8,0-1.2,0.1h-0.1
c-0.3,0.1-0.6,0.3-0.8,0.7c-0.4,1,0.3,1.6,0.9,2.3c0.5,0.5,1,0.8,1.7,0.9c-0.5,0-0.9,0.1-1.4,0.1c-1,0-1.3,0.8-1.4,1.7
c-0.1,0.9,0.1,1.7,0.2,2.5c-2.2-0.2-4.3-0.2-6.3,0c-1.2,0.2-1.9,1-1.7,2.2c0.1,1.1,0.7,2,2,2h0.5c-1.2,0.6-1.9,2.2-3,3
c-0.9,0.7-0.1,2.5,1.2,2.7c0.2,0.1,0.4,0.1,0.6,0.1c-0.1,0-0.2,0.1-0.3,0.2c-1.2,1.5-2.8,1.2-4.4,1.2c-1.6,0-3.2,0-4.8,0
c-1.1,0-2.1,0.2-2.8,1.2v3.4c0.8,1.1,2,1.2,3.2,1.2c3.5,0,7,0,10.6,0c2.5,0.1,3.2,0.9,3.2,3.4c0,0.7-0.1,1.4-0.2,2.1
c-0.1,0.8,0.2,1.7,0.9,1.8c0.2,0,0.3,0,0.5,0.1c0.6,0.2,1.2,0.4,1.8,0.8c1.2,0.7,2.3,1.7,3.7,2.1c3.5,1.2,4,1.8,4,5.5
c0,7.3,0,14.5,0,21.8c0,1.3-0.2,2.6,0.1,3.8c0.2,0.9,0.3,1.9,0.4,2.8c0.1,2.1,0,4.3,0,6.5v0.6c0,0.8,0,1.6,0,2.4
c-1-0.1-1.8-0.4-2.6-0.4c-0.7,0-1.5,0-1.9,0.8c-0.5,0.9,0.1,1.4,0.8,1.7c0.8,0.3,0.1,0.3,0,0.4c-1,0.8-0.4,1.7-0.1,2.6
c0.7,1.8,0.8,3.8-0.6,5.2c-1.4,1.3-3.2,1-4.9,0c-1-0.6-2.4-0.9-3.1,0.1c-1.5,1.8-3.5,1.7-5.5,1.7c-2.4,0-4.8,0-7.2,0
c-1.2,0-2.2,0.2-3,1.2v1c5.9,0.2,11.7,0.5,17.6-0.4c2.4-0.4,4.9-0.1,7.4-0.2c0.6,0,1.1,0.2,1.1,0.9c0,0.8-0.5,1.1-1.2,1.1
c-2.1,0-4.1,0-6.2,0.4c2,0,4,0,5.9,0c0.7,0,1.5-0.1,1.6,1c0,1.1-0.7,1.1-1.5,1.1c-2.1,0-4.2,0-6.2,0c-0.4,0-1.3-0.1-1.3-0.3
c-0.5-2.6-2.6-1.6-4-1.6c-4.4-0.1-8.8,0-13.2,0v5.3c2.9,0,5.8,0,8.6-0.1c1.7-0.1,2.2,0.9,2.1,2.1c0,1.4-1.3,0.7-2,0.8
c-1.1,0.2-2.1,0.1-3.2,0.7c-1.3,0.8-2.8,0.7-3.6-1c-0.4-0.8-0.9-1.5-1.9-1.6c0,1.3,0.1,2.7,0,4c-0.1,1.3,0.1,1.8,1.7,1.8
c9.9-0.1,19.7,0,29.6,0c0.2-0.3,0.4-0.7,0.5-1c0.2-1.1,0.1-2.2,1.7-0.7c0.6,0.5,2.2,0,2.2,1.7h1c0.7-0.6,1.2-1.3,1.4-2.1
c0.2-0.8,0.5-1.3,1.3-1.5c3-0.6,5-2.9,7.4-4.4c0.9-0.6,1.6-1.3,1.9-2.4c0.4-1.1,1.1-2.9,0.2-3.3c-1.6-0.8-2.6-2.8-4.5-2.9
c-0.1,0-0.3,0-0.4,0c0.2-0.1,0.4-0.2,0.5-0.6c0.1-0.5-0.1-1-0.5-1.3c-0.6-0.5-1.3-0.4-2-0.3c-3.6,0.7-7.3,0.2-11,0.3
c-0.6,0-1.4-0.1-1.5-0.9c0-0.8,0.8-1,1.4-1c2.5,0.1,3.3-2.3,5.1-3.2c0.6-0.3,0.8-1.2,0.5-1.7c-1.2-2.7-0.5-5.5-0.9-8.2
c1.6,1.3,2.8,0.6,3.8-0.8c1.7-2.3,1.8-4.9,1.6-7.6c-0.1-1.2,0-2.7-1.5-3.2c-1.7-0.5-2.2,0.9-2.9,1.9c-0.1,0.1-0.3,0.1-0.6,0
c-0.4-2.1-0.1-4.4-0.2-6.6c0-1.5,0.6-2.4,2.2-2.5c1.3-0.1,2.6-0.5,2.4-2c-0.2-1.4,0.4-3.4-2.1-3.7c-0.5,0-1.2-0.3-1.1-1
c0-0.7,0.6-0.9,1.2-1c2.2-0.2,2.7-1.6,2.7-3.5c0-1.9,0-3.8,0-5.8c0-0.7,0.2-1.5,1.1-1.7c1-0.1,1.4,0.7,1.6,1.5
c0.2,0.6,0.2,1.3,0.2,1.9c0,2.1,0,4.2,0,6.2c0,10,0.1,20,0,29.9c0,1.7-0.4,2.8-2.4,2.7c-0.1,0-0.1,0-0.1,0c0,0,0,0-0.1,0
c-1,0.1-2.1,0.1-2.1,1.4c0,1.1,1.1,1.2,2,1.3c0.9,0.1,1.8,0.2,2.8,0.5c-0.7,2.5-0.6,4.8,0.4,7.1c0.8,1.7,2,3.1,3.7,2
c1.2-0.8,2.4-1.3,3.6-1.7c0.7-0.2,1.4-0.4,2.1-0.6c0,0,0,0,0,0c0.8-0.2,1.7-0.4,2.6-0.5c0.1,0,0.3-0.2,0.4-0.3
c1.2-0.6,4.5,0.1,5.3,1.2c1.4,1.8,2.4,1.7,3.6-0.3c1-1.6,4.4-2.3,5.3-0.9c0.8,1.3,2,1.6,3.1,2.2c1.4,0.8,2.9,0.3,3-1.3
c0.1-1.5,1-1.6,2.1-1.7c2.3-0.3,2.5,1.3,2.6,3c0,0,0,0,0.1,0.1c0,0,0,0,0,0.1c0.1,0.1,0.2,0.3,0.4,0.4c2.8,0.4,5.6,0.9,8.4-0.2
c0.6-0.2,1.2-0.6,1.1-1.3c-0.1-0.6-0.6-0.9-1.1-1.1c-0.7-0.2-1.6,0-2.2-0.7c0.8-0.4,1.7-0.4,2.6-0.3c0.9,0.1,1.9,0.1,2-1
c0.2-1.2-0.6-1.7-1.7-1.9c-0.9-0.1-1.8-0.1-2.6-0.1c-3.6,0-7.2,0-10.8,0c-1.1,0-2.2-0.1-3.1-1.1c-1.7-2-1.7-2-3.4-0.1
c-1.3,1.5-3,1.2-4.7,1c-1.6-0.3-1.8-1.6-1.8-3c0-1.9-0.1-3.8,0-5.8c0-0.7,0.1-1.7,1-1.6h0.1c0.6,0,1.4-0.2,2-0.4
c0.5-0.1,1-0.1,1.4,0.2c2,1.5,3.9,1.1,5.8,0.5c0.3-0.1,0.7-0.2,1-0.3c0.4-0.1,0.8-0.2,1.2-0.3c1.5-0.3,2.9-0.1,4.1,1.1
c0.2,0.2,0.7,0.3,0.9,0.1c0.7-0.5,1.4-0.8,2.2-0.9c0.7-0.1,1.5-0.2,2.2-0.3c0.5-0.1,1-0.2,1.5-0.3c1.5-0.5,2.2-2,2.3-3.3
c0.1-1.4-1.5-1.4-2.5-1.7c-0.6-0.2-1.2-0.3-1.9-0.3c0.2,0,0.4,0,0.6,0c0.8,0,1.6,0,2.4-0.1c1.2-0.1,2-0.7,2-2
c0-1.2-0.7-1.9-1.9-2.1c-1-0.1-2.1-0.1-3.1-0.1c-7.3,0-14.6,0.1-21.8,0c-2.8,0-3.3-0.7-3.4-3.4c0-0.5,0-1,0-1.4
c-0.2-1.2,0.4-3.1-1.4-3c-1.8,0-1.3,1.9-1.4,3.1c-0.1,7-0.1,13.9,0,20.9c0,0.7,0,1.5,0.2,2.1c0.2,0.6,0.6,1,1.3,0.9
c0.5,0,0.9-0.4,1-0.9c0.3-0.8,0.2-1.7,0.3-2.6c0.1-1.8-0.1-3.6,0.2-5.3c0.7,2.1,0.8,4.2,0.8,6.4c0,3.6-2.6,5.2-6,3.7
c-0.6-0.3-0.9-0.6-0.5-1.3c1.8-3.7,0.5-7.6,0.6-11.4c0-0.8-0.2-1.7-1.2-1.8c-1.2-0.1-1.3,0.9-1.5,1.8c-0.1,1.1,0,2.2-0.3,3.3
c-0.1,0.5-0.4,1-0.9,0.9c-0.6-0.1-0.7-0.6-0.7-1.1c-0.1-0.6-0.1-1.3-0.1-1.9c0-5.2,0.1-10.3-0.1-15.5c1.5,1,2,2.5,2,4.2
c0,1.8-0.1,3.7,0.1,5.5c0.1,0.9,0.2,1.9,1.3,2c1.2,0,1.3-1,1.4-1.9c0-0.2,0.1-0.5,0-0.7c-0.3-5.1,2.8-10.1,1-15.3
c-0.1-0.2,0.1-0.5,0.1-0.7c0.5-2,1.1-3.7,1.9-5.2c-0.9,2.2-1.2,4.7-0.8,7.3c0.1,0.8,0.4,1.6,1.3,1.7c1.1,0.1,1.5-0.6,1.8-1.6
c0.1-0.6,0.2-1.1,0.3-1.7c-0.2,1.5-0.2,3-2.1,3.8c-0.8,0.3-0.1,0.9,0.5,1.1c2.7,1.3,5.5,0.8,8.2,0.4c0.5-0.1,1-0.7,0.7-1.3
c-0.1-0.1-0.2-0.2-0.3-0.2c1.5,0,2-0.2,2.2-1.2c-0.1,1.7,0.8,2.4,2.5,2.5c1.6,0.1,3.2-0.4,4.8-0.5c1.4-0.1,2.2-0.9,2.4-2.1
c0.1,2.1,1.1,2.2,5.8,2.2c3.4,0,4-0.7,4-4.1c0-0.9-0.7-1.9,0-2.7c1.2-1.2,0.7-2.5,0.2-3.8c-0.5-1.1-1.1-2.2-1.7-3
c0.5,0.7,1,1.5,1.5,2.3c0.4,0.8,0.9,1.7,1.5,2.5c0.5,0.7,1.1,1.1,2,0.9c1.7-0.4,3.1-2.1,3.2-4c0.1-1.8-0.1-3.7,0.1-5.5
c0.1-0.6,0.2-1.3,1-1.4c0.8-0.1,1.1,0.6,1.3,1.2c0.5,1.2,0.5,2.5,0.5,3.8c-0.3,12,0.5,24,0.5,36c0,1.2,0,2.4,0.4,3.6
c0.4,1.2,1.3,2.2,2.7,1.9c1.5-0.2,1.4-1.4,1.3-2.6c-0.2-2.1-0.1-4.3-0.3-6.4c0.3,1.3,0.5,2.5,0.6,3.8c0.2,2.1,0.7,3.7,2.9,4.7
c2.8,1.3,3.7,1.1,4.4-1.9c0.9-3.7,1-7.6,0.5-11.2c-1-6.9,0.7-13.9-0.9-20.7c-0.1-0.3-0.1-0.7,0.2-0.9c1.4-1.5,1.1-3.3,1.1-5
c0.1-1.6-0.1-3.2,0.1-4.8c0.1-0.8,0.3-1.7,1.3-1.7c1,0,1.2,0.9,1.4,1.7c0.1,0.7,0.1,1.4,0.1,2.2c-0.3,12.2,0.8,24.3,0.5,36.5
c0,0.2,0,0.5,0,0.7c-0.1,1.2,0.3,2.2,1.1,3c0.1,0.1,0.2,0.2,0.2,0.2c0.1,0.1,0.2,0.1,0.4,0.1h0c0.1,0,0.2,0,0.3,0
c1.2-0.3,1.7-1.2,1.5-2.3c-0.5-4.4,0-8.8-0.3-13.2c-0.2-3.3,0-6.7-1.2-9.9c-0.3-0.7-1.2-2.6,1.1-2.5c-1.7,1.6-1.6,2.8,0.5,3.9
c0.9,0.5,1.4,1.2,1.8,2.2c0.3,1,1,1.6,2,1.1c2.5-1.2,1.4-3.6,1.6-5.5c0.1-1.3,0.1-2.9-1.9-2.9c-0.1,0-0.2,0-0.2,0
c-2-0.3-2.5-1.3-1.9-3.7c0.4,0.5,0.3,1.1,0.4,1.6c0.1,0.8,0.3,1.7,1.3,1.8c0.9,0.1,1.2-0.6,1.6-1.2c0.4-0.8,0.6-1.6,0.9-2.5
c1.2-2.9,2.6-5.7,4.5-7.8c-2.4,2.7-4,6.4-4,9.2c0,1.1-0.2,2.5,1.3,2.7c1.1,0.1,1.1-0.9,1.3-1.7c-0.1,0.7-0.1,1.5-0.2,2.2
c-0.1,1.4,0.4,2.3,1.6,2.5c0.2,0,0.5,0.1,0.8,0.1c1.6,0,3.2-0.1,4.8,0c0.4,0,0.8,0,1.1-0.1c0.9-0.2,1.3-0.9,1.4-1.8
c0.1,1,0.6,1.6,1.5,1.8c0.3,0.1,0.6,0.1,0.9,0.1c1.6-0.1,3.2,0,4.8,0c0.3,0,0.7,0,0.9-0.1c1.1-0.2,1.6-1,1.5-2.4c0-1.1,0-2.3,0-3.4
c0,0.9,0,1.8,0.1,2.7c0.1,2.3,0.9,3.1,3.2,3.1c1.4,0,2.7-0.1,4.1,0.1c1.7,0.2,2.3-0.7,2.4-2.2c0.1-1.5-0.1-3-0.6-4.3
c0.5,0.8,0.1,2.8,1.9,2.3c1.6-0.4,1-2.1,1-3.3c0-0.2-0.1-0.3-0.1-0.5c-0.7-2.5-1.7-4.6-3.1-6.3c1.5,1.8,2.8,4.1,3.9,6.5
c0.4,0.9,0.7,2,1.1,2.9c0.3,0.5,0.7,0.9,1.3,0.8c0.6-0.1,0.9-0.5,1.1-1.1c0.3-0.9-0.1-2,1-2.8c0.5,1.3,0.2,2.9,1,3.9
c0.5,0.7,0.8,1.4,0.9,2.1c0.1,0.4,0.1,0.9,0.1,1.4c0,0.2,0,0.4,0,0.5c-0.7,7-0.2,13.9-0.3,20.9c0,0.9,0,1.8,0.1,2.6
c0.1,0.9,0.4,1.8,1.5,1.8c1.1,0,1.5-0.9,1.6-1.8c0.1-1,0.1-2.1,0.1-3.1c0-11.5,0-23,0-34.6c0-0.8,0-1.6,0.1-2.4
c0.1-0.9,0.2-1.9,1.3-1.9c1.1,0,1.3,1.1,1.4,1.9c0.2,1.7,0.1,3.4,0.1,5c0.1,3.9,0.4,4.1,4.3,4.1c1.4,0,2.1-0.4,2.1-1.6
c0.1,0.8,0.5,1.5,1.1,2.1c1,1.1,1.7,2.2,2.1,3.5v0c0.2,0.5,0.3,1,0.4,1.5c0.1,0.7,0.2,1.5,0.2,2.3c-0.1,3.2-0.9,6.3-0.5,9.8
c-0.6-0.9-0.9-1.7-1.7-1.9c-1.6-0.3-1.6-1.2-1.1-2.5c0.2-0.4,0.1-0.8,0.1-1.2c0.2-3.3-0.7-6.6-0.4-9.9c0.1-1.4-1.6-2.3-3-2
c-2.3,0.6-4.1,3.6-3.3,5.9c1.2,3.2,1.2,6.6,0.9,9.9c-0.3,3.7-0.7,7.5-0.2,11.2c0.3,2.4-0.3,5,1,7.2c0.6,0.9,1.3,1.6,2.3,1
c2.5-1.5,4.6-3.4,4.7-6.6c0-1-0.2-2,0.3-3.1c0.5,2.4-0.2,4.6-0.3,6.8c0,1.2-0.3,2.4,1.2,2.7c1.6,0.2,2.5-0.8,2.8-2.3
c0.3-1.6,0.3-3.2,0.3-4.8c0-11.9,0-23.8,0-35.8c0-1.2-0.4-3.1,1.2-3.2c1.8-0.1,1.6,1.9,1.6,3.2c0,2.8,0,5.5,2,7.9
c0.5,0.6,0.7,1.5,1.7,1.3c0.9-0.1,1.2-0.9,1.5-1.7c0.2-0.8,0.5-1.6,0.9-2.3c-0.1,0.5-0.1,1,0,1.5c0.5,2.1,0.6,4.1,0.7,6.1
c0.1,1.2,0.5,1.9,1.6,2.1c-0.2,0-0.3,0-0.5,0c-1.2,0-1.9,0.3-2,1.5c-0.1,1.3,0.8,1.8,2,1.8c0.1,0,0.3-0.1,0.5-0.1
c1.1,0,2.2,0,3.3,0c-1.3,0-2.6,0-3.9,0.1c-2,0.1-2.4,0.6-2.3,2.9c0.1,2.1,0.7,2.9,2.6,2.8c8.6-0.2,17.2,0.1,25.9-0.1
c0.6,0,1.3-0.1,1.9,0.4c1.5,1,2.3,0.2,2.4-1.3c0.3-2.5,0.2-5,0-7.4c-0.1-0.7-0.3-1.3-1.1-1.4c-0.4-0.1-0.7-0.2-1-0.3
c0.2,0.1,0.5,0.1,0.8,0.1c0.9,0,1.1-0.7,1.3-1.5c0.1-0.6,0.2-1.3,0.1-1.9c-0.2-3-0.9-5.8-2.6-8.2c0.4,0.5,0.7,1,1,1.5
c1.7,3,3.1,6,2.2,9.5c-0.9,3.8,1.6,7.1,1.4,10.8c0,0.9,0.1,2.2,1.4,2.2c1.3,0,1.3-1.2,1.3-2.2c0.2-1.8-0.1-3.7,0.2-5.5
c0.1-0.5,0.2-1.2,1-1.1c0.5,0.1,0.7,0.6,0.8,1.1c0.1,0.7,0.1,1.4,0.1,2.2c0,5,0,10.1,0,15.1c0,0.9,0,1.8,0.2,2.6
c0.1,0.6,0.4,1.3,1.1,1.2c-0.4,0.4-1.1,0.7-2.1,0.7c-0.3,0-0.6,0.2-0.9,0.4c-0.5,0.4-0.8,0.8-0.7,1.4c0,0.2,0.1,0.3,0.2,0.5
c-0.3-0.2-0.5-0.5-0.7-0.9c-0.5-0.9-1.9-0.6-2.5,0.3c-1,1.5-2.4,1.6-4,1.7c-1.2,0.1-2.4,0.3-3.6,0.2c-0.8-0.1-1.5,0.3-1.6,1.1
c-0.3,1.7,1,2.9,1.5,4.4c0.2,0.6,1,0.7,1.7,0.4c0.1-0.1,0.3-0.1,0.4-0.2c1-2.2,3.4-1.6,5.1-2.5c-0.8,0.6-1.7,0.9-2.3,1.7
c-1,1.3-2.7,1.7-4,1.5c-4.7-0.9-9.4,0.7-14-0.5c-0.6-0.1-1.1,0-1.6,0.4c-0.1,0.1-0.1,0.2-0.2,0.3c0,0,0,0,0,0.1
c0,0.1-0.1,0.2-0.1,0.3c-0.2,0.9,0.2,1.5,1,2c1.1,0.5,2.1,1,3.4,1.1c2.3,0.1,4.6-0.4,6.7,1c0.4,0.3,1,0.2,1.4-0.1
c3.3-2.2,6.2-1.5,9.6,0.3c3.4,1.8,6.2,0.8,6.4-3.9c0-0.6-0.2-1.2,0-1.7c0.4,0.5,1.1,1,0.3,1.8c-0.2,0.3-0.2,0.9,0.1,1.1
c1.6,1,2.5,3.2,4.8,3.2c0.8,0,1.6,0,2.4,0c-0.8,0-1.6,0-2.4,0.1c-0.6,0-1.1,0.3-1.2,0.9c-0.1,0.8,0.4,1.2,1,1.4
c0.7,0.2,1.4,0.2,2.1,0.2c1.6,0,3.2,0,4.8,0c1,0,1.9,0.3,2.2,1.5c0.3,1,0.8,1.8-0.3,2.8c-1.3,1.2-0.8,2.4,0.4,3.4
c-2.1,0.1-3.9-0.3-5.2-1.9c-1-1.2-2.4-1.2-3.6,0c-0.8,0.8-1.6,1.7-2.8,2.2c-0.8,0.4-1.1,1.2-0.1,1.8h17.8c1.6-0.8,2.9-2,3.7-3.5
c0.9-1.6,2.1-2,3.7-2c1.8,0,3.5,0.1,5.3-0.1c0.8-0.1,1.8-0.3,1.7-1.3c0-1.1-1-1-1.8-1c-1.8,0-3.5,0-4.6,0c1.4-0.1,3.6,0,5.7,0
c0.7,0,1.1-0.4,2-0.2c4.4,1.1,8.8,0.2,13.2-0.2c0.1,0,0.2-0.2,0.3-0.3v-5.3c-4.5,0-9.1,0.1-13.7,0.1c-1.2,0-2.5-0.4-2.9,1.6
c-0.2,1.2-8.8,1.2-9.5,0.2c-0.1-0.1-0.2-0.3-0.2-0.4c-1-2.2-1-2.2-2.7-0.6c-0.4-3.1-0.4-3.1,2.7-3.2c2.9,0,6-0.6,8.8,0
c5.3,1.2,10.6,0.1,15.9,0.5c0.5,0,1.1-0.1,1.7-0.2v-1c-0.6-0.7-1.3-1.2-2.3-1.1c-7.6,0.8-15-1.7-22.6-0.7c-1,0.1-2.1,0-2.8-1
c-1.3-2.2,1-6.8,3.5-7.1c1-0.1,2.3-0.1,2.3-1.5c0-1.5-1.4-1.2-2.4-1.3c-3.2-0.2-3.4-0.4-3.4-3.7c0-10.9,0-21.7,0-32.6
c0-1.2,0-2.4,0.3-3.6c0.3-1,0.7-1.9,1.7-2.2c1.4-0.3,2.7-1,4-1.5c-0.3,0.5-0.3,1.3-0.2,2.8c0,0.9,0,1.8,0,2.6
c0.1,3.5,0.5,3.9,4.1,4c6.3,0.2,6.4,0.1,7.2,6.3c0.1,1.2,0.4,2.2,1.6,1.8c1-0.3,3,0.3,2.7-2.1c-0.3-2.2-0.3-4.5,0.3-6.7
c0.1-0.4,0.2,0,0.2,0c1.7,1,4,0.8,5.7-0.5V46.3c-5.3,0-10.5,0.1-15.8,0.2c-1.3,0-1.9-0.4-2.2-1.8C265.7,38.5,266.2,37.8,272.5,38z
M2.7,110.2c1.1,0,2.2,0,3.3,0c0,0,0,0,0,0c1,0,1.9,0,2.9,0c0.6,0,1.1,0.1,1.2,0.9c0,0.7-0.4,1-1,1.1c-2.2,0-4.3,0-6.5,0
c-0.6,0-1.1-0.2-1-1C1.6,110.5,2.1,110.2,2.7,110.2z M9.1,114.5c-1.1,0-2.2,0-3.3,0v0c-1,0-2.1,0-3.1,0c-0.6,0-1.1-0.2-1.1-0.9
c0-0.7,0.4-1,1-1c2.1,0,4.3,0,6.4,0c0.6,0,1.1,0.2,1.1,0.9C10.1,114.2,9.7,114.5,9.1,114.5z M15.2,114.1c-0.4-0.1-0.5-0.1-0.6-0.1
c-1-0.9-0.5-2-0.4-3.1c0-0.1,0.5-0.3,0.5-0.2C15.7,111.7,15.2,112.8,15.2,114.1z M84.1,12c1.8-1.1,2.6,0.1,3.8,0.1
c0.1,0,0.2,0,0.3,0c-1.5,0-3,0.1-4.5,0.1h0C83.9,12.1,84,12.1,84.1,12z M71.7,9.5c0.8-1.2,0.5,0.5,0.8,0.4c0.4-0.2,0.7-0.6,1.1-0.7
c0.7-0.2,1.5-0.5,2,0.1c0.5,0.5,0.3,1.1,0,1.7c0,0,0,0-0.1,0c0,0,0,0,0,0c0,0,0,0,0.1,0.1c0.3,0.4,0.5,1.1,1.1,1.1
c0.4,0,0.9,0,1.3,0.1c-1.1,0-2.2,0-3.2,0c0.4,0,0.7-0.3,0.9-0.9c-0.1-0.2-0.2-0.3-0.2-0.4c-1,0.5-2.1,0.7-3.2,0.1
C71.5,10.7,71.3,10,71.7,9.5z M73.7,12.2c0.2,0,0.3,0,0.5,0c-1.1,0-2.2,0-3.3-0.1C71.8,12.2,72.7,12.2,73.7,12.2z M92.1,14.2
c0,0.2,0,0.3,0,0.5H67.4c0-0.2,0-0.4,0-0.5H92.1z M64.1,11.1c0.2-0.2,0.5-0.1,0.7,0c0.8,0.5,1.6,0.8,2.5,0.9h-0.1
c-1.4-0.1-2.7,0-4,0.1c-0.3,0-0.7,0.1-1,0.1C62.8,12.1,63.5,11.7,64.1,11.1z M60.4,12.4c-1.4,0.1-2.7,0-3.8-0.2
C57.7,11.9,59,12.3,60.4,12.4z M65.5,14.9H52.3C56.7,14.5,61.1,14,65.5,14.9z M49.5,11.6h-6.2C45.4,10.3,47.4,10.6,49.5,11.6z
M26,18.4c4.1,0.4,8.1,0.6,12.1-0.3c0.8-0.2,1.4,0.2,2.1,0.2c0.5,0,0.8,0.5,0.8,1c0,0.6-0.3,0.9-0.8,1c-0.2,0-0.4,0.1-0.6,0.1
c0,0,0,0,0,0c-0.2,0-0.5,0.1-0.7,0.1c0,0,0,0,0,0c0,0,0,0,0,0c0,0,0,0,0,0c-0.9,0.1-1.8,0-2.6-0.6c-1.5-1.2-3.1-1-4.7-1.1
c-1.8-0.1-3.7,0.8-5.4-0.1c-1.1-0.5-2.2-0.6-3.3-0.5C23.9,18.2,25,18.3,26,18.4z M26.9,37.3h10.9c-0.1,0.1-0.1,0.2-0.2,0.3H26.9
V37.3z M21.8,39.7c0.2-0.7,0.9-0.5,1.4-0.5c0.4,0,0.8,0.2,0.7,0.8c-0.3,0.6-0.9,0.6-1.4,0.5C22.1,40.4,21.6,40.2,21.8,39.7z
M25.3,116.2c-0.5,0.1-1.1,0.2-1.6,0.2c0,0.2,0,0.3,0,0.5c0.6,0,1.2,0.1,1.9,0.2c0,0.1,0,0.1,0,0.2c-0.5,0.1-1,0.2-1.8,0.3
c0.7,0.2,1.1,0.4,1.5,0.6c0.3,0.2,0.9,0.2,0.6,0.7c-0.2,0.4-0.5,0.5-1,0.1c-1.2-1-3.6-0.2-3.8-2.9c-0.1-1,0.2-1.1,0.8-1.1
c1,0,2.1-0.1,3.1-0.1c0.5,0,1.1-0.1,1.1,0.6C26.4,116.2,25.7,116.1,25.3,116.2z M25.3,114.4c-2.1-0.1-4.4,0.8-6-1.2
c-0.8-1-1.5,0-2.2-0.3c2.8-1.1,5.7-0.7,8.6-0.6c0.6,0,0.7,0.5,0.7,1.1C26.3,114,25.9,114.4,25.3,114.4z M28.9,116.2
c-0.5,0.1-1-0.1-1-0.7c0-0.5,0.5-0.6,0.9-0.6c1.6,0,3.2-0.3,4.9,0.6C32.1,115.8,30.5,116,28.9,116.2z M40,113.8
c-3.7,0.5-7.4,0.8-11.2,0.5c-0.6,0-1-0.4-1-1.1c0-0.8,0.5-1.1,1.2-1.1c1.8,0,3.7,0,5.5,0v0c1.8,0,3.5,0,5.3,0
c0.5,0,1.1-0.1,1.2,0.5C41,113.2,40.6,113.8,40,113.8z M39.4,111.7c-2.7,0-5.4,0.2-8.1,0c-1.2-0.1-3.5,1.1-3.4-1.1
c0-1.8,2.2-0.7,3.4-0.9c1.2-0.2,2.4,0,3.6,0c1.6,0,3.2-0.1,4.8,0c0.6,0,1.8-0.6,1.8,0.8C41.3,111.5,40.4,111.7,39.4,111.7z
M35.5,107.1L35.5,107.1c1.8,0,3.5-0.1,5.3,0c0.7,0,1.9-0.4,1.9,0.8c0,1.1-1.1,1.2-2,1.3c-1.4,0-2.7,0-4.1,0c-2.5,0-5,0-7.4,0
c-0.8,0-1.7-0.1-1.6-1.2c0.1-1.1,1-0.8,1.7-0.8C31.4,107.1,33.5,107.1,35.5,107.1z M43.4,41.3c-0.4,0.2-0.9,0.4-1.4,0.4
c-6.4-0.2-12.8-0.2-19.8,0c1.4-1.2,3.6,0.3,3.4-2.2c0,0,1-0.2,1.5-0.3c3.9-0.1,7.8-0.1,11.7-0.2c1.2,0,2.5,1,3.8,0
c0.4-0.2,1.2-0.1,1.4,0.6C44.2,40.2,44.1,40.9,43.4,41.3z M39.7,27v-0.6h6C43.7,27.4,41.7,26.9,39.7,27z M44.7,13.5h4.7
C47.8,14.2,46.2,14.2,44.7,13.5z M49.2,64.6c0,0,0.1,0,0.2,0v11.8h-0.2V64.6z M49.6,94.5c1.1,1.2,0.7,2.5,0.8,3.6
C49.1,97.3,49.1,97.3,49.6,94.5z M54.4,65.4c-0.2,1.2-1.2,0.6-1.7,0.8c-2,0.1-2.6-0.6-1.8-2.2c0.5-0.9,0-1.7,0-2.5
c0.1-0.7-0.3-2,0.8-1.8c1,0.2,2.8,0,3,1.8C54.8,62.6,54.6,64,54.4,65.4z M71.3,45c-1.1,0.2-2.2,0.5-3.2,0.8
c-5.2,1.8-8.9,5.4-11.7,10.5c-1.2-3.1-0.3-5.1,1.7-6.9c1.7-1.5,3.3-3,5.3-4c0.8-0.4,1.9-1.9,2.9,0c0.2,0.3,0.7,0,0.7-0.3
c0.3-2.6,2.5-1.8,4-2.3c0.4-0.1,0.9-0.3,1.2,0.3C71.1,43.4,72.6,44.7,71.3,45z M56.8,46.2c-0.6-0.7-1-1.7-0.6-2.4
c0.5-0.8,1.8-1.3,2.6-1.1c2.2,0.6,4.3,0.1,6.5,0.3c-3.5,1.9-6.7,4.2-9.3,7.8c-0.5-3,2.6-3,2.7-5.1C57.9,45.5,57.6,47.4,56.8,46.2z
M56.4,32.3c0-0.1,0-0.1,0.1-0.2H62v0.2H56.4z M66.3,32.3v-0.3h11.5c0,0.1,0.1,0.2,0.1,0.3H66.3z M92.7,56.8
c-1.1-1.7-1.8-2.9-2.6-3.9c-3.1-4.2-7.2-6.9-12.4-7.8c-0.8-0.2-1.8-0.1-1.6-1.5c0.3-1.4,1.2-0.8,1.9-0.7c1.3,0.3,3-0.2,3.5,1.8
c0,0.1,0.3,0.3,0.3,0.3c2.3-1.8,3.6,0.7,5.2,1.5c1.9,0.9,3.2,2.6,4.7,4c0.1,0.1,0.1,0.1,0.2,0.2c-1-1.9-2.5-3.3-4.1-4.5
c-1.6-1.2-3.3-2.1-5-3.3c2.6,0.4,5.2-0.3,7.9,0.1c2.3,0.3,2.1,1.2,1.3,2.6c-0.6,1.1-1,1.8,0.4,2.7c0.9,0.6,1.6,1.9-0.4,2.3
C93,52.3,92.7,54.2,92.7,56.8z M82.1,32h7.7c0,0.1,0,0.1,0,0.2h-7.7C82.1,32.2,82.1,32.1,82.1,32z M93,20.3
c-1.2,1.6-2.7,2.3-4.6,2.5c-1,0.1-1.5,0.9-1.4,1.9c0.1,1,0.7,1.7,1.7,1.7c-0.4,0.1-0.7,0.3-1,0.6c-0.9,1.1-1.9,1.3-3.1,1.3
c-9.6,0.1-19.1,0.1-28.7,0c-2.8,0-4-1.2-4.2-3.9c-0.1-1.5,2-3.6,4-3.8c2.6-0.2,5.2-0.6,7.9-0.6c8.9,0.1,17.7,0,26.6,0
c1.1,0,2.2,0,3.3-0.2C93.2,20.1,93.1,20.2,93,20.3z M282.8,112.6c-2,0-4.1,0.1-6.2,0.1c-0.6,0-1.1-0.3-1.1-1c0-0.9,0.6-1,1.2-1.1
c0.9,0,1.9,0,2.8,0c0,0,0,0,0,0c1,0,2,0,3.1,0c0.6,0,1,0.4,1,1.1C283.6,112.2,283.3,112.6,282.8,112.6z M276.5,108.2
c2.1,0,4.2,0,6.2,0c0.7,0,1,0.4,1,1.1c0,0.6-0.4,0.8-0.9,0.9c-1,0-2.1,0-3.1,0c0,0,0,0,0,0c-1,0-2.1,0-3.1,0
c-0.5,0-0.9-0.3-0.9-0.9C275.5,108.7,275.8,108.2,276.5,108.2z M260.1,110.6c2.6-0.1,5.2,0,7.8,0c0.6,0,1,0.3,1,1.1
c0,0.7-0.5,0.9-1.1,1c-1.3,0-2.7,0-4,0v0.1c-1.2,0-2.4,0-3.6,0c-0.6,0-1.2-0.2-1.3-0.8C258.9,111.2,259.4,110.6,260.1,110.6z
M248.7,20.3c0.2-0.4,0.4-0.9,1-0.8c0.5,0.1,0.8,0.5,0.7,1c-0.1,0.5-0.7,0.6-1.1,0.6C248.8,21,248.5,20.7,248.7,20.3z M257.9,36.8
c0,0.1,0.1,0.2,0.1,0.3h-9.9c0-0.1,0-0.2,0-0.3H257.9z M230.5,9.9c0.3-0.7,0.7-1.2,1.4-0.6c0.4,0.4,1,1.1,0.9,1.6
c-0.1,0.8-1,0.5-1.6,0.5c-0.7,0-1.4-0.2-1.9-0.8C229.7,10.4,230.3,10.4,230.5,9.9z M229.3,11.2c0-0.2,0.1-0.3,0.2-0.4
c-0.2,0.2-0.2,0.3-0.2,0.5c-0.1,0.3,0.6,0.9-0.4,0.9c-0.5,0-1,0-1.4,0C228.2,12.1,228.8,11.7,229.3,11.2z M225.7,12.3
c-0.1,0-0.3,0-0.4,0c-0.6,0-1.2,0-1.8-0.1c0.3-0.1,0.5-0.4,0.5-1C224.4,11.7,225,12.1,225.7,12.3z M221.3,9.2
c0.6-0.5,1.1,0,1.5,0.5c0.3,0.4,0.7,0.6,1,0.9c-0.5,0.4-1,0.7-1.6,0.7c-0.6,0-1.5,0-1.6-0.6C220.4,10.3,220.9,9.6,221.3,9.2z
M213.8,9.6c0.2,1.8-0.8,2.2-3.7,1C211.3,9.9,212.9,10.7,213.8,9.6z M210.1,11.1c-0.1,0.7,0.2,0.9,0.7,0.9l-0.8,0c-1,0-2,0-3-0.1
c0.3-0.1,0.6-0.2,0.8-0.6c0.1,0,0.1-0.1,0.1-0.1c-0.1,0.1-0.1,0.3,0,0.4C208.8,12.1,209.7,12.5,210.1,11.1z M208.8,10.3
c0.6,0.4-0.5,0.7-0.8,1.1c-0.3-0.4-0.7-0.5-1.1-0.5c-0.4,0-0.7-0.1-1.8-0.3C206.8,10,208,9.7,208.8,10.3z M206.3,12
c-2.3-0.1-4.6-0.4-6.9-0.3C201.7,11.5,204,11.3,206.3,12z M200.7,14.4c1.2,0,2.5,0,3.7,0c-3.6,0-7.3,0-11,0
C195.7,14,198.2,14.4,200.7,14.4z M191.1,14.4c-0.8,0-1.5,0-2-1C189.7,13.8,190.3,14.2,191.1,14.4z M177.4,19.5
c3.8,0,7.5-0.4,11.2,0.8c-3.7,0.9-7.5,0.6-11.3,0.6c-0.4,0-0.8-0.2-0.8-0.7C176.5,19.6,177,19.5,177.4,19.5z M169.5,17.8
c-0.4,0.4-0.5,0.9-0.4,1.4c0.4,1.2,1.3,1.2,2.3,0.9c-0.2,0.5-0.6,1-0.4,1.3C169.2,20.6,168.4,18.6,169.5,17.8z M124.3,11.1
c-0.6-0.6-2.1,0.5-2.1-1c0-0.6,0.2-1.7,1.4-1.6c1,0,1.9-0.1,2.2,1.4c0.4,1.9,4.1,2,5.4,0.2c0.9-1.3,1.9-1.7,3.4-1.7
c0.6,0,1,0.3,1,0.7c0,2.2,1.3,1.7,2.7,1.7c2.8,0.1,5.7,0.5,8.5,0.2c1.6-0.1,4.2,1.1,4.4-2.3c0.1-0.9,4-0.7,4.3,0.3
c0.3,1,0.6,2.1,1.8,1.8c1.2-0.4,2.9,0.1,3.6-1.7c0.7-1.7,2-0.8,3-0.4c0.4,0.2,0.8,1,0.7,1.4c-0.3,1-1.4,0.4-2.1,0.7
c0.9,0.3,1.9-0.2,3.3,0.9h-44.5C122.3,10.9,123.4,11.4,124.3,11.1z M163.6,13.8v0.6h-42.3v-0.6H163.6z M114.1,11
c2.2-1.2,3.9-0.7,5.5-0.1C118,11.5,116.3,11.2,114.1,11z M118.2,20.2c0,0.2-0.1,0.6-0.8,0.5c-0.5,0-0.9-0.3-1-0.8
c-0.1-0.6,0.2-0.9,0.8-0.9C117.8,19,118.2,19.2,118.2,20.2z M107.3,23c1.8,0,3.7,0,5.5,0c0.6,0,1.1,0.2,1.3,0.9
c0.1,0.4-0.2,0.9-0.5,1c-0.9,0.3-0.7-0.6-0.9-1c-0.4-0.9-1.2-0.6-1.9-0.6c-1.1-0.1-2.3,0-3.5,0V23z M111.7,26.1c0,0.1,0,0.2,0,0.3
H98.4c0-0.1,0-0.2,0-0.3H111.7z M111.4,37h-10.9c0-0.1,0-0.3,0-0.4h10.9C111.4,36.7,111.4,36.9,111.4,37z M96.2,47.4
c1.6-1.4,2.9-0.8,4.1,0.2C99,47.6,97.8,47.5,96.2,47.4z M103.2,65.1c-0.1,1.6,1.1,3.1,0.5,4.8C102.7,68.4,103,66.8,103.2,65.1z
M104.6,82.4c-1.9,0.2-1.2-1.7-1.3-2.7c-0.1-2.8,0-5.6,0-8.6c1,0.5,0.7,1.2,0.8,1.8c0.3,1.7-0.8,3.8,1.4,5.1
c0.2,0.1,0.2,0.9,0.2,1.4C105.6,80.5,106.2,82.2,104.6,82.4z M105.6,72.9c-0.8-2-0.4-3.5-0.1-5C106.4,69.3,106.1,70.8,105.6,72.9z
M107.8,69.6c-0.9-3.8-0.9-7.5-0.2-11.3C108.7,62,107.8,65.8,107.8,69.6z M108.1,56.9c-1.3,1.2-0.8-0.8-1.4-1c-1,1.6,0,3.5-1,5.1
c-0.7-1.9-0.7-4-0.5-6c0.1-0.9,1-0.9,1.7-0.9c0.6,0,1.4-0.2,1.6,0.7C108.7,55.5,108.7,56.4,108.1,56.9z M111,42.2
c-0.1-0.4,0.3-0.6,0.7-0.7c1.4-0.2,1.1,1.1,1.6,1.7C112.6,42.7,111.4,43.4,111,42.2z M116.7,47.5c-1.1,0-2.1-0.1-3.5-0.2
c1.3-1.7,2.5-0.4,3.6-0.7C116.7,47,116.7,47.2,116.7,47.5z M117.6,41.7c0.1,1-0.7,1.2-1.3,1.4c-1.3,0.5-0.4-0.6-0.6-0.9
c-0.5-0.6-1-1-1.9-1c-5.5,0.1-10.9,0-16.4,0c-0.5,0-1,0.1-1.4-0.1c-0.9-0.3-1-1.2-0.9-2c0.2-0.9,1.4-0.7,1.6-0.5c1,1.2,1.8,0,2.8,0
c4.5-0.2,9.1-0.2,13.6-0.3c1.1,0,1.3,0.8,1.7,1.6c0.1-1.5,0.9-1.9,2.1-1.7c1.3,0.3,0.9,1.3,0.6,2.1
C117.2,40.9,117.5,41.2,117.6,41.7z M115.3,25.9h6.2C119.5,26.7,117.4,26.6,115.3,25.9z M139.2,44.8c-5.7,1.2-10,4.5-13,9.5
c-0.3,0.5-0.6,0.9-0.9,1.4c0,0-0.1,0-0.4,0c-0.3-2.2-0.5-4.3,1-6.1c-0.3,0.3-0.6,0.5-1,0c-0.5-0.6-0.4-1.5,0.4-1.9
c1.5-0.7,0.8-1.8,0.5-2.7c-0.3-0.8-1.3-1.6-0.7-2.3c0.6-0.6,1.9-1.1,2.7-0.9c2.4,0.7,4.7,0.2,7.1,0.4c-2.6,1.6-5.2,2.9-7.2,5.3
c1.5-1,3.4-1.7,4.6-3c1.3-1.4,3.1,0,4.5-1.6c1-1.2,3.3-1.2,5.1-0.9C141.7,43.8,140.8,44.5,139.2,44.8z M125.3,31.8v-0.3h8.3
c0,0.1,0,0.2-0.1,0.3H125.3z M137.2,31.7c0-0.1,0.1-0.2,0.1-0.3h12.1c0,0.1,0,0.2,0,0.3H137.2z M150.3,41.6
c-1.3,0.2-2.5-0.1-4.2-0.7C148.1,40.4,149.2,40.9,150.3,41.6z M145.6,38.8c-0.3,1.6-1.3-0.4-1.9,0.3c-0.8-0.7-1.9,1.4-2.2-0.3
c-0.1-0.6,1.2-1.5,2.1-1.5C144.3,37.4,145.7,37.9,145.6,38.8z M140.4,41.2c-1.2,0.3-2.4,0.5-3.6,0.8c0-0.2-0.1-0.4-0.2-0.7
C137.9,40.9,139,40.4,140.4,41.2z M162.5,55.9c-0.9,0.2-0.9-0.6-1.1-1c-3-5.4-7.5-8.8-13.5-10.1c-1.5-0.3-2.6-0.7-2.6-2.5
c1.8-0.5,4.2-0.3,5.1,0.9c1.2,1.7,2.8,0,4,1.2c1.2,1.2,3,1.9,4.6,2.8c-1.8-2.1-4.3-3.4-6.7-4.9c2.8,0.2,5.5-0.6,8.3,0
c1.7,0.4,1.8,0.8,1.2,2c-0.7,1.4-1.5,2.7,0.4,3.8c0.5,0.3,0.5,1.1,0.2,1.5c-0.6,0.6-0.9-0.1-1.3-0.5
C162.8,51.1,162.5,53.5,162.5,55.9z M153.4,31.5h8.2v0.3h-8.1C153.4,31.7,153.4,31.6,153.4,31.5z M163,27.4
c-0.2,1.6-0.8,1.8-2.3,1.7c-2.2-0.2-4.6-0.5-6.7,0.1c-1.9,0.5-3.4,0.2-5.2,0c-3.6-0.5-7.4-0.6-11,0c-2,0.3-3.6,0.1-5.4-0.1
c-2.2-0.3-4.5-0.1-6.7,0c-1.1,0-1.7-0.3-2.1-1.5c-1.4-4.4-1.4-4.4-6-4.5c-0.7,0-1.4,0-2.5,0c1.4-0.4,2.9,0.4,3.7-0.4
c0.8-0.8,1.1-2.1,1.6-3.1c0.8-1.6,2.3-1.2,3.6-1.2c7-0.1,14.1,0,21.1,0l18.2,0c1.5,0,2.5,0.2,2.9,2c0.3,1.8,1.5,2.5,3.6,2.4
c6.2-0.2,12.3,0,18.5,0c0.5,0,1,0,1.4,0.1c0.5,0.1,1,0.2,1,0.8c0,0.2-0.2,0.5-0.4,0.5c-0.4,0.2-0.8,0-1-0.4c-0.4-1-1.3-0.7-2.1-0.7
c-3.8,0-7.5,0-11.3-0.1c-1.3,0-2.4,0.1-2.9,1.8c-0.8-1.7-2.1-1.8-3.5-1.7c-0.6,0.1-1.3,0-1.9,0C163.8,23.3,163.6,23.3,163,27.4z
M175.1,26c4.3-0.3,8.6-0.4,12.9,0.2C183.7,26.7,179.4,26.4,175.1,26z M186,36.8h-12.6C177.7,35.9,181.9,36.2,186,36.8z M165.3,26
c2-0.7,4-0.3,6-0.1C169.2,26.6,167.3,26.2,165.3,26z M191.9,42.4c-0.8,0.2-1.5-0.2-1.9-0.8c-1.2-1.6-1.6,0-2.5,0.3
c-1,0.3,1.2,1.5-0.4,1c-0.6-0.2-1.6-0.5-1.5-1c0.6-1.8-0.6-1.1-1.4-1.1h-9.1c0.8,1.7,0.8,1.7-1.7,2.2c0.3-0.9,0.5-1.9-0.7-2.2
c-1-0.2-1,0.5-1.1,1.4c-0.1,1.3-0.9-0.4-1.4,0.2c-0.2,0.3-1.1-0.4-1-0.6c1.2-0.9,0-1.5-0.1-2.3c-0.2-1.2,0.5-1.4,1.4-1.4
c5.4,0,10.9,0.1,16.3,0.1c0.6,0,1.3-0.2,1.5,0.4c0.4,0.9,0.5,1.3,0.9,0c0.2-0.7,1.1-0.6,1.7-0.4c0.7,0.2,0.7,0.8,0.5,1.4
C191.3,40.5,192.4,41.4,191.9,42.4z M194.7,55.4c-0.5-2.3-0.4-4.2,0.7-5.8c-0.2,0.2-0.4,0.3-0.8,0c-0.6-0.4-0.4-1.1-0.1-1.5
c0.6-0.7,1.4-1.3,2.1-2c-1.3-0.4-2.2-1.2-2-2.5c0.2-1.5,1.9-1.8,2.8-1.6c2.3,0.4,4.5,0,7.3,0.3c-2.8,1.7-5.4,2.9-7.2,5.1
c1.3-0.9,2.6-1.8,4-2.6c1.1-0.7,2.3-1.5,3.7-0.7c0.4-1.9,2.1-1.6,3.5-1.8c0.6-0.1,1.5-0.5,1.6,0.7c0.1,0.9-0.2,1.4-1.1,1.5
C202.8,45.8,198.2,49.5,194.7,55.4z M196.9,32c2.6-0.7,5.2-0.4,7.7,0H196.9z M206.7,70.2h7.5C211.6,71,209.1,70.8,206.7,70.2z
M213.1,39.2c-0.6,0.1-1,0-0.9-0.7c0-0.5,0.4-0.9,0.9-0.9c0.5,0,0.9,0.3,1,0.8C214.2,39.1,213.6,39.1,213.1,39.2z M208.1,32.2
c0-0.1,0-0.3,0-0.4h12c0,0.1,0,0.3,0,0.4H208.1z M201.4,68.6c1.1-0.1,2.2-0.2,3.3-0.2c1,0,1.6-0.6,1.6-1.5c0.3,1.2,0.9,1.5,2.5,1.6
C206.3,68.5,203.9,68.5,201.4,68.6z M211.8,75.4H205c0-0.2,0-0.4,0-0.6c2.3-0.4,4.5-0.2,6.8-0.1V75.4z M212.8,71.8
c0.9,0.1,1.8,0.3,2.2,1.3C214.4,72.4,213.8,71.9,212.8,71.8z M214.6,68.3c0.7-0.2,1-0.8,1-1.6c-0.1-2.9,0.2-5.8-0.1-8.8
c0.3,2.7,0.1,5.4,0.1,8.1c0,1.6,0.6,2.3,2.1,2.4c1,0,1.9,0.2,2.8,0.3C218.6,68.6,216.6,68.4,214.6,68.3z M230.3,56
c-1.2-1.9-2.3-3.8-3.9-5.4c-2.9-3-6.4-5.1-10.5-5.8c-1.3-0.2-1.9-1.1-1.7-2c0.2-1.2,1.3-0.5,2-0.3c1.3,0.3,3-0.1,3.4,1.9
c0,0.2,0.4,0.4,0.5,0.4c2-2,3.3,0.3,4.6,1c2.3,1.2,4.1,3,5.5,5.2C231.3,52.6,230.4,54.3,230.3,56z M229.4,47.5
c0.6,0.5,1.5,0.8,0.7,2.2c-2.5-3-5.5-5.2-8.9-7.1c2.6,0.2,5.1-0.7,7.5,0.1c1.6,0.5,2.1,2.4,0.7,3.2C227.8,46.8,228.7,47,229.4,47.5
z M224.2,32.3c-0.5,0-0.8-0.4-0.9-0.8c2.6,0.2,5.3,0.3,7.9,0.5c0,0.1,0,0.2,0,0.3C228.9,32.3,226.5,32.3,224.2,32.3z M234.1,65.4
c-1.8,0.2-2.5-0.1-2.3-1.6c0.1-0.7,0-1.4-0.1-2.1c-0.2-1.6,1.3-3.2,2.9-3c0.1,0,0.2,0,0.2,0c1.2,1.8,0.6,3.8,0.9,5.7
C235.8,65.7,234.4,65.3,234.1,65.4z M231.5,29.4c-2.1,0.1-4.2,0.1-6.2,0c-1.6-0.1-2.1,0.6-2.1,1.9c-1.7-2.4-4.3-1.9-6.8-1.9
c-2.2,0-4.5,0-6.7,0c-0.8,0-1.8-0.3-2.3,0.8c-0.2,0.5-0.7,0.4-0.9,0.1c-0.9-1.5-2.4-0.9-3.7-1c-1.4-0.1-2.9,0-4.3,0
c-0.8,0-1.6-0.1-1.2-1.2c0.6-1.6-0.5-1.5-1.5-1.5c-1.3,0-2.7,0-4-0.2c2.2-1.6,5.9,1.2,7.4-3c-1.5,0-2.9,0.1-4.3,0
c-1-0.1-3.2,0.9-2-1.8c0.2-0.5-0.4-0.6-0.8-0.6c-0.7,0-1.4,0-2-0.8c2.9-2,6.2-1.3,9.2-1.4c10.2-0.1,20.5,0.4,30.7,0.1
c3.3-0.1,4.4,2.1,5.9,3.8C237.3,24.4,234.2,29.3,231.5,29.4z M236.2,66.3L236.2,66.3c0.2-0.1,0.5-0.2,0.6,0.1
c0.2,0.6,0.1,1.3,0.1,1.9v-0.5c0-0.5,0.1-1-0.3-1.3C236.5,66.3,236.3,66.3,236.2,66.3z M236.8,11.7c-0.5,0-1.1-0.1-1-0.7
c0.1-1.1,0.8-0.3,1.2-0.2c1.8,0.2,3.7-0.3,5.4,1H236.8z M244.6,26.3c-1.5,0.1-3.1,0.6-4.6,0H244.6z M252,108.5
c-0.8,0.9-1.8,0.8-2.8,0.8c-1.1,0-2.2,0-3.3,0c1.3,0,2.5,0,3.8,0c0.8,0,1.5-0.2,1.6-1.1c0.1-1-0.7-1.3-1.6-1.3c-0.5,0-1,0-1.5,0
c1.1,0,2.3,0,3.4-0.1c0.6,0,1.2,0.1,1.4,0.7C253.2,108.2,252.3,108.1,252,108.5z M250.2,104.4c-2.5,0-5,0-7.4,0
c-1.2,0-1.9-0.2-1.6-1.8c0.3-2.4,0.9-4.8,0.1-7.3c-0.4-1.1,1-1.4,2-1.4c2.1-0.1,4.2-0.2,6.3-0.7c-3.1,0.2-6.2,0.1-9.2,0.3
c1.3-5.7,0.5-11.3,0.5-17c0-8.3-0.1-16.6-0.2-24.9c0-2.1,1.3-2.9,3.1-3.3c1.4-0.2,2.1,0.2,2.2,1.7c0,2.4,0.3,4.8,0.3,7.2
c0,1.6,0.4,2.5,2.3,2.5c1.5,0,3.7,4,3,5.3c-0.2,0.4-0.7,0.4-1,0.4c-0.9,0-1.8,0-2.6,0.1c-0.6,0.1-1.4,0.1-1.3,1
c0.1,0.8,0.8,0.6,1.3,0.7c3.9,0.5,3.9,0.5,3.9,4.3c0,2.9,0,5.8,0,8.6c0,0.7,0.1,1.6-0.9,1.7c-1,0.2-1.1-0.7-1.2-1.4
c-0.1-0.5-0.4-1.1-0.7-1.5c-0.4-0.6-1.1-1.2-1.8-1.1c-0.9,0.2-0.5,1.2-0.6,1.9c-0.2,2.1,0.3,4.1,1.7,5.8c0.8-0.4,1.2-0.9,1.4-1.7
c0.1-0.6,0.4-1.1,1.1-1c0.8,0.1,1,0.7,1,1.4c0,2.1,0.2,4.2,0,6.2c-0.1,1.5,1.3,3-0.5,4.6c-0.7,0.6,0.3,1.6,1.4,1.5
c2.1-0.3,2.3,0.9,2.3,2.6C255,104.3,255.1,104.3,250.2,104.4z M263.3,39.8c-0.2,0.8-0.6,1.3-1.6,1.3c-4-0.1-7.9,0-11.9,0
c-1.7,0-3.3,0-5,0.1c-0.3,0-0.6,0-1,0c-1.1,0-1.8-0.5-2.1-1.6c-0.1-0.6,0.2-0.9,0.7-1c1.1-0.1,2.1,0,2.1,1.7
c0.4-2.1,1.9-1.7,3.1-1.7c11.7-0.4,11.8-0.4,12.9,1.5c0.2-0.1,0.5-0.2,0.5-0.3c0.2-1.1,1-1.1,1.8-1
C263.4,38.8,263.5,39.3,263.3,39.8z M250.6,64.5c-1.6-0.5-2.8-0.5-4.5,0.1C247.9,65.2,249,65.4,250.6,64.5z M195.4,49.7
c0.1-0.1,0.2-0.3,0.4-0.5C195.6,49.4,195.5,49.5,195.4,49.7z M178.4,39.9h4.7v-0.1L178.4,39.9L178.4,39.9z M29.8,40.6
c0,0.1,0,0.1,0,0.2h4.3c0,0,0-0.1,0-0.2H29.8z M75.4,11C75.4,11,75.4,11,75.4,11C75.5,11,75.5,11,75.4,11C75.5,11,75.4,11,75.4,11z
M34.1,40.6h-4.3c0,0.1,0,0.1,0,0.2h4.3C34.1,40.7,34.1,40.6,34.1,40.6z M178.4,39.8L178.4,39.8l4.7,0.1v-0.1H178.4z M195.4,49.7
c0.1-0.1,0.2-0.3,0.4-0.5C195.6,49.4,195.5,49.5,195.4,49.7z M246.1,64.5c1.8,0.7,3,0.8,4.5-0.1C249,64,247.8,64,246.1,64.5z
M246.1,64.5c1.8,0.7,3,0.8,4.5-0.1C249,64,247.8,64,246.1,64.5z M195.4,49.7c0.1-0.1,0.2-0.3,0.4-0.5
C195.6,49.4,195.5,49.5,195.4,49.7z M178.4,39.8L178.4,39.8l4.7,0.1v-0.1H178.4z M34.1,40.6h-4.3c0,0.1,0,0.1,0,0.2h4.3
C34.1,40.7,34.1,40.6,34.1,40.6z M75.4,11C75.4,11,75.4,11,75.4,11C75.5,11,75.5,11,75.4,11C75.5,11,75.4,11,75.4,11z M34.1,40.6
h-4.3c0,0.1,0,0.1,0,0.2h4.3C34.1,40.7,34.1,40.6,34.1,40.6z M178.4,39.8L178.4,39.8l4.7,0.1v-0.1H178.4z M195.4,49.7
c0.1-0.1,0.2-0.3,0.4-0.5C195.6,49.4,195.5,49.5,195.4,49.7z M246.1,64.5c1.8,0.7,3,0.8,4.5-0.1C249,64,247.8,64,246.1,64.5z
M246.1,64.5c1.8,0.7,3,0.8,4.5-0.1C249,64,247.8,64,246.1,64.5z M195.4,49.7c0.1-0.1,0.2-0.3,0.4-0.5
C195.6,49.4,195.5,49.5,195.4,49.7z M178.4,39.8L178.4,39.8l4.7,0.1v-0.1H178.4z M34.1,40.6h-4.3c0,0.1,0,0.1,0,0.2h4.3
C34.1,40.7,34.1,40.6,34.1,40.6z M75.4,11C75.4,11,75.4,11,75.4,11C75.5,11,75.5,11,75.4,11C75.5,11,75.4,11,75.4,11z M34.1,40.6
h-4.3c0,0.1,0,0.1,0,0.2h4.3C34.1,40.7,34.1,40.6,34.1,40.6z M178.4,39.8L178.4,39.8l4.7,0.1v-0.1H178.4z M195.4,49.7
c0.1-0.1,0.2-0.3,0.4-0.5C195.6,49.4,195.5,49.5,195.4,49.7z M246.1,64.5c1.8,0.7,3,0.8,4.5-0.1C249,64,247.8,64,246.1,64.5z
M246.1,64.5c1.8,0.7,3,0.8,4.5-0.1C249,64,247.8,64,246.1,64.5z M195.4,49.7c0.1-0.1,0.2-0.3,0.4-0.5
C195.6,49.4,195.5,49.5,195.4,49.7z M178.4,39.8L178.4,39.8l4.7,0.1v-0.1H178.4z M34.1,40.6h-4.3c0,0.1,0,0.1,0,0.2h4.3
C34.1,40.7,34.1,40.6,34.1,40.6z M75.4,11C75.4,11,75.4,11,75.4,11C75.5,11,75.5,11,75.4,11C75.5,11,75.4,11,75.4,11z M34.1,40.6
h-4.3c0,0.1,0,0.1,0,0.2h4.3C34.1,40.7,34.1,40.6,34.1,40.6z M178.4,39.8L178.4,39.8l4.7,0.1v-0.1H178.4z M195.4,49.7
c0.1-0.1,0.2-0.3,0.4-0.5C195.6,49.4,195.5,49.5,195.4,49.7z M246.1,64.5c1.8,0.7,3,0.8,4.5-0.1C249,64,247.8,64,246.1,64.5z
M246.1,64.5c1.8,0.7,3,0.8,4.5-0.1C249,64,247.8,64,246.1,64.5z M195.4,49.7c0.1-0.1,0.2-0.3,0.4-0.5
C195.6,49.4,195.5,49.5,195.4,49.7z M178.4,39.8L178.4,39.8l4.7,0.1v-0.1H178.4z M34.1,40.6h-4.3c0,0.1,0,0.1,0,0.2h4.3
C34.1,40.7,34.1,40.6,34.1,40.6z M8,116.6H3.3c0,0.1,0,0.1,0,0.2h4.7C8.1,116.7,8,116.7,8,116.6z M75.4,11C75.4,11,75.4,11,75.4,11
C75.5,11,75.5,11,75.4,11C75.5,11,75.4,11,75.4,11z M34.1,40.6h-4.3c0,0.1,0,0.1,0,0.2h4.3C34.1,40.7,34.1,40.6,34.1,40.6z
M178.4,39.8L178.4,39.8l4.7,0.1v-0.1H178.4z M195.4,49.7c0.1-0.1,0.2-0.3,0.4-0.5C195.6,49.4,195.5,49.5,195.4,49.7z M246.1,64.5
c1.8,0.7,3,0.8,4.5-0.1C249,64,247.8,64,246.1,64.5z M246.1,64.5c1.8,0.7,3,0.8,4.5-0.1C249,64,247.8,64,246.1,64.5z M195.4,49.7
c0.1-0.1,0.2-0.3,0.4-0.5C195.6,49.4,195.5,49.5,195.4,49.7z M178.4,39.8L178.4,39.8l4.7,0.1v-0.1H178.4z M34.1,40.6h-4.3
c0,0.1,0,0.1,0,0.2h4.3C34.1,40.7,34.1,40.6,34.1,40.6z M8,116.6H3.3c0,0.1,0,0.1,0,0.2h4.7C8.1,116.7,8,116.7,8,116.6z M75.4,11
C75.4,11,75.4,11,75.4,11C75.5,11,75.5,11,75.4,11C75.5,11,75.4,11,75.4,11z M34.1,40.6h-4.3c0,0.1,0,0.1,0,0.2h4.3
C34.1,40.7,34.1,40.6,34.1,40.6z M178.4,39.8L178.4,39.8l4.7,0.1v-0.1H178.4z M195.4,49.7c0.1-0.1,0.2-0.3,0.4-0.5
C195.6,49.4,195.5,49.5,195.4,49.7z M246.1,64.5c1.8,0.7,3,0.8,4.5-0.1C249,64,247.8,64,246.1,64.5z M246.1,64.5
c1.8,0.7,3,0.8,4.5-0.1C249,64,247.8,64,246.1,64.5z M195.4,49.7c0.1-0.1,0.2-0.3,0.4-0.5C195.6,49.4,195.5,49.5,195.4,49.7z
M178.4,39.8L178.4,39.8l4.7,0.1v-0.1H178.4z M34.1,40.6h-4.3c0,0.1,0,0.1,0,0.2h4.3C34.1,40.7,34.1,40.6,34.1,40.6z M75.4,11
C75.4,11,75.4,11,75.4,11C75.5,11,75.5,11,75.4,11C75.5,11,75.4,11,75.4,11z M34.1,40.6h-4.3c0,0.1,0,0.1,0,0.2h4.3
C34.1,40.7,34.1,40.6,34.1,40.6z M178.4,39.8L178.4,39.8l4.7,0.1v-0.1H178.4z M195.4,49.7c0.1-0.1,0.2-0.3,0.4-0.5
C195.6,49.4,195.5,49.5,195.4,49.7z M246.1,64.5c1.8,0.7,3,0.8,4.5-0.1C249,64,247.8,64,246.1,64.5z M246.1,64.5
c1.8,0.7,3,0.8,4.5-0.1C249,64,247.8,64,246.1,64.5z M195.4,49.7c0.1-0.1,0.2-0.3,0.4-0.5C195.6,49.4,195.5,49.5,195.4,49.7z
M178.4,39.8L178.4,39.8l4.7,0.1v-0.1H178.4z M34.1,40.6h-4.3c0,0.1,0,0.1,0,0.2h4.3C34.1,40.7,34.1,40.6,34.1,40.6z M75.4,11
C75.4,11,75.4,11,75.4,11C75.5,11,75.5,11,75.4,11C75.5,11,75.4,11,75.4,11z M34.1,40.6h-4.3c0,0.1,0,0.1,0,0.2h4.3
C34.1,40.7,34.1,40.6,34.1,40.6z M178.4,39.8L178.4,39.8l4.7,0.1v-0.1H178.4z M195.4,49.7c0.1-0.1,0.2-0.3,0.4-0.5
C195.6,49.4,195.5,49.5,195.4,49.7z M246.1,64.5c1.8,0.7,3,0.8,4.5-0.1C249,64,247.8,64,246.1,64.5z M246.1,64.5
c1.8,0.7,3,0.8,4.5-0.1C249,64,247.8,64,246.1,64.5z M195.4,49.7c0.1-0.1,0.2-0.3,0.4-0.5C195.6,49.4,195.5,49.5,195.4,49.7z
M178.4,39.8L178.4,39.8l4.7,0.1v-0.1H178.4z M34.1,40.6h-4.3c0,0.1,0,0.1,0,0.2h4.3C34.1,40.7,34.1,40.6,34.1,40.6z M75.4,11
C75.4,11,75.4,11,75.4,11C75.5,11,75.5,11,75.4,11C75.5,11,75.4,11,75.4,11z M34.1,40.6h-4.3c0,0.1,0,0.1,0,0.2h4.3
C34.1,40.7,34.1,40.6,34.1,40.6z M178.4,39.8L178.4,39.8l4.7,0.1v-0.1H178.4z M195.4,49.7c0.1-0.1,0.2-0.3,0.4-0.5
C195.6,49.4,195.5,49.5,195.4,49.7z M246.1,64.5c1.8,0.7,3,0.8,4.5-0.1C249,64,247.8,64,246.1,64.5z M246.1,64.5
c1.8,0.7,3,0.8,4.5-0.1C249,64,247.8,64,246.1,64.5z M195.4,49.7c0.1-0.1,0.2-0.3,0.4-0.5C195.6,49.4,195.5,49.5,195.4,49.7z
M178.4,39.8L178.4,39.8l4.7,0.1v-0.1H178.4z M34.1,40.6h-4.3c0,0.1,0,0.1,0,0.2h4.3C34.1,40.7,34.1,40.6,34.1,40.6z M75.4,11
C75.4,11,75.4,11,75.4,11C75.5,11,75.5,11,75.4,11C75.5,11,75.4,11,75.4,11z M34.1,40.6h-4.3c0,0.1,0,0.1,0,0.2h4.3
C34.1,40.7,34.1,40.6,34.1,40.6z M178.4,39.8L178.4,39.8l4.7,0.1v-0.1H178.4z M195.4,49.7c0.1-0.1,0.2-0.3,0.4-0.5
C195.6,49.4,195.5,49.5,195.4,49.7z M246.1,64.5c1.8,0.7,3,0.8,4.5-0.1C249,64,247.8,64,246.1,64.5z M246.1,64.5
c1.8,0.7,3,0.8,4.5-0.1C249,64,247.8,64,246.1,64.5z M195.4,49.7c0.1-0.1,0.2-0.3,0.4-0.5C195.6,49.4,195.5,49.5,195.4,49.7z
M178.4,39.8L178.4,39.8l4.7,0.1v-0.1H178.4z M34.1,40.6h-4.3c0,0.1,0,0.1,0,0.2h4.3C34.1,40.7,34.1,40.6,34.1,40.6z M75.4,11
C75.4,11,75.4,11,75.4,11C75.5,11,75.5,11,75.4,11C75.5,11,75.4,11,75.4,11z M34.1,40.6h-4.3c0,0.1,0,0.1,0,0.2h4.3
C34.1,40.7,34.1,40.6,34.1,40.6z M178.4,39.8L178.4,39.8l4.7,0.1v-0.1H178.4z M195.4,49.7c0.1-0.1,0.2-0.3,0.4-0.5
C195.6,49.4,195.5,49.5,195.4,49.7z M246.1,64.5c1.8,0.7,3,0.8,4.5-0.1C249,64,247.8,64,246.1,64.5z M246.1,64.5
c1.8,0.7,3,0.8,4.5-0.1C249,64,247.8,64,246.1,64.5z M195.4,49.7c0.1-0.1,0.2-0.3,0.4-0.5C195.6,49.4,195.5,49.5,195.4,49.7z
M178.4,39.8L178.4,39.8l4.7,0.1v-0.1H178.4z M34.1,40.6h-4.3c0,0.1,0,0.1,0,0.2h4.3C34.1,40.7,34.1,40.6,34.1,40.6z M75.4,11
C75.4,11,75.4,11,75.4,11C75.5,11,75.5,11,75.4,11C75.5,11,75.4,11,75.4,11z M34.1,40.6h-4.3c0,0.1,0,0.1,0,0.2h4.3
C34.1,40.7,34.1,40.6,34.1,40.6z M178.4,39.8L178.4,39.8l4.7,0.1v-0.1H178.4z M195.4,49.7c0.1-0.1,0.2-0.3,0.4-0.5
C195.6,49.4,195.5,49.5,195.4,49.7z M246.1,64.5c1.8,0.7,3,0.8,4.5-0.1C249,64,247.8,64,246.1,64.5z M246.1,64.5
c1.8,0.7,3,0.8,4.5-0.1C249,64,247.8,64,246.1,64.5z M195.4,49.7c0.1-0.1,0.2-0.3,0.4-0.5C195.6,49.4,195.5,49.5,195.4,49.7z
M178.4,39.8L178.4,39.8l4.7,0.1v-0.1H178.4z M34.1,40.6h-4.3c0,0.1,0,0.1,0,0.2h4.3C34.1,40.7,34.1,40.6,34.1,40.6z M75.4,11
C75.4,11,75.4,11,75.4,11C75.5,11,75.5,11,75.4,11C75.5,11,75.4,11,75.4,11z M34.1,40.6h-4.3c0,0.1,0,0.1,0,0.2h4.3
C34.1,40.7,34.1,40.6,34.1,40.6z M178.4,39.8L178.4,39.8l4.7,0.1v-0.1H178.4z M195.4,49.7c0.1-0.1,0.2-0.3,0.4-0.5
C195.6,49.4,195.5,49.5,195.4,49.7z M246.1,64.5c1.8,0.7,3,0.8,4.5-0.1C249,64,247.8,64,246.1,64.5z M246.1,64.5
c1.8,0.7,3,0.8,4.5-0.1C249,64,247.8,64,246.1,64.5z M195.4,49.7c0.1-0.1,0.2-0.3,0.4-0.5C195.6,49.4,195.5,49.5,195.4,49.7z
M178.4,39.8L178.4,39.8l4.7,0.1v-0.1H178.4z M34.1,40.6h-4.3c0,0.1,0,0.1,0,0.2h4.3C34.1,40.7,34.1,40.6,34.1,40.6z M75.4,11
C75.4,11,75.4,11,75.4,11C75.5,11,75.5,11,75.4,11C75.5,11,75.4,11,75.4,11z M178.4,39.8L178.4,39.8l4.7,0.1v-0.1H178.4z
M195.4,49.7c0.1-0.1,0.2-0.3,0.4-0.5C195.6,49.4,195.5,49.5,195.4,49.7z M246.1,64.5c1.8,0.7,3,0.8,4.5-0.1
C249,64,247.8,64,246.1,64.5z M246.1,64.5c1.8,0.7,3,0.8,4.5-0.1C249,64,247.8,64,246.1,64.5z M195.4,49.7c0.1-0.1,0.2-0.3,0.4-0.5
C195.6,49.4,195.5,49.5,195.4,49.7z M178.4,39.8L178.4,39.8l4.7,0.1v-0.1H178.4z M75.4,11C75.4,11,75.4,11,75.4,11
C75.5,11,75.5,11,75.4,11C75.5,11,75.4,11,75.4,11z M178.4,39.8L178.4,39.8l4.7,0.1v-0.1H178.4z M195.4,49.7
c0.1-0.1,0.2-0.3,0.4-0.5C195.6,49.4,195.5,49.5,195.4,49.7z M246.1,64.5c1.8,0.7,3,0.8,4.5-0.1C249,64,247.8,64,246.1,64.5z
M246.1,64.5c1.8,0.7,3,0.8,4.5-0.1C249,64,247.8,64,246.1,64.5z M195.4,49.7c0.1-0.1,0.2-0.3,0.4-0.5
C195.6,49.4,195.5,49.5,195.4,49.7z M178.4,39.8L178.4,39.8l4.7,0.1v-0.1H178.4z M75.4,11C75.4,11,75.4,11,75.4,11
C75.5,11,75.5,11,75.4,11C75.5,11,75.4,11,75.4,11z M178.4,39.8L178.4,39.8l4.7,0.1v-0.1H178.4z M195.4,49.7
c0.1-0.1,0.2-0.3,0.4-0.5C195.6,49.4,195.5,49.5,195.4,49.7z M246.1,64.5c1.8,0.7,3,0.8,4.5-0.1C249,64,247.8,64,246.1,64.5z
M246.1,64.5c1.8,0.7,3,0.8,4.5-0.1C249,64,247.8,64,246.1,64.5z M195.4,49.7c0.1-0.1,0.2-0.3,0.4-0.5
C195.6,49.4,195.5,49.5,195.4,49.7z M178.4,39.8L178.4,39.8l4.7,0.1v-0.1H178.4z M75.4,11C75.4,11,75.4,11,75.4,11
C75.5,11,75.5,11,75.4,11C75.5,11,75.4,11,75.4,11z M178.4,39.8L178.4,39.8l4.7,0.1v-0.1H178.4z M195.4,49.7
c0.1-0.1,0.2-0.3,0.4-0.5C195.6,49.4,195.5,49.5,195.4,49.7z M246.1,64.5c1.8,0.7,3,0.8,4.5-0.1C249,64,247.8,64,246.1,64.5z
M246.1,64.5c1.8,0.7,3,0.8,4.5-0.1C249,64,247.8,64,246.1,64.5z M195.4,49.7c0.1-0.1,0.2-0.3,0.4-0.5
C195.6,49.4,195.5,49.5,195.4,49.7z M178.4,39.8L178.4,39.8l4.7,0.1v-0.1H178.4z M75.4,11C75.4,11,75.4,11,75.4,11
C75.5,11,75.5,11,75.4,11C75.5,11,75.4,11,75.4,11z M178.4,39.8L178.4,39.8l4.7,0.1v-0.1H178.4z M195.4,49.7
c0.1-0.1,0.2-0.3,0.4-0.5C195.6,49.4,195.5,49.5,195.4,49.7z M246.1,64.5c1.8,0.7,3,0.8,4.5-0.1C249,64,247.8,64,246.1,64.5z
M246.1,64.5c1.8,0.7,3,0.8,4.5-0.1C249,64,247.8,64,246.1,64.5z M195.4,49.7c0.1-0.1,0.2-0.3,0.4-0.5
C195.6,49.4,195.5,49.5,195.4,49.7z M178.4,39.8L178.4,39.8l4.7,0.1v-0.1H178.4z M75.4,11C75.4,11,75.4,11,75.4,11
C75.5,11,75.5,11,75.4,11C75.5,11,75.4,11,75.4,11z M178.4,39.8L178.4,39.8l4.7,0.1v-0.1H178.4z M195.4,49.7
c0.1-0.1,0.2-0.3,0.4-0.5C195.6,49.4,195.5,49.5,195.4,49.7z M246.1,64.5c1.8,0.7,3,0.8,4.5-0.1C249,64,247.8,64,246.1,64.5z
M246.1,64.5c1.8,0.7,3,0.8,4.5-0.1C249,64,247.8,64,246.1,64.5z M195.4,49.7c0.1-0.1,0.2-0.3,0.4-0.5
C195.6,49.4,195.5,49.5,195.4,49.7z M178.4,39.8L178.4,39.8l4.7,0.1v-0.1H178.4z M75.4,11C75.4,11,75.4,11,75.4,11
C75.5,11,75.5,11,75.4,11C75.5,11,75.4,11,75.4,11z M178.4,39.8L178.4,39.8l4.7,0.1v-0.1H178.4z M195.4,49.7
c0.1-0.1,0.2-0.3,0.4-0.5C195.6,49.4,195.5,49.5,195.4,49.7z M246.1,64.5c1.8,0.7,3,0.8,4.5-0.1C249,64,247.8,64,246.1,64.5z
M246.1,64.5c1.8,0.7,3,0.8,4.5-0.1C249,64,247.8,64,246.1,64.5z M195.4,49.7c0.1-0.1,0.2-0.3,0.4-0.5
C195.6,49.4,195.5,49.5,195.4,49.7z M178.4,39.8L178.4,39.8l4.7,0.1v-0.1H178.4z M178.4,39.8L178.4,39.8l4.7,0.1v-0.1H178.4z
M195.4,49.7c0.1-0.1,0.2-0.3,0.4-0.5C195.6,49.4,195.5,49.5,195.4,49.7z M246.1,64.5c1.8,0.7,3,0.8,4.5-0.1
C249,64,247.8,64,246.1,64.5z M246.1,64.5c1.8,0.7,3,0.8,4.5-0.1C249,64,247.8,64,246.1,64.5z M195.4,49.7c0.1-0.1,0.2-0.3,0.4-0.5
C195.6,49.4,195.5,49.5,195.4,49.7z M178.4,39.8L178.4,39.8l4.7,0.1v-0.1H178.4z M178.4,39.8L178.4,39.8l4.7,0.1v-0.1H178.4z
M195.4,49.7c0.1-0.1,0.2-0.3,0.4-0.5C195.6,49.4,195.5,49.5,195.4,49.7z M246.1,64.5c1.8,0.7,3,0.8,4.5-0.1
C249,64,247.8,64,246.1,64.5z M246.1,64.5c1.8,0.7,3,0.8,4.5-0.1C249,64,247.8,64,246.1,64.5z M195.4,49.7c0.1-0.1,0.2-0.3,0.4-0.5
C195.6,49.4,195.5,49.5,195.4,49.7z M178.4,39.8L178.4,39.8l4.7,0.1v-0.1H178.4z M178.4,39.8L178.4,39.8l4.7,0.1v-0.1H178.4z
M195.4,49.7c0.1-0.1,0.2-0.3,0.4-0.5C195.6,49.4,195.5,49.5,195.4,49.7z M246.1,64.5c1.8,0.7,3,0.8,4.5-0.1
C249,64,247.8,64,246.1,64.5z M246.1,64.5c1.8,0.7,3,0.8,4.5-0.1C249,64,247.8,64,246.1,64.5z M195.4,49.7c0.1-0.1,0.2-0.3,0.4-0.5
C195.6,49.4,195.5,49.5,195.4,49.7z M178.4,39.8L178.4,39.8l4.7,0.1v-0.1H178.4z M178.4,39.8L178.4,39.8l4.7,0.1v-0.1H178.4z
M195.4,49.7c0.1-0.1,0.2-0.3,0.4-0.5C195.6,49.4,195.5,49.5,195.4,49.7z M246.1,64.5c1.8,0.7,3,0.8,4.5-0.1
C249,64,247.8,64,246.1,64.5z M246.1,64.5c1.8,0.7,3,0.8,4.5-0.1C249,64,247.8,64,246.1,64.5z M195.4,49.7c0.1-0.1,0.2-0.3,0.4-0.5
C195.6,49.4,195.5,49.5,195.4,49.7z M178.4,39.8L178.4,39.8l4.7,0.1v-0.1H178.4z M178.4,39.8L178.4,39.8l4.7,0.1v-0.1H178.4z
M195.4,49.7c0.1-0.1,0.2-0.3,0.4-0.5C195.6,49.4,195.5,49.5,195.4,49.7z M246.1,64.5c1.8,0.7,3,0.8,4.5-0.1
C249,64,247.8,64,246.1,64.5z M246.1,64.5c1.8,0.7,3,0.8,4.5-0.1C249,64,247.8,64,246.1,64.5z M195.4,49.7c0.1-0.1,0.2-0.3,0.4-0.5
C195.6,49.4,195.5,49.5,195.4,49.7z M178.4,39.8L178.4,39.8l4.7,0.1v-0.1H178.4z M178.4,39.8L178.4,39.8l4.7,0.1v-0.1H178.4z
M195.4,49.7c0.1-0.1,0.2-0.3,0.4-0.5C195.6,49.4,195.5,49.5,195.4,49.7z M246.1,64.5c1.8,0.7,3,0.8,4.5-0.1
C249,64,247.8,64,246.1,64.5z M246.1,64.5c1.8,0.7,3,0.8,4.5-0.1C249,64,247.8,64,246.1,64.5z M195.4,49.7c0.1-0.1,0.2-0.3,0.4-0.5
C195.6,49.4,195.5,49.5,195.4,49.7z M178.4,39.8L178.4,39.8l4.7,0.1v-0.1H178.4z M178.4,39.8L178.4,39.8l4.7,0.1v-0.1H178.4z
M195.4,49.7c0.1-0.1,0.2-0.3,0.4-0.5C195.6,49.4,195.5,49.5,195.4,49.7z M246.1,64.5c1.8,0.7,3,0.8,4.5-0.1
C249,64,247.8,64,246.1,64.5z M246.1,64.5c1.8,0.7,3,0.8,4.5-0.1C249,64,247.8,64,246.1,64.5z M195.4,49.7c0.1-0.1,0.2-0.3,0.4-0.5
C195.6,49.4,195.5,49.5,195.4,49.7z M178.4,39.8L178.4,39.8l4.7,0.1v-0.1H178.4z M178.4,39.8L178.4,39.8l4.7,0.1v-0.1H178.4z
M195.4,49.7c0.1-0.1,0.2-0.3,0.4-0.5C195.6,49.4,195.5,49.5,195.4,49.7z M246.1,64.5c1.8,0.7,3,0.8,4.5-0.1
C249,64,247.8,64,246.1,64.5z M246.1,64.5c1.8,0.7,3,0.8,4.5-0.1C249,64,247.8,64,246.1,64.5z M195.4,49.7c0.1-0.1,0.2-0.3,0.4-0.5
C195.6,49.4,195.5,49.5,195.4,49.7z M178.4,39.8L178.4,39.8l4.7,0.1v-0.1H178.4z M178.4,39.8L178.4,39.8l4.7,0.1v-0.1H178.4z
M195.4,49.7c0.1-0.1,0.2-0.3,0.4-0.5C195.6,49.4,195.5,49.5,195.4,49.7z M246.1,64.5c1.8,0.7,3,0.8,4.5-0.1
C249,64,247.8,64,246.1,64.5z M246.1,64.5c1.8,0.7,3,0.8,4.5-0.1C249,64,247.8,64,246.1,64.5z M195.4,49.7c0.1-0.1,0.2-0.3,0.4-0.5
C195.6,49.4,195.5,49.5,195.4,49.7z M178.4,39.8L178.4,39.8l4.7,0.1v-0.1H178.4z M178.4,39.8L178.4,39.8l4.7,0.1v-0.1H178.4z
M195.4,49.7c0.1-0.1,0.2-0.3,0.4-0.5C195.6,49.4,195.5,49.5,195.4,49.7z M246.1,64.5c1.8,0.7,3,0.8,4.5-0.1
C249,64,247.8,64,246.1,64.5z M246.1,64.5c1.8,0.7,3,0.8,4.5-0.1C249,64,247.8,64,246.1,64.5z M195.4,49.7c0.1-0.1,0.2-0.3,0.4-0.5
C195.6,49.4,195.5,49.5,195.4,49.7z M178.4,39.8L178.4,39.8l4.7,0.1v-0.1H178.4z M178.4,39.8L178.4,39.8l4.7,0.1v-0.1H178.4z
M195.4,49.7c0.1-0.1,0.2-0.3,0.4-0.5C195.6,49.4,195.5,49.5,195.4,49.7z M246.1,64.5c1.8,0.7,3,0.8,4.5-0.1
C249,64,247.8,64,246.1,64.5z M246.1,64.5c1.8,0.7,3,0.8,4.5-0.1C249,64,247.8,64,246.1,64.5z M195.4,49.7c0.1-0.1,0.2-0.3,0.4-0.5
C195.6,49.4,195.5,49.5,195.4,49.7z M178.4,39.8L178.4,39.8l4.7,0.1v-0.1H178.4z M178.4,39.8L178.4,39.8l4.7,0.1v-0.1H178.4z
M195.4,49.7c0.1-0.1,0.2-0.3,0.4-0.5C195.6,49.4,195.5,49.5,195.4,49.7z M246.1,64.5c1.8,0.7,3,0.8,4.5-0.1
C249,64,247.8,64,246.1,64.5z M246.1,64.5c1.8,0.7,3,0.8,4.5-0.1C249,64,247.8,64,246.1,64.5z M195.4,49.7c0.1-0.1,0.2-0.3,0.4-0.5
C195.6,49.4,195.5,49.5,195.4,49.7z M178.4,39.8L178.4,39.8l4.7,0.1v-0.1H178.4z M178.4,39.8L178.4,39.8l4.7,0.1v-0.1H178.4z
M195.4,49.7c0.1-0.1,0.2-0.3,0.4-0.5C195.6,49.4,195.5,49.5,195.4,49.7z M246.1,64.5c1.8,0.7,3,0.8,4.5-0.1
C249,64,247.8,64,246.1,64.5z M246.1,64.5c1.8,0.7,3,0.8,4.5-0.1C249,64,247.8,64,246.1,64.5z M195.4,49.7c0.1-0.1,0.2-0.3,0.4-0.5
C195.6,49.4,195.5,49.5,195.4,49.7z M178.4,39.8L178.4,39.8l4.7,0.1v-0.1H178.4z M178.4,39.8L178.4,39.8l4.7,0.1v-0.1H178.4z
M195.4,49.7c0.1-0.1,0.2-0.3,0.4-0.5C195.6,49.4,195.5,49.5,195.4,49.7z M246.1,64.5c1.8,0.7,3,0.8,4.5-0.1
C249,64,247.8,64,246.1,64.5z M246.1,64.5c1.8,0.7,3,0.8,4.5-0.1C249,64,247.8,64,246.1,64.5z M195.4,49.7c0.1-0.1,0.2-0.3,0.4-0.5
C195.6,49.4,195.5,49.5,195.4,49.7z M178.4,39.8L178.4,39.8l4.7,0.1v-0.1H178.4z M178.4,39.8L178.4,39.8l4.7,0.1v-0.1H178.4z
M195.4,49.7c0.1-0.1,0.2-0.3,0.4-0.5C195.6,49.4,195.5,49.5,195.4,49.7z M246.1,64.5c1.8,0.7,3,0.8,4.5-0.1
C249,64,247.8,64,246.1,64.5z M246.1,64.5c1.8,0.7,3,0.8,4.5-0.1C249,64,247.8,64,246.1,64.5z M195.4,49.7c0.1-0.1,0.2-0.3,0.4-0.5
C195.6,49.4,195.5,49.5,195.4,49.7z M178.4,39.8L178.4,39.8l4.7,0.1v-0.1H178.4z M178.4,39.8L178.4,39.8l4.7,0.1v-0.1H178.4z
M195.4,49.7c0.1-0.1,0.2-0.3,0.4-0.5C195.6,49.4,195.5,49.5,195.4,49.7z M246.1,64.5c1.8,0.7,3,0.8,4.5-0.1
C249,64,247.8,64,246.1,64.5z M246.1,64.5c1.8,0.7,3,0.8,4.5-0.1C249,64,247.8,64,246.1,64.5z M195.4,49.7c0.1-0.1,0.2-0.3,0.4-0.5
C195.6,49.4,195.5,49.5,195.4,49.7z M178.4,39.8L178.4,39.8l4.7,0.1v-0.1H178.4z M178.4,39.8L178.4,39.8l4.7,0.1v-0.1H178.4z
M246.1,64.5c1.8,0.7,3,0.8,4.5-0.1C249,64,247.8,64,246.1,64.5z M246.1,64.5c1.8,0.7,3,0.8,4.5-0.1C249,64,247.8,64,246.1,64.5z
M178.4,39.8L178.4,39.8l4.7,0.1v-0.1H178.4z M246.1,64.5c1.8,0.7,3,0.8,4.5-0.1C249,64,247.8,64,246.1,64.5z M246.1,64.5
c1.8,0.7,3,0.8,4.5-0.1C249,64,247.8,64,246.1,64.5z M246.1,64.5c1.8,0.7,3,0.8,4.5-0.1C249,64,247.8,64,246.1,64.5z M246.1,64.5
c1.8,0.7,3,0.8,4.5-0.1C249,64,247.8,64,246.1,64.5z M246.1,64.5c1.8,0.7,3,0.8,4.5-0.1C249,64,247.8,64,246.1,64.5z M246.1,64.5
c1.8,0.7,3,0.8,4.5-0.1C249,64,247.8,64,246.1,64.5z M246.1,64.5c1.8,0.7,3,0.8,4.5-0.1C249,64,247.8,64,246.1,64.5z M246.1,64.5
c1.8,0.7,3,0.8,4.5-0.1C249,64,247.8,64,246.1,64.5z M246.1,64.5c1.8,0.7,3,0.8,4.5-0.1C249,64,247.8,64,246.1,64.5z M246.1,64.5
c1.8,0.7,3,0.8,4.5-0.1C249,64,247.8,64,246.1,64.5z M246.1,64.5c1.8,0.7,3,0.8,4.5-0.1C249,64,247.8,64,246.1,64.5z M246.1,64.5
c1.8,0.7,3,0.8,4.5-0.1C249,64,247.8,64,246.1,64.5z M246.1,64.5c1.8,0.7,3,0.8,4.5-0.1C249,64,247.8,64,246.1,64.5z M246.1,64.5
c1.8,0.7,3,0.8,4.5-0.1C249,64,247.8,64,246.1,64.5z M246.1,64.5c1.8,0.7,3,0.8,4.5-0.1C249,64,247.8,64,246.1,64.5z M246.1,64.5
c1.8,0.7,3,0.8,4.5-0.1C249,64,247.8,64,246.1,64.5z M246.1,64.5c1.8,0.7,3,0.8,4.5-0.1C249,64,247.8,64,246.1,64.5z M246.1,64.5
c1.8,0.7,3,0.8,4.5-0.1C249,64,247.8,64,246.1,64.5z M246.1,64.5c1.8,0.7,3,0.8,4.5-0.1C249,64,247.8,64,246.1,64.5z M246.1,64.5
c1.8,0.7,3,0.8,4.5-0.1C249,64,247.8,64,246.1,64.5z M246.1,64.5c1.8,0.7,3,0.8,4.5-0.1C249,64,247.8,64,246.1,64.5z M246.1,64.5
c1.8,0.7,3,0.8,4.5-0.1C249,64,247.8,64,246.1,64.5z M246.1,64.5c1.8,0.7,3,0.8,4.5-0.1C249,64,247.8,64,246.1,64.5z M246.1,64.5
c1.8,0.7,3,0.8,4.5-0.1C249,64,247.8,64,246.1,64.5z M246.1,64.5c1.8,0.7,3,0.8,4.5-0.1C249,64,247.8,64,246.1,64.5z M246.1,64.5
c1.8,0.7,3,0.8,4.5-0.1C249,64,247.8,64,246.1,64.5z M246.1,64.5c1.8,0.7,3,0.8,4.5-0.1C249,64,247.8,64,246.1,64.5z M246.1,64.5
c1.8,0.7,3,0.8,4.5-0.1C249,64,247.8,64,246.1,64.5z M246.1,64.5c1.8,0.7,3,0.8,4.5-0.1C249,64,247.8,64,246.1,64.5z M246.1,64.5
c1.8,0.7,3,0.8,4.5-0.1C249,64,247.8,64,246.1,64.5z M246.1,64.5c1.8,0.7,3,0.8,4.5-0.1C249,64,247.8,64,246.1,64.5z M246.1,64.5
c1.8,0.7,3,0.8,4.5-0.1C249,64,247.8,64,246.1,64.5z M246.1,64.5c1.8,0.7,3,0.8,4.5-0.1C249,64,247.8,64,246.1,64.5z M246.1,64.5
c1.8,0.7,3,0.8,4.5-0.1C249,64,247.8,64,246.1,64.5z M246.1,64.5c1.8,0.7,3,0.8,4.5-0.1C249,64,247.8,64,246.1,64.5z M246.1,64.5
c1.8,0.7,3,0.8,4.5-0.1C249,64,247.8,64,246.1,64.5z M246.1,64.5c1.8,0.7,3,0.8,4.5-0.1C249,64,247.8,64,246.1,64.5z M246.1,64.5
c1.8,0.7,3,0.8,4.5-0.1C249,64,247.8,64,246.1,64.5z M246.1,64.5c1.8,0.7,3,0.8,4.5-0.1C249,64,247.8,64,246.1,64.5z M246.1,64.5
c1.8,0.7,3,0.8,4.5-0.1C249,64,247.8,64,246.1,64.5z M246.1,64.5c1.8,0.7,3,0.8,4.5-0.1C249,64,247.8,64,246.1,64.5z M246.1,64.5
c1.8,0.7,3,0.8,4.5-0.1C249,64,247.8,64,246.1,64.5z M246.1,64.5c1.8,0.7,3,0.8,4.5-0.1C249,64,247.8,64,246.1,64.5z M246.1,64.5
c1.8,0.7,3,0.8,4.5-0.1C249,64,247.8,64,246.1,64.5z M246.1,64.5c1.8,0.7,3,0.8,4.5-0.1C249,64,247.8,64,246.1,64.5z M246.1,64.5
c1.8,0.7,3,0.8,4.5-0.1C249,64,247.8,64,246.1,64.5z M246.1,64.5c1.8,0.7,3,0.8,4.5-0.1C249,64,247.8,64,246.1,64.5z M246.1,64.5
c1.8,0.7,3,0.8,4.5-0.1C249,64,247.8,64,246.1,64.5z M246.1,64.5c1.8,0.7,3,0.8,4.5-0.1C249,64,247.8,64,246.1,64.5z M246.1,64.5
c1.8,0.7,3,0.8,4.5-0.1C249,64,247.8,64,246.1,64.5z M246.1,64.5c1.8,0.7,3,0.8,4.5-0.1C249,64,247.8,64,246.1,64.5z M246.1,64.5
c1.8,0.7,3,0.8,4.5-0.1C249,64,247.8,64,246.1,64.5z M246.1,64.5c1.8,0.7,3,0.8,4.5-0.1C249,64,247.8,64,246.1,64.5z M246.1,64.5
c1.8,0.7,3,0.8,4.5-0.1C249,64,247.8,64,246.1,64.5z M246.1,64.5c1.8,0.7,3,0.8,4.5-0.1C249,64,247.8,64,246.1,64.5z M246.1,64.5
c1.8,0.7,3,0.8,4.5-0.1C249,64,247.8,64,246.1,64.5z M246.1,64.5c1.8,0.7,3,0.8,4.5-0.1C249,64,247.8,64,246.1,64.5z M246.1,64.5
c1.8,0.7,3,0.8,4.5-0.1C249,64,247.8,64,246.1,64.5z M246.1,64.5c1.8,0.7,3,0.8,4.5-0.1C249,64,247.8,64,246.1,64.5z M246.1,64.5
c1.8,0.7,3,0.8,4.5-0.1C249,64,247.8,64,246.1,64.5z M246.1,64.5c1.8,0.7,3,0.8,4.5-0.1C249,64,247.8,64,246.1,64.5z M246.1,64.5
c1.8,0.7,3,0.8,4.5-0.1C249,64,247.8,64,246.1,64.5z M75.4,11C75.4,11,75.4,11,75.4,11C75.5,11,75.5,11,75.4,11
C75.5,11,75.4,11,75.4,11z M75.4,11C75.4,11,75.4,11,75.4,11C75.5,11,75.5,11,75.4,11C75.5,11,75.4,11,75.4,11z M75.4,11
C75.4,11,75.4,11,75.4,11C75.5,11,75.5,11,75.4,11C75.5,11,75.4,11,75.4,11z M75.4,11C75.4,11,75.4,11,75.4,11
C75.5,11,75.5,11,75.4,11C75.5,11,75.4,11,75.4,11z M75.4,11C75.4,11,75.4,11,75.4,11C75.5,11,75.5,11,75.4,11
C75.5,11,75.4,11,75.4,11z M75.4,11C75.4,11,75.4,11,75.4,11C75.5,11,75.5,11,75.4,11C75.5,11,75.4,11,75.4,11z M246.1,64.5
c1.8,0.7,3,0.8,4.5-0.1C249,64,247.8,64,246.1,64.5z M246.1,64.5c1.8,0.7,3,0.8,4.5-0.1C249,64,247.8,64,246.1,64.5z M75.4,11
C75.4,11,75.4,11,75.4,11C75.5,11,75.5,11,75.4,11C75.5,11,75.4,11,75.4,11z M246.1,64.5c1.8,0.7,3,0.8,4.5-0.1
C249,64,247.8,64,246.1,64.5z M246.1,64.5c1.8,0.7,3,0.8,4.5-0.1C249,64,247.8,64,246.1,64.5z M75.4,11C75.4,11,75.4,11,75.4,11
C75.5,11,75.5,11,75.4,11C75.5,11,75.4,11,75.4,11z M246.1,64.5c1.8,0.7,3,0.8,4.5-0.1C249,64,247.8,64,246.1,64.5z M268.5,48
c-1.1-0.3-2.2-0.2-3.2,0c0.4,0,0.9,0,1.4,0h1.9C268.6,48,268.6,48,268.5,48z M246.1,64.5c1.8,0.7,3,0.8,4.5-0.1
C249,64,247.8,64,246.1,64.5z M244.9,106.8L244.9,106.8c0,0.1,0,0.1,0.1,0.1c0.6,0,1.2-0.1,1.9-0.1
C246.2,106.8,245.6,106.8,244.9,106.8z M237,89.9c0-1.5,0-3.1,0-4.6c0,2.2,0,4.5,0,6.7C237,91.3,237,90.6,237,89.9z M224.7,64.9
c0.1,0.5,0.2,1.1,0.4,1.5C224.9,65.9,224.8,65.4,224.7,64.9z M204.5,71.9c2.3,0,4.6,0,7-0.1C209.2,71.8,206.8,71.8,204.5,71.9z
M197.9,55.5c0.1-0.1,0.3-0.3,0.4-0.4c1-1,1.9-2,2.9-2.9C199.9,53.1,198.8,54.2,197.9,55.5z M206,64.8c-0.1-1.1-0.1-2.2-0.1-3.2
c0,1.2,0,2.5,0.1,3.8C206.1,65.2,206.1,65,206,64.8z M150.4,49.9c1.6,0.4,3,1.1,4.2,2C153.4,51,152,50.3,150.4,49.9z M138.7,57.6
c0,0.6,0,1.1,0.1,1.7c0-0.6,0-1.2,0-1.9C138.7,57.4,138.7,57.5,138.7,57.6z M120.3,66.7c0,0.1,0,0.2,0.1,0c0,0,0,0,0,0
C120.4,66.7,120.4,66.7,120.3,66.7z M144,8.5c-0.9,0.3-2.5-0.9-2.6,1c-0.1,1.2,0.9,1.3,2,1.4c0.8-0.1,1.9-0.1,2-1.4
C145.5,8.5,144.7,8.3,144,8.5z M170.4,10.8c0.4,0.4,1.1,0,1.6-0.1C171.5,10.8,171,10.8,170.4,10.8z M129.5,63.1
c0-0.1,0.1-0.3,0.1-0.4C129.6,62.8,129.5,62.9,129.5,63.1z M90.1,26.4c0.4,0.1,0.8,0.1,1.2,0H90.1z M61.8,55.5
c0.1-0.1,0.2-0.2,0.4-0.4c0.7-0.7,1.5-1.4,2.3-2C63.4,53.8,62.6,54.6,61.8,55.5z M75.4,11C75.4,11,75.4,11,75.4,11
C75.5,11,75.5,11,75.4,11C75.5,11,75.4,11,75.4,11z M74.9,82.4c3.2,0,6.4-0.1,9.7-0.3c0.3,0,0.5,0,0.8,0
C81.9,82.1,78.4,82.2,74.9,82.4z M8,116.6H3.3c0,0.1,0,0.1,0,0.2h4.7C8.1,116.7,8,116.7,8,116.6z M75.4,11C75.4,11,75.4,11,75.4,11
C75.5,11,75.5,11,75.4,11C75.5,11,75.4,11,75.4,11z M246.1,64.5c1.8,0.7,3,0.8,4.5-0.1C249,64,247.8,64,246.1,64.5z M246.1,64.5
c1.8,0.7,3,0.8,4.5-0.1C249,64,247.8,64,246.1,64.5z M75.4,11C75.4,11,75.4,11,75.4,11C75.5,11,75.5,11,75.4,11
C75.5,11,75.4,11,75.4,11z M246.1,64.5c1.8,0.7,3,0.8,4.5-0.1C249,64,247.8,64,246.1,64.5z M246.1,64.5c1.8,0.7,3,0.8,4.5-0.1
C249,64,247.8,64,246.1,64.5z M75.4,11C75.4,11,75.4,11,75.4,11C75.5,11,75.5,11,75.4,11C75.5,11,75.4,11,75.4,11z M75.4,11
C75.4,11,75.4,11,75.4,11C75.5,11,75.5,11,75.4,11C75.5,11,75.4,11,75.4,11z M75.4,11C75.4,11,75.4,11,75.4,11
C75.5,11,75.5,11,75.4,11C75.5,11,75.4,11,75.4,11z M75.4,11C75.4,11,75.4,11,75.4,11C75.5,11,75.5,11,75.4,11
C75.5,11,75.4,11,75.4,11z M75.4,11C75.4,11,75.4,11,75.4,11C75.5,11,75.5,11,75.4,11C75.5,11,75.4,11,75.4,11z M75.4,11
C75.4,11,75.4,11,75.4,11C75.5,11,75.5,11,75.4,11C75.5,11,75.4,11,75.4,11z M75.4,11C75.4,11,75.4,11,75.4,11
C75.5,11,75.5,11,75.4,11C75.5,11,75.4,11,75.4,11z"/>
<path d="M4.8,62.7C5.1,65,4.1,65.8,2,65.5c-0.6-0.1-1.3,0-1.9,0v-1.4c0.9,0,1.9,0.1,2.8,0.1c0.8,0,1.3-0.2,1.6-1.1c0.1-0.4,0.2-0.8,0.2-1.2C4.7,62.2,4.7,62.5,4.8,62.7z"/>
<path d="M20.8,51.1c-0.1,0.7-0.2,1.4-0.1,2.2c0.3,6-0.1,5-5.2,5.1c-0.6,0-1.2-0.1-1.7,0c-1.3,0.4-3.1-1.4-3.6,0.1c-0.4,1-0.6,2.6-0.6,3.9c0,0.1,0,0.2,0,0.2c-0.2,1,0.6,2.4-1.1,2.8c-0.4,0.1-0.9,0.5-1.2-0.2c-0.5-1.1-1.1-2.1-0.1-3.3c0.3-0.4,1.3-1.4-0.5-1.4c-0.8,0-0.6-0.6,0-0.8c1.4-0.4,0.2-1.7,0.8-2.4c0.3-0.3-0.7-0.4-1.1-0.6c-0.5-0.3-0.6,0.1-0.7,0.5c-0.4,1.1-0.8,2.2-1,3.3c-0.2-2.1-1.7-2.9-4.7-2.2v-11h20.2c0,0.2,0,0.5,0.1,0.7c-0.1,0-0.2,0.1-0.3,0.1c-1,0.3-2,0.6-3.5,1c1.1,0,1.8,0.2,2.5,0.1C20.6,49,21,49.7,20.8,51.1z"/>
<path d="M0.1,67.5c2.1,0,4.2,0.1,6.2,0c0.8,0,2.1,0.7,2.3-0.9c0-0.1,0.3-0.3,0.3-0.2c3.5,2.6,7.5,0.4,11.2,1.4c0.1,0,0.1,0.1,0.4,0.5c-2.8,0-5.5,0-8.1,0c0,0.2,0,0.3,0,0.5c2.1,0,4.3,0,6.4,0c0.9,0,2-0.3,2,1.3c0,1.5-1,1.7-2.1,1.6C13.1,71.2,7.6,71.9,2,71.8c-0.6,0-1.3,0-1.9,0C0.1,70.3,0.1,68.9,0.1,67.5z"/>
<path d="M285.2,70.3c-6.1,0-12.1,0-18.2,0c-1,0-2.2,0.3-2.3-1.3c-0.1-1.8,1.3-1.3,2.2-1.3c3.5-0.1,7,0,10.5-0.4c-4.1,0-8.1,0-12.2,0c0-0.3,0-0.6,0-0.9c6.7,0,13.4,0,20,0C285.2,67.8,285.2,69.1,285.2,70.3z"/>
<path d="M0.1,76.6c1.1,0.4,2.2,1,3.4,1.2c1.7,0.3,2.3,1.3,1.8,2.7c-0.8,2.1-0.8,4.4-2.1,6.6C3,86.4,2.8,85.9,3,85.5c1.2-3.1-0.9-3-2.9-3.2C0.1,80.4,0.1,78.5,0.1,76.6z"/>
<path d="M285.2,80.9c-0.7,0-1.4,0-2.1,0.1c-1.1,0.2-2.1,0.6-1.2,2.1c0.2,0.4,0.2,1.1-0.3,1.2c-0.8,0.1-0.6-0.5-0.6-1c0-0.3,0.1-0.7,0-0.9c-0.6-1.7-2.1-3.6-0.7-5c1.2-1.2,3.3-1.5,4.9-2.1C285.2,77.1,285.2,79,285.2,80.9z"/>
<path class="st0" d="M8.1,116.8H3.3c0-0.1,0-0.1,0-0.2H8C8,116.7,8.1,116.7,8.1,116.8z"/>
<path d="M285.2,96.7c-1.2,0.3-1.8,0-1.8-1.4c0-3.6-0.1-7.1-0.3-10.7c-0.1-1.6,0.5-2.4,2-2.4C285.2,87.1,285.2,91.9,285.2,96.7z"/>
<path d="M0.1,83.8c1.2,0,1.7,0.6,1.7,1.8c0,3.7,0.1,7.3,0.1,11c0,1.2-0.2,2.3-1.8,2.1C0.1,93.7,0.1,88.7,0.1,83.8z"/>
<path d="M0.1,99.1c6.3,0,12.5,0,18.8,0c0,0.2,0,0.4,0,0.6c-6.3,0.5-12.6,0.1-18.8,0.4C0.1,99.8,0.1,99.5,0.1,99.1z"/>
<path d="M282.4,119.6c-0.1,0-0.2,0-0.3,0c-0.1-0.1-0.2-0.2-0.2-0.2C282,119.5,282.2,119.6,282.4,119.6z"/>
<path d="M285.2,113.5v4.3c-1.4-0.3-2.1,1.3-3.4,1.4c-0.8-2,1.2-3,1.7-4.8h-5.8C280.2,113.9,282.8,114.9,285.2,113.5z"/>
<path d="M285.2,98.2c-6,0-12.1,0-18.1,0c0-0.3,0-0.6,0-1c6,0,12.1,0,18.1,0C285.2,97.5,285.2,97.9,285.2,98.2z"/>
<path d="M285.2,65.1c-1.8-0.1-3.6-0.2-5.7-0.3c0.6-1.1,0.6-2.2,0.6-3.2c0.9,3.1,3.4,1.1,5.1,1.6C285.2,63.8,285.2,64.4,285.2,65.1z"/>
<path d="M39.4,121.7c-0.8-0.6-0.6-1.4-0.4-2.1c0.3-0.9,0.8-1.6,1.9-1.3c1.1,0.2,1,1.1,0.9,1.9c0,0.5-0.4,1-0.1,1.6C41,121.7,40.2,121.7,39.4,121.7z"/>
<path d="M282.1,119.6c-0.1-0.1-0.2-0.2-0.2-0.2c0.2,0.2,0.4,0.3,0.6,0.3C282.3,119.6,282.2,119.6,282.1,119.6z"/>
<path d="M284.5,121.7c-1.7-0.1-3.4,0-5,0c1-0.5,0.7-2.5,2.4-2.4c0.6,1.7,2.4,0.6,3.4,1.4C285.1,121.2,285.4,121.8,284.5,121.7z"/>
<path d="M194.5,121.7c-1-0.8-0.7-1.7-0.1-2.7c0.6,0.6,0.6,2.7,2.3,1.1c0.4-0.4,0.9,0,1.1,0.5c0.4,0.8-0.7,0.7-0.9,1.1C196.1,121.7,195.3,121.7,194.5,121.7z"/>
<path class="st0" d="M281.8,119.3C281.8,119.3,281.8,119.3,281.8,119.3L281.8,119.3C281.8,119.3,281.8,119.3,281.8,119.3C281.8,119.3,281.8,119.3,281.8,119.3z"/>
<path class="st0" d="M281.8,119.3c0.2,0.2,0.4,0.3,0.6,0.3c-0.1,0-0.2,0-0.3,0C282,119.5,281.9,119.4,281.8,119.3z"/>
<path class="st0" d="M250.6,64.5c-1.6,0.9-2.7,0.8-4.5,0.1C247.8,64,249,64,250.6,64.5z"/>
<path class="st0" d="M223.2,31.4C223.2,31.4,223.2,31.5,223.2,31.4C223.2,31.4,223.2,31.4,223.2,31.4C223.2,31.4,223.2,31.4,223.2,31.4z"/>
<rect x="178.4" y="39.8" class="st0" width="4.7" height="0.1"/>
<path class="st0" d="M195.7,49.2c-0.1,0.2-0.2,0.3-0.4,0.5C195.5,49.5,195.6,49.4,195.7,49.2z"/>
<path class="st0" d="M34.1,40.7h-4.3c0,0,0-0.1,0-0.2h4.3C34.1,40.6,34.1,40.7,34.1,40.7z"/>
<path class="st0" d="M195.7,49.2c-0.1,0.2-0.2,0.3-0.4,0.5C195.5,49.5,195.6,49.4,195.7,49.2z"/>
<path class="st0" d="M249.9,16C249.9,16,249.9,16,249.9,16L249.9,16C249.9,16,249.9,16,249.9,16z"/>
<path class="st0" d="M75.5,10.9L75.5,10.9C75.5,11,75.5,11,75.5,10.9C75.5,10.9,75.5,10.9,75.5,10.9z"/>
<path class="st0" d="M229.3,10.5C229.3,10.5,229.3,10.5,229.3,10.5C229.3,10.5,229.3,10.5,229.3,10.5C229.3,10.5,229.3,10.5,229.3,10.5z"/>
<path class="st0" d="M223.9,10.6L223.9,10.6L223.9,10.6C223.8,10.7,223.8,10.7,223.9,10.6z"/>
<path class="st0" d="M223.3,31.5C223.2,31.5,223.2,31.5,223.3,31.5C223.2,31.5,223.2,31.4,223.3,31.5C223.2,31.4,223.2,31.4,223.3,31.5C223.2,31.4,223.3,31.5,223.3,31.5z"/>
<path class="st0" d="M208.1,11.4C208.1,11.4,208,11.4,208.1,11.4C208,11.4,208,11.4,208.1,11.4C208.1,11.4,208.1,11.4,208.1,11.4z"/>
<path class="st0" d="M252.3,67.2c0,1.9,0,3.9,0,5.8c0,0-0.1,0-0.1,0C252.2,71.1,252.2,69.1,252.3,67.2C252.2,67.2,252.3,67.2,252.3,67.2z"/>
<path class="st0" d="M210.1,10.6C210.1,10.6,210.1,10.6,210.1,10.6C210.1,10.6,210.1,10.6,210.1,10.6L210.1,10.6z"/>
<path class="st0" d="M28.4,27c-1.7,0-3.5,0-5.2,0c0-0.1,0-0.1,0-0.2c1.7,0,3.4,0,5.2,0C28.4,26.8,28.4,26.9,28.4,27z"/>
<path d="M139.8,84.3c0.8-1,1.9-1.3,3.1-1.3c3.6,0,7.1,0.8,10.8,0.1c3.2-0.6,3.5-0.1,3.2,3.3c-0.5,5.3-0.5,10.7-0.4,16c0,0.6,0.1,1.5-0.8,1.5c-0.8,0-0.7-0.9-0.8-1.5c0-0.6,0.1-1.1,0.2-1.7c0.3-0.8,0.4-1.6-0.4-2.1c-0.6-0.4-0.8,0.3-1.1,0.5c-0.8,0.6-0.7,1.5-0.2,2.2c0.5,0.7,1.9,1.2,1,2.2c-0.8,1-2.3,0.7-3.4,0.4c-1.2-0.3-0.8-1.6-0.8-2.5c0-0.9,0.1-1.8,0.1-2.6c0.1-4,0.1-4,3.9-5c-1.1-0.1-2.4,0-3.3-0.4c-1.1-0.6-0.4-2-0.6-3.1c-0.3-1.5-0.4-3-0.7-4.5c-0.1-0.6-0.3-1.3-1.2-1.3c-0.7,0.1-1,0.7-1,1.2c0,2.1-1.1,2.1-2.7,1.6c-0.5-0.2-1.2-0.2-1.7,0C140.3,88.2,139.9,86.4,139.8,84.3L139.8,84.3z"/>
<path d="M135.4,83.1c-2.3-0.3-4.5,0.4-6.6,1c1.7,0.3,1.7,0.3,1.8,1.7c0.1,0.8-0.2,1.8,0.1,2.4c1.2,1.8-0.8,5.4,3,6c-2.5-0.2-2.5,1.4-2.4,3.1c0.1,0.7,0,1.4,0,2.2c0,4.5,0,4.5,4.4,4.6c1.4,0,1.7-0.5,1.6-1.7c-0.1-3.8,0.2-7.5-0.4-11.2c-0.3-2.2,0.8-3.8,0.9-5.7c0.1-1,0.9-1.1,1.7-1.2C138.4,83.3,136.9,83.3,135.4,83.1z M133.5,101.9c-0.4,0.5-1.1-0.5-1.2-1.2c0-0.9,0.6-1.9,1.2-1.4c0.8,0.6,2.3-0.5,2.4,1.2C136.2,102.6,134.2,101.1,133.5,101.9z"/>
<path d="M139.8,84.2L139.8,84.2L139.8,84.2c-0.1,0-0.1,0-0.1,0C139.7,84.2,139.8,84.2,139.8,84.2z"/>
<path d="M144.1,78.9c4.5,0,9.1,0,13.6,0c0.7,0,1.8-0.4,1.9,0.8c0.1,1.4-1.1,1.1-1.9,1.1c-9.3,0.1-18.5,0.1-27.8,0.1c-0.8,0-2,0.3-2-1c0-1.4,1.3-0.9,2-0.9c4.7-0.1,9.4,0,14.1,0C144.1,79,144.1,78.9,144.1,78.9z"/>
<path d="M226.7,81.2c-1-0.9-2.2-0.7-3.4-0.7c-8,0-16,0-24,0c-0.6,0-1.3,0-1.9-0.1c-0.5,0-0.9-0.3-0.9-0.9c0-0.6,0.3-0.9,0.9-0.9c0.5,0,1,0,1.4,0c8.6-0.1,17.3-0.1,25.9-0.2C226.8,78.4,227.6,79,226.7,81.2z"/>
<path d="M141,103.7c0.2-1.2-1.8-1.8,0.1-3.3c0.7-0.6,0.2-2.7,0.1-4.2c0-1,0.1-1.5,1.4-1.7c4.3-0.8,4.3-0.8,4.3,3.6c0,1.2,0,2.4,0,3.6c0,1.2,0.1,2.2-1.6,2.3c-1.4,0-2.2-0.1-1.8-1.8c0.2-0.8-0.6-0.9-1.1-1c-0.6-0.2-0.7,0.4-0.9,0.8C141.5,102.5,141.8,103.2,141,103.7z"/>
<path d="M51.7,109.3c-0.1-1.5-0.2-3-0.2-4.5c-0.1-1.1,0.5-1.4,1.6-1.6c2.7-0.5,4.3,1.2,6,2.8c0.3,0.3,0.3,0.7,0,0.8c-1.8,0.6-2.7,2.7-4.8,2.7c-0.8,0-2.2-0.4-1.6,1.4c0,0.1-0.3,0.4-0.4,0.4c-0.2,0-0.5-0.2-0.5-0.3c-0.1-0.5-0.1-1.1-0.1-1.6C51.6,109.3,51.7,109.3,51.7,109.3z"/>
<path d="M125.9,100c-0.9,0.6-2,0.8-1.8,2.2c0.8-0.3,2.1-1.7,1.8,0.6c-0.1,0.5,0.1,1.3,0.6,1.5c3.6,0.9,1,3.9,2,5.7c0.2,0.4-0.3,0.7-0.8,0.7c-0.6,0-0.8-0.2-0.9-0.8c-0.1-1-0.2-2.1-0.4-3.1c-0.1-0.5,0.6-1.6-0.8-1.6c-1.1,0-1.9,0.4-1.9,1.7c0,1,0,1.9,0,2.9c-1.9-0.9-2.3-2.5-1.4-4.6c0.3-0.7,0.2-1.6,0.1-2.3C122.2,100.3,123.2,99.5,125.9,100z"/>
<path d="M215.2,83.9c0.9-1.6,2.6-1,3.9-1.4c2.7-0.7,5.2,1,7.8,1c-0.9,0.3-2.1-0.4-2.8,0.4c-0.7,0.8-0.4,2-0.4,3c0,3.3,0,6.7-0.4,10c0-2.5,0.1-5,0-7.5c-0.1-3.2-0.8-4.1-3.8-3.7C217.4,86.1,216.7,84.3,215.2,83.9L215.2,83.9z"/>
<path d="M82.3,104.5c-1.5,0.7-0.8,2.6-1.8,3.5c0,0.3,0.3,0.1,0,0.2c-0.2,0.1-0.3-0.1-0.3-0.3c-3.3-1.3-6.7-0.7-10.1-0.8c-0.4,0-0.8,0-1.1,0.4c-0.7,0.9-0.9,0.9-2-0.1c-0.4-0.4-0.9-0.3-1.3-0.3c-1.1,0-2.2,0-3.4,0c-0.5,0-1.3,0.1-1.2-0.8c0.1-0.6,0.8-0.5,1.2-0.5c2.8,0,5.6,0,8.4,0C74.7,106,78.5,105.7,82.3,104.5C82.3,104.6,82.3,104.5,82.3,104.5z"/>
<path d="M206.2,84c2.3-1.9,7.5-1.9,9-0.1c0,0,0-0.1,0-0.1c-0.3,1-0.6,2-1,3.2c-0.6-0.9-1.2-1.5-2.3-1.4C209.7,85.9,207.5,86.1,206.2,84L206.2,84z"/>
<path d="M206.1,84c-1,0.8-1,2.1-1.3,3.8c-0.7-2.3-2.4-2.2-3.7-1.9c-1.9,0.3-2.5-1-3.4-2.1c-0.5-0.6,0.2-0.3,0.2-0.3C200.7,82.7,203.6,81.7,206.1,84C206.2,84,206.1,84,206.1,84z"/>
<path d="M207.6,104.3c-2.2-0.3-4.3-0.9-6.2-1.9c-0.4-0.2-0.9-0.5-1.1-0.2c-0.2,0.5-0.1,1.2-0.2,1.8c-1.2-1.6-0.9-2.5,0.8-2.8c0.5-0.1,1,0.1,1-0.6c0-0.4-0.2-0.8-0.7-0.8c-1.6-0.1-3.2-0.1-4.8-0.1c-1.1,0-0.8,1.2-1.3,1.8c-0.5-2-0.5-2,1.3-2c3,0,6,0,9,0c-0.3,0.5-0.8,0.4-1.3,0.3c-0.9-0.1-1.4,0.2-1.4,1.2c0,0.8-0.1,1.7,1.1,1.8C205.4,102.7,206.3,103.7,207.6,104.3C207.5,104.3,207.6,104.3,207.6,104.3z"/>
<path d="M163.5,72.6c-1.3-1.7-0.9-3.6-1-5.3c0-0.5,0.2-0.6,0.7-0.6c1.3,0.1,2.5,0.1,3.8,0.1c0.6,0,1.2,0.1,1.1,0.9c0,0.6-0.5,0.8-1,0.8c-0.8,0-1.6,0-2.4,0.4c0.8,0.1,1.5,0.1,2.3,0.2C164.2,68.6,163.6,70.3,163.5,72.6z"/>
<path d="M199.9,89.5c0-0.8,0-1.6,0.2-2.3c0.2-0.6,1-0.5,1.5-0.4c1.4,0.5,0.8,1.7,0.8,2.6c0,0.9,0.6,2.1-0.7,2.7c-0.5,0.2-1.3,0.3-1.5-0.3C200,91.1,200,90.3,199.9,89.5z"/>
<path d="M165.7,101.9c0.7,2.2-1.2,1.9-2.4,2.3c-0.8,0.2-0.8-0.1-1-2.6c-0.1-1.5,0.6-2,1.9-2C165.9,99.5,165.8,100.7,165.7,101.9z"/>
<path d="M182.6,71.9c0-0.9-0.7-1.3-1.1-1.9c-0.4-0.6-1.3-1.1,0-1.8c1.1-0.5,0-0.8-0.2-1.1c-0.5-0.9-0.4-1.7,0.3-2.4c0.4-0.4,1-0.5,1.1,0c0.2,0.8,2,1.1,0.6,2.5C182,68.4,183.6,70.3,182.6,71.9z"/>
<path d="M77.9,90c0,0.6,0,1.1,0,1.7c0,0.8-0.4,1.1-1.2,1.1c-0.8,0-1.2-0.3-1.2-1.1c0-1,0-2.1-0.1-3.1c0-0.9,0.3-1.3,1.2-1.3c0.9,0,1.3,0.3,1.3,1.3C77.9,89.1,78,89.5,77.9,90C78,90,78,90,77.9,90z"/>
<path d="M189,100.5c2.5,1.4,2.4,1.4,2.9-1.4c0.1-0.6,0.1-1.7,1.1-1.5c0.7,0.2,0.6,1.1,0.5,1.7c-0.3,2.2-1.9,3.5-3.5,4.7c-0.5,0.4-0.8-0.1-1-0.7C188.8,102.5,188.9,101.7,189,100.5z"/>
<path d="M87.3,90c0,0.5,0,0.9,0,1.4c0,0.7-0.1,1.4-1.1,1.4c-0.9,0-1.2-0.5-1.2-1.3c0-0.8-0.1-1.6-0.1-2.4c0-0.9-0.2-1.8,1.2-1.8c1.3,0,1.3,0.8,1.3,1.7C87.3,89.4,87.3,89.7,87.3,90z"/>
<path d="M68.6,90c0,0.6,0,1.1,0,1.7c0,0.8-0.3,1.2-1.1,1.2c-0.9,0-1.3-0.5-1.3-1.3c0-1,0-1.9,0-2.9c0-0.9,0.4-1.3,1.3-1.3c1,0,1.2,0.5,1.1,1.4C68.6,89.2,68.6,89.6,68.6,90z"/>
<path d="M111.1,110.6c1.7-0.8,0.9-2.3,0.8-3.3c-0.2-1.7,0.1-2.6,2.2-2.1c-0.2,1.4-0.5,3,0.1,4.5c0.3,0.7-0.2,0.8-0.7,0.9C112.6,110.6,111.8,110.6,111.1,110.6z"/>
<path d="M211.7,89.4c0,0.7,0,1.2-0.1,1.8c0,0.7-0.6,0.9-1.2,0.9c-0.4,0-0.9,0-1-0.4c-0.2-1.5-0.4-3,0-4.5c0.1-0.5,0.8-0.5,1.3-0.4C212.5,87.1,211.3,88.6,211.7,89.4z"/>
<path d="M119.3,97.1c2.2,2.7,2.1,4.8-0.1,6.7c-0.6,0.5-1.3,0.5-1.7,0.2c-0.5-0.3-0.2-1.3,0.1-1.5C119.9,101.4,119.5,99.3,119.3,97.1z"/>
<path d="M218.5,89.4c0-0.9,0-1.4,0-2c0-0.6,0.5-0.8,1-0.8c0.5,0,1.3-0.1,1.3,0.7c0.1,1.3,0.1,2.7,0,4c0,0.6-0.6,0.6-1.1,0.6c-0.5,0-1-0.1-1-0.7C218.5,90.5,218.5,89.8,218.5,89.4z"/>
<path d="M131.4,69.4c7.7,0,15.3,0,23,0C146.7,70,139,70.1,131.4,69.4z"/>
<path d="M198.1,118.8c-0.9-0.4-1-2.1-2.3-0.8c-0.6,0.6-0.8-0.5-1.1-0.8c-1-1.2,0.6-1.6,0.9-2.3c0.3-0.6,0.7-0.5,1.3-0.1C198.4,115.9,198.4,117.1,198.1,118.8z"/>
<path d="M149.5,68.8c-6.9,0-13.8,0-20.7,0c0-0.1,0-0.1,0-0.2c6.9,0,13.8,0,20.8,0C149.5,68.7,149.5,68.7,149.5,68.8z"/>
<path d="M94.3,100.1c0.2,1.6,1.9,2.9,0.7,4.6c-0.8,1-1.7,0.2-2.8,0C93.5,103.3,93.5,101.6,94.3,100.1z"/>
<path d="M166.7,110.6c-2.4-0.5-2.9-2-2.3-4.1c0.4-1.4,1.1-1.7,2.2-0.7c0,0,0-0.1,0-0.1C166,107.4,167.6,109.1,166.7,110.6L166.7,110.6z"/>
<path d="M72.1,120.8c-0.3-1.7-2.9,0.6-2.5-1.6c0.1-0.8,0.9-2.7,2.4-2.1C73.7,117.9,72.3,119.5,72.1,120.8z"/>
<path d="M207.5,99.2c2.5-0.2,4.7,0.1,7-0.4c-1,1.2-2.3,2.2-0.6,3.7c0.6,0.5-0.2,0.3-0.3,0.4c-0.4,0.1-0.9,0.6-1.2-0.1c-0.1-0.3-0.1-0.8-0.1-1.2c0.1-1.7-0.7-2.3-2.3-2C209.3,99.7,208.6,99.7,207.5,99.2z"/>
<path d="M93.9,72.3c-0.7-1.4-0.4-2.6-0.6-3.8c-0.1-0.5-0.3-1.2,0.5-1.3c0.6-0.1,1.3-0.3,1.8,0.3c0.5,0.6,0.1,1.5-0.3,1.7C94.1,69.8,94.3,71,93.9,72.3z"/>
<path d="M80.2,107.9c0.1,0.1,0.2,0.1,0.3,0.1c0.8-0.4,1.4-0.2,1.6,0.7c0.1,0.6-0.2,1.1-0.8,1.2c-0.8,0.1-1.7,0.3-2.1-0.6C78.9,108.7,79.2,108,80.2,107.9z"/>
<path d="M83,117.3c1.5-0.4,0.7-1.7,1.4-2.8c0.3,1.3,2.7,1,2,2.5C86,118,84.3,117.5,83,117.3z"/>
<path d="M163,98.2c-0.9-1.5-0.6-2.9-0.3-4.4C163.8,95.2,163.5,96.7,163,98.2z"/>
<path d="M238,113.4c1,0.4,0.9,1.4,1,2.2c0.1,0.5-0.2,1.1-0.8,0.9c-0.8-0.3-1.6-0.8-1.5-1.8C236.8,114,237.2,113.6,238,113.4z"/>
<path d="M109.7,108.5c-0.8,0.3-0.7-0.3-0.7-0.7c0.1-0.8,0.3-1.4,1.3-1.4c0.8,0,0.8,0.6,0.9,1.2C111.3,108.9,110.2,108.3,109.7,108.5z"/>
<path d="M138.2,104.6c0-1.2,0-2.4,0-3.5C139.4,102.2,139.3,103.4,138.2,104.6z"/>
<path d="M201.5,116.5c0.5-1.1,0.8-2,1.9-2c0.5,0,0.6,0.5,0.5,0.9C203.6,116.7,202.6,116.2,201.5,116.5z"/>
<path d="M192.4,66.8c0.5,0.1,1.2-0.1,1.2,0.7c0,0.7-0.5,0.9-1.1,0.9c-0.6,0-1.2-0.1-1.2-0.8C191.2,66.8,191.9,66.9,192.4,66.8z"/>
<path d="M118.3,94.1c0.3,0.4,0.6,0.9,0.9,1.3c-1.5-0.7-3.1-0.7-4.7-0.8C115.8,94.2,117.2,94.8,118.3,94.1C118.4,94.2,118.3,94.1,118.3,94.1z"/>
<path d="M24.3,4.3c1.4,0.1,1.9,1,2.6,1.6c0.9,0.7,1.9,1.1,2.8,1.7c0.5,0.4,1.6-0.5,1.7,0.7c0.1,1.3-1.2,1.1-1.7,1.2c-2.4,0.4-4.6,2.3-7.2,0.9c-0.2,1.3,1.2,0.9,1.5,1.7c-0.3,0-.5,0.1-0.7,0.1c-1.2,0-3.5,0.3-3.5,0c-0.5-2.1-2.5-3.4-3-5.5C16.8,6.3,16.7,6,17,5.8c0.2-0.1,0.6,0,0.9,0.1c0.4,0.2,0.8,0.6,1.1,0.9c0.6,0.8,1.6,1.1,2.4,1.5c1.3,0.6,3,0.6,3.9-.1c0.9-0.7-0.3-1.9-0.7-2.9C24.5,5.1,24.4,4.8,24.3,4.3z"/>
<path d="M193.7,8.6c-0.1,0.3-0.2,0.5-0.3,0.8c-0.1,0.3-0.2,0.6-0.2,0.8c-0.1,0-0.2,0-0.3,0c-0.8-0.1-1.4,0.1-1.8,0.6c-0.2-0.1-0.4-0.2-0.7-0.2c-0.2,0-0.4,0-0.6,0c-0.3-0.5-0.51.1-1.4-0.2c-0.2,0.2-1.2,0-1.5-0.8c-0.2-0.4-0.4-1.2-0.8-1c-2.3,0.7-3.8-0.5-5.3-2.1c0.4,0,0.8-0.2,1,0c3.2,1.6,5.8,0.6,8-2c0.4-0.4,0.9-0.7,1.5-0.3c0.5,0.4,0.4,1.1,0.2,1.6c1,1.9-0.5,2.6,1.6,2.6C193.3,8.4,193.5,8.5,193.7,8.6z"/>
<path d="M103.7,5.6c0.3,2.5-0.1,3.9-2.9,3.3c-1.4-0.3-2.1,1.5-3.8,1.5c-1,0-1.9,0.4-2.2-0.7c-0.4-1-1.1-0.9-2-1.1c1.9-0.3,3.7-0.4,2-2.9c-0.3-0.5-0.4-1.3,0.3-1.7c0.6-0.3,1.1,0.1,1.5,0.5c0.7,0.6,1.2,1.4,2,2C100.5,7.6,102.1,7.6,103.7,5.6z"/>
<path d="M266.4,13.3c-1,1.3-2.4,1.3-3.3,1c-1.1-0.3-2-0.7-3.1-0.1c-0.4,0.2-1,0.1-1.1-0.6c-0.1-0.5,0.4-0.7,0.8-0.7C261.8,12.9,264.1,12.5,266.4,13.3z"/>
<path d="M251.4,11.4c0.9,0.1,2-1.1,2.8,0.1c0.5,0.7,0.6,1.8-0.3,2.4c-0.8,0.5-1.9,0.5-2.7,0c-0.5-0.3-0.4-1,0.1-1.1C254.4,12.1,250.8,12,251.4,11.4z"/>
<path d="M108.9,2.1c0,1.4-0.7,1.4-1.5,1.4c-1.1,0-1.4-0.6-1.3-1.5c0.1-0.8,0.5-1.5,1.3-1.4C108.5,0.6,108.9,1.5,108.9,2.1z"/>
<path d="M103.5,16.5c1.8-0.9,3.6-1,5.5-0.3C107.2,17.4,105.4,17,103.5,16.5z"/>
<path d="M178.7,0.7c0.9,0,1.3,0.5,1.3,1.4c0,0.8,0,1.5-1.1,1.4c-0.7,0-1.6,0.2-1.6-0.9C177.3,1.7,177.8,1,178.7,0.7z"/>
<path d="M20.7,14.6c-0.7-0.3-2.2,0.2-2-1c0.2-1,1.6-0.4,2.5-0.5c0.6-0.1,1.5-0.2,1.5,0.6C22.6,15.1,21.4,14.4,20.7,14.6z"/>
<path d="M108.2,4.4c0.8-0.2,1.5,0,1.5,0.8c0,1.1-1,0.8-1.6,0.8c-0.7,0-1.7,0.3-1.7-0.7C106.4,4,107.8,4.9,108.2,4.4z"/>
<path d="M180.2,12.6c1.3,0,2.2-0.3,2.2,0.8c0,1-0.9,0.6-1.5,0.7c-0.7,0.1-1.6,0-1.6-0.9C179.4,12.1,180.3,12.6,180.2,12.6z"/>
<path d="M28.6,13.9c2.1-1.2,3.7-0.2,5.2-0.6c0.3-0.1,0.6,0.3,0.5,0.6c-0.1,0.4-0.4,0.5-0.7,0.4C32.1,14.3,30.7,14.1,28.6,13.9z"/>
<path d="M39.6,20.5c-0.1,0.1-0.3,0.2-0.6,0.1c0,0-0.1,0-0.1,0C39.2,20.6,39.4,20.5,39.6,20.5z"/>
<path d="M178.2,6c-0.6-0.1-1.4,0.2-1.4-0.7c0-1,0.8-0.7,1.4-0.7c0.6,0.1,1.7-0.3,1.8,0.5C180.1,6.1,178.9,5.8,178.2,6z"/>
<path d="M113.3,12c1.1,0.9,2,1.9,1.9,3.3c-0.1,1-1.4-0.2-1.6-2.1C113.5,12.7,113.4,12.3,113.3,12C113.4,12,113.3,12,113.3,12z"/>
<path d="M34.9,11.6c-1.6,1.2-2.8,0.1-3.9,0.3C32.1,11.3,33.2,11.2,34.9,11.6z"/>
<path d="M176.9,11.2c0.8,0.5,1.2,1.2,0.9,2c0,0.1-0.5,0.2-0.6,0.2C176.4,12.8,176.9,11.9,176.9,11.2z"/>
<path d="M18.4,91c0,1.9-0.1,3.8,0,5.7c0.1,1.8-1,2-2.3,1.9c-1.4-0.1-3.4,0.7-3.4-1.7c-0.1-3.9-0.1-7.8-0.1-11.7c0-0.5,0-1.1,0.6-1.2c1.5-0.4,3.1-0.5,4.5,0c1.3,0.4,0.7,1.8,0.7,2.7C18.4,88.1,18.3,89.6,18.4,91C18.3,91,18.4,91,18.4,91z"/>
<path d="M20.9,79.5c-0.1-0.5,0.1-1.2-0.5-1.5c-3.8-1.5-7.5-4.4-11.7-1c-0.6,0.5-1.5,0.8-0.7,1.5C9,79.7,9,81.2,9.5,82.4c0.6,1.2-0.6,2.5,0.9,3.6c0.3-3.6,0.3-3.6,3.9-3.6c1.1,0,2.2-0.1,3.3,0c1.3,0.1,3.3-0.1,2,2.4c-0.2,0.3,0,0.8,0.4,1c0.6,0.2,0.7-0.3,0.7-0.7C20.4,83.2,21.3,81.4,20.9,79.5z M16.7,79.3h-5.6v-0.2h5.7C16.7,79.1,16.7,79.2,16.7,79.3z"/>
<path d="M16,65.9c-1,0-1.9,0-2.9,0c-0.4,0-1.1,0.2-1.2-0.5c-0.1-0.6,0.2-1.2,0.9-1.2c2.3-0.1,4.6,0,6.9,0c0.5,0,0.7,0.3,0.7,0.8c0,0.6-0.4,0.9-0.9,0.9C18.4,65.9,17.2,65.9,16,65.9C16,65.9,16,65.9,16,65.9z"/>
<path d="M28.1,91.3c0-2.9,0-5.8,0-8.7c0,0,0.1,0,0.1,0c0,2.9,0,5.8,0,8.7C28.2,91.3,28.1,91.3,28.1,91.3z"/>
<path d="M3.2,97c0-1.6,0-3.2,0-4.8c0,0,0,0,0.1,0C3.2,93.8,3.2,95.4,3.2,97C3.2,97,3.2,97,3.2,97z"/>
<path d="M267.3,89.6c0-1.8,0-3.5,0-5.3c0-1.2,0.4-1.7,1.6-1.7c3.8-0.3,3.9-0.3,3.9,3.5c0,3,0,5.9,0,8.9c0,2.5-1.8,1.8-3.2,1.9c-1.6,0.2-2.1-0.4-2.1-2c0.1-1.7,0-3.5,0-5.3C267.5,89.6,267.4,89.6,267.3,89.6z"/>
<path d="M265.3,84.3c-0.2-1.5-0.5-3-0.7-4.5c-0.2-1.9-0.1-3.5,2.6-3.3c-0.3,0.7-1.2,1.6,0.6,1.6c2.1-0.1,4.3,0,6.4-0.5c-1.9,0-3.8,0-5.7,0c1.1-1.4,2.3-2.4,4.1-1.6c1.4-2.2,2.6-0.1,3.9,0.1c0.4,0.1,1,0.5,0.7,0.8c-1.2,1.1-1.2,2.6-1.3,4c0,0.4-0.5,0.6-0.9,0.4c-2.2-0.8-4.4-0.2-6.6-0.3c-1.8-0.1-3.4,0.2-2.3,2.7C266,83.9,265.8,84.3,265.3,84.3z"/>
<path d="M273.2,64.9c-2.7,0-5,0-7.4,0c-0.5,0-1-0.1-1-0.7c-0.1-0.6,0.3-0.9,0.8-0.9c2.1,0,4.1,0,6.2,0C272.6,63.3,272.9,63.9,273.2,64.9z"/>
<path d="M8.1,116.8H3.3c0-0.1,0-0.1,0-0.2H8C8,116.7,8.1,116.7,8.1,116.8z"/>
<path d="M250.6,64.5c-1.6,0.9-2.7,0.8-4.5,0.1C247.8,64,249,64,250.6,64.5z"/>
<rect x="178.4" y="39.8" width="4.7" height="0.1"/>
<path d="M34.1,40.7h-4.3c0,0,0-0.1,0-0.2h4.3C34.1,40.6,34.1,40.7,34.1,40.7z"/>
</svg>