<svg version="1.1" id="mountainTwoColor" xmlns="http://www.w3.org/2000/svg"  x="0px" y="0px" viewBox="0 0 531.6 259" >
<style type="text/css">
<!-- .mountain-shape {fill:#010302;} -->
<!-- .bk-green{fill:#006C4A;} -->
.mountain-shape {fill: rgb(26, 81, 75);}
.bk-green {
	fill: rgb(255, 255, 255);
	stroke: rgb(31, 101, 49);
    stroke-width: 3px;
    }


    .bk-green:hover{
    fill:#27594f;
    transition: all 1s;
    }
</style>
<path class="mountain-shape" d="M292.1,0c0.3,0,0.7,0,1,0c2.9,1.2,6,2.2,8.2,4.7c2.1,2.4,4.6,4.3,7.5,5.8c8.2,4.1,15.9,8.7,24.8,11.8
c8.6,2.9,16,4.1,24.5,2.5c0.5-0.1,1-0.1,1.5-0.1c7.5-0.5,14.5-2,21.5-5.3c9-4.2,17.9-2,25.7,4.1c4.2,3.3,7.8,7.3,11.3,11.3
c6.5,7.3,13.4,14.4,19.6,22c11.1,13.7,27,20.9,40.6,31.1c15.9,11.8,34,20.1,50.9,30.4c3.2,1.9,3.3,3.2,0.1,4.9
c-3.2-0.6-5.9-2.3-8.5-4c-14.9-9.9-32-14.5-48.5-20.6c-0.9-0.3-1.8-0.9-3.1,0.1c0.1,1.6,1.2,2.8,2.1,4.2c2.2,3.4,2.8,7.7,6.2,10.4
c-2.9,4.7,1.6,6.5,3.5,9.3c0.7,1.1,2.4,1.9,1.7,3.3c-0.9,2.1-2.6,0.3-3.9,0.3c-0.5,0-0.9,0.2-1.7,0.3c0.4,0.9,0.7,1.6,1.1,2.3
c1.5,2.9,4,4.9,6.1,7.2c0.7,0.7,2.4,2.2,0.8,2.7c-5.7,1.6-0.4,3.5,0,4.4c2,3.6-0.2,8.8-4.4,9.4c-0.6,0.1-1.2-0.3-1.5,0.6
c-1.7,5.7-5.7,6.3-10.7,4.9c-3-0.8-4.3,0-3.5,3.3c0.3,1-5.6,9.1-6.8,9.3c-0.4,0.1-0.9-0.3-1.4-0.5c-0.1-0.1-0.1-0.3-0.2-0.4
c-0.1-0.1-0.2,0-0.3,0c0.2,0.1,0.3,0.3,0.5,0.4c-0.3,3.9,0.1,8.6-6.3,5.2c-0.8-0.4-2.3,0.5-3.8,0.8c1.6,2,3.5,3.4,3.2,5.9l-0.4,0.3
c-1.9-0.1-2.8-2.7-4.9-2c-2.5,0.9,1.3,3.3-0.5,4.4c-5-0.8-9.5-2.4-14.2-4.3c-1,7.3,2.1,13.1,4.9,18.9c0.6,1.3,2.7,2.3,1.4,3.8
c-1.2,1.4-3.1,0-4.7-0.3c-1.2-0.2-2.4-1.2-3.5-1.9c-1.3-0.8-3.5-1.7-4.2-0.7c-2.8,4-7,2.5-10.6,3c0.1,1.6,1.2,1.9,1.8,2.6
c0.8,0.9,1.8,1.7,1.3,3c-0.6,1.7-2.4,1.5-3.4,1.1c-5.9-2.6-12.2-1-18.3-1.7c-1.1-0.1-3.4-1.7-3.7,0.5c-0.7,4.2-3.7,8-1.4,12.8
c1.2,2.5,2.3,5.1,3.6,7.6c0.8,1.5,0.9,3.5-1.5,2.7c-5.9-1.9-11.4-0.5-17,1.1c-1.4,0.4-3.3,1.8-4.5-0.3c-0.9-1.6,0.7-2.7,1.4-4
c3-5,5.4-10.3,6.1-16.2c0.3-2.1,0.3-3.6-3.1-3.1c-4.8,0.6-9.6,1-14.2,2.6c-1.2-2.6,3-5,0.5-6.4c-1.8-1-3.7,2.2-5.7,3.2
c-0.4,0.2-1,0.2-1.4,0.3l-0.1-0.1c0.2-1,0.3-2,0.5-2.9c0.3-1.3,2.4-2.3,0.7-3.9c-1.3-1.2-2.9-1.5-4.6-0.5c-0.7,0.4-1.5,0.6-2.4-0.7
c1.2-1.8,5.4-4.2-0.6-5.5c3.1-2.5,5.8-4.6,7.6-7.7c1.5-2.7,3.1-5-2.3-4.9c-3.2,0.1-4.1-2-1.7-4.6c1.5-1.6,3.2-3,4.5-4.6
c2.9-3.5,2.3-6.1-2-6.6c-6.8-0.8-13.6-0.3-19.1,4.8c-5.9,5.6-12.2,10.6-19.6,14.1c0.1-3.2,2.8-4.3,4.8-5.8c2.8-2.1,5.8-3.9,8-6.7
c6.3-7.8,14-11.9,24.3-10.7c4.8,0.6,9.1-1.4,12-5.6c1.1-1.7,1.7-2.4-0.8-3.8c-7.8-4.6-13.7-4.6-20.3,0.9c-1.5,1.3-3.2,2.4-4.7,3.7
c-7,6.1-14,12.2-21,18.2c-0.2-0.2-0.4-0.3-0.6-0.5c2.3-5.7,6.4-10,11-13.8c5.4-4.5,10.9-8.9,16.7-13.7c-5.4-1.2-9.3,0.8-12.9,3.6
c-8.7,6.9-14.9,16.2-22.7,24.1c-0.3,0.3-0.8,1-0.7,1.2c3.9,5.8-1.9,2.9-3.4,3.7c-0.1-0.1-0.2-0.2-0.4-0.3c0.1,0.1,0.3,0.2,0.4,0.2
c0,0.9,1.4,2,0.3,2.7c-1.1,0.7-1.5-0.8-2.2-1.4c-1.9-1.9,0.1-4.7-1.2-6.5c-4-5.3-6.3-10.9-8.1-17.4c-1.8-6.7-4.6-14-9.4-20.1
c-6.4,8.3-6.8,19.4-13.4,27.4c-0.2,0.3-0.2,1,0.1,1.3c2.2,2.4,0.1,4.3-0.8,6.3c-1.3,3-4,4.9-6.1,7.2c-0.9,1-2.2,2.2,0.6,2.4
c0.2,0.2,0.3,0.3,0.5,0.5c-1.1,5.6-5.9,9.2-8.2,14.4c2.6,0.8,4.2-1.8,6.5-1.2c0.1,0.5,0.3,1.1,0.1,1.4c-1,2.6-2.1,5.2-3.1,7.9
c-0.4,1.3-2.3,2.7-0.7,3.9c1.4,1.1,3.2,0,4.5-1.1c2.9-2.3,8.4-0.4,9.5,3.4c-0.1,0.2-0.3,0.4-0.4,0.6c0.2-0.2,0.4-0.3,0.5-0.5
c1.8,2.9,3.8,5.7,7.8,5.7c0,0,0.1,0.3,0.1,0.5c0.4,2.3,1.8,1.8,2.6,0.6c3-4.9,6-2.4,9-0.2c1.3,1,2.6,1.8,4.5,3.1
c-0.7-3.9-0.9-6.8,4.2-5.7c0.6,0.1,5.5,2.1,5.3-2.6c1.9,0.6,1.6,3.3,3.8,3.1c2.1-3.8,2.2-7.1-1.6-9.9c-0.4-0.3-0.5-1.2-0.7-1.8
c6.2,2.8,10,8.1,13.6,13.5c0.6,0.9,0.6,2,0,2.8c-1.2,1.5-2.3-0.2-3.5-0.4c-0.3-0.3-0.7-0.6-1-0.9c-0.1-0.1-0.1-0.3-0.2-0.4
c-0.1-0.1-0.2,0-0.3,0c0.2,0.1,0.4,0.3,0.5,0.4c0.3,0.4,0.6,0.7,0.9,1.1c-0.6,1.3,1.2,3.9-1.9,3.9c-0.1-0.1-0.1-0.3-0.2-0.4
c-0.1-0.1-0.2,0-0.3,0c0.2,0.1,0.4,0.3,0.5,0.4c-0.5,1.3,1.6,2.4,0.3,3.6c-1,0.9-2.2-0.1-3.1-0.6c-2.4-1.4-4.5-0.8-6.7,0.7
c1.7,2.3,4.3,4.1,3.6,7.3l-0.1,0.1c-2.8-0.5-4.5-4.3-8-3c-0.1-0.2-0.3-0.3-0.4-0.5c0,0.1,0,0.2,0,0.3c0.1,0.1,0.2,0.1,0.4,0.2
c0.4,1.8,2.4,3.3,1.4,5.9c-3-2.2-6.9-1.3-9.8-3.2c-2.2-1.4-4-2.6-6.3-1.2c-2.4,1.6-1.7,4.3-1.1,6.4c1.2,4.1,3.1,8,4.7,12
c0.4,1.1,1.5,2.2,0.7,3.2c-0.9,1.3-2.5,0.7-3.7,0.4c-2.9-0.6-5.6-2.3-8.7-1.8c-3.9,0.6-4.7-2.2-4.9-4.7c-0.2-2,0.8-4.2,1.5-6.2
c1.1-2.9-2.5-2.4-2.5-3.3c-0.1-2,1.2-4.2,0.6-6.3c-0.4-1.5-0.5-4.2-3.4-2.3c-1.2,0.8-2.5,1.4-3.7,0.6c-2-1.4,0.4-3,0.3-4.5
c0.5-0.4,1.1-0.8,0.3-1.5c-0.3,0.4-0.6,0.8-0.8,1.1c-2.4-0.5-4.1,3.8-6.1,1.5c-1.9-2.2,2-3.7,2.2-6c0-0.3-0.2-0.5-0.4-0.9
c-1.4-0.2-2.4,0.9-3.6,1.4c-1.4,0.6-2.7,1.3-4.1,1.8c-1.7,0.6-2.4,0.3-2-1.8c1.3-7,1.2-7-5.2-8.3c4.3-3.7,9.2-7,9.7-13.2
c0.1-0.2,0.2-0.4,0.3-0.7c-0.2,0.1-0.4,0.2-0.6,0.3c-2.4-0.2-5.5,1.3-6.7-1.6c-1.2-2.8,2.3-3.6,3.5-5.4c0.3-0.4,0.7-0.7,1-1.1
c1.2-1.1,1.5-2.2,0.1-3.3c-4.9-4.2-8.8-9.9-14.6-12.7c-13.8-6.7-27.5-13.9-43.2-15.6c-12.2-1.4-22.8,0.5-30.1,11.6
c-1,1.5-2.1,3.2-3.6,4c-6.3,3.4-9.8,9.2-13.3,15.1c-1.7,2.8-3.2,5.9-6.9,7.7c0.5-2.3,0.9-3.9,1.2-5.4c0.4-0.2,0.7-0.5,0.2-0.9
c0,0-0.3,0.4-0.5,0.6c-4,4.7-8.1,9.3-12.1,14c-0.6-0.5-1.1-0.9-1.7-1.4c0-1.1,0-2.2,0-3.3c0.4-0.2,0.8-0.3,0.3-0.8
c-0.2,0.2-0.3,0.4-0.5,0.6c-5.7,3-10,8-16,12.6c0.9-3.2,2.3-4.5,3.7-5.6c9.6-8.1,17.9-17.3,25.8-27c2.1-2.6,4.6-5.2,8.1-5.5
c6.5-0.7,11-4.1,14.6-9.2c7-9.9,17-12,28.2-10.8c8.3,0.9,16.3,3.3,24.4,4.9c0.4,0.5,1.1,0.9,1.4,0.4c0.4-0.8-0.6-0.6-1.1-0.8
c-9.4-6.3-20.1-8.8-31-11.2c-14.1-3.1-24.3,2.5-32.6,12.8c-5.6,6.8-11.2,13.7-18,19.3c-6,4.9-10.5,11.6-17.4,15.4l-0.3-0.3
c0.5-3.1,4.5-4.1,4.9-7.9c-5.3,2.7-8.9,7.2-14.5,8.3l-0.3-0.3c-4.5-4.5,2.9-6.1,2.8-10.5c-6.8,4.2-11.5,10.2-18.3,13.5
c-0.1-2.5,1.5-3.4,2.6-4.5c2.9-3,5.9-5.8,8.9-8.7c0.8-0.8,1.9-1.8,0.9-3c-1.2-1.3-2.1,0.1-2.8,0.9c-5.6,5.5-11,11-16.6,16.5
c-1.1,1-2,2.6-4.7,2.5c6.2-8.4,12.4-15.9,19.7-22.5c1.5-1.4,3.9-2.8,2.1-5.6c-2.3,1.2-3.9,3-5.7,4.8c-9.8,10-18.5,20.9-28.8,30.3
c-1.4,1.2-2.7,2.6-4.7,2.5c0,0-0.2-0.2-0.2-0.2c5.3-6.3,10.7-12.7,16.4-19.4c-5.3-0.2-6.7,3.6-9.1,6.2c-5.2,5.7-9,12.8-16.1,16.5
c-0.2-0.2-0.3-0.4-0.4-0.5c1.7-3.4,5-5.8,6.5-9.5c0.8-0.6,1.6-1.2,1.5-2.3c0-0.2-0.4-0.5-0.6-0.5c-1.2,0.3-1.1,1.4-1.5,2.2
c-3.3,1.8-5.4,4.8-7.7,7.6c-4,4.8-8.2,9.8-13.4,13.2c-8,5.2-17.3,8.3-25,14.2c-2.2,1.7-4.6,3.4-7.1,4.5c-2.9,1.3-6,2.2-8.4-1.2
c-0.8-3.1,0.7-5.1,3.3-6.4c3.2-1.6,5.5-4.2,7.7-6.9c7.5-9.3,13.9-19.5,22-28.3c1.5-1.7,2.6-3.9,3.4-6c4.2-11.1,10.7-20.5,19.9-28.1
c3.1-2.5,5.9-5.4,8.5-8.5c7.6-9,16.7-16.1,27-21.9c9.2-5.2,17.1-12,24.1-19.8c8.1-9,16.7-17.6,25.2-26.3c5.5-5.6,9.1-5.9,16-2.3
c5.6,2.9,10.2,7,14,11.8c3.3,4.3,6,4.1,9.5,0.7c1.2-1.2,2.8-1.9,3.8-3.2c6.6-8.3,15.6-13.3,24.5-18.5c5.1-2.9,8.8-7,11.3-12.3
c3.5-7.4,9.2-12.8,15.4-18c9.4-7.8,18.3-16.4,26.1-25.9C271.4,15.8,280.2,6.3,292.1,0z M306.1,75c0.3-0.3,0.7-0.7,1-1
c4.1-1.8,6.6-5.3,9-8.8c-3.8,2.2-7.2,4.6-9.1,8.8C306.7,74.3,306.4,74.6,306.1,75c-0.7,0-1,0.4-1,1c-0.3,0.3-0.7,0.7-1,1
c-0.6,0-1,0.4-1,1c-0.2,0.1-0.4,0.3-0.5,0.4c0.1,0,0.3,0,0.3-0.1c0.1-0.1,0.1-0.3,0.2-0.4c0.3-0.3,0.7-0.7,1-1c0.3-0.3,0.7-0.7,1-1
C305.4,75.7,305.8,75.3,306.1,75z M283.1,56c0.2-0.2,1,0,0.4-0.7C283.3,55.6,283.2,55.8,283.1,56c-0.6,0.1-1,0.4-1,1
c-0.2,0-0.3,0-0.5,0.1c-0.1,0-0.1,0.2-0.1,0.3c0.2-0.2,0.4-0.3,0.6-0.5C282.4,56.7,282.7,56.3,283.1,56z M253.1,85
c-0.1,0.1-0.3,0.1-0.4,0.2c-0.1,0.1,0,0.2,0,0.3C252.8,85.3,252.9,85.2,253.1,85c0.1-0.2,0.3-0.3,0.5-0.5c-0.1,0-0.3,0-0.3,0.1
C253.2,84.7,253.2,84.9,253.1,85z M241.9,89.8c-0.3,0.4-0.6,0.8-0.8,1.2c-0.3,0.1-0.9,0.1-0.4,0.7c0.1-0.2,0.3-0.4,0.4-0.6
c0.4-0.3,0.7-0.6,1.1-0.9c0.3-0.3,0.7-0.6,1-1c6.7-5.3,11.3-12.2,15-19.8c-6.4,5.5-11.6,11.9-15.4,19.4
C242.5,89.1,242.2,89.4,241.9,89.8z M249.1,90c-0.3,0.3-0.7,0.7-1,1c-0.6,0-1,0.4-1,1c-0.6,0-1,0.3-1,0.9c-2.3,0.2-3.3,2.1-4.6,3.5
c-6.2,6.4-11.4,13.8-18.5,19.3c-4.6,3.5-8.7,7.8-14.5,9.8c0.8-1.9,2.5-2.8,3.7-4.2c3.8-4.3,9.4-6.8,12.2-12.2
c0.3-0.4,0.6-0.8,0.9-1.1c0.6-0.1,1-0.4,1-1c0.7,0.1,1.3,0,1.6-0.7c0.1-0.1-0.2-0.4-0.3-0.6c-0.4,0.4-0.9,0.9-1.3,1.3
c-0.3,0.3-0.7,0.7-1,1c-0.4,0.3-0.7,0.6-1.1,0.9c-1.8,0.3-2.8,1.7-4,2.8c-6.4,5.4-13.6,9.4-20.9,13.3c0-3.1,2.6-4,4.6-5.3
c10.5-6.9,19.8-15,28.3-24.1c1.1-1.2,2.5-2.4,2.8-5.5c-13,12.9-27.3,22.2-40.6,32.9c1.1,1.7,3.1,1.7,5.1,2c0.6,3.3,2.7,4.4,5.8,3.9
c0.1,0.1,0.2,0.2,0.4,0.4c0,0.7-0.2,1.5,0.1,1.9c2,2.7,4,3.9,7.4,1.2c3.9-3,6.5-7.9,12.4-9.3c-2.5,6.9-9.2,9.8-12.5,15.4
c3.2-1.7,5.7-4,8.5-6c5.8-4.3,10.6-9.9,17-13.5l0,0c-0.2,3.9-3.3,6.1-5.7,8.4c-4.7,4.4-9.7,8.5-14.6,12.7c-1.5,1.3-2.4,2.8-0.6,4.6
c2.1,2.1,2.9-0.2,3.9-1.1c7.1-6.4,14-13.2,21.4-19.3c4.5-3.7,8.6-7.5,10.8-13c0.3-0.3,0.7-0.7,1-1c0.3-0.4,0.6-0.8,0.9-1.1
c0.3-0.1,0.9-0.1,0.4-0.7c-0.1,0.2-0.3,0.4-0.4,0.6c-0.4,0.3-0.7,0.6-1.1,0.9c-0.3,0.3-0.7,0.7-1,1c-2.8,0.5-4,3.9-7.8,3.8
c1.9-2.3,3.5-4.3,5.1-6.4c0.6-0.7,1.8-1.3,1-2.4c-0.9-1.1-2-0.9-3.1-0.1c-2.5,1.9-5,3.7-7.9,5.9c-0.1-3.5,1.9-5.1,3.7-6.9
c1.1-1.1,3.4-2.3,1.8-3.9c-1.7-1.6-2.5,1.2-3.8,2c-1.5,0.9-2.1,3.3-5,2.7c2.5-4.9,7.1-7.9,9.2-12.6c0.3-0.3,0.6-0.7,1-1
c0.3-0.3,0.7-0.7,1-1C248.4,90.6,248.7,90.3,249.1,90c0.3-0.4,0.6-0.7,1-1.1c0.5-0.4,0.9-0.9,1.4-1.3c-0.2-0.1-0.4-0.2-0.6-0.3
c-0.2,0.6-0.4,1.1-0.7,1.7C249.8,89.4,249.4,89.7,249.1,90z M35.1,227c-0.3,0.3-0.7,0.7-1,1c-0.3,0.3-0.7,0.7-1,1
c-0.1,0.1-0.3,0.1-0.4,0.2c-0.1,0.1,0,0.2,0,0.3c0.1-0.2,0.3-0.4,0.4-0.6c0.6,0,1-0.4,1-1C34.4,227.7,34.8,227.3,35.1,227
c0.4-0.3,0.7-0.6,1-1c0.8-0.4,1.1-1.1,1.1-1.9c1.2-0.1,1.7-1,1.9-2.1c0.8-0.3,1.1-1,1.2-1.8c7.5-7.1,13.6-15.1,16.2-25.4
c-6.1,8-11.9,16.1-16.6,25c-0.8,0.5-1,1.2-0.9,2.1c-1.3,0-1.8,0.9-2,2c-0.8,0.4-1.1,1.1-1,2C35.4,226,35.1,226.4,35.1,227z
 M256.1,82c0.9-0.3,1.1-1,1.1-1.9c3.6-2.6,6.2-6,8-10.6c0,0.2-0.1,0.3-0.1,0.5c0.1-0.1,0.3-0.1,0.4-0.2c0.1-0.1,0-0.2,0-0.3
c-0.1,0-0.2,0.1-0.5,0.5c-4.4,1.9-6.3,5.8-8.1,10C256.2,80.4,255.9,81.1,256.1,82c-0.2,0.2-0.3,0.3-0.5,0.5c0.1,0,0.3,0,0.3,0
C256,82.3,256,82.1,256.1,82z M453.7,121.7c-0.5,0.2-1.4,0.2-0.9,0.9c0.4,0.5,1.1,0,1.4-0.6c0.4-0.6,0.8-1.2,1.2-1.8
c1.7-0.4,2.1-2,3.2-3c2.4-2.2,4.8-1.4,5.4,1.6c-0.5,0.1-0.8,0.2-0.3,0.8c0.2-0.2,0.3-0.4,0.5-0.6c0.3,0,0.7,0,1,0l-0.1-0.1
c3.8,3.4-1.4,6.1-0.8,9.3c0.9-0.6,1.6-1.2,2.4-1.7c0.4,2.8,5.3,4,2.8,8c-2.2,3.5-4.1,7.3-6.2,10.8c-0.8,1.4-1,2.3,0.3,3.4
c1.6,1.5,1.7-0.7,2.6-0.9c2.4-0.7,3.5-2.8,5.1-4.5c2-2,4.1-4.8,7.3-1.5c1.5,1.5,2.4,0.6,2.7-1c0.4-2.5,1.1-4.6-1.3-7.1
c-3.1-3.2-6.1-6.9-6.7-11.7c1.6-1,2.5,1.6,4,0c-6-7.2-6.9-17.1-12.7-24.6c-1.6,1-2.3,2.5-3.2,3.9c-3.8,5.6-6.3,11.6-6.1,18.5
C454.5,120.5,454.1,121.1,453.7,121.7z M315.8,72.7c-0.5,0.4-1,0.7-1.5,1.1c-0.1,0.1,0.2,0.7,0.4,0.7c1.1,0.1,1.4-0.7,1.6-1.5
c0.6-0.4,1.8-1,1.1-1.6C316.4,70.7,316.1,72,315.8,72.7z M290,221.1c0.2,0.9-0.2,2,1,2.4c0.2,0.1,0.8-0.5,0.9-0.8
c0.3-1.2-0.6-1.7-1.5-2c-0.2-0.8,0.1-2-1.2-2.2c-0.3,0-0.8,0.5-0.9,0.9C288,220.8,289.1,220.9,290,221.1z M56.1,208
c1.8-1.5,4.1-2.6,4.4-5.4c0-0.1-0.6-0.5-0.8-0.4C57.2,203.3,56.2,205.4,56.1,208c-0.4,0.1-0.8,0.2-1.3,0.2c0.1,0.2,0.2,0.4,0.3,0.6
C55.4,208.5,55.8,208.3,56.1,208z M279,58.9c-2.9,0.9-4.5,2.8-5.3,5.6c2.4-1.3,4.6-2.8,5.4-5.4c0.2-0.2,0.3-0.4,0.5-0.6
C279.5,58.7,279.3,58.8,279,58.9z M272.1,141c-0.2-0.1-0.3-0.3-0.5-0.4c0,0.1,0,0.3,0,0.3C271.8,140.9,271.9,141,272.1,141
c-0.1,1.8,1,3.1,2,4.4c0.6,0.8,1.4,1.8,2.4,1.1c1.1-0.8,1.5-2.1,1.6-3.5c0.1-0.9,0-1.8-1.1-1.9C275.4,141,273.7,141,272.1,141z
 M377.1,52c-0.7-1.1,1.1-3.1-1.1-3.7c-0.4-0.1-1.4,0.6-1.5,1C374.1,51.4,375.5,51.8,377.1,52c0.1,1.3,0.7,2.7,2.1,1.6
c3.4-2.5,7.8-2.9,12.3-5.8C384.8,45.8,381.3,50.1,377.1,52z M417.1,180c-1.4,0.4-3.7,0.5-4,1.4c-1.7,4.1-4.3,2.3-6.8,1.4
c-0.2-0.2-0.5-0.5-0.6-0.5c-0.6,0.4-0.2,0.7,0.2,0.9c0.4,4.5,4.7,5.2,7.4,7.5c1.2,1,2.7,3.1,4.1,1.8c1.6-1.5,2.6-4.3,1.2-6.4
C417.2,184.2,417.4,182.1,417.1,180c0.2-0.1,0.4-0.3,0.5-0.4C417.4,179.7,417.2,179.8,417.1,180z M375.1,138L375.1,138
c-3.5,8.1-4.9,17.2-11.3,23.8c-0.8,0.8-1.4,1.8-2.1,2.7c5,3-0.2,4.6-1.1,6.6c-1.2,2.7-3.1,5.1-4.9,7.8c2.6,0.6,4.4-2,7-1.2
c-1.3,3.6-2.5,7-3.6,10.1c0.9,1.1,1.5,0.4,2.1,0.3c4.4-0.7,8.3-1.2,10.7,4.3c1.4,3.2,4.2,6.1,8.6,3.1c1.3-0.9,2,0.5,2.8,1.3
c1,1,0.7,3.1,2.7,3.3c0.2,0.4,0.4,0.8,0.6,1.2c0.1-0.1,0.3-0.3,0.3-0.3c-0.2-0.4-0.4-0.8-0.6-1.2c0.5-1.9-2-3.5-0.8-5.2
c3-1.6,6.6,8.6,8.3-1.2c0.8,0.4,1.5,0.6,2,1c3.3,2.9,5.8,7,9.2-0.7c1.1-2.5,1.8-3.3,0-5.2c-5.2-5.8-4-14.1-7.9-20.5
c-0.1-0.2,0-0.7,0-1c0.6-4.5-2.5-8.3-2.5-13c0-2.5-1.7-5.9-2.8-8.6c-1.3-3.1-3.8-5.6-3-9.3c0.2-0.2,0.3-0.3,0.5-0.5
c3,0.6,5.3,2.2,7.5,4.2c-1.5,1.6-3.4,0.3-4.5,1.7c0.4,2.9,3.6,3.1,5,5.1c0.7,1,3,2,0.2,3.2c-0.7,0.3-2.5-0.3-1.5,1.4
c0.6,1,1.4,2.8,2.9,2c2.7-1.3,4.7-3.6,6.8-5.7c2.1-2-0.5-2.7-0.8-4c-0.3-1.5,0.5-2.5,1.4-3.5c1.1-1.2,2.3-2.3,2.4-4.2
c-1-0.9-2.5,0.9-3.2-0.3c-0.8-1.5,0.9-2.3,1.6-3.2c2-2.4,4.7-4.3,5.9-7.3c0.1-0.2,0.3-0.4,0.4-0.6c-0.2,0.2-0.3,0.3-0.5,0.5
c-1.4-0.5-2.9,0.6-4.2-0.4c0-2,3.7-3.3,1.3-5.7c-6.7-6.5-11.5-14.7-18.2-21.1c-7.5-7.2-16.2-13.3-25.3-18.5
c-5.6-3.2-12.9-4.7-16.9-9.2c-5-5.6-7.9-5.8-12.2-0.4c-0.1,0.1-0.6-0.1-1.1-0.3c-0.3-3.6,2.4-5.6,4.5-7.8c1.4-1.5,1-3-0.1-3.9
c-1.8-1.5-1.9,0.7-2.6,1.6c-3.4,3.9-6.8,7.7-10.3,11.5c-0.7,0.7-2,1.9-2.2,1.8c-3.8-2.6-4.6,1.4-6.3,2.9c-2.2,2.1-4.5,4-7.4,5
c-1.3,0.5-2.7,0.9-2.7-1.4c1.8-0.6,3.4-1.5,3.9-3.9c-2.6,0.4-3.5,1.9-4.3,3.5c-5.7,3.2-8.9,9.1-14.2,13.4
c-0.2-4.6,3.6-6.7,4.5-10.1c0.1-0.2,0.3-0.4,0.4-0.6c-0.2,0.1-0.4,0.3-0.6,0.4c-1.8-0.4-2.5,2.5-4.4,1.4c-2-1.1-2.1-1.2-3.3,0.1
c-8.5,8.9-17.3,17.5-27.3,24.7c-1.9,1.4-1.8,2.7-1,4.7c1.1,2.7,4.4,4.5,4.6,7c0.3,6.4,2.9,3.7,5.1,1.6c5.5-5.5,11.6-5.1,17.8-1.9
c2.2,1.1,7.2,0.8,6,4.1c-1.1,3-4.9-0.1-7.3-0.9c-3.5-1.2-7-2.7-10.6-1c-8,3.8-8.7,8.7-3.1,15.5c3,3.7,4.4,3.3,6.4-0.4
c0.7-1.3,0.9-3.6,3.1-3.4c2.3,0.2,2.3,2.5,3.2,4c0.4,0.7,0.7,1.5,0.9,2.3c0.9,3.8,3,4.3,6.2,2.4c7.1-4.1,13.7-8.8,20.2-13.8
c3.2-2.4,6.8-4.4,10.6-2.9c9.1,3.5,19,5,27.4,10.4c4.3,2.8,8.5,5.9,12.7,8.8c1.4,1,2.8,2.5,4.2,0.4c0.8-1.2,3.7-3.1-0.3-4.3
c-1.2-0.4-0.9-1.7-0.2-2.5c0.8-1,1.7-1.8,2.6-2.8c1,1.5-1.1,2.1-0.4,3.4C372.9,138.5,374,138.3,375.1,138z M444.6,121.8
c-1.4-4.1,9-2.1,3.1-8.2c-0.1-0.1,0.2-0.6,0.4-0.8c4.6-4.5,6.9-10.6,11.2-15.3c1.7-1.8,2.4-3.1-0.6-4.3
c-12.5-5-22.9-12.8-31.3-23.3c-1.9-2.4-3.4-3-6.5-0.8c-5.5,4-11.6,7.2-17.5,10.6c-0.8,0.5-1.8,1.7-3.2,0.1c1.9-3,4.8-4.9,7.7-6.8
c3.2-2,6.5-4,9.7-6.2c1.1-0.7,3.4-1.1,2.7-2.9c-0.8-2.2-3-2.5-5.1-1.9c-7.3,1.9-14.2,4.8-20.2,9.5c-1.8,1.4-2.5,2.7-0.9,5
c7,10.1,13.9,20.3,20.7,30.6c2.1,3.2,3.5,2.3,4.7-0.4c1.9-4.1,3.5-8.2,5.3-12.3c0.4-1,0.3-2.5,1.9-2.5c1.4,0,2,1,2.3,2.2
c1.6,6.5,6.1,11.4,9,17.2c0.7,1.3,2.1,3,1.3,4c-2.4,2.9,0.3,4.2,1.5,5.8c1.7,2.2,4.5,3.6,2.6,7.2c-0.6,1.1,0.7,2.8,2.3,2.4
c1.7-0.4,0.6-1.3,0-2.1c-0.7-1-0.1-2,0.5-2.7C449.2,122.5,447.5,121.6,444.6,121.8z M426.4,98c-1.6,4.4-2.7,8.5-4.4,12.2
c-2.4,5.1-2.7,11-5.5,15.6c-2.9,4.6-3.8,9.3-4.3,14.4c-0.1,1.7-0.3,3.3-1,4.8c-1.1,2.2-3.6,4.8-1.6,6.7c1.7,1.7,4.6-0.4,6.9-1.4
c0.8,1.8-0.3,2.9-0.8,4c-0.7,1.5-0.8,3.3,0.6,4c1.5,0.8,2-1.2,2.8-2.1c1-1.2,1.6-3,4.6-2.8c-3.9,5.2-0.6,9.5,1.1,14
c2.4-0.5,3.2-4.9,6.2-2.9c3.9,2.7-2.3,4.4-1.2,7.1c4.8,1.3,7-2.6,9.4-5.3c2.3-2.7,5-3.8,8.2-3.2c3.4,0.6,5.2-0.7,4-3.7
c-2.4-5.9-2.8-12.2-5.2-18.2c-2-4.9-4.3-9.4-7-13.9c-0.4-0.7-0.5-1.5-0.9-2.3C434.4,116.3,433.2,106.5,426.4,98z M249.5,145.3
c-5.7,1.2-5.6,6.6-8.3,9.9c-1.4,1.8-3.2,4.8-1.7,5.5c1.9,0.9,3.9,4.7,7.2,1.7c1.4-1.3,1.8,0,2.3,1.6c0.3,1,0.6,4.8,3.4,2.9
c6.7-4.6,13.2-9.5,19.7-14.5c1.4-1,2.9-2.5,1.3-4.6c-2-2.7-3.9-5.4-5.9-8.3c-5.3,7.6-8.8,16.3-17.7,20.4c-1.2-2.4,4.7-4.4,0-5.7
c-5.9-1.7-4.3-3.7-1-6.4C249.4,147.2,249.9,146.5,249.5,145.3z M244.6,129.4c-2.6-1.2-3.9,0.7-5.3,2c-4.6,4.3-9.3,8.5-13.8,13
c-1.4,1.3-4.7,2.7-2.8,4.8c1.5,1.6,3.1-1.5,4.4-2.7c3.1-2.8,6.2-5.5,11.5-6.4c-2.6,4.5-6.4,6-8.8,8.9c-1.2,1.5-4.3,2.7-1.7,5.2
c2.5,2.4,4-0.1,5.8-1.6c4.9-4.3,7.1-10,8.4-16.1c-1-0.2-2.3-0.5-4.2-0.9C240.8,133.4,243.4,132.2,244.6,129.4z M414,58.7
c-1.6-1-2.3-1.8-3.2-2.1c-3.5-1-20.5,6.8-22.3,10c-1,1.8,0.7,2.7,1.3,3.9c0.5,1,1.3,1,1.9,0.2C397.3,63.9,405.4,61.6,414,58.7z
 M398.1,51.4c-4.9-0.2-9.3,1.7-13.6,3.5c-1.4,0.6-4.6,0.5-3.8,2.8c0.8,2.5,3.1,4.7,4.9,6.8c0.6,0.6,1.6-0.2,2-0.9
c0.4-0.7,1.8-1.7,0.4-2.4c-3.6-1.8-0.3-3,0.4-3.9C390.9,54.2,394.8,53.4,398.1,51.4z M258.2,111c-3.7,5.2-3.3,12-8.1,16.2
c3.3-1.5,4.6-5.3,7.2-6.6C262.9,117.9,261,115.1,258.2,111z M196.3,116.5c-3.4,0-6.6,0-10,0C189.9,122,193,119.3,196.3,116.5z
 M258.1,105.5c1.9,0.6,3.3,1,4.4,0.1c1.2-1,3.3-2.3,2.3-3.8c-1.3-1.9-2.3,0.6-3.4,1.2C260.4,103.6,259.6,104.4,258.1,105.5z
 M29.5,232.7c-0.1,0.1-0.2,0.3-0.2,0.4c0.1,0.5,0.4,0.5,0.6,0c0-0.1,0-0.3-0.1-0.4C29.8,232.7,29.6,232.7,29.5,232.7z M272.4,66.4
l0.2,0.2l0-0.3L272.4,66.4z M112.6,196.3l-0.2,0.2l0.3,0L112.6,196.3z M411.6,202.7l0.2-0.2l-0.3,0L411.6,202.7z"/>
<path class="bk-green" d="M171.1,259c-4.5-2.4-9.6-2-14.3-2.4c-24.3-2.2-48.3-7.3-72.8-6.5c-25.1,0.8-50.2,1.7-75.2,2.8
c-3.6,0.2-6-0.9-8-3.6c-0.9-1.2-1.2-2.4,0.5-3.3c2.4,3.3,5.5,2.5,8.4,1.2c2.5-1.2,4.8-2.8,7.1-4.5c7.7-5.9,16.9-9,25-14.2
c5.2-3.4,9.3-8.4,13.4-13.2c2.3-2.8,4.4-5.8,7.7-7.6c0.2,0.2,0.4,0.3,0.6,0.5c-1.4,3.7-4.7,6-6.5,9.5c-0.4,0.3-1.4,0.3-1,1
c0.3,0.6,1,0,1.4-0.4c7.2-3.8,10.9-10.8,16.1-16.5c2.3-2.6,3.8-6.4,9.1-6.2c-5.7,6.8-11.1,13.1-16.4,19.4c-0.1,0.2-0.3,0.4-0.4,0.6
c0.2-0.1,0.4-0.3,0.7-0.4c2,0.1,3.3-1.3,4.7-2.5c10.3-9.4,19.1-20.4,28.8-30.3c1.8-1.8,3.3-3.6,5.7-4.8c1.8,2.9-0.5,4.2-2.1,5.6
c-7.3,6.5-13.4,14.1-19.7,22.5c2.7,0.1,3.6-1.4,4.7-2.5c5.6-5.5,11.1-11,16.6-16.5c0.7-0.7,1.6-2.2,2.8-0.9c1,1.1,0,2.1-0.9,3
c-3,2.9-6,5.8-8.9,8.7c-1.1,1.1-2.7,2-2.6,4.5c6.8-3.4,11.5-9.3,18.3-13.5c0.1,4.4-7.2,6-2.8,10.5c-0.2,0.2-0.5,0.5-0.5,0.5
c0.4,0.5,0.6,0.2,0.9-0.2c5.6-1.1,9.2-5.6,14.5-8.3c-0.4,3.8-4.4,4.8-4.9,7.9c-0.1,0.2-0.3,0.5-0.4,0.7c0.2-0.1,0.5-0.3,0.7-0.4
c7-3.8,11.4-10.5,17.4-15.4c6.8-5.6,12.4-12.4,18-19.3c8.4-10.3,18.5-15.9,32.6-12.8c10.9,2.4,21.6,4.9,31,11.2
c-0.1,0.1-0.2,0.3-0.4,0.4c-8.1-1.6-16.1-4-24.4-4.9c-11.3-1.2-21.2,0.9-28.2,10.8c-3.6,5.1-8.1,8.6-14.6,9.2
c-3.5,0.4-6,2.9-8.1,5.5c-7.9,9.7-16.2,19-25.8,27c-1.4,1.1-2.8,2.4-3.7,5.6c5.9-4.6,10.3-9.6,16-12.6l0.2,0.2c0,1.1,0,2.2,0,3.3
c0.6,0.5,1.1,0.9,1.7,1.4c4-4.7,8.1-9.3,12.1-14l0.3,0.3c-0.4,1.6-0.7,3.2-1.2,5.4c3.8-1.9,5.3-4.9,6.9-7.7
c3.5-5.9,7-11.7,13.3-15.1c1.5-0.8,2.6-2.5,3.6-4c7.3-11.1,17.9-13,30.1-11.6c15.7,1.8,29.4,8.9,43.2,15.6
c5.8,2.8,9.6,8.5,14.6,12.7c1.4,1.2,1.1,2.2-0.1,3.3c-0.4,0.3-0.8,0.7-1,1.1c-1.3,1.8-4.7,2.6-3.5,5.4c1.2,2.9,4.4,1.4,6.7,1.6
l0.3,0.3c-0.6,6.2-5.4,9.5-9.7,13.2c6.4,1.2,6.4,1.2,5.2,8.3c-0.4,2.1,0.4,2.4,2,1.8c1.4-0.5,2.7-1.2,4.1-1.8
c1.2-0.5,2.2-1.5,3.6-1.4c0.1,0.3,0.4,0.6,0.4,0.9c-0.2,2.3-4.1,3.8-2.2,6c2,2.3,3.7-2,6.1-1.5c0.2,0.1,0.3,0.3,0.5,0.4
c0.2,1.5-2.2,3-0.3,4.5c1.2,0.9,2.5,0.2,3.7-0.6c2.9-1.9,3,0.7,3.4,2.3c0.5,2.1-0.8,4.3-0.6,6.3c0.1,0.9,3.6,0.4,2.5,3.3
c-0.8,2-1.7,4.2-1.5,6.2c0.2,2.6,1.1,5.4,4.9,4.7c3.1-0.5,5.8,1.2,8.7,1.8c1.2,0.3,2.8,0.8,3.7-0.4c0.8-1.1-0.3-2.2-0.7-3.2
c-1.6-4-3.4-7.9-4.7-12c-0.6-2-1.4-4.8,1.1-6.4c2.2-1.4,4.1-0.2,6.3,1.2c2.8,1.8,6.8,0.9,9.8,3.2c1-2.7-1-4.1-1.4-5.9l0,0
c3.5-1.2,5.1,2.5,8,3c0.2,0.1,0.4,0.2,0.5,0.4c-0.1-0.2-0.3-0.3-0.4-0.5c0.6-3.2-1.9-5-3.6-7.3c2.2-1.4,4.3-2.1,6.7-0.7
c0.9,0.5,2.1,1.5,3.1,0.6c1.3-1.1-0.8-2.3-0.3-3.6l0,0c3.2-0.1,1.3-2.6,1.9-3.9c0,0,0.1-0.1,0.1-0.1c1.2,0.2,2.3,1.9,3.5,0.4
c0.6-0.8,0.7-1.9,0-2.8c-3.6-5.4-7.4-10.7-13.6-13.5c0,0,0,0,0,0c-1.3-5.7,3.5-2.9,5.9-3.7c-1.3-2.3-3.4-3.1-5-4.3l0,0
c-0.4-1-1.1-1.7-2-2l0,0.1c-0.4-0.4-0.7-0.7-1.1-1.1l0.1,0.1c-0.4-0.4-0.7-0.7-1.1-1.1l0.1,0.1c-0.4-0.4-0.7-0.7-1.1-1.1l0.1,0.1
c-0.4-0.4-0.7-0.7-1.1-1.1l0.1,0.1c0.5-3.9,2.7-1.7,4.1-0.9c3.5,1.8,5.1,0.8,4.9-3.1l0,0c1,0.2,1.7-0.1,2.1-1l0,0
c7.4-3.5,13.7-8.6,19.6-14.1c5.5-5.1,12.3-5.6,19.1-4.8c4.3,0.5,4.9,3.1,2,6.6c-1.4,1.7-3.1,3-4.5,4.6c-2.4,2.6-1.5,4.6,1.7,4.6
c5.4-0.1,3.8,2.2,2.3,4.9c-1.7,3.1-4.5,5.3-7.6,7.7c6,1.3,1.8,3.7,0.6,5.5c0.8,1.3,1.7,1,2.4,0.7c1.7-1,3.3-0.6,4.6,0.5
c1.7,1.5-0.5,2.6-0.7,3.9c-0.2,1-0.3,1.9-0.5,2.9c-0.1,0.2-0.3,0.3-0.4,0.5c0.2-0.1,0.3-0.3,0.5-0.4c0.5-0.1,1-0.1,1.4-0.3
c2-1.1,4-4.2,5.7-3.2c2.5,1.4-1.7,3.8-0.5,6.4c4.6-1.6,9.4-1.9,14.2-2.6c3.4-0.5,3.4,1,3.1,3.1c-0.7,5.9-3.1,11.1-6.1,16.2
c-0.7,1.2-2.3,2.4-1.4,4c1.2,2.1,3.1,0.7,4.5,0.3c5.6-1.6,11.1-3.1,17-1.1c2.4,0.8,2.3-1.3,1.5-2.7c-1.3-2.5-2.4-5.1-3.6-7.6
c-2.3-4.7,0.7-8.6,1.4-12.8c0.4-2.2,2.6-0.6,3.7-0.5c6.1,0.7,12.4-0.9,18.3,1.7c1,0.4,2.8,0.6,3.4-1.1c0.5-1.3-0.6-2.1-1.3-3
c-0.6-0.7-1.7-1.1-1.8-2.6c3.6-0.6,7.8,0.9,10.6-3c0.7-0.9,2.8-0.1,4.2,0.7c1.1,0.7,2.2,1.6,3.5,1.9c1.5,0.3,3.4,1.7,4.7,0.3
c1.3-1.5-0.8-2.6-1.4-3.8c-2.8-5.8-5.9-11.5-4.9-18.9c4.7,1.8,9.2,3.5,14.2,4.3c1.8-1-2-3.4,0.5-4.4c2-0.8,3,1.9,4.9,2
c0.2,0.3,0.4,0.8,0.9,0.2c0,0-0.3-0.4-0.5-0.5c0.2-2.4-1.7-3.8-3.2-5.9c1.5-0.4,3-1.2,3.8-0.8c6.5,3.4,6-1.3,6.3-5.2l0,0
c0.5,0.2,1,0.6,1.4,0.5c1.1-0.2,7-8.3,6.8-9.3c-0.9-3.3,0.4-4.1,3.5-3.3c4.9,1.4,9,0.7,10.7-4.9c0.3-1,0.9-0.6,1.5-0.6
c4.3-0.6,6.4-5.7,4.4-9.4c-0.4-0.8-5.7-2.8,0-4.4c1.5-0.4-0.2-1.9-0.8-2.7c-2.1-2.3-4.6-4.4-6.1-7.2c-0.4-0.7-0.7-1.4-1.1-2.3
c0.8-0.1,1.2-0.3,1.7-0.3c1.3,0,3,1.8,3.9-0.3c0.6-1.5-1-2.3-1.7-3.3c-1.9-2.8-6.5-4.6-3.5-9.3c-3.4-2.7-4-7-6.2-10.4
c-0.9-1.4-1.9-2.6-2.1-4.2c1.2-0.9,2.1-0.4,3.1-0.1c16.5,6.1,33.6,10.8,48.5,20.6c2.6,1.7,5.3,3.5,8.5,4c-0.2,5.2-2.5,9.9-3.3,15
c-0.4,2.6-1.9,4.2-4.4,5.4c-13,6.3-25.8,12.9-38.8,19.2c-2.7,1.3-4.4,3.1-5.7,5.8c-2.8,6-4.9,12.4-9.1,17.6
c-9.5,12-19.2,23.9-28.8,35.8c-1.3,1.6-2.6,2.9-4.6,3.6c-26,9-51.7,18.7-79.1,22.4c-12.6,1.7-24.7,5.7-36.4,10.8
C269.8,259,220.4,259,171.1,259z M107.4,197.4l0.3,0.2l0-0.3L107.4,197.4z"/>
<path class="bk-green" d="M385.9,200.2c-1.9-0.3-1.7-2.3-2.7-3.3c-0.8-0.8-1.6-2.2-2.8-1.3c-4.4,2.9-7.2,0.1-8.6-3.1
c-2.3-5.5-6.3-5-10.7-4.3c-0.6,0.1-1.2,0.8-2.1-0.3c1.1-3.2,2.3-6.5,3.6-10.1c-2.6-0.8-4.3,1.8-7,1.2c1.7-2.7,3.6-5.1,4.9-7.8
c0.9-2,6.1-3.6,1.1-6.6c0.7-0.9,1.3-1.9,2.1-2.7c6.4-6.7,7.9-15.7,11.4-23.8c0.1-0.2,0.3-0.3,0.4-0.5c-0.2,0.1-0.3,0.3-0.5,0.4
c-1.1,0.3-2.1,0.6-3.2,0.8c-0.7-1.4,1.4-1.9,0.4-3.4c-0.9,1-1.9,1.8-2.6,2.8c-0.7,0.8-1,2.2,0.2,2.5c4,1.2,1.1,3.1,0.3,4.3
c-1.4,2.1-2.8,0.5-4.2-0.4c-4.2-3-8.3-6-12.7-8.8c-8.4-5.4-18.3-6.9-27.4-10.4c-3.8-1.5-7.5,0.5-10.6,2.9
c-6.5,4.9-13.1,9.7-20.2,13.8c-3.2,1.8-5.3,1.4-6.2-2.4c-0.2-0.8-0.5-1.6-0.9-2.3c-0.9-1.5-0.9-3.9-3.2-4c-2.2-0.2-2.4,2.1-3.1,3.4
c-2,3.8-3.4,4.1-6.4,0.4c-5.6-6.8-5-11.7,3.1-15.5c3.6-1.7,7.1-0.1,10.6,1c2.5,0.8,6.2,3.9,7.3,0.9c1.2-3.3-3.8-2.9-6-4.1
c-6.2-3.2-12.3-3.6-17.8,1.9c-2.2,2.2-4.7,4.9-5.1-1.6c-0.1-2.4-3.4-4.3-4.6-7c-0.8-1.9-0.9-3.3,1-4.7c10-7.2,18.8-15.9,27.3-24.7
c1.3-1.3,1.3-1.2,3.3-0.1c1.9,1.1,2.6-1.8,4.4-1.4l0.2,0.2c-0.9,3.4-4.7,5.5-4.5,10.1c5.3-4.3,8.5-10.2,14.2-13.4
c0.2,0.1,0.3,0.3,0.4,0.4c0,2.3,1.4,1.8,2.7,1.4c2.9-1,5.1-2.9,7.4-5c1.6-1.5,2.5-5.5,6.3-2.9c0.2,0.2,1.6-1.1,2.2-1.8
c3.5-3.8,6.9-7.7,10.3-11.5c0.7-0.8,0.8-3.1,2.6-1.6c1.1,0.9,1.5,2.4,0.1,3.9c-2.1,2.2-4.8,4.1-4.5,7.8c0.5,0.1,1,0.4,1.1,0.3
c4.3-5.4,7.2-5.2,12.2,0.4c4,4.5,11.3,6,16.9,9.2c9.1,5.2,17.8,11.3,25.3,18.5c6.7,6.3,11.5,14.6,18.2,21.1
c2.4,2.3-1.3,3.6-1.3,5.7c1.3,1,2.9,0,4.2,0.4l0.1,0.1c-1.2,3.1-3.9,4.9-5.9,7.3c-0.8,0.9-2.5,1.7-1.6,3.2c0.7,1.2,2.1-0.6,3.2,0.3
c-0.1,1.8-1.3,2.9-2.4,4.2c-0.9,1-1.7,2.1-1.4,3.5c0.3,1.3,2.9,2.1,0.8,4c-2.2,2.1-4.2,4.4-6.8,5.7c-1.5,0.8-2.4-1-2.9-2
c-1-1.7,0.8-1.1,1.5-1.4c2.8-1.3,0.5-2.3-0.2-3.2c-1.4-1.9-4.6-2.1-5-5.1c1.1-1.4,3-0.2,4.5-1.7c-2.2-2-4.5-3.6-7.5-4.2
c-0.3-0.3-0.7-0.7-1-1c-0.3-0.3-0.7-0.7-1-1c-1.4-4-2.4-8.2-4.5-12c-0.4-0.7-0.9-1.7-1.8-1.3c-0.6,0.2-1.1,1.1-1.5,1.8
c-0.3,0.5-0.6,1.3,0.6,1.2c3.1-0.4,2.5,2.4,3.2,3.9c1.1,2.4,1.1,5.2,3.6,6.8c0.3,0.4,0.6,0.7,0.9,1.1c0.3,0.3,0.7,0.7,1,1
c-0.8,3.7,1.7,6.3,3,9.3c1.1,2.8,2.8,6.1,2.8,8.6c0,4.7,3.1,8.4,2.5,13c0,0.3-0.2,0.7,0,1c3.9,6.3,2.6,14.7,7.9,20.5
c1.7,1.9,1,2.7,0,5.2c-3.3,7.7-5.9,3.6-9.2,0.7c-0.5-0.4-1.2-0.6-2-1c-1.7,9.8-5.3-0.3-8.3,1.2c-1.2,1.6,1.3,3.3,0.8,5.2
C386.2,199.9,386,200,385.9,200.2z M378.1,126c-0.1,0.1-0.3,0.1-0.4,0.2c-0.1,0.1,0,0.2,0,0.3C377.8,126.4,377.9,126.2,378.1,126
c0.3-0.1,0.9-0.1,0.3-0.7C378.3,125.5,378.2,125.8,378.1,126z M373.5,133.5c0.1-0.1,0.2-0.1,0.3-0.2c0-0.1,0-0.3,0-0.4
c-0.1,0.1-0.3,0.2-0.4,0.3C373.3,133.2,373.5,133.4,373.5,133.5z M376.5,128.6l0.2-0.2l-0.2,0L376.5,128.6z"/>
<path class="bk-green" d="M305.1,181c1.5-0.9,7.3,2.1,3.4-3.7c-0.1-0.2,0.3-0.9,0.7-1.2c7.8-7.9,14-17.2,22.7-24.1
c3.6-2.8,7.4-4.8,12.9-3.6c-5.8,4.8-11.3,9.2-16.7,13.7c-4.6,3.8-8.7,8.1-11,13.8c-0.5,0.4-1,1.1-0.4,1.4c0.7,0.5,0.8-0.5,1-1
c7-6.1,14-12.2,21-18.2c1.5-1.3,3.1-2.5,4.7-3.7c6.7-5.5,12.6-5.5,20.3-0.9c2.5,1.5,1.9,2.2,0.8,3.8c-2.9,4.2-7.2,6.2-12,5.6
c-10.3-1.2-18,2.8-24.3,10.7c-2.2,2.7-5.2,4.6-8,6.7c-2,1.5-4.7,2.7-4.8,5.8c0,0,0,0,0,0c-1-0.3-1.7,0.1-2.1,1c0,0,0,0,0,0
c-2.3,1.1-4.9-2.4-7.2,0.6c-0.3,0.3-2.6-1.2-3.4,0.2c-0.6,1.2,0.6,2.4,1.6,3.3c0,0-0.1-0.1-0.1-0.1c0.4,0.4,0.7,0.7,1.1,1.1
c0,0-0.1-0.1-0.1-0.1c0.4,0.4,0.7,0.7,1.1,1.1c0,0-0.1-0.1-0.1-0.1c0.4,0.4,0.7,0.7,1.1,1.1c0,0-0.1-0.1-0.1-0.1
c0.1,0.6,0.4,1,1.1,1.1c0,0,0-0.1,0-0.1c-0.1,1.5,0.5,2.2,2,2c0,0,0,0,0,0c-1.5,2.5-5.9,4.7-1,8.1c0,0,0,0,0,0
c0.2,0.6,0.2,1.5,0.7,1.8c3.8,2.8,3.7,6.1,1.6,9.9c-2.2,0.2-1.9-2.5-3.8-3.1c0.3,4.7-4.7,2.7-5.3,2.6c-5.1-1.1-4.9,1.8-4.2,5.7
c-1.9-1.3-3.2-2.2-4.5-3.1c-3-2.3-6-4.7-9,0.2c-0.8,1.3-2.2,1.8-2.6-0.6c0-0.2-0.1-0.5-0.1-0.5c-4,0-5.9-2.8-7.8-5.7L274,212
c-1.1-3.8-6.6-5.8-9.5-3.4c-1.3,1.1-3.1,2.1-4.5,1.1c-1.6-1.2,0.3-2.6,0.7-3.9c0.9-2.7,2.1-5.2,3.1-7.9c0.1-0.4-0.1-0.9-0.1-1.4
c-2.3-0.6-3.9,2-6.5,1.2c2.3-5.2,7.1-8.8,8.2-14.4c0.3-0.3,0.7-0.6,0.1-0.9c-0.1,0-0.4,0.3-0.6,0.4c-2.8-0.2-1.5-1.4-0.6-2.4
c2.1-2.3,4.8-4.2,6.1-7.2c0.9-2,2.9-3.9,0.8-6.3c-0.2-0.2-0.3-1-0.1-1.3c6.5-8,7-19.1,13.4-27.4c4.8,6.1,7.6,13.4,9.4,20.1
c1.8,6.6,4.1,12.1,8.1,17.4c1.3,1.8-0.7,4.6,1.2,6.5c0.6,0.7,1,2.1,2.2,1.4C306.5,182.9,305.1,181.9,305.1,181L305.1,181z"/>
<path class="bk-green" d="M444.6,121.8c2.9-0.2,4.7,0.6,1.6,4.1c-0.6,0.7-1.2,1.7-0.5,2.7c0.6,0.8,1.7,1.8,0,2.1c-1.6,0.4-2.9-1.3-2.3-2.4c1.9-3.6-0.9-5-2.6-7.2c-1.2-1.6-3.9-2.9-1.5-5.8c0.8-1-0.6-2.7-1.3-4c-2.9-5.8-7.4-10.7-9-17.2c-0.3-1.2-0.9-2.2-2.3-2.2c-1.6,0-1.5,1.5-1.9,2.5c-1.7,4.1-3.4,8.3-5.3,12.3c-1.2,2.6-2.6,3.6-4.7,0.4c-6.8-10.3-13.7-20.5-20.7-30.6c-1.6-2.3-0.9-3.6,0.9-5c6-4.7,12.9-7.5,20.2-9.5c2.1-0.6,4.3-0.3,5.1,1.9c0.7,1.8-1.6,2.2-2.7,2.9c-3.1,2.2-6.5,4.1-9.7,6.2c-2.9,1.9-5.8,3.7-7.7,6.8c1.4,1.6,2.4,0.3,3.2-0.1c5.9-3.4,12-6.6,17.5-10.6c3-2.2,4.5-1.6,6.5,0.8c8.4,10.5,18.8,18.3,31.3,23.3c3,1.2,2.2,2.4,0.6,4.3c-4.3,4.7-6.6,10.8-11.2,15.3c-0.2,0.2-0.5,0.7-0.4,0.8C453.6,119.8,443.1,117.7,444.6,121.8z"/>
<path class="bk-green" d="M426.4,98c6.8,8.5,8.1,18.3,11.8,27c0.3,0.8,0.4,1.6,0.9,2.3c2.7,4.4,5,9,7,13.9c2.5,6,2.9,12.4,5.2,18.2c1.2,3-0.6,4.3-4,3.7c-3.3-0.6-5.9,0.6-8.2,3.2c-2.4,2.7-4.6,6.6-9.4,5.3c-1.1-2.7,5.1-4.4,1.2-7.1c-3-2-3.8,2.4-6.2,2.9c-1.7-4.5-5-8.8-1.1-14c-3-0.2-3.5,1.6-4.6,2.8c-0.8,0.9-1.3,2.9-2.8,2.1c-1.4-0.7-1.2-2.5-0.6-4c0.5-1.1,1.6-2.2,0.8-4c-2.2,1-5.2,3.1-6.9,1.4c-2-1.9,0.6-4.6,1.6-6.7c0.8-1.5,0.9-3.1,1-4.8c0.4-5.1,1.4-9.8,4.3-14.4c2.8-4.6,3.1-10.5,5.5-15.6C423.7,106.5,424.8,102.5,426.4,98z"/>
<path class="bk-green" d="M246.1,93c-2,4.8-6.7,7.7-9.2,12.6c2.8,0.6,3.5-1.8,5-2.7c1.3-0.7,2.1-3.6,3.8-2c1.7,1.6-0.6,2.7-1.8,3.9c-1.8,1.7-3.7,3.3-3.7,6.9c2.9-2.1,5.4-4,7.9-5.9c1.1-0.8,2.2-1,3.1,0.1c0.9,1.1-0.4,1.7-1,2.4c-1.6,2-3.2,4-5.1,6.4c3.8,0.2,5-3.3,7.8-3.8c0,0,0.3,0.3,0.3,0.3c-2.2,5.5-6.3,9.3-10.8,13c-7.4,6.1-14.2,12.9-21.4,19.3c-1,0.9-1.9,3.2-3.9,1.1c-1.8-1.8-1-3.3,0.6-4.6c4.9-4.2,9.9-8.3,14.6-12.7c2.5-2.3,5.5-4.4,5.7-8.4c0.1-0.1,0.3-0.2,0.4-0.4c-0.1,0-0.2,0-0.3,0c-0.1,0.1-0.1,0.2-0.2,0.3c-6.4,3.6-11.2,9.2-17,13.5c-2.7,2-5.3,4.3-8.5,6c3.2-5.6,9.9-8.5,12.5-15.4c-5.9,1.4-8.5,6.3-12.4,9.3c-3.3,2.6-5.3,1.5-7.4-1.2c-0.3-0.4-0.1-1.3-0.1-1.9c0.4-0.3,0.7-0.6,1.1-0.9c0.2-0.2,0.6-0.6,0.5-0.7c-0.4-0.7-0.7-0.1-1,0.2c-0.3,0.3-0.6,0.7-1,1c-3.1,0.5-5.2-0.5-5.8-3.9l0,0c7.3-3.9,14.5-7.9,20.9-13.3c1.3-1.1,2.2-2.5,4-2.8l0.3,0.3c-2.8,5.4-8.4,7.9-12.2,12.2c-1.2,1.4-2.9,2.4-3.7,4.2c5.8-2,9.9-6.3,14.5-9.8c7.1-5.5,12.4-12.8,18.5-19.3C242.7,95.1,243.8,93.2,246.1,93L246.1,93z M234.8,108.7c-0.3,0.4-0.5,0.8-0.8,1.2c-0.2,0.2-0.3,0.3-0.5,0.5c0.2-0.1,0.4-0.3,0.5-0.4c0.4-0.3,0.7-0.6,1.1-0.9c0.2-0.2,0.6-0.6,0.5-0.6C235.3,107.8,235.1,108.4,234.8,108.7z"/>
<path class="bk-green" d="M465.1,119c-0.3,0-0.7,0-1,0l-0.2-0.2c-0.6-3-3-3.8-5.4-1.6c-1.1,1-1.5,2.6-3.2,3c-0.2-0.1-0.3-0.3-0.5-0.4c-0.2-6.9,2.3-12.9,6.1-18.5c0.9-1.4,1.6-2.8,3.2-3.9c5.8,7.5,6.7,17.3,12.7,24.6c-1.5,1.6-2.4-1-4,0c0.6,4.7,3.6,8.5,6.7,11.7c2.4,2.4,1.7,4.6,1.3,7.1c-0.2,1.6-1.2,2.6-2.7,1c-3.2-3.3-5.3-0.5-7.3,1.5c-1.6,1.6-2.7,3.7-5.1,4.5c-0.8,0.3-0.9,2.4-2.6,0.9c-1.3-1.1-1.1-2-0.3-3.4c2.2-3.5,4-7.3,6.2-10.8c2.6-4-2.3-5.2-2.8-8c-0.8,0.5-1.5,1.1-2.4,1.7C463.6,125,468.8,122.4,465.1,119c0.1-0.2,0.3-0.3,0.5-0.4c-0.1,0-0.2,0-0.3,0C465.2,118.7,465.2,118.9,465.1,119z"/>
<path class="bk-green" d="M249.5,145.3c0.4,1.2-0.1,1.9-0.7,2.4c-3.2,2.7-4.9,4.7,1,6.4c4.7,1.4-1.2,3.3,0,5.7c8.9-4,12.3-12.7,17.7-20.4c2.1,2.9,4,5.6,5.9,8.3c1.6,2.2,0,3.6-1.3,4.6c-6.5,4.9-13,9.9-19.7,14.5c-2.9,2-3.2-1.9-3.4-2.9c-0.5-1.6-0.8-2.9-2.3-1.6c-3.3,3-5.2-0.8-7.2-1.7c-1.5-0.7,0.3-3.7,1.7-5.5C243.9,151.9,243.8,146.5,249.5,145.3z"/>
<path class="bk-green" d="M244.6,129.4c-1.2,2.8-3.8,4-6.6,6.1c1.9,0.4,3.2,0.7,4.2,0.9c-1.3,6.1-3.6,11.8-8.4,16.1c-1.7,1.5-3.3,4-5.8,1.6c-2.6-2.5,0.5-3.7,1.7-5.2c2.4-2.9,6.2-4.4,8.8-8.9c-5.3,0.9-8.4,3.6-11.5,6.4c-1.3,1.2-2.9,4.3-4.4,2.7c-1.9-2.1,1.5-3.5,2.8-4.8c4.5-4.4,9.2-8.7,13.8-13C240.7,130.1,242,128.2,244.6,129.4z"/>
<path class="bk-green" d="M199.1,125c-2-0.3-4-0.3-5.1-2c13.3-10.7,27.6-20,40.6-32.9c-0.3,3.1-1.6,4.2-2.8,5.5c-8.5,9.1-17.8,17.3-28.3,24.1C201.7,121,199,121.9,199.1,125C199.1,125,199.1,125,199.1,125z"/>
<path class="bk-green" d="M414,58.7c-8.6,2.9-16.7,5.2-22.3,12c-0.6,0.8-1.4,0.8-1.9-0.2c-0.7-1.2-2.4-2.1-1.3-3.9c1.8-3.2,18.8-10.9,22.3-10C411.7,56.9,412.5,57.7,414,58.7z"/>
<path class="bk-green" d="M406.3,182.8c2.5,0.9,5.1,2.6,6.8-1.4c0.4-0.9,2.6-1,4-1.4c0,0,0.1,0.1,0.1,0.1c0.3,2.1,0,4.1,1.4,6.2c1.4,2.1,0.4,4.9-1.2,6.4c-1.4,1.3-2.9-0.8-4.1-1.8c-2.7-2.3-7-3-7.4-7.5C406,183.1,406.1,183,406.3,182.8z"/>
<path class="bk-green" d="M39.9,219.9c4.7-8.9,10.5-17,16.6-25c-2.5,10.3-8.7,18.2-16.2,25.4C40.2,220.1,40.1,220,39.9,219.9z"/>
<path class="bk-green" d="M398.1,51.4c-3.3,1.9-7.2,2.8-9.7,5.8c-0.8,0.9-4.1,2.1-0.4,3.9c1.4,0.7,0,1.7-0.4,2.4c-0.4,0.7-1.4,1.5-2,0.9c-1.8-2.1-4.1-4.2-4.9-6.8c-0.8-2.3,2.4-2.2,3.8-2.8C388.8,53.1,393.2,51.2,398.1,51.4z"/>
<path class="bk-green" d="M242.8,88.7c3.8-7.5,9-13.9,15.4-19.4c-3.7,7.6-8.3,14.5-15,19.8C243.1,89,242.9,88.8,242.8,88.7z"/>
<path class="bk-green" d="M258.2,111c2.8,4,4.8,6.9-0.9,9.6c-2.6,1.3-3.9,5-7.2,6.6C254.9,123,254.5,116.2,258.2,111z"/>
<path class="bk-green" d="M377.1,52c4.2-2,7.8-6.3,14.4-4.1c-4.4,2.8-8.8,3.2-12.3,5.8C377.8,54.7,377.2,53.3,377.1,52L377.1,52z"/>
<path class="bk-green" d="M196.3,116.5c-3.3,2.7-6.4,5.5-10,0C189.7,116.5,192.9,116.5,196.3,116.5z"/>
<path class="bk-green" d="M272.1,141c1.6,0,3.3,0,4.9,0.2c1,0.1,1.1,1,1.1,1.9c-0.1,1.4-0.5,2.7-1.6,3.5c-1,0.7-1.8-0.4-2.4-1.1C273.1,144.1,272,142.8,272.1,141L272.1,141z"/>
<path class="bk-green" d="M307.1,74c1.9-4.1,5.3-6.6,9.1-8.8C313.7,68.7,311.2,72.2,307.1,74L307.1,74z"/>
<path class="bk-green" d="M265.1,70c-1.7,4.1-4.2,7.5-7.9,10.1c0,0-0.2-0.1-0.2-0.1C258.7,75.8,260.7,71.9,265.1,70z"/>
<path class="bk-green" d="M258.1,105.5c1.5-1.1,2.3-1.9,3.3-2.4c1.1-0.6,2.1-3.1,3.4-1.2c1.1,1.5-1,2.8-2.3,3.8C261.4,106.6,260,106.1,258.1,105.5z"/>
<path class="bk-green" d="M279.2,59.1c-0.8,2.7-3.1,4.1-5.4,5.4c0.7-2.8,2.4-4.7,5.3-5.6L279.2,59.1z"/>
<path class="bk-green" d="M56.1,208c0.1-2.6,1.1-4.7,3.5-5.8c0.2-0.1,0.8,0.3,0.8,0.4C60.2,205.3,57.9,206.5,56.1,208L56.1,208z"/>
<path class="bk-green" d="M308.8,78.8c0.8-1.7,1.7-3.1,4.3-3.5c-0.5,2.5-2.1,3.3-3.9,3.9C309.1,79,309,78.9,308.8,78.8z"/>
<path class="bk-green" d="M377.1,52c-1.6-0.1-3-0.6-2.7-2.6c0.1-0.4,1.1-1.1,1.5-1C378.2,48.9,376.4,50.9,377.1,52C377.1,52,377.1,52,377.1,52z"/>
<path class="bk-green" d="M290,221.1c-0.9-0.2-2-0.3-1.7-1.7c0.1-0.4,0.6-0.9,0.9-0.9c1.3,0.2,1,1.4,1.2,2.2C290.2,220.9,290.1,221,290,221.1z"/>
<path class="bk-green" d="M290.3,220.7c1,0.3,1.8,0.7,1.5,2c-0.1,0.3-0.7,0.9-0.9,0.8c-1.2-0.4-0.8-1.5-1-2.4C290.1,221,290.2,220.9,290.3,220.7z"/>
<path class="bk-green" d="M62.7,207.7c0.4-0.8,0.3-2,1.5-2.2c0.2,0,0.6,0.3,0.6,0.5c0.1,1.1-0.7,1.7-1.5,2.3C63.1,208,62.9,207.8,62.7,207.7z"/>
<path class="bk-green" d="M39.1,222c-0.2,1.1-0.7,1.9-1.9,2.1c0,0-0.2-0.1-0.2-0.1C37.2,222.8,37.7,222,39.1,222C39,221.9,39.1,222,39.1,222z"/>
<path class="bk-green" d="M316.2,73.1c-0.2,0.8-0.5,1.6-1.6,1.5c-0.2,0-0.4-0.7-0.4-0.7c0.4-0.4,1-0.8,1.5-1.1C315.9,72.8,316.1,73,316.2,73.1z"/>
<path class="bk-green" d="M226.1,107c0.4-0.4,0.9-0.9,1.3-1.3c0.1,0.2,0.4,0.5,0.3,0.6C227.4,107,226.8,107.1,226.1,107L226.1,107z"/>
<path class="bk-green" d="M250.1,89c0.2-0.6,0.4-1.1,0.7-1.7c0.2,0.1,0.4,0.2,0.6,0.3C251,88.1,250.5,88.5,250.1,89C250.1,89,250.1,89,250.1,89z"/>
<path class="bk-green" d="M315.8,72.7c0.3-0.7,0.7-2,1.5-1.3c0.8,0.6-0.5,1.2-1.1,1.6C316.1,73,315.9,72.8,315.8,72.7z"/>
<path class="bk-green" d="M454.2,122.1c-0.3,0.6-1,1.1-1.4,0.6c-0.5-0.7,0.4-0.8,0.9-0.9C453.9,121.8,454.1,122,454.2,122.1z"/>
<path class="bk-green" d="M453.7,121.7c0.4-0.6,0.8-1.2,1.2-1.8c0.2,0.1,0.3,0.3,0.5,0.4c-0.4,0.6-0.8,1.2-1.2,1.8C454.1,122,453.9,121.8,453.7,121.7z"/>
<path class="bk-green" d="M386.3,199.8c0.2,0.4,0.4,0.8,0.6,1.2c0,0.1-0.2,0.2-0.3,0.3c-0.2-0.4-0.4-0.8-0.6-1.2C386,200,386.2,199.9,386.3,199.8z"/>
<path class="bk-green" d="M256.1,82c-0.2-0.9,0.1-1.6,0.9-2.1c0,0,0.2,0.1,0.2,0.1C257.2,81,256.9,81.7,256.1,82L256.1,82z"/>
<path class="bk-green" d="M56.1,208c-0.3,0.3-0.6,0.5-0.9,0.8c-0.1-0.2-0.2-0.4-0.3-0.6C55.2,208.2,55.7,208.1,56.1,208C56.1,208,56.1,208,56.1,208z"/>
<path class="bk-green" d="M29.5,232.7c0.1,0,0.3,0,0.3,0c0.1,0.1,0.1,0.3,0.1,0.4c-0.2,0.5-0.4,0.4-0.6,0C29.3,233,29.4,232.8,29.5,232.7z"/>
<path class="bk-green" d="M220.2,162.8c0.4,0.2,1.4,0,1.1,0.8c-0.3,0.5-1,0.1-1.4-0.4C220,163.1,220.1,163,220.2,162.8z"/>
<path class="bk-green" d="M40.3,220.2c-0.1,0.8-0.4,1.5-1.2,1.8c0,0-0.1-0.1-0.1-0.1c-0.1-0.9,0.2-1.6,0.9-2.1C40.1,220,40.2,220.1,40.3,220.2z"/>
<path class="bk-green" d="M267.7,227.7c0.3-0.4,0.6-0.8,0.8-1.1c0.7,0.7,0.2,1.1-0.3,1.5C268.1,228,267.9,227.9,267.7,227.7z"/>
<path class="bk-green" d="M36.1,226c-0.2-0.9,0.1-1.6,1-2c0,0,0.2,0.1,0.2,0.1C37.2,225,36.9,225.7,36.1,226C36.1,226,36.1,226,36.1,226z"/>
<polygon class="bk-green" points="272.4,66.4 272.7,66.3 272.6,66.6 	"/>
<polygon class="bk-green" points="112.6,196.3 112.7,196.6 112.4,196.5 	"/>
<path class="bk-green" d="M145,194.9c0.2-0.2,0.5-0.6,0.5-0.6c0.5,0.4,0.2,0.6-0.2,0.9C145.3,195.2,145,194.9,145,194.9z"/>
<path class="bk-green" d="M265.2,69.5c0.1,0,0.2-0.1,0.3-0.1c0,0.1,0,0.3,0,0.3c-0.1,0.1-0.3,0.1-0.4,0.2C265.1,69.8,265.2,69.7,265.2,69.5z"/>
<path class="bk-green" d="M303.1,233c-0.1-0.1-0.3-0.1-0.4-0.2c-0.1-0.1,0-0.2,0-0.3C302.8,232.7,302.9,232.8,303.1,233C303.1,233,303.1,233,303.1,233z"/>
<path class="bk-green" d="M33.1,229c-0.1,0.2-0.3,0.4-0.4,0.6c0-0.1,0-0.3,0-0.3C32.8,229.1,33,229.1,33.1,229C33.1,229,33.1,229,33.1,229z"/>
<path class="bk-green" d="M34.1,228c-0.1,0.6-0.4,1-1,1c0,0,0,0,0,0C33.4,228.7,33.7,228.3,34.1,228C34.1,228,34.1,228,34.1,228z"/>
<path class="bk-green" d="M35.1,227c-0.3,0.3-0.7,0.7-1,1c0,0,0,0,0,0C34.4,227.7,34.7,227.3,35.1,227L35.1,227z"/>
<path class="bk-green" d="M35.1,227c0.1-0.6,0.3-1,1-1c0,0,0,0,0,0C35.8,226.3,35.4,226.7,35.1,227C35.1,227,35.1,227,35.1,227z"/>
<path class="bk-green" d="M317.1,225c-0.2-0.1-0.4-0.3-0.5-0.4c0.1,0,0.3,0,0.3,0C317,224.7,317,224.9,317.1,225C317.1,225,317.1,225,317.1,225z"/>
<path class="bk-green" d="M318.1,220c0.3,0.3,0.7,0.6,1,0.9c0,0-0.1,0.1-0.1,0.1C318.7,220.7,318.4,220.3,318.1,220L318.1,220z"/>
<path class="bk-green" d="M318.1,220c-0.2-0.1-0.4-0.3-0.5-0.4c0.1,0,0.3,0,0.3,0C318,219.7,318,219.9,318.1,220C318.1,220,318.1,220,318.1,220z"/>
<path class="bk-green" d="M274.1,212.1c-0.2,0.2-0.4,0.3-0.5,0.5c0.1-0.2,0.3-0.4,0.4-0.6C274,212,274.1,212.1,274.1,212.1z"/>
<path class="bk-green" d="M131,203.9c0.2-0.2,0.3-0.4,0.5-0.6c0.5,0.5,0.1,0.6-0.3,0.8C131.2,204.1,131,203.9,131,203.9z"/>
<polygon class="bk-green" points="411.6,202.7 411.5,202.4 411.8,202.5 	"/>
<path class="bk-green" d="M258,201.9c0.2-0.1,0.4-0.2,0.6-0.3c-0.1,0.2-0.2,0.4-0.3,0.7C258.3,202.2,258,201.9,258,201.9z"/>
<path class="bk-green" d="M254.3,110.2c-0.3,0.3-0.7,0.7-1,1c0,0-0.3-0.3-0.3-0.3c0.3-0.3,0.7-0.7,1-1L254.3,110.2z"/>
<path class="bk-green" d="M254,109.9c0.4-0.3,0.7-0.6,1.1-0.9c0,0,0.1,0.1,0.1,0.1c-0.3,0.4-0.6,0.8-0.9,1.1C254.3,110.2,254,109.9,254,109.9z"/>
<path class="bk-green" d="M255.1,109c0.1-0.2,0.3-0.4,0.4-0.6C256,108.9,255.5,108.9,255.1,109C255.1,109,255.1,109,255.1,109z"/>
<path class="bk-green" d="M224,108.9c0.4-0.3,0.7-0.6,1.1-0.9c0,0,0.1,0.1,0.1,0.1c-0.3,0.4-0.6,0.8-0.9,1.1C224.3,109.2,224,108.9,224,108.9z"/>
<path class="bk-green" d="M226.1,107c0,0.6-0.4,1-1,1c0,0,0,0,0-0.1C225.4,107.7,225.7,107.3,226.1,107C226.1,107,226.1,107,226.1,107z"/>
<path class="bk-green" d="M304.1,77c0.3-0.3,0.7-0.7,1-1l0,0C304.7,76.3,304.4,76.6,304.1,77L304.1,77z"/>
<path class="bk-green" d="M282.1,57c-0.2,0.2-0.4,0.3-0.6,0.5c0-0.1,0-0.3,0.1-0.3C281.8,57,281.9,57,282.1,57C282.1,57,282.1,57,282.1,57z"/>
<path class="bk-green" d="M279,58.9c0.2-0.1,0.4-0.3,0.6-0.4c-0.2,0.2-0.3,0.4-0.5,0.6C279.2,59.1,279,58.9,279,58.9z"/>
<path class="bk-green" d="M246.1,93c0.1-0.6,0.4-0.9,1-0.9c0,0,0,0,0,0C246.7,92.3,246.4,92.7,246.1,93C246.1,93,246.1,93,246.1,93z"/>
<path class="bk-green" d="M248.1,91c-0.3,0.3-0.7,0.7-1,1c0,0,0,0,0,0C247.2,91.4,247.5,91.1,248.1,91C248.1,91,248.1,91,248.1,91z"/>
<path class="bk-green" d="M241.1,91c-0.1,0.2-0.3,0.4-0.4,0.6C240.1,91,240.7,91.1,241.1,91C241.1,91,241.1,91,241.1,91z"/>
<path class="bk-green" d="M304.1,77c-0.3,0.3-0.7,0.7-1,1l0,0C303.2,77.4,303.5,77.1,304.1,77C304.1,77,304.1,77,304.1,77z"/>
<path class="bk-green" d="M248.1,91c0.3-0.3,0.7-0.7,1-1c0,0-0.1-0.1-0.1-0.1C248.7,90.3,248.4,90.6,248.1,91C248.1,91,248.1,91,248.1,91z"/>
<path class="bk-green" d="M242.2,90.1c-0.4,0.3-0.7,0.6-1.1,0.9c0,0,0,0,0,0c0.3-0.4,0.6-0.8,0.8-1.2C241.9,89.8,242.2,90.1,242.2,90.1z"/>
<path class="bk-green" d="M250.1,89c-0.3,0.3-0.7,0.7-1,1c0,0,0.1,0.1,0.1,0.1C249.4,89.7,249.8,89.4,250.1,89C250.1,89,250.1,89,250.1,89z"/>
<path class="bk-green" d="M243.2,89.1c-0.3,0.3-0.7,0.6-1,1c0,0-0.3-0.3-0.3-0.3c0.3-0.4,0.6-0.7,0.9-1.1C242.9,88.8,243.1,89,243.2,89.1z"/>
<path class="bk-green" d="M253.1,85c-0.1,0.2-0.3,0.4-0.4,0.6c0-0.1,0-0.3,0-0.3C252.8,85.1,253,85.1,253.1,85C253.1,85,253.1,85,253.1,85z"/>
<path class="bk-green" d="M253.1,85c0.1-0.1,0.1-0.3,0.2-0.4c0.1-0.1,0.2,0,0.3-0.1C253.4,84.7,253.2,84.8,253.1,85C253.1,85,253.1,85,253.1,85z"/>
<path class="bk-green" d="M256.1,82c-0.1,0.1-0.1,0.3-0.2,0.4c-0.1,0.1-0.2,0-0.3,0C255.7,82.3,255.9,82.2,256.1,82C256.1,82,256.1,82,256.1,82z"/>
<path class="bk-green" d="M299,81.9c0.2-0.1,0.4-0.3,0.6-0.4c-0.1,0.2-0.3,0.4-0.4,0.6C299.2,82.1,299,81.9,299,81.9z"/>
<path class="bk-green" d="M303.1,78c-0.1,0.1-0.1,0.3-0.2,0.4c-0.1,0.1-0.2,0-0.3,0.1C302.8,78.3,302.9,78.2,303.1,78C303.1,78,303.1,78,303.1,78z"/>
<path class="bk-green" d="M405.8,183.3c-0.3-0.3-0.7-0.6-0.2-0.9c0.1,0,0.4,0.3,0.6,0.5C406.1,183,406,183.1,405.8,183.3z"/>
<path class="bk-green" d="M305.1,181c-0.1-0.1-0.3-0.2-0.4-0.2C304.8,180.8,304.9,180.9,305.1,181C305.1,181,305.1,181,305.1,181z"/>
<path class="bk-green" d="M417.1,180c0.2-0.1,0.3-0.3,0.5-0.4C417.4,179.7,417.3,179.9,417.1,180C417.1,180,417.1,180,417.1,180z"/>
<path class="bk-green" d="M457.1,170c-0.2-0.1-0.3-0.3-0.5-0.4c0.1,0,0.2,0,0.3,0C457,169.7,457,169.9,457.1,170C457.1,170,457.1,170,457.1,170z"/>
<path class="bk-green" d="M272.1,141c-0.1-0.1-0.3-0.1-0.4-0.2c-0.1-0.1,0-0.2,0-0.3C271.8,140.7,271.9,140.8,272.1,141C272.1,141,272.1,141,272.1,141z"/>
<path class="bk-green" d="M283.1,56c0.1-0.2,0.3-0.4,0.4-0.7C284.1,56,283.3,55.8,283.1,56C283.1,56,283.1,56,283.1,56z"/>
<path class="bk-green" d="M413,124.9c0.2-0.2,0.3-0.3,0.5-0.5c-0.1,0.2-0.3,0.4-0.4,0.6C413.1,125,413,124.9,413,124.9z"/>
<path class="bk-green" d="M307.1,74c-0.3,0.3-0.7,0.7-1,1c0,0,0,0,0,0C306.4,74.6,306.7,74.3,307.1,74C307.1,74,307.1,74,307.1,74z"/>
<path class="bk-green" d="M464.1,119c-0.2,0.2-0.3,0.4-0.5,0.6c-0.5-0.5-0.1-0.7,0.3-0.8C464,118.9,464.1,119,464.1,119z"/>
<path class="bk-green" d="M305.1,76c0-0.6,0.3-1,1-1c0,0,0,0,0,0C305.8,75.3,305.4,75.7,305.1,76C305.1,76,305.1,76,305.1,76z"/>
<path class="bk-green" d="M282.1,57c0-0.6,0.4-0.9,1-1c0,0,0,0,0,0C282.7,56.3,282.4,56.7,282.1,57C282.1,57,282.1,57,282.1,57z"/>
<path class="mountain-shape" d="M304.1,191c-1-0.9-2.2-2.1-1.6-3.3c0.8-1.4,3.1,0.1,3.4-0.2c2.3-3,4.9,0.5,7.2-0.6c0.2,3.9-1.3,4.9-4.9,3.1C306.8,189.4,304.6,187.2,304.1,191z"/>
<path class="mountain-shape" d="M309.1,205c-4.9-3.3-0.5-5.5,1-8.1c1.6,1.3,3.7,2,5,4.3C312.6,202.1,307.8,199.3,309.1,205z"/>
<path class="mountain-shape" d="M310.1,197c-1.5,0.1-2.1-0.6-2-2C309,195.4,309.7,196,310.1,197z"/>
<path class="mountain-shape" d="M57.2,218.2c-0.4,0.5-1.1,1-1.4,0.4c-0.4-0.7,0.6-0.7,1-1C56.9,217.8,57.1,218,57.2,218.2z"/>
<path class="mountain-shape" d="M313.1,187c0.4-0.9,1-1.4,2.1-1C314.7,187,314,187.2,313.1,187z"/>
<polygon class="mountain-shape" points="107.4,197.4 107.8,197.3 107.7,197.6 	"/>
<path class="mountain-shape" d="M305.1,192c-0.4-0.4-0.7-0.7-1.1-1.1C304.4,191.3,304.8,191.7,305.1,192z"/>
<path class="mountain-shape" d="M306.1,193c-0.4-0.4-0.7-0.7-1.1-1.1C305.4,192.3,305.8,192.7,306.1,193z"/>
<path class="mountain-shape" d="M308.1,195c-0.7,0-1-0.4-1.1-1.1C307.4,194.3,307.8,194.7,308.1,195z"/>
<path class="mountain-shape" d="M450.2,181.9c0.2,0.2,0.5,0.5,0.5,0.5c-0.4,0.6-0.6,0.1-0.9-0.2C449.9,182.2,450.2,181.9,450.2,181.9z"/>
<path class="mountain-shape" d="M307.1,194c-0.4-0.4-0.7-0.7-1.1-1.1C306.4,193.3,306.8,193.7,307.1,194z"/>
<path class="mountain-shape" d="M311.2,235.9c0.1,0.2,0.3,0.3,0.4,0.5c-0.2-0.1-0.4-0.2-0.5-0.4C311,236.1,311.2,235.9,311.2,235.9z"/>
<path class="mountain-shape" d="M66.2,215.2c-0.2,0.1-0.4,0.3-0.7,0.4c0.1-0.2,0.3-0.4,0.4-0.6C66,214.9,66.2,215.2,66.2,215.2z"/>
<path class="mountain-shape" d="M354.2,209.1c-0.2,0.1-0.3,0.3-0.5,0.4c0.1-0.2,0.3-0.3,0.4-0.5C354,208.9,354.2,209.1,354.2,209.1z"/>
<path class="mountain-shape" d="M121.2,199.1c-0.2,0.1-0.5,0.3-0.7,0.4c0.1-0.2,0.3-0.5,0.4-0.7C120.9,198.8,121.2,199.1,121.2,199.1z"/>
<path class="mountain-shape" d="M111.3,199.2c-0.2,0.3-0.5,0.7-0.9,0.2c0,0,0.3-0.3,0.5-0.5C111,198.9,111.3,199.2,111.3,199.2z"/>
<path class="mountain-shape" d="M387,134.1c-2.5-1.6-2.5-4.5-3.6-6.8c-0.7-1.6-0.1-4.3-3.2-3.9c-1.2,0.1-0.9-0.7-0.6-1.2c0.4-0.7,0.8-1.6,1.5-1.8c0.9-0.3,1.4,0.6,1.8,1.3c2.2,3.7,3.2,7.9,4.5,12C387.2,133.8,387.1,134,387,134.1z"/>
<path class="mountain-shape" d="M373.5,133.5c-0.1-0.1-0.2-0.3-0.2-0.3c0.1-0.1,0.3-0.2,0.4-0.3c0,0.1,0.1,0.3,0,0.4C373.8,133.4,373.6,133.4,373.5,133.5z"/>
<path class="mountain-shape" d="M375.1,138c0.2-0.1,0.3-0.3,0.5-0.4C375.4,137.7,375.2,137.9,375.1,138C375.1,138,375.1,138,375.1,138z"/>
<path class="mountain-shape" d="M388.9,136.2c-0.3-0.3-0.7-0.7-1-1c0.2-0.2,0.3-0.3,0.5-0.5c0.3,0.3,0.7,0.7,1,1C389.2,135.9,389.1,136,388.9,136.2z"/>
<path class="mountain-shape" d="M387.9,135.2c-0.3-0.4-0.6-0.7-0.9-1.1c0.1-0.1,0.3-0.3,0.4-0.4c0.3,0.3,0.7,0.7,1,1C388.2,134.9,388.1,135,387.9,135.2z"/>
<polygon class="mountain-shape" points="376.5,128.6 376.5,128.4 376.7,128.4 	"/>
<path class="mountain-shape" d="M378.1,126c-0.1,0.2-0.3,0.4-0.4,0.6c0-0.1,0-0.3,0-0.3C377.8,126.1,378,126.1,378.1,126C378.1,126,378.1,126,378.1,126z"/>
<path class="mountain-shape" d="M378.1,126c0.1-0.2,0.2-0.5,0.3-0.7C379,125.9,378.4,125.9,378.1,126C378.1,126,378.1,126,378.1,126z"/>
<path class="mountain-shape" d="M317.5,176.3c-0.3,0.4-0.3,1.4-1,1c-0.6-0.4-0.1-1.1,0.4-1.4C317.1,176,317.3,176.2,317.5,176.3z"/>
<path class="mountain-shape" d="M264.9,182.8c0.2-0.2,0.5-0.5,0.6-0.4c0.6,0.4,0.2,0.6-0.1,0.9C265.2,183.1,265.1,183,264.9,182.8z"/>
<path class="mountain-shape" d="M234.1,110c-0.2,0.1-0.4,0.3-0.5,0.4C233.7,110.3,233.9,110.1,234.1,110C234,110,234.1,110,234.1,110z"/>
<path class="mountain-shape" d="M235.2,109.1c-0.4,0.3-0.7,0.6-1.1,0.9c0,0-0.1-0.1-0.1-0.1c0.3-0.4,0.5-0.8,0.8-1.2C235,108.9,235.1,109,235.2,109.1z"/>
<path class="mountain-shape" d="M234.8,108.7c0.2-0.3,0.4-0.9,0.9-0.2c0,0-0.4,0.4-0.5,0.6C235.1,109,235,108.9,234.8,108.7z"/>
<path class="mountain-shape" d="M206.4,128.3c-0.4,0.3-0.7,0.6-1.1,0.9c-0.1-0.1-0.2-0.2-0.4-0.4c0.3-0.3,0.6-0.7,1-1C206.1,128,206.2,128.1,206.4,128.3z"/>
<path class="mountain-shape" d="M205.9,127.8c0.3-0.3,0.6-0.9,1-0.2c0.1,0.1-0.3,0.5-0.5,0.7C206.2,128.1,206.1,128,205.9,127.8z"/>
<path class="mountain-shape" d="M238.1,119c0-0.1,0.1-0.2,0.2-0.3c0-0.1,0.2,0,0.3,0C238.4,118.7,238.2,118.9,238.1,119C238.1,119,238.1,119,238.1,119z"/>
<path class="mountain-shape" d="M465.1,119c0.1-0.1,0.1-0.3,0.2-0.4c0-0.1,0.2,0,0.3,0C465.4,118.7,465.2,118.8,465.1,119C465.1,119,465.1,119,465.1,119z"/>
</svg>