<svg version="1.1" id="mountainView" xmlns="http://www.w3.org/2000/svg" x="0px" y="0px" viewBox="0 0 400.2 198.2">
	<style>
		.mt-path-1 {fill:#537248;}
		.mt-path-1:hover {
		fill:#27594f; 
		transition: all 0.6s;
		}
		
		.mt-path-2 {fill:#0B423D;}
		.mt-path-2:hover {
		fill:#27594f; 
		transition: all 0.6s;
		}

		.mt-path-3 {fill:#13463F;}
		.mt-path-3:hover {
		fill:#27594f; 
		transition: all 0.6s;
		}

	</style>


<!-- interaction on -->
<path class="mt-path-1" style=" stroke: rgb(31, 101, 49);stroke-width: 3px;" d="M155.1,198.1c-1.7,0-3.3,0-5,0c-5.3-6.1-12.3-5.9-19.5-5.9c-2.8,0-7.5,0.2-8-2.3c-0.6-3.3,4.2-3.2,6.6-4.6c4.4-2.6,9.8-3.8,12.6-8.6c7-1.9,10.5-8.7,16.6-11.9c6.3,2.6,12.4,1.2,18.4-1.2c4-1.6,8.1-3,12.3-4.1c6.4-1.8,12.7-0.7,17.2,4c5.2,5.4,11.7,6.1,18.1,7.1c10,1.5,20.2,2.1,30.2,3.1c1.8,0.2,4.5,0.7,5-1.1c1.4-4.3,3.9-4.7,7.9-3.9c2.6,0.5,3.5-1,2-3.7c-2.7-4.7-2.6-4.7,2.6-5.4c4.2-0.5,8.1-1.9,11.2-5c4.2-4.2,9-4.7,14.2-2.2c3.2,1.5,6.6,2.3,9.9,3.6c2.2,0.9,4.2,0.7,6.1-0.8c2.9-0.7,3.7,1.7,4.9,3.3c3.4,4.6,7.6,8.3,12.6,11.1c2.4,1.8,7.4,2,6.8,5.3c-0.5,2.8-5.3,1.5-8.1,2.1c-3.1,0.7-6.1,0.9-8.7,3.1c-2.5,2.1-5.8,1.5-8.6,0.5c-4-1.4-7.8-1.9-12.1-0.6c-4.7,1.4-9.3-1.3-14.4-2c2.8,2.7,5.9,4.3,9.1,5.8c1.2,0.6,2.7,1.3,2.3,2.8c-0.4,1.6-2,1.6-3.3,1.6c-5.1-0.1-9.8,0.7-13.9,4.2c-1.9,1.7-4.9,0.9-7.1-0.3c-3.3-1.8-6.1-1.6-9.3,0.5c-6.1,3.9-12.6,3.8-18.1-1c-5.9-5.1-11.3-4.5-17-0.1c-3.9,3-8.2,3.3-12.8,2c-3.1-0.9-5.9-2.2-9-3.1c-5.3-1.6-10.5-1.6-15.5,1.1c-2.8,1.5-5.8,2.6-8.8,3.6c-2,0.6-4.3,0.8-5.4-1.2c-1.4-2.9-3.3-2.1-5.4-1.4C166.1,194.5,160.8,197,155.1,198.1z"/>
<path class="mt-path-2" style="stroke: rgb(31, 101, 49); stroke-width: 3px;" d="M0.1,178.1c4.3-6.5,9.6-12.2,14.8-17.9c2.8-3.1,4-7.9,6.7-10.1c5.7-4.6,8.7-11.8,15.3-15.3c3.7-1.9,5.6-5.2,6.1-9.2c1-8.1,4.6-14.2,12.2-18c2.6-1.3,4.6-3.8,6.8-5.7c5.7-4,11.8-7.2,17.8-10.6c3.4-2,6.4-1.7,9.6,0.6c3.3,2.3,6.3,5.6,10.9,4.8c2.4,4.1,0.9,8.4,0.3,12.4c-0.5,3.4,0.2,5.6,2.5,8c3.9,4.1,9.1,6.8,12.5,11.4c1,1.6,1.6,3.3,1.4,5.2c-1.2,12.5-0.3,24.9-0.6,37.4c-0.1,4.2-1.5,7.4-5.7,9c-1.5,0.4-2.9,0.3-4.4,0.3c-7.7,0.1-8-0.1-10.5-7.6c-0.6-1.9-1.5-3.7-2.4-5.4c-3.8-5.7-6.6-12.2-13.1-15.8c-1.6-0.9-2.4-2.7-3.3-4.3c-1.6-3.3-2.3-6.9-4.1-10.1c-1.7-2.9-3.8-4.1-6.9-2.3c-0.9,0.5-1.8,1.1-2.8,1c-8.5-0.6-12.1,5.4-15.7,11.5c-3.2,4.5-6.6,8.5-12.5,9.7c-1.9,0.4-3.2,2.2-4.6,3.6c-3.4,3.2-5.8,7.2-9.3,10.3c-5.6,5-11.6,9.2-19.1,10.9c-1.1-0.1-1.7-1-2.2-1.8C0.1,179.4,0.1,178.8,0.1,178.1z"/>
<path class="mt-path-3" d="M185.1,144.1c-3.5,3.2-7.4,5.5-12.2,7c-6.9,2.1-10.4,8.9-14.8,14.1c-1.4,1.6-3,3-4.3,4.7c-3.1,3.7-6.8,6.4-11.7,7.1c-10.6,1.7-21.1,4.7-32.1,3c-0.3-0.2-0.4-0.4-0.3-0.5c0.1-0.2,0.2-0.3,0.3-0.3c4-1.4,5.2-4.2,5.1-8.4c-0.2-10.6-0.1-21.2,0-31.8c0-3.7,1.9-7.5-1-10.9c1.2-1.1,2.6-0.6,3.7,0.1c5.3,3.3,10.4,2.1,15.5-0.2c8.3-3.3,16.4-1.1,24.5,0.8c6.9,1.3,13.5,4.1,20.3,5.7c3.4,1.7,7.4,2.7,9.5,6.4C187.6,142.5,186.8,143.7,185.1,144.1z"/>
<!-- end interaction on -->

<path style="fill:#0D433E;" d="M400.1,169.1l-0.3,0.3l-0.4-0.1c-4.8,0.7-7.5-2.8-10.7-5.3c-4.2-3.4-6.3-9.1-11.9-11c-2.2-1.4-3.4-3.6-4.5-5.8c-1.9-3.9-5.1-5.8-9.1-6.9c-1.9-0.5-3.7-0.3-4,1.6c-1.3,6.2-6.1,10.1-9.3,15c-1.2,2-2.6,3.9-2.9,6.2c-0.6,4.1-2.8,6-6.8,5.9c-3.2,0.5-6.5,0.9-9.7,1.4c-7.3-2.9-11.3-9.5-16.3-15c-1.6,0.2-2.3-1.1-3-2.2c-2.2-3.7-5.6-5.8-9.5-7.2c-1.6-0.9-3-2-3-4.1c2.4-4.9,7.7-5.6,11.9-7.8c1.4-0.7,3.1-0.9,4.8-1.1c3.5-0.4,6.8,0.4,10.1,1.7c6.7,2.7,13.1-1.9,13.5-9.1c0.2-4.5-1.4-9.2,1.3-13.5c4.4,1.4,8.6,0.9,12.8-1c1-0.1,1.9,0,2.8,0.3c2.4,0.9,4.4,2.5,6.5,4c1,0.9,1.8,2,2.9,2.7c5.6,4.7,10.5,9.7,11.4,17.8c0.5,4.1,5.5,5.9,7.9,9.4c5,7.5,9.8,15.1,15.6,22C400.1,167.8,400.1,168.4,400.1,169.1z"/>
<path style="fill:#EBF6F8;" d="M200.2,47.1c1.3-1,2.6-2,3.9-3c2.4-1.6,4.4-3.6,6-6l0,0c1.4-2.9,2.1-6,3-9c3.7-6.8,7.2-6.6,13.7,0.4c2.7,2.9,5.4,5.7,8.2,8.5c10.4,4.7,16.7,14.3,25.3,21.1c1.6,1,3.1,2,4.7,2.9c2.5,1.6,4.4,3.9,6.5,6c1.6,1.6,1.6,3.1-0.4,4.5c-7.3-0.5-12.3-5.3-17.4-9.7c-3.9-3.4-8-6-13.5-5c-5.4,1.1-10.5,3.1-15.5,5.4c-2.1,1-4,2.1-6.9,0.3c3.6,6.1,10,9.3,10.8,16.2c-1.3,2.6-3.6,2.6-6,2.4c-5.3-1.5-10.1-4.1-15.1-6.5c-10.8-5.3-20.6-12.1-30.6-18.7c-2.7-1.8-5.8-3.6-9.3-1.4c-4.8,1.8-8.1,5.5-11.4,9.2c-0.9,0.5-1.9,1-2.7-0.1c-1.3-4.8-1.4-9.9-3.3-14.6c-0.4-2.6-1.7-5.2-0.9-8c3.1-5.5,3.7-5.9,9.4-4c10.6,3.5,21.5,5.8,32.1,9.5c1.7,0.6,3.5,1,5,2.2c2.7,1.2,4.2,5.6,8.3,3.3c2.3-0.2,3.6,1.9,4.7,2.4c-0.8-0.2-1.7-1.9-3.2-2.5c-0.8-0.3-1.6-0.4-2.3,0c-2.5,1.4-4.1,0-5.2-1.9C196.7,48.9,199,48.2,200.2,47.1z"/>
<path style="fill:#EBF6F8;" d="M361.9,116.2c-2-1.3-3.9-2.6-5.9-4c-0.2-0.3-0.4-0.6-0.7-0.7c-1.1-0.4-1.6-1.5-2.5-2.1c0.7,0.8,1.2,1.6,0.2,2.5c-1.2,0.4-2.6,0.6-3.6,1.4c-3.3,2.4-6.1,1.8-8.6-1.2c-7.5-3.6-15.3-6.7-21.7-12.3c-1.8-2.3-5.2-3.1-6.1-6.3c-0.5-5.3,1.9-10.3,2-15.5c1.4-1.6-0.4-6.9,4.8-4.1c0.4,0.3,0.7,0.7,0.9,1.1c1.5,2.5,2.3,5.4,4.4,7.6c3.6,2.5,3.9,2.4,4.7-1.8c0.5-2.8-0.3-7.2,5.2-5.6c2.2,3.1,4.8,5.7,8.7,6.6c0.9,0.2,1.2,1.1,1.3,1.9c1.9,3.3,4,6.5,6.3,9.5c1.9,3.3,3.8,6.6,5.7,9.9c2.1,3.5,3.8,7.3,5.6,10.9C363.1,114.8,364.3,116.2,361.9,116.2z"/>
<path style="fill:#A2DDF5;" d="M112.9,39c6.3-5.8,10.7-13.3,15.9-19.9c2.3-2.3,3.1-5.7,5.3-8l0,0c1.7-2.3,3.8-4.2,5.8-6.2c1-1,1.8-2.7,3.7-1.7c1.5,0.8,1.6,2.4,1.8,3.9c0.3,2.9-0.4,6,1.4,8.7c0.2,0.5,0.4,1,0.5,1.5c0.3,4.6,3.1,9,1.1,13.7c-3.3,3.9-7.6,6.8-10.1,11.5c-0.9,1.8-1.8,3.5-2.2,5.5c-0.6,1.9-2,3.2-3.4,4.5c-0.7,0.6-1.5,1.1-2.4,1.5c-3,1.1-5.8,2.5-8.4,4.3c-0.4,0.3-0.8,0.5-1.3,0.7c-1.2,0.5-2.4,0.9-3.7,0.4c-3.8-2.1-3.5-5.6-2.8-9.1C114.9,46.4,114.9,42.6,112.9,39z"/>
<path style="fill:#C5E8F3;" d="M100,97c-1.5,1.1-2.9,2.1-4.6,0.2c-7.1-7.5-14.4-7-22.3-0.8c-3.1,2.4-6.5,5.1-10.9,5.5c3.3-5.2,6.6-10.4,9.9-15.7c2-2.8,3.1-6.1,6-8.1c2-5.5,5.3-10.1,9.2-14.5c1.2-1.3,1.9-3,2.9-4.5c3.6-2.6,4.7-0.3,5.1,2.8c0.5,3.8,0,7.6,0.2,11.4c0.1,1.8-0.7,4.2,2.1,4.9c2.9-0.8,4.9-2.7,7-4.7c1.4-1.3,2.8-2.7,4.5-3.5c2-0.1,3.5-4,5.9-0.8c1,5.6,0.6,11.2,0.3,16.8c-0.2,1.2-0.7,2.4-1.8,2.9C108.8,91.2,104.8,94.8,100,97z"/>
<path style="fill:#F8FBFC;" d="M146.1,17.2c0-0.4-0.1-0.8-0.1-1.1c-2.7-4-1.1-8.7-1.6-13c-0.3-2.6,3.2-1.2,5-0.9c3.6,3.3,6.8,7.5,12.5,6.9c2.8,0.9,5.5,1.8,8.3,2.5c4,1.1,6,4.3,7.9,7.5l0,0c2,2.7,2.8,6,4.1,9.1c1.3,2,2.6,4,3.9,6c-0.3,2.6-2.1,1.4-3.4,1.2c-8-1.6-15.8-3.8-23.5-6.3c-3.3-1.1-6.6-2.1-10-2.5C147.4,23.7,147.5,20.2,146.1,17.2z"/>
<path style="fill:#B8E4F4;" d="M109.1,71.1c-1.3,1-2.6,2-3.8,3c-2.4,1.7-5,3.2-7.2,5.1c-3.4,3.2-3.5-0.6-3.7-2c-0.4-4.9-0.4-9.8-0.3-14.7c0.1-3-0.9-4.4-4-3.3c3.2-3.6,5.6-7.9,9.5-11c3-1.3,5.9-2.8,8.5-5c1.6-1.4,3.2-2.7,4.7-4.1c5.6,2.5,3,7.2,2.7,11.1c-0.3,3.5-1.4,6.9,2.6,9C117.8,65.1,113,67.7,109.1,71.1z"/>
<path style="fill:#EBF6F8;" d="M149.2,26.1c2.2-0.7,4.2-0.7,6.6,0.2c9.5,3.8,19.6,5.9,29.5,8.4c0.2,0,0.5-0.4,0.7-0.6c1.3,0.6,2.3,1.6,3,2.9c2,2.9,2.8,6.5,5.3,9.2c0.6,1,1.1,1.9,1.7,2.9c0.6,0.7,0.6,1.4,0,2.1c-9.1-4.2-18.9-5.7-28.3-9c-2.5-0.9-5.2-1.1-7.6-2.2c-4-1.8-7.6-2.5-10.2,2.2c-2.6-1.7-2.4-4.5-2.3-7C147.9,32,148.3,29,149.2,26.1z"/>
<path style="fill:#E1F1F5;" d="M335.1,75.1c-4.3,0-3.9,3.1-4,5.9c0,2.2,0.2,4.7-2.3,5.4c-2.2,0.6-3.3-1.7-4.4-3.2c-1.4-2.7-2.4-5.6-4.3-8.1l0,0c-5.5-3.2-4.8-8.1-3.1-12.9c1-3,0-6.3,2-9c4-0.1,3.8,4.3,6.2,5.9l0,0c0.8,2.7,2.3,4.9,4,7.1C331.1,69.1,333.1,72.1,335.1,75.1z"/>
<path style="fill:#97D9F5;" d="M297.2,67.9c1.7-3,2.8-6.3,5.4-8.8c3.2-1.2,6.5-1.9,9.5-3.5c1.2-1.2,2.4-2.3,3.7-3.5c1.9-0.8,2.8-0.3,2.6,1.8c-0.4,4.9-0.5,9.9-2.5,14.5c-5.9,1.6-11.5,4.9-18,2.8C296.5,70.4,296.8,69.1,297.2,67.9z"/>
<path style="fill:#2C5249;" d="M297.2,67.9c0,0.7,0,1.5,0,2.2c-1.1,5.1-4.2,9.1-6.9,13.3c-0.7,0.4-1.4,0.5-2.2,0.5c-3.7-1.8-6.9-4.1-7.3-8.7c0.4-0.5,0.8-0.5,1.2-0.1c5.1,0,8.8-3.3,12.6-6C295.5,68.6,296.3,68.2,297.2,67.9z"/>
<path style="fill:#BEC1C3;" d="M260.3,59.1c-0.5-0.1-1.1,0-1.4-0.2c-7.8-7.1-15-15-23.9-20.8c7.1,2.5,12.4,7.4,17.4,12.8C255,53.7,257.7,56.4,260.3,59.1z"/>
<path style="fill:#97B4BF;" d="M315.2,68.2c2.8-4.6,1.3-10,2.4-14.9c0.2-1-1.1-1-1.9-1.1c1.4-1.5,2.9-1.1,4.3,0c0.5,0.4,0.5,0.9,0,1.3c-1,5.1-1.9,10.2-3,15.3c-0.7,3.1,3.1,3.8,3.1,6.4c-3.4-3.1-2.7,1.2-3.9,2.1c-0.2-0.2-0.4-0.4-0.6-0.5C314.8,73.9,313.7,71.1,315.2,68.2z"/>
<path style="fill:#9FB5BE;" d="M149.4,2.1c-2.6-0.1-5.2-1.2-4.2,3.8c0.6,3.1,0.2,6.7,0.7,10.1c-3.5-2.2-1.4-5.7-1.9-8.6c-0.2-1.3,0.3-2.9-1.1-3.5c-1.5-0.6-2.2,1.1-3.1,1.9c-2,1.7-3.4,4.1-5.8,5.3c3.1-4.8,5.9-10,12.7-10C147.8,1,148.8,1.3,149.4,2.1z"/>
<path style="fill:#ABB9BF;" d="M282.1,75.1l-0.3,0.2l-0.4-0.1c-2.5,0.5-2.5-1.8-3-3.1c-1-2.7-2.1-3.3-4-0.8c-0.8,1-1.6,2.2-3.2,2c-0.3-0.3-0.4-0.5-0.3-0.8c0.1-0.3,0.2-0.4,0.2-0.4c1-1.6,0.9-2.9-0.7-4.3c-2-1.8-3.7-3.8-5.5-5.7c1.9-0.1,2.9,1.4,4,2.5c2.1,1.9,3.7,4.6,7.3,1.8c1.6-1.3,2.9,0.6,3.6,2.3C280.7,70.8,281.4,73,282.1,75.1z"/>
<path style="fill:#B7BEC0;" d="M196.1,51.1c0-0.7,0-1.4,0-2.1c1.6-0.2,2.3-2.2,4.1-1.9c-0.4,1.5-3.1,2.4-1.2,4.6c1.7,2,3,0.9,4.5-0.2c0.9-0.7,1.8-0.2,2.5,0.7c-0.1,1.2-1.3,1.3-2,2C200.3,56.2,198.6,52.7,196.1,51.1z"/>
<path style="fill:#BDC1C2;" d="M178.1,19.1c-3.6-6.3-10.5-7.2-16.2-10.1C168.7,10.3,175.9,10.6,178.1,19.1z"/>
<path style="fill:#BBBEC0;" d="M361.9,116.2c1.1-3.1-1.6-4.9-2.5-7.3c-0.7-2-2.3-3.6-2.4-5.8c3.9,4.3,5.9,9.7,8.1,14.9C363.9,117.8,362.6,117.5,361.9,116.2z"/>
<path style="fill:#C0C3C4;" d="M351.4,93.1c-3-2.6-5.3-5.6-6.3-9.5C347.9,86.4,350.1,89.4,351.4,93.1z"/>
<path style="fill:#BDC1C3;" d="M194.4,46.1c-3.2-2.2-4.2-5.7-5.3-9.2C192,39.4,193,42.9,194.4,46.1z"/>
<path style="fill:#BDC0C1;" d="M182.2,28.1c-2.5-2.5-3-5.9-4.1-9.1C181,21.4,182.2,24.5,182.2,28.1z"/>
<path style="fill:#B1BCC0;" d="M78.1,78.1c-2.1,2.7-3.3,6-6,8.1C73.1,82.8,74.2,79.5,78.1,78.1z"/>
<path style="fill:#9EB5BF;" d="M134.1,11.1c-1.2,3-2.3,6.2-5.3,8C130.2,16.2,131,12.9,134.1,11.1z"/>
<path style="fill:#9DB2BC;" d="M312.1,55.6c-2.6,2.6-6,3.2-9.5,3.5C305.4,57,308.7,56.2,312.1,55.6z"/>
<path style="fill:#A8B9C0;" d="M108.1,43.1c-1.9,3.2-5.1,4.3-8.5,5C102,45.7,105,44.3,108.1,43.1z"/>
<path style="fill:#BFC2C3;" d="M213.1,29.1c0,3.4-0.7,6.5-3,9C210.4,34.9,211.2,31.8,213.1,29.1z"/>
<path style="fill:#BCC0C1;" d="M210.1,38.1c-0.8,3.2-2.8,5.2-6,6C205.8,41.7,207.7,39.7,210.1,38.1z"/>
<path style="fill:#C0C4C6;" d="M320.1,53.4c0-0.4,0-0.8,0-1.3c2.5,1.7,4.2,4.1,5.1,7C322.5,58,321.8,55.2,320.1,53.4z"/>
<path style="fill:#BBC0C1;" d="M329.1,66.1c-2.7-1.6-4-4-4-7.1C327,61.1,328.2,63.5,329.1,66.1z"/>
<path style="fill:#5E7D48; stroke: rgb(108, 140, 71); stroke-width: 3px;" d="M302.1,145.1c6.2,0.8,8.8,5.7,12,10.2c-0.8,4.1-4,3.1-6.3,2.4c-4.1-1.3-8-3.1-12-4.7c-4.3-1.7-8.1-1.1-11.4,2.3c-4.2,4.6-9.6,6.1-15.9,5.6c0,3.2,6.7,4.9,2.9,8.5c-2.1,1.9-5.9,1.9-8.7-0.8c-1.4,6.6-2.9,7.3-9.5,6.4c-9.3-1.2-18.8-1.5-28.1-3.1c-6.7-1.2-13.9-0.9-19.3-7.2c-4.7-5.5-11.7-5.8-18.5-3.6c-6,2-11.8,4.3-17.9,6c-4,1.2-8,0.8-11.4-2.1c1.9-6.5,6.5-11,12-14c5-2.7,10.3-4.8,15.2-7.6c11.7,1.9,23.6,0.8,35.2,3.2c2,0.4,3.6-0.3,5-1.6c1.4-1.2,2.7-2.7,4.5-3.1c4.1-1,4.9-3.9,4.6-7.5c1.6-1.7,2.7-0.3,3.7,0.8c0.4,2.8,1.8,5,3.9,6.7c4.2,3.4,9,6.2,12.4,10.5c0.5,0.4,1-0.6,0.6-0.1c-0.1,0.1-0.2,0-0.4-0.3c-0.9-0.9-1.3-1.9-1-3.2c3-5.1,7.3-8.9,12.2-12.2c1.9,0.5,3.4,1.8,5,3c0.4,0.5,0.1-0.2,0.3,0.3c4,8.9,11.5,8.8,19.3,7.4C294.5,146.8,298.6,147.6,302.1,145.1z"/>
<path style="fill:#557448; stroke: white ;stroke-width: 3px;" d="M110.1,179.1c0,0.3,0.1,0.6,0,0.8c-5.6-0.3-11.1-0.7-16,3.3c-2.9,2.3-6.5,1-9.6-0.3c-4.5-1.9-8.9-2.3-13.5-0.1c-2.3,1.1-4.9,1.3-7.4,0.7c-6.7-1.5-13.2-1-19.7,1.1c-2.1,0.7-5,2-5.7-2.2c-0.4-2.1-1.9-0.8-2.7-0.5c-3.5,1.2-6.8,2.7-10.3,3.8c-2.6,0.9-5.1,1.3-7.1-1.5c-1.6-2.2-4.4-2-6.8-2.3c-3.1-0.3-6.3,0.6-9.3-0.9c10-3.4,18.2-9.3,24.5-17.7c1-1.3,2.3-2.3,3.5-3.5c5.2,1.7,10.3,1.6,15.6,0.2c4.2-1.1,8.6-0.8,12.6,1.5c2.7,1.6,5.7,1.5,8.7,1.9c9.1,1.2,18.2,1.8,27.3,2.4c2.1,2.3,3.2,5.2,3.6,8c0.6,4.1,2.5,5.3,6.3,4.9C106.1,178.8,108.1,179.1,110.1,179.1z"/>
<path style="fill:#1A514B;" d="M133.1,129.1c-5.2,3-10.5,3.9-15.8,0.1c-0.9-0.6-2.1-0.8-3.2-1.2c-4.3-3.8-8.9-7.2-13-11.3c-2.2-2.2-2.6-4.2-1.8-7c1.2-4.2,1.2-8.5,0.7-12.8c3.7-4.8,9-7.2,14.3-9.6c5.3-3.2,10.5-6.8,17.1-6.2c1.7,2.4,1.2,5.1,1.3,7.7C132.9,102.3,132.2,115.7,133.1,129.1z"/>
<path style="fill:#638247;" d="M94.2,166c-1.1,1.5-2.7,1.1-4.1,1.1c-10.1-0.4-20.5-0.2-30-3.4c-7.3-2.5-13.6-2.6-20.7-0.8c-3.3,0.8-7,0.4-9.4-2.9c1.1-1.7,2.4-3.6,4.3-3.9c5.8-0.9,9.1-5,12.5-9c5.4-1.2,10.8-0.5,16.1,0c5.1,0.5,10.1,1.4,15.1,0C84.3,152.7,90.6,158.2,94.2,166z"/>
<path style="fill:#6E8D47;" d="M78.1,147.1c-2.7,2.9-5.9,3-9.5,2c-7.1-2-14.6,0-21.7-2.1c1.2-3.3,3.5-5.9,5.6-8.6c1.7-2.2,4-3.5,6.9-3.1c2.6,0.3,4.9-0.4,7-1.9c3-2.1,5.3-0.9,7,1.8C75.9,138.8,77.1,143,78.1,147.1z"/>
<path style="fill:#567548;" d="M377.1,152.2c3.3,0.3,5.2,2.4,7.1,4.9c4.1,5.2,8.4,10.2,15.2,12.2c-3.5,2-8.1,1-11.3,3.9c-0.2,0.2-0.7,0.1-1,0c-3.9-1-7.5-1.6-11.8-1.5c-5.5,0.2-11.5-0.5-17.1-0.5c-6.2,0-12.2-0.3-18-2.3c3.3-0.7,5-2.4,5.4-6.1c0.3-2.4,1.6-4.9,3.6-6.8c4.1-0.4,8.2-0.5,12.1-2.1c1.6-0.7,3.2,0.1,4.8,0.4C370,155,373.9,155.4,377.1,152.2z"/>
<path style="fill:#336053;" d="M314.1,94.1c1.7,2,4.7,2.4,5.8,5.1c-0.5,9.6-0.2,19.1-0.3,28.7c0,3.2-0.5,6-4.5,6.3c-6,1.4-11.5,3.6-16,8c-3.5-0.4-4.1-3.7-5.9-5.7c-1.1-2.5-3.2-4.6-2.5-7.7c3.5-8.6,6.3-17.3,8.1-26.4c1.1-5.6,3.9-10.5,5.5-15.8c5-1.2,6.6,2.7,8.8,5.8C313.4,92.9,313.6,93.6,314.1,94.1z"/>
<path style="fill:#1F544D;" d="M315.1,134.1c2.2-1.1,3.2-2.7,3.1-5.4c-0.2-8.1-0.1-16.2-0.1-24.3c0-1.9-0.4-4.1,1.8-5.3c4.9,3.8,10.3,6.9,16,9.4c1.9,0.8,4,1.5,4.9,3.6c-1.7,4.5-1,9.3-0.6,13.8c0.5,5.7-8.6,14.2-14.7,10.4C322.4,134.3,318.8,133.8,315.1,134.1z"/>
<path style="fill:#698847;" d="M377.1,152.2c0.6,1.2,0.7,2.5-0.9,2.7c-9,1.1-18,1.7-27.1,1.2c3.3-5.2,8.1-9.5,9.3-15.9c0.2-1.2,1.6-2.8,2.9-2c3.7,2.1,8.9,1.4,10.9,6.5C373.4,147.4,375.5,149.7,377.1,152.2z"/>
<path style="fill:#648347;" d="M294.2,136c1.6,2,3.3,4,4.9,6c1,1,2,2,3,3c-0.1,1.7-1,3-2.8,2.9c-4.2-0.4-8.4,0.4-12.3,1.3c-8.8,2-13.5-2-16.9-9.2c1-1.6,2.5-2.1,4.2-2.2C281,137.3,287.5,136.2,294.2,136z"/>
<path style="fill:#B7BFC1;" d="M353.1,112c0.5-2.1-2.1-2.7-2.4-4.9c2.5,1.3,4.2,3,5.3,5.2C355,112.2,354,112.1,353.1,112z"/>
<path style="fill:#174F4A;" d="M167,54.9c1.5-2.9,3.8-1.9,6-1.3c4.2,1.3,7.6,4,11.1,6.5c11.8,8.6,24.6,15.3,38,20.9c-0.7,5.7-0.3,11.4-1,17.1c-5,7.8-11,15.1-15.4,23.4c-2.6,1.7-4.5,4.6-7.9,5.2c-6.7-3.8-10.2-10.1-12.7-17c0.2-6.6-2.6-12.1-5.8-17.6c-2.6-4.4-4.8-9.1-3.9-14.5c0.4-2.3-0.6-4.3-2-6C169.5,66.7,168.6,60.7,167,54.9z"/>
<path style="fill:#376354;" d="M167,54.9c2.3,1.7,3.5,3.7,3.2,6.7c-0.4,4.2,3.4,6.6,5,9.9c1.2,2.5,2.1,4.6,1.6,7.5c-0.9,4.9,1.6,9.1,4,12.9c3.5,5.6,6.3,11.3,5.4,18.1c1,6.6-3.4,11.9-4.7,17.9c-0.6,2.5-1.2,5.2-3.3,7.1c-3.1,1.3-5.4-1.2-8.2-1.7c-4-0.7-7.9-2.2-11.8-3.3c-4.1-1.1-4.5-4.3-4.5-7.8c0-15.6,0.2-31.3-0.1-46.9c-0.1-4.1,0-7.9,2.6-11.3C158.5,59.6,162.3,56.7,167,54.9z"/>
<path style="fill:#27594F;" d="M156.1,64.1c-1.9,8.1-0.8,16.2-0.9,24.4c-0.2,11.6,0,23.3-0.1,34.9c0,2.9,0.5,5.2,3.1,6.7c-8.3-1.6-16.5-3.9-25-1c-3.1-0.6-1.9-3.1-2-4.9c-0.1-12.7,0-25.3-0.1-38c0-1.7,0.7-3.7-1-5.2c0-2.5,2.4-2.6,3.8-3.7c6.5-3,10.7-9.4,17.6-11.7c0.8-0.4,1.7-0.6,2.7-0.5C154.8,64.8,155.4,64.4,156.1,64.1z"/>
<path style="fill:#2B5B50;" d="M220.1,99.1c0-3.8,0.1-7.5,0-11.2c-0.1-2.6,0.4-4.8,2.1-6.8c2.2-0.1,5,1.2,6.2-2c2.6-5.4,4.5-11.1,7.1-16.5c1.1-2.3,2.4-4.3,4.6-5.7c6.4-2.2,10.6,1.7,14.8,5.3c4.9,4.3,10,8,16.3,9.9c0,0.3,0,0.6,0,0.9c-0.3,2-1.7,3.2-3.2,4.3c-7.3,5.3-12.3,13-19.4,18.5c-1.6,1.2-2.5,2.9-3,4.8c-7.4,2.1-15,0.1-22.4,0.6C221.8,101.3,220.6,100.5,220.1,99.1z"/>
<path style="fill:#1F4B43;" d="M240.1,56.9c-3.3,5.3-5.8,11-8,16.8c-0.8,2-1,4.6-3.7,5.4c-4.3-5.5-8.7-11-13-16.5c5.9,3.2,10.1-1.4,14.8-2.8C233.4,58.8,236.5,57,240.1,56.9z"/>
<path style="fill:#A2BCC6;" d="M149.2,26.1c0,5.4-0.9,10.8,0.8,16c0.4,2.6,0.8,5.2,1.2,7.8c-0.2,0.1-0.5,0.2-0.7,0.4c-3.5-3-3.2-7.3-3.8-11.3c-0.1-2.7,0.3-5.3,0.4-8c2.2-3.3-0.1-6.3-0.4-9.5c-0.1-1.4-0.6-2.9-0.5-4.3C148,19.9,148.7,23,149.2,26.1z"/>
<path style="fill:#9CBAC6;" d="M154.1,65.2c-0.3,0.9-1.2,0.9-1.9,1c-1.9-5.2-3.3-10.5-1.1-16c0,0,0.2-0.2,0.2-0.2C153.6,54.7,154,59.9,154.1,65.2z"/>
<path style="fill:#B3BCBF;" d="M204.1,54.1c0.4-0.9,1-1.6,2-2c2.3,1.6,4.3,3.6,6.5,6.8C209,57.3,207.1,54.7,204.1,54.1z"/>
<path style="fill:#9FB9C2;" d="M314.1,94.1c-0.4-0.3-0.7-0.6-1.1-0.8c-2.6-5.2-0.4-10,1.1-14.9c0.4-0.8,0.9-1.5,2-1.3c0,0,0.1,0.2,0.1,0.2C316.8,83,314,88.4,314.1,94.1z"/>
<path style="fill:#B4BDBF;" d="M330.6,88.7c3.1,0.7,4.6,2.8,5.7,6.9C333.8,92.7,332.2,90.7,330.6,88.7z"/>
<path style="fill:#B3BDBF;" d="M320.1,75.1c2.8,2,4.1,4.8,4.3,8.1C321.9,81,321,78,320.1,75.1z"/>
<path style="fill:#B8C1C3;" d="M343.5,101.6c-2.3-0.5-3.7-2.1-5.6-4.7C341,98,342.2,99.9,343.5,101.6z"/>
<path style="fill:#9DDCF6;" d="M151.1,50.1c0,5.4,1.6,10.6,1.1,16c-6.7,3-11.1,9.4-18,12.1c-1.6-0.9-2.2-2.5-2.3-4.1c-0.3-7.4-0.8-14.7,0.2-22.1c1-1.3,2-2.6,3-3.8c2.3-6.3,5.9-11.6,11.5-15.6c1.9,2.2,0.1,4.6,1.5,6.4C148.3,43,149,46.8,151.1,50.1z"/>
<path style="fill:#AFE1F4;" d="M132.1,52.1c1.8,3.6,0.8,7.4,1,11.1c0.3,5-0.7,10.1,1.1,15.1c-1.4,0.9-2.7,1.9-4.1,2.8c-5.2,2.4-10.2,5-15.8,6.3c0-6.5-0.1-12.9-0.1-19.4c1.3-4,3.4-7.6,7-9.9l0,0c2.8-2,6.3-3,9.1-5C130.8,52.8,131.5,52.4,132.1,52.1z"/>
<path style="fill:#82AFC1;" d="M148.1,39.1c-1.7-1.4-0.4-3.5-1.3-5.4c-6,3.3-8.1,9.5-11.7,14.6c1-7.8,6.6-12.5,12-17.3C149.1,33.5,147.6,36.4,148.1,39.1z"/>
<path style="fill:#8FB1BE;" d="M121.1,58.1c-2.3,3.3-4.7,6.6-7,9.9c-1.8,0.8-2.7,3.1-5,3.1c3.2-3.8,6.7-7.5,9-12C119.1,58.8,120.1,58.4,121.1,58.1z"/>
<path style="fill:#8CB1C0;" d="M130.2,53.1c-2.4,2.8-5.7,4-9.1,5C123.5,55.3,126.8,54.1,130.2,53.1z"/>
<path style="fill:#99B4BE;" d="M98.1,79.2c1.6-2.8,4.2-4.2,7.2-5.1C103.5,76.7,100.9,78.1,98.1,79.2z"/>
<path style="fill:#A5DEF5;" d="M316.1,77.1c-0.4,0.4-0.7,0.7-1.1,1.1c-0.4,0.5,0.2-0.1-0.2,0.4c-3.7,4.8-19,8-24.4,5.2c-0.1-0.2-0.2-0.5-0.3-0.8c1.9-4.6,4.1-9,7.2-13c3.8,1.7,7.2,0.1,10.9-0.8c2.3-0.5,4.6-1.7,7.2-1.2C316.1,71.1,316.2,74.1,316.1,77.1z"/>
<path style="fill:#A3DDF5;" d="M246.1,99.2c-3.2-0.7-0.5-2,0-2.4c7.1-6.2,12.7-13.8,20.2-19.5c1.7-1.3,3.2-2.8,4.8-4.2c2.6-1.2,3-5.7,5.9-5.3c2.9,0.5,2.1,4.7,3.7,6.9c0.2,0.3,0.5,0.4,0.8,0.6c0.9,3.8,4.6,5.2,6.6,8c1.3,1.8,0,3.2-1.3,3.4c-4.1,0.6-6.3,4.1-9.5,6c-3.7,0.6-6.8-1.1-10-2.5c-4-1.7-7.3-0.5-10.3,2.4c-1.4,1.4-2.7,2.8-4.2,4.2C250.6,98,248.8,99.9,246.1,99.2z"/>
<path style="fill:#87ABB9;" d="M277,92c2.6-2.8,4.7-6.3,9.3-6.2c1.2,0,1.7-1.4,1.7-2.6c0.7,0,1.3-0.1,2-0.1c0,0,0.5,0.1,0.5,0.1c0.2,1.8-0.5,3.7-2.1,4.1c-3.8,1-6.5,3.9-10,5.3C277.8,92.6,277.4,92.4,277,92z"/>
<path style="fill:#2C5C51;" d="M252,96.1c1.9-2,3.8-4,5.8-5.8c2.8-2.5,5.9-3.4,9.3-1.1c1.1,4.8,2.2,9.5,4.8,13.7c0.5,0.9,0.8,1.8,0.7,2.8c-0.1,5.1-1.2,10.3,1.7,15.1c-3.5,3.7-5.4,8.1-6.4,13c-0.3,1.3-0.7,2.5-1.9,3.3c-4,4-7.9,8-11.9,12c-2-0.6-2.7-2.4-3.4-4c-2.1-4.5-4.9-7.9-10.4-7.9c-0.8,0-1.6-0.4-2.1-1.2c-1-0.7-2-1.3-3-2c-2.6-2.2-3.3-5.3-3.8-8.5C236.4,114.4,244.8,105.6,252,96.1z"/>
<path style="fill:#6C8C47;" d="M232.3,125c1,3,1.9,6,2.9,9c0.1,0.6,0.1,1.4,0.4,1.9c1.6,3.2,1.3,5.5-2.7,6.3c-1,0.2-2.2,0.4-2.7,1c-6.7,8.7-15.2,3.2-23,2.9c-6.4-0.3-12.9,0.5-19.3-1.1c-1-0.2-2-0.1-2.7-1c0.7-1,1.4-2,2-3c2.7-5.7,5.6-11.3,10.9-15.1c2.4-1.6,4.2-4.1,7.1-5c5.9-1.3,11.6-3,17.2-5.5C226.7,113.6,231.3,118.4,232.3,125z"/>
<path style="fill:#6D8C47;" d="M266,137c0.6-4.2,1.8-8.3,3.4-12.1c0.8-1.9,2.2-3.6,4.6-3.9c4.8,0.4,9.5,1.7,13.9,3.7c1.8,0.8,3.2,2.3,3,4.6c1.1,2.3,2.1,4.5,3.2,6.8c-5.1,3.7-11.2,1.5-16.8,2.9c-2.3,0.6-4.9,0.5-7.3,1.1C268.6,139.3,266.8,138.8,266,137z"/>
<path style="fill:#6C8C47;" d="M238.2,136c10.1-1.5,12.6,6.3,15.9,13c0,1.4,2.7,2.8,0.4,4.2c-2,1.2-2.3-1.2-3.1-2.2c-3-4.3-8.7-5.4-11.6-9.7C238.8,139.7,236.2,138.6,238.2,136z"/>
<path style="fill:#24564E;" d="M198,126.1c-3.6,5-7.3,10-10.9,15.1c-3-2-6-4-9-6c1.6-8.7,5.8-16.5,8-25C189.3,116,192.5,121.9,198,126.1z"/>
<path style="fill:#557448;" d="M64.9,159.1c-1.2,2-1.9,3.5-3.9,3.5c-0.2,0-0.7-0.8-0.6-1.1C60.9,159.6,62.7,160,64.9,159.1z"/>
<path style="fill:#174F4A;" d="M291,129.2c-2.3-3.2-5-5.6-9.4-5.1c-3.1,0.4-4.7-2.8-7.5-3.2c-2-1-3.5-2.2-3-4.8c0.7-3.7-1.3-7.8,1.3-11.3c2.2-3.3,6.2-3.6,9.2-5.6c5.8-3.9,11.6-7.8,16.9-12.4c1.9-1.7,4.1-3,6.6-0.6c-3.5,10.2-5.3,20.9-9.4,31C294.1,121.2,295.4,126.3,291,129.2z"/>
<path style="fill:#B1E1F3;" d="M305.1,86.3c-2.6-0.6-4.5,0.4-6.5,2.1c-7.9,6.8-16.3,12.8-26.2,16.5c-0.4-0.6-0.9-1.2-1.3-1.8c0.4-4.9,3.2-8.2,6.9-11c2.9-4.7,9.7-3.9,12.4-8.9c8.9,1.6,16.8-1,24.5-5c-0.5,5-2.6,9.9-1.9,15.1C310.4,91,308.6,87.7,305.1,86.3z"/>
<path style="fill:#285044;" d="M232.3,125c-0.6-1-1.1-2-1.7-3c-3.9-6.7-6.3-7.5-12.6-3c-4.1,2.9-8.5,2-12.9,2.1c3.9-8.1,8.5-15.6,15-21.9c8.7,1,17.3,1.7,26,0.1c2-1.1,4-2.1,6-3.2c-0.2,3.3-2.9,5.1-4.6,7.5C242.3,110.6,236.8,117.5,232.3,125z"/>
<path style="fill:#224C44;" d="M278,92.1c-2.3,3.7-4.6,7.3-6.9,11c-3.5-3.6-3.1-8.9-5.3-13c-0.3-0.6,0.7-0.9,1.4-1c3.3,0.9,6.3,2.7,9.9,2.9C277.4,92,277.7,92.1,278,92.1z"/>
</svg>