<svg version="1.1" id="building" xmlns="http://www.w3.org/2000/svg" x="0px" y="0px" viewBox="0 0 317 207.8" >
<style type="text/css">
.building-data {fill:none;}
.rect{
width: 31px;
height: 114px;
position: absolute;
y: 62px;
x: 221px;
}
</style>
<rect class="rect"> </rect>

<path class="building-data" d="M293.5,0H102.9c-1.7,35.4-10.8,68.9-27.3,100.3c-7.9,24.3-19.3,46.6-34.2,66.9c1.1,1.1,2,2.4,2.7,4c1.7,3.9,2.5,8.1,3.2,12.3c0.1,0.9,0.3,1.7,0.4,2.7h3.8v-11.2h9.4v-9h10.3v9h7.4c0-0.6,0.1-1.1,0.1-1.6c0-17.7,0-35.4,0-53c0-1,0.2-1.6,0.9-2.3c2.4-2.4,4.8-4.8,7.2-7.2c0.4-0.4,0.7-1.1,0.8-1.6c0.2-2.1,0.3-4.3,0.4-6.4c0.1,0,0.2,0,0.3,0c0,2.2,0,4.4,0,6.5c0,0.5,0.3,1.1,0.6,1.4c2.3,2.4,4.7,4.7,6.9,7.1c0.6,0.6,1,1.4,1.7,2.4h14.3c0.7-1,1.2-1.9,1.9-2.6c2.2-2.3,4.5-4.5,6.6-6.8c0.4-0.4,0.7-1.1,0.7-1.7c0.2-2,0.2-3.9,0.4-5.9c0.1,2,0.2,3.9,0.4,5.9c0.1,0.6,0.3,1.2,0.7,1.6c2.4,2.5,4.8,4.9,7.3,7.3c0.6,0.6,0.8,1.2,0.8,2c0,17.8,0,35.6,0,53.4v1.5h5.2v-13.5h3.7v-3.4h7.3v3.3h10.9v7.9h5.8v5.7h9.1v-64c0.8,0,1.5-0.1,2.3-0.1V98c0.8,0,1.5-0.1,2.3-0.1v-2.9c0.2-0.1,0.3-0.2,0.3-0.2c1.7,0.3,2.6-0.8,3.7-1.9c2.7-2.7,3.4-5.8,3.4-9.5c0.2-13.8,0.7-27.6,1.1-41.3c0.1-3.6,0.2-7.2,0.5-10.7c0.1,2.9,0.2,5.9,0.3,8.8c0.3,11.9,0.7,23.8,1,35.7c0.1,3.9,0.2,7.8,0.3,11.6c0,0.8,0.3,1.6,0.8,2.3c0.9,1.4,2.1,2.5,3,3.9c0.6,0.9,1.4,1.4,2.5,1.2c0.3-0.1,0.6,0,1,0.1v3.1c0.7,0,1.3,0.1,2.1,0.1v12.7c0.8,0.1,1.5,0.1,2.3,0.2v50.4h7.5v13.6h4.3v-26.6h4.2c0.1-0.8,0.1-1.5,0.2-2.3h4.3c0,0.7,0.1,1.4,0.1,2.2h6.4v26.6h3V63.3c-2.4,0-4.7,0-7.1,0c-0.8,0-1.2-0.2-1.3-1.1c-0.4-2.2-0.9-4.4-1.3-6.6c-0.4-2-0.6-4-0.9-6.1c0-0.2,0-0.5-0.2-0.7c-1.2-1.4,0-1.6,0.9-2c3.3-1.4,6.7-2.9,9.9-4.3c0.1-1,0-2.1,0.4-2.7c0.5-0.6,1.6-0.6,2.4-0.8c1.1-0.3,2.5-0.4,3.1-1.1c0.5-0.7,0.2-2.1,0.2-3.3c0.1-8.5,0.2-17,0.2-25.4c0-2.2,0-4.3,0.2-6.5c0.1,10,0.2,19.9,0.3,29.9c0,1.5,0.1,3,0.1,4.4c0,0.7,0.2,1.1,1,1.2c1.4,0.3,2.7,0.8,4,1.1c0.8,0.2,1.3,0.6,1.1,1.5c-0.2,1.2,0.3,1.7,1.4,2.2c3.1,1.2,6.1,2.6,9.2,3.9c0.8,0.3,1.1,0.4,0.6,1.6c-0.8,1.8-1,3.9-1.4,5.9c-0.3,1.7-0.5,3.4-0.7,5c-0.2,1.2-0.2,2.8-0.9,3.4c-0.8,0.6-2.4,0.2-3.6,0.3c-1.4,0-2.9,0-4.4,0v100.7h7.1v-11h23.4v-38c0.8,0,1.5-0.1,2.3-0.1v-5.7h2.8c-0.5-3.5-0.9-7-1.4-10.5C275.7,64,281.2,31.1,293.5,0z"/>
<path d="M295.1,204.5c-2.4-6.9-4.7-14-6.7-21.2c-3.3-24.7-6.6-49.3-9.9-74h-2.8v5.7c-0.8,0-1.5,0.1-2.3,0.1v38h-23.4v11h-7.1V63.3c1.5,0,3,0,4.4,0c1.2,0,2.8,0.3,3.6-0.3c0.7-0.6,0.7-2.2,0.9-3.4c0.3-1.7,0.4-3.4,0.7-5c0.4-2,0.6-4.1,1.4-5.9c0.5-1.1,0.2-1.2-0.6-1.6c-3.1-1.3-6.1-2.7-9.2-3.9c-1.1-0.4-1.6-1-1.4-2.2c0.2-0.9-0.3-1.3-1.1-1.5c-1.4-0.3-2.7-0.8-4-1.1c-0.7-0.2-1-0.5-1-1.2c0-1.5,0-3-0.1-4.4c-0.1-10-0.2-19.9-0.3-29.9C236,5.1,236,7.3,236,9.4c-0.1,8.5-0.2,17-0.2,25.4c0,1.1,0.3,2.5-0.2,3.3c-0.5,0.7-2,0.8-3.1,1.1c-0.8,0.3-2,0.3-2.4,0.8c-0.5,0.6-0.3,1.7-0.4,2.7c-3.2,1.4-6.6,2.8-9.9,4.3c-0.9,0.4-2.2,0.6-0.9,2c0.1,0.2,0.1,0.5,0.2,0.7c0.3,2,0.6,4,0.9,6.1c0.4,2.2,0.9,4.4,1.3,6.6c0.2,0.9,0.5,1.1,1.3,1.1c2.3-0.1,4.7,0,7.1,0v111.5h-3v-26.6h-6.4c0-0.8-0.1-1.5-0.1-2.2h-4.3c-0.1,0.8-0.1,1.5-0.2,2.3h-4.2v26.6H207v-13.6h-7.5v-50.4c-0.8-0.1-1.5-0.1-2.3-0.2V98c-0.7,0-1.4-0.1-2.1-0.1v-3.1c-0.4,0-0.7-0.1-1-0.1c-1.1,0.2-1.8-0.3-2.5-1.2c-1-1.3-2.1-2.5-3-3.9c-0.4-0.6-0.7-1.5-0.8-2.3c-0.2-3.9-0.2-7.8-0.3-11.6c-0.3-11.9-0.7-23.8-1-35.7c-0.1-2.9-0.2-5.9-0.3-8.8c-0.3,3.6-0.4,7.2-0.5,10.7c-0.4,13.8-0.9,27.6-1.1,41.3c-0.1,3.7-0.7,6.8-3.4,9.5c-1.1,1.1-2,2.2-3.7,1.9c-0.1,0-0.1,0.1-0.3,0.2v2.9c-0.8,0-1.4,0.1-2.3,0.1v12.7c-0.8,0.1-1.5,0.1-2.3,0.1v64h-9.1v-5.7h-5.8v-7.9h-10.9v-3.3h-7.3v3.4h-3.7v13.5h-5.2v-1.5c0-17.8,0-35.6,0-53.4c0-0.8-0.2-1.4-0.8-2c-2.5-2.4-4.9-4.8-7.3-7.3c-0.4-0.4-0.7-1.1-0.7-1.6c-0.2-1.9-0.3-3.9-0.4-5.9c-0.2,2-0.2,3.9-0.4,5.9c0,0.6-0.3,1.2-0.7,1.7c-2.2,2.3-4.5,4.5-6.6,6.8c-0.7,0.7-1.2,1.6-1.9,2.6H97.5c-0.7-1-1.1-1.7-1.7-2.4c-2.3-2.4-4.7-4.7-6.9-7.1c-0.3-0.4-0.6-1-0.6-1.4c-0.1-2.2,0-4.4,0-6.5c-0.1,0-0.2,0-0.3,0c-0.1,2.2-0.2,4.3-0.4,6.4c-0.1,0.6-0.4,1.2-0.8,1.6c-2.4,2.4-4.8,4.9-7.2,7.2c-0.7,0.7-0.9,1.4-0.9,2.3c0,17.7,0,35.4,0,53c0,0.5-0.1,1.1-0.1,1.6h-7.4v-9H60.9v9h-9.4v11.2h-3.8c-0.1-0.9-0.3-1.8-0.4-2.7c-0.6-4.2-1.4-8.4-3.2-12.3c-0.7-1.6-1.7-3-2.7-4c-0.2,0.2-0.3,0.4-0.5,0.6c0.3,0.4,0.6,0.7,0.9,1.1c0.5,0.7,0.9,1.4,1.3,2.2c2.3,4.7,3,9.8,3.7,15c-1.1,0.4-1.1-0.3-1.3-0.9c-0.8-3.9-1.7-7.9-2.6-11.8c-0.2-0.7-0.6-1.4-0.9-2.1c-0.5-1-1.1-1.9-1.8-2.6c-0.2,0.2-0.3,0.4-0.5,0.7c0.3,0.4,0.5,0.9,0.4,1.4c-0.3-0.3-0.5-0.6-0.8-0.9c-0.1,0.2-0.3,0.4-0.4,0.6c0.3,0.3,0.6,0.6,0.9,0.9h-1.6c-0.2,0.3-0.5,0.6-0.7,0.9h1.6c-0.7,0.7-1.5,1.5-2.3,2.3c-0.2-0.2-0.4-0.4-0.6-0.6c-0.2,0.2-0.4,0.4-0.5,0.7c0.2,0.3,0.5,0.6,0.7,0.8c-0.6,0.6-1.4,1.4-2.3,2.3v-1.1c-0.3,0.4-0.6,0.7-0.9,1.1v0.3c0,0-0.1-0.1-0.1-0.1c-0.4,0.5-0.8,0.9-1.2,1.4h0.7c-0.8,0.6-1.5,1.2-2.2,1.8c-6.4,7.5-13.3,14.7-20.7,21.6c-0.6,0.6-1.2,1.2-1.8,1.9h202.2v-18.2h12.2c0.2-0.2,0.2-0.3,0.2-0.3c0.2-1.8,0.2-1.8,2.1-2.1c0.6-0.1,1.3,0.2,1.5-0.8c0-0.1,0.6-0.2,0.9-0.3c2.1-0.1,3.6-1.3,5.3-2.5c0.8-0.6,1.3-1.3,1.9-1.9c1.3-1.3,3.1-1.1,4.4,0.5c0.3,0.4,0.9,0.7,1.5,1.3c0.2,0.2,0.4,0.7,0.8,0.9c1.4,0.7,2.8,1.3,4.2,1.9c0.2,0.1,0.6,0.1,0.7,0.2c0.4,1.1,1.2,0.8,2,0.8c1.6,0,1.6,0,1.8,1.9h11.7v18.6H295.1z M27.6,192.4c0.7-0.7,1.4-1.2,2.1-1.8v1.8H27.6z M29.7,193.3v2.1c-0.8-0.8-1.4-1.4-2.1-2.1H29.7z M23.3,189.9c0.7,0.7,1.6,1.5,2.5,2.5h-5.2C21.5,191.5,22.4,190.6,23.3,189.9z M25.8,193.3c-0.9,0.9-1.7,1.7-2.5,2.5c-0.8-0.8-1.7-1.7-2.5-2.5H25.8z M14.1,199c0.7-0.7,1.4-1.3,2.2-2c0.5,0.5,1.1,1.2,1.9,2H14.1z M19.2,199.1c-1-1-1.8-1.9-2.7-2.8c0.9-0.8,1.8-1.6,2.7-2.3V199.1z M20.2,193.8c0.9,0.9,1.7,1.7,2.5,2.5c-0.8,0.7-1.6,1.5-2.5,2.3V193.8z M21.2,198.9c0.8-0.6,1.6-1.3,2.5-2c0.4,0.4,1.1,1.1,2,2H21.2z M26.3,198.9c-0.9-0.9-1.7-1.8-2.5-2.6c0.8-0.7,1.6-1.6,2.5-2.4V198.9z M26.3,192c-0.9-1-1.7-1.9-2.6-2.8c0.8-0.8,1.6-1.6,2.6-2.6V192z M27.2,186.8c0.8,0.9,1.6,1.7,2.4,2.5c-0.8,0.7-1.7,1.5-2.4,2.1V186.8z M27.5,186.3h2.2v2.1C29,187.7,28.3,187.1,27.5,186.3z M29.7,199h-1.6c0.5-0.5,1-1,1.6-1.6V199z M27.2,198.9V194c0.8,0.8,1.6,1.6,2.5,2.5C29,197.2,28.1,198,27.2,198.9z M27.6,185.3c1-0.9,1.9-1.6,2.7-2.3c0.6,0.6,1.4,1.5,2.2,2.3H27.6z M33.3,184.8c-0.8-0.9-1.7-1.8-2.5-2.7c0.7-0.7,1.6-1.5,2.5-2.5V184.8z M44.2,181.8c-0.8-0.9-1.5-1.7-2.2-2.5C44.1,179,44.2,179.2,44.2,181.8z M43.3,176.7c0.1,0.6,0.2,1.1,0.3,1.6h-1.9C42.3,177.8,42.7,177.3,43.3,176.7z M37.5,175.8c0.7,0.7,1.5,1.5,2.4,2.5h-5.1C35.6,177.5,36.5,176.7,37.5,175.8z M39.7,179.3c-0.8,0.9-1.6,1.7-2.5,2.6c-0.8-0.8-1.6-1.7-2.4-2.6H39.7z M34.2,179.9c0.8,0.9,1.5,1.7,2.3,2.6c-0.6,0.6-1.4,1.4-2.3,2.4V179.9z M35.1,185.3c0.7-0.7,1.5-1.5,2.3-2.3c0.6,0.6,1.4,1.4,2.3,2.3H35.1z M40.3,184.7c-0.8-0.8-1.6-1.7-2.4-2.5c0.7-0.7,1.6-1.5,2.4-2.4V184.7z M40.4,177.7c-0.8-0.9-1.6-1.7-2.5-2.6c0.7-0.6,1.6-1.5,2.5-2.3V177.7z M41.2,177.2c0-1.5,0-2.9,0-4.6c2.2,1.6,2.2,3.7,0.1,5.2C41.3,177.5,41.2,177.3,41.2,177.2z M41.3,179.8c0.8,0.9,1.6,1.8,2.4,2.7c-0.6,0.6-1.4,1.4-2.4,2.3V179.8z M42,185.2c0.8-0.8,1.6-1.6,2.5-2.5c0.1,0.8,0.3,1.6,0.4,2.5H42z M87.1,118.7h-6.3c2-2,4.2-4.2,6.3-6.2V118.7z M88.6,118.7v-6c2,2,4.1,4.1,6,6H88.6z M120.7,118.7h-6.2c2-2,4.1-4.1,6.2-6.2V118.7z M122.2,118.8v-6.2c2.1,2.1,4.1,4.2,6.2,6.2H122.2z"/>
<path class="building-data" d="M210.3,204.5c0-6,0-12,0-18.2c4.2,0,8.3,0,12.2,0c0.2-0.2,0.2-0.3,0.2-0.3c0.2-1.8,0.2-1.8,2.1-2.1c0.6-0.1,1.3,0.2,1.5-0.8c0-0.1,0.6-0.2,0.9-0.3c2.1-0.1,3.6-1.3,5.3-2.5c0.8-0.6,1.3-1.3,1.9-1.9c1.3-1.3,3.1-1.1,4.4,0.5c0.3,0.4,0.9,0.7,1.5,1.3c0.2,0.2,0.4,0.7,0.8,0.9c1.4,0.7,2.8,1.3,4.2,1.9c0.2,0.1,0.6,0.1,0.7,0.2c0.4,1.1,1.2,0.8,2,0.8c1.6,0,1.6,0,1.8,1.9c3.8,0,7.7,0,11.7,0c0,6.4,0,12.5,0,18.6C244.4,204.5,227.3,204.5,210.3,204.5z"/>
<path class="building-data" d="M41.9,169c-0.3-0.4-0.6-0.8-0.9-1.1c-0.2,0.3-0.4,0.6-0.6,0.8c0.7,0.7,1.3,1.6,1.8,2.6c0.3,0.7,0.7,1.4,0.9,2.1c0.9,3.9,1.8,7.9,2.6,11.8c0.1,0.7,0.1,1.3,1.3,0.9c-0.7-5.2-1.4-10.3-3.7-15C42.8,170.4,42.4,169.7,41.9,169z"/>
<path class="building-data" d="M87.1,112.5c0,2,0,4.1,0,6.2c-2.2,0-4.3,0-6.3,0C82.9,116.7,85.1,114.6,87.1,112.5z"/>
<path class="building-data" d="M120.7,112.5c0,2,0,4.1,0,6.2c-2.2,0-4.3,0-6.2,0C116.5,116.7,118.7,114.6,120.7,112.5z"/>
<path class="building-data" d="M94.6,118.7c-1.8,0-3.9,0-6,0c0-2.1,0-4.2,0-6C90.5,114.7,92.6,116.8,94.6,118.7z"/>
<path class="building-data" d="M128.4,118.8c-1.9,0-4,0-6.2,0c0-2.1,0-4.2,0-6.2C124.2,114.6,126.3,116.7,128.4,118.8z"/>
<path class="building-data" d="M26.3,192c-0.9-1-1.7-1.9-2.6-2.8c0.8-0.8,1.6-1.6,2.6-2.6C26.3,188.4,26.3,190.1,26.3,192z"/>
<path class="building-data" d="M33.3,179.7c0,1.7,0,3.5,0,5.1c-0.8-0.9-1.7-1.8-2.5-2.7C31.5,181.5,32.4,180.6,33.3,179.7z"/>
<path class="building-data" d="M23.3,189.9c0.7,0.7,1.6,1.5,2.5,2.5c-1.8,0-3.4,0-5.2,0C21.5,191.5,22.4,190.6,23.3,189.9z"/>
<path class="building-data" d="M26.3,198.9c-0.9-0.9-1.7-1.8-2.5-2.6c0.8-0.7,1.6-1.6,2.5-2.4C26.3,195.4,26.3,197.1,26.3,198.9z"/>
<path class="building-data" d="M37.9,182.2c0.7-0.7,1.6-1.5,2.4-2.4c0,1.6,0,3.3,0,4.9C39.5,183.9,38.7,183,37.9,182.2z"/>
<path class="building-data" d="M36.5,182.5c-0.6,0.6-1.4,1.4-2.3,2.4c0-1.7,0-3.4,0-5C35,180.8,35.8,181.7,36.5,182.5z"/>
<path class="building-data" d="M37.5,175.8c0.7,0.7,1.5,1.5,2.4,2.5c-1.8,0-3.5,0-5.1,0C35.6,177.5,36.5,176.7,37.5,175.8z"/>
<path class="building-data" d="M34.2,176.6v1.1c0.9-0.9,1.7-1.8,2.3-2.3c-0.2-0.3-0.4-0.6-0.7-0.8C35.3,175.3,34.7,175.9,34.2,176.6z"/>
<path class="building-data" d="M34.8,179.3c1.6,0,3.3,0,4.9,0c-0.8,0.9-1.6,1.7-2.5,2.6C36.4,181,35.6,180.2,34.8,179.3z"/>
<path class="building-data" d="M37.4,183c0.6,0.6,1.4,1.4,2.3,2.3c-1.6,0-3.2,0-4.6,0C35.8,184.6,36.6,183.8,37.4,183z"/>
<path class="building-data" d="M40.4,172.7c0,1.7,0,3.4,0,5c-0.8-0.9-1.6-1.7-2.5-2.6C38.5,174.4,39.4,173.6,40.4,172.7z"/>
<path class="building-data" d="M29.8,196.4c-0.8,0.8-1.6,1.6-2.5,2.4c0-1.7,0-3.3,0-4.9C28,194.8,28.8,195.5,29.8,196.4z"/>
<path class="building-data" d="M20.2,193.8c0.9,0.9,1.7,1.7,2.5,2.5c-0.8,0.7-1.6,1.5-2.5,2.3C20.2,197.1,20.2,195.4,20.2,193.8z"/>
<path class="building-data" d="M19.2,199.1c-1-1-1.8-1.9-2.7-2.8c0.9-0.8,1.8-1.6,2.7-2.3C19.2,195.5,19.2,197.2,19.2,199.1z"/>
<path class="building-data" d="M25.8,193.3c-0.9,0.9-1.7,1.7-2.5,2.5c-0.8-0.8-1.7-1.7-2.5-2.5C22.5,193.3,24.1,193.3,25.8,193.3z"/>
<path class="building-data" d="M27.2,191.4c0-1.3,0-3,0-4.6c0.8,0.9,1.6,1.7,2.4,2.5C28.8,190,27.9,190.8,27.2,191.4z"/>
<path class="building-data" d="M32.5,185.3c-1.5,0-3.1,0-4.9,0c1-0.9,1.9-1.6,2.7-2.3C30.9,183.6,31.7,184.5,32.5,185.3z"/>
<path class="building-data" d="M43.7,182.5c-0.6,0.6-1.4,1.4-2.4,2.3c0-1.7,0-3.3,0-5C42.1,180.7,42.9,181.6,43.7,182.5z"/>
<path class="building-data" d="M41.2,172.6c2.2,1.6,2.2,3.7,0.1,5.2c0-0.2-0.1-0.4-0.1-0.6C41.2,175.7,41.2,174.2,41.2,172.6z"/>
<path class="building-data" d="M23.6,196.9c0.4,0.4,1.1,1.1,2,2c-1.6,0-3,0-4.5,0C22,198.3,22.7,197.7,23.6,196.9z"/>
<path class="building-data" d="M18.1,199c-1.4,0-2.7,0-4.1,0c0.7-0.7,1.4-1.3,2.2-2C16.7,197.5,17.4,198.2,18.1,199z"/>
<path class="building-data" d="M42,185.2c0.8-0.8,1.6-1.6,2.5-2.5c0.1,0.8,0.3,1.6,0.4,2.5C43.9,185.2,42.9,185.2,42,185.2z"/>
<path class="building-data" d="M29.7,190.6c0,0.5,0,1.1,0,1.8c-0.7,0-1.3,0-2.1,0C28.4,191.7,29,191.1,29.7,190.6z"/>
<path class="building-data" d="M41.9,179.2c2.1-0.3,2.3-0.1,2.2,2.5C43.4,180.9,42.7,180.1,41.9,179.2z"/>
<path class="building-data" d="M29.7,195.4c-0.8-0.8-1.4-1.4-2.1-2.1c0.8,0,1.4,0,2.1,0C29.7,193.9,29.7,194.6,29.7,195.4z"/>
<path class="building-data" d="M29.7,186.3c0,0.6,0,1.2,0,2.1c-0.8-0.7-1.4-1.3-2.2-2.1C28.4,186.3,29,186.3,29.7,186.3z"/>
<path class="building-data" d="M43.3,176.7c0.1,0.6,0.2,1.1,0.3,1.6c-0.7,0-1.3,0-1.9,0C42.3,177.8,42.7,177.3,43.3,176.7z"/>
<path class="building-data" d="M29.7,197.4c0,0.6,0,1.1,0,1.6c-0.5,0-1,0-1.6,0C28.7,198.4,29.1,198,29.7,197.4z"/>
</svg>