<svg version="1.1" id="MetropolitanMuseumArtIcon" xmlns="http://www.w3.org/2000/svg" xmlns:xlink="http://www.w3.org/1999/xlink" x="0px" y="0px" viewBox="0 0 191.4 76" >

<style>
 #prlx_lyr_4 {
 	 fill: transparent;
     stroke: rgb(237, 237, 237);
    stroke-width: 2;
<!--     stroke-dasharray: 1.5;
     stroke-dashoffset: -20; -->
 }

  path:hover {
 	stroke:  transparent;
    fill:  rgb(237, 237, 237);
    stroke-with: 2px;
    transition: all .6s;
 }

</style>

<g id="prlx_lyr_4">	

<path d="M190.1,70.6c0,0.2,0,0.5,0,0.8c-4,0.1-8,0.1-12,0.2c-7.7,0.1-15.3,0.2-23,0.3c-3.4,0-6.9-0.3-10.3-0.1c-1.7,0.1-3.4,1.2-5.1,1.2c-18.1,0-36.2,0.2-54.3-0.3c-12.7-0.3-25.4,0.8-38-1.5c-4.1-0.8-8.5,0.8-12.8,0.8c-10.7,0-21.4-0.3-32.1-0.5c0-0.3,0-0.5,0-0.8c2.5-0.7,5-1.3,7.5-2c0-0.3,0.1-0.6,0.1-0.8c-2.5-0.8-5-1.6-7.6-2.4c0-0.3,0-0.5,0-0.8c1.1-0.5,2.1-1.4,3.2-1.4c6.3,0.1,12.7,0.6,19,0.6c2.8,0,5.7-0.7,8.5-1c0.5-0.1,1.1,0.4,2,0.8c0.3-1.3,0.6-2.6,0.9-4.2c-1.9,1-3.2,2.3-4.5,2.3c-9.7,0.1-19.4,0-29.1-0.1c0-3.2,0-6.5,0-9.8c0.7,1.1,1.8,2,2.2,3.2c0.5,1.7,0.4,3.6,0.7,5.7c1.3-0.4,2.8-0.5,2.8-0.8C8.6,56.5,8.8,53.1,9,49c2,0,4.4,0,6.9,0c0,4.4,0,8,0,11.5c0.4,0,0.7,0,1.1,0c0-3.6,0-7.1,0-10.6c5.3-3,7.3-1.9,7.3,4c0,2,0,4.1,0,6.1c0.4,0,0.8,0,1.2,0c0-3.3,0-6.7,0-11c2,0,4.1-0.6,5.4,0.2c1.1,0.7,1.3,3,1.5,4.6c0.2,1.8,0.1,3.6,0.1,5.4c0.1,0,0.2-0.1,0.4-0.1c0.5-1.8,1-3.6,1.6-5.3c0.4,0.2,0.7,0.3,1.1,0.5c-0.3,0.5-0.7,0.9-1,1.4c0.2,0.2,0.5,0.4,0.7,0.6c0.5-0.6,1.6-1.2,1.5-1.7c-0.2-1.6-0.9-3.2-1.4-4.8c3.2-0.5,1.1-3.4,1.3-5.6c-1.2-0.2-2.1-0.4-4-0.8c1-1.2,1.7-2,2.4-2.8c0.2,0.2,0.4,0.4,0.6,0.6c-0.2,0.5-0.5,1-0.7,1.5c0.5,0.1,1,0.2,1.4,0.3c0.1-1.9,0.3-3.7,0.5-6c-9.1,0.9-17.8-1.2-25.3,1.5c6.8,0,14.5,0,22,0c-0.7,1.7-1.5,3.5-2.4,5.6c-1.3,0.1-3,0.3-4.6,0.5c0,0.2,0,0.3,0.1,0.5c3,0,6,0,8.9,0c-0.5,1.1-1,2-1.3,2.6c-8.8,0-17.7,0.1-26.7-0.1c-1.8,0-3.1,2.4-5,0.7c0-1.2,0-2.5,0-3.8c2.3,0,4.7,0,6.7,0c1-5-2-5.4-5.5-5.2c-0.4,0-0.7-0.1-1.1-0.1c0-0.5,0-1,0-1.5C3.1,37.4,4,37,4,36.9C3,33,5.5,33,8.1,33c5.6,0,11.2,0.1,16.8,0c3.9-0.1,7.7-0.6,11.5-0.9c0-0.4,0.1-0.8,0.1-1.2c-0.9-0.2-1.8-0.5-2.7-0.6c-8.9-0.2-17.7-0.3-26.6-0.6c-1.2,0-2.3-0.5-4.4-1.1c1.6-0.9,2.1-1.6,2.6-1.5c2.1,0.2,3.7-0.1,3.8-2.7c0-0.3,0.7-0.7,1.1-0.8c2.5-0.6,5.1-1.1,7.6-1.5c0.1,0,0.2,0.4,0.3,0.6c-0.7,0.5-1.5,0.9-2.2,1.4c0.2,0.4,0.5,0.8,0.7,1.2c1.3-0.8,2.5-1.6,3.7-2.4c0,0,0.2,0.9,0.3,1.6c2.4,0.2,4.6,0.4,6.3,0.6c1.8-1.8-0.9-5.9,3.6-5.4c0,1.8,0,3.3,0,4.7c-0.1,0-0.2,0-0.3,0c-0.2-1.1-0.4-2.3-0.6-3.4c-1.8,6.5-2.8,7.1-11,6c1.5-0.3,2.3-0.5,3.1-0.7c0-0.2-0.1-0.4-0.1-0.7c-3.7,0.6-7.5,1.2-11.2,1.9c5.9,0.6,11.7,0.4,17.5,0.6c2.8,0.1,3.9-1.1,3.9-3.7c0-1.7,0-3.5,0.2-5.2c0.1-1,0.5-2.1,1.1-3c3-4.9,8.3-4.5,12.9-5.5c-0.7,0.6-1.4,1.2-1.8,1.5c1,0.6,1.7,1.1,2.4,1.5c0.3,0,0.7,0,1,0c0.6,0.2,1.3,0.6,1.9,0.7c0.8,0,1.6-0.2,2.4-0.4c0-1.7-0.1-3.4-0.1-5.1c0-1.9,0-3.8,0-5.9c2.4-0.4,4.8-1.2,7.3-1.2c3.3,0,6.7,0.6,10,1.2c0.4,0.1,0.9,1.3,1,2c0.4,3,0.7,6.1,1,9.1c0.2,0,0.4,0,0.7,0c0-2.6,0-5.2,0-7.7c0.3,0,0.6,0,1,0c0,2.1,0,4.2,0,6.3c0.3,0,0.5,0,0.8,0c0.1-2.2,0.2-4.3,0.4-6.8c1.7-0.1,3.3-0.1,4.9-0.3c3.1-0.2,6.1-0.5,9.2-0.8c5.8,0,11.6,0,17.5,0c6,0.4,11.7,1.9,18-1.2c5.3-2.7,12.1-1.2,18.4-0.5c-0.4,1.9-0.7,3.2-1,4.5c-4.6-0.1-9.2-0.2-13.8-0.4c-3.3-0.1-3.6,2.1-3.4,4.5c0.3,2.6,1.8,3.8,4.6,3.5c2.7-0.2,5.4-0.5,8,0c2.7,0.5,3.3-0.5,3.5-2.8c0.1-1.6,0.7-3.2,1.1-4.8c1.4,1.4,2.8,2.9,3.6,3.7c1.2-0.2,2.1-0.4,3-0.5c0.2,1.7,0.3,3.5,0.5,5.2c2.5,0.5,4.9,1,7.4,1.5c0.2-2,0.3-3.3,0.5-4.6c6.2,0.6,6.2,0.6,5.3,7.5c-1.4-0.1-2.7-0.2-4.1-0.2c-8.2,0-16.5-0.1-24.7-0.1c-16.1,0-32.2,0-48.2,0.1c-1.3,0-3.4-0.8-2.8,2c-1.9-0.9-3.7-1.8-5.6-2.6c-0.2,0.3-0.4,0.7-0.5,1c0.4,0.5,0.7,1,1.3,1.7c-0.8,0.2-1.4,0.3-1.9,0.5c-4.5,0-9,0-13.5,0c0-0.4,0-0.9,0-1.3c4,0,8,0,12.1,0c0-0.3,0-0.7,0-1c-1.1-0.1-2.1-0.3-3.2-0.3c-7.1,0-14.2,0.2-21.3-0.1c-2.3-0.1-3.8,0.2-4.6,2.4c-0.2-0.9-0.4-1.8-0.8-3.4c-0.6,1.4-1,2.1-1,2.1c-1.4-0.4-2.6-0.8-4.3-1.3c0.7,2.6,1.2,4.1,1.7,6c1.6-0.6,3.4-1.2,5.2-1.9c0.6,0.5,1.2,1,2.3,1.9c-0.3-1.8-0.6-3-0.8-4.4c2.4,0.2,4.5,0.4,6.7,0.6c0,0.2,0,0.4,0,0.5c-1.5,0.3-3,0.5-5.2,0.9c0.9,1.2,1.4,2.4,2.2,2.6c2.2,0.6,4.6,0.9,6.9,1c3.2,0.1,6.5-0.3,9.6,0c3.9,0.4,6.7-0.4,7.9-4.4c0.4,1,0.8,1.9,1.3,3.1c1.6-0.4,3.2-0.7,4.8-1.1c3.4,0.4,6.8,0.8,10.1,1.2c-0.6,0.2-1.2,0.3-1.9,0.5c0,0.2,0.1,0.3,0.1,0.5c6.4-0.6,12.8-1.2,19.2-1.7c0-0.7,0-1.6,0-2.9c-6.9,0-13.6,0-20.3,0c7.3-0.7,14.7-0.7,22-0.6c1.3,0,2.9,1.5,3.9,1.1c2.3-1,4.7-1.2,7.1-1.2c9.3-0.2,18.7-0.5,28-0.4c2.8,0,6-0.2,7.1,3.7c0.2,0.8,1.9,1.9,2.7,1.7c1.5-0.2,2.8-1.3,5-2.4c0.5-0.6-2-4.5,2.4-3.8c0.1,1.7,0.3,3.1,0.5,5.4c2.3-0.4,4.3-0.7,6.3-1c-0.5-1-1.1-2.1-1.6-3.1c0.1-0.2,0.2-0.3,0.3-0.5c1.1,1.2,2.2,2.4,3.6,3.9c2.6,0,5.9,0,9.3,0c-0.4,0.7-0.6,1.2-0.9,1.8c-6.9,0-13.7,0-20.6,0c0.5,1.2,1.1,1.8,1.7,1.8c5.8-0.1,11.6-0.3,17.4-0.6c0.5,0,0.9-0.9,1.4-1.3c2,0.5,3.9,1.1,5.9,1.6c0,0.3,0,0.6,0.1,1c-1,0.4-2,1.1-3.1,1.1c-11.3,0.4-22.6,0.6-34,1c-6.1,0.2-12.3,0.5-18,0.8c1.7,2,3.3,3.9,4.8,5.8c-0.3,0-0.5,0.1-0.8,0.1l0.1,0c-0.3-0.3-0.5-0.5-0.8-0.8l0.1,0c-0.3,0-0.5-0.1-0.8-0.1c-0.6-0.2-1.1-0.5-1.7-0.7c-0.7,0-1.4,0-2.1,0c-2,0.3-4,0.6-6,0.9c-0.7,0.9-1.3,1.7-2,2.6c0.9-0.1,2,0,2.8-0.4c4.7-2.5,6-1.9,6.1,3.4c0,0.4,0.1,0.8,0.1,1.2c0.1,0,0.1,0,0.2,0c0.2-1.5,0.3-3,0.5-4.5c0.3-0.1,0.6-0.2,0.9-0.2c0.9,2,1.9,4,2.7,5.9c0.5-1.5,1-3,1.5-4.5c0.2-0.4,0.4-0.8,0.7-1.3c1,1.3,2,2.5,3,3.7c0-3.4,0-7.1,0-11.1c6.8,0.3,13.3,0.8,19.7,0.9c7.2,0.2,14.5,0,21.7,0.1c1,0,2.1,0.6,3.1,1c-8.7,0-17.4,0-26.1,0c5.1,0.7,10.2,0.8,15.3,0.7c3.6-0.1,7.1-0.5,10.7-0.7c0.4,0.7,0.8,1.3,1.2,2c-0.9,0.3-1.7,0.9-2.6,0.9c-7.4,0.1-14.7,0.2-22.1,0c-2.4,0-4.8-0.8-7.4-1.2c-1.4,2.6-1.2,2.9,1.5,4.3c0.7,0.4,1,1.7,1.2,2.1c-1.4-0.3-2.7-0.9-3.1-0.5c-1.7,1.8,0.1,6.9,2.5,7.6c-3.5,1.2-4,3.1-1.8,6.1c0.5-1.2,1.1-2.4,1.7-3.6c0.3,0.1,0.6,0.2,0.9,0.3c0,2.3,0,4.7,0,7c0.5-1.8,0.3-3.5,0.6-5.2c0.2-1.5,0.6-3.8,1.6-4.3c1.4-0.7,3.5,0,5.6,0.1c0,4,0,7.2,0,10.4c0.3,0,0.7,0,1,0c0-1.9,0-3.9,0-5.8c-0.1-2.7-0.2-5.5,3.7-5.4c3.7,0.1,3.4,2.7,3.3,5.3c-0.1,2.1,0.1,4.3,0.2,6.4c0.4,0,0.9,0,1.3-0.1c0-3.4,0-6.7,0-10.1c1.4-0.9,2.7-1.7,4.1-2.6l0.3,0.1c1,0.9,2,1.8,2.8,2.5c0,3.5,0,6.8,0,10.3c1.2,0,2.3,0,3.7,0c0-3.3,0-6.5,0-10.3c0.9,1.2,1.3,1.8,1.8,2.5c0,3,0,6,0,9c-10.1,0-20.1,0-30.1,0c-0.4-1.2-0.8-2.2-1.2-3.2c-0.3-0.7-0.6-1.3-0.9-1.9c-0.5,0.8-1.5,1.7-1.4,2.4c0.3,1.6,1.1,3.2,1.7,4.8c10.8,0.3,21.3,0.6,31.9,0.8c0,0.5,0,1,0,1.5c-0.4-0.1-0.8-0.1-1.3-0.2c-9.6,0-19.2,0-28.7,0c9.6,0,19.2,0,28.8,0c-1.8,0.7-3.5,1.3-6.1,2.3c1.9,0.6,2.9,1,4,1.3c0,0.1,0,0.3,0,0.4c-7,0-14.1,0-21.1,0c0,0.2,0,0.5,0,0.7C173.7,70.6,181.9,70.6,190.1,70.6z M90.3,36.8L90.3,36.8c0.2-0.3,0.5-0.6,0.7-0.9c1.3-1.3,2.6-2.7,4.2-4.4c-10.7,0-21.3,0-32,0c1.7,1.8,3.3,3.5,4.8,5.1c-4.4-2.3-8.8-1.8-13.2,0.2c1.6-1.7,3.2-3.4,5-5.4c-7,0-14,0-21,0c0,0.3,0,0.5,0,0.8c3.6,0,7.1,0,10.7,0c0,4,0,7.6,0,11.4c1-1.3,1.8-2.2,2.6-3.1c0.3,6.9,0.6,13.9,0.9,20.8c0.5-5.3,0.5-10.6,0.6-15.9c0-1.4,0.4-2.8,0.6-4.3c4.3-3.6,8.8-4.5,13.4-0.6c0.1,3.1,0.2,6.2,0.3,9.3c-3.1-4.5-7.3-1.7-11.2-1.6c2.6,0.2,5.2,0.3,7.7,0.5c0,0.2,0,0.4,0,0.6c-2.5,0.1-4.9,0.3-7.4,0.4c0,0.2,0,0.4,0,0.6c3.6-0.2,7.2-0.3,10.8-0.5c-0.4,0.5-0.7,1.4-1.1,1.4c-3.6,0.1-7.2,0.1-10.8,0.1c0,0.2,0,0.5,0,0.7c4.2,0,8.4,0,13.4,0c-2,3.8-7.5,5.7-4.3,10.7c1.1-0.1,2.2-0.3,3.2-0.1c3.7,0.7,4.6-1.3,4.6-4.4c0-2.7,0-5.5,0-8.2c0-0.7-0.1-2-0.4-2.1c-3.6-0.8-3.1-3-2.1-5.6c0.2-0.7-0.6-1.8-1-2.7c0-0.2,0-0.5-0.1-0.7c0-0.5,0-1,0-1.5c1.3,1.8,2.6,3.6,3.4,4.5c0-2.4,0-6,0-9.6c4.5,0,8.7,0,12.7,0c0,3.7,0,7.2,0,9.6c0.9-1.1,2.2-2.7,3.4-4.4c0,0.4,0,0.8,0,1.2c-0.3,1.4-0.9,2.9-0.9,4.3c-0.1,4.1,0,8.2,0,12.4c-0.1,0-0.2,0-0.2,0c-0.1-2.9-0.3-5.9-0.4-8.8c-3,3.7-2.4,12.8,0.7,18.5c0.4-2.4,0.9-4,0.9-5.5c0.1-5.2-0.1-10.4,0.1-15.7c0-1.1,0.9-2.2,1.4-3.4c1-0.7,2-1.4,3-2.1c2.9-1.9,6.3-1.3,8.1,1.5c0.8,1.3,1.1,2.9,1.9,5c0.2-1.7,0.3-2.8,0.4-3.8c0.3,1.3,0.8,2.6,0.8,3.8c0.1,6.4,0,12.8,0,19.2c0.4,0.1,0.7,0.2,1.1,0.3c0.4-0.5,1.1-1.1,1.2-1.6c0.8-5.7,3.2-11.6-1.4-16.9c-0.3-0.3-0.1-1-0.1-1.5c-0.2-1.8-0.4-3.6-0.6-5.4c-0.3-0.7-0.5-1.5-0.8-2.2c0,0,0,0,0,0c0-0.3-0.1-0.5-0.1-0.8c4.4-6,10.7-3.4,16.7-3.8c-0.2,3.9-0.4,7.4-0.5,10.9c2.6-5.9,2.6-5.9,10.7-11.6c-11.3,0-21.8,0-33,0c2.4,1.6,4,2.7,5.5,3.8c0,0.2,0,0.4,0,0.7c0,0,0,0,0,0c0,0.3,0.1,0.5,0.1,0.8c0,1-0.1,2-0.1,3c-3.9-3.8-8.2-3.7-12.8-1.2c-0.2-0.1-0.5-0.1-0.7-0.2c0-0.3-0.1-0.6-0.1-0.9l0,0.1C89.8,37.3,90,37.1,90.3,36.8z M114.2,15.4c-0.9,0-1.8,0.1-2.5,0.1c0-3,0-5.7,0-8.3c-0.3,0-0.6,0-0.9-0.1c-0.1,2.4-0.2,4.9-0.3,7.3c-0.2,0-0.3,0-0.5,0c-0.1-2.3-0.2-4.6-0.3-6c-1.2-0.6-1.8-0.8-2.6-1.2c-0.4,2.5,0.2,4.2,1.6,6.6c1.5,2.6,2.5,3.1,4.9,2.6c1.6,0,3.1,0,5,0c0.1-3,0.3-5.8,0.4-8.6c-0.2,0-0.5,0-0.7-0.1c-0.2,2.5-0.3,4.9-0.5,7.4c-0.3,0-0.5,0-0.8,0c0-2.6,0-5.2,0-7.9c-0.3,0-0.7,0-1,0c0,1.9,0.2,3.8-0.1,5.7C115.8,13.8,114.8,14.6,114.2,15.4z M136.6,68.9c0.1,0.1,0.2,0.3,0.4,0.4c0.7,0.3,1.4,0.7,2.1,0.7c5.4,0,10.7-0.3,16.1-0.3c5,0,10-1.3,15.1-0.8c0.5,0,1-0.4,1.8-0.7c-2.7-1.7-35.6-2.1-37.6-0.6C135.1,68.2,135.9,68.5,136.6,68.9z M29.8,66c-7.3,0-14.6,0-21.8,0c0,0,0,0,0-0.1C15.2,65.9,22.5,65.9,29.8,66c-1.2,0.3-2.5,0.7-3.8,0.9c-1.6,0.3-3.2,0.4-4.8,0.6c0,0.5,0.1,1,0.1,1.5c2.7,0,5.5,0,8.2,0c0,0,0.1,0.1,0.1,0.1c2.6,0.2,5.2,0.4,7.9,0.6c10.2,0.8,20.3-0.2,28.6-3.6c-9.5,0-20.4,0-31.3,0c-0.3,0-0.6,0-0.9,0.1C32.5,66.1,31.1,66.1,29.8,66z M119.8,21.8c-0.5,2.8-0.2,4.6,3,4.6c6.4,0,12.7,0,19.1-0.2c0.9,0,1.7-0.7,2.6-1.1c-0.1-0.4-0.2-0.8-0.2-1.2c-6.9,0-13.8,0-20.7,0c0-0.4,0-0.7,0-1.1c7,0,14,0,21,0c-0.3-0.8-0.6-1-0.9-1C135.9,21.8,128,21.8,119.8,21.8z M96,8.2c-0.4-0.1-0.9-0.2-1.3-0.4c-0.4,1.3-1.5,2.8-1.1,3.8c0.5,1.3,2,2.4,3.4,3.2c0.8,0.4,2.1-0.2,3.1,0.1c2.4,0.6,3-1,2.9-2.7c-0.1-1.7,1.3-4.3-2-4.6c-4.3-0.5-3.6,2.9-4.3,5.3C96.4,11.3,96.2,9.8,96,8.2z M123.2,47.8c-2.5-1-3.5-0.1-3.4,2.2c0.1,3.2,0.1,6.4,0.4,9.6c0.1,1.2,1.2,2.2,1.8,3.3c0.4-0.1,0.8-0.3,1.2-0.4C123.2,57.7,123.2,52.9,123.2,47.8z M141.4,62.1c0.5,0.1,0.9,0.1,1.4,0.2c1.8-4.7,0.9-9.6,0.9-14.5c-1.4-0.3-2.6-0.5-3.5-0.6c0,4.6,0,9.4,0,14.2c0.2,0,0.4,0,0.7,0c0-3.7,0-7.4,0-11.1c0.2,0,0.4,0,0.6,0C141.4,54.2,141.4,58.1,141.4,62.1z M50.8,62.5c0.4-0.1,0.9-0.3,1.3-0.4c0-4.4,0.1-8.9-0.1-13.3c0-0.6-0.9-1.1-1.4-1.7c-0.5,0.7-1.5,1.3-1.5,2c-0.1,3.2-0.2,6.5,0.1,9.7C49.3,60.1,50.3,61.3,50.8,62.5z M86.5,6.8c0,2.9,0,5.7,0,8.6c6-2.1,6-2.1,5-6.9C89.9,8,88.4,7.5,86.5,6.8z M43.6,40c0.2-0.3,0.9-1.1,1.6-1.9c-0.7-0.4-1.6-1.2-1.9-1.1c-0.9,0.5-1.9,1.4-2.1,2.2c-0.3,2-0.1,4.1-0.1,6.2c0.4,0.2,0.7,0.4,1.1,0.6c0.9-0.9,2.3-1.6,2.5-2.6C44.9,42.6,44,41.3,43.6,40z M81.9,61.3c-0.9-3-1.6-5.4-2.3-7.9c-0.4,0-0.7,0-1.1,0c-0.6,2.5-1.2,5.1-1.8,7.8C78.7,61.3,79.8,61.3,81.9,61.3z M108.8,27.2c4.2,0,7.3,0,10.4,0c0-0.2,0-0.4,0-0.6c-1.1-0.2-2.3-0.4-4-0.7c1.1-1,1.8-1.6,2.5-2.2c-0.2-0.3-0.4-0.7-0.6-1C114.7,24,112.3,25.3,108.8,27.2z M68.4,4.8c0-0.2,0-0.4,0-0.6c-4.7,0-9.4,0-14.2,0c0,0.2,0,0.4,0,0.6C59,4.8,63.7,4.8,68.4,4.8zM153,60.7c-0.9-1.5-1.8-3.2-2.8-4.8c-1,1.7-1.9,3.3-2.9,4.8C149.5,60.7,150.8,60.7,153,60.7z M54.4,62.5c1.3,0.1,2.5,0.2,4.6,0.5c-1.6-3-2.8-5.4-4.3-8.1c-0.2,0.8-0.3,1.3-0.4,1.9C54.4,58.6,54.4,60.4,54.4,62.5z M137.2,51.8c0-0.1,0-0.2,0-0.3c-4.3,0-8.6,0-13.1,0c0.3,3.5,0.5,6.8,0.8,10c0.3,0,0.6,0,0.9-0.1c-0.3-3.1-0.5-6.2-0.8-9.6C129.1,51.8,133.2,51.8,137.2,51.8zM40.2,59.7c2.5,0.4,3.8,0.5,6.4,0.9c-1.6-2.1-2.7-3.5-3.8-5C42,57,41.2,58.3,40.2,59.7z M7.3,34.1c0,0.1,0,0.2,0,0.4c8,0,16.1,0,24.1,0c0-0.1,0-0.2,0-0.4C23.4,34.1,15.3,34.1,7.3,34.1z M20.6,68.9c-1.4-2.4-1.5-2.4-7.9-1.3C13.7,70,13.7,70,20.6,68.9z M81.2,7.8c-0.2,0-0.5-0.1-0.7-0.1c0,1.6-0.1,3.2,0.1,4.7c0.1,0.5,0.8,1.3,1.3,1.4c0.5,0.1,1.5-0.6,1.5-1.1c0.2-1.9,0.1-3.8,0.1-5.7c-0.4,0-0.7,0-1.1,0c-0.2,1.1-0.4,2.1-0.6,3.5C81.5,9.4,81.3,8.6,81.2,7.8zM116.5,58.5c-1.1-1.2-1.9-1.9-2.6-2.7c-0.5,0.9-1.5,1.8-1.5,2.8c0,0.7,1.1,1.4,1.6,2.2C114.7,60.1,115.4,59.5,116.5,58.5zM62.1,53.6c-1.1,3-2.8,6,0,9.1C62.1,59.6,62.1,56.6,62.1,53.6z M59.7,8.9c0,1.6-0.1,3.2,0,4.8c0,0.5,0.4,1,0.9,1.2c0.3,0.2,1.2-0.2,1.2-0.4c0.3-2,0.5-3.9,0.7-5.9C61.3,8.7,60.5,8.8,59.7,8.9z M135.4,61.5c0.1,0.3,0.1,0.5,0.2,0.8c0.9,0,1.9,0,2.9,0c0-2.2,0-4.3,0-6.9c-1,2-1.7,3.4-2.4,4.7c0.2,0.1,0.7,0.3,1.7,0.7C136.8,61.1,136.1,61.3,135.4,61.5z M44.8,51.5c0.3-0.3,0.6-0.6,0.9-0.8c-0.9-0.8-1.9-2.3-2.8-2.2c-0.9,0.1-1.6,1.7-2.8,3.1C42.5,51.5,43.7,51.5,44.8,51.5z M173.1,67.4c0,0.4,0,0.7,0,1.1c2.5,0,5,0,7.5,0c0-0.4,0-0.7,0-1.1C178.1,67.4,175.6,67.4,173.1,67.4z M76.5,50.8c0.3,0.3,0.6,0.5,0.9,0.8c1.2-0.1,2.5-0.1,5-0.3c-1.5-1.6-2.4-2.5-3.2-3.4C78.3,48.9,77.4,49.9,76.5,50.8z M92.2,47.7c0,0.2,0,0.4,0,0.6c2.9,0,5.9,0,8.8,0c0-0.2,0-0.4,0-0.6C98.1,47.7,95.2,47.7,92.2,47.7z M136.4,48.5c0-0.3,0-0.5,0-0.8c-3,0-6,0-9,0c0,0.3,0,0.5,0,0.8C130.4,48.5,133.4,48.5,136.4,48.5z M67.6,8.5c-0.4-0.2-0.8-0.4-1.3-0.6c-0.5,1-1.4,2-1.3,2.9c0.1,0.9,1.4,1.7,2.5,3C67.6,11.3,67.6,9.9,67.6,8.5z M148.3,47.8c-0.6,5,2,3.7,3.6,4c0.2-0.4,0.5-0.7,0.7-1.1C151.5,49.9,150.3,49.1,148.3,47.8zM76.7,38.8c0.3,0.5,0.6,1,0.9,1.5c1.2-0.6,2.4-1.3,3.6-1.9c-0.6-0.5-1.3-1.4-1.7-1.3C78.5,37.4,77.6,38.2,76.7,38.8z M151.5,41.6c-0.7-0.3-1.3-0.5-2-0.8c-0.4,1.1-0.9,2.2-1,3.3c0,0.2,1.1,0.6,1.6,0.9C150.5,43.9,151,42.8,151.5,41.6z M151.8,40.6c0.3-0.5,0.6-1,1-1.6c-1-0.6-1.9-1.4-2.9-1.8c-0.4-0.1-1.1,0.8-1.7,1.3C149.4,39.2,150.6,39.9,151.8,40.6z M124.7,27.9c0,0.1-0.1,0.2-0.1,0.3c4.9,0,9.8,0,14.6,0c0-0.1,0-0.2,0-0.3C134.4,27.9,129.6,27.9,124.7,27.9z"/>
<path d="M181.5,47.6c-7.3,0-14.6,0-22,0c0-1.1,0-2,0-3.2c2.1,0,4,0,5.9,0c0-0.1,0-0.3,0-0.4c-1.2-0.1-2.4-0.2-3.3-0.3c-0.9-2.1-1.6-3.9-2.6-6.1c10.3,0,20.4,0,30.6,0c0,0.5,0,1,0,1.5c-1.9,0.4-3.8,0.8-5.7,1.3c0,1.3,0,2.5,0,4c2,0,3.8,0,5.7,0c0,1.2,0,2.5,0,3.8c-2.8-0.1-5.5-0.3-8.3-0.4C181.8,47.7,181.5,47.6,181.5,47.6z"/>
<path d="M54.2,37.6c0.2-0.3,0.5-0.6,0.7-0.8c4.4-2,8.7-2.5,13.2-0.2c0,0,0,0,0,0c-0.1,0.6-0.1,1.2-0.2,1.8c0.3,0.2,0.5,0.5,0.8,0.7l-0.1-0.1c-0.1,0.5-0.2,1-0.4,1.5c-0.2,0-03,0-0.5,0c-4.7-4-9.1-3-13.4,0.6C54.2,40,54.2,38.8,54.2,37.6z"/>
<path d="M147.4,10.4c2.5,1.2,5.1,2.4,7.6,3.6c-0.1,0.5-0.2,1.1-0.3,1.6c-2.3,0-4.6,0-6.9,0C147.7,13.9,147.6,12.2,147.4,10.4z"/>
<path class="st0" d="M188.9,65.9c-9.6,0-19.2,0-28.8,0C169.6,65.9,179.2,65.9,188.9,65.9C188.8,65.9,188.9,65.9,188.9,65.9z"/>
<path class="st0" d="M29.8,66C29.8,66,29.8,65.9,29.8,66c-7.2-0.1-14.5-0.1-21.8-0.1c0,0,0,0,0,0.1L29.8,66z"/>
<path d="M34.8,66.1c4.8,0.4,9.5,0.7,14.3,1.1c0,0.1,0,0.2,0,0.3c-5.4,0-10.7,0-16.2,0c0.2-0.3,0.2-0.4,0.3-0.5c0.2-0.3,0.5-0.5,0.7-0.7C34.2,66.2,34.5,66.1,34.8,66.1z"/>
<path class="st0" d="M105.4,4.6c-5.8,0-11.6,0-17.5,0c0,0,0.1,0.1,0.1,0.1C93.8,4.7,99.6,4.7,105.4,4.6L105.4,4.6z"/>
<path d="M52,13.8c-1-1.3-2-2.7-2.9-4c1-0.4,1.9-0.8,2.9-1.1C51.9,10.4,52,12.1,52,13.8z"/>
<path d="M46.7,13.6c-0.2-1-0.5-2-0.7-3c1-0.3,2.1-0.5,3.1-0.8c-0.5,1.2-0.9,2.5-1.4,3.7C47.4,13.6,47,13.6,46.7,13.6z"/>
<path class="st0" d="M127,37c-0.7,0.9-1.3,1.7-2,2.6C125.7,38.7,126.4,37.9,127,37z"/>
<path d="M67.9,38.5c0.1-0.6,0.1-1.2,0.2-1.8c0.4,0.3,0.9,0.6,1.3,0.9c0,0.5,0,1,0,1.5c-0.3,0-0.5,0-0.8,0.1c0,0,0.1,0.1,0.1,0.1C68.4,38.9,68.1,38.7,67.9,38.5z"/>
<path class="st0" d="M104.6,39.1c-0.3-0.7-0.5-1.5-0.8-2.2C104.1,37.6,104.3,38.4,104.6,39.1z"/>
<path class="st0" d="M135.2,36.1c-0.7,0-1.4,0-2.1,0C133.8,36.1,134.5,36.1,135.2,36.1z"/>
<path d="M89.6,38.4c-0.3,0.1-0.5,0.3-0.8,0.4c0-0.4,0-0.8,0-1.2c0.2,0,0.5-0.1,0.7-0.1C89.5,37.8,89.6,38.1,89.6,38.4z"/>
<path d="M139.9,40.6c0-0.5-0.1-1-0.1-1.5c0.3,0.1,0.5,0.2,0.8,0.3C140.3,39.7,140.1,40.2,139.9,40.6z"/>
<path class="st0" d="M103.1,35.4c0,0.2,0,0.4,0,0.7C103.1,35.9,103.1,35.7,103.1,35.4z"/>
<path d="M139.1,38.4c-0.3-0.2-0.6-0.5-0.9-0.7c0.3,0,0.5-0.1,0.8-0.1C139,37.9,139.1,38.1,139.1,38.4z"/>
<path d="M90.3,36.9c0.3-0.3,0.5-0.6,0.8-0.9C90.8,36.2,90.5,36.5,90.3,36.9z"/>
<path d="M137.6,36.9c-0.3,0-0.5-0.1-0.8-0.1C137.1,36.8,137.4,36.9,137.6,36.9z"/>
<path d="M89.5,37.6c0.3-0.3,0.5-0.5,0.8-0.8C90,37.1,89.8,37.3,89.5,37.6z"/>
<path d="M138.3,37.7c-0.3-0.3-0.5-0.5-0.8-0.8C137.8,37.1,138.1,37.4,138.3,37.7z"/>
<path d="M105.3,4.7c-5.8,0-11.5,0-17.3,0c0-0.6-0.2-1.5,0-1.6c5.7-2.9,11.4-2.8,17.1,0C105.5,3.1,105.3,4.1,105.3,4.7z"/>
<path d="M83.7,23.5c6.8,0,13.5,0,20.3,0c0,0.1,0,0.2,0,0.4c-6.8,0-13.5,0-20.3,0C83.7,23.7,83.7,23.6,83.7,23.5z"/>
<path d="M139.9,39.2c-0.3-0.3-0.6-0.6-0.8-0.8C139.3,38.6,139.6,38.9,139.9,39.2z"/>
<path d="M68.4,24c-5.7,0-11.3,0-17,0c0-0.1,0-0.2,0-0.3c5.7,0,11.4,0,17.1,0C68.5,23.8,68.5,23.9,68.4,24z"/>
<path d="M29.6,69.1c6.9-0.4,13.8-0.8,20.7-1.2c0,0.4,0,0.9,0,1.3C43.4,69.2,36.5,69.2,29.6,69.1C29.6,69.2,29.6,69.1,29.6,69.1z"/>
<path d="M136.6,68.9c7.1-1.6,14.3-1.6,21.5-1.2c0,0.5,0,1,0,1.6c-7.1,0-14.2,0-21.2,0C136.9,69.2,136.8,69,136.6,68.9z"/>
<path class="st0" d="M67.9,38.5c0.3,0.2,0.5,0.5,0.8,0.7C68.4,38.9,68.1,38.7,67.9,38.5z"/>
<path d="M48.8,12.5c-0.1,0-0.2-0.1-0.2-0.1c0-0.1,0.1-0.2,0.1-0.3c0.1,0,0.2,0.1,0.2,0.1C48.9,12.3,48.8,12.4,48.8,12.5z"/>

</g>	
 <script xlink:href="../js/visual.js" />

</svg>