<svg version="1.0" xmlns="http://www.w3.org/2000/svg" width="106px" height="182px" viewBox="0 0 1060 1820" >
<style>
.uvm-outline{
	fill: rgb(129, 171, 171);
	stroke: none;
}
</style>
<g class="uvm-outline">
 <path d="M90 1806 c0 -7 -7 -19 -15 -26 -9 -7 -15 -29 -15 -51 0 -21 -4 -41 -10 -44 -5 -3 -10 -21 -10 -40 0 -19 -4 -37 -10 -40 -5 -3 -10 -13 -10 -21 0 -11 17 -14 78 -14 l77 0 45 -56 c45 -56 45 -57 66 -198 18 -124 19 -144 6 -163 -13 -20 -12 -26 2 -48 12 -18 16 -49 16 -128 0 -101 -1 -104 -25 -115 -35 -16 -32 -30 19 -82 44 -45 45 -47 115 -299 41 -147 68 -263 65 -276 -3 -13 1 -36 10 -53 9 -18 13 -42 10 -64 -5 -27 -2 -37 10 -41 30 -12 48 3 43 37 -3 19 3 46 15 70 12 23 16 42 10 48 -5 5 19 112 63 273 66 240 76 268 109 306 40 47 43 60 21 79 -19 16 -22 220 -3 249 9 14 8 23 -4 40 -13 19 -13 35 8 156 12 74 26 140 30 147 4 7 28 37 53 66 l45 52 73 0 c57 0 73 3 73 14 0 8 -4 18 -10 21 -5 3 -10 21 -10 40 0 19 -5 37 -10 40 -6 3 -10 18 -10 32 0 34 -32 102 -47 103 -15 0 -18 -56 -4 -64 5 -3 11 -23 15 -43 3 -21 8 -55 12 -75 l6 -38 -458 2 c-253 2 -354 4 -226 5 188 3 232 6 232 17 0 8 16 17 38 20 107 19 202 78 238 147 13 27 13 29 -4 29 -10 0 -28 -13 -40 -30 -14 -19 -32 -30 -47 -30 -17 0 -25 -7 -28 -22 l-4 -23 -2 23 c-1 16 -7 22 -26 22 -22 0 -25 -4 -25 -35 0 -24 -5 -35 -15 -35 -10 0 -15 10 -15 30 0 28 -3 30 -34 30 -33 0 -35 -2 -39 -37 l-4 -38 -1 38 c-2 35 -4 37 -37 37 -32 0 -35 -2 -35 -30 0 -20 -5 -30 -15 -30 -10 0 -15 11 -15 35 0 30 -3 35 -24 35 -18 0 -26 -7 -29 -22 -4 -23 -4 -23 -6 -1 -1 14 -9 23 -23 26 l-23 4 23 2 c16 1 22 7 22 26 0 20 -5 25 -25 25 -19 0 -25 -5 -25 -22 l-1 -23 -18 23 c-18 20 -28 22 -115 22 -75 0 -96 -3 -96 -14z m668 -288 l-43 -52 -3 37 -3 37 -85 0 c-68 0 -84 3 -84 15 0 13 21 15 131 15 l131 0 -44 -52z m92 48 c0 -2 -8 -10 -17 -17 -16 -13 -17 -12 -4 4 13 16 21 21 21 13z m-599 -23 c13 -16 12 -17 -3 -4 -10 7 -18 15 -18 17 0 8 8 3 21 -13z m207 -80 c-3 -44 -5 -48 -30 -51 -27 -3 -28 -2 -28 47 0 50 1 51 31 51 30 0 30 -1 27 -47z m112 -33 c0 -77 -1 -80 -26 -86 -38 -10 -48 8 -52 91 l-4 75 41 0 41 0 0 -80z m100 31 c0 -34 -5 -51 -15 -55 -23 -9 -45 22 -45 65 0 37 2 39 30 39 29 0 30 -1 30 -49z m130 45 c0 -2 -8 -10 -17 -17 -16 -13 -17 -12 -4 4 13 16 21 21 21 13z m-40 -50 c0 -2 -8 -10 -17 -17 -16 -13 -17 -12 -4 4 13 16 21 21 21 13z m-419 -23 c13 -16 12 -17 -3 -4 -10 7 -18 15 -18 17 0 8 8 3 21 -13z m28 -141 c-39 -4 -41 -2 -49 55 l-8 48 44 -50 43 -50 -30 -3z m376 44 c-7 -44 -8 -46 -42 -46 -25 0 -32 3 -27 13 14 23 69 86 72 82 2 -2 0 -24 -3 -49z m-150 -16 c-25 -33 -48 -60 -51 -60 -2 0 -4 10 -4 23 0 16 9 26 30 34 23 9 30 18 30 37 0 20 5 26 21 26 18 0 14 -8 -26 -60z m75 26 c0 -2 -8 -10 -17 -17 -16 -13 -17 -12 -4 4 13 16 21 21 21 13z m-239 -23 c13 -16 12 -17 -3 -4 -10 7 -18 15 -18 17 0 8 8 3 21 -13z m17 -93 c12 -19 10 -20 -53 -20 -58 0 -65 2 -65 20 0 17 7 20 53 20 41 0 55 -4 65 -20z m132 6 c0 -2 -8 -10 -17 -17 -16 -13 -17 -12 -4 4 13 16 21 21 21 13z m146 -18 c-18 -86 -8 -78 -97 -78 l-80 0 38 50 c37 48 40 49 91 50 49 0 52 -1 48 -22z m-201 -8 c10 -11 16 -20 13 -20 -3 0 -13 9 -23 20 -10 11 -16 20 -13 20 3 0 13 -9 23 -20z m103 -107 c-54 -2 -142 -2 -195 0 -54 1 -10 3 97 3 107 0 151 -2 98 -3z m-218 -109 c0 -83 -1 -85 -22 -82 -21 3 -23 9 -26 86 -3 82 -3 82 23 82 25 0 25 -1 25 -86z m96 55 c-3 -17 -6 -56 -6 -86 0 -51 -2 -54 -22 -51 -21 3 -23 9 -26 86 l-3 82 32 0 c30 0 31 -2 25 -31z m112 -51 c-3 -81 -4 -83 -28 -83 -24 0 -25 2 -28 83 l-3 82 31 0 31 0 -3 -82z m90 0 c-3 -81 -4 -83 -28 -83 -24 0 -25 2 -28 83 l-3 82 31 0 31 0 -3 -82z m-100 -123 c15 4 46 8 70 9 34 1 42 -2 42 -16 0 -16 -11 -18 -90 -18 -84 0 -90 1 -90 20 0 18 3 19 21 10 12 -7 33 -9 47 -5z m102 -73 c0 -27 -30 -32 -180 -32 -150 0 -180 5 -180 32 0 4 81 8 180 8 99 0 180 -4 180 -8z m-157 -189 c-3 -60 -7 -110 -9 -112 -2 -2 -4 46 -4 107 0 62 4 112 9 112 5 0 7 -47 4 -107z m51 70 c-3 -21 -12 -76 -19 -123 l-14 -85 5 110 c6 121 8 135 24 135 6 0 8 -14 4 -37z m53 15 c-4 -12 -14 -57 -23 -100 -21 -97 -30 -95 -15 4 17 107 20 118 32 118 7 0 9 -9 6 -22z m-50 -210 c-3 -8 -6 -5 -6 6 -1 11 2 17 5 13 3 -3 4 -12 1 -19z m-53 -313 c-4 -8 -8 -15 -10 -15 -2 0 -4 7 -4 15 0 8 4 15 10 15 5 0 7 -7 4 -15z"/>
 <path d="M380 1795 c0 -20 5 -25 25 -25 20 0 25 5 25 25 0 20 -5 25 -25 25 -20 0 -25 -5 -25 -25z"/>
 <path d="M460 1790 c0 -28 3 -30 35 -30 32 0 35 2 35 30 0 28 -3 30 -35 30 -32 0 -35 -2 -35 -30z"/>
 <path d="M540 1790 c0 -28 3 -30 35 -30 32 0 35 2 35 30 0 28 -3 30 -35 30 -32 0 -35 -2 -35 -30z"/>
 <path d="M640 1795 c0 -20 5 -25 25 -25 20 0 25 5 25 25 0 20 -5 25 -25 25 -20 0 -25 -5 -25 -25z"/>
 <path d="M700 1795 c0 -20 5 -25 25 -25 20 0 25 5 25 25 0 20 -5 25 -25 25 -20 0 -25 -5 -25 -25z"/>
 </g>

</svg>